<svg width="251" height="251" viewBox="0 0 251 251" fill="none" xmlns="http://www.w3.org/2000/svg">
<g clip-path="url(#clip0)">
<path d="M187.731 101.115L202.587 119.462L175.939 139.416L170.693 132.315L156.771 129.465L108.15 161.442L102.852 153.72L89.8136 149.47L10.3372 196.115L6.75293 215.187L236.767 125.111L251 105.935L237.65 99.1975L187.731 101.115Z" fill="#BF8035"/>
<path d="M216.612 137.705L239.52 150.403L236.767 125.111L216.612 137.705Z" fill="#C17729"/>
<path d="M216.3 119.151L180.043 145.013L170.692 132.315L113.605 169.372L102.852 153.72L6.7529 215.187L0 251L96.2548 189.014L106.124 201.194L163.005 165.122L172.251 176.317L229.027 137.757L239.52 150.403L251 105.935L205.859 107.49L216.3 119.151Z" fill="#E9B42B"/>
<path d="M190.952 39.5961C187.523 39.3369 163.213 57.1655 163.213 57.1655C163.213 57.1655 163.732 60.327 166.537 59.8087C169.342 59.2386 187.575 45.1416 189.445 45.1416C191.263 45.1416 192.718 53.9522 192.302 55.2479C195.315 55.4552 195.627 55.4034 195.627 55.4034C195.627 55.4034 194.38 39.8552 190.952 39.5961Z" fill="#494D4D"/>
<path d="M164.979 31.1482L165.29 35.1907C177.861 32.703 195.263 15.4445 195.263 15.4445C195.263 15.4445 193.964 12.9567 192.094 10.9873C185.705 18.3986 164.979 31.1482 164.979 31.1482Z" fill="#494D4D"/>
<path d="M131.63 104.225L131.578 104.173L131.63 104.225L128.305 100.804C128.305 100.804 114.955 95.0513 100.203 113.139C88.463 127.599 86.0735 130.501 85.606 131.071L85.4502 131.175C85.4502 131.175 85.4502 131.175 85.5541 131.175C85.5021 131.227 85.5021 131.227 85.5021 131.227L85.658 131.123C86.3852 130.968 90.1253 130.346 108.462 127.132C131.474 123.142 132.928 108.682 132.928 108.682L131.63 104.225Z" fill="#E06F1A"/>
<path d="M129.968 105.158L127.474 102.307C127.474 102.307 117.864 97.0209 108.93 109.874C101.813 120.136 100.359 122.209 100.099 122.624L99.9951 122.675C99.9951 122.675 99.9951 122.675 100.047 122.675C99.9951 122.727 99.9951 122.727 99.9951 122.727L100.099 122.675C100.618 122.624 103.112 122.364 115.579 121.172C131.162 119.669 131.214 108.682 131.214 108.682L129.968 105.158Z" fill="#E9B42B"/>
<path d="M128.98 105.728L127.214 103.448C127.214 103.448 121.032 98.5757 117.344 106.661C114.435 113.087 113.812 114.383 113.708 114.642L113.656 114.694C113.656 114.694 113.656 114.694 113.708 114.694C113.708 114.746 113.708 114.746 113.708 114.746L113.76 114.694C114.072 114.694 115.474 114.85 122.539 115.42C131.37 116.145 130.123 108.371 130.123 108.371L128.98 105.728Z" fill="#F5DD49"/>
<path d="M123.163 98.2647L132.565 114.279L146.383 110.444L131.63 89.2986L123.163 98.2647Z" fill="#DCDCDC"/>
<path d="M126.02 103.137L127.786 106.091L138.902 99.716L136.149 95.7771L126.02 103.137Z" fill="#FBFBFB"/>
<path d="M128.669 107.594L129.5 109.045L140.772 102.411L139.837 101.063L128.669 107.594Z" fill="#FBFBFB"/>
<path d="M145.5 108.941C145.5 108.941 149.396 113.347 138.228 126.614C173.81 128.687 171.213 96.9172 171.213 96.9172C171.213 96.9172 158.382 99.8714 145.5 108.941Z" fill="#DB4610"/>
<path d="M132.721 88.573C132.513 88.2103 132.046 88.1066 131.682 88.3139L128.358 90.2315C127.994 90.4388 127.89 90.9053 128.098 91.2681L141.24 113.554C141.448 113.917 141.916 114.02 142.279 113.813L145.604 111.895C145.967 111.688 146.071 111.222 145.863 110.859L132.721 88.573Z" fill="#DB4610"/>
<path d="M129.604 88.7804L144.201 113.606C144.201 113.606 206.172 100.545 235.157 43.3277C235.209 43.2759 172.148 39.8035 129.604 88.7804Z" fill="#DCDCDC"/>
<path d="M207.106 45.7636C210.95 50.2726 216.716 57.8912 219.885 66.5982C225.547 59.8088 230.742 52.0347 235.209 43.2759C235.209 43.2759 223.625 42.6539 207.106 45.7636Z" fill="#DB4610"/>
<path d="M129.604 88.7802L144.201 113.606C144.201 113.606 147.526 112.932 152.928 111.118L135.838 82.0945C133.76 84.1676 131.682 86.3962 129.604 88.7802Z" fill="#8D9493"/>
<path d="M138.539 103.914L144.201 113.554C144.201 113.554 204.717 100.804 234.17 45.2454C197.341 90.1279 138.539 103.914 138.539 103.914Z" fill="#C0C0C0"/>
<path d="M182.277 66.0282C177.29 68.9306 175.628 75.3572 178.537 80.3326C181.446 85.308 187.887 86.9665 192.874 84.0642C197.861 81.1618 199.523 74.7352 196.614 69.7598C193.653 64.7844 187.264 63.1259 182.277 66.0282Z" fill="#C0C0C0"/>
<path d="M182.277 64.9399C177.29 67.8422 175.628 74.2688 178.537 79.2442C181.446 84.2196 187.887 85.8781 192.874 82.9758C197.861 80.0734 199.523 73.6468 196.614 68.6714C193.653 63.696 187.264 62.0375 182.277 64.9399Z" fill="#EFEAEA"/>
<path d="M183.627 67.2719C179.939 69.4487 178.693 74.2168 180.874 77.8965C183.056 81.5763 187.835 82.8201 191.523 80.6434C195.211 78.4666 196.458 73.6985 194.276 70.0188C192.094 66.2872 187.316 65.0952 183.627 67.2719Z" fill="#A0DAE0"/>
<path d="M183.627 67.2719C181.445 68.5158 180.147 70.6925 179.835 72.9729C180.458 71.4181 181.549 70.0706 183.108 69.1377C186.796 66.961 191.575 68.2048 193.756 71.8846C194.691 73.4394 195.003 75.1497 194.743 76.8082C195.574 74.6314 195.47 72.1437 194.224 70.0188C192.094 66.2872 187.315 65.0952 183.627 67.2719Z" fill="#80ADB2"/>
<path d="M206.12 47.1629C205.808 47.3184 205.704 47.733 205.912 48.044C206.068 48.3549 206.483 48.4586 206.795 48.2513C207.107 48.0958 207.21 47.6812 207.003 47.3702C206.847 47.1111 206.431 47.0074 206.12 47.1629Z" fill="#7F7F7F"/>
<path d="M140.149 85.8262C139.837 85.9817 139.733 86.3963 139.941 86.7073C140.097 87.0183 140.513 87.1219 140.824 86.9146C141.136 86.7591 141.24 86.3445 141.032 86.0335C140.824 85.7744 140.461 85.6707 140.149 85.8262Z" fill="#7F7F7F"/>
<path d="M141.656 88.3655C141.344 88.521 141.24 88.9356 141.448 89.2466C141.604 89.5576 142.019 89.6612 142.331 89.4539C142.643 89.2984 142.747 88.8838 142.539 88.5728C142.331 88.3137 141.915 88.2101 141.656 88.3655Z" fill="#7F7F7F"/>
<path d="M143.11 90.9052C142.798 91.0607 142.694 91.4753 142.902 91.7863C143.058 92.0972 143.473 92.2009 143.785 91.9936C144.097 91.8381 144.201 91.4235 143.993 91.1125C143.837 90.8016 143.421 90.6979 143.11 90.9052Z" fill="#7F7F7F"/>
<path d="M144.617 93.3929C144.305 93.5484 144.201 93.963 144.409 94.2739C144.565 94.5849 144.98 94.6886 145.292 94.4813C145.604 94.3258 145.708 93.9112 145.5 93.6002C145.292 93.3411 144.928 93.2374 144.617 93.3929Z" fill="#7F7F7F"/>
<path d="M146.071 95.9326C145.759 96.088 145.655 96.5027 145.863 96.8136C146.019 97.1246 146.434 97.2282 146.746 97.0209C147.058 96.8654 147.162 96.4508 146.954 96.1399C146.798 95.8289 146.382 95.7771 146.071 95.9326Z" fill="#7F7F7F"/>
<path d="M147.578 98.4719C147.266 98.6274 147.162 99.042 147.37 99.3529C147.526 99.6639 147.941 99.7676 148.253 99.5603C148.565 99.4048 148.668 98.9901 148.461 98.6792C148.253 98.3682 147.889 98.2646 147.578 98.4719Z" fill="#7F7F7F"/>
<path d="M149.083 100.96C148.772 101.115 148.668 101.53 148.876 101.841C149.032 102.152 149.447 102.255 149.759 102.048C150.07 101.893 150.174 101.478 149.967 101.167C149.759 100.908 149.343 100.804 149.083 100.96Z" fill="#7F7F7F"/>
<path d="M207.938 49.4952C207.626 49.6507 207.522 50.0653 207.73 50.3762C207.886 50.6872 208.302 50.7909 208.613 50.5835C208.925 50.4281 209.029 50.0134 208.821 49.7025C208.613 49.4433 208.25 49.3397 207.938 49.4952Z" fill="#7F7F7F"/>
<path d="M209.808 52.1385C209.496 52.294 209.393 52.7086 209.6 53.0196C209.756 53.3305 210.172 53.4342 210.483 53.2269C210.795 53.0714 210.899 52.6568 210.691 52.3458C210.483 52.0867 210.12 51.983 209.808 52.1385Z" fill="#7F7F7F"/>
<path d="M211.73 54.6778C211.418 54.8333 211.314 55.2479 211.522 55.5589C211.678 55.8698 212.094 55.9735 212.405 55.7662C212.717 55.6107 212.821 55.1961 212.613 54.8851C212.405 54.626 212.042 54.5223 211.73 54.6778Z" fill="#7F7F7F"/>
<path d="M213.444 57.632C213.132 57.7875 213.028 58.2021 213.236 58.5131C213.392 58.8241 213.807 58.9277 214.119 58.7204C214.431 58.5649 214.535 58.1503 214.327 57.8393C214.171 57.5284 213.755 57.4765 213.444 57.632Z" fill="#7F7F7F"/>
<path d="M215.054 60.3271C214.742 60.4826 214.639 60.8972 214.846 61.2082C215.002 61.5191 215.418 61.6228 215.729 61.4155C216.041 61.26 216.145 60.8454 215.937 60.5344C215.729 60.2234 215.366 60.1716 215.054 60.3271Z" fill="#7F7F7F"/>
<path d="M216.197 63.022C215.885 63.1775 215.781 63.5921 215.989 63.9031C216.145 64.2141 216.56 64.3177 216.872 64.1104C217.184 63.9549 217.288 63.5403 217.08 63.2293C216.924 62.9702 216.508 62.8665 216.197 63.022Z" fill="#7F7F7F"/>
<path d="M217.548 65.7689C217.237 65.9243 217.133 66.339 217.341 66.6499C217.496 66.9609 217.912 67.0645 218.224 66.8572C218.535 66.7017 218.639 66.2871 218.431 65.9762C218.224 65.717 217.86 65.6134 217.548 65.7689Z" fill="#7F7F7F"/>
<path d="M149.136 106.505C148.149 107.905 147.162 109.356 146.123 110.755C146.331 112.569 145.863 115.834 142.383 121.121C160.304 114.176 167.732 107.853 170.797 103.499C171.368 99.6641 171.161 96.9172 171.161 96.9172C171.161 96.9172 160.668 99.3531 149.136 106.505Z" fill="#C0C0C0"/>
<path d="M149.084 104.38C145.448 112.154 142.175 115.057 133.968 119.41C169.031 106.091 170.018 96.5543 170.018 96.5543C167.005 95.8806 154.019 100.338 149.084 104.38Z" fill="#DB4610"/>
<path opacity="0.5" d="M131.267 91.579L133.604 95.5179C147.266 80.6953 178.121 52.9676 225.34 43.4314C222.95 43.5869 220.145 43.7942 217.08 44.2088C194.484 48.8733 159.057 60.8972 131.267 91.579Z" fill="#FBFBFB"/>
<path d="M141.967 79.5549C135.162 85.0486 130.591 90.6978 131.786 92.149C132.98 93.652 139.473 90.3869 146.278 84.8932C153.083 79.3995 157.654 73.7503 156.46 72.2991C155.265 70.8479 148.824 74.1131 141.967 79.5549Z" fill="#C0C0C0"/>
<path d="M114.28 86.0334C131.318 82.7164 133.292 88.3138 133.292 88.3138C147.525 81.5244 156.304 71.7809 156.304 71.7809C156.304 71.7809 129.812 54.0041 114.28 86.0334Z" fill="#DB4610"/>
<path d="M174.329 35.45C173.965 29.2307 169.55 24.5144 168.355 25.6546C168.355 25.6546 151.006 39.9072 157.291 64.9916C163.68 66.8574 173.81 57.3212 175.835 55.0926C172.719 46.5929 171.576 39.959 174.329 35.45Z" fill="#494D4D"/>
<path d="M168.511 25.9655L171.316 28.8678L174.744 26.3801L171.939 22.5967L168.511 25.9655Z" fill="white"/>
<path d="M168.303 25.6545C168.303 25.6545 172.406 31.7702 172.095 40.3217C172.822 34.8798 172.926 30.7336 171.368 28.4014L168.303 25.6545Z" fill="white"/>
<path d="M168.77 32.2883C170.121 33.3767 170.381 34.3096 170.381 34.3096L169.446 34.7242C169.446 34.7242 171.575 38.8704 172.251 42.913C171.991 36.59 172.043 29.8525 168.303 25.5508C168.303 25.5508 169.394 29.9043 168.77 32.2883Z" fill="#666666"/>
<path d="M184.666 42.1875C184.51 42.2393 184.406 42.2912 184.406 42.2912C184.406 42.2912 184.51 42.2393 184.666 42.1875Z" fill="#F4DAB6"/>
<path d="M183.991 40.0625C183.939 40.1147 183.887 40.167 183.887 40.167C183.887 40.167 183.939 40.1147 183.991 40.0625Z" fill="#F4DAB6"/>
<path d="M184.666 42.1874C184.51 42.2392 184.406 42.291 184.406 42.291C184.406 42.291 184.458 42.1874 184.666 42.1874C185.134 41.9801 185.965 41.4618 185.237 40.1143C184.874 39.3887 184.199 39.8552 183.991 40.0625C183.939 40.1143 183.887 40.1661 183.887 40.1661C183.887 40.1661 183.939 40.1143 183.991 40.0625C184.302 39.8033 185.185 38.8186 184.199 37.9375C183.575 37.3674 182.432 38.404 182.432 38.404C182.432 38.404 181.497 37.6784 179.835 38.1967C178.173 38.715 179.523 42.7057 179.523 42.7057L180.251 44.416C180.251 44.416 182.277 44.8306 183.523 44.8824C184.77 44.9342 186.017 43.2758 185.497 42.602C185.237 42.1356 184.874 42.1356 184.666 42.1874Z" fill="#F4DAB6"/>
<path d="M178.744 42.6539L179.887 45.0898L180.874 44.3642L179.523 42.032L178.744 42.6539Z" fill="white"/>
<path d="M178.796 42.1364C178.85 42.0827 178.796 42.1364 178.796 42.1364V42.1364Z" fill="#494D4D"/>
<path d="M171.264 46.5928C162.797 51.5164 165.238 35.5017 165.238 35.5017L160.615 43.9496C160.615 43.9496 160.979 49.236 166.797 51.1536C172.563 53.123 180.354 45.0379 180.354 45.0379L178.796 42.0838C178.64 42.2393 177.497 42.913 171.264 46.5928Z" fill="#494D4D"/>
<path d="M162.329 48.0957C162.589 49.3396 166.069 57.9947 174.588 49.5987C174.588 49.5987 166.744 56.4399 162.329 48.0957Z" fill="#2D2F2F"/>
<path d="M167.212 46.4891C164.511 45.7117 164.927 38.2485 164.927 38.2485C164.927 38.2485 163.992 44.3642 166.485 46.7482C168.978 49.1323 173.913 45.0379 173.913 45.0379C173.913 45.0379 169.913 47.2147 167.212 46.4891Z" fill="#2D2F2F"/>
<path d="M179.835 40.1662L182.432 38.4041C182.432 38.4041 181.965 38.5595 181.237 38.8187C180.51 39.0778 179.835 40.1662 179.835 40.1662Z" fill="#E1C9A7"/>
<path d="M170.952 22.7522L170.797 23.115C170.745 23.115 171.264 23.2186 170.952 22.7522Z" fill="#66352B"/>
<path d="M172.511 6.27117C168.979 8.86253 162.33 16.533 167.42 19.9536C169.758 21.5602 170.693 22.3377 170.953 22.7523L177.758 8.44791C177.706 8.44791 176.043 3.6798 172.511 6.27117Z" fill="#66352B"/>
<path d="M174.07 7.61865C174.07 7.61865 168.408 15.5482 170.07 16.2738C168.927 15.9629 167.888 18.2433 168.46 19.0725C169.031 19.8499 170.641 19.7463 170.641 19.7463C170.641 19.7463 169.55 22.1821 171.628 25.0845C175.212 30.1117 183.939 26.8466 183.939 26.8466L183.368 20.8346C183.368 20.8346 184.615 20.9383 185.29 18.8134C187.731 9.06982 174.07 7.61865 174.07 7.61865Z" fill="#F4DAB6"/>
<path d="M177.446 21.1456C173.965 19.5908 176.511 27.2094 183.783 25.6546L183.419 21.923C182.225 22.1303 179.887 22.234 177.446 21.1456Z" fill="#C8370D"/>
<path d="M174.018 6.53027L170.329 9.69174C170.329 9.69174 166.33 16.4293 168.979 16.0665C171.628 15.7555 171.161 19.0207 171.161 19.0207H171.472C171.472 19.0207 171.836 15.7037 171.265 12.0758C174.589 11.6612 177.758 8.44789 177.758 8.44789L174.018 6.53027Z" fill="#66352B"/>
<path d="M179.16 23.426C178.381 23.4778 177.706 23.7369 177.187 24.0997C178.277 25.1363 180.044 26.0173 182.381 25.8619C182.433 25.7064 182.433 25.4991 182.433 25.3436C182.381 24.1516 180.875 23.3223 179.16 23.426Z" fill="#E06F44"/>
<path d="M176.302 12.5423C175.887 12.5941 175.575 12.9569 175.575 13.3715C175.627 13.7861 175.991 14.0971 176.406 14.0971C176.822 14.0452 177.134 13.6825 177.134 13.2678C177.082 12.8014 176.718 12.4904 176.302 12.5423Z" fill="#66352B"/>
<path d="M179.836 10.7283C179.42 10.7801 179.108 11.1429 179.108 11.5575C179.16 11.9721 179.524 12.2831 179.94 12.2831C180.355 12.2313 180.667 11.8685 180.667 11.4539C180.667 11.0392 180.303 10.7283 179.836 10.7283Z" fill="#66352B"/>
<path d="M169.187 7.20401C166.693 7.72228 166.07 11.0392 166.589 13.5788C167.161 13.7861 167.005 13.7343 166.745 13.6824C166.797 13.6824 166.849 13.7343 166.849 13.7343C166.953 13.7861 167.109 13.8379 167.213 13.8379C169.758 14.3044 176.199 10.4691 177.602 9.22527C179.108 7.87776 179.368 2.85051 177.082 0C178.589 2.38406 173.706 6.27111 169.187 7.20401Z" fill="#66352B"/>
<path d="M166.641 13.6824C166.641 13.6306 166.641 13.6306 166.641 13.6824C166.329 13.5269 166.018 13.4751 166.641 13.6824Z" fill="#66352B"/>
<path d="M166.641 13.6307C166.693 13.6307 166.693 13.6307 166.745 13.6825C166.693 13.6825 166.641 13.6307 166.589 13.5789C166.589 13.6307 166.641 13.6307 166.641 13.6307Z" fill="#66352B"/>
<path d="M180.823 20.1091C178.173 19.6945 181.394 20.4719 183.368 20.8347C183.368 20.8347 184.615 20.9384 185.29 18.8134C185.55 17.8287 185.601 16.9476 185.55 16.1184C185.446 16.4294 184.043 20.6274 180.823 20.1091Z" fill="#E1C9A7"/>
<path d="M170.382 21.0417C170.33 22.0265 170.486 23.4776 171.628 25.0843C175.213 30.1115 183.939 26.8464 183.939 26.8464V26.6909C175.265 28.9713 171.421 23.063 170.382 21.0417Z" fill="#E1C9A7"/>
<path d="M195.21 15.4445C195.21 15.4445 195.21 15.3926 195.21 15.4445C195.21 15.4445 193.912 12.9567 192.042 10.9873C192.042 10.9873 191.522 14.667 195.21 15.4445Z" fill="black"/>
<path d="M199.314 10.4692C199.159 10.5211 199.055 10.5729 199.055 10.5729C199.055 10.5729 199.159 10.5211 199.314 10.4692Z" fill="#F4DAB6"/>
<path d="M198.64 8.34424C198.588 8.39648 198.535 8.44872 198.535 8.44872C198.535 8.44872 198.588 8.39648 198.64 8.34424Z" fill="#F4DAB6"/>
<path d="M199.314 10.4691C199.158 10.521 199.055 10.5728 199.055 10.5728C199.055 10.5728 199.158 10.521 199.314 10.4691C199.782 10.2618 200.613 9.74354 199.886 8.39603C199.522 7.67045 198.847 8.13689 198.639 8.3442C198.587 8.39603 198.535 8.44786 198.535 8.44786C198.535 8.44786 198.587 8.39603 198.639 8.3442C198.951 8.08507 199.834 7.10035 198.847 6.21928C198.223 5.64918 197.081 6.68573 197.081 6.68573C197.081 6.68573 196.146 5.96014 194.483 6.47842C192.821 6.99669 193.341 10.3136 193.341 10.3136L194.899 12.6977C194.899 12.6977 196.925 13.1123 198.171 13.1641C199.418 13.216 200.665 11.5575 200.145 10.8837C199.938 10.4691 199.574 10.4173 199.314 10.4691Z" fill="#F4DAB6"/>
<path d="M192.042 11.2983L192.25 11.1429C192.198 11.091 192.146 11.0392 192.094 10.9355C192.042 10.9874 192.042 11.091 192.042 11.2983Z" fill="black"/>
<path d="M192.198 11.143L191.99 11.2984C191.99 11.9722 192.094 13.527 193.341 14.5636L194.224 13.7343L195.315 12.7496L193.393 10.3137L192.198 11.143Z" fill="white"/>
<path d="M197.081 6.68579C197.081 6.68579 197.808 7.92965 197.341 8.65523C196.873 9.32899 195.886 9.06985 195.003 8.49975C195.419 9.06985 195.003 10.0027 194.899 10.832C195.575 10.2101 195.575 9.63995 195.263 8.86254C195.886 9.95092 197.756 9.48447 197.86 8.49975C197.964 7.35955 197.081 6.68579 197.081 6.68579Z" fill="#E1C9A7"/>
<path d="M195.834 9.17355C196.613 10.4174 198.327 8.65527 198.327 8.65527C197.756 9.32903 196.509 9.43268 195.834 9.17355Z" fill="#E1C9A7"/>
<path d="M197.029 10.6246C196.458 10.4173 197.081 9.43262 197.081 9.43262C197.081 9.43262 195.886 10.2619 196.821 10.7801C197.756 11.2984 199.055 10.521 199.055 10.521C199.055 10.521 197.601 10.832 197.029 10.6246Z" fill="#E1C9A7"/>
<path d="M196.718 11.7129C196.354 11.1946 197.445 10.78 197.445 10.78C197.445 10.78 195.99 10.78 196.458 11.7129C196.925 12.6976 198.432 12.8013 198.432 12.8013C198.432 12.8013 197.029 12.2312 196.718 11.7129Z" fill="#E1C9A7"/>
<path d="M196.25 7.9815C196.821 9.01804 196.821 8.96622 197.081 8.91439C197.081 8.91439 198.016 8.44794 197.185 6.84129C197.185 6.78947 196.406 6.78947 196.25 7.9815Z" fill="#FAF2E6"/>
<path d="M197.756 9.53638L196.977 9.74369C196.977 9.74369 196.561 10.6766 197.341 10.6766C198.12 10.6766 198.016 10.262 198.016 10.262L197.756 9.53638Z" fill="#FAF2E6"/>
<path d="M197.237 11.1428C197.237 11.1428 196.77 11.3501 196.925 11.9202C197.445 12.3349 197.756 12.1794 197.912 11.8684C198.016 11.5056 197.341 11.1428 197.237 11.1428Z" fill="#FAF2E6"/>
<path d="M185.705 46.2301C182.276 45.971 157.966 63.7996 157.966 63.7996C157.966 63.7996 158.485 66.961 161.29 66.4428C164.095 65.8727 182.328 51.7756 184.198 51.7756C186.016 51.7756 187.471 60.5863 187.055 61.882C190.068 62.0893 190.38 62.0374 190.38 62.0374C190.38 62.0374 189.081 46.4892 185.705 46.2301Z" fill="#494D4D"/>
<path d="M196.197 59.4461C194.016 60.69 187.003 61.882 187.003 61.882L187.522 64.6288L191.574 64.7843L191.834 63.8514C191.834 63.8514 199.989 63.2295 199.989 62.4003C199.989 61.5192 198.379 58.1504 196.197 59.4461Z" fill="#494D4D"/>
<path d="M169.81 27.0539C169.81 27.0539 166.277 23.5815 152.979 23.426C141.603 25.6546 152.46 27.3131 152.46 27.3131C152.46 27.3131 163.992 24.5662 169.29 27.5204C174.641 30.5264 169.81 27.0539 169.81 27.0539Z" fill="#C8370D"/>
<path d="M160.044 65.4581C160.044 65.4581 158.485 65.2508 161.239 66.4428C163.992 67.6348 181.705 61.2082 185.341 61.0527C186.588 61.0009 187.523 61.3119 188.198 61.6747C181.549 49.8062 160.044 65.4581 160.044 65.4581Z" fill="#C0C0C0"/>
<path d="M188.25 61.6746C188.354 61.8819 188.51 62.141 188.614 62.3483C189.808 63.4367 189.601 62.4001 188.25 61.6746Z" fill="#C0C0C0"/>
<path d="M141.759 144.65C146.59 145.79 161.343 135.477 166.797 131.486L163.317 130.76C154.278 136.928 136.513 143.406 141.759 144.65Z" fill="#A4632F"/>
<path d="M193.081 102.204L204.821 120.395L177.29 141.178L179.056 143.562L210.171 119.877C210.171 119.877 199.73 104.795 200.302 104.484C200.873 104.121 241.027 104.795 239.521 102.826C237.91 100.908 193.081 102.204 193.081 102.204Z" fill="#A4632F"/>
</g>
<defs>
<clipPath id="clip0">
<rect width="251" height="251" fill="white"/>
</clipPath>
</defs>
</svg>
