<svg width="65" height="65" viewBox="0 0 65 65" fill="none" xmlns="http://www.w3.org/2000/svg">
<path d="M32.5 0C14.5872 0 0 14.5872 0 32.5C0 50.4128 14.5872 65 32.5 65C50.4128 65 65 50.4128 65 32.5C65 14.5872 50.4128 0 32.5 0ZM47.6163 26.6047L29.4767 44.7442C28.8721 45.3488 28.1163 45.6512 27.3605 45.6512C26.6047 45.6512 25.8488 45.3488 25.2442 44.7442L15.8721 35.5233C14.6628 34.314 14.6628 32.4244 15.8721 31.2151C17.0814 30.0058 18.9709 30.0058 20.1802 31.2151L27.2849 38.3198L43.3081 22.2965C44.5174 21.0872 46.407 21.0872 47.6163 22.2965C48.75 23.5058 48.75 25.3953 47.6163 26.6047Z" fill="#F0A744"/>
</svg>
