<svg width="65" height="65" viewBox="0 0 65 65" fill="none" xmlns="http://www.w3.org/2000/svg">
<path d="M32.5 0C26.0721 0 19.7886 1.90609 14.444 5.47724C9.09938 9.04838 4.93378 14.1242 2.47393 20.0628C0.0140817 26.0014 -0.629527 32.536 0.624493 38.8404C1.87851 45.1448 4.97384 50.9358 9.51904 55.481C14.0642 60.0262 19.8552 63.1215 26.1596 64.3755C32.464 65.6295 38.9986 64.9859 44.9372 62.5261C50.8758 60.0662 55.9516 55.9006 59.5228 50.556C63.0939 45.2114 65 38.9279 65 32.5C65 23.8805 61.5759 15.614 55.481 9.51903C49.386 3.4241 41.1195 0 32.5 0V0ZM31.6355 48.75C30.94 48.75 30.2601 48.5438 29.6818 48.1574C29.1036 47.771 28.6528 47.2218 28.3867 46.5792C28.1205 45.9366 28.0509 45.2296 28.1866 44.5475C28.3223 43.8653 28.6572 43.2387 29.149 42.7469C29.6408 42.2552 30.2673 41.9202 30.9495 41.7846C31.6316 41.6489 32.3387 41.7185 32.9812 41.9847C33.6238 42.2508 34.173 42.7015 34.5594 43.2798C34.9458 43.8581 35.152 44.538 35.152 45.2335C35.152 46.1661 34.7815 47.0606 34.122 47.72C33.4626 48.3795 32.5681 48.75 31.6355 48.75ZM42.9715 26.936C42.5662 28.3443 41.7761 29.6116 40.69 30.5955C39.8226 31.4157 38.8948 32.1697 37.9145 32.851C37.206 33.371 36.5105 33.917 35.815 34.463C35.35 34.8701 34.9965 35.3892 34.788 35.971C34.6103 36.4043 34.437 36.8203 34.268 37.219C34.0946 37.6675 33.7893 38.0529 33.3925 38.3244C32.9957 38.5959 32.5258 38.7408 32.045 38.74C31.4098 38.815 30.7676 38.6779 30.2185 38.35C29.7698 38.0703 29.4053 37.6741 29.1638 37.2037C28.9222 36.7333 28.8128 36.2062 28.847 35.6785C28.8826 34.3734 29.4041 33.1286 30.3095 32.188C31.3617 31.1113 32.5057 30.1282 33.7285 29.25C34.6402 28.5864 35.426 27.7654 36.049 26.8255C36.9005 25.4085 36.634 23.088 35.178 22.061C34.6525 21.6925 34.0502 21.4481 33.4165 21.346C32.4491 21.1651 31.4522 21.2209 30.511 21.5085C30.0003 21.6898 29.5324 21.9745 29.1365 22.3446C28.7406 22.7148 28.4252 23.1626 28.21 23.66C27.833 24.3815 27.5015 25.129 27.0725 25.818C26.7451 26.3261 26.2639 26.7162 25.6991 26.9314C25.1343 27.1465 24.5155 27.1755 23.933 27.014C23.4071 26.9284 22.9185 26.6886 22.529 26.325C22.2699 26.0732 22.0675 25.769 21.9352 25.4327C21.8029 25.0965 21.7439 24.7359 21.762 24.375C21.7792 23.1182 22.1732 21.8954 22.893 20.865C24.1048 19.125 25.8261 17.8034 27.82 17.082C29.1515 16.5622 30.564 16.2806 31.993 16.25C34.0861 16.2186 36.1634 16.6168 38.0965 17.42C39.7335 18.0779 41.1211 19.2357 42.0615 20.7285C42.6289 21.6463 43.0023 22.6705 43.1588 23.7381C43.3153 24.8057 43.2516 25.894 42.9715 26.936Z" fill="#E5C17C"/>
</svg>
