<svg width="339" height="294" viewBox="0 0 339 294" fill="none" xmlns="http://www.w3.org/2000/svg">
<circle opacity="0.3" cx="170" cy="147" r="147" fill="#F0A744"/>
<g clip-path="url(#clip0)">
<path d="M189.054 177.867H174.456H159.858C159.858 177.867 160.399 183.631 157.875 190.837L190.316 188.315C188.694 182.37 189.054 177.867 189.054 177.867Z" fill="#BEC0C2"/>
<path d="M157.876 190.837C156.254 195.52 153.37 200.744 148.144 205.607H174.456H200.769C194.641 199.843 191.758 193.539 190.316 188.495L157.876 190.837Z" fill="#DEE0E2"/>
<path d="M89.2104 160.215C89.2104 179.489 90.2918 183.632 109.576 183.632H239.336C258.62 183.632 259.702 179.669 259.702 160.215V153.73H89.2104V160.215Z" fill="#F2F2F2"/>
<path d="M239.336 57H109.576C90.2918 57 89.2104 60.9629 89.2104 80.4169V156.612H259.882V80.4169C259.882 60.9629 258.801 57 239.336 57Z" fill="#339FB8"/>
<path d="M236.453 168.861C236.453 169.942 235.552 170.662 234.651 170.662C233.57 170.662 232.849 169.762 232.849 168.861C232.849 167.96 233.75 167.06 234.651 167.06C235.732 167.06 236.453 167.96 236.453 168.861Z" fill="#BEC0C2"/>
<path d="M241.86 168.861C241.86 169.942 240.959 170.662 240.058 170.662C238.976 170.662 238.255 169.762 238.255 168.861C238.255 167.96 239.156 167.06 240.058 167.06C240.959 167.06 241.86 167.96 241.86 168.861Z" fill="#BEC0C2"/>
<path d="M247.267 168.861C247.267 169.942 246.365 170.662 245.464 170.662C244.383 170.662 243.662 169.762 243.662 168.861C243.662 167.96 244.563 167.06 245.464 167.06C246.365 167.06 247.267 167.96 247.267 168.861Z" fill="#BEC0C2"/>
<path d="M251.231 66.0068H97.8608V150.668H251.231V66.0068Z" fill="#9999CC"/>
<path d="M128.139 74.6523H106.692V82.5781H128.139V74.6523Z" fill="#9999CC"/>
<path d="M243.121 74.6523H136.249V82.5781H243.121V74.6523Z" fill="#FFC211"/>
<path d="M127.779 89.4229H121.471H106.692V103.473H121.471H127.779H146.522V89.4229H127.779Z" fill="#FFA64D"/>
<path d="M176.078 89.4229H169.77H154.992V103.473H169.77H176.078H194.822V89.4229H176.078Z" fill="#E0676F"/>
<path d="M224.378 89.4229H218.07H203.472V103.473H218.07H224.378H243.121V89.4229H224.378Z" fill="#57D6A8"/>
<path d="M127.779 110.679H121.471H106.692V146.344H121.471H127.779H146.522V110.679H127.779Z" fill="#A8ECFF"/>
<path d="M176.078 110.679H169.77H154.992V146.344H169.77H176.078H194.822V110.679H176.078Z" fill="#A8ECFF"/>
<path d="M224.378 110.679H218.07H203.472V146.344H218.07H224.378H243.121V110.679H224.378Z" fill="#A8ECFF"/>
<path d="M209.239 206.148C209.239 209.39 206.536 211.912 203.472 211.912H145.801C142.557 211.912 140.034 209.39 140.034 206.148C140.034 202.906 142.737 200.384 145.801 200.384H203.472C206.536 200.384 209.239 202.906 209.239 206.148Z" fill="#F2F2F2"/>
<path d="M338.459 241.994C338.459 246.677 334.674 250.64 329.808 250.64H282.049C277.363 250.64 273.398 246.857 273.398 241.994V176.066C273.398 171.383 277.183 167.42 282.049 167.42H329.808C334.494 167.42 338.459 171.203 338.459 176.066V241.994Z" fill="#339FB8"/>
<path d="M329.808 251H282.049C277.003 251 273.038 247.037 273.038 241.994V176.066C273.038 171.022 277.003 167.06 282.049 167.06H329.808C334.855 167.06 338.82 171.022 338.82 176.066V241.994C339 247.037 334.855 251 329.808 251ZM282.049 167.78C277.544 167.78 273.939 171.383 273.939 175.886V241.814C273.939 246.317 277.544 249.919 282.049 249.919H329.808C334.314 249.919 337.918 246.317 337.918 241.814V176.066C337.918 171.563 334.314 167.96 329.808 167.96H282.049V167.78Z" fill="#F2F2F2"/>
<path d="M332.512 173.544H279.526V238.03H332.512V173.544Z" fill="#9999CC"/>
<path d="M303.676 176.066H282.41V179.489H303.676V176.066Z" fill="#9999CC"/>
<path d="M328.907 176.066H307.46V179.489H328.907V176.066Z" fill="#FFC211"/>
<path d="M291.601 182.551H288.898H282.41V188.675H288.898H291.601H299.891V182.551H291.601Z" fill="#FFA64D"/>
<path d="M303.676 182.551V191.377H282.41V196.061H328.907V182.551H303.676Z" fill="#A8ECFF"/>
<path d="M291.601 200.924H288.898H282.41V207.048H288.898H291.601H299.891V200.924H291.601Z" fill="#E0676F"/>
<path d="M303.676 200.924V209.75H282.41V214.253H328.907V200.924H303.676Z" fill="#A8ECFF"/>
<path d="M291.601 219.117H288.898H282.41V225.422H288.898H291.601H299.891V219.117H291.601Z" fill="#57D6A8"/>
<path d="M303.676 219.117V228.124H282.41V232.627H328.907V219.117H303.676Z" fill="#A8ECFF"/>
<path d="M308.722 244.515C308.722 245.235 308.181 245.776 307.461 245.776H304.577C303.856 245.776 303.315 245.235 303.315 244.515C303.315 243.794 303.856 243.254 304.577 243.254H307.461C308.181 243.254 308.722 243.794 308.722 244.515Z" fill="#F0EDEE"/>
<path d="M131.924 241.453V175.165C131.924 170.662 128.499 167.06 124.174 167.06H21.9874C17.662 167.06 14.2378 170.662 14.2378 175.165V241.453H131.924Z" fill="#339FB8"/>
<path d="M126.337 173.904H20.0049V236.049H126.337V173.904Z" fill="#9999CC"/>
<path d="M40.19 178.948H25.0513V184.532H40.19V178.948Z" fill="#9999CC"/>
<path d="M121.831 178.948H45.957V184.532H121.831V178.948Z" fill="#FFC211"/>
<path d="M39.8296 189.396H35.5042H25.0513V199.303H35.5042H39.8296H53.1661V189.396H39.8296Z" fill="#FFA64D"/>
<path d="M74.252 189.396H69.7464H59.2935V199.303H69.7464H74.252H87.5885V189.396H74.252Z" fill="#E0676F"/>
<path d="M108.495 189.396H104.169H93.7163V199.303H104.169H108.495H121.831V189.396H108.495Z" fill="#57D6A8"/>
<path d="M39.8296 204.347H35.5042H25.0513V232.627H35.5042H39.8296H53.1661V204.347H39.8296Z" fill="#A8ECFF"/>
<path d="M74.252 204.347H69.7464H59.2935V232.627H69.7464H74.252H87.5885V204.347H74.252Z" fill="#A8ECFF"/>
<path d="M108.495 204.347H104.169H93.7163V232.627H104.169H108.495H121.831V204.347H108.495Z" fill="#A8ECFF"/>
<path d="M146.161 241.453H-9.02452e-06C-0.360456 250.64 9.91227 251 9.91227 251H136.249C136.249 251 146.521 250.64 146.161 241.453Z" fill="#F2F2F2"/>
<path d="M88.129 241.634H58.0317C58.0317 245.417 60.7351 245.597 60.7351 245.597H85.6059C85.4257 245.597 88.3092 245.417 88.129 241.634Z" fill="#6699CC"/>
<path d="M259.882 191.558H230.686C229.244 191.558 228.343 192.819 228.343 194.079V247.938C228.343 249.199 229.064 250.46 230.686 250.46H259.882C261.504 250.46 262.225 249.199 262.225 247.938V194.26C262.225 192.819 261.504 191.558 259.882 191.558Z" fill="#339FB8"/>
<path d="M259.882 251H230.686C228.884 251 227.982 249.559 227.982 247.938V194.259C227.982 192.818 228.884 191.197 230.686 191.197H259.882C261.684 191.197 262.585 192.638 262.585 194.259V247.938C262.765 249.559 261.684 251 259.882 251ZM230.866 192.098C229.604 192.098 229.064 193.179 229.064 194.259V247.938C229.064 249.019 229.604 250.1 230.866 250.1H260.062C261.324 250.1 261.864 249.019 261.864 247.938V194.259C261.864 193.179 261.324 192.098 260.062 192.098H230.866Z" fill="#F2F2F2"/>
<path d="M259.522 198.942H231.407V240.733H259.522V198.942Z" fill="#9999CC"/>
<path d="M240.598 200.744H233.389V203.806H240.598V200.744Z" fill="#9999CC"/>
<path d="M257.72 200.744H243.482V203.806H257.72V200.744Z" fill="#FFC211"/>
<path d="M246.185 205.968H242.4H233.389V208.309H242.4H246.185H257.539V205.968H246.185Z" fill="#FFA64D"/>
<path d="M246.185 210.291H242.4H233.389V214.794H242.4H246.185H257.539V210.291H246.185Z" fill="#A8ECFF"/>
<path d="M246.185 217.676H242.4H233.389V220.017H242.4H246.185H257.539V217.676H246.185Z" fill="#E0676F"/>
<path d="M246.185 221.999H242.4H233.389V226.502H242.4H246.185H257.539V221.999H246.185Z" fill="#A8ECFF"/>
<path d="M246.185 229.565H242.4H233.389V231.907H242.4H246.185H257.539V229.565H246.185Z" fill="#57D6A8"/>
<path d="M246.185 233.888H242.4H233.389V238.391H242.4H246.185H257.539V233.888H246.185Z" fill="#A8ECFF"/>
<path d="M247.086 244.876C247.086 245.956 246.366 246.677 245.284 246.677C244.203 246.677 243.482 245.956 243.482 244.876C243.482 243.795 244.203 243.074 245.284 243.074C246.366 243.074 247.086 243.975 247.086 244.876Z" fill="#F0EDEE"/>
<path d="M250.33 196.421C250.33 196.782 250.15 196.962 249.79 196.962H240.959C240.598 196.962 240.418 196.782 240.418 196.421C240.418 196.061 240.598 195.881 240.959 195.881H249.79C250.15 195.881 250.33 196.061 250.33 196.421Z" fill="#F0EDEE"/>
<path d="M161.3 219.117V248.298C161.3 249.739 162.561 250.64 163.823 250.64H217.71C218.971 250.64 220.233 249.919 220.233 248.298V219.117C220.233 217.676 218.971 216.775 217.71 216.775H164.003C162.561 216.775 161.3 217.676 161.3 219.117Z" fill="#339FB8"/>
<path d="M220.774 219.117V248.298C220.774 250.099 219.332 251 217.71 251H164.003C162.561 251 160.939 250.099 160.939 248.298V219.117C160.939 217.316 162.381 216.415 164.003 216.415H217.89C219.332 216.415 220.774 217.316 220.774 219.117ZM161.841 248.298C161.841 249.559 162.922 250.099 164.003 250.099H217.89C218.971 250.099 220.053 249.559 220.053 248.298V219.117C220.053 217.856 218.971 217.316 217.89 217.316H164.003C162.922 217.316 161.841 217.856 161.841 219.117V248.298Z" fill="#F2F2F2"/>
<path d="M210.501 219.657H168.689V247.758H210.501V219.657Z" fill="#9999CC"/>
<path d="M178.601 221.278H170.491V224.341H178.601V221.278Z" fill="#9999CC"/>
<path d="M208.699 221.278H181.665V224.341H208.699V221.278Z" fill="#FFC211"/>
<path d="M178.421 226.322H176.078H170.491V229.384H176.078H178.421H185.45V226.322H178.421Z" fill="#FFA64D"/>
<path d="M187.612 226.322V230.105H170.491V232.086H208.699V226.322H187.612Z" fill="#A8ECFF"/>
<path d="M178.421 233.348H176.078H170.491V236.41H176.078H178.421H185.45V233.348H178.421Z" fill="#E0676F"/>
<path d="M187.612 233.348V236.95H170.491V238.932H208.699V233.348H187.612Z" fill="#A8ECFF"/>
<path d="M178.421 240.372H176.078H170.491V243.434H176.078H178.421H185.45V240.372H178.421Z" fill="#57D6A8"/>
<path d="M187.612 240.372V243.975H170.491V245.956H208.699V240.372H187.612Z" fill="#A8ECFF"/>
<path d="M214.646 231.906C215.727 231.906 216.448 232.627 216.448 233.708C216.448 234.788 215.727 235.509 214.646 235.509C213.565 235.509 212.844 234.788 212.844 233.708C212.844 232.627 213.745 231.906 214.646 231.906Z" fill="#F0EDEE"/>
<path d="M166.166 228.664C166.527 228.664 166.707 228.844 166.707 229.204V238.031C166.707 238.391 166.527 238.571 166.166 238.571C165.806 238.571 165.625 238.391 165.625 238.031V229.204C165.625 229.024 165.806 228.664 166.166 228.664Z" fill="#F0EDEE"/>
</g>
<defs>
<clipPath id="clip0">
<rect width="339" height="194" fill="white" transform="translate(0 57)"/>
</clipPath>
</defs>
</svg>
