<svg width="330" height="257" viewBox="0 0 330 257" fill="none" xmlns="http://www.w3.org/2000/svg">
<g clip-path="url(#clip0)">
<g opacity="0.5">
<path opacity="0.5" d="M151.4 219.271C141.739 219.307 132.078 219.557 122.418 220.662C118.781 221.09 115.217 222.017 111.58 222.374C104.308 223.123 97.1427 224.513 89.8347 225.155C83.9527 225.654 78.035 225.975 72.1886 226.617C66.6987 227.224 60.6028 227.081 55.1485 226.082C51.1202 225.334 47.0562 224.906 43.0636 223.693C38.6075 222.338 33.7949 221.375 29.1606 221.411C22.5656 221.447 16.1132 221.482 9.80336 223.836C7.59314 224.656 4.88383 226.047 3.1727 227.794C-0.677363 231.824 -1.21209 241.844 2.63797 246.016C9.12603 253.041 22.9577 255.787 32.0481 255.93C41.9941 256.072 51.6906 255.288 61.6722 254.86C70.9409 254.432 80.1739 253.826 89.4782 253.861C108.443 253.897 127.408 253.861 146.338 252.542C164.127 251.294 181.951 251.722 199.775 251.722C218.063 251.722 236.208 251.864 254.353 254.396C262.267 255.502 270.324 255.894 278.274 256.643C285.403 257.32 292.212 256.643 299.306 256.001C305.26 255.466 311.177 253.861 316.596 251.187C320.874 249.047 328.503 242.45 329.822 237.351C333.494 223.123 277.953 223.444 269.433 223.479C259.879 223.515 250.289 223.836 240.736 223.479C236.743 223.337 232.786 222.516 228.865 221.625C224.979 220.733 221.022 220.947 217.101 220.591C200.631 219.022 184.09 219.271 167.549 219.271C162.166 219.307 156.783 219.271 151.4 219.271Z" fill="#EED5D5"/>
</g>
<path d="M89.7278 128.268C89.6565 128.197 89.5495 128.125 89.4783 128.09C88.587 127.733 87.9097 128.054 86.9828 127.911C86.5551 127.876 86.0916 126.877 85.5212 127.555C85.3074 127.805 84.8796 128.482 84.4518 129.017C83.8101 129.801 82.5268 130.408 81.4216 130.693C79.9244 131.085 78.3202 131.442 76.823 131.62C73.6146 131.941 70.0141 131.977 66.8057 131.691C67.0552 126.378 64.0607 121.029 59.3907 118.462C58.8917 118.176 58.3926 117.962 57.8222 117.927C57.3588 117.927 56.8953 118.105 56.4675 118.319C52.0471 120.601 54.3643 124.702 56.1111 128.054C57.2162 130.158 58.4282 132.226 59.8185 134.152C61.7792 136.862 64.5955 137.397 67.8395 137.29C71.2618 137.183 74.7553 137.005 78.1063 136.185C79.7462 135.792 81.1721 135.079 82.705 134.473C84.2379 133.867 84.4161 134.58 85.8777 134.402C86.6977 134.295 87.5532 134.366 88.3375 134.081C89.7634 133.617 90.2269 132.155 90.7973 130.943C90.9398 130.622 91.0111 130.443 91.0111 130.122C90.9755 129.623 90.6547 129.231 90.3338 128.839C90.1556 128.66 89.9773 128.446 89.7278 128.268Z" fill="#E5D1BD"/>
<path d="M54.8989 130.906C55.897 132.44 56.9665 133.902 58.0359 135.293C59.6401 137.325 61.4226 139.5 63.9536 140.071C64.9161 140.285 65.95 140.249 66.9481 140.214C71.6894 139.964 76.395 139.643 81.1006 139.144C81.4571 136.683 81.4215 134.151 81.0294 131.727C80.9224 131.049 80.7442 130.3 80.2094 129.837C79.4252 129.159 78.2488 129.373 77.2506 129.658C75.6107 130.086 73.9709 130.514 72.3667 130.978C71.832 131.12 71.2616 131.263 70.7625 130.978C70.4417 130.799 70.2278 130.478 70.0496 130.193C66.449 124.452 64.5953 118.996 62.599 112.577C61.7078 109.76 60.7809 106.836 58.8202 104.625C54.578 99.918 46.7709 102.735 47.0205 109.261C47.27 116.714 50.6567 124.452 54.8989 130.906Z" fill="#D67086"/>
<path d="M199.917 198.875L200.167 213.816C200.06 217.953 200.452 222.089 200.702 226.226C200.951 230.077 200.167 234 201.985 237.566C202.555 238.671 203.768 239.456 204.694 238.172C205.407 237.174 205.087 235.462 205.265 234.321C206.584 225.655 209.044 217.24 210.256 208.539C211.539 199.446 208.01 199.66 199.917 198.875Z" fill="#EACDB0"/>
<path d="M200.773 234.999L199.811 237.495L204.516 241.631L208.865 241.81L210.256 239.528L204.445 234.464L200.773 234.999Z" fill="#292949"/>
<path d="M189.33 199.017L186.621 213.709C185.694 220.271 183.519 226.689 182.592 233.251C182.379 234.749 182.485 236.425 181.844 237.851C181.238 239.242 180.026 239.313 178.956 238.35C177.53 237.066 178.172 234.82 178.208 233.073C178.386 221.554 177.459 210.179 177.245 198.625C177.245 198.483 177.245 198.304 177.352 198.197C177.459 198.126 177.566 198.126 177.709 198.126C178.849 198.197 189.294 199.338 189.33 199.017Z" fill="#EACDB0"/>
<path d="M178.172 235.604L176.675 237.815L180.347 242.915L184.518 244.091L186.407 242.166L181.88 235.925L178.172 235.604Z" fill="#292949"/>
<path d="M215.282 208.36L213.25 187.036L212.288 173.164L208.973 161.824L191.148 159.043L169.117 162.823L168.048 167.102L172.29 206.756L193.537 208.36L193.251 183.684L196.531 198.982L196.389 208.36H215.282Z" fill="#1A3151"/>
<path d="M173.787 120.103C173.751 120.816 173.751 121.529 173.716 122.278C173.466 136.934 174.25 151.733 174.357 166.496C181.915 165.32 189.544 164.678 197.208 164.535C198.991 164.499 207.047 165.747 208.152 164.678C209.685 163.251 208.01 163.501 208.117 161.647C208.259 159.222 207.083 157.26 207.546 154.372C208.045 151.02 209.079 147.668 209.685 144.316C210.862 137.576 211.575 130.73 211.824 123.883C212.038 117.821 211.824 111.509 209.186 106.017C202.734 92.4666 181.951 92.7163 176.247 106.873C174.571 111.045 173.965 115.574 173.787 120.103Z" fill="white"/>
<path d="M197.244 101.131L191.612 111.401C191.897 121.778 192.218 132.19 192.503 142.567C192.646 147.346 192.788 152.16 192.895 156.938C192.931 158.614 192.966 160.255 193.038 161.931C193.073 162.68 192.86 163.928 193.287 164.534C194.214 165.853 197.601 165.461 199.062 165.568C201.344 165.746 203.697 165.925 205.871 166.745C207.297 167.28 208.688 168.064 210.185 168.278C210.541 168.314 210.898 168.349 211.183 168.1C211.468 167.85 211.539 167.422 211.575 167.03C212.11 159.898 212.11 152.552 212.502 145.313C212.823 139.643 213.571 133.938 213.322 128.232C213.037 122.384 212.146 116.571 211.005 110.83C210.327 107.443 209.579 103.984 207.689 101.059C205.586 97.7431 202.556 96.4236 198.884 95.7104C197.565 95.4608 192.717 93.6065 193.537 96.5663C193.893 98.0997 196.246 99.954 197.244 101.131Z" fill="#474EBB"/>
<path d="M184.945 102.094L190.578 112.364C190.471 112.364 189.865 137.575 189.829 139.287C189.651 145.777 189.473 152.232 189.295 158.722C189.259 160.505 189.473 162.644 189.116 164.392C188.617 166.852 186.015 166.389 183.805 166.567C178.956 166.995 173.859 167.815 169.01 167.601C167.62 167.53 169.438 138.289 169.438 135.543C169.438 125.736 167.406 114.825 172.397 105.945C173.859 103.342 176.39 99.2055 179.242 97.9218C181.88 96.745 185.623 96.5311 188.475 95.8535L188.617 97.7078L184.945 102.094Z" fill="#474EBB"/>
<path d="M197.209 77.168C198.1 78.737 198.528 80.52 198.599 82.303C198.635 82.7666 198.67 83.3372 199.027 83.6224C199.455 83.9077 199.062 84.5853 199.383 84.193C199.704 83.8007 200.774 82.3744 200.809 81.8751C200.916 80.6983 200.916 79.4859 200.809 78.3091C200.702 77.275 200.488 76.2052 199.811 75.4207C199.419 74.9571 198.884 74.6362 198.349 74.3152C197.601 73.8517 196.781 73.3881 195.925 73.2098C194.428 72.9245 193.466 73.4594 194.82 74.5292C195.783 75.2424 196.603 76.0982 197.209 77.168Z" fill="#292949"/>
<path d="M187.726 97.4945C187.726 98.2433 187.583 98.9922 188.225 99.5628C188.546 99.848 188.974 99.955 189.366 100.026C190.435 100.205 191.505 100.133 192.538 99.8124C192.966 99.6697 193.394 99.4914 193.679 99.2062C194.071 98.8496 194.071 98.493 194.107 98.0294C194.143 97.4945 194.25 96.9239 194.321 96.3534C194.463 95.1409 194.535 93.8928 194.57 92.6448C196.388 92.3238 198.527 91.7533 199.133 89.8276C199.312 89.2214 199.347 88.5795 199.347 87.9377C199.383 85.2988 199.383 82.66 199.419 80.0212C199.419 79.094 199.419 78.1669 199.098 77.3111C198.563 75.8134 197.173 74.9575 195.782 74.387C192.289 72.9606 188.261 73.0319 185.017 75.0288C184.161 75.5637 183.341 76.2413 182.878 77.2041C182.129 78.6661 182.2 80.4491 182.343 82.1251C182.45 83.6585 182.557 85.1919 182.664 86.7609C182.806 88.5439 183.056 90.5765 184.446 91.5036C185.195 92.0029 186.122 92.1099 186.763 92.7517C187.868 93.8572 187.334 95.5689 187.655 96.9239C187.726 97.1022 187.726 97.2805 187.726 97.4945Z" fill="#EACDB0"/>
<path d="M200.025 86.8678C199.989 86.3685 199.775 84.9421 199.062 85.8336C198.884 86.0833 198.813 86.4042 198.813 86.7251C198.813 87.0461 198.813 87.367 198.706 87.6523C198.492 88.3298 197.743 88.6508 197.066 88.6151C196.816 88.6151 196.531 88.5795 196.282 88.4368C196.068 88.2942 195.889 88.1159 195.711 87.9019C195.283 87.4027 194.856 86.9034 194.428 86.4399C193.679 85.584 192.218 85.9763 191.255 86.0833C190.114 86.2259 188.974 86.5825 188.047 87.3314C187.94 87.4027 187.869 87.474 187.762 87.581C187.548 87.7593 187.298 87.9732 187.049 88.0802C186.157 88.5081 185.088 88.0446 184.446 87.26C184.161 86.9034 183.912 86.4042 183.448 86.3685C183.092 86.3329 182.771 86.5825 182.593 86.9034C182.414 87.2244 182.379 87.6166 182.343 87.9732C182.272 89.3283 182.45 90.7547 183.02 91.9315C184.304 94.5346 186.763 94.8556 189.259 94.8199C190.257 94.7843 191.22 94.7843 192.218 94.7486C194 94.7129 195.925 94.6416 197.422 93.5718C198.741 92.6447 199.561 91.0756 199.882 89.4353C200.025 88.6151 200.06 87.7236 200.025 86.8678ZM193.43 90.5764C192.467 91.2183 191.433 91.2539 190.4 90.933C189.936 90.7904 190.15 90.0415 190.578 90.1841C191.469 90.4338 192.289 90.4338 193.073 89.8989C193.465 89.6493 193.822 90.3268 193.43 90.5764Z" fill="#292949"/>
<path d="M200.381 72.6035C200.559 71.9617 200.666 71.3198 200.773 70.6423C200.167 70.8562 199.49 70.9275 198.884 70.8206C198.884 70.4283 198.884 70.0717 198.884 69.6794C198.884 69.3585 194.606 69.1445 194.285 69.1089C191.041 68.8593 188.082 68.574 185.159 70.3213C182.664 71.819 181.06 74.0299 180.667 76.9184C180.311 79.6642 181.202 83.3015 182.806 85.5837C182.806 84.8348 182.379 83.1232 182.557 82.41C182.664 81.6968 182.913 81.0193 183.234 80.413C183.911 79.1649 184.945 78.1308 186.122 77.382C188.011 76.2052 190.221 75.5633 192.431 75.2424C194.463 74.9571 196.923 74.7075 198.919 75.2424C199.882 75.492 200.025 75.7416 200.631 74.7788C200.738 74.6005 201.557 72.6035 201.451 72.6035C201.058 72.6035 200.738 72.6035 200.381 72.6035Z" fill="#292949"/>
<path d="M213.357 110.973C212.431 110.938 211.539 110.545 210.755 110.011C207.654 107.942 206.263 104.162 204.552 100.989C203.518 99.0987 202.52 96.2816 200.952 94.8195C200.667 94.5342 197.244 92.9295 197.28 92.8226L197.458 91.8954L198.385 92.0737L198.92 91.6815L196.424 90.3977L198.064 87.6519L201.772 87.5449C202.841 89.6132 203.411 91.9667 204.98 93.7497C205.622 94.4986 206.406 95.1405 207.119 95.818C208.367 96.9948 209.4 98.3498 210.541 99.6336C211.967 101.274 214.142 102.629 214.997 104.697C215.461 105.838 216.245 108.477 215.71 109.618C215.282 110.51 214.284 110.973 213.357 110.973Z" fill="#EACDB0"/>
<path d="M216.067 106.73C216.281 106.765 216.53 106.801 216.708 106.979C216.887 107.158 216.922 107.443 216.958 107.693C217.207 110.617 216.744 113.576 216.245 116.465C215.568 120.494 214.712 124.809 211.896 127.769C210.256 129.481 207.618 130.622 205.55 129.481C203.732 128.518 203.055 126.236 202.77 124.203C201.914 118.141 202.948 111.865 205.693 106.409C205.871 106.052 206.085 105.66 206.406 105.446C207.226 104.876 209.757 105.767 210.719 105.945C212.466 106.159 214.284 106.445 216.067 106.73Z" fill="#474EBB"/>
<path d="M169.51 94.1768C170.722 93.1784 171.185 91.538 170.615 90.0403C169.616 87.3302 168.618 84.62 167.62 81.9099C167.05 80.3765 165.98 78.5935 165.98 76.9888C165.945 74.1717 166.943 70.998 167.513 68.2878C167.798 66.8971 167.905 64.9358 168.654 63.7234C168.797 63.5094 170.65 61.8334 170.615 61.7621L170.329 61.1915L169.795 61.4768L169.367 61.3342L170.686 60.0504L169.153 58.624L166.8 59.2659C166.515 60.7636 166.586 62.3683 165.945 63.7947C165.659 64.4009 165.303 64.9358 164.982 65.5064C164.412 66.4692 164.02 67.539 163.556 68.5731C163.093 69.5716 162.451 70.4631 162.023 71.4615C161.061 73.6368 160.134 75.8477 159.171 78.0586L163.556 92.3582C164.305 94.9257 167.442 95.8529 169.51 94.1768Z" fill="#EACDB0"/>
<path d="M179.919 95.5323C178.137 94.7478 176.461 93.7136 175.107 92.4299C174.465 91.8593 171.613 86.4034 172.148 86.2607C172.112 86.2607 172.077 86.2964 172.005 86.2964L171.613 86.439H171.578C170.722 86.3677 169.189 87.1879 168.333 87.4732C165.624 88.329 162.951 89.3275 160.17 89.7911C160.17 92.2159 160.633 94.6408 161.311 96.9587C161.917 99.0983 162.986 100.81 163.806 102.843C164.662 104.911 165.731 106.872 166.836 108.798C167.121 109.261 169.795 114.824 169.652 114.86C171.221 114.61 172.433 113.362 173.36 112.114C175.606 109.154 176.675 105.125 179.492 102.736C181.702 100.846 184.554 100.667 184.268 96.8874C182.843 96.6021 181.345 96.1385 179.919 95.5323Z" fill="#474EBB"/>
<path d="M133.398 85.7259C133.433 86.1539 133.184 86.6531 133.041 87.0454C132.506 88.4361 132.328 89.9695 132.542 91.4315C133.968 91.4315 135.43 91.6455 136.784 92.109C137.069 91.0392 137.39 89.9695 137.675 88.864C137.711 88.6857 137.782 88.5074 137.889 88.4004C138.032 88.2221 138.246 88.1508 138.46 88.0438C139.601 87.5803 140.706 86.9384 141.632 86.1182C141.846 85.9399 142.025 85.7616 142.132 85.512C142.239 85.298 142.239 85.0484 142.239 84.7988C142.239 82.8375 142.239 80.9119 142.239 78.9506C142.239 78.7366 142.239 78.487 142.096 78.3087C141.953 78.1304 141.739 78.0234 141.526 77.9521C141.205 77.8451 140.848 77.7025 140.527 77.5955C140.42 77.5599 140.349 77.5242 140.242 77.4886C139.565 77.2389 139.387 77.2746 138.745 77.4886C138.602 77.5242 137.176 77.8451 137.141 77.7382C137.355 79.8064 136.749 81.946 135.501 83.5864C135.43 83.6933 135.323 83.836 135.18 83.836C135.037 83.836 134.895 83.729 134.788 83.622C134.325 83.1228 133.968 82.5522 133.683 81.946C133.148 82.0887 132.613 82.2313 132.079 82.3383C131.936 83.1941 132.221 84.1569 132.827 84.7988C132.899 84.8701 132.97 84.9058 133.006 84.9771C133.219 85.2267 133.362 85.3337 133.398 85.7259Z" fill="#EACDB0"/>
<path d="M138.816 88.6855L132.078 87.5801L125.234 106.301L109.085 103.556L112.614 125.13L133.183 112.792L138.816 88.6855Z" fill="#353A85"/>
<path d="M85.6283 232.466C84.5945 232.537 83.6676 232.18 82.6694 232.073C82.7051 228.579 83.0972 225.227 83.8458 221.768C85.3787 223.479 86.6621 222.481 86.6264 225.69C86.6264 226.76 85.4144 230.896 85.6283 232.466Z" fill="#E5D1BD"/>
<path d="M82.4557 230.326C81.2793 229.898 81.0297 232.679 81.0297 233.321C81.0297 233.713 81.0654 234.106 80.9584 234.498C80.8515 234.926 80.5663 235.282 80.3168 235.603C79.7464 236.317 79.176 237.03 78.6413 237.707C78.3917 238.028 78.1422 238.349 77.9996 238.741C77.6788 239.704 78.2135 240.81 79.1047 241.273C82.2061 242.842 85.058 239.027 85.7354 236.531C85.8423 236.138 85.9136 235.746 85.9849 235.354C86.1275 234.534 86.7692 232.786 86.4483 231.966C86.0562 231.039 84.9511 231.716 84.2025 231.36C83.4895 231.075 82.9191 230.504 82.4557 230.326Z" fill="#292949"/>
<path d="M104.558 174.911C101.67 182.827 98.319 190.566 96.394 198.839C94.0412 209.073 90.2268 219.022 88.2661 229.292C87.0184 229.328 85.7351 229.292 84.4873 229.114C83.0614 228.936 80.7799 228.543 80.2452 226.974C79.9956 226.154 80.2452 224.87 80.3165 224.05C80.459 221.376 80.6373 218.701 80.8155 216.062C81.3859 208.502 81.7424 200.871 83.1327 193.454C84.5943 185.645 85.9846 177.764 87.2679 169.954C87.9453 165.925 88.7652 161.895 89.7634 157.937C90.0129 156.903 92.7222 146.383 93.2569 146.454C99.5311 147.453 105.413 149.521 110.903 152.766C111.438 153.087 111.937 153.444 112.151 154.014C112.329 154.585 112.151 155.048 112.008 155.583C110.368 160.433 108.194 164.998 106.447 169.847C105.805 171.488 105.199 173.164 104.558 174.911Z" fill="#5D66D3"/>
<path d="M105.128 231.931C106.09 232.288 107.089 232.252 108.051 232.431C109.049 229.079 109.691 225.762 109.976 222.268C108.015 223.444 107.053 222.125 106.162 225.192C105.877 226.154 105.77 230.469 105.128 231.931Z" fill="#E5D1BD"/>
<path d="M109.05 231.396C109.05 233.286 110.547 235.318 111.367 237.03C111.474 237.244 111.545 237.422 111.581 237.672C111.581 237.993 111.367 238.314 111.189 238.563C110.903 238.92 110.618 239.312 110.19 239.491C109.763 239.669 109.299 239.562 108.871 239.491C108.123 239.312 107.41 239.134 106.697 238.92C106.519 238.849 106.34 238.813 106.198 238.67C106.02 238.528 105.913 238.314 105.806 238.135C105.307 237.101 104.879 236.388 104.879 235.247C104.914 234.07 105.057 232.858 104.843 231.681C104.736 231.11 104.594 230.397 105.093 230.076C105.485 229.827 106.162 230.183 106.554 230.219C107.267 230.326 107.945 230.29 108.622 230.683C108.764 230.754 108.871 230.861 108.978 230.968C109.014 231.075 109.05 231.253 109.05 231.396Z" fill="#292949"/>
<path d="M104.13 171.309C104.558 179.725 105.449 188.105 104.807 196.556C104.023 207.005 104.7 217.667 103.524 228.044C104.7 228.472 105.948 228.793 107.196 229.007C108.622 229.256 110.903 229.577 111.866 228.222C112.365 227.545 112.472 226.19 112.686 225.405C113.363 222.802 113.969 220.199 114.575 217.596C116.286 210.214 118.211 202.833 119.067 195.308C119.994 187.392 120.992 179.511 122.097 171.63C122.667 167.565 123.095 163.5 123.309 159.399C123.38 158.329 123.915 147.489 123.38 147.382C117.071 146.454 110.868 146.704 104.665 148.166C104.059 148.309 103.453 148.523 103.132 148.986C102.775 149.45 102.811 149.985 102.811 150.52C102.918 155.655 103.667 160.647 103.881 165.782C103.952 167.672 104.059 169.455 104.13 171.309Z" fill="#5D66D3"/>
<path d="M100.601 103.806C100.494 103.842 100.387 103.878 100.28 103.913C98.6046 104.555 97.143 105.696 95.7527 106.838C93.6495 108.549 92.6156 109.298 91.7957 111.83C91.0471 114.183 90.548 116.68 90.0846 119.105C87.6961 131.585 87.2327 143.995 85.5215 156.583C85.0581 160.006 84.7016 164.036 87.2327 166.389C91.7244 162.895 97.3569 162.681 102.811 162.681C106.626 162.681 110.369 161.433 114.219 161.861C117.891 162.253 121.063 161.361 124.806 161.611C125.698 161.682 126.838 161.647 127.195 160.826C125.912 156.975 125.947 152.839 125.626 148.773C124.878 138.289 121.384 128.233 119.994 117.821C119.53 114.29 119.281 108.407 116.536 105.732C113.541 102.808 106.768 102.772 102.918 103.343C102.098 103.379 101.35 103.557 100.601 103.806Z" fill="#353A85"/>
<path d="M103.453 103.628C103.524 103.735 103.595 103.878 103.702 103.985C104.13 104.413 104.772 104.662 105.378 104.769C106.198 104.876 107.018 104.734 107.802 104.591C108.871 104.377 108.836 103.735 109.014 102.772C109.085 102.237 109.157 101.702 109.192 101.168C109.228 100.882 109.085 99.8125 109.299 99.5985C109.442 99.4559 109.941 99.4916 110.19 99.3846C110.547 99.2063 110.868 98.8497 111.082 98.4931C111.438 97.9582 111.616 97.3163 111.83 96.7101C112.151 95.6403 112.472 94.5349 112.828 93.4651C113.149 92.3596 113.506 91.2542 113.613 90.0774C113.791 88.3301 113.506 85.9052 112.187 84.6214C111.01 83.4803 109.263 83.0524 107.659 82.8385C105.556 82.5532 103.346 82.9454 101.528 84.0865C100.779 84.5501 100.102 85.1207 99.6383 85.9409C98.961 87.1889 99.0323 88.758 99.1036 90.1844C99.1749 91.5394 99.2462 92.8589 99.3175 94.2139C99.3888 95.7473 99.6027 97.5303 100.743 98.3861C101.349 98.814 102.169 98.921 102.704 99.4916C103.346 100.205 103.31 101.275 103.346 102.166C103.274 102.701 103.239 103.2 103.453 103.628Z" fill="#EACDB0"/>
<path d="M110.155 86.2611C110.226 86.4038 110.297 86.5108 110.333 86.6534C110.583 87.3666 110.404 88.1868 110.654 88.9C111.046 90.0411 112.365 90.7186 112.543 91.8954C112.721 92.8582 112.044 93.7853 112.008 94.7482C111.937 95.818 112.614 96.8164 112.508 97.8862C112.401 98.8134 111.83 100.097 111.295 100.81C111.474 100.596 113.007 100.668 113.399 100.418C114.005 100.061 114.076 99.8118 114.254 99.17C114.433 98.5281 114.29 97.9219 114.575 97.28C114.932 96.4955 115.609 95.9249 115.859 95.0691C116.179 93.928 115.573 92.7156 115.645 91.5031C115.716 89.6845 117.284 87.9728 116.714 86.2611C116.393 85.2627 115.395 84.6208 114.86 83.6936C114.433 83.0161 114.29 82.1959 114.005 81.4471C113.72 80.6982 113.221 79.9494 112.436 79.6997C112.008 79.5571 111.545 79.6284 111.117 79.5571C110.369 79.4145 109.727 78.8796 108.978 78.63C107.945 78.2734 106.055 79.3431 105.449 80.2346C104.843 81.1261 105.164 81.875 105.77 82.6595C106.768 83.9076 109.299 84.7634 110.155 86.2611Z" fill="#292949"/>
<path d="M95.9665 80.9124C95.3248 81.376 94.5405 81.697 93.9702 82.2318C92.865 83.3016 92.6512 84.9776 92.5799 86.511C92.5442 87.8661 91.9382 89.1142 92.0808 90.5406C92.1877 91.5034 92.5798 92.4662 93.3641 93.0367C94.3266 93.7499 95.8595 93.8569 96.2873 94.9624C96.7508 96.1748 95.503 97.7082 96.2517 98.778C96.6795 99.3485 97.4994 99.4555 98.1054 99.8477C98.7827 100.276 99.1392 101.06 99.5314 101.738C99.9591 102.415 100.565 103.128 101.349 103.128C101.385 101.916 101.421 100.953 100.886 99.8121C100.565 99.1702 99.6739 97.9578 100.387 97.2446C100.815 96.674 101.849 96.4601 101.884 95.7469C101.884 95.3903 101.67 95.105 101.456 94.8197C100.743 93.7143 100.636 92.2522 101.136 91.0041C101.635 89.7917 102.633 88.7932 103.845 88.2227C105.235 87.5451 105.021 87.1885 105.413 85.8691C105.77 84.621 106.483 84.3358 107.588 83.9079C108.586 83.5156 108.907 83.266 109.263 82.3388C109.549 81.6613 109.869 80.8411 109.477 80.0923C109.156 79.4861 108.622 79.0581 108.087 78.6302C106.946 77.7744 105.699 76.8829 104.273 76.9542C103.488 77.0255 102.74 77.3821 101.955 77.4178C101.421 77.4534 100.922 77.3465 100.387 77.3108C99.4957 77.2751 98.5332 77.5604 97.8202 78.0953C97.1072 78.6302 97.1072 79.2008 96.7151 79.9496C96.6081 80.3775 96.323 80.6628 95.9665 80.9124Z" fill="#292949"/>
<path d="M99.1392 75.8842C99.2818 75.0284 99.1749 73.9229 98.3906 73.6376C97.9628 73.495 97.4637 73.6376 97.0003 73.5663C96.0021 73.3524 95.6813 72.1756 95.1466 71.3197C95.0753 71.1771 94.9683 71.0701 94.8257 70.9988C94.6118 70.9275 94.398 70.9988 94.1841 70.9988C93.1859 71.1058 92.4729 70.143 91.5461 69.7864C90.4053 69.3585 88.9794 70.0717 88.6229 71.2484C88.4803 71.7477 88.5159 72.2469 88.3733 72.7461C87.8386 74.7074 84.9511 75.5633 84.8798 77.5959C84.8441 78.9866 86.1631 80.306 85.664 81.5541C85.3432 82.3743 84.2737 82.9092 84.4163 83.8007C84.4876 84.3713 85.0937 84.7279 85.664 84.7279C86.2344 84.7279 86.7335 84.4069 87.1613 84.0503C87.8386 83.4441 88.3377 82.6952 88.9794 82.089C89.621 81.4471 90.4766 80.9479 91.3678 81.0549C92.2234 81.1619 93.0077 81.8394 93.8632 81.6968C94.5405 81.5898 95.0753 80.9836 95.717 80.8053C96.3586 80.627 97.0003 80.8766 97.642 80.9479C98.2837 80.9836 99.1036 80.6626 99.1036 79.9851C99.1036 79.8425 99.0679 79.6642 99.1036 79.5215C99.2462 79.0936 99.9591 79.1293 100.102 78.7013C99.7452 78.1664 99.2818 78.3804 99.0323 77.6672C98.8897 77.0966 99.0679 76.4191 99.1392 75.8842Z" fill="#292949"/>
<path d="M229.328 114.967H95.5029V207.896H229.328V114.967Z" fill="#8CABEF"/>
<path opacity="0.2" d="M130.581 117.927H98.6401V146.312C98.6401 130.622 112.935 117.927 130.581 117.927Z" fill="#DDDAE8"/>
<g opacity="0.2">
<path opacity="0.2" d="M154.002 207.896H229.328V160.326C229.328 160.326 222.377 207.896 154.002 207.896Z" fill="#3B3387"/>
</g>
<path opacity="0.49" d="M215.604 50.2085C215.604 50.1729 215.604 50.1372 215.604 50.1016C215.639 50.1016 215.639 50.1372 215.675 50.1372C215.639 50.1729 215.604 50.2085 215.604 50.2085Z" fill="#808080"/>
<path d="M28.7686 237.743L28.5547 240.775L34.3654 244.198L37.5738 241.416L34.7932 238.171L28.9825 234.748L28.7686 237.743Z" fill="#292949"/>
<path d="M25.774 146.169L25.1323 155.298L34.5079 195.807L28.519 236.745L34.401 238.385L51.7976 189.389L52.4036 174.554L48.91 143.958L25.774 146.169Z" fill="#292949"/>
<path d="M63.5975 151.554L67.305 189.924L64.3105 240.062L58.7136 240.525L51.3344 195.131L39.8198 150.128L63.5975 151.554Z" fill="#292949"/>
<path d="M58.7139 239.848L58.9634 242.879L65.2376 245.375L67.9825 242.094L64.7385 239.349L58.7139 239.848Z" fill="#292949"/>
<path d="M20.4266 150.948C19.9988 154.442 19.6067 159.149 20.9257 159.47C21.1753 159.542 21.4248 159.435 21.6743 159.328C24.1341 158.294 25.9522 156.689 28.3763 155.69C30.9073 154.656 33.7236 154.264 36.4685 154.05C40.5681 153.729 44.739 153.693 48.8386 154.05C52.0827 154.335 55.2911 154.941 58.4638 155.548C61.1018 156.047 63.5259 157.081 66.2708 157.188C69.0871 157.295 71.9033 156.724 74.4344 155.512C74.5413 155.476 74.6126 155.405 74.6839 155.334C74.7196 155.227 74.7196 155.12 74.6839 155.013C74.2918 153.408 74.0423 151.803 73.1154 150.413C72.1172 148.844 71.4756 146.918 70.7982 145.206C69.4079 141.605 68.1602 137.825 67.3047 134.081C65.9857 128.946 64.3815 123.882 63.1338 118.711C62.2426 115.145 61.4939 111.508 60.1749 108.049C59.1411 105.339 57.1804 101.381 54.5068 99.9541C53.5799 99.4905 52.5461 99.3479 51.5123 99.2053C48.4109 98.7774 45.3094 98.3851 42.208 97.9572C41.0672 97.8145 39.8908 97.6719 38.8214 98.0285C37.2172 98.5634 36.1477 100.097 35.2208 101.523C31.0856 107.978 28.1268 115.074 26.1304 122.491C25.0966 126.378 24.0628 130.265 23.2072 134.188C22.2447 138.574 21.4248 142.96 20.8901 147.417C20.8544 147.917 20.6405 149.307 20.4266 150.948Z" fill="#D67086"/>
<path d="M45.0601 115.609C44.9888 117.392 44.561 119.103 44.1332 120.851C41.4952 131.335 38.8572 141.819 36.2549 152.303C44.5967 153.087 52.9385 153.907 61.3159 154.692C61.4229 150.662 61.5298 146.668 61.6367 142.639C61.708 140.071 61.7793 137.468 61.4942 134.901C61.0307 130.764 59.6761 126.77 58.3571 122.812C55.8617 115.502 53.4019 108.191 50.9065 100.917C50.7639 100.525 50.6213 100.132 50.3361 99.8114C49.9796 99.4548 49.4805 99.2765 49.0171 99.1696C46.6643 98.492 44.0263 97.8858 41.6022 97.9928C40.7823 100.097 42.6003 104.126 43.2064 106.266C44.0619 109.297 45.1671 112.364 45.0601 115.609Z" fill="#F7F7F7"/>
<path d="M48.1612 100.596C46.45 100.347 44.7032 100.097 42.9921 99.8474C43.0278 98.4567 43.206 97.066 43.4555 95.7109C43.4199 95.8892 40.8175 94.1419 40.6037 93.7853C39.9976 92.7511 40.0689 91.1465 39.8907 89.9697C39.5342 87.4735 39.2133 84.7277 40.7106 82.6951C42.2791 80.6268 45.2023 80.1632 47.8047 80.3415C51.0487 80.5912 54.5779 81.9106 55.9682 84.8703C57.2159 87.5448 54.9344 91.0395 54.1145 93.6426C53.7224 94.9264 53.152 96.3884 51.8686 96.8164C51.1913 97.0303 50.407 96.9233 49.801 97.2799C48.6959 97.8861 48.7672 99.4908 48.1612 100.596Z" fill="#EACDB0"/>
<path d="M61.5652 80.5911C61.9573 78.8081 62.3138 77.0608 62.7059 75.2778C62.8485 74.6359 62.9911 73.9227 62.8485 73.2808C62.599 72.1754 61.6008 71.4265 60.567 71.0343C59.5332 70.642 58.3924 70.4994 57.323 70.1428C56.1822 69.7505 55.1128 69.1443 53.9364 69.073C51.6548 68.9303 49.7298 70.856 47.4483 70.9629C44.3112 71.1412 41.6019 69.4296 39.3917 72.8529C38.9639 73.4948 38.8213 74.2436 38.4292 74.8855C37.9301 75.7413 37.1815 76.3476 36.5398 77.0964C33.7235 80.3415 33.9731 85.7261 36.6111 89.0068C37.8944 90.5758 38.3579 91.9665 40.2829 92.6084C39.5699 90.6828 41.5306 83.4795 44.0973 82.909C44.7746 82.7663 46.664 83.7648 47.377 83.9431C48.9812 84.3353 50.5141 84.7633 51.94 85.5478C54.0789 86.7246 56.4674 87.616 58.8915 88.044C59.2124 88.1153 59.5332 88.1509 59.8184 87.9726C60.0679 87.7943 60.1392 87.4734 60.2105 87.1881C60.6383 85.0129 61.1017 82.802 61.5652 80.5911Z" fill="#292949"/>
<path d="M152.006 42.2569C150.794 34.0909 156.355 26.4597 164.519 25.1403C164.483 24.8906 164.412 24.641 164.376 24.3557C162.879 14.371 169.759 5.0638 179.741 3.56609C185.159 2.74592 190.4 4.42193 194.285 7.73828C196.817 3.78005 200.987 0.891608 206.014 0.142752C214.926 -1.17666 223.268 4.7072 225.05 13.4438C225.407 13.3725 225.799 13.2655 226.191 13.2299C234.426 11.9818 242.09 17.6874 243.302 25.8891C244.301 32.5218 240.807 38.7623 235.139 41.6151C236.137 43.2554 236.85 45.1097 237.135 47.1067C238.312 55.0588 232.822 62.5117 224.872 63.6885C224.266 63.7954 223.66 63.8311 223.054 63.8311L225.371 79.2718C225.478 79.9493 224.658 80.3416 224.337 80.0206L212.502 67.7537C210.434 69.608 207.832 70.8917 204.909 71.3553C199.561 72.1398 194.499 69.9646 191.362 66.0064C189.116 67.932 186.336 69.2514 183.199 69.715C174.322 71.0344 166.016 64.9009 164.697 56.0216C164.626 55.6294 164.59 55.2371 164.554 54.8805C158.245 53.9177 153.004 48.9253 152.006 42.2569Z" fill="#5D66D3"/>
<path d="M180.668 39.6179C182.878 39.2969 183.377 42.7203 181.167 43.0412C178.957 43.3622 178.458 39.9388 180.668 39.6179Z" fill="white"/>
<path d="M196.033 37.3005C198.243 36.9796 198.742 40.4029 196.532 40.7238C194.357 41.0448 193.858 37.6214 196.033 37.3005Z" fill="white"/>
<path d="M215.283 34.4118C217.493 34.0909 217.992 37.5142 215.782 37.8352C213.607 38.1561 213.072 34.7684 215.283 34.4118Z" fill="white"/>
<path d="M218.134 133.653C216.245 135.151 214.391 136.648 212.501 138.146C213.464 139.608 214.391 141.106 215.318 142.604C215.781 143.352 214.533 143.959 214.106 143.21C213.25 141.783 212.359 140.393 211.468 139.002C209.65 140.464 207.796 141.926 205.978 143.388C205.3 143.923 204.409 142.889 205.086 142.354C206.976 140.856 208.83 139.359 210.719 137.861C209.614 136.221 208.473 134.58 207.297 132.94C206.798 132.227 207.796 131.335 208.331 132.048C209.507 133.689 210.648 135.329 211.753 137.005C213.571 135.543 215.425 134.081 217.243 132.619C217.956 132.048 218.847 133.082 218.134 133.653Z" fill="white"/>
<path d="M211.397 153.409C210.969 150.877 210.327 148.452 209.436 146.063C209.222 145.528 208.58 145.635 208.259 145.992C206.441 148.096 205.015 150.378 203.875 152.91C203.589 153.552 204.481 154.051 204.944 153.659C205.586 153.159 206.156 152.589 206.727 152.018C203.589 162.039 200.595 174.341 189.294 176.659C179.206 178.727 173.502 167.459 169.117 160.256C165.374 154.086 161.381 147.418 155.072 143.567C148.37 139.43 140.099 139.716 133.29 143.46C126.41 147.204 120.92 154.122 121.063 162.217C116.785 161.967 113.077 165.105 112.293 169.384C111.652 172.986 113.47 178.87 117.676 178.692C117.64 178.977 117.747 179.262 118.104 179.369C122.881 180.617 127.408 177.551 128.335 172.736C129.191 168.35 126.909 163.465 122.382 162.395C121.918 151.412 133.219 142.14 143.628 141.891C160.811 141.463 166.194 160.969 175.249 171.881C177.958 175.126 181.416 177.871 185.765 178.228C189.829 178.585 193.75 176.909 196.852 174.341C204.409 168.136 205.978 158.045 209.044 149.237C209.472 150.699 209.828 152.161 210.078 153.694C210.22 154.55 211.539 154.265 211.397 153.409ZM121.419 163.572C121.491 163.608 121.597 163.608 121.704 163.608C121.847 163.643 121.99 163.643 122.132 163.679C130.474 165.569 127.622 179.476 119.316 178.157C119.672 177.693 119.387 176.837 118.71 177.051C113.755 178.549 112.864 171.096 114.076 167.994C115.216 164.998 118.247 163.18 121.419 163.572Z" fill="white"/>
<path d="M114.432 173.271C114.361 172.843 114.325 172.415 114.325 171.987C114.219 167.03 116.785 163.75 121.847 164.926C124.45 165.533 125.983 168.849 125.983 171.309C125.983 172.95 125.483 174.804 124.058 175.66C121.776 177.086 116.393 177.265 114.896 174.554C114.682 174.198 114.539 173.734 114.432 173.271Z" fill="#D67086"/>
<path d="M153.162 110.292L117.464 59.6797L113.882 62.2083L149.579 112.82L153.162 110.292Z" fill="#D67086"/>
<path d="M160.334 105.238L124.636 54.626L121.053 57.1546L156.751 107.767L160.334 105.238Z" fill="#D67086"/>
<path d="M156.758 107.78L121.061 57.168L117.478 59.6966L153.176 110.309L156.758 107.78Z" fill="white"/>
<path d="M124.662 54.6276L123.983 53.666L113.235 61.2519L113.913 62.2134L124.662 54.6276Z" fill="#BABCBE"/>
<path d="M123.981 53.6666L123.303 52.7051L112.555 60.2909L113.233 61.2525L123.981 53.6666Z" fill="#F7F7F7"/>
<path d="M123.277 52.6764L122.599 51.7148L111.851 59.3007L112.529 60.2622L123.277 52.6764Z" fill="#BABCBE"/>
<path d="M106.839 52.17L111.188 58.3392L121.919 50.7436L117.57 44.5745C115.858 42.114 112.472 41.5434 110.012 43.2551L108.123 44.5745C105.699 46.3575 105.093 49.7452 106.839 52.17Z" fill="#E8E8E8"/>
<path d="M122.599 51.7154L121.921 50.7539L111.172 58.3398L111.851 59.3013L122.599 51.7154Z" fill="#F7F7F7"/>
<path d="M160.348 105.268L149.618 112.827L164.305 122.277L160.348 105.268Z" fill="#EED5D5"/>
<path d="M163.378 118.319L160.883 120.067L164.305 122.278L163.378 118.319Z" fill="#292949"/>
<path opacity="0.25" d="M49.0879 189.96C49.0879 189.96 108.835 192.492 109.584 192.028C110.332 191.565 109.905 131.585 107.552 129.303C107.587 129.267 52.7241 186.216 49.0879 189.96Z" fill="#3B455A"/>
<path d="M107.516 189.96H46.2007C47.6266 180.653 48.6248 169.706 48.5178 157.367C48.4109 147.632 48.4822 139.216 47.0563 129.874C67.483 129.874 87.0897 128.59 107.552 128.59C108.408 137.148 109.014 146.491 109.085 156.547C109.156 168.671 108.515 179.869 107.516 189.96Z" fill="#474EBB"/>
<path d="M75.0403 153.695C74.6125 149.665 73.1866 144.958 69.1583 143.14C64.5952 141.107 59.6757 143.211 55.4692 145.172C54.8988 145.458 55.3979 146.278 55.9682 146.028C56.396 145.85 56.8238 145.636 57.2516 145.458C58.1072 154.515 56.3604 163.537 57.002 172.595C56.8595 172.773 56.8951 173.058 57.0377 173.236C57.0377 173.45 57.0734 173.629 57.0734 173.843C57.1446 174.485 58.1072 174.485 58.0715 173.843C58.0359 173.629 58.0359 173.415 58.0359 173.201C66.1638 170.419 76.0741 163.216 75.0403 153.695ZM68.0888 166.247C65.1656 168.886 61.7077 170.883 58.0002 172.167C57.4298 163.109 59.1766 154.087 58.2498 145.03C61.7433 143.532 65.6647 142.391 69.1939 144.245C72.937 146.206 74.1847 151.555 74.1847 155.442C74.1134 159.864 71.1902 163.43 68.0888 166.247Z" fill="white"/>
<path d="M82.5977 159.543C81.1361 158.973 79.1398 159.686 77.9277 160.47C76.1096 161.647 74.9332 163.608 74.4698 165.712C73.6142 169.67 74.6837 174.699 79.4606 175.091C84.0237 175.447 87.4816 171.311 87.9807 167.067C88.3728 163.501 86.2339 159.65 82.5977 159.543ZM86.8399 167.816C86.1269 171.061 83.5246 174.092 79.9597 174.092C75.5749 174.092 74.6481 169.457 75.3967 165.962C75.7175 164.393 76.4661 162.895 77.7138 161.825C78.4625 161.183 79.7102 160.47 80.8866 160.328C80.9935 160.542 81.1718 160.684 81.4569 160.613C81.7421 160.542 82.0273 160.506 82.3125 160.506C82.4195 160.542 82.5264 160.613 82.6334 160.684C82.8829 160.863 83.1324 160.756 83.2394 160.577C86.1982 161.148 87.4816 164.928 86.8399 167.816Z" fill="white"/>
<path d="M96.0018 170.847C95.9662 170.812 95.9662 170.776 95.9305 170.776C95.3601 170.17 94.5759 170.562 94.2907 171.168C94.0055 171.56 93.756 171.988 93.8272 172.488C93.8985 173.022 94.3263 173.486 94.8967 173.486C95.5027 173.486 95.9662 172.987 96.1088 172.452C96.3226 172.238 96.4652 171.881 96.3939 171.489C96.3226 171.204 96.18 170.99 96.0018 170.847Z" fill="white"/>
<path d="M98.2833 148.489C97.8199 147.668 96.5365 147.668 95.7166 147.633C95.4314 147.633 95.2175 147.882 95.2175 148.132C95.0393 153.945 95.0037 159.793 95.075 165.605C95.075 165.962 95.3958 166.105 95.681 166.069C95.7523 166.675 96.6435 166.675 96.6791 166.033C96.7861 161.718 97.1426 157.404 97.8199 153.124C97.9625 152.162 98.1407 151.234 98.2833 150.272C98.3546 149.737 98.5685 149.024 98.2833 148.489ZM96.1801 148.631C96.2157 148.631 96.2514 148.631 96.3227 148.631C96.287 148.703 96.2514 148.774 96.2514 148.845C96.2514 149.024 96.2157 149.202 96.1801 149.38C96.1801 149.131 96.1801 148.881 96.1801 148.631ZM96.1088 151.948C96.1801 151.983 96.2514 152.019 96.3583 152.019C96.2514 152.554 96.1444 153.053 96.0731 153.445C96.1088 152.946 96.1088 152.447 96.1088 151.948Z" fill="white"/>
<path d="M60.8526 147.525C60.8169 147.418 60.7813 147.311 60.71 147.204C60.1039 146.383 59.284 146.312 58.4641 145.67C58.1076 145.385 58.2146 144.208 57.2877 144.529C56.9668 144.636 56.1826 145.028 55.4696 145.314C54.4358 145.67 52.9029 145.528 51.6908 145.171C50.0866 144.707 48.3755 144.173 46.8783 143.459C43.7055 141.997 40.3545 140 37.5027 137.932C40.6754 133.082 40.8536 126.45 37.9304 121.457C37.6096 120.922 37.2888 120.423 36.754 120.102C36.3262 119.853 35.7915 119.746 35.2924 119.71C29.9095 119.353 29.8025 124.488 29.553 128.625C29.4104 131.192 29.4104 133.831 29.6243 136.399C29.9451 140 32.2623 142.069 35.3281 143.78C38.6078 145.599 41.9231 147.382 45.5236 148.487C47.2704 149.022 48.9815 149.165 50.764 149.486C52.5108 149.771 52.2969 150.556 53.7585 151.198C54.5784 151.554 55.3627 152.089 56.2182 152.303C57.7868 152.66 59.0701 151.59 60.2822 150.734C60.5674 150.52 60.7813 150.377 60.9239 150.092C61.1734 149.593 61.0665 149.058 60.9952 148.523C61.0308 148.131 60.9595 147.81 60.8526 147.525Z" fill="#E5D1BD"/>
<path d="M26.8437 130.586C26.915 132.583 27.0933 134.544 27.3071 136.398C27.6636 139.18 28.1271 142.211 30.159 144.172C30.9433 144.921 31.9058 145.456 32.8683 145.955C37.4314 148.345 42.0657 150.662 46.7 152.838C48.4112 150.734 49.7658 148.38 50.764 145.848C51.0492 145.135 51.2987 144.351 51.0492 143.637C50.6927 142.568 49.445 142.104 48.3755 141.819C46.6287 141.32 44.8463 140.82 43.0995 140.321C42.5291 140.143 41.8875 139.964 41.6023 139.43C41.3884 139.109 41.3884 138.681 41.3884 138.288C41.2101 130.943 42.5291 124.809 44.2403 117.713C44.9889 114.575 45.7375 111.33 45.1315 108.192C43.8125 101.452 34.936 99.7046 31.5493 105.945C27.6636 113.077 26.5229 122.206 26.8437 130.586Z" fill="#D67086"/>
<path d="M219.026 134.581C219.347 134.224 219.418 134.082 219.953 133.868C220.452 133.654 221.058 133.547 221.664 133.155C222.092 132.869 221.985 131.835 222.983 132.227C223.339 132.37 224.017 132.834 224.73 133.119C225.763 133.511 227.261 133.475 228.508 133.19C233.428 132.12 238.347 131.122 243.409 130.623C243.695 130.587 243.98 130.587 244.229 130.409C244.657 130.088 244.728 129.624 244.835 129.125C245.334 126.878 245.941 124.667 246.867 122.528C247.687 120.638 248.685 118.819 250.29 117.464C251.894 116.109 253.997 115.432 255.993 116.073C257.455 116.537 258.703 117.571 258.988 119.105C259.737 122.92 256.243 125.773 254.14 128.447C252.143 130.979 250.468 133.119 248.365 135.437C248.115 135.722 247.866 136.007 247.509 136.15C247.153 136.328 246.725 136.328 246.333 136.328C241.306 136.257 236.387 136.079 231.431 137.077C230.077 137.362 228.829 137.077 227.546 137.505C226.726 137.79 226.298 138.575 225.549 138.967C224.801 139.359 223.91 139.752 223.09 139.787C221.45 139.894 220.416 138.682 219.275 137.683C218.384 136.899 217.707 136.649 216.53 136.97C216.388 137.006 216.245 137.113 216.103 137.077C215.639 136.97 215.461 136.435 215.675 136.043C215.924 135.651 216.316 135.508 216.744 135.365C217.172 135.223 217.671 135.08 218.135 135.08C218.348 135.08 218.562 135.08 218.705 134.938C218.847 134.831 218.883 134.724 219.026 134.581Z" fill="#E5D1BD"/>
<path d="M254.033 127.092C251.181 126.022 248.222 125.344 245.441 124.06C246.44 121.636 249.363 111.829 249.862 110.652C251.787 106.159 252.143 104.234 254.781 101.88C260.378 96.8165 267.045 100.168 266.795 107.336C266.51 115.11 262.339 121.814 257.812 127.84C257.705 127.983 257.562 128.09 257.419 128.126C257.241 128.197 256.992 128.126 256.778 128.054C255.851 127.698 254.924 127.413 254.033 127.092Z" fill="#AAB4B5"/>
<path d="M255.815 234.214C254.817 234.25 253.855 234.036 252.892 233.929C252.393 224.265 253.32 214.102 253.712 204.402C256.207 204.545 258.667 204.652 261.163 204.795C259.416 210.001 258.204 215.35 257.491 220.77C257.348 221.626 255.958 234.178 255.815 234.214Z" fill="#E5D1BD"/>
<path d="M252.571 232.038C251.965 231.931 251.609 232.217 251.181 232.573C250.931 232.787 250.789 233.108 250.504 233.251C250.218 233.393 249.933 233.429 249.612 233.465C247.83 233.643 243.695 233.572 245.905 236.567C247.901 239.277 253.213 238.208 256.279 237.459C256.493 237.423 256.706 237.387 256.849 237.209C256.992 237.066 257.099 236.817 257.17 236.603C257.526 235.319 257.99 233.714 256.421 233.18C255.744 232.966 255.138 233.393 254.425 233.144C253.783 233.001 253.177 232.145 252.571 232.038Z" fill="#292949"/>
<path d="M248.115 210.214C253.177 210.107 258.239 210.001 263.301 209.929C267.401 190.423 271.001 170.775 274.138 151.091C274.388 149.557 274.602 147.988 274.174 146.49C273.354 143.673 270.324 142.069 267.472 141.534C263.016 140.714 254.781 141.855 252.5 146.49C250.076 151.412 250.468 160.184 249.897 165.604C248.293 180.403 247.687 195.344 248.115 210.214Z" fill="#292949"/>
<path d="M284.798 234.214C285.796 234.25 286.758 234.036 287.721 233.929C288.22 224.265 287.293 214.102 286.901 204.402C284.405 204.545 281.946 204.652 279.45 204.795C281.197 210.001 282.409 215.35 283.122 220.77C283.265 221.626 284.655 234.178 284.798 234.214Z" fill="#E5D1BD"/>
<path d="M288.006 232.038C288.612 231.931 288.969 232.217 289.396 232.573C289.646 232.787 289.788 233.108 290.074 233.251C290.359 233.393 290.644 233.429 290.965 233.465C292.747 233.643 296.883 233.572 294.672 236.567C292.676 239.277 287.364 238.208 284.299 237.459C284.085 237.423 283.871 237.387 283.728 237.209C283.586 237.066 283.479 236.817 283.407 236.603C283.051 235.319 282.587 233.714 284.156 233.18C284.833 232.966 285.439 233.393 286.152 233.144C286.794 233.001 287.4 232.145 288.006 232.038Z" fill="#292949"/>
<path d="M292.462 210.214C287.4 210.107 282.338 210.001 277.276 209.929C273.176 190.423 269.576 170.775 266.439 151.091C266.189 149.557 265.975 147.988 266.403 146.49C267.223 143.673 270.253 142.069 273.105 141.534C277.561 140.714 285.796 141.855 288.077 146.49C290.502 151.412 290.109 160.184 290.68 165.604C292.284 180.403 292.89 195.344 292.462 210.214Z" fill="#292949"/>
<path d="M279.486 103.163C283.549 107.015 286.58 112.007 288.433 117.142C291.677 126.271 291.749 135.97 291.784 145.527C291.784 148.701 291.82 151.875 291.82 155.048C291.82 158.186 291.57 158.828 288.148 158.436C281.874 157.687 275.315 156.368 269.646 153.586C266.937 152.267 264.406 150.591 261.554 149.521C257.419 147.988 253.177 148.701 249.077 147.702C250.86 142.318 252.107 137.753 253.034 132.226C253.961 126.521 254.817 120.316 256.207 114.682C257.027 111.294 258.56 108.156 260.128 105.053C261.162 102.985 262.303 100.846 264.085 99.3122C269.397 94.8191 275.422 99.3122 279.486 103.163Z" fill="#474EBB"/>
<path d="M264.835 89.7905C265.619 91.4665 266.867 92.8572 267.865 94.3906C268.863 95.8883 269.219 97.2434 269.469 98.9551C269.647 100.203 270.111 101.166 271.608 101.38C274.46 101.772 273.64 99.4543 274.281 97.7426C275.03 95.7813 276.599 94.248 277.704 92.5006C280.876 87.4726 279.985 77.5235 273.39 75.384C266.154 73.1017 262.482 84.6912 264.835 89.7905Z" fill="#E5D1BD"/>
<path d="M276.313 84.9411C277.133 84.9768 278.025 85.0481 278.631 85.583C279.237 86.1179 279.165 87.3303 278.381 87.4729C277.668 87.5799 276.706 86.8311 276.278 87.4016C276.028 87.7226 276.242 88.1861 276.456 88.5784C277.205 90.0404 277.454 91.7165 277.098 93.2498C277.383 93.5351 277.846 93.2498 278.132 92.9646C279.451 91.5382 280.449 89.8621 281.126 88.0435C281.376 88.4714 281.768 88.8637 282.231 89.1133C281.946 88.4358 282.124 87.6869 282.302 87.0094C282.908 84.4775 283.336 81.4821 281.554 79.4138C280.591 78.3084 279.165 77.6665 277.704 77.3812C276.242 77.096 274.781 77.1673 273.319 77.2386C272.677 77.2743 271.929 77.4169 271.786 77.9874C273.176 78.5223 274.567 79.6278 275.28 80.9115C275.422 81.2681 276.242 84.9411 276.313 84.9411Z" fill="#292949"/>
<path d="M273.426 78.808C273.462 78.8437 273.533 78.8793 273.569 78.915C274.175 79.3786 274.781 79.9848 275.529 80.1631C276.634 80.484 277.775 79.9491 278.845 80.3057C280.057 80.7336 280.841 82.16 281.697 83.0159C283.122 84.4066 284.905 85.4407 286.794 86.0113C287.757 86.2966 288.791 86.4749 289.789 86.5462C290.252 86.5818 290.858 86.6532 291.322 86.5462C291.928 86.3679 291.892 86.1183 291.25 85.9043C289.218 85.2624 288.612 82.4453 288.755 80.5553C288.862 79.0576 289.397 77.5243 288.826 76.1692C288.398 75.1351 287.472 74.5645 286.58 73.994C285.582 73.3164 284.513 73.4947 283.408 73.1738C282.231 72.8528 281.269 71.9257 280.092 71.6761C278.845 71.4265 277.561 71.997 276.314 72.2466C275.28 72.4606 274.175 72.4249 273.141 72.211C272.214 71.997 271.323 71.6404 270.36 71.6404C268.97 71.6404 267.651 72.5319 266.867 73.673C265.726 75.2777 264.977 78.0235 265.369 80.1631C265.298 79.8422 266.403 78.6297 266.653 78.3801C267.116 77.8452 267.722 77.346 268.435 77.239C270.111 77.025 272.071 77.8452 273.426 78.808Z" fill="#292949"/>
<path d="M239.417 176.872L239.025 181.08C238.918 182.435 239.773 183.647 241.021 183.754L250.896 184.646C252.108 184.753 253.213 183.754 253.32 182.364L253.712 178.156L239.417 176.872Z" fill="#B1B1B2"/>
<path d="M275.743 123.062C277.098 108.227 267.437 95.2116 254.211 93.9991C240.95 92.7867 229.115 103.841 227.796 118.676C227.332 123.953 228.223 128.981 230.184 133.368C235.71 146.49 236.316 157.117 236.316 157.117L248.401 158.222L260.486 159.328C260.486 159.328 262.981 148.987 270.788 137.076C273.426 133.154 275.244 128.339 275.743 123.062Z" fill="#D67086"/>
<path d="M235.995 157.117L234.355 175.018C234.284 175.767 234.747 176.409 235.424 176.48L257.74 178.513C258.382 178.584 258.988 178.014 259.059 177.265L260.699 159.364L235.995 157.117Z" fill="#DDDDDD"/>
<path opacity="0.2" d="M275.743 117.998C268.435 130.8 254.746 150.306 236.245 157.081C236.245 157.117 236.245 157.152 236.245 157.152L248.33 158.258L260.414 159.363C260.414 159.363 262.91 149.022 270.717 137.112C273.426 133.189 275.244 128.375 275.708 123.097C275.886 121.35 275.886 119.674 275.743 117.998Z" fill="#3B3387"/>
<path opacity="0.5" d="M231.467 121.279C232.644 108.335 242.982 98.671 254.532 99.7408C261.305 100.347 266.974 104.484 270.289 110.403C267.33 103.057 260.949 97.7082 253.213 96.995C241.663 95.9252 231.325 105.589 230.148 118.533C229.649 123.918 230.826 129.017 233.179 133.225C231.753 129.624 231.075 125.523 231.467 121.279Z" fill="white"/>
<path d="M243.695 157.83L243.909 123.169L247.616 127.305L251.716 121.35L254.746 127.769L259.06 124.524L252.999 158.686L254.247 158.793L260.842 121.528L255.209 125.736L251.93 118.818L247.509 125.201L242.697 119.817L242.447 157.723L243.695 157.83Z" fill="#F6F7F7"/>
<path d="M242.447 154.264L242.412 157.723L243.659 157.83L243.695 153.551C243.303 153.8 242.875 154.014 242.447 154.264Z" fill="#EDECED"/>
<path d="M255.494 144.6L252.999 158.65L254.247 158.757L257.027 143.103C256.528 143.637 255.994 144.137 255.494 144.6Z" fill="#EDECED"/>
<path d="M235.592 161.582L235.292 164.885L260.001 167.134L260.302 163.831L235.592 161.582Z" fill="#C4C4C4"/>
<path d="M234.945 168.646L234.645 171.949L259.354 174.198L259.655 170.895L234.945 168.646Z" fill="#C4C4C4"/>
<path d="M248.472 169.884L259.63 170.882L259.986 167.138L253.106 166.496C251.537 167.78 250.005 168.921 248.472 169.884Z" fill="#C2C2C4"/>
<path d="M260.272 163.821L260.664 159.364L260.272 159.328C259.702 160.148 258.347 161.646 256.422 163.465L260.272 163.821Z" fill="#C2C2C4"/>
<path d="M235.424 176.516L257.741 178.549C258.382 178.62 258.988 178.05 259.06 177.301L259.345 174.198L243.232 172.736C239.809 174.27 236.743 175.019 234.391 175.375C234.462 175.981 234.89 176.445 235.424 176.516Z" fill="#C2C2C4"/>
<path d="M253.106 166.496L259.987 167.138L260.272 163.821L256.457 163.465C255.352 164.57 254.212 165.569 253.106 166.496Z" fill="#B1B1B2"/>
<path d="M243.231 172.737L259.345 174.199L259.63 170.882L248.472 169.884C246.654 171.025 244.907 171.988 243.231 172.737Z" fill="#B1B1B2"/>
<path d="M253.534 180.724C250.468 183.469 245.05 183.897 243.267 183.969L250.932 184.682C252.144 184.789 253.249 183.79 253.356 182.4L253.534 180.724Z" fill="#9E9E9E"/>
<path d="M259.416 142.354C259.451 142.247 259.487 142.176 259.558 142.069C260.093 141.356 260.806 141.285 261.519 140.75C261.84 140.5 261.733 139.466 262.517 139.751C262.802 139.858 263.48 140.215 264.086 140.429C264.977 140.75 266.331 140.607 267.365 140.322C268.756 139.93 270.253 139.466 271.536 138.86C272.926 138.218 274.245 137.505 275.564 136.756C276.67 136.114 278.381 135.401 279.201 134.438C280.591 132.798 278.987 128.839 278.808 126.807C278.63 124.703 278.808 118.427 281.66 118.248C286.33 117.963 286.437 122.421 286.616 125.987C286.758 128.233 286.722 130.515 286.544 132.726C286.259 135.864 284.227 137.647 281.553 139.145C278.702 140.714 275.814 142.247 272.677 143.175C271.144 143.638 269.682 143.781 268.114 144.03C266.581 144.28 266.795 144.958 265.511 145.492C264.799 145.813 264.121 146.241 263.373 146.42C262.018 146.741 260.913 145.778 259.879 145.029C259.629 144.851 259.451 144.708 259.309 144.458C259.095 144.03 259.166 143.567 259.237 143.103C259.273 142.889 259.344 142.64 259.416 142.354Z" fill="#E5D1BD"/>
<path d="M286.544 127.234C283.906 127.734 281.233 128.268 278.595 128.768C278.773 128.732 275.529 116.893 275.351 116.18C274.709 113.47 274.067 110.653 274.602 107.907C275.778 102.059 278.595 100.632 282.16 106.766C285.511 112.578 290.751 119.496 289.717 126.093C289.682 126.236 289.681 126.379 289.575 126.486C289.468 126.628 289.254 126.699 289.04 126.735C288.22 126.913 287.4 127.056 286.544 127.234Z" fill="#474EBB"/>
</g>
<defs>
<clipPath id="clip0">
<rect width="330" height="257" fill="white"/>
</clipPath>
</defs>
</svg>
