<svg width="352" height="229" viewBox="0 0 352 229" fill="none" xmlns="http://www.w3.org/2000/svg">
<path d="M176 229C273.202 229 352 203.889 352 172.912C352 141.935 273.202 116.823 176 116.823C78.7979 116.823 0 141.935 0 172.912C0 203.889 78.7979 229 176 229Z" fill="#FFE1E5"/>
<path d="M78.3271 102.952V17.5066C78.3271 7.81064 86.1464 0 95.853 0H263.36C271.516 0 278.189 6.59865 278.189 14.8133V102.952C278.189 112.648 270.37 120.459 260.663 120.459H95.853C86.2138 120.459 78.3271 112.648 78.3271 102.952Z" fill="#76A9B7"/>
<path d="M262.484 115.746H94.0333C87.8992 115.746 82.9785 110.764 82.9785 104.704V15.8239C82.9785 9.69657 87.9666 4.78125 94.0333 4.78125H262.416C268.55 4.78125 273.471 9.7639 273.471 15.8239V104.636C273.538 110.764 268.618 115.746 262.484 115.746Z" fill="#E4F3F7"/>
<path d="M220.287 141.669H136.23C135.354 141.669 134.612 140.929 134.612 140.053C134.612 139.178 135.354 138.438 136.23 138.438H220.287C221.163 138.438 221.905 139.178 221.905 140.053C221.905 140.996 221.163 141.669 220.287 141.669Z" fill="#76A9B7"/>
<path d="M220.758 138.437H135.758L143.038 120.459H213.478L220.758 138.437Z" fill="#527480"/>
<path d="M265.18 25.5195H91.4043V108.676H265.18V25.5195Z" fill="#B4DFD5"/>
<path d="M265.18 13.2646H91.4043V25.5866H265.18V13.2646Z" fill="#E6E6CE"/>
<path d="M96.9989 21.8159C98.3019 21.8159 99.3581 20.7607 99.3581 19.4592C99.3581 18.1577 98.3019 17.1025 96.9989 17.1025C95.6959 17.1025 94.6396 18.1577 94.6396 19.4592C94.6396 20.7607 95.6959 21.8159 96.9989 21.8159Z" fill="#EC7772"/>
<path d="M108.121 19.4592C108.121 18.1125 107.042 17.1025 105.762 17.1025C104.413 17.1025 103.402 18.1799 103.402 19.4592C103.402 20.7385 104.481 21.8159 105.762 21.8159C107.11 21.8159 108.121 20.7385 108.121 19.4592Z" fill="#FDD17A"/>
<path d="M114.592 21.8159C115.895 21.8159 116.951 20.7607 116.951 19.4592C116.951 18.1577 115.895 17.1025 114.592 17.1025C113.289 17.1025 112.233 18.1577 112.233 19.4592C112.233 20.7607 113.289 21.8159 114.592 21.8159Z" fill="#61BDA6"/>
<path d="M149.271 64.7012C150.329 65.0935 151.149 65.665 151.73 66.4155C152.31 67.166 152.6 68.0701 152.6 69.1277C152.6 70.697 151.952 71.9166 150.654 72.7866C149.356 73.6395 147.477 74.0659 145.018 74.0659H134.926V56.1553H144.506C146.897 56.1553 148.698 56.5817 149.911 57.4346C151.14 58.2875 151.755 59.4218 151.755 60.8376C151.755 61.6735 151.542 62.424 151.115 63.0892C150.705 63.7545 150.09 64.2918 149.271 64.7012ZM140.869 60.3771V63.0381H143.686C145.001 63.0381 145.659 62.5946 145.659 61.7076C145.659 60.8206 145.001 60.3771 143.686 60.3771H140.869ZM144.506 69.8441C145.838 69.8441 146.504 69.375 146.504 68.4368C146.504 67.4987 145.838 67.0296 144.506 67.0296H140.869V69.8441H144.506Z" fill="white"/>
<path d="M162.422 69.5627H160.783V74.0659H154.738V56.1553H163.37C165.026 56.1553 166.469 56.4282 167.699 56.974C168.928 57.5199 169.876 58.3045 170.542 59.328C171.208 60.3515 171.541 61.5455 171.541 62.9101C171.541 64.1895 171.251 65.3067 170.67 66.262C170.089 67.2172 169.253 67.9763 168.16 68.5392L171.925 74.0659H165.47L162.422 69.5627ZM165.445 62.9101C165.445 62.2449 165.24 61.7332 164.83 61.3749C164.42 60.9997 163.805 60.812 162.986 60.812H160.783V65.0082H162.986C163.805 65.0082 164.42 64.8291 164.83 64.4709C165.24 64.0956 165.445 63.5754 165.445 62.9101Z" fill="white"/>
<path d="M186.042 70.9443H179.228L178.024 74.0659H171.877L179.715 56.1553H185.658L193.496 74.0659H187.246L186.042 70.9443ZM184.377 66.5946L182.635 62.0914L180.893 66.5946H184.377Z" fill="white"/>
<path d="M212.135 56.1553V74.0659H207.165L200.352 65.9294V74.0659H194.46V56.1553H199.43L206.243 64.2918V56.1553H212.135Z" fill="white"/>
<path d="M215.047 56.1553H223.884C225.882 56.1553 227.641 56.522 229.161 57.2555C230.698 57.9719 231.885 59.0039 232.721 60.3515C233.575 61.699 234.002 63.2854 234.002 65.1106C234.002 66.9358 233.575 68.5221 232.721 69.8697C231.885 71.2173 230.698 72.2578 229.161 72.9913C227.641 73.7077 225.882 74.0659 223.884 74.0659H215.047V56.1553ZM223.628 69.358C224.926 69.358 225.959 68.9912 226.728 68.2577C227.513 67.5072 227.906 66.4581 227.906 65.1106C227.906 63.763 227.513 62.7225 226.728 61.989C225.959 61.2385 224.926 60.8632 223.628 60.8632H221.092V69.358H223.628Z" fill="white"/>
<path d="M120.052 34.8115H99.4932V95.344H120.052V34.8115Z" fill="#61BDA6"/>
<path d="M108.93 36.7637H101.178V44.507H108.93V36.7637Z" fill="#B4DFD5"/>
<path d="M118.3 36.7637H110.548V44.507H118.3V36.7637Z" fill="#B4DFD5"/>
<path d="M108.93 46.7295H101.178V54.4728H108.93V46.7295Z" fill="#B4DFD5"/>
<path d="M118.3 46.7295H110.548V54.4728H118.3V46.7295Z" fill="#B4DFD5"/>
<path d="M108.93 56.6943H101.178V64.4376H108.93V56.6943Z" fill="#B4DFD5"/>
<path d="M118.3 56.6943H110.548V64.4376H118.3V56.6943Z" fill="#B4DFD5"/>
<path d="M108.93 66.6602H101.178V74.4035H108.93V66.6602Z" fill="#B4DFD5"/>
<path d="M118.3 66.6602H110.548V74.4035H118.3V66.6602Z" fill="#B4DFD5"/>
<path d="M108.93 76.625H101.178V84.3683H108.93V76.625Z" fill="#B4DFD5"/>
<path d="M118.3 76.625H110.548V84.3683H118.3V76.625Z" fill="#B4DFD5"/>
<path d="M243.205 85.1768V86.1868H242.194" stroke="#1C1C38" stroke-linecap="round" stroke-linejoin="round"/>
<path d="M239.498 86.1865H128.951" stroke="#1C1C38" stroke-linecap="round" stroke-linejoin="round" stroke-dasharray="2.96 2.96"/>
<path d="M127.602 86.1868H126.591V85.1768" stroke="#1C1C38" stroke-linecap="round" stroke-linejoin="round"/>
<path d="M126.591 82.6178V47.7393" stroke="#1C1C38" stroke-linecap="round" stroke-linejoin="round" stroke-dasharray="2.87 2.87"/>
<path d="M126.591 46.4602V45.4502H127.602" stroke="#1C1C38" stroke-linecap="round" stroke-linejoin="round"/>
<path d="M130.231 45.4502H240.847" stroke="#1C1C38" stroke-linecap="round" stroke-linejoin="round" stroke-dasharray="2.96 2.96"/>
<path d="M242.194 45.4502H243.205V46.4602" stroke="#1C1C38" stroke-linecap="round" stroke-linejoin="round"/>
<path d="M243.206 49.0859V83.8972" stroke="#1C1C38" stroke-linecap="round" stroke-linejoin="round" stroke-dasharray="2.87 2.87"/>
<path d="M129.759 42.2852H123.355V48.6818H129.759V42.2852Z" fill="#1C1C38"/>
<path d="M246.373 42.2852H239.97V48.6818H246.373V42.2852Z" fill="#1C1C38"/>
<path d="M129.759 83.0215H123.355V89.4181H129.759V83.0215Z" fill="#1C1C38"/>
<path d="M246.373 83.0215H239.97V89.4181H246.373V83.0215Z" fill="#1C1C38"/>
<path d="M243.205 34.8115H127.265V37.6395H243.205V34.8115Z" fill="#61BDA6"/>
<path d="M243.205 93.9297H127.265V96.7577H243.205V93.9297Z" fill="#61BDA6"/>
<path d="M104.212 76.9618C105.83 77.5678 107.515 77.9718 109.133 78.3084C112.099 78.9818 114.997 79.6551 117.963 80.3284C118.772 80.5304 119.581 80.6651 120.322 80.4631C121.468 80.1937 122.681 79.6551 123.625 78.9818C124.636 78.1738 125.041 74.3358 125.715 73.1911C126.119 72.5178 126.996 72.2484 126.928 72.6524C126.793 73.2584 127.198 79.1837 127.063 79.7224C126.726 81.0017 125.715 82.0117 124.501 82.5504C123.356 83.0891 122.075 83.2911 120.794 83.4257C117.289 83.7624 113.716 83.8297 110.211 83.6277C107.043 83.4257 103.807 83.5604 100.707 82.8197C97.6734 82.1464 94.8423 81.5404 92.0786 80.1264C91.0001 79.5877 89.989 78.2411 89.1801 77.2984C86.8883 74.7398 89.989 70.0938 93.2246 70.7671C95.0446 71.1038 96.8645 72.9218 98.3475 73.8644C100.302 75.0091 102.19 76.1538 104.212 76.9618Z" fill="#E27E5A"/>
<path d="M79.8776 190.957C79.8776 191.765 79.2035 192.505 78.462 192.775C77.7205 193.111 76.8443 193.111 76.0354 193.111C69.7665 193.179 63.4302 193.246 57.1614 193.313C55.0043 193.313 52.8473 193.381 50.8251 192.64C50.6229 191.697 50.6903 190.755 50.9599 189.812C51.3644 188.196 52.1732 186.58 52.4429 184.897C52.7799 183.011 52.4429 181.126 52.5777 179.241C52.5777 179.106 52.5777 178.904 52.7125 178.769C52.7799 178.702 52.9147 178.702 53.0495 178.702C55.0043 178.635 56.9591 178.567 58.9814 178.5C59.588 178.5 63.2954 178.5 63.4302 178.971C63.9695 180.789 65.3176 182.271 66.7332 183.483C68.2161 184.695 69.7665 185.705 71.1821 186.984C71.7887 187.523 72.328 188.196 73.1369 188.533C74.3502 189.071 75.7657 188.735 77.0465 188.802C77.9228 188.802 78.9339 189.206 79.4731 189.812C79.7428 190.149 79.8776 190.485 79.8776 190.957Z" fill="#CE422C"/>
<path d="M79.8776 190.957C79.8776 191.765 79.2035 192.505 78.462 192.775C77.7205 193.111 76.8443 193.111 76.0354 193.111C69.7665 193.179 63.4302 193.246 57.1614 193.313C55.0043 193.313 52.8473 193.381 50.8251 192.64C50.6229 191.697 50.6903 190.755 50.9599 189.812C51.1621 189.745 51.3644 189.677 51.634 189.61C53.5888 189.475 56.0154 190.216 57.9703 190.351C60.0599 190.553 62.2169 190.755 64.3739 190.755C69.4295 191.024 74.6872 191.293 79.4731 189.745C79.7428 190.149 79.8776 190.485 79.8776 190.957Z" fill="#7F1D13"/>
<path d="M66.3963 138.167C67.7444 139.918 69.16 142.073 68.5533 144.16C68.2837 145.103 67.6096 145.843 67.003 146.651C60.3297 154.933 57.903 165.841 55.6786 176.211C55.6112 176.682 55.4763 177.221 55.8134 177.557C56.0156 177.827 56.3526 177.894 56.6897 177.961C58.5771 178.433 60.4645 178.904 62.4193 179.375C62.7563 179.443 63.0933 179.577 63.4978 179.443C64.5089 179.241 64.7111 177.894 64.9133 176.884C65.183 175.403 65.857 174.056 66.4637 172.777C69.0252 167.457 71.5866 162.205 74.1481 156.886C75.9007 153.317 77.6533 149.681 80.6192 146.988C81.2933 146.315 82.1022 145.709 82.4392 144.833C82.8436 143.891 82.6414 142.813 82.3718 141.803C81.3607 137.494 79.7429 133.387 78.1251 129.28C74.6874 120.459 71.1822 111.571 67.7444 102.75C67.4748 102.077 67.2052 101.404 66.5985 100.932C65.4526 100.057 63.8348 100.596 62.5541 101.269C58.24 103.491 54.4652 106.656 51.4993 110.494C50.0164 112.379 48.9379 114.534 50.4882 116.621C52.106 118.776 53.8586 120.93 55.4089 123.152C59.0489 128.27 62.6889 133.252 66.3963 138.167Z" fill="#3B6472"/>
<path d="M26.4922 171.767C26.8293 172.912 26.4922 174.056 26.3574 175.268C25.953 177.827 26.2226 180.453 26.5596 183.012C26.6944 184.426 26.8967 185.907 27.4359 187.254C27.8404 188.196 28.447 189.139 28.7841 190.082C28.9863 190.62 29.1211 191.159 29.1211 191.765C29.1211 192.236 29.0537 192.707 28.7841 193.111C28.2448 194.121 27.0989 194.66 25.953 194.66C24.807 194.66 23.7285 194.189 22.7848 193.583C19.6841 191.63 17.7293 188.331 16.2463 184.964C14.7634 181.598 13.6175 178.096 11.6627 174.999C11.1908 174.326 10.719 173.585 10.5841 172.777C10.4493 171.969 10.8538 170.959 11.6627 170.757C12.0671 170.69 12.4715 170.555 12.8086 170.42C15.37 169.545 17.3249 168.064 19.6841 166.717C22.0434 165.303 23.9982 168.266 25.3463 169.949C25.8182 170.488 26.29 171.094 26.4922 171.767Z" fill="#CE422C"/>
<path d="M28.1764 192.034C28.4461 191.966 28.7831 191.832 29.0527 191.697C29.0527 192.168 28.9853 192.64 28.7157 193.044C28.1764 194.054 27.0305 194.592 25.8846 194.592C24.7387 194.592 23.6602 194.121 22.7165 193.515C19.6157 191.562 17.6609 188.263 16.178 184.897C14.695 181.53 13.5491 178.029 11.5943 174.931C11.1224 174.258 10.6506 173.517 10.5158 172.709C10.381 171.901 10.7854 170.891 11.5943 170.689C11.9987 170.622 12.4032 170.487 12.7402 170.353C13.0098 170.959 13.0773 171.699 13.2795 172.305C14.0884 175.807 15.7061 179.039 17.3239 182.136C18.8743 185.098 20.492 188.128 22.9861 190.35C24.5365 191.63 26.4239 192.572 28.1764 192.034Z" fill="#7F1D13"/>
<path d="M63.9697 93.5258C64.4415 94.2665 64.1045 95.2765 63.7675 96.0845C60.8016 102.548 55.6786 108.474 55.6786 115.544C55.6786 117.294 56.0156 118.978 56.4201 120.661C56.4875 120.998 56.5549 121.334 56.6223 121.671C58.7119 130.896 60.8016 140.322 59.5882 149.682C59.4534 150.624 59.3186 151.5 58.8468 152.308C58.3749 153.183 57.566 153.789 56.7571 154.328C50.0838 158.906 41.4557 160.118 35.052 165.034C32.0861 167.323 29.7269 170.286 26.6261 172.306C24.2669 170.622 22.3121 168.535 20.7617 166.111C26.0869 163.148 29.255 157.492 34.0409 153.654C36.8046 151.432 40.1076 149.884 43.3431 148.268C44.0846 147.931 44.8935 147.46 45.1631 146.719C45.3653 146.248 45.2979 145.642 45.2305 145.17C44.3542 138.437 41.7253 132.175 39.2313 125.846C38.6246 124.364 38.0854 122.883 37.4787 121.334C35.7261 116.486 34.2431 111.504 34.0409 106.319C33.9061 103.289 34.3106 100.259 35.1868 97.4311C35.9957 94.8725 37.2091 92.3811 39.0291 90.3611C40.849 88.2738 42.1972 88.3412 44.8261 88.6105C50.8927 89.2165 56.8245 90.5631 62.5541 92.5831C63.0934 92.8525 63.6327 93.0545 63.9697 93.5258Z" fill="#547989"/>
<path d="M87.8317 88.5432C89.2473 89.4185 90.6628 90.2265 92.2806 90.6978C95.7858 91.7078 99.4932 90.8998 102.998 90.1592C108.054 89.0818 113.109 88.1392 118.232 87.3312C119.783 87.0618 121.4 86.8598 122.951 87.1292C124.097 87.3312 125.512 87.8025 126.254 86.9272C126.591 86.5232 126.928 86.2538 126.995 85.7825C127.332 82.8198 127.4 75.6825 126.995 72.7199C126.321 72.9892 125.647 77.6352 125.512 78.3759C125.378 79.1165 125.378 79.8572 124.906 80.4632C124.703 80.7325 124.366 80.9345 124.097 81.1365C123.692 81.5405 123.49 82.0119 123.086 82.4159C122.546 82.9545 121.67 83.2239 120.861 83.3585C117.221 84.0318 113.514 83.6952 109.806 83.2912C106.032 82.8872 102.257 82.4159 98.4821 81.7425C96.3925 81.3385 94.168 80.8672 92.5502 79.5879C90.6628 78.1065 89.7191 75.7499 88.4384 73.7299C88.1688 73.3259 87.8992 72.9219 87.4273 72.7199C86.9555 72.4505 86.3488 72.4505 85.7421 72.5179C83.7873 72.7199 81.7651 73.2585 80.1473 74.4705C79.0014 75.2785 77.4511 76.8272 77.5859 78.3085C77.6533 79.6552 79.9451 79.7899 80.754 80.7325C83.1133 83.2912 84.8658 86.5905 87.8317 88.5432Z" fill="#F29D7E"/>
<path d="M65.9921 62.6194C64.7787 64.2354 63.498 65.9188 62.2847 67.5348C60.8691 69.4201 59.4536 71.3054 57.9032 73.1234C53.0499 78.914 47.1855 83.8294 40.647 87.6C39.9729 88.004 39.2314 88.408 39.0292 89.1487C38.827 89.8893 39.164 90.63 39.5685 91.3034C43.9499 99.2487 50.8254 105.578 58.375 110.628C58.9817 111.032 59.6558 111.436 60.3973 111.436C61.1387 111.369 61.7454 110.897 62.2847 110.426C67.812 105.78 72.6654 100.393 76.7098 94.4007C78.4624 91.842 80.0801 89.014 82.709 87.2634C83.5853 86.6574 84.6638 85.8494 84.3942 84.9067C84.3268 84.6374 84.1246 84.4354 83.9224 84.166C82.372 82.2134 80.6868 80.328 79.0016 78.51C81.4283 77.9041 82.6416 74.9414 85.0009 74.0661C86.686 73.4601 88.7083 74.1334 89.7194 75.6147C90.5283 73.8641 91.9438 72.3827 93.6964 71.5747C92.6853 69.8241 91.6742 68.0734 90.4608 66.3901C89.0453 64.3701 87.5623 62.4174 85.6749 60.8014C82.4394 58.0408 78.1253 56.4921 73.8787 55.9534C69.8343 55.6168 68.0817 59.8588 65.9921 62.6194Z" fill="#E289A9"/>
<path d="M82.6413 53.7993C81.6976 55.146 80.5517 56.2906 79.4058 57.368C80.4843 57.8393 81.5628 58.378 82.3043 59.3206C83.9894 61.408 83.248 64.7746 85.068 66.7273C84.9331 65.9866 85.4724 65.3133 85.9442 64.7746C86.8879 63.7646 87.8316 62.6873 88.7753 61.6773C89.382 61.004 89.9887 60.3306 90.865 60.0613C91.6064 59.792 92.4827 59.9266 93.2916 59.994C91.6738 56.8293 89.9887 53.6647 87.4946 51.1733C86.8205 50.5 85.3376 49.0187 84.3939 49.9613C83.9894 50.3653 83.922 51.308 83.7198 51.8467C83.4502 52.5873 83.0457 53.1933 82.6413 53.7993Z" fill="#E27E5A"/>
<path d="M96.7969 37.9756C97.5383 39.1876 99.0213 42.2176 99.0213 43.2276C99.0213 44.3049 98.7517 44.4396 98.7517 45.5169C98.7517 47.3349 100.437 47.8062 100.976 49.7589C100.976 50.2302 100.1 50.2975 99.5606 50.3649C99.3583 50.3649 99.1561 50.4322 99.0213 50.4995C98.5494 50.9035 99.0887 51.7115 98.8865 52.3175C98.6169 53.0582 97.3361 52.8562 96.9317 53.5969C96.6621 54.0682 96.9317 54.6069 97.2013 55.0782C97.4709 55.4822 97.8754 55.9535 97.808 56.4922C97.7406 57.1655 96.8643 57.6369 96.9317 58.3775C96.9991 58.7815 97.1339 59.2528 96.9991 59.5895C96.7295 60.1282 96.325 60.3302 95.7184 60.5322C94.6398 60.8688 91.9436 60.0608 91.0673 59.3202C87.5621 56.4249 85.6073 53.8662 85.7421 53.2602C85.8769 52.7889 86.4162 52.4522 86.2814 51.9809C86.1465 51.4422 85.4051 51.4422 84.9332 51.1729C84.5288 50.9035 84.3266 50.3649 84.1917 49.8935C84.0569 49.3549 83.8547 48.8836 83.7199 48.3449C83.5177 47.7389 83.3154 47.0656 83.3829 46.3922C83.4503 45.7189 83.7873 45.0456 84.4614 44.8436C84.9332 44.6416 85.5399 44.8436 85.9443 45.1129C86.3488 45.3822 86.6858 45.8536 87.0228 46.2576C87.6969 45.4496 88.371 44.6416 89.0451 43.8336C89.1799 43.6989 89.2473 43.4969 89.3147 43.3622C89.3821 43.1602 89.3147 42.8909 89.2473 42.6889C88.9776 41.8136 88.8428 40.9382 88.708 40.0629C88.6406 39.3896 88.5732 38.7162 88.8428 38.1102C89.3147 36.7636 90.9325 36.0903 92.4154 36.2249C93.831 36.3596 95.1117 37.1003 96.3924 37.8409C96.5946 37.8409 96.7969 37.9756 96.7969 37.9756Z" fill="#F29D7E"/>
<path d="M85.54 46.3925C86.3488 45.8539 87.0903 46.3252 87.5622 46.9312C87.697 47.1332 87.8992 47.3352 88.1014 47.3352C88.3036 47.3352 88.4385 47.1332 88.5733 46.9985C89.1799 46.0559 88.7081 45.5845 89.3148 44.6419C89.517 44.3725 90.5955 43.4299 90.9325 43.3625C96.9992 41.4099 97.6732 39.6592 97.6732 39.5245C97.6732 38.9185 97.0666 36.1579 94.0333 34.4746C92.2133 33.4646 89.5844 32.2526 85.2703 32.5219C83.72 32.6566 82.0348 33.5992 80.5518 34.1379C79.7429 33.2626 78.8666 32.3872 77.7207 32.3199C76.9118 32.2526 76.103 32.6566 75.4289 33.0606C73.8111 34.0032 72.2607 35.2826 71.5867 37.0332C70.5082 39.9285 72.1933 43.1605 71.8563 46.2579C71.7215 47.2678 71.3845 48.3452 71.7889 49.2205C72.1259 50.0285 72.9348 50.4998 73.2719 51.3078C73.8111 52.3178 73.5415 53.4625 73.7437 54.5398C74.0133 55.7518 74.8222 56.8292 75.9681 57.3678C77.1815 57.9065 78.7318 57.9738 79.4733 58.9838C80.08 59.8591 79.9452 61.0038 80.1474 62.0138C80.3496 63.0238 81.0237 63.9665 81.9 64.5051C82.237 64.7071 82.574 64.8418 82.8437 65.1111C83.4503 65.6498 83.5851 66.5925 83.7874 67.4005C83.9896 68.2085 84.394 69.0838 85.2029 69.3531C85.9444 69.5551 86.7533 69.0164 87.0903 68.2758C87.3599 67.5351 87.0229 63.9665 87.0229 63.4278C86.9555 61.8118 84.5963 56.8965 84.4614 55.4825C84.394 54.6072 83.8548 53.6645 84.1918 52.8565C84.3266 52.6545 84.4614 52.4525 84.5963 52.1832C84.9333 51.5098 84.6637 50.7018 84.5288 49.8938C84.2592 48.4125 85.54 46.3925 85.54 46.3925Z" fill="#1B4E61"/>
<path d="M264.371 105.982C260.933 116.419 260.191 127.461 259.517 138.437C259.382 140.726 259.248 143.015 259.113 145.305C259.045 146.247 258.978 147.19 259.18 148.133C259.382 149.075 259.787 149.951 260.056 150.826C261.202 154.058 261.135 157.627 261.068 161.061C260.933 167.794 260.731 174.595 259.787 181.261C259.517 183.213 259.113 185.166 258.708 187.118C258.573 187.657 258.506 188.263 258.776 188.734C259.045 189.206 259.652 189.408 260.191 189.61C261.876 190.148 263.629 190.687 265.314 191.158C266.865 191.63 268.887 191.966 269.83 190.687C271.313 188.6 268.078 185.637 269.224 183.348C269.493 182.877 269.898 182.473 270.167 182.001C270.437 181.53 270.505 180.991 270.572 180.453C271.111 175.941 271.583 171.43 272.122 166.919C272.527 163.485 272.931 160.051 272.662 156.617C272.527 154.597 272.122 152.577 272.055 150.557C271.987 144.766 274.751 139.379 277.447 134.195C278.728 131.771 279.942 129.347 280.481 126.653C281.02 123.758 280.683 120.728 280.346 117.833C279.874 113.725 279.402 109.685 278.863 105.578C278.728 104.231 278.526 102.817 277.852 101.605C276.302 98.9121 272.392 98.0368 269.493 98.2388C265.853 98.6428 265.382 103.087 264.371 105.982Z" fill="#B94A5B"/>
<path d="M271.179 110.09C272.257 113.658 274.145 117.025 275.56 120.459C278.256 126.923 279.537 133.926 281.02 140.794C281.627 143.622 282.234 146.382 283.312 149.076C284.256 151.567 285.604 153.991 286.413 156.55C287.424 159.782 287.626 163.283 287.626 166.65C287.626 174.326 286.817 182.002 285.132 189.475C288.435 190.283 291.738 191.091 295.041 191.899C294.03 188.331 294.839 184.56 295.378 180.857C296.524 173.45 296.726 165.909 296.996 158.368C297.063 156.886 297.063 155.338 296.861 153.856C296.389 151.298 295.108 149.008 294.502 146.45C293.828 143.756 294.03 140.928 294.165 138.168C294.434 133.589 294.704 129.078 294.973 124.499C295.041 122.95 295.176 121.402 295.58 119.92C295.985 118.506 296.659 117.16 297.131 115.746C298.344 112.312 298.209 108.541 297.872 104.905C297.805 104.03 297.67 103.087 297.131 102.346C296.456 101.471 295.378 101.134 294.299 100.865C288.435 99.2491 282.301 97.5657 276.099 98.1044C273.403 98.3737 271.583 98.3737 270.707 101C269.696 103.828 270.37 107.396 271.179 110.09Z" fill="#E8605C"/>
<path d="M270.302 196.545C270.235 197.218 269.628 197.824 269.022 198.026C268.348 198.296 267.674 198.296 266.932 198.296C265.921 198.296 264.91 198.296 263.899 198.296C261.27 198.296 258.708 198.296 256.08 198.43C251.428 198.767 246.643 199.575 242.329 197.959C242.126 197.892 241.924 197.824 241.789 197.69C241.52 197.42 241.385 197.016 241.452 196.68C241.52 196.343 241.722 196.006 241.924 195.737C242.059 195.602 242.194 195.468 242.396 195.333C242.868 194.996 243.407 194.862 244.014 194.727C245.429 194.323 246.845 193.986 248.328 193.784C248.597 193.717 248.867 193.717 249.069 193.582C249.406 193.448 249.608 193.111 249.878 192.909C250.417 192.37 251.159 192.101 251.766 191.697C253.653 190.62 255.203 189.071 256.821 187.59C257.36 187.118 258.574 186.176 258.911 187.253C259.045 187.657 258.911 187.994 259.248 188.398C259.585 188.802 260.191 189.071 260.663 189.273C262.551 190.081 264.505 190.822 266.528 191.024C267.606 191.091 268.617 191.024 269.696 190.956C269.628 192.37 269.561 193.784 269.965 195.131C270.033 195.333 270.1 195.602 270.168 195.804C270.235 196.074 270.302 196.276 270.302 196.545Z" fill="#F8F8DC"/>
<path d="M270.302 196.545C270.235 197.219 269.628 197.825 269.022 198.027C268.348 198.296 267.674 198.296 266.932 198.296C265.921 198.296 264.91 198.296 263.899 198.296C261.27 198.296 258.708 198.296 256.08 198.431C251.428 198.767 246.643 199.575 242.329 197.959C242.126 197.892 241.924 197.825 241.789 197.69C241.52 197.421 241.385 197.017 241.452 196.68C241.52 196.343 241.722 196.007 241.924 195.737C241.991 196.141 241.789 196.613 242.396 196.949C242.868 197.219 243.474 197.219 244.014 197.219C251.159 197.151 258.304 197.084 265.449 197.017C266.393 197.017 267.337 197.017 268.28 196.747C268.954 196.545 269.628 196.276 270.168 195.805C270.168 195.805 270.235 195.805 270.235 195.737C270.235 196.074 270.302 196.276 270.302 196.545Z" fill="#65BDA5"/>
<path d="M295.243 197.353C295.243 197.69 295.176 198.026 294.974 198.228C294.839 198.363 294.637 198.498 294.434 198.632C293.491 199.171 292.547 199.642 291.603 200.181C290.66 200.652 289.716 201.191 288.705 201.528C288.031 201.73 287.289 201.864 286.548 201.932C285.065 202.134 283.582 202.403 282.099 202.336C280.548 202.336 278.998 202.066 277.515 201.528C277.246 201.46 276.976 201.326 276.841 201.056C276.774 200.854 276.774 200.652 276.841 200.383C276.908 200.114 276.976 199.844 277.111 199.642C277.448 198.834 277.987 198.161 278.594 197.555C279.2 197.016 279.942 196.612 280.414 195.939C280.683 195.602 280.818 195.198 281.088 194.794C281.29 194.525 281.627 194.256 281.897 193.986C282.908 193.044 283.582 191.899 283.919 190.552C284.256 189.34 285.132 188.465 286.48 188.33C287.02 188.263 287.559 188.398 288.098 188.532C289.042 188.802 290.053 189.206 290.727 189.879C290.997 190.148 291.199 190.418 291.468 190.62C292.008 191.024 292.749 191.091 293.423 191.158C293.625 191.158 293.76 191.226 293.895 191.293C294.03 191.428 294.097 191.562 294.097 191.764C294.367 192.909 294.637 194.054 294.974 195.198C295.041 195.535 295.176 195.872 295.176 196.276C295.176 196.747 295.243 197.016 295.243 197.353Z" fill="#F8F8DC"/>
<path d="M295.243 197.354C295.243 197.69 295.176 198.027 294.974 198.229C294.839 198.364 294.637 198.498 294.434 198.633C293.491 199.172 292.547 199.643 291.603 200.182C290.66 200.653 289.716 201.192 288.705 201.528C288.031 201.73 287.289 201.865 286.548 201.932C285.065 202.134 283.582 202.404 282.099 202.336C280.548 202.336 278.998 202.067 277.515 201.528C277.246 201.461 276.976 201.326 276.841 201.057C276.774 200.855 276.774 200.653 276.841 200.384C276.908 200.114 276.976 199.845 277.111 199.643C277.246 199.71 277.313 199.71 277.448 199.778C278.257 200.047 279.066 200.316 279.942 200.384C281.964 200.586 284.054 200.788 286.076 200.653C288.098 200.518 290.188 199.98 291.873 198.768C293.019 197.96 294.03 196.95 295.243 196.411C295.176 196.748 295.243 197.017 295.243 197.354Z" fill="#65BDA5"/>
<path d="M258.978 65.6502C257.495 66.3909 256.012 67.1315 254.597 67.9395C250.485 70.3635 246.777 73.7975 242.126 74.7402C240.778 75.0095 239.295 75.0095 238.015 74.4035C237.206 73.9995 236.464 73.3262 235.52 73.1242C233.161 72.7202 234.375 74.8749 234.038 75.8175C233.566 77.2989 231.881 77.7702 231.274 79.1168C230.532 80.7328 231.746 82.6182 233.026 83.6955C234.038 84.5035 235.453 84.9075 236.666 84.6382C239.228 84.0322 241.385 81.9448 244.014 81.1368C246.845 80.3288 249.743 79.9922 252.575 79.3188C257.36 78.1742 262.214 77.0295 266.932 75.4809C268.82 74.8749 270.707 74.1342 272.325 72.9895C273.336 72.2489 274.212 71.3062 275.088 70.3635C275.965 69.4209 276.841 68.4782 277.717 67.6029C277.852 67.4682 278.054 67.2662 278.054 66.9969C278.054 66.7275 277.852 66.5255 277.65 66.3909C275.763 64.7076 273.74 63.1589 271.651 61.6776C269.426 60.1289 268.146 59.6576 265.989 61.2062C263.899 62.8222 261.472 64.3709 258.978 65.6502Z" fill="#F29D7E"/>
<path d="M251.631 42.0161C250.282 39.6594 248.395 37.3701 245.766 36.6295C245.025 36.4275 243.946 36.4948 243.677 37.2355C243.474 37.8414 243.879 38.4474 244.351 38.7841C244.822 39.1881 245.429 39.4574 245.766 39.9288C245.834 39.9961 245.901 40.1308 245.901 40.1981C245.901 40.4001 245.766 40.5348 245.564 40.6694C244.688 41.4774 243.744 42.2854 243.34 43.3628C242.598 45.4501 244.014 47.6048 245.294 49.3554C245.901 50.1634 246.508 50.9714 247.451 51.3754C248.193 51.7121 249.069 51.6447 249.811 51.9814C250.552 52.3181 251.091 52.9241 251.563 53.5974C252.979 55.5501 253.99 57.7047 255.271 59.7247C257.091 62.4854 259.517 64.842 262.079 66.9294C266.393 70.498 271.381 73.528 276.976 73.73C282.099 73.932 286.952 71.6427 291.536 69.488C291.94 69.286 292.345 69.084 292.682 68.7474C292.884 68.478 293.019 68.2087 293.086 67.872C293.827 65.5154 294.03 63.024 293.356 60.6674C292.614 58.3107 290.794 56.2907 288.502 55.6174C285.267 54.7421 281.964 56.5601 278.796 57.6374C276.369 58.4454 273.808 58.7821 271.313 58.5127C267.876 58.1087 264.708 56.5601 261.876 54.5401C259.248 52.6547 256.079 50.2981 254.462 47.4701C253.383 45.7194 252.642 43.7668 251.631 42.0161Z" fill="#FFBDA9"/>
<path d="M267.943 57.6377C270.1 58.3783 272.122 59.3883 274.01 60.6003C274.347 60.8023 274.684 61.0717 275.088 61.0717C275.56 61.139 276.032 60.8697 276.436 60.6677C279.133 59.321 281.829 57.907 284.525 56.5603C284.997 56.291 285.469 56.089 286.008 56.089C286.413 56.089 286.817 56.291 287.154 56.493C290.794 58.5803 293.019 62.8223 292.749 66.9296C292.749 67.401 292.682 67.8723 292.412 68.209C292.008 68.815 291.266 69.017 290.659 69.219C287.019 70.229 283.379 71.239 279.739 72.249C278.594 72.5856 277.38 72.855 276.234 72.653C275.088 72.451 274.01 71.7776 272.797 71.9123C271.92 74.3363 271.111 76.7603 270.505 79.2516C270.302 79.9923 270.1 80.7329 270.168 81.4736C270.168 82.2143 270.37 83.0223 270.437 83.7629C270.909 89.3516 264.371 93.5262 264.438 99.1149C272.864 100.462 281.492 100.125 289.918 101.404C293.086 101.876 296.254 102.616 298.816 104.502C297.939 102.01 298.276 99.2495 298.681 96.6236C299.692 89.2842 300.77 82.0123 303.062 74.9423C304.343 71.037 305.893 67.3336 306.904 63.361C307.916 59.3883 308.185 55.1463 306.904 51.3084C305.624 47.4704 302.456 44.0364 298.411 43.2957C293.49 42.4204 289.379 45.383 284.93 46.7297C282.571 47.4704 280.211 47.807 278.189 49.221C276.436 50.433 275.021 52.049 273.538 53.5303C272.662 54.5403 269.359 58.109 267.943 57.6377Z" fill="#E4F3F7"/>
<path d="M286.615 47.8069C286.346 48.6149 285.941 49.4229 285.671 50.2309C285.537 50.6349 285.537 51.1063 285.941 51.2409C286.211 51.3083 286.413 51.1063 286.615 50.9716C290.794 47.6049 295.917 45.7869 300.973 44.0363C299.625 43.3629 299.085 41.747 298.748 40.2656C298.411 38.9863 298.074 37.707 298.007 36.4276C298.007 35.8216 298.007 35.283 297.872 34.677C297.805 34.1383 297.535 33.5996 297.333 33.061C297.265 32.859 297.131 32.5896 296.928 32.455C296.794 32.3203 296.524 32.3203 296.322 32.3203C295.311 32.3203 294.367 32.7916 293.491 33.3303C292.008 34.273 290.525 35.283 289.177 36.4276C287.761 37.6396 286.278 39.1883 286.683 41.141C287.357 43.4303 287.424 45.5849 286.615 47.8069Z" fill="#F29D7E"/>
<path d="M277.38 32.6569C277.178 33.8689 276.302 35.0136 276.639 36.2256C277.043 36.2256 277.448 36.2256 277.92 36.2256C278.392 36.9663 278.796 37.7743 279.268 38.5149C279.672 39.2556 280.549 40.0636 281.155 39.4576C280.549 40.4676 281.29 41.8816 282.369 42.3529C283.447 42.8916 284.66 42.7569 285.874 42.6896C286.278 42.6896 286.683 42.6222 287.02 42.3529C287.289 42.0836 287.424 41.7469 287.559 41.4102C289.042 37.6396 292.21 34.6096 296.052 33.3976C296.322 33.3303 296.591 33.1956 296.659 32.9936C296.726 32.7916 296.659 32.6569 296.591 32.4549C296.187 31.5123 295.783 30.5023 295.378 29.5596C294.906 28.415 294.165 27.0683 292.951 26.9336C293.289 25.8563 292.412 24.779 291.401 24.2403C290.39 23.7016 289.244 23.567 288.233 23.0956C286.952 22.4896 286.009 21.4123 284.997 20.4696C282.166 17.9783 278.459 18.7863 276.976 22.355C276.504 23.4996 276.572 24.9136 276.572 26.1256C276.437 28.3476 277.65 30.5696 277.38 32.6569Z" fill="#FFBDA9"/>
<path d="M272.392 20.8736C272.46 22.3549 273.606 23.7689 275.088 23.9709C277.178 24.2402 278.863 22.1529 280.953 21.8162C281.29 21.7489 281.627 21.7489 281.897 21.9509C282.166 22.0856 282.301 22.3549 282.436 22.6242C283.11 24.0382 282.773 25.8562 283.649 27.2029C284.054 27.8089 284.66 28.2129 284.997 28.8862C285.334 29.4922 285.334 30.3002 285.671 30.9062C286.008 31.5122 286.952 31.9162 287.357 31.3776C287.154 30.3676 287.02 29.3576 287.222 28.4149C287.424 27.4049 288.031 26.4622 288.907 26.0582C289.783 25.6542 291.064 25.8562 291.603 26.6642C292.21 27.6069 291.873 28.9536 292.479 29.9636C292.884 30.5696 293.558 30.9062 293.962 31.4449C294.367 31.9836 294.569 32.6569 294.974 33.1955C295.58 34.0035 296.794 34.2729 297.67 33.8689C297.602 32.5895 297.468 31.3102 297.602 30.0309C297.737 28.1456 298.344 26.3276 298.681 24.5096C299.018 22.6242 299.153 20.6716 298.411 18.9209C297.4 16.4969 294.704 14.9483 292.142 15.2176C292.142 14.4769 291.671 13.8036 290.997 13.4669C290.39 13.0629 289.648 12.9283 288.907 12.8609C285.469 12.3896 281.897 12.9956 278.728 14.4769C276.167 15.4869 272.19 17.5743 272.392 20.8736Z" fill="#1B4E61"/>
<path d="M227.185 85.6969V180.502H243.699V85.6969H227.185Z" fill="#EC7772"/>
<path d="M243.677 85.7155V84.2341C243.677 79.6555 239.969 75.9521 235.386 75.9521C230.802 75.9521 227.095 79.6555 227.095 84.2341V85.7155H243.677Z" fill="#B94A5B"/>
<path d="M227.161 85.7389V180.544H232.688V85.7389H227.161Z" fill="#DD5858"/>
<path d="M232.712 85.6969V180.502H238.104V85.6969H232.712Z" fill="#F98A8A"/>
<path d="M243.677 180.521H227.162L235.79 194.391L243.677 180.521Z" fill="#CE422C"/>
<path d="M227.182 85.7663V88.0557H243.697V85.7663H227.182Z" fill="#FDD17A"/>
<path d="M210.041 182.406C211.119 182.54 212.198 182.406 213.276 182.271C214.49 182.136 215.636 182.002 216.849 181.867C217.456 181.8 217.995 181.732 218.602 181.934C219.141 182.136 219.68 182.54 219.68 183.146C219.748 183.954 218.939 184.493 218.265 184.83C215.433 186.311 212.131 187.321 208.962 186.85C207.547 186.648 206.064 186.042 205.255 184.83C204.648 183.887 204.514 181.732 205.794 181.194C206.468 180.924 207.008 181.463 207.614 181.732C208.423 182.069 209.232 182.271 210.041 182.406Z" fill="#0F0F23"/>
<path d="M212.939 184.627C215.029 184.694 217.186 184.694 219.208 184.156C220.084 183.954 220.893 183.617 221.769 183.55C222.646 183.482 223.589 183.684 224.196 184.358C224.803 185.098 224.803 186.176 224.398 187.051C223.994 187.926 223.32 188.6 222.578 189.206C218.669 192.572 213.883 195.131 208.76 195.4C207.344 195.468 205.929 195.333 204.581 195.804C203.03 196.276 201.615 197.488 200.064 197.151C199.525 197.016 199.053 196.747 198.581 196.41C198.312 196.208 197.975 196.006 197.84 195.67C197.772 195.266 197.975 194.929 198.177 194.592C199.323 192.774 199.997 190.687 200.604 188.667C201.008 187.455 201.345 186.243 202.019 185.166C202.491 184.358 203.232 183.617 204.109 183.213C205.12 182.809 205.659 183.482 206.603 183.819C208.625 184.56 210.782 184.56 212.939 184.627Z" fill="#1C1C38"/>
<path d="M189.414 172.305C190.83 173.113 192.245 173.854 193.728 174.527C198.042 176.48 202.828 177.423 206.603 180.183C205.996 181.395 205.457 182.54 204.85 183.752C204.446 184.56 203.974 185.435 203.165 185.637C202.491 185.839 201.75 185.57 201.076 185.301C196.424 183.415 191.773 181.597 187.122 179.712C177.55 175.874 167.911 172.036 158.609 167.592C157.261 166.986 155.913 166.313 154.902 165.303C153.891 164.293 153.216 162.744 153.553 161.33C154.093 159.31 156.317 158.3 158.272 157.627C159.351 157.223 160.159 156.751 161.238 157.021C162.316 157.29 163.395 157.896 164.339 158.367C166.428 159.31 168.518 160.387 170.54 161.465C174.652 163.687 178.629 166.043 182.673 168.467C184.965 169.747 187.19 171.093 189.414 172.305Z" fill="#165260"/>
<path d="M198.716 195.535C198.042 196.612 194.942 193.65 193.796 193.246C190.56 192.034 187.257 190.418 183.752 189.004C176.742 186.108 169.799 183.28 162.788 180.385C160.834 179.577 158.811 178.769 156.722 178.836C154.362 178.904 152.205 180.183 150.183 181.328C143.914 184.964 137.645 188.6 131.444 192.303C128.411 194.054 125.377 195.804 122.074 196.814C119.715 197.487 117.221 197.757 114.794 198.026C112.435 198.228 109.941 198.43 107.649 197.689C105.02 196.814 102.931 194.794 100.976 192.909C100.504 192.438 99.9649 191.899 99.9649 191.226C99.8975 190.754 100.1 190.283 100.302 189.879C101.583 187.118 103.066 184.492 104.818 182.001C105.492 180.991 106.166 180.048 107.11 179.308C108.256 178.365 109.604 177.759 110.952 177.22C115.671 175.2 119.783 172.17 124.636 170.554C132.253 168.063 140.948 167.524 147.891 163.484C150.385 162.07 152.947 160.252 155.778 160.387C157.733 160.454 159.485 161.464 161.171 162.407C167.439 165.976 173.708 169.477 179.977 173.046C183.819 175.2 187.729 177.422 192.11 178.163C195.009 178.634 199.593 180.722 203.233 181.934C206.468 182.944 200.401 192.909 198.716 195.535Z" fill="#1A5A6B"/>
<path d="M122.142 159.713C122.209 160.387 122.277 161.06 122.681 161.666C123.22 162.474 124.299 162.743 125.242 162.811C126.928 162.945 128.68 162.676 130.365 162.407C129.961 163.551 129.017 164.359 128.074 165.033C126.725 165.975 125.242 166.783 123.557 167.187C122.277 167.524 120.794 167.457 119.783 166.581C119.243 166.11 118.974 165.504 118.704 164.831C116.817 160.521 115.738 155.673 116.48 151.027C116.682 149.613 117.154 148.199 118.165 147.189C119.176 146.247 122.209 145.439 122.277 147.526C122.344 148.738 122.074 150.017 122.007 151.297C121.94 152.576 121.94 153.923 121.94 155.202C121.94 156.751 122.074 158.232 122.142 159.713Z" fill="#F39E81"/>
<path d="M137.106 160.253C137.847 159.714 138.656 159.31 139.533 159.243C140.679 159.108 141.892 159.647 143.038 159.31C143.442 159.175 143.779 159.041 144.184 158.973C144.858 158.906 145.464 159.175 146.071 159.445C146.206 159.512 146.341 159.579 146.408 159.714C146.476 159.983 146.273 160.185 146.004 160.32C143.24 162.003 140.274 163.283 137.173 164.158C136.23 164.427 134.949 163.956 134.882 162.811C134.814 161.734 136.364 160.791 137.106 160.253Z" fill="#F39E81"/>
<path d="M107.851 178.769C106.301 181.26 104.75 183.751 102.93 186.041C102.054 187.118 101.178 188.128 100.639 189.407C100.301 190.283 99.9644 191.293 99.0881 191.562C98.6163 191.697 98.077 191.495 97.6052 191.293C96.4593 190.754 95.3807 189.946 94.5719 189.003C93.9652 188.33 93.4933 187.589 92.8867 186.916C92.28 186.175 91.5385 185.502 90.9993 184.761C90.3926 183.953 90.0556 182.943 89.786 182.001C88.5726 178.23 88.1008 174.325 88.3704 170.352C88.3704 170.15 88.4378 169.948 88.5726 169.813C88.7074 169.746 88.8423 169.679 89.0445 169.679C89.8534 169.679 90.5948 169.746 91.4037 169.881C94.7067 170.419 98.0096 171.429 101.043 172.911C102.863 173.786 104.548 174.796 106.301 175.806C106.907 176.21 107.851 176.547 108.39 177.018C108.862 177.691 108.323 177.961 107.851 178.769Z" fill="#FDD17A"/>
<path d="M87.6291 171.43C87.9661 173.988 88.5054 176.884 90.5276 178.432C92.2128 179.712 94.572 179.779 96.729 179.846C99.0209 179.846 101.313 179.914 103.537 179.51C105.694 179.173 107.784 178.5 109.806 177.692C116.21 175.133 122.074 171.497 128.343 168.669C132.387 166.851 136.701 165.302 140.409 162.878C140.881 162.542 140.678 161.801 140.139 161.734L136.095 161.33C135.421 161.262 134.679 161.195 134.005 161.262C132.927 161.33 131.848 161.734 130.837 162.138C129.422 162.676 128.006 163.215 126.658 163.888C125.444 164.494 124.299 165.302 122.95 165.706C121.939 166.043 120.928 166.11 119.917 166.178C114.929 166.649 109.941 166.918 104.953 166.986C104.211 166.986 103.402 166.986 102.728 166.716C101.043 166.043 100.436 163.956 100.369 162.138C100.234 159.983 100.436 157.828 100.234 155.741C100.032 153.586 99.2905 151.432 97.6053 150.085C96.1898 148.94 94.3024 148.536 92.4824 148.738C90.3928 148.94 88.0335 149.412 86.618 151.162C85.2698 152.778 86.0787 153.384 86.0113 155.674C86.0113 158.098 86.4832 160.993 86.6854 163.417C86.955 165.976 87.2921 168.669 87.6291 171.43Z" fill="#F5B7A0"/>
<path d="M116.749 131.973C117.76 132.444 118.771 132.983 119.58 133.791C120.659 134.868 121.13 136.349 121.535 137.763C122.411 140.861 122.883 144.025 122.95 147.257C121.939 147.459 120.928 147.594 119.917 147.796C119.715 147.863 119.513 147.863 119.378 148.065C119.243 148.2 119.243 148.402 119.243 148.604C118.973 152.644 119.311 156.684 120.322 160.589C120.726 162.071 121.13 163.552 121.198 165.033C121.198 165.303 121.198 165.505 121.063 165.707C120.793 166.245 120.052 166.245 119.445 166.245C116.479 166.245 113.648 167.457 110.682 168.131C107.582 168.804 104.414 168.871 101.313 168.265C100.774 168.131 100.234 168.063 99.8299 167.659C99.2906 167.188 99.1558 166.38 99.021 165.639C98.4143 161.263 98.0099 156.886 97.7402 152.442C97.7402 152.173 97.6728 151.903 97.538 151.701C97.3358 151.499 97.0662 151.432 96.7291 151.432C94.7743 151.23 92.8195 151.095 90.9321 151.499C89.0447 151.903 87.1573 152.981 86.3484 154.731C86.2136 155.068 85.8766 155.539 85.5395 155.337C85.3373 155.203 85.2699 154.933 85.2699 154.731C85.2025 152.981 85.2025 151.163 85.1351 149.412C85.0677 147.863 85.0677 146.315 85.2025 144.766C85.6069 140.524 87.5617 136.484 90.5951 133.589C91.8758 132.377 93.2914 131.367 94.5047 130.087C95.5158 129.077 96.4595 127.798 97.8076 127.394C98.7513 127.125 99.8299 127.259 100.841 127.461C103.807 128 106.84 128.808 109.806 129.279C112.368 129.616 114.457 130.828 116.749 131.973Z" fill="#FDD17A"/>
<path d="M112.57 104.232C112.772 104.568 112.84 104.905 113.042 105.242C113.379 105.982 113.985 106.521 114.727 106.925C115.199 107.194 115.738 107.329 116.142 107.666C116.547 108.002 116.884 108.608 116.682 109.08C116.48 109.686 115.603 110.09 115.873 110.696C115.94 110.898 116.075 111.032 116.277 111.167C116.951 111.773 117.356 112.648 117.356 113.591C117.356 113.995 117.288 114.399 117.491 114.668C117.625 114.803 117.76 114.938 117.895 115.072C118.704 115.813 118.704 117.294 117.828 118.035C117.288 118.506 116.614 118.641 115.94 118.708C113.244 119.112 110.48 119.247 107.919 120.257C107.245 120.526 106.503 120.863 105.829 120.728C104.346 120.392 103.74 118.237 102.189 118.304C101.65 118.304 101.246 118.641 100.706 118.708C99.8974 118.843 99.0885 118.506 98.4818 117.968C97.8752 117.429 97.4707 116.688 97.2011 115.948C96.7292 114.938 96.3922 113.86 96.527 112.716C96.6618 111.638 97.2685 110.494 98.2796 110.09C98.7515 109.888 99.2233 109.888 99.6952 109.753C101.65 109.282 102.931 107.464 104.077 105.848C105.088 104.366 106.436 102.346 108.323 102.01C109.739 101.673 111.896 102.952 112.57 104.232Z" fill="#F5B7A0"/>
<path d="M113.379 120.796C112.637 122.008 112.233 123.355 111.896 124.701C111.357 126.721 110.818 128.741 110.615 130.761C110.548 131.3 110.548 131.906 110.211 132.377C109.739 132.916 108.93 132.983 108.256 132.781C107.582 132.512 107.043 132.04 106.503 131.636C103.875 129.684 100.572 128.808 97.4709 127.664C97.2013 127.597 96.9316 127.394 96.9316 127.125C98.4146 126.721 100.032 126.183 100.572 124.769C100.774 124.163 100.706 123.489 100.706 122.883C100.572 121.335 100.437 119.719 100.369 118.17C100.369 117.968 100.369 117.699 100.437 117.497C100.572 117.093 101.043 116.958 101.448 116.891C103.605 116.554 105.762 117.16 107.919 117.295C110.413 117.429 112.975 116.958 115.401 117.497C115.671 117.564 116.615 117.766 116.682 118.103C116.682 118.507 115.873 118.641 115.603 118.776C114.525 119.247 113.851 119.988 113.379 120.796Z" fill="#F39E81"/>
<path d="M108.121 96.4885C109.604 96.1518 111.289 97.0944 111.828 98.5758C111.963 99.0471 112.031 99.4511 112.098 99.9224C112.165 100.663 112.233 101.404 112.031 102.144C111.828 102.885 111.357 103.558 110.683 103.828C110.211 103.962 109.671 103.962 109.334 104.299C108.93 104.636 108.863 105.174 108.728 105.646C108.391 106.723 107.38 107.531 106.234 107.666C105.897 107.733 105.492 107.733 105.29 108.002C105.155 108.204 105.155 108.406 105.088 108.676C104.953 109.484 104.346 110.157 103.605 110.426C103.2 110.561 102.796 110.561 102.391 110.763C101.987 110.898 101.65 111.234 101.583 111.638C101.515 112.177 102.054 112.581 102.459 112.918C102.863 113.322 103.133 113.995 102.728 114.332C102.391 114.601 101.92 114.466 101.583 114.197C101.246 113.995 100.909 113.658 100.504 113.658C100.032 113.658 99.6952 114.062 99.493 114.466C99.0885 115.342 99.2233 116.419 99.7626 117.16C99.9648 117.429 100.167 117.631 100.302 117.9C100.571 118.574 100.234 119.449 100.706 120.055C100.908 120.257 101.246 120.392 101.38 120.661C101.515 120.998 101.313 121.402 101.448 121.738C101.515 122.008 101.785 122.21 101.987 122.412C102.728 123.287 102.526 124.836 101.515 125.442C101.313 125.576 101.111 125.644 100.976 125.778C100.841 125.913 100.706 126.115 100.571 126.317C99.9648 127.058 98.8189 127.596 97.8752 127.394C96.7293 128.741 94.37 128.068 93.2241 126.654C93.0219 126.452 92.887 126.182 92.6848 126.048C92.55 125.98 92.3478 125.913 92.1456 125.846C90.4604 125.374 89.4493 123.354 89.9885 121.738C88.3034 121.132 87.1574 119.516 86.753 117.833C86.6182 117.16 86.5508 116.419 86.753 115.813C86.8204 115.678 86.8878 115.476 86.8878 115.342C86.8878 115.14 86.753 114.938 86.6182 114.736C85.7419 113.524 85.2026 111.975 85.2026 110.494C85.2026 109.82 85.27 109.147 85.6071 108.608C85.9441 108.07 86.5508 107.598 87.2248 107.666C87.2923 106.521 86.8204 105.309 87.09 104.164C87.4271 102.548 89.3145 101.538 90.8648 102.144C90.5278 101.134 90.8648 99.9224 91.6063 99.1144C92.3478 98.3064 93.5611 98.0371 94.5722 98.3064C94.5048 97.6331 95.1115 97.0271 95.7181 96.8251C96.3248 96.6231 97.0663 96.6231 97.673 96.6905C97.7404 95.7478 98.347 94.8051 99.2233 94.4011C100.1 93.9971 101.178 94.0645 101.987 94.6705C101.92 94.6031 103.47 94.0645 103.672 94.0645C104.211 94.0645 104.886 94.1318 105.425 94.2665C106.773 94.4011 107.447 95.2765 108.121 96.4885Z" fill="#E8605C"/>
<path d="M173.978 129.01L159.755 131.097L146.273 159.242L161.507 154.933L173.978 129.01Z" fill="#0B3A47"/>
<path d="M161.507 154.934L161.642 157.223L124.771 173.72L123.153 171.161L146.206 160.118L146.273 159.243L161.507 154.934Z" fill="#547989"/>
</svg>
