<svg width="377" height="294" viewBox="0 0 377 294" fill="none" xmlns="http://www.w3.org/2000/svg">
<circle opacity="0.2" cx="154" cy="147" r="147" fill="#3A966C"/>
<path d="M172.95 247.869C161.913 247.907 150.876 248.173 139.839 249.348C135.667 249.804 131.609 250.79 127.437 251.169C119.131 251.966 110.938 253.445 102.594 254.128C95.881 254.659 89.1299 255 82.4167 255.683C76.1208 256.328 69.18 256.176 62.922 255.114C58.2948 254.317 53.6677 253.862 49.1163 252.573C44.0341 251.131 38.5346 250.107 33.2247 250.145C25.6771 250.183 18.3192 250.221 11.1129 252.724C8.57178 253.597 5.46172 255.076 3.56534 256.935C-0.796328 261.297 -1.36524 271.955 3.03436 276.393C10.4302 283.865 26.246 286.786 36.6382 286.938C48.0164 287.089 59.0913 286.255 70.4696 285.8C81.0514 285.344 91.6332 284.7 102.215 284.738C123.872 284.776 145.566 284.738 167.185 283.334C187.514 282.007 207.881 282.462 228.248 282.462C249.146 282.462 269.855 282.613 290.601 285.307C299.628 286.482 308.844 286.9 317.909 287.696C326.026 288.417 333.839 287.696 341.955 287.013C348.744 286.444 355.495 284.738 361.677 281.893C366.57 279.617 375.293 272.6 376.773 267.176C380.983 252.042 317.53 252.383 307.782 252.421C296.897 252.459 285.898 252.8 275.013 252.421C270.424 252.269 265.91 251.397 261.435 250.448C256.997 249.5 252.484 249.728 247.971 249.348C229.121 247.679 210.271 247.945 191.383 247.945C185.276 247.907 179.094 247.869 172.95 247.869Z" fill="#F7F7F7"/>
<path d="M150.345 119.968C149.397 121.675 147.955 123.078 146.742 124.596C145.566 126.113 145.073 127.516 144.656 129.299C144.352 130.627 143.821 131.613 142.19 131.727C139.156 131.916 140.18 129.527 139.649 127.668C139.005 125.544 137.487 123.799 136.463 121.865C133.505 116.289 135.25 105.82 142.418 104.075C150.269 102.179 153.227 114.734 150.345 119.968Z" fill="#EACDB0"/>
<path d="M138.549 113.9C137.677 113.862 136.729 113.862 136.046 114.393C135.363 114.924 135.326 116.213 136.16 116.403C136.918 116.593 137.98 115.872 138.398 116.479C138.663 116.858 138.36 117.313 138.132 117.693C137.222 119.172 136.843 120.955 137.108 122.586C136.767 122.851 136.312 122.51 136.046 122.206C134.795 120.575 133.846 118.717 133.277 116.782C132.974 117.238 132.519 117.579 132.026 117.806C132.367 117.124 132.253 116.327 132.14 115.569C131.684 112.838 131.495 109.613 133.543 107.565C134.643 106.465 136.236 105.896 137.791 105.745C139.346 105.593 140.901 105.745 142.456 105.934C143.101 106.01 143.935 106.2 144.049 106.845C142.532 107.338 140.939 108.362 140.142 109.689C139.801 110.069 138.663 113.9 138.549 113.9Z" fill="#3B455A"/>
<path d="M142.115 107.641C142.077 107.679 142.001 107.717 141.963 107.755C141.28 108.21 140.598 108.779 139.801 108.93C138.625 109.158 137.412 108.513 136.274 108.817C134.984 109.158 134.036 110.599 133.05 111.434C131.419 112.799 129.447 113.748 127.399 114.203C126.337 114.43 125.275 114.544 124.175 114.544C123.682 114.544 123.037 114.582 122.544 114.43C121.937 114.203 121.975 113.937 122.658 113.748C124.858 113.217 125.73 110.258 125.73 108.286C125.73 106.693 125.313 105.024 125.995 103.62C126.526 102.558 127.551 102.027 128.537 101.458C129.637 100.851 130.736 101.117 131.95 100.851C133.202 100.586 134.302 99.6753 135.591 99.5236C136.957 99.3719 138.246 100.055 139.536 100.396C140.636 100.699 141.773 100.775 142.873 100.586C143.859 100.434 144.845 100.131 145.87 100.206C147.349 100.32 148.638 101.344 149.435 102.634C150.535 104.417 151.104 107.413 150.497 109.613C150.573 109.272 149.511 107.906 149.283 107.641C148.828 107.034 148.259 106.465 147.462 106.313C145.756 106.01 143.632 106.73 142.115 107.641Z" fill="#3B455A"/>
<path d="M195.023 243.697C194.568 243.394 194.151 243.091 193.696 242.787L182.849 264.294L186.49 265.963L199.537 246.77C198.02 245.746 196.503 244.722 195.023 243.697Z" fill="#EBCEB1"/>
<path d="M186.717 265.28L190.017 270.439L188.386 272.449L180.687 266.835L182.849 263.839L186.717 265.28Z" fill="#3B455A"/>
<path d="M220.17 245.366C219.639 245.252 219.108 245.176 218.615 245.062L217.515 269.11L221.497 269.148L225.555 246.314C223.735 246.049 221.952 245.707 220.17 245.366Z" fill="#EBCEB1"/>
<path d="M221.384 268.466L226.504 271.842L225.859 274.307L216.529 272.335L217.287 268.731L221.384 268.466Z" fill="#3B455A"/>
<path d="M233.027 185.208L197.83 179.974L194.644 193.818L192.596 229.018L185.238 254.735L195.137 259.059L205.757 237.969L212.812 212.632L214.556 209.939L216.187 231.901L215.884 258.642L226.579 260.159L231.282 237.021L231.434 202.732V202.656L233.027 185.208Z" fill="#3B455A"/>
<path d="M249.526 181.529C250.625 182.894 251.915 183.994 253.811 184.298C254.115 184.336 254.418 184.374 254.722 184.222C254.949 184.108 255.139 183.881 255.291 183.653C255.897 182.819 256.352 181.908 256.732 180.96C256.846 180.694 256.921 180.391 256.846 180.126C256.77 179.974 256.656 179.822 256.542 179.708C256.163 179.367 255.784 178.988 255.404 178.684C255.404 178.912 255.366 179.139 255.253 179.329C255.139 179.519 254.949 179.708 254.722 179.67C254.608 179.67 254.494 179.594 254.418 179.557C252.901 178.532 256.239 177.812 254.57 176.939C254.266 176.788 253.925 176.788 253.622 176.75C252.674 176.674 251.725 176.446 250.815 176.067C250.056 175.764 249.715 175.232 249.032 175.726C248.35 176.257 247.743 177.357 247.212 178.039C247.97 179.291 248.691 180.467 249.526 181.529Z" fill="#EBCEB1"/>
<path d="M246.795 178.191L250.132 174.626L236.061 160.743L230.638 139.767C229.803 136.467 226.579 134.419 223.242 134.988C219.259 135.671 216.87 139.805 218.273 143.636L226.048 164.953L246.795 178.191Z" fill="#3B455A"/>
<path d="M102.783 179.254L102.67 178.306C102.67 178.192 98.9147 177.623 98.5355 177.471C96.5632 176.523 94.7807 174.133 93.2256 172.616C92.7326 172.123 92.2395 171.668 91.7085 171.175C90.7224 172.806 89.6984 174.437 88.6743 176.03L88.7122 176.068C90.7603 177.32 93.3773 178.04 95.2737 179.444C97.0942 180.771 98.3458 183.047 99.9388 184.64L103.466 183.464L104.187 180.354L101.418 179.861L101.835 179.33L102.783 179.254Z" fill="#EACDB0"/>
<path d="M65.6146 141.133L74.831 167.799L94.8567 180.467L97.4358 176.067L81.5821 160.061C79.6098 158.05 79.9891 147.961 79.6098 145.192C78.6237 137.568 77.6376 130.968 67.8523 132.334C63.3768 132.902 65.2732 137.72 65.6146 141.133Z" fill="white"/>
<path d="M59.622 236.946L50.4056 248.78C46.537 254.204 41.6823 258.907 37.8137 264.369C36.9413 265.621 36.2586 267.138 35.045 268.124C33.8692 269.073 32.7314 268.58 32.2383 267.252C31.5556 265.469 33.1865 263.762 33.983 262.207C39.4446 252.004 43.8821 241.459 49.0023 231.028C49.0782 230.877 49.154 230.725 49.3057 230.725C49.4195 230.687 49.5333 230.763 49.6471 230.839C50.6332 231.408 59.4324 237.211 59.622 236.946Z" fill="#EACDB0"/>
<path d="M32.7695 264.445L30.418 265.735L31.3282 271.993L34.5141 274.952L37.0932 274.118L35.9175 266.456L32.7695 264.445Z" fill="#3B455A"/>
<path d="M41.4168 189.343L42.2892 201.139L45.3234 232.053L32.959 261.449L38.8378 263.952L64.5526 232.091L66.7904 187.257C66.7524 187.295 41.2272 190.253 41.4168 189.343Z" fill="#3B455A"/>
<path d="M72.29 231.104L73.2382 246.087C73.352 250.259 73.9209 254.356 74.3761 258.49C74.7933 262.321 74.2243 266.342 76.1966 269.794C76.8413 270.894 78.093 271.614 78.9274 270.287C79.6101 269.263 79.1929 267.556 79.3066 266.38C80.2169 257.618 82.265 249.046 83.0994 240.284C83.9717 231.142 80.4445 231.522 72.29 231.104Z" fill="#EACDB0"/>
<path d="M74.8691 267.328L74.0347 269.87L78.9653 273.814L83.3269 273.776L84.6165 271.425L78.5481 266.646L74.8691 267.328Z" fill="#3B455A"/>
<path d="M61.0634 187.332L73.7312 263.762L82.2649 264.255L84.3889 220.066L79.61 181.415L60.3428 182.325L61.0634 187.332Z" fill="#3B455A"/>
<path d="M134.264 90.458V93.3028C134.264 94.2131 134.984 94.9718 135.895 94.9718H143.177C144.087 94.9718 144.808 94.2131 144.808 93.3028V90.458H134.264Z" fill="#A5A4A4"/>
<path d="M157.21 52.2999C157.21 42.2862 149.283 34.207 139.536 34.207C129.788 34.207 121.861 42.3242 121.861 52.2999C121.861 55.8654 122.847 59.1653 124.592 61.9722C129.523 70.4307 130.661 77.4858 130.661 77.4858H139.536H148.411C148.411 77.4858 149.548 70.4307 154.479 61.9722C156.224 59.1653 157.21 55.8654 157.21 52.2999Z" fill="#587BC9"/>
<path d="M130.433 77.4863V89.5482C130.433 90.0413 130.812 90.4586 131.305 90.4586H147.766C148.259 90.4586 148.638 90.0413 148.638 89.5482V77.4863H130.433Z" fill="#DBDAD9"/>
<path d="M156.906 48.9238C152.431 57.9134 143.707 71.7959 130.66 77.4476C130.66 77.4855 130.66 77.4855 130.66 77.4855H139.535H148.41C148.41 77.4855 149.548 70.4304 154.479 61.9719C156.185 59.1651 157.209 55.8651 157.209 52.2996C157.209 51.1238 157.096 50.0238 156.906 48.9238Z" fill="#3762AF"/>
<path opacity="0.73" d="M124.782 53.7796C124.782 45.0556 131.685 37.9626 140.218 37.9626C145.187 37.9626 149.624 40.3901 152.431 44.1453C149.776 39.4039 144.77 36.2178 139.042 36.2178C130.509 36.2178 123.606 43.3108 123.606 52.0348C123.606 55.6761 124.782 59.014 126.792 61.6692C125.502 59.3554 124.782 56.6623 124.782 53.7796Z" fill="#F7F7F7"/>
<path d="M136.122 77.4858L133.96 54.3102L136.957 56.8516L139.536 52.6034L142.191 56.6999L145.111 54.2723L142.987 77.4858H143.897L146.211 52.1482L142.38 55.3344L139.536 50.8965L136.729 55.4481L132.86 52.1482L135.212 77.4858H136.122Z" fill="#F6F7F7"/>
<path d="M134.984 75.1717L135.212 77.4854H136.122L135.857 74.6406C135.553 74.8303 135.288 74.982 134.984 75.1717Z" fill="#EDECED"/>
<path d="M143.859 67.9273L142.987 77.4858H143.897L144.883 66.8652C144.542 67.2066 144.2 67.5859 143.859 67.9273Z" fill="#EDECED"/>
<path d="M148.638 80.4824H130.433V82.7203H148.638V80.4824Z" fill="#C1C1C1"/>
<path d="M148.638 85.2617H130.433V87.4996H148.638V85.2617Z" fill="#C1C1C1"/>
<path d="M140.408 85.2621H148.638V82.7207H143.556C142.494 83.669 141.47 84.5034 140.408 85.2621Z" fill="#96928D"/>
<path d="M148.638 80.4828V77.4863H148.335C147.5 78.5863 146.666 79.5725 145.793 80.4828H148.638Z" fill="#96928D"/>
<path d="M131.305 90.4584H147.766C148.259 90.4584 148.638 90.0412 148.638 89.5481V87.4619H136.767C134.377 88.7136 132.177 89.3964 130.471 89.7757C130.584 90.1929 130.926 90.4584 131.305 90.4584Z" fill="#96928D"/>
<path d="M143.556 82.7203H148.638V80.4824H145.831C145.073 81.279 144.314 82.0376 143.556 82.7203Z" fill="#A5A4A4"/>
<path d="M136.767 87.4615H148.638V85.2236H140.408C139.156 86.134 137.942 86.8546 136.767 87.4615Z" fill="#A5A4A4"/>
<path d="M144.807 92.2021C142.759 94.2125 138.815 94.8573 137.525 95.009H143.177C144.087 95.009 144.807 94.2504 144.807 93.3401V92.2021Z" fill="#A09F9F"/>
<path d="M183.607 180.087C183.607 179.973 183.569 179.859 183.531 179.746C183.266 178.722 182.204 178.494 181.711 177.659C181.483 177.28 181.673 176.028 180.99 176.142C180.725 176.18 179.852 176.256 178.98 176.408C177.69 176.597 176.553 175.839 175.491 175.27C174.087 174.511 172.684 173.715 171.243 172.956C170.029 172.273 168.777 171.591 167.678 170.718C165.023 168.632 163.581 165.787 161.875 162.98C160.054 160.022 158.196 156.911 155.958 154.256C155.161 153.308 154.251 152.398 153.113 151.98C150.269 150.843 148.562 153.156 149.131 155.849C149.359 156.987 149.852 158.011 150.383 159.036C151.824 161.767 153.531 164.308 155.503 166.698C156.413 167.798 157.399 168.86 158.347 169.922C160.851 172.653 163.43 174.739 166.616 176.635C168.171 177.394 169.801 178.001 171.432 178.608C172.418 178.987 174.808 179.404 175.035 180.618C175.073 180.808 175.073 181.035 175.111 181.225C175.187 181.453 175.339 181.604 175.491 181.794C176.06 182.401 176.704 183.008 177.387 183.463C178.639 184.297 180.8 183.387 182.09 182.97C182.393 182.856 182.735 182.742 182.962 182.515C183.342 182.135 183.417 181.566 183.493 181.035C183.569 180.732 183.607 180.39 183.607 180.087Z" fill="#EACDB0"/>
<path d="M148.865 163.664C152.203 167.798 156.148 171.439 160.244 174.36C161.837 172.881 163.43 171.402 165.061 169.922C165.288 169.733 165.516 169.505 165.554 169.202C165.592 168.974 165.478 168.708 165.364 168.519C163.923 165.712 162.14 162.981 161.268 159.909C160.661 157.747 160.282 155.622 159.561 153.46C158.423 149.933 157.399 146.367 156.185 142.84C155.086 139.692 153.948 136.43 151.634 134.04C146.704 128.919 138.018 132.333 138.549 139.692C139.156 148.378 143.214 156.722 148.865 163.664Z" fill="#587BC9"/>
<path d="M117.31 267.252C118.22 267.858 119.244 268.162 120.193 268.655C126.147 259.855 131.04 249.841 136.198 240.511C133.809 239.221 131.381 237.931 128.992 236.642C127.664 242.483 125.768 248.21 123.378 253.71C122.999 254.621 117.158 267.176 117.31 267.252Z" fill="#EACDB0"/>
<path d="M121.558 267.062C122.202 267.29 122.392 267.783 122.544 268.352C122.658 268.693 122.62 269.073 122.809 269.376C122.999 269.679 123.227 269.869 123.53 270.097C125.123 271.273 129.029 273.548 125.275 275.104C121.861 276.507 117.499 272.486 115.034 270.059C114.882 269.907 114.693 269.755 114.655 269.528C114.617 269.3 114.655 269.035 114.693 268.769C115.11 267.366 115.565 265.583 117.348 266C118.106 266.152 118.448 266.949 119.244 267.1C119.889 267.29 120.913 266.835 121.558 267.062Z" fill="#3B455A"/>
<path d="M114.731 204.022C115.565 207.739 117.765 210.925 119.851 213.997C121.899 216.994 123.416 220.066 124.781 223.442C126.185 226.856 125.957 230.725 125.54 234.404C124.668 242.028 123.037 249.538 120.685 256.859C123.682 258.224 126.64 259.59 129.636 260.918C130.167 261.145 133.277 257.542 133.694 257.087C135.06 255.531 136.311 253.862 137.335 252.042C139.346 248.628 140.939 244.721 142.569 241.118C146.324 232.773 147.879 223.442 147.007 214.339C146.438 208.422 144.883 202.656 143.328 196.929C142.569 194.084 142.001 191.049 140.901 188.356C140.18 186.574 139.649 183.843 138.056 182.629C136.615 181.529 134.984 181.339 133.012 181.415C127.778 181.681 120.306 181.074 116.627 185.55C112.569 190.405 113.479 198.522 114.731 204.022Z" fill="#3B455A"/>
<path d="M150.648 270.779C151.748 270.893 152.81 270.742 153.872 270.742C155.351 260.235 155.313 249.083 155.844 238.425C153.113 238.349 150.383 238.235 147.652 238.159C149.055 244 149.89 249.956 150.155 255.949C150.193 256.935 150.496 270.779 150.648 270.779Z" fill="#EACDB0"/>
<path d="M154.403 268.769C155.085 268.694 155.465 269.035 155.844 269.49C156.072 269.756 156.223 270.097 156.527 270.287C156.83 270.476 157.134 270.552 157.513 270.628C159.447 271.007 163.96 271.311 161.268 274.383C158.84 277.152 153.151 275.483 149.851 274.383C149.624 274.307 149.396 274.269 149.245 274.08C149.093 273.89 149.017 273.624 148.979 273.397C148.714 271.956 148.334 270.173 150.117 269.756C150.875 269.566 151.52 270.097 152.317 269.907C152.961 269.68 153.72 268.807 154.403 268.769Z" fill="#3B455A"/>
<path d="M138.928 209.901C140.749 216.312 142.266 222.76 144.2 229.132C146.666 237.211 147.955 245.67 148.031 254.128C148.069 257.542 147.917 261.032 148.714 264.37C151.71 263.99 154.668 263.611 157.665 263.232C160.509 250.639 162.975 237.704 161.988 224.77C161.04 211.874 157.437 199.357 153.682 187.067C153.151 185.36 152.658 183.691 152.127 181.985C151.824 180.96 151.482 179.898 150.724 179.14C149.927 178.343 148.828 178.002 147.728 177.736C143.745 176.864 139.497 177.091 135.629 178.457C134.87 178.723 134.112 179.064 133.619 179.671C132.86 180.581 132.86 181.947 132.936 183.122C133.657 192.34 136.425 201.102 138.928 209.901Z" fill="#3B455A"/>
<path d="M129.371 132.939C128.195 133.774 127.133 134.684 126.185 135.708C123.075 139.084 120.572 143.029 118.789 147.239C114.693 156.911 113.897 167.532 113.176 177.925C112.948 181.377 112.683 184.866 112.455 188.318C112.228 191.732 112.455 192.49 116.059 192.339C122.734 192.035 129.75 191.201 135.933 188.621C138.891 187.408 141.698 185.777 144.77 184.904C149.245 183.615 153.645 184.715 158.044 183.994C157.172 180.466 155.769 177.204 155.238 173.563C154.707 169.922 154.593 166.204 154.631 162.525C154.631 157.329 154.441 152.17 154.327 146.974C154.252 142.953 154.252 138.212 151.786 134.798C150.952 133.66 149.776 132.598 148.487 132.029C147.538 131.612 145.756 131.346 145.187 130.322C145.149 130.246 145.149 130.133 145.111 130.019C145.073 128.729 145.49 127.553 144.239 127.098C143.556 126.833 142.532 126.87 141.811 126.833C140.787 126.757 138.132 126.529 137.867 127.97C137.791 128.35 137.791 128.767 137.639 129.146C137.601 129.222 137.563 129.336 137.488 129.374C137.374 129.45 137.26 129.488 137.146 129.526C134.453 130.057 131.723 131.308 129.371 132.939Z" fill="#587BC9"/>
<path d="M101.987 183.616C102.101 183.578 102.215 183.54 102.291 183.502C103.239 183.009 103.277 181.947 103.959 181.302C104.263 180.999 105.552 180.961 105.287 180.316C105.173 180.088 104.946 179.216 104.642 178.42C104.187 177.206 104.718 175.954 105.059 174.778C105.552 173.223 106.008 171.706 106.501 170.151C106.918 168.823 107.335 167.458 107.98 166.206C109.497 163.171 112 161.199 114.39 158.961C116.931 156.572 119.624 154.144 121.785 151.451C122.544 150.503 123.265 149.441 123.454 148.227C123.985 145.192 121.406 144.017 118.903 145.079C117.841 145.534 116.931 146.216 116.058 146.937C113.669 148.91 111.507 151.072 109.573 153.499C108.662 154.599 107.828 155.775 106.994 156.951C104.794 159.947 103.277 162.906 102.025 166.396C101.608 168.064 101.342 169.809 101.039 171.516C100.849 172.578 100.925 174.968 99.7874 175.423C99.5978 175.499 99.4082 175.537 99.2185 175.613C99.0289 175.726 98.8772 175.916 98.7255 176.106C98.2324 176.789 97.7773 177.509 97.4739 178.306C96.9049 179.709 98.2324 181.644 98.8772 182.819C99.0289 183.123 99.2185 183.388 99.484 183.578C99.9391 183.882 100.508 183.844 101.039 183.806C101.342 183.73 101.684 183.73 101.987 183.616Z" fill="#EACDB0"/>
<path d="M112.114 146.785C111.393 147.544 110.673 148.302 110.028 149.099C107.563 152.057 105.628 155.471 104.339 159.15C105.856 161.047 107.563 162.83 109.421 164.423C116.817 158.392 124.82 154.182 132.974 149.364C135.857 147.658 138.777 145.875 140.673 143.144C144.163 138.099 140.598 130.778 134.264 131.158C126.64 131.575 119.7 139.427 114.541 144.395C113.783 145.154 112.948 145.951 112.114 146.785Z" fill="#587BC9"/>
<path d="M82.1511 163.739C81.9994 158.581 81.4684 153.422 80.4823 148.453C79.1927 142.005 77.486 135.405 73.4657 130.171C69.4453 124.974 62.5425 121.447 56.2086 123.229C52.34 124.329 49.1541 127.212 46.9922 130.626C44.8303 134.04 43.6167 137.947 42.5926 141.815C39.6722 152.891 39.4446 163.967 38.2689 175.308C37.7758 180.239 36.4483 185.511 37.3965 190.48C37.3586 190.367 46.1199 189.949 47.1819 189.911C52.4538 189.76 57.574 190.291 62.8459 190.556C67.0938 190.784 70.3935 189.684 74.6035 191.542C76.0068 192.187 77.3343 193.06 78.8514 193.363C79.1927 193.439 79.572 193.477 79.8375 193.249C80.1409 193.022 80.2168 192.604 80.2926 192.225C81.5442 182.97 82.4545 173.26 82.1511 163.739Z" fill="white"/>
<path d="M67.094 103.962C68.0042 105.555 68.4214 107.413 68.4973 109.234C68.5352 109.727 68.5352 110.296 68.9524 110.561C69.3696 110.865 68.9903 111.548 69.3317 111.13C69.673 110.713 70.735 109.272 70.8109 108.779C70.9246 107.565 70.9246 106.313 70.8109 105.099C70.6971 104.037 70.5074 102.937 69.7868 102.103C69.3696 101.61 68.8386 101.269 68.2697 100.965C67.4732 100.472 66.6768 100.017 65.7665 99.8271C64.2115 99.5237 63.2633 100.093 64.6287 101.193C65.6527 101.951 66.4871 102.862 67.094 103.962Z" fill="#3B455A"/>
<path d="M57.3464 124.785C57.3464 125.544 57.1947 126.303 57.8774 126.91C58.1808 127.175 58.6359 127.289 59.0531 127.365C60.153 127.554 61.2529 127.479 62.3149 127.137C62.7321 127.023 63.1872 126.834 63.4907 126.53C63.8699 126.151 63.9079 125.81 63.9079 125.316C63.9458 124.748 64.0596 124.179 64.1354 123.61C64.2871 122.358 64.363 121.068 64.4009 119.817C66.2594 119.513 68.4592 118.906 69.1039 116.934C69.2936 116.327 69.3315 115.644 69.3315 114.999C69.3694 112.306 69.3694 109.575 69.4074 106.882C69.4074 105.934 69.4074 104.986 69.1039 104.113C68.535 102.596 67.1317 101.686 65.7284 101.117C62.1632 99.6375 57.9912 99.7134 54.6915 101.762C53.8191 102.331 52.9847 103.013 52.4917 104C51.6952 105.479 51.809 107.337 51.9227 109.044C52.0365 110.637 52.1503 112.193 52.2641 113.786C52.3779 115.606 52.6434 117.692 54.0846 118.679C54.8432 119.172 55.7914 119.286 56.4361 119.93C57.574 121.068 57.005 122.813 57.3464 124.216C57.3085 124.368 57.3464 124.596 57.3464 124.785Z" fill="#EACDB0"/>
<path d="M69.9765 113.937C69.9386 113.444 69.749 111.965 68.9904 112.875C68.8008 113.103 68.7249 113.444 68.7249 113.785C68.7249 114.089 68.7249 114.43 68.6111 114.734C68.3836 115.416 67.625 115.758 66.9044 115.72C66.6389 115.72 66.3355 115.682 66.1079 115.53C65.8804 115.378 65.6907 115.189 65.5011 114.961C65.0459 114.468 64.6287 113.937 64.1736 113.444C63.4151 112.572 61.9359 112.951 60.9118 113.065C59.7361 113.216 58.5603 113.558 57.6121 114.354C57.4984 114.43 57.4225 114.506 57.3087 114.582C57.0812 114.772 56.8536 114.961 56.5881 115.113C55.6778 115.568 54.54 115.075 53.9332 114.278C53.6298 113.899 53.3643 113.406 52.9091 113.33C52.5678 113.292 52.2264 113.52 52.0368 113.861C51.8472 114.203 51.8092 114.582 51.7713 114.961C51.6955 116.365 51.8851 117.806 52.454 119.058C53.7435 121.751 56.2847 122.092 58.8638 122.016C59.8878 121.978 60.8739 121.978 61.898 121.94C63.7564 121.902 65.6907 121.827 67.2457 120.765C68.6111 119.816 69.4455 118.223 69.7869 116.516C69.9765 115.72 70.0145 114.809 69.9765 113.937ZM63.2254 117.73C62.2393 118.375 61.1773 118.413 60.1154 118.071C59.6602 117.92 59.8499 117.161 60.305 117.313C61.2153 117.578 62.0497 117.578 62.8461 117.047C63.2634 116.744 63.6047 117.427 63.2254 117.73Z" fill="#3B455A"/>
<path d="M70.3938 99.2583C70.5834 98.6135 70.6972 97.9307 70.773 97.248C70.1662 97.4756 69.4835 97.5135 68.8008 97.3997C68.8008 97.0204 68.8008 96.6032 68.8008 96.2239C68.8008 95.8825 64.4391 95.6549 64.0598 95.617C60.7222 95.3515 57.688 95.0859 54.6917 96.8687C52.1127 98.3859 50.4818 100.662 50.0646 103.62C49.6853 106.465 50.5956 110.144 52.2264 112.496C52.2264 111.737 51.7713 109.955 51.961 109.234C52.0747 108.513 52.3023 107.831 52.6816 107.186C53.3643 105.896 54.4262 104.834 55.6399 104.075C57.6122 102.862 59.8499 102.217 62.1255 101.913C64.2116 101.61 66.7148 101.382 68.8008 101.913C69.7869 102.179 69.9386 102.444 70.5455 101.42C70.6592 101.231 71.4937 99.1824 71.4178 99.1824C71.0765 99.2583 70.7351 99.2583 70.3938 99.2583Z" fill="#3B455A"/>
<path d="M201.282 137.416C203.481 134.571 206.592 133.016 210.157 130.778C210.764 130.399 211.408 129.981 212.091 129.792C212.584 129.64 213.077 129.602 213.57 129.602C216.604 129.413 222.369 128.957 224.948 130.816C227.679 132.75 228.172 137.378 228.741 140.374C231.662 155.471 232.306 174.929 232.875 190.367C231.017 189.798 229.196 189.077 227.414 188.394C218.539 187.484 208.071 187.826 199.878 188.698C197.299 189.494 194.72 190.405 192.141 191.315C192.786 191.088 192.786 178.988 192.862 177.622C193.203 172.767 193.62 167.874 194.265 163.057C195.251 155.623 196.579 148.188 199.196 141.133C199.765 139.654 200.447 138.44 201.282 137.416Z" fill="#3B455A"/>
<path d="M66.8281 189.57H19.0015V220.597H66.8281V189.57Z" fill="#587BC9"/>
<path d="M52.5675 189.229H49.9505V183.956H35.9173V188.698H33.3003V183.236C33.3003 182.098 34.1726 181.188 35.2346 181.188H50.6332C51.6952 181.188 52.5675 182.098 52.5675 183.236V189.229Z" fill="#184462"/>
<path opacity="0.13" d="M66.8281 196.095L45.4749 199.774V200.115L41.758 201.481L40.3926 201.974L42.0993 202.846V203.795C42.0993 204.06 42.289 204.288 42.5544 204.288H43.8061C44.0716 204.288 44.2612 204.06 44.2612 203.795V202.846H46.4231L46.461 200.608L66.7902 198.067V196.095H66.8281Z" fill="black"/>
<path d="M66.8281 196.89L43.6165 200.645L19.0015 196.89V187.977H66.8281V196.89Z" fill="#3B455A"/>
<path d="M46.1954 199.28H39.7098L39.6719 202.77H41.8337V203.718C41.8337 203.984 42.0234 204.211 42.2889 204.211H43.5405C43.806 204.211 43.9956 203.984 43.9956 203.718V202.77H46.1575L46.1954 199.28Z" fill="#184462"/>
<path d="M41.0758 183.995C41.0758 183.995 41.7206 183.312 41.7206 183.274C41.7965 183.198 39.7484 180.012 39.6346 179.595C39.0657 177.509 39.6725 174.55 39.7863 172.388C39.8242 171.705 39.8621 171.022 39.8621 170.302C37.9658 170.643 36.1073 170.947 34.2109 171.212C34.2109 171.25 34.2109 171.25 34.2109 171.288C34.6281 173.64 35.8039 176.105 35.9935 178.457C36.1832 180.695 35.2729 183.122 35.1212 185.398L38.3071 187.295L41.1138 185.815L39.6725 183.388L40.3552 183.35L41.0758 183.995Z" fill="#EACDB0"/>
<path d="M45.4375 130.929L31.4043 155.395L35.0074 178.798L40.0518 177.849L41.7206 155.395L58.9397 135.936C60.9499 133.66 60.7602 130.133 58.4846 128.123L56.8916 126.681C54.6539 124.671 51.1646 124.823 49.1165 127.023L45.4375 130.929Z" fill="white"/>
<path d="M177.767 177.129C176.781 178.571 176.136 180.164 176.401 182.06C176.439 182.364 176.515 182.667 176.743 182.895C176.932 183.084 177.198 183.198 177.425 183.274C178.411 183.578 179.398 183.767 180.422 183.843C180.725 183.843 181.028 183.843 181.256 183.691C181.408 183.578 181.484 183.426 181.559 183.274C181.787 182.819 182.015 182.364 182.204 181.871C181.977 181.909 181.749 181.984 181.522 181.947C181.294 181.909 181.066 181.757 181.028 181.567C180.991 181.453 181.028 181.34 181.066 181.226C181.559 179.481 183.304 182.44 183.608 180.581C183.645 180.278 183.57 179.936 183.494 179.633C183.266 178.685 183.19 177.736 183.304 176.75C183.38 175.954 183.759 175.422 183.077 174.929C182.356 174.436 181.142 174.209 180.308 173.905C179.435 175.005 178.487 176.029 177.767 177.129Z" fill="#EBCEB1"/>
<path d="M180.118 173.526L184.518 175.65L193.507 158.05L211.864 146.557C214.746 144.774 215.732 141.057 214.177 138.06C212.319 134.457 207.654 133.433 204.43 135.898L186.49 149.743L180.118 173.526Z" fill="#3B455A"/>
<path d="M308.503 129.981L291.511 123.229C291.511 123.229 285.481 138.25 278.616 162.298C271.751 186.346 281.802 216.956 281.802 216.956C281.802 216.956 320.753 207.701 328.528 206.184L318.781 162.222L308.503 129.981Z" fill="#3B455A"/>
<path d="M333.231 136.43L337.251 132.03L335.545 130.096L332.207 132.485L331.79 131.196L328.793 135.406L330.273 137.644L333.231 136.43Z" fill="#EBCEB1"/>
<path d="M298.566 124.747L308.768 143.902L330.007 132.561L332.397 137.378L308.047 158.278L284.912 133.888L298.566 124.747Z" fill="#3B455A"/>
<path d="M293.862 179.405L285.329 197.46L283.091 231.18L265.568 259.287L271.447 263.611L300.158 238.88L307.44 213.163L314.76 185.322L293.862 179.405Z" fill="#3B455A"/>
<path d="M318.705 189.646L323.901 223.973L320.488 269.034L315.33 269.869L304.937 228.183L290.752 187.104L318.705 189.646Z" fill="#3B455A"/>
<path d="M270.879 262.549L273.344 270.097L270.689 272.069L262.838 262.397L266.517 259.4L270.879 262.549Z" fill="#3B455A"/>
<path d="M320.222 267.935L327.543 271.007L327.277 274.307L314.799 273.966L314.951 269.224L320.222 267.935Z" fill="#3B455A"/>
<path d="M309.071 106.389C304.444 106.73 300.12 102.937 295.569 103.885C292.611 104.492 290.259 107.109 289.349 110.106C288.932 111.471 288.78 112.988 289.197 114.354C289.463 115.226 289.956 116.061 290.525 116.744C291.283 117.692 292.269 118.488 293.294 119.095C292.725 120.043 292.042 120.916 291.321 121.712C293.445 122.547 295.607 123.343 297.731 124.178C298.186 122.964 298.679 121.712 299.134 120.499C299.779 120.461 300.424 120.385 301.031 120.195C304.824 119.209 307.972 115.909 308.806 111.964C309.223 110.144 309.147 108.285 309.071 106.389Z" fill="#EBCEB1"/>
<path d="M307.896 107.792L293.597 106.085L290.828 117.009C287.453 114.316 283.963 110.523 284.115 105.744C284.153 104.682 284.494 103.696 284.874 102.709C285.481 101.04 286.087 99.3336 286.694 97.6646C288.06 93.8336 288.78 95.4646 291.928 95.7301C294.014 95.9198 296.214 95.7302 298.338 95.6922C300.614 95.6543 302.889 95.6543 305.165 95.5405C307.554 95.4267 308.578 93.4543 310.892 93.5681C311.84 93.606 312.826 93.7957 313.737 93.4543C314.685 93.075 315.367 92.1267 316.354 91.8612C317.264 91.6337 318.174 92.0509 318.971 92.4681C319.767 92.9233 320.601 93.4923 320.943 94.3647C321.094 94.8198 321.132 95.3129 321.094 95.806C320.867 103.999 315.633 106.958 309.64 110.978L307.896 107.792Z" fill="#3B455A"/>
<path d="M302.359 125.885L285.367 119.134C285.367 119.134 279.337 134.154 272.472 158.202C265.607 182.25 275.658 212.86 275.658 212.86C275.658 212.86 310.513 195.64 318.288 194.122L312.637 158.126L302.359 125.885Z" fill="white"/>
<path d="M272.168 158.694C279.033 134.646 285.064 119.626 285.064 119.626L302.055 126.378L302.093 126.453C301.714 127.44 301.335 128.426 300.993 129.412C299.666 133.357 298.642 137.377 298.035 141.512C296.973 148.719 296.859 156.153 297.087 163.436C297.314 170.415 298.035 177.394 299.286 184.298C300.917 193.401 303.534 202.277 306.91 210.849C291.094 214.073 272.472 217.866 272.472 217.866C272.472 217.866 265.303 182.742 272.168 158.694Z" fill="#3B455A"/>
<path d="M336.418 156.685C337.745 156.609 338.769 155.433 338.655 154.106L330.425 36.9385L325.57 37.2799L333.839 154.409C333.952 155.775 335.09 156.761 336.418 156.685Z" fill="#3B455A"/>
<path d="M334.294 85.9443C322.878 80.1409 313.775 79.3444 307.706 79.6099C292.573 80.2926 285.557 88.1443 266.365 91.3304C257.566 92.7718 250.246 92.5821 245.619 92.2028C243.874 85.4512 242.319 77.2582 241.523 67.9273C240.613 56.9653 238.527 45.3586 239.361 37.5828C243.874 38.2277 253.28 40.8069 261.511 39.7449C281.65 37.1656 289.198 27.4554 305.772 27.0382C311.575 26.8864 320.071 27.8347 330.577 33.3346C331.828 50.8585 333.08 68.4204 334.294 85.9443Z" fill="#305399"/>
<path d="M251.346 181.301C251.118 181.794 250.929 182.325 250.929 182.856C250.967 184.032 251.991 185.018 253.129 185.36C254.266 185.701 255.48 185.587 256.656 185.435C256.921 184.867 256.997 184.222 256.959 183.615C257.225 183.387 257.49 183.88 257.756 184.108C258.135 184.411 258.742 183.994 258.856 183.501C258.969 183.008 258.78 182.515 258.704 182.022C258.476 180.239 259.728 178.57 259.993 176.787C259.918 177.28 257.338 175.611 257.263 175.611C256.049 175.422 256.466 175.232 255.29 175.877C253.773 176.825 252.104 179.67 251.346 181.301Z" fill="#EBCEB1"/>
<path d="M285.102 119.626L262.838 147.353L254.342 176.787L259.766 179.405L270.044 158.277L291.853 135.974L285.102 119.626Z" fill="#3B455A"/>
<path d="M298.414 137.795C297.618 139.16 296.67 140.488 295.38 141.36C294.091 142.233 292.498 142.612 290.943 142.802C283.964 143.522 276.72 139.805 273.268 133.736C272.927 133.129 272.548 132.447 271.941 132.067C271.372 131.764 270.689 131.764 270.044 131.802C266.593 131.954 263.18 132.333 259.766 132.94C260.563 141.095 266.062 148.643 273.61 151.867C277.061 153.346 280.816 153.953 284.533 154.143C288.098 154.333 291.701 154.181 295.077 153.043C298.452 151.905 301.524 149.667 303.193 146.519C306.303 140.64 303.724 133.433 304.672 126.871C305.241 122.888 300.955 128.123 300.804 128.464C300.614 128.881 301.221 131.385 301.107 132.181C300.766 134.078 299.362 136.202 298.414 137.795Z" fill="#7DB5DB"/>
<path d="M209.588 135.33C208.109 137.947 207.957 141.436 209.323 144.812C210.65 148.074 212.205 147.316 214.936 149.554C210.309 152.816 210.043 162.564 209.929 168.215C209.816 172.615 210.119 177.053 210.764 181.415C210.953 182.743 210.991 186.574 212.129 187.37C213.229 188.167 216.605 187.256 218.046 187.446C219.373 178.495 220.701 169.581 221.308 160.553C221.421 159.036 221.497 157.481 221.08 156.002C220.663 154.522 220.321 150.009 218.88 149.516C223.318 146.064 223.735 142.954 223.697 137.34C223.697 135.861 223.583 134.305 222.635 133.168C221.535 131.84 219.639 131.574 217.894 131.423C213.912 131.043 211.067 132.712 209.588 135.33Z" fill="white"/>
<path d="M210.688 113.444C214.101 107.147 224.493 106.389 225.479 114.468C225.783 116.895 225.783 119.437 224.872 121.751C224 124.064 222.104 126.113 219.638 126.719H219.601C219.183 126.833 220.397 131.119 220.473 131.461C220.587 131.992 220.7 132.523 220.7 133.092C220.7 134.306 220.056 135.406 219.335 136.43C218.69 137.378 218.008 138.25 217.287 139.123C217.211 139.199 217.173 139.274 217.059 139.312C216.832 139.388 216.604 139.236 216.453 139.047C215.125 137.681 214.025 136.126 213.267 134.419C213.077 134.04 212.925 133.623 212.887 133.206C212.812 132.712 212.925 132.257 213.039 131.764C213.343 130.437 215.277 127.44 214.822 126.264C214.632 125.809 213.418 125.24 213.039 124.899C212.394 124.292 211.863 123.609 211.408 122.888C209.739 120.157 209.095 116.364 210.688 113.444Z" fill="#EACDB0"/>
<path d="M224.872 116.554C225.593 118.489 225.024 120.575 224.303 122.395C223.583 124.216 223.393 126.075 222.483 127.857C222.635 128.199 223.128 128.085 223.469 127.933C225.479 127.061 227.451 126.151 229.424 125.202C229.613 125.126 229.841 125.013 229.955 124.861C230.144 124.671 230.182 124.368 230.22 124.102C231.054 118.792 229.803 114.544 227.717 109.802C226.693 107.489 223.279 104.454 220.473 106.351C219.828 106.768 219.487 107.489 219.183 108.209C218.994 108.627 218.842 109.044 218.842 109.499C218.842 111.282 220.549 111.547 221.724 112.382C223.166 113.368 224.303 114.885 224.872 116.554Z" fill="#3B455A"/>
<path d="M211.674 117.313C211.332 118.83 211.294 120.613 211.408 122.13C211.446 122.661 212.167 124.027 212.129 124.368C211.977 125.354 209.398 127.175 208.639 127.896C205.795 125.468 202.95 123.078 200.144 120.651C199.916 120.461 199.688 120.272 199.613 120.006C199.537 119.778 199.575 119.513 199.613 119.247C200.599 114.316 202.95 110.182 205.947 106.161C208.943 102.141 214.177 99.4856 219.259 100.889C223.355 102.027 225.593 105.592 223.09 109.385C221.193 112.23 217.021 112.041 214.329 113.672C212.66 114.658 211.939 115.91 211.674 117.313Z" fill="#3B455A"/>
<path d="M61.1391 170.491C60.9116 171.629 60.684 172.843 60.8737 173.981C61.215 176.256 63.1114 177.925 64.856 179.405C67.2455 178.115 68.6109 175.384 69.0281 172.691C69.4453 169.998 69.0281 167.229 68.8005 164.536C67.8523 153.612 69.1798 141.891 63.7561 132.371C64.4009 132.143 65.0457 131.954 65.7284 131.726C66.0697 129.829 63.4527 128.729 61.6322 129.26C60.5323 129.602 59.0531 130.74 58.9014 131.991C58.6359 134.533 60.2668 132.978 61.1391 134.116C62.9976 136.619 62.6562 142.612 62.808 145.76C63.2631 154.067 62.6942 162.374 61.1391 170.491Z" fill="#587BC9"/>
</svg>
