<svg width="358" height="294" viewBox="0 0 358 294" fill="none" xmlns="http://www.w3.org/2000/svg">
<circle opacity="0.4" cx="173" cy="147" r="147" fill="#F0A744"/>
<g clip-path="url(#clip0)">
<path d="M228.882 258.29H106.107C105.213 258.29 104.481 257.559 104.481 256.665V255.772C104.481 254.878 105.213 254.147 106.107 254.147H228.882C229.777 254.147 230.509 254.878 230.509 255.772V256.665C230.427 257.559 229.777 258.29 228.882 258.29Z" fill="#D5ECE0"/>
<path d="M283.034 56.142C283.034 53.868 281.327 52 279.131 52H54.7207C52.6067 52 50.8179 53.868 50.8179 56.142V197.134H283.034V56.142Z" fill="#423A64"/>
<path d="M50.8179 195.996V216.787C50.8179 218.412 52.5253 219.711 54.7207 219.711H279.213C281.327 219.711 283.115 218.412 283.115 216.787V195.996H50.8179Z" fill="#FFF9F0"/>
<path d="M269.293 64.4258H63.1768V184.382H269.293V64.4258Z" fill="#7DD0E6"/>
<path opacity="0.5" d="M269.374 63.6953L63.1768 183.733H269.374V63.6953Z" fill="#FFFAF0"/>
<path d="M172.292 207.854V254.634H131.801L147.249 207.854H172.292Z" fill="#FFF9F0"/>
<path d="M160.177 207.854V254.634H200.75L185.301 207.854H160.177Z" fill="#FFF9F0"/>
<path d="M208.149 254.96H124.402C122.206 254.96 120.499 253.173 120.499 251.061C120.499 248.869 122.288 247.163 124.402 247.163H208.149C210.345 247.163 212.052 248.95 212.052 251.061C212.052 253.173 210.345 254.96 208.149 254.96Z" fill="#FFF9F0"/>
<path d="M171.886 202.818H160.584C159.202 202.818 158.063 203.955 158.063 205.336C158.063 206.717 159.202 207.854 160.584 207.854H171.886C173.268 207.854 174.406 206.717 174.406 205.336C174.406 203.955 173.268 202.818 171.886 202.818Z" fill="#D0D2D3"/>
<path d="M191.969 228.158H140.826L143.347 219.712H189.205L191.969 228.158Z" fill="#D0D2D3"/>
<path d="M136.354 121.034C147.805 121.034 157.087 111.761 157.087 100.323C157.087 88.8855 147.805 79.6133 136.354 79.6133C124.903 79.6133 115.62 88.8855 115.62 100.323C115.62 111.761 124.903 121.034 136.354 121.034Z" fill="#56C6D9"/>
<path d="M173.43 76.2021H99.1147V171.875H173.43V76.2021Z" fill="#FFFAF0"/>
<path d="M135.459 172.281H160.421V89.4404L135.459 172.281Z" fill="#D0D2D3"/>
<path d="M155.543 143.531H109.441C107.977 143.531 106.758 142.312 106.758 140.85V140.688C106.758 139.226 107.977 138.008 109.441 138.008H155.543C157.006 138.008 158.226 139.226 158.226 140.688V140.85C158.226 142.312 157.088 143.531 155.543 143.531Z" fill="#423A64"/>
<path d="M155.543 155.713H109.441C107.977 155.713 106.758 154.495 106.758 153.033V152.871C106.758 151.409 107.977 150.19 109.441 150.19H155.543C157.006 150.19 158.226 151.409 158.226 152.871V153.033C158.226 154.495 157.088 155.713 155.543 155.713Z" fill="#423A64"/>
<path d="M126.678 131.186C137.725 131.186 146.68 122.241 146.68 111.207C146.68 100.173 137.725 91.2275 126.678 91.2275C115.631 91.2275 106.676 100.173 106.676 111.207C106.676 122.241 115.631 131.186 126.678 131.186Z" fill="#FFCC05"/>
<path d="M121.312 97.0752C121.312 97.0752 111.636 99.1056 114.807 111.938C116.677 119.572 111.636 120.384 115.458 124.364C119.198 128.344 124.402 124.526 128.304 125.745C132.207 126.963 135.053 126.476 137.818 123.308C140.582 120.059 137.086 116.73 137.492 112.181C137.818 107.633 140.501 92.5271 121.312 97.0752Z" fill="#F58925"/>
<path d="M130.825 119.247V132.81H122.857V117.785L130.825 119.247Z" fill="#F2A887"/>
<path d="M122.857 125.257C122.857 125.257 126.922 128.993 130.744 128.262V119.247H122.857V125.257Z" fill="#E66E52"/>
<path d="M118.222 105.116C118.222 105.116 116.19 123.309 125.947 123.796C135.866 124.202 135.541 105.928 134.24 102.68C132.939 99.431 117.816 95.6138 118.222 105.116Z" fill="#F2A887"/>
<path d="M126.597 115.511C126.516 115.511 126.516 115.511 126.597 115.511C126.109 115.43 125.947 113.806 125.865 113.4C125.865 113.318 125.865 113.318 125.947 113.318C126.028 113.318 126.028 113.318 126.028 113.4C126.109 114.293 126.353 115.349 126.516 115.349C126.516 115.349 126.516 115.349 126.597 115.268C127.004 114.78 126.922 111.288 126.841 109.907C126.841 109.826 126.922 109.826 126.922 109.826C127.004 109.826 127.004 109.907 127.004 109.907C127.004 110.395 127.166 114.699 126.678 115.349C126.678 115.43 126.597 115.511 126.597 115.511Z" fill="#423F63"/>
<path d="M128.63 109.258C128.63 109.907 129.28 109.258 130.175 109.339C131.069 109.42 131.638 110.07 131.72 109.42C131.801 108.77 131.069 108.202 130.256 108.202C129.362 108.039 128.63 108.608 128.63 109.258Z" fill="#F58925"/>
<path d="M121.068 109.258C121.068 109.907 121.718 109.258 122.613 109.339C123.507 109.42 124.076 110.07 124.158 109.42C124.158 108.77 123.507 108.202 122.694 108.202C121.8 108.039 121.149 108.608 121.068 109.258Z" fill="#F58925"/>
<path d="M131.394 116.324C132.113 116.324 132.695 115.742 132.695 115.024C132.695 114.306 132.113 113.725 131.394 113.725C130.676 113.725 130.093 114.306 130.093 115.024C130.093 115.742 130.676 116.324 131.394 116.324Z" fill="#E66E52"/>
<path d="M121.312 116.324C122.031 116.324 122.613 115.742 122.613 115.024C122.613 114.306 122.031 113.725 121.312 113.725C120.594 113.725 120.011 114.306 120.011 115.024C120.011 115.742 120.594 116.324 121.312 116.324Z" fill="#E66E52"/>
<path d="M130.093 112.263C130.497 112.263 130.825 111.935 130.825 111.532C130.825 111.128 130.497 110.801 130.093 110.801C129.689 110.801 129.361 111.128 129.361 111.532C129.361 111.935 129.689 112.263 130.093 112.263Z" fill="#423A64"/>
<path d="M122.613 112.263C123.017 112.263 123.345 111.935 123.345 111.532C123.345 111.128 123.017 110.801 122.613 110.801C122.209 110.801 121.881 111.128 121.881 111.532C121.881 111.935 122.209 112.263 122.613 112.263Z" fill="#423A64"/>
<path d="M118.629 112.181C118.629 112.181 116.434 108.932 115.62 110.719C114.726 112.506 117.572 115.836 118.71 115.024C119.767 114.13 118.629 112.181 118.629 112.181Z" fill="#F2A887"/>
<path d="M118.222 114.211C118.141 114.211 118.141 114.13 118.141 114.13C118.222 113.074 117.978 112.262 117.572 111.937C117.165 111.612 116.596 111.694 116.596 111.694C116.515 111.694 116.515 111.694 116.434 111.612C116.352 111.531 116.434 111.531 116.515 111.45C116.515 111.45 117.165 111.288 117.653 111.694C118.141 112.1 118.385 112.912 118.304 114.049C118.385 114.13 118.304 114.211 118.222 114.211Z" fill="#423F63"/>
<path d="M117.816 113.561C117.734 113.561 117.734 113.561 117.734 113.48C117.246 112.099 117.49 111.775 117.572 111.693C117.572 111.693 117.653 111.693 117.734 111.693C117.734 111.693 117.734 111.775 117.734 111.856C117.734 111.856 117.572 112.181 117.978 113.399C117.978 113.48 117.897 113.48 117.816 113.561C117.897 113.48 117.816 113.561 117.816 113.561Z" fill="#423F63"/>
<path d="M134.158 112.588C134.158 112.588 136.029 109.745 136.76 111.369C137.492 112.913 135.053 115.836 134.077 115.105C133.101 114.375 134.158 112.588 134.158 112.588Z" fill="#F2A887"/>
<path d="M134.402 114.294C134.321 114.294 134.321 114.212 134.321 114.212C134.239 113.238 134.483 112.507 134.89 112.182C135.296 111.776 135.866 111.938 135.866 111.938C135.947 111.938 135.947 112.02 135.947 112.101C135.947 112.182 135.866 112.182 135.784 112.182C135.784 112.182 135.296 112.101 134.971 112.344C134.565 112.669 134.402 113.319 134.483 114.212C134.565 114.294 134.483 114.294 134.402 114.294Z" fill="#423F63"/>
<path d="M134.809 113.725C134.809 113.725 134.728 113.725 134.809 113.725C134.728 113.725 134.728 113.644 134.728 113.562C135.134 112.507 134.971 112.263 134.971 112.263C134.971 112.263 134.971 112.182 134.971 112.101C134.971 112.101 135.053 112.101 135.134 112.101C135.215 112.182 135.378 112.425 134.971 113.644C134.89 113.725 134.809 113.725 134.809 113.725Z" fill="#423F63"/>
<path d="M126.516 118.597C125.377 118.597 124.564 116.486 124.483 116.404C124.483 116.323 124.483 116.323 124.564 116.242C124.646 116.242 124.646 116.242 124.727 116.323C124.727 116.323 125.621 118.435 126.516 118.435C127.085 118.435 127.654 117.541 128.142 115.917C128.142 115.836 128.223 115.836 128.304 115.836C128.386 115.836 128.386 115.917 128.386 115.998C127.898 117.623 127.247 118.597 126.516 118.597Z" fill="#423F63"/>
<path d="M133.671 99.024C133.671 99.024 133.915 100.486 132.533 104.466C131.232 108.445 118.466 106.74 116.596 109.582C114.726 112.425 111.555 89.4405 133.671 99.024Z" fill="#F58925"/>
<path d="M131.638 100.08C131.638 100.08 132.695 108.608 134.728 111.532C134.728 111.532 138.062 109.014 135.866 102.354C134.24 97.3187 131.394 99.3491 131.638 100.08Z" fill="#F58925"/>
<path d="M116.352 108.771C116.271 108.689 116.271 108.689 116.271 108.608C118.71 105.197 120.499 105.116 123.1 105.035C124.564 104.953 126.109 104.872 128.304 104.304C130.418 103.735 131.8 102.761 132.451 101.461C133.101 99.9992 132.451 98.6185 132.451 98.6185C132.451 98.5373 132.451 98.5373 132.532 98.4561C132.613 98.4561 132.613 98.4561 132.695 98.5373C132.695 98.6185 133.345 99.9992 132.695 101.542C132.126 102.842 130.662 103.898 128.467 104.466C126.271 105.116 124.645 105.116 123.263 105.197C120.661 105.278 118.954 105.359 116.596 108.689C116.433 108.771 116.433 108.771 116.352 108.771Z" fill="#DE5726"/>
<path d="M115.295 107.065C115.214 107.065 115.214 107.065 115.214 106.984C115.214 106.903 114.726 105.116 115.702 103.573C116.352 102.517 117.572 101.786 119.198 101.38C120.499 101.136 121.718 100.974 122.938 100.811C126.353 100.405 129.361 99.9991 130.581 97.0754C130.581 96.9941 130.662 96.9941 130.744 96.9941C130.825 96.9941 130.825 97.0754 130.825 97.1566C129.605 100.243 126.516 100.649 123.019 101.055C121.8 101.217 120.58 101.38 119.279 101.623C117.734 101.948 116.596 102.679 115.946 103.654C115.051 105.197 115.458 106.903 115.458 106.903C115.376 106.984 115.376 107.065 115.295 107.065Z" fill="#DE5726"/>
<path d="M135.459 109.744C135.378 109.744 135.378 109.663 135.378 109.663C135.866 106.658 135.459 104.709 135.134 103.653C134.728 102.516 134.24 102.11 134.24 102.11C134.158 102.11 134.158 102.029 134.24 101.948C134.24 101.866 134.321 101.866 134.402 101.948C134.484 102.029 136.516 103.734 135.622 109.663C135.541 109.744 135.541 109.744 135.459 109.744Z" fill="#DE5726"/>
<path d="M132.532 125.014C132.451 125.014 132.451 125.014 132.451 124.932C132.451 124.851 132.451 124.851 132.532 124.851C134.239 124.77 135.296 124.283 135.866 123.389C136.679 122.09 135.947 120.222 135.54 119.085L135.459 118.841C134.809 117.054 134.971 115.917 134.971 115.836C134.971 115.755 135.053 115.755 135.053 115.755C135.134 115.755 135.134 115.836 135.134 115.836C135.134 115.836 134.971 116.973 135.622 118.679L135.703 118.922C136.191 120.059 136.923 122.009 136.028 123.389C135.459 124.364 134.239 124.932 132.532 125.014Z" fill="#DE5726"/>
<path d="M118.71 124.039C118.141 124.039 117.734 123.877 117.328 123.633C116.189 122.74 116.433 120.709 116.677 118.76C117.165 115.917 116.677 115.349 116.677 115.349C116.677 115.268 116.677 115.268 116.677 115.187C116.677 115.187 116.758 115.187 116.84 115.187C116.921 115.268 117.328 115.836 116.84 118.76C116.514 120.628 116.352 122.658 117.409 123.471C118.141 124.039 119.36 123.958 121.068 123.227C121.149 123.227 121.149 123.227 121.23 123.308C121.312 123.389 121.23 123.389 121.149 123.471C120.255 123.877 119.442 124.039 118.71 124.039Z" fill="#DE5726"/>
<path d="M234.737 83.5117H160.421V179.185H234.737V83.5117Z" fill="#FFFAF0"/>
<path d="M181.48 113.643C187.722 113.643 192.782 108.588 192.782 102.354C192.782 96.1187 187.722 91.0645 181.48 91.0645C175.238 91.0645 170.178 96.1187 170.178 102.354C170.178 108.588 175.238 113.643 181.48 113.643Z" fill="#56C6D9"/>
<path d="M223.191 104.385H200.018C199.124 104.385 198.392 103.654 198.392 102.76V102.679C198.392 101.786 199.124 101.055 200.018 101.055H223.191C224.085 101.055 224.817 101.786 224.817 102.679V102.76C224.817 103.654 224.085 104.385 223.191 104.385Z" fill="#423A64"/>
<path d="M223.191 97.4812H200.018C199.124 97.4812 198.392 96.7503 198.392 95.8569V95.7757C198.392 94.8823 199.124 94.1514 200.018 94.1514H223.191C224.085 94.1514 224.817 94.8823 224.817 95.7757V95.8569C224.817 96.7503 224.085 97.4812 223.191 97.4812Z" fill="#423A64"/>
<path d="M222.947 124.445H172.862C171.967 124.445 171.235 123.714 171.235 122.821V122.74C171.235 121.846 171.967 121.115 172.862 121.115H222.947C223.842 121.115 224.574 121.846 224.574 122.74V122.821C224.574 123.714 223.842 124.445 222.947 124.445Z" fill="#423A64"/>
<path d="M222.947 132.323H172.862C171.967 132.323 171.235 131.592 171.235 130.699V130.617C171.235 129.724 171.967 128.993 172.862 128.993H222.947C223.842 128.993 224.574 129.724 224.574 130.617V130.699C224.574 131.511 223.842 132.323 222.947 132.323Z" fill="#423A64"/>
<path d="M222.947 160.749H172.862C171.967 160.749 171.235 160.018 171.235 159.124V159.043C171.235 158.15 171.967 157.419 172.862 157.419H222.947C223.842 157.419 224.574 158.15 224.574 159.043V159.124C224.574 160.018 223.842 160.749 222.947 160.749Z" fill="#423A64"/>
<path d="M215.304 112.1H200.018C199.124 112.1 198.392 111.369 198.392 110.476V110.395C198.392 109.501 199.124 108.771 200.018 108.771H215.304C216.199 108.771 216.93 109.501 216.93 110.395V110.476C216.93 111.369 216.199 112.1 215.304 112.1Z" fill="#423A64"/>
<path d="M188.473 168.221H173.187C172.292 168.221 171.561 167.49 171.561 166.596V166.515C171.561 165.622 172.292 164.891 173.187 164.891H188.473C189.367 164.891 190.099 165.622 190.099 166.515V166.596C190.18 167.49 189.448 168.221 188.473 168.221Z" fill="#423A64"/>
<path d="M186.928 138.008H171.235V151.733H186.928V138.008Z" fill="#FFCC05"/>
<path d="M224.817 138.008H209.125V151.733H224.817V138.008Z" fill="#F58925"/>
<path d="M205.873 138.008H190.18V151.733H205.873V138.008Z" fill="#D28DBC"/>
<path d="M33.0112 173.5C33.0112 173.5 43.256 189.5 47.6467 189.662C47.6467 189.662 46.5897 190.88 45.1261 192.261C43.6626 193.642 36.3448 196.565 31.7916 186.007C27.2383 175.449 28.0514 171.145 33.0112 173.5Z" fill="#F1A786"/>
<path d="M44.2314 193.316C44.2314 193.316 39.4342 191.042 36.4258 186.169C36.4258 186.169 33.9052 184.139 32.3604 186.982C30.8155 189.824 32.6856 189.012 32.6856 189.012C32.6856 189.012 40.7351 200.139 44.2314 193.316Z" fill="#E56E52"/>
<path d="M14.9607 168.14C14.9607 168.14 31.3849 167.409 32.9298 173.5C34.0681 177.967 31.4662 200.545 28.7831 210.535C27.8074 214.027 23.6606 213.621 23.6606 213.621C23.6606 213.621 8.29339 214.758 0.65042 213.052C0.569112 213.052 -4.30938 171.957 14.9607 168.14Z" fill="#F58925"/>
<path d="M26.5066 211.103C26.5066 211.103 44.3944 212.077 49.2729 227.021C52.6878 237.498 40.329 261.213 41.9552 261.375C43.5813 261.538 48.2159 262.269 47.0776 262.675C45.9393 263.081 37.0767 262.675 37.0767 262.675C37.0767 262.675 41.7925 238.472 37.5645 231.569C33.3365 224.666 15.7739 224.503 15.7739 224.503C15.7739 224.503 21.6281 214.026 26.5066 211.103Z" fill="#423A64"/>
<path d="M36.6701 257.152H43.6626C43.6626 257.152 59.1112 231.732 44.6383 219.387L35.0439 227.508C35.0439 227.427 42.443 238.229 36.6701 257.152Z" fill="#008EA7"/>
<path d="M124.564 182.515C109.522 182.515 95.4561 176.667 84.886 165.946C74.3973 155.388 68.7057 141.338 68.787 126.475C68.8683 111.613 74.8038 97.7247 85.3739 87.2478C95.8626 76.9334 109.766 71.167 124.483 71.167C139.525 71.167 153.591 77.0146 164.162 87.7351C185.708 109.582 185.546 144.911 163.674 166.434C153.185 176.829 139.281 182.515 124.564 182.515ZM124.564 80.9942C112.368 80.9942 100.904 85.7047 92.2851 94.2324C83.5851 102.841 78.7066 114.374 78.6253 126.638C78.544 138.901 83.2599 150.434 91.8785 159.205C100.579 167.977 112.206 172.85 124.564 172.85C136.761 172.85 148.225 168.139 156.844 159.612C174.894 141.825 175.057 112.669 157.25 94.6385C148.55 85.7859 136.923 80.9942 124.564 80.9942Z" fill="#423F63"/>
<path d="M57.3224 198.027C56.1028 198.027 54.8019 197.54 53.8262 196.565C51.9561 194.616 51.9561 191.53 53.9075 189.662L84.9672 159.043C86.9186 157.175 90.0083 157.175 91.8784 159.125C93.7485 161.074 93.7485 164.16 91.7971 166.028L60.7374 196.647C59.7617 197.54 58.542 198.027 57.3224 198.027Z" fill="#423F63"/>
<path d="M79.8118 185.583L65.1914 170.786L2.28992 232.796L16.9103 247.593L79.8118 185.583Z" fill="#FFCC05"/>
<path d="M20.8148 213.864C20.8148 213.864 30.1652 214.433 35.125 229.377C38.54 239.853 27.8073 261.213 29.3521 261.457C30.897 261.701 35.6129 262.35 34.4746 262.757C33.3363 263.163 24.4737 262.757 24.4737 262.757C24.4737 262.757 29.7587 241.559 25.5307 234.656C21.3026 227.752 9.43164 223.935 9.43164 223.935C9.43164 223.935 15.855 216.788 20.8148 213.864Z" fill="#423A64"/>
<path d="M14.7167 146.617C14.7167 146.617 11.1391 150.109 11.383 153.683C11.7083 157.257 16.6681 159.449 18.0503 158.718C19.4325 157.987 16.9933 147.104 14.7167 146.617Z" fill="#423A64"/>
<path d="M17.8877 170.251L24.6363 171.794C24.6363 171.794 23.9045 163.186 24.7989 159.368C25.4494 156.688 17.7251 152.384 17.7251 152.384L17.8877 170.251Z" fill="#F1A786"/>
<path d="M25.2868 146.698C25.2868 146.698 31.141 158.475 25.2868 162.129C21.5466 164.403 13.6597 156.038 14.9607 150.109C15.6111 147.023 24.555 143.693 25.2868 146.698Z" fill="#F1A786"/>
<path d="M21.3838 154.982C21.6533 154.982 21.8717 154.764 21.8717 154.495C21.8717 154.226 21.6533 154.008 21.3838 154.008C21.1144 154.008 20.896 154.226 20.896 154.495C20.896 154.764 21.1144 154.982 21.3838 154.982Z" fill="#423A64"/>
<path d="M26.1002 153.927C26.3696 153.927 26.588 153.709 26.588 153.439C26.588 153.17 26.3696 152.952 26.1002 152.952C25.8307 152.952 25.6123 153.17 25.6123 153.439C25.6123 153.709 25.8307 153.927 26.1002 153.927Z" fill="#423A64"/>
<path d="M24.4736 162.454C24.4736 162.454 20.6521 162.698 18.2128 158.962C17.6437 158.15 18.1315 162.373 20.1642 164.484C22.2782 166.677 24.3922 167.814 24.3922 167.814C24.3922 167.814 24.2296 163.997 24.4736 162.454Z" fill="#E56E52"/>
<path d="M20.9774 157.663C21.4714 157.663 21.8718 157.263 21.8718 156.769C21.8718 156.276 21.4714 155.876 20.9774 155.876C20.4834 155.876 20.083 156.276 20.083 156.769C20.083 157.263 20.4834 157.663 20.9774 157.663Z" fill="#E56E52"/>
<path d="M21.5466 152.87C21.7092 153.276 21.0588 153.033 20.4896 153.195C19.9205 153.358 19.5952 153.926 19.4326 153.52C19.27 153.114 19.6765 152.545 20.2457 152.383C20.8149 152.22 21.4653 152.464 21.5466 152.87Z" fill="#423A64"/>
<path d="M26.5066 151.734C26.6692 152.14 26.0187 151.896 25.4496 152.059C24.8804 152.221 24.5552 152.79 24.3926 152.383C24.23 151.977 24.6365 151.409 25.2057 151.246C25.7748 151.084 26.344 151.246 26.5066 151.734Z" fill="#423A64"/>
<path d="M26.9129 156.282C27.4069 156.282 27.8073 155.882 27.8073 155.388C27.8073 154.895 27.4069 154.495 26.9129 154.495C26.419 154.495 26.0186 154.895 26.0186 155.388C26.0186 155.882 26.419 156.282 26.9129 156.282Z" fill="#E56E52"/>
<path d="M25.2868 156.363C25.2055 156.363 24.8802 156.201 23.9858 155.307C23.9858 155.307 23.9858 155.226 23.9858 155.145C23.9858 155.145 24.0671 155.145 24.1485 155.145C24.555 155.551 25.0428 155.957 25.2055 156.12C25.1242 155.795 24.7176 154.901 24.3111 154.089C24.3111 154.008 24.3111 154.008 24.3924 153.927C24.4737 153.927 24.4737 153.927 24.555 154.008C25.0428 154.983 25.612 156.12 25.5307 156.282C25.3681 156.363 25.3681 156.363 25.2868 156.363Z" fill="#423F63"/>
<path d="M16.0991 155.469C16.0991 155.469 13.8225 153.033 13.3346 154.657C12.8468 156.281 15.6926 158.718 16.587 157.824C17.4 156.931 16.0991 155.469 16.0991 155.469Z" fill="#F1A786"/>
<path d="M16.0991 157.175C16.0178 157.175 16.0178 157.175 16.0178 157.094C15.9365 156.2 15.6112 155.551 15.2047 155.307C14.7982 155.063 14.3916 155.226 14.3916 155.226C14.3103 155.226 14.3103 155.226 14.229 155.145C14.229 155.063 14.229 155.063 14.3103 154.982C14.3103 154.982 14.7982 154.739 15.286 155.063C15.7739 155.307 16.0991 155.957 16.1804 157.013C16.1804 157.175 16.1804 157.175 16.0991 157.175Z" fill="#423F63"/>
<path d="M15.6927 156.687C15.6927 156.687 15.6114 156.687 15.6114 156.606C14.9609 155.55 15.1236 155.225 15.2049 155.144C15.2049 155.063 15.2862 155.063 15.3675 155.144C15.4488 155.144 15.4488 155.225 15.3675 155.306C15.3675 155.306 15.2862 155.631 15.774 156.525C15.774 156.606 15.774 156.687 15.6927 156.687Z" fill="#423F63"/>
<path d="M25.2868 158.637C24.5551 158.637 23.5794 157.419 23.498 157.256C23.498 157.175 23.498 157.175 23.498 157.094C23.5794 157.094 23.5794 157.094 23.6607 157.094C23.9859 157.5 24.8803 158.556 25.4494 158.393C25.6934 158.312 25.9373 157.906 25.9373 156.607C25.9373 156.525 26.0186 156.525 26.0186 156.525C26.0999 156.525 26.0999 156.607 26.0999 156.607C26.0999 157.825 25.9373 158.475 25.4494 158.637C25.4494 158.637 25.3681 158.637 25.2868 158.637Z" fill="#423F63"/>
<path d="M32.686 199.894C32.686 199.894 29.1085 206.879 18.7823 203.306C12.4403 201.113 4.95992 193.316 5.36646 184.707C5.36646 184.707 11.4646 194.778 19.0262 197.458C26.5879 200.138 32.686 199.894 32.686 199.894Z" fill="#E25526"/>
<path d="M13.2531 171.957C13.2531 171.957 16.6681 190.799 31.2222 191.855C54.8016 193.56 58.1352 184.708 63.0137 187.794C64.6399 188.85 64.0707 188.931 56.5904 192.342C50.167 195.266 36.5886 203.794 22.2783 200.626C8.04938 197.459 5.36621 179.104 5.36621 179.104C5.36621 179.104 10.7326 168.789 13.2531 171.957Z" fill="#F1A786"/>
<path d="M14.3101 170.576C14.3101 170.576 17.1559 178.779 20.4083 181.784C20.4083 181.784 12.4401 191.53 10.2447 191.855C8.04942 192.18 3.82139 180.647 4.39055 179.185C4.95971 177.723 9.67558 166.434 14.3101 170.576Z" fill="#F58925"/>
<path d="M9.43191 225.722C9.43191 225.722 22.6038 229.377 24.1487 238.96C26.2627 252.524 24.3926 258.046 24.3926 258.046H32.93C32.93 258.046 39.1094 237.58 37.3206 228.646C35.5318 219.712 23.5795 211.753 23.5795 211.753C23.5795 211.753 13.0908 213.783 2.3581 213.865C2.3581 213.865 0.894553 222.23 9.43191 225.722Z" fill="#70CACD"/>
<path d="M39.3529 182.271C39.3529 182.271 36.3445 187.469 32.6857 189.012C32.6857 189.012 30.409 171.145 31.3034 171.145C32.1165 171.145 36.995 179.997 39.3529 182.271Z" fill="#F58925"/>
<path d="M32.6857 189.012C32.6857 189.012 31.0596 179.428 31.0596 176.342C31.0596 176.342 35.125 184.869 36.4259 186.169C36.4259 186.169 33.9867 188.687 32.6857 189.012Z" fill="#E25526"/>
<path d="M24.7988 168.789C24.7988 168.789 25.2866 172.363 22.6034 173.175C19.9203 173.987 16.8306 168.14 16.8306 168.14C16.8306 168.14 23.3352 168.465 24.7988 168.789Z" fill="#F1A786"/>
<path d="M56.6717 191.205C56.5904 191.205 56.5904 191.123 56.5904 191.123C56.6717 189.905 55.9399 189.337 55.9399 189.337C55.8586 189.337 55.8586 189.255 55.9399 189.174C55.9399 189.093 56.0212 189.093 56.1025 189.174C56.1025 189.174 56.9156 189.824 56.8343 191.123C56.8343 191.123 56.753 191.205 56.6717 191.205Z" fill="#423F63"/>
<path d="M56.509 189.906C56.509 189.906 56.4277 189.906 56.4277 189.825C56.4277 189.743 56.4277 189.743 56.509 189.662C56.509 189.662 59.5987 188.281 61.5501 187.713C61.6315 187.713 61.6315 187.713 61.7128 187.794C61.7941 187.875 61.7128 187.875 61.6315 187.957C59.5988 188.525 56.5903 189.906 56.509 189.906Z" fill="#423F63"/>
<path d="M56.7532 190.636C56.7532 190.636 56.6719 190.636 56.6719 190.555C56.6719 190.473 56.6719 190.473 56.6719 190.392C58.2167 189.336 62.1195 188.687 62.2821 188.687C62.3635 188.687 62.3635 188.687 62.3635 188.768C62.3635 188.849 62.3635 188.849 62.2821 188.849C62.2821 188.93 58.2167 189.58 56.7532 190.636Z" fill="#423F63"/>
<path d="M13.0907 148.648C13.0907 148.648 11.5459 145.074 14.9608 144.018C18.3758 142.963 22.8477 144.181 24.4739 141.907C26.1001 139.633 26.5066 140.932 26.9131 142.638C27.3197 144.343 28.1328 148.404 24.0674 149.379C20.0019 150.434 17.644 148.079 16.9122 149.622C16.1805 151.165 18.5384 152.302 17.4001 154.089C16.1805 155.876 17.7253 155.714 17.4814 156.769C17.2375 157.825 14.5543 153.846 14.7169 152.059C14.7982 150.272 13.0907 148.648 13.0907 148.648Z" fill="#423A64"/>
<path d="M23.1726 149.703C23.1726 149.703 23.0913 149.703 23.0913 149.622C23.0913 149.54 23.0913 149.54 23.0913 149.459C27.0754 147.185 25.2053 141.744 25.124 141.662C25.124 141.581 25.124 141.581 25.2053 141.5C25.2866 141.5 25.2866 141.5 25.3679 141.581C25.3679 141.581 25.8558 143.043 25.8558 144.667C25.8558 147.023 24.9614 148.728 23.1726 149.703Z" fill="#52507A"/>
<path d="M21.6282 149.703C21.5469 149.703 21.5469 149.703 21.6282 149.703C21.5469 149.622 21.5469 149.541 21.5469 149.541C21.5469 149.541 23.2543 147.51 23.0917 145.642C23.0104 144.83 22.6039 144.181 21.9534 143.612C21.8721 143.612 21.8721 143.531 21.9534 143.45C21.9534 143.368 22.0347 143.368 22.116 143.45C22.8478 144.018 23.2543 144.749 23.3357 145.642C23.417 147.592 21.7095 149.541 21.6282 149.703Z" fill="#52507A"/>
<path d="M11.7898 153.845C11.7085 153.845 11.7085 153.764 11.7085 153.764C11.7898 152.383 12.1963 151.409 13.0094 150.759C14.1477 149.784 15.6113 149.947 15.6926 149.947C15.7739 149.947 15.7739 150.028 15.7739 150.028C15.7739 150.109 15.6926 150.109 15.6926 150.109C15.6926 150.109 14.2291 149.947 13.172 150.84C12.4403 151.49 12.0337 152.464 11.9524 153.764C11.8711 153.764 11.8711 153.845 11.7898 153.845Z" fill="#52507A"/>
<path d="M12.6843 153.52C12.603 153.52 12.603 153.439 12.603 153.439C12.603 153.358 12.7656 151.815 15.6114 151.733C15.6927 151.733 15.6927 151.815 15.6927 151.815C15.6927 151.896 15.6114 151.896 15.6114 151.896C12.9283 151.896 12.7656 153.358 12.7656 153.439C12.847 153.52 12.7656 153.52 12.6843 153.52Z" fill="#52507A"/>
<path d="M18.4567 148.566C18.4567 148.566 18.3754 148.566 18.3754 148.485C18.3754 148.404 18.3754 148.404 18.3754 148.323C19.1885 147.754 19.6764 147.104 19.7577 146.374C19.839 144.912 18.3754 143.531 18.3754 143.531C18.2941 143.531 18.2941 143.45 18.3754 143.369C18.3754 143.287 18.4567 143.287 18.538 143.369C18.6194 143.45 20.0829 144.83 20.0016 146.374C19.9203 147.267 19.4324 147.998 18.4567 148.566C18.5381 148.566 18.5381 148.566 18.4567 148.566Z" fill="#52507A"/>
<path d="M17.3186 148.566C17.2373 148.566 17.2373 148.485 17.2373 148.485C17.2373 148.485 17.3186 146.86 16.3429 145.967C15.6112 145.398 14.4728 145.236 13.0093 145.723C12.928 145.723 12.928 145.723 12.8467 145.642C12.8467 145.561 12.8467 145.561 12.928 145.48C14.4728 145.074 15.6925 145.155 16.4242 145.805C17.5626 146.698 17.3999 148.403 17.3999 148.485C17.4812 148.566 17.3999 148.566 17.3186 148.566Z" fill="#52507A"/>
<path d="M245.957 187.388C245.957 187.388 235.794 213.702 238.721 228.158C240.51 236.929 254.413 260.32 254.413 260.32L247.665 262.35C249.128 263.081 259.129 262.675 259.129 262.675C259.129 262.675 251.649 241.884 251.08 229.376C250.836 222.635 257.015 202.088 257.015 202.088C257.015 202.088 259.78 217.031 261.162 225.965C263.439 240.584 283.115 248.868 285.067 253.904C285.554 255.203 283.684 258.695 283.684 258.695C285.88 258.208 287.018 252.848 287.587 251.386C288.238 249.924 273.927 236.523 273.196 228.158C272.545 221.336 273.196 192.829 273.196 192.829C273.196 192.829 251.161 186.332 245.957 187.388Z" fill="#F2A887"/>
<path d="M242.136 191.53C242.136 191.53 237.989 208.504 236.932 218.169C236.932 218.169 250.429 220.605 252.95 220.849C252.95 220.849 255.47 210.534 257.015 206.961C257.015 206.961 258.235 217.438 259.129 221.092L274.659 222.229C274.659 222.229 276.367 197.783 277.18 191.448C277.83 185.276 244.819 190.393 242.136 191.53Z" fill="#56C6D9"/>
<path d="M260.837 207.042L252.95 206.311C252.869 206.311 252.869 206.23 252.869 206.23C252.869 206.148 252.95 206.148 252.95 206.148L260.837 206.879C260.918 206.879 260.918 206.961 260.918 206.961C260.918 207.042 260.918 207.042 260.837 207.042Z" fill="#FFF9F0"/>
<path d="M274.822 202.169L241.648 200.707C241.567 200.707 241.567 200.626 241.567 200.626C241.567 200.545 241.648 200.545 241.648 200.545L274.822 202.007C274.903 202.007 274.903 202.088 274.903 202.088C274.985 202.169 274.903 202.169 274.822 202.169Z" fill="#FFF9F0"/>
<path d="M257.097 206.717C257.016 206.717 257.016 206.635 257.016 206.635L258.235 199.569C258.235 199.488 258.317 199.488 258.317 199.488C258.398 199.488 258.398 199.569 258.398 199.569L257.178 206.635C257.178 206.717 257.097 206.717 257.097 206.717Z" fill="#FFF9F0"/>
<path d="M257.341 205.337C257.259 205.337 257.259 205.255 257.341 205.337C254.576 203.063 255.552 199.652 255.552 199.652C255.552 199.57 255.633 199.57 255.714 199.57C255.796 199.57 255.796 199.652 255.796 199.733C255.796 199.733 254.901 203.063 257.503 205.255C257.422 205.174 257.422 205.255 257.341 205.337C257.341 205.255 257.341 205.337 257.341 205.337Z" fill="#FFF9F0"/>
<path d="M238.965 207.123C238.802 207.123 238.721 207.123 238.721 207.123C238.64 207.123 238.64 207.042 238.64 207.042C238.64 206.961 238.721 206.961 238.721 206.961C238.721 206.961 239.941 207.123 241.323 206.23C242.624 205.499 244.25 203.712 245.063 199.652C245.063 199.57 245.144 199.57 245.144 199.57C245.226 199.57 245.226 199.652 245.226 199.652C244.413 203.794 242.705 205.58 241.404 206.393C240.347 207.042 239.371 207.123 238.965 207.123Z" fill="#FFF9F0"/>
<path d="M275.472 211.103C275.391 211.103 275.391 211.103 275.472 211.103C270.757 209.722 270.35 200.058 270.35 199.652C270.35 199.57 270.431 199.57 270.431 199.57C270.513 199.57 270.513 199.652 270.513 199.652C270.513 199.652 270.594 202.169 271.244 204.768C271.814 207.205 273.115 210.21 275.472 210.859C275.554 210.859 275.554 210.941 275.554 211.022L275.472 211.103Z" fill="#FFF9F0"/>
<path d="M264.658 120.465C264.658 120.465 267.179 118.029 270.431 119.572C273.684 121.115 276.042 123.795 275.229 127.774C274.415 131.835 270.025 134.597 270.919 136.221C271.814 137.845 271.407 138.17 270.431 138.495C267.586 139.632 256.365 133.703 264.658 120.465Z" fill="#F58A28"/>
<path d="M241.079 198.433C241.079 198.433 250.348 200.545 277.099 199.083C277.099 199.083 282.872 151.003 278.481 148.647C271.976 145.155 254.658 145.805 251.405 148.647C248.153 151.49 241.079 198.433 241.079 198.433Z" fill="#423A64"/>
<path d="M267.992 145.723L261.162 146.941C261.162 146.941 262.3 138.414 261.65 134.515C261.162 131.754 269.049 127.855 269.049 127.855L267.992 145.723Z" fill="#F2A887"/>
<path d="M261.731 121.846C261.731 121.846 255.227 133.298 261 137.277C264.659 139.795 273.603 129.643 271.732 125.095C270.513 122.09 262.707 118.841 261.731 121.846Z" fill="#F2A887"/>
<path d="M264.821 130.049C265.091 130.049 265.309 129.831 265.309 129.562C265.309 129.292 265.091 129.074 264.821 129.074C264.552 129.074 264.333 129.292 264.333 129.562C264.333 129.831 264.552 130.049 264.821 130.049Z" fill="#423A64"/>
<path d="M260.674 128.993C260.944 128.993 261.162 128.775 261.162 128.506C261.162 128.237 260.944 128.019 260.674 128.019C260.405 128.019 260.187 128.237 260.187 128.506C260.187 128.775 260.405 128.993 260.674 128.993Z" fill="#423A64"/>
<path d="M261.813 137.602C261.813 137.602 265.634 138.089 268.236 134.434C268.805 133.622 268.073 137.846 266.041 139.795C263.845 141.825 261.569 142.8 261.569 142.8C261.569 142.8 262.057 138.983 261.813 137.602Z" fill="#E66E52"/>
<path d="M265.553 132.972C266.047 132.972 266.447 132.572 266.447 132.079C266.447 131.586 266.047 131.186 265.553 131.186C265.059 131.186 264.658 131.586 264.658 132.079C264.658 132.572 265.059 132.972 265.553 132.972Z" fill="#E66E52"/>
<path d="M264.74 127.774C264.577 128.18 265.228 127.937 265.797 128.18C266.366 128.424 266.691 128.993 266.854 128.586C267.016 128.18 266.691 127.612 266.122 127.449C265.471 127.206 264.902 127.368 264.74 127.774Z" fill="#F58A28"/>
<path d="M260.512 126.394C260.349 126.8 261 126.557 261.569 126.8C262.138 127.044 262.463 127.613 262.626 127.206C262.788 126.8 262.463 126.232 261.894 126.069C261.243 125.745 260.674 125.907 260.512 126.394Z" fill="#F58A28"/>
<path d="M259.78 131.267C260.274 131.267 260.675 130.867 260.675 130.374C260.675 129.88 260.274 129.48 259.78 129.48C259.286 129.48 258.886 129.88 258.886 130.374C258.886 130.867 259.286 131.267 259.78 131.267Z" fill="#E66E52"/>
<path d="M261.325 131.511C261.325 131.511 261.325 131.43 261.325 131.511C261.244 131.511 261.244 131.43 261.244 131.43C261.162 131.267 261.813 130.13 262.301 129.237C262.301 129.155 262.382 129.155 262.463 129.237C262.545 129.237 262.545 129.318 262.463 129.399C261.976 130.13 261.569 131.023 261.406 131.348C261.65 131.186 262.138 130.78 262.545 130.455C262.626 130.455 262.626 130.455 262.707 130.455C262.707 130.536 262.707 130.536 262.707 130.617C261.732 131.348 261.406 131.511 261.325 131.511Z" fill="#423F63"/>
<path d="M270.513 131.024C270.513 131.024 272.952 128.75 273.277 130.374C273.684 132.08 270.675 134.272 269.944 133.379C269.131 132.404 270.513 131.024 270.513 131.024Z" fill="#F2A887"/>
<path d="M270.431 132.729C270.35 132.729 270.35 132.648 270.35 132.648C270.513 131.674 270.838 131.024 271.326 130.78C271.814 130.537 272.301 130.78 272.301 130.78C272.383 130.78 272.383 130.861 272.383 130.943C272.383 131.024 272.301 131.024 272.22 131.024C272.22 131.024 271.814 130.861 271.407 131.024C271.001 131.267 270.675 131.836 270.513 132.729C270.513 132.729 270.513 132.729 270.431 132.729Z" fill="#423F63"/>
<path d="M270.919 132.323C270.919 132.323 270.838 132.242 270.919 132.323C270.838 132.242 270.838 132.242 270.838 132.161C271.407 131.186 271.326 130.943 271.326 130.943C271.326 130.861 271.326 130.861 271.326 130.78C271.407 130.78 271.407 130.78 271.488 130.78C271.488 130.861 271.651 131.186 271 132.242L270.919 132.323Z" fill="#423F63"/>
<path d="M267.992 145.724C267.992 145.724 268.073 150.434 264.171 151.165C260.593 151.815 261.325 146.048 261.325 146.048C261.325 146.048 265.715 145.724 267.992 145.724Z" fill="#F2A887"/>
<path d="M252.625 257.234C252.625 257.234 257.178 256.34 257.26 256.746C257.666 258.777 259.618 262.188 259.13 262.675C258.642 263.163 249.21 263.163 247.015 262.756C244.82 262.269 253.926 261.051 253.52 259.427C253.357 258.777 252.625 257.234 252.625 257.234Z" fill="#423A64"/>
<path d="M282.546 251.223C282.546 251.223 285.311 247.893 285.555 248.056C287.262 249.274 289.864 251.467 289.783 252.198C289.783 252.847 285.636 259.751 283.766 260.888C281.815 262.025 285.799 254.066 284.416 253.172C283.929 252.847 282.546 251.223 282.546 251.223Z" fill="#423A64"/>
<path d="M266.773 120.628C266.773 120.628 264.659 122.252 266.773 124.851C268.887 127.45 272.383 125.907 269.7 130.374C268.236 132.729 265.309 136.059 264.659 134.353C264.008 132.648 261.813 130.861 260.349 132.16C258.479 133.866 259.13 130.699 258.642 131.105C258.235 131.511 257.747 137.277 260.593 138.17C264.577 139.389 267.504 135.653 269.049 133.46C270.594 131.267 272.383 129.643 272.22 125.744C272.22 122.333 266.854 119.491 266.773 120.628Z" fill="#F58A28"/>
<path d="M266.447 120.628C266.447 120.628 265.553 117.298 261.569 117.785C257.584 118.272 259.536 121.927 256.609 122.658C253.682 123.389 259.211 124.77 261.243 122.577C263.357 120.303 262.951 124.526 265.146 123.633C267.423 122.658 266.447 120.628 266.447 120.628Z" fill="#F58A28"/>
<path d="M261.406 134.434C261.406 134.434 261.325 134.434 261.406 134.434C260.918 134.353 260.674 133.866 260.593 132.81C260.593 132.729 260.593 132.729 260.674 132.729C260.755 132.729 260.755 132.729 260.755 132.81C260.918 134.028 261.162 134.19 261.325 134.272C261.65 134.353 262.138 133.622 262.382 133.135C262.382 133.053 262.463 133.053 262.544 133.053C262.626 133.053 262.626 133.135 262.626 133.216C262.544 133.378 261.975 134.434 261.406 134.434Z" fill="#423F63"/>
<path d="M272.301 129.237C272.22 129.237 272.22 129.155 272.22 129.074C272.627 128.343 272.789 127.775 272.627 127.45C272.464 127.044 272.058 126.8 271.57 126.557C270.675 126.069 269.456 125.501 269.212 123.552C269.13 122.983 268.886 122.577 268.48 122.333C267.748 121.927 266.61 122.333 266.61 122.333C266.529 122.333 266.529 122.333 266.447 122.252C266.366 122.171 266.447 122.171 266.529 122.09C266.61 122.09 267.748 121.602 268.561 122.09C268.968 122.333 269.293 122.821 269.374 123.389C269.7 125.257 270.757 125.826 271.651 126.232C272.22 126.475 272.708 126.719 272.789 127.206C272.952 127.612 272.789 128.181 272.383 128.993C272.383 129.237 272.383 129.237 272.301 129.237Z" fill="#DE5726"/>
<path d="M273.684 129.317C273.602 129.236 273.602 129.236 273.602 129.155C274.253 128.099 274.415 127.287 274.253 126.475C274.09 125.663 273.44 125.013 272.301 124.363C271.407 123.795 271.407 123.47 271.488 122.983C271.488 122.658 271.57 122.17 270.919 121.521C269.537 120.059 267.26 120.79 267.26 120.79C267.179 120.79 267.179 120.79 267.098 120.708C267.016 120.627 267.098 120.627 267.179 120.546C267.179 120.546 269.618 119.815 271.082 121.358C271.814 122.089 271.732 122.576 271.732 122.983C271.732 123.389 271.651 123.632 272.464 124.12C273.277 124.607 274.253 125.257 274.497 126.394C274.741 127.206 274.497 128.099 273.846 129.236C273.765 129.317 273.684 129.317 273.684 129.317Z" fill="#DE5726"/>
<path d="M257.828 122.902C257.747 122.902 257.747 122.821 257.747 122.821C257.747 122.739 257.828 122.739 257.828 122.739C258.804 122.739 259.373 122.09 260.024 121.521C260.593 120.953 261.162 120.384 261.975 120.303C263.195 120.141 263.601 120.547 264.089 121.034C264.252 121.196 264.496 121.44 264.74 121.602C265.065 121.846 265.309 121.927 265.471 121.927C265.634 121.846 265.634 121.684 265.634 121.684C265.634 121.602 265.715 121.602 265.715 121.602C265.797 121.602 265.797 121.684 265.797 121.684C265.797 121.684 265.715 122.009 265.471 122.09C265.227 122.171 264.902 122.09 264.496 121.765C264.252 121.521 264.008 121.359 263.845 121.115C263.357 120.628 263.032 120.303 261.894 120.384C261.162 120.465 260.593 121.034 260.024 121.521C259.536 122.252 258.885 122.902 257.828 122.902Z" fill="#DE5726"/>
<path d="M258.804 121.196C258.723 121.115 258.723 121.034 258.723 121.034C259.048 120.79 259.211 120.547 259.374 120.222C259.699 119.735 260.105 119.166 261.162 118.516C262.951 117.542 265.472 120.547 265.553 120.709C265.553 120.79 265.553 120.79 265.553 120.872C265.472 120.872 265.472 120.872 265.39 120.872C265.39 120.872 262.951 117.948 261.244 118.76C260.187 119.328 259.861 119.897 259.536 120.384C259.455 120.628 259.211 120.953 258.804 121.196C258.886 121.196 258.886 121.196 258.804 121.196Z" fill="#DE5726"/>
<path d="M270.025 138.252C270.025 138.252 269.944 138.252 269.944 138.17C269.944 138.089 269.944 138.089 269.944 138.008C270.188 137.846 270.269 137.764 270.35 137.602C270.35 137.439 270.269 137.277 270.025 137.033C269.862 136.871 269.7 136.627 269.537 136.384C268.887 135.247 269.537 134.191 269.537 134.191C269.537 134.11 269.618 134.11 269.7 134.191C269.781 134.191 269.781 134.272 269.7 134.353C269.7 134.353 269.049 135.328 269.7 136.302C269.862 136.546 270.025 136.79 270.188 136.952C270.431 137.277 270.594 137.439 270.513 137.683C270.513 137.927 270.35 138.089 270.025 138.252C270.106 138.252 270.025 138.252 270.025 138.252Z" fill="#DE5726"/>
<path d="M272.871 146.779C272.871 146.779 265.96 200.626 266.61 202.088C267.261 203.631 274.822 202.088 274.822 202.088C274.822 202.088 279.945 152.952 280.107 151.165C280.595 146.779 272.871 146.779 272.871 146.779Z" fill="#FFCC05"/>
<path d="M357.977 154.45L282.565 136.319L259.163 233.438L334.575 251.569L357.977 154.45Z" fill="#FFFAF0"/>
<path opacity="0.5" d="M334.584 251.955L259.211 233.844L267.992 197.134L334.584 251.955Z" fill="#D0D2D3"/>
<path d="M299.296 172.443C305.807 172.443 311.086 167.171 311.086 160.667C311.086 154.163 305.807 148.891 299.296 148.891C292.785 148.891 287.506 154.163 287.506 160.667C287.506 167.171 292.785 172.443 299.296 172.443Z" fill="#D28DBC"/>
<path d="M341.089 172.85L317.672 167.246C316.696 167.002 316.127 166.027 316.371 165.134C316.615 164.159 317.59 163.591 318.485 163.835L341.902 169.439C342.877 169.682 343.446 170.657 343.203 171.55C342.959 172.525 341.983 173.093 341.089 172.85Z" fill="#423A64"/>
<path d="M342.714 165.865L319.298 160.261C318.322 160.018 317.753 159.043 317.997 158.15C318.241 157.175 319.216 156.607 320.111 156.85L343.527 162.454C344.503 162.698 345.072 163.672 344.828 164.566C344.666 165.54 343.69 166.109 342.714 165.865Z" fill="#423A64"/>
<path d="M335.885 193.154L285.23 180.971C284.254 180.728 283.685 179.753 283.929 178.86C284.173 177.885 285.149 177.317 286.043 177.56L336.698 189.743C337.674 189.986 338.243 190.961 337.999 191.854C337.836 192.829 336.861 193.397 335.885 193.154Z" fill="#423A64"/>
<path d="M334.015 201.113L283.36 188.93C282.384 188.687 281.815 187.712 282.059 186.819C282.303 185.844 283.278 185.276 284.173 185.519L334.828 197.702C335.804 197.945 336.373 198.92 336.129 199.813C335.885 200.707 334.99 201.356 334.015 201.113Z" fill="#423A64"/>
<path d="M327.022 229.945L276.367 217.762C275.391 217.519 274.822 216.544 275.066 215.651C275.31 214.676 276.286 214.108 277.18 214.351L327.835 226.534C328.811 226.777 329.38 227.752 329.136 228.645C328.973 229.62 327.998 230.188 327.022 229.945Z" fill="#423A64"/>
<path d="M331.169 178.697L315.802 174.961C314.826 174.718 314.257 173.743 314.501 172.85C314.745 171.875 315.72 171.307 316.615 171.55L331.982 175.286C332.958 175.53 333.527 176.505 333.283 177.398C333.12 178.373 332.145 178.941 331.169 178.697Z" fill="#423A64"/>
<path d="M290.271 229.214L274.904 225.478C273.928 225.234 273.359 224.26 273.603 223.366C273.847 222.392 274.822 221.823 275.717 222.067L291.084 225.803C292.06 226.047 292.629 227.021 292.385 227.915C292.141 228.808 291.247 229.458 290.271 229.214Z" fill="#423A64"/>
<path d="M296.1 198.171L280.211 194.352L276.863 208.248L292.751 212.068L296.1 198.171Z" fill="#FFCC05"/>
<path d="M334.573 207.353L318.684 203.533L315.335 217.43L331.224 221.25L334.573 207.353Z" fill="#F58925"/>
<path d="M315.305 202.717L299.416 198.897L296.067 212.794L311.956 216.614L315.305 202.717Z" fill="#56C6D9"/>
<path d="M251.405 148.647C251.405 148.647 224.736 160.261 231.891 178.779C235.631 188.443 263.764 182.271 271.326 179.835C278.725 177.479 280.595 168.708 274.578 173.581C264.984 181.459 239.941 176.748 239.372 172.119C238.315 163.916 249.535 161.967 249.535 161.967C249.535 161.967 253.194 151.896 251.405 148.647Z" fill="#F2A887"/>
<path d="M257.91 146.617C257.91 146.617 251.161 198.352 248.966 201.519C246.771 204.687 238.152 205.418 238.152 205.418L246.608 164.241C246.608 164.241 239.941 169.439 240.998 172.2C242.055 174.88 258.56 176.992 258.56 176.992C258.56 176.992 258.073 185.033 256.934 185.195C255.796 185.357 239.778 190.393 232.623 182.515C223.354 172.119 237.42 148.16 257.91 146.617Z" fill="#FFCC05"/>
<path d="M315.395 143.449C315.395 143.449 307.833 148.241 309.703 148.89C311.411 149.459 316.696 148.322 318.403 145.56C320.111 142.799 317.021 142.718 315.395 143.449Z" fill="#F2A887"/>
<path d="M241.892 186.575C241.892 186.575 248.722 186.819 252.137 186.088L251.731 188.443C251.731 188.443 248.641 190.149 241.161 190.149L241.892 186.575Z" fill="#F58925"/>
<path d="M271.651 176.423C271.57 176.423 271.57 176.423 271.57 176.342C271.57 176.261 271.57 176.261 271.651 176.18C271.732 176.18 275.798 174.799 277.099 172.281C277.099 172.2 277.18 172.2 277.261 172.2C277.343 172.2 277.343 172.281 277.343 172.363C275.879 175.043 271.814 176.342 271.651 176.423Z" fill="#423F63"/>
<path d="M272.139 177.885C272.058 177.885 272.058 177.885 272.058 177.804C271.895 176.667 271.082 175.774 271.082 175.774C271.082 175.774 271.082 175.693 271.082 175.611C271.163 175.611 271.163 175.611 271.245 175.611C271.245 175.611 272.139 176.586 272.302 177.804C272.22 177.804 272.22 177.885 272.139 177.885Z" fill="#423F63"/>
<path d="M271.976 177.317C271.895 177.317 271.895 177.317 271.895 177.235C271.895 177.154 271.895 177.154 271.976 177.154C272.139 177.073 276.936 175.124 277.668 172.931C277.668 172.85 277.749 172.85 277.83 172.85C277.912 172.85 277.912 172.931 277.912 173.012C277.18 175.124 272.708 177.073 271.976 177.317C272.058 177.317 272.058 177.317 271.976 177.317Z" fill="#423F63"/>
<path d="M317.671 145.074C315.639 144.343 315.313 143.531 315.313 143.531C315.313 143.449 315.313 143.449 315.395 143.368C315.476 143.368 315.476 143.368 315.557 143.449C315.557 143.449 315.964 144.18 317.753 144.911C317.834 144.911 317.834 144.992 317.834 145.074C317.753 145.074 317.671 145.074 317.671 145.074Z" fill="#423F63"/>
<path d="M310.191 147.835C310.11 147.754 310.11 147.673 310.11 147.673C310.11 147.673 313.85 144.749 315.639 143.855C315.72 143.855 315.72 143.855 315.801 143.937C315.801 144.018 315.801 144.018 315.72 144.099C314.013 144.911 310.354 147.835 310.191 147.835C310.272 147.835 310.272 147.835 310.191 147.835Z" fill="#423F63"/>
<path d="M311.085 148.323C311.004 148.323 311.004 148.242 311.085 148.323C311.004 148.242 311.004 148.16 311.004 148.16C311.167 148.079 314.825 145.318 316.777 144.587C316.858 144.587 316.858 144.587 316.939 144.668C316.939 144.749 316.939 144.749 316.858 144.831C314.907 145.399 311.167 148.242 311.085 148.323Z" fill="#423F63"/>
</g>
<defs>
<clipPath id="clip0">
<rect width="358" height="211" fill="white" transform="translate(0 52)"/>
</clipPath>
</defs>
</svg>
