<svg width="210" height="624" viewBox="0 0 210 624" fill="none" xmlns="http://www.w3.org/2000/svg">
<g clip-path="url(#clip0)">
<path d="M125.423 170.182C125.423 170.182 132.711 157.103 141.822 162.73C156.703 171.855 151.996 192.386 151.996 192.386L148.655 183.261C148.655 183.261 153.21 197.709 145.922 207.595L146.681 198.165C146.681 198.165 140.911 211.853 130.738 213.374C120.564 214.895 118.894 214.895 117.831 220.978C116.768 227.061 124.967 231.168 122.386 230.711C113.124 229.19 114.035 217.328 114.035 217.328L112.516 225.845C112.516 225.845 100.672 203.032 101.584 192.386C102.343 181.74 107.354 174.44 107.354 174.44L101.28 176.722C101.128 176.874 119.349 147.826 125.423 170.182Z" fill="#333333"/>
<path d="M134.534 201.968C139.393 193.147 146.833 183.261 129.523 174.136C126.79 172.615 120.108 173.832 117.527 173.68C115.705 173.528 115.553 175.505 113.883 175.809C101.887 177.634 95.2061 187.063 95.2061 187.063C95.2061 187.063 106.139 203.793 73.4924 225.236C69.6963 227.67 96.8764 270.405 99.6095 254.589C108.568 200.751 131.497 207.291 134.534 201.968Z" fill="#EABFA5"/>
<path d="M106.139 179.459C106.139 179.459 111.453 177.938 117.375 185.694C117.983 186.455 117.679 187.672 116.768 187.824C114.187 188.584 109.479 189.497 105.228 187.976C97.4838 185.39 106.139 179.459 106.139 179.459Z" fill="#D84744"/>
<path d="M116.768 187.976C116.768 187.824 116.768 187.824 116.768 187.976C115.857 187.216 114.49 186.759 112.972 186.759C110.998 186.759 109.176 187.672 108.113 188.888C111.453 189.193 114.794 188.432 116.768 187.976Z" fill="#822A2A"/>
<path d="M116.312 186.911C116.312 186.911 111.15 181.892 105.531 181.284C105.531 181.284 110.542 182.805 105.228 182.957C105.228 182.957 103.709 182.197 104.469 180.98C104.469 180.828 105.38 180.219 105.987 179.763C106.291 179.459 106.746 179.307 107.202 179.459C109.024 179.611 114.49 180.676 116.312 186.911Z" fill="#EEF9F9"/>
<path d="M102.646 186.607C103.102 187.215 104.013 187.672 105.076 188.128C105.987 188.432 107.05 188.736 108.113 188.736C108.113 188.736 109.024 187.976 107.961 187.063C106.898 185.999 103.709 185.847 102.646 186.607Z" fill="#EEF9F9"/>
<path d="M105.076 188.128C107.505 188.888 110.087 189.04 112.213 188.736C110.998 188.128 109.328 187.671 107.505 187.671C106.594 187.671 105.683 187.823 104.772 187.976C104.924 187.976 105.076 188.128 105.076 188.128Z" fill="#FFABAB"/>
<path d="M94.295 204.249C95.5098 216.72 88.525 244.247 86.8547 250.482C87.0065 250.787 87.3102 250.939 87.462 251.243L101.584 243.943C107.961 217.328 118.286 209.572 125.727 206.226C122.842 204.857 119.957 203.489 117.072 202.12C99.6096 193.451 94.9024 187.063 94.9024 187.063C94.9024 187.063 99.4577 193.755 94.295 204.249Z" fill="#D8A98F"/>
<path d="M134.534 199.382C134.534 199.382 138.178 200.295 135.445 204.097C132.712 207.899 124.056 208.051 126.182 203.184C128.46 198.318 134.534 199.382 134.534 199.382Z" fill="#EABFA5"/>
<path d="M123.145 180.676C123.145 180.676 130.434 177.33 132.408 186.455C132.56 186.303 130.738 180.22 123.145 180.676Z" fill="#822A2A"/>
<path d="M126.182 178.395C126.182 178.395 136.356 175.657 135.293 185.087C135.293 185.087 133.774 177.939 126.182 178.395Z" fill="#333333"/>
<path d="M116.312 173.528C116.312 173.528 122.082 173.832 122.386 176.874C122.386 177.026 123.145 170.334 116.312 173.528Z" fill="#333333"/>
<path d="M119.653 177.938C119.653 177.938 120.412 173.832 113.276 176.265C113.276 176.417 117.831 175.505 119.653 177.938Z" fill="#822A2A"/>
<path d="M115.401 178.09L114.187 177.026C114.187 177.026 114.794 175.657 117.983 176.874C121.171 178.09 123.449 177.33 123.449 177.33L117.527 181.588L115.401 178.09Z" fill="#F7CAB2"/>
<path d="M112.364 178.699L114.187 177.178C114.946 176.569 116.009 176.874 116.312 177.786L117.375 181.74C117.375 181.74 115.857 179.611 112.364 178.699Z" fill="#D8A98F"/>
<path d="M133.774 201.055C133.774 201.055 134.382 204.553 129.371 204.553C129.371 204.553 131.8 203.489 131.193 202.576C130.738 201.664 129.371 201.664 129.371 201.664C129.371 201.664 131.8 201.511 132.104 201.968C132.408 202.424 132.256 203.336 132.256 203.336L133.774 201.055Z" fill="#D8A98F"/>
<path d="M127.549 198.47C127.549 198.47 135.141 197.557 135.9 192.234C135.9 192.234 138.785 191.474 141.215 189.04C143.644 186.759 137.115 201.359 137.115 201.359C137.115 201.359 135.597 198.622 128.764 201.663L127.549 198.47Z" fill="#333333"/>
<path d="M139.393 21.2916C141.367 25.0937 146.681 24.3333 150.477 21.5958C154.121 18.8583 155.033 14.5999 154.425 10.9499C152.907 1.36865 141.67 -2.8897 131.345 2.12907C117.983 8.3645 114.794 21.1395 114.338 32.5458C114.187 38.1729 116.616 48.3626 108.113 50.948C102.798 52.6209 100.065 48.2105 98.8503 44.5605C98.0911 42.1271 98.243 38.4771 102.039 37.5646C105.683 36.6521 108.265 40.7584 103.709 40.7584C103.861 42.1271 104.165 43.3438 104.317 44.7125C104.62 44.5605 104.772 44.4084 105.076 44.2563C108.113 42.7355 105.38 39.2375 102.495 40.7584C102.191 40.9104 102.039 41.0625 101.735 41.2146C99.9133 42.1271 100.217 45.1688 102.343 45.1688C105.987 45.1688 110.694 44.2563 111.757 40.6063C112.82 37.1084 109.328 33.9146 105.835 33.1542C101.584 32.3938 97.0282 34.5229 94.7506 37.8688C91.8655 42.1271 93.6877 46.8417 95.9653 50.4917C98.3948 54.2938 101.887 56.5751 107.354 55.6626C112.364 54.9022 116.464 51.7084 118.286 47.6021C120.412 42.5834 119.349 37.1084 119.501 32.0896C119.653 25.2458 120.564 17.6416 125.879 11.7103C130.738 6.23533 140.152 1.52073 146.377 6.5395C148.503 8.21242 149.566 10.9499 149.566 13.5354C149.566 14.752 149.414 16.1208 148.655 17.1854C148.351 17.6416 144.859 20.227 144.555 19.7708C143.189 17.1854 138.178 18.8583 139.393 21.2916Z" fill="#E5A920"/>
<path d="M182.82 73.9129L174.165 48.2107L171.432 39.9982L162.777 14.296C162.321 12.7752 160.347 12.0148 158.525 12.6231C156.703 13.2314 155.64 14.9043 156.095 16.4252L156.247 16.7294C150.022 18.8585 144.555 22.8127 141.215 27.8315C138.937 31.1773 136.963 35.4357 136.204 40.3024C135.141 46.842 129.978 52.7732 122.538 55.2066L122.082 55.3587C117.223 57.0316 112.213 56.8795 107.809 55.2066L102.95 53.2295C100.824 52.4691 98.243 52.317 95.9653 53.2295L99.6096 64.0274L102.343 72.24L105.987 83.0379C108.265 82.2775 110.39 80.7567 111.453 78.7796L114.187 74.217C116.616 70.2629 120.716 67.0691 125.575 65.5483L126.03 65.3962C133.319 62.9628 141.063 64.4837 145.922 69.1983C149.414 72.5441 153.666 74.6733 157.462 76.0421C163.232 78.0191 169.913 77.8671 176.139 75.89V76.0421C176.594 77.5629 178.568 78.3233 180.391 77.715C182.213 77.1066 183.276 75.2816 182.82 73.9129Z" fill="#E5A920"/>
<path d="M136.356 52.0128C138.937 49.4273 143.189 43.6482 145.618 40.7586C148.959 36.9565 153.666 33.7627 159.132 31.6335C159.74 31.3294 175.683 76.3462 176.291 76.1941L161.106 30.8731L160.954 30.5689C160.499 29.3523 161.714 27.9835 163.536 27.3752C165.358 26.7669 167.18 27.2231 167.484 28.2877L162.625 13.9918C162.169 12.471 160.195 11.7106 158.373 12.3189C156.551 12.9272 155.488 14.6001 155.944 16.121L156.095 16.4252C149.87 18.5543 144.404 22.5085 141.063 27.5273C138.785 30.8731 136.811 35.1315 136.052 39.9981C134.989 46.5378 129.826 52.469 122.386 54.9024L121.931 55.0544C117.072 56.7274 112.061 56.5753 107.657 54.9024L102.798 52.9253C100.672 52.1649 98.0911 52.0128 95.8135 52.9253L99.3059 63.5711C101.584 62.8107 105.987 62.3545 110.239 61.7461C110.542 62.0503 132.104 56.119 136.356 52.0128Z" fill="#C68D1A"/>
<path d="M159.892 82.2773C159.132 78.171 163.991 75.4335 168.547 75.4335C173.102 75.4335 176.443 78.3231 178.113 81.669C182.668 90.1857 176.291 100.375 164.902 102.657C150.477 105.698 140.152 97.4857 133.015 88.6648C129.523 84.2544 125.271 74.6731 116.92 77.7148C111.605 79.6919 112.213 84.8627 113.427 88.3606C114.187 90.794 116.464 93.5315 120.108 92.0107C123.601 90.4898 123.145 85.6231 119.501 88.5127C118.894 87.2961 118.286 86.0794 117.679 85.0148C117.983 85.0148 118.286 84.8627 118.59 84.8627C121.931 84.2544 121.931 88.6648 118.59 89.2731C118.286 89.2731 117.983 89.4252 117.679 89.4252C115.553 89.7294 114.187 87.144 115.857 85.9273C118.59 83.646 122.994 81.669 126.03 83.9502C128.915 86.0794 128.156 90.794 125.727 93.5315C122.842 96.7253 117.983 97.7898 114.035 96.5732C109.176 94.9003 107.809 90.0336 107.354 85.7752C107.05 81.3648 108.417 77.2585 113.276 74.6731C117.831 72.2397 122.994 72.2397 126.941 74.521C131.649 77.2585 134.078 82.1252 137.267 86.0794C141.518 91.4023 146.833 97.0294 154.577 98.5503C161.714 99.919 172.191 98.094 174.013 90.3377C174.62 87.7523 173.861 84.8627 172.343 82.8856C171.584 81.9731 170.672 80.9085 169.458 80.4523C168.85 80.3002 164.447 80.3002 164.599 80.9085C165.206 83.3419 160.347 85.0148 159.892 82.2773Z" fill="#E5A920"/>
<path d="M159.588 44.2564C160.347 44.2564 160.954 43.8001 161.41 43.1918C161.562 42.8876 161.866 42.4314 162.017 41.8231C162.017 41.671 162.017 41.3668 161.866 41.2147C161.41 40.6064 159.132 38.173 157.007 38.173C157.007 37.8689 156.855 37.5647 156.703 37.4126C156.399 37.1085 153.666 35.5876 151.844 36.348C151.692 36.196 151.692 36.0439 151.54 35.8918C151.54 35.8918 151.388 35.8918 151.388 35.7397C150.933 35.4355 148.2 35.2834 146.681 36.5001C146.529 36.348 146.377 36.348 146.226 36.348C146.226 36.348 146.226 36.348 146.074 36.348C145.163 36.348 143.037 37.2605 142.126 38.9335C141.974 38.9335 141.822 38.9335 141.822 38.9335H141.67H141.518C140.456 39.3897 138.937 41.3668 138.633 43.1918H138.482H138.33C138.178 43.1918 138.178 43.3439 138.026 43.3439C137.115 44.2564 136.204 47.4502 136.659 49.1231C136.659 49.2752 136.811 49.4272 136.811 49.5793C137.267 50.9481 138.178 51.7085 139.544 51.8606C139.696 52.0127 139.848 52.0127 140.152 52.1648C141.215 52.621 142.43 52.4689 143.189 51.7085C143.948 50.9481 144.555 49.7314 144.859 48.6668V48.5147C145.011 48.3627 145.011 48.0585 145.011 47.9064V47.7543C145.77 47.2981 146.377 46.5377 146.681 46.0814C146.833 45.9293 146.985 45.6251 146.985 45.4731C147.896 45.321 148.655 44.8647 148.959 44.7126C149.111 44.5606 149.414 44.5606 149.414 44.2564C150.325 44.4085 151.085 44.4085 151.54 44.4085C151.844 44.4085 151.996 44.4085 152.148 44.2564C152.907 44.8647 153.818 45.1689 154.273 45.321C154.577 45.4731 154.729 45.4731 155.033 45.321C155.64 46.2335 156.551 46.8418 157.007 47.2981L157.158 47.4502C157.462 47.7543 157.766 47.9064 158.221 47.7543C158.525 47.7543 158.677 47.6022 158.829 47.2981C159.436 46.5377 159.74 45.4731 159.588 44.2564ZM150.933 67.069C151.085 67.069 151.085 66.9169 151.236 66.7648C152.907 67.5252 155.336 66.9169 155.944 66.4606C156.095 66.3086 156.095 66.1565 156.247 66.0044C158.221 66.1565 160.195 64.1794 160.499 63.7231V63.571C160.499 63.419 160.499 63.2669 160.499 63.1148C162.473 62.5065 163.688 59.6169 163.688 59.3127C163.688 59.1606 163.688 58.8564 163.536 58.5523C165.054 57.3356 165.51 53.9898 165.51 53.2293C165.51 53.0773 165.358 52.7731 165.206 52.621C164.902 52.3168 164.295 52.0127 163.991 51.8606C163.232 51.5564 162.473 51.7085 161.866 52.1648C161.41 51.1002 160.499 50.3397 159.132 50.1877C158.829 50.1877 158.677 50.1877 158.373 50.1877C158.069 50.3397 157.766 50.6439 157.766 51.1002V51.2523C157.614 51.7085 157.31 52.9252 157.31 53.9898C157.007 54.1418 156.855 54.2939 156.703 54.5981C156.399 54.9023 155.944 55.6627 155.64 56.5752C155.184 56.5752 154.729 56.8794 154.577 57.3356C154.729 57.0314 154.881 56.8794 154.881 56.7273C154.577 56.8794 153.818 57.3356 153.21 58.096C152.907 57.9439 152.755 57.9439 152.451 58.096C151.996 58.096 151.236 58.2481 150.477 58.7044C150.325 58.5523 150.022 58.4002 149.718 58.4002C149.262 58.2481 148.351 58.096 147.44 58.096V57.9439C147.289 57.7919 147.137 57.4877 146.985 57.4877H146.833C145.922 56.8794 144.859 56.271 143.644 56.1189C142.581 55.9669 141.67 56.5752 141.063 57.6398C141.215 57.6398 141.215 57.7919 141.063 57.9439C140.152 58.8564 139.848 60.0731 140.304 61.4419C140.304 61.594 140.456 61.746 140.456 61.8981C141.215 63.571 143.796 65.5481 145.163 65.7002C145.315 65.7002 145.315 65.7002 145.466 65.7002H145.618C145.618 65.7002 145.77 65.7002 145.77 65.5481C147.137 66.9169 149.566 67.3731 150.629 67.2211C150.781 67.2211 150.781 67.2211 150.933 67.069C150.933 67.069 150.933 67.2211 150.933 67.069ZM154.729 57.3356C154.729 57.1835 154.729 57.1835 154.729 57.3356C154.729 57.1835 154.729 57.1835 154.729 57.3356ZM151.996 58.5523C151.996 58.5523 151.996 58.4002 152.148 58.4002C152.148 58.4002 151.996 58.5523 151.996 58.5523Z" fill="#C68D1A"/>
<path d="M147.137 40.4542C147.137 40.4542 146.074 38.7813 146.985 37.5646C147.896 36.1959 150.781 36.6521 150.629 36.6521C149.262 37.7167 148.048 39.0854 147.137 40.4542Z" fill="#EFB135"/>
<path d="M150.174 39.3894C149.111 40.1498 147.137 40.454 147.137 40.454C148.048 38.9331 149.262 37.7164 150.781 36.6519C150.781 36.8039 151.236 38.4769 150.174 39.3894Z" fill="#FCC34F"/>
<path d="M147.137 40.7583C147.137 40.7583 147.44 42.5833 148.503 43.1916C149.566 43.8 151.085 43.4958 151.085 43.4958C150.174 42.4312 148.807 41.3666 147.137 40.7583Z" fill="#FCC34F"/>
<path d="M150.325 40.9106C149.111 39.846 147.137 40.7585 147.137 40.7585C148.655 41.3669 150.022 42.4314 151.236 43.6481C151.236 43.6481 151.54 41.8231 150.325 40.9106Z" fill="#EFB135"/>
<path d="M151.236 39.998C151.236 39.998 150.629 38.173 151.844 37.4125C153.21 36.6521 155.944 38.0209 155.792 38.173C153.97 38.325 152.451 39.0855 151.236 39.998Z" fill="#EFB135"/>
<path d="M154.577 40.302C153.362 40.6062 151.236 39.9979 151.085 39.9979C152.299 39.0854 153.97 38.3249 155.792 38.1729C155.944 38.1729 155.944 39.9979 154.577 40.302Z" fill="#FCC34F"/>
<path d="M151.236 40.3022C151.236 40.3022 151.085 41.9752 151.996 43.0398C152.907 43.9523 154.577 44.4085 154.577 44.4085C153.666 43.0398 152.603 41.5189 151.236 40.3022Z" fill="#FCC34F"/>
<path d="M154.425 41.671C153.514 40.3022 151.237 40.3022 151.237 40.3022C152.603 41.5189 153.818 42.8877 154.577 44.4085C154.425 44.4085 155.336 43.0398 154.425 41.671Z" fill="#EFB135"/>
<path d="M155.488 41.3668C155.488 41.3668 155.336 39.3898 156.855 39.3898C158.373 39.2377 160.954 41.8231 160.803 41.9752C158.829 41.0627 157.007 40.9106 155.488 41.3668Z" fill="#EFB135"/>
<path d="M158.829 43.0396C157.462 42.7354 155.336 41.2146 155.336 41.2146C156.855 40.9104 158.677 41.0625 160.803 41.6708C160.803 41.8229 160.347 43.4958 158.829 43.0396Z" fill="#FCC34F"/>
<path d="M155.336 41.519C155.336 41.519 154.729 43.0399 155.336 44.2566C155.944 45.4732 157.614 46.6899 157.614 46.6899C157.31 45.017 156.399 43.192 155.336 41.519Z" fill="#FCC34F"/>
<path d="M158.373 44.2566C157.766 42.5836 155.336 41.519 155.488 41.519C156.551 43.192 157.31 45.017 157.766 46.842C157.614 46.842 158.98 45.7774 158.373 44.2566Z" fill="#EFB135"/>
<path d="M139.393 50.9478C139.393 50.9478 137.874 50.9478 137.419 48.9707C136.963 46.8415 138.482 44.104 138.482 44.2561C138.482 46.5373 138.785 48.8186 139.393 50.9478Z" fill="#EFB135"/>
<path d="M140 46.6892C140.152 48.3621 139.393 50.9475 139.393 50.9475C138.785 48.8184 138.33 46.5371 138.482 44.2559C138.482 44.2559 139.848 44.8642 140 46.6892Z" fill="#FCC34F"/>
<path d="M139.696 50.9477C139.696 50.9477 141.063 51.8602 141.974 51.0998C142.885 50.3394 143.341 48.3623 143.341 48.3623C141.974 48.8186 140.759 49.579 139.696 50.9477Z" fill="#FCC34F"/>
<path d="M141.063 47.4498C139.848 48.0581 139.544 50.9477 139.544 50.9477C140.607 49.579 141.974 48.6665 143.189 48.3623C143.341 48.3623 142.278 46.8415 141.063 47.4498Z" fill="#EFB135"/>
<path d="M140.911 46.0819C140.911 46.0819 139.393 45.4736 139.393 43.6486C139.393 41.6715 141.518 39.9985 141.67 39.9985C141.063 41.9756 140.759 43.9527 140.911 46.0819Z" fill="#EFB135"/>
<path d="M142.581 42.7357C142.278 44.2565 140.911 45.9295 140.911 46.0815C140.759 44.1045 141.063 41.9753 141.67 39.9982C141.67 39.8461 142.885 41.0628 142.581 42.7357Z" fill="#FCC34F"/>
<path d="M141.063 46.2337C141.063 46.2337 142.126 47.6025 143.341 47.2983C144.403 46.9941 145.315 45.6254 145.466 45.6254C143.948 45.3212 142.581 45.4733 141.063 46.2337Z" fill="#FCC34F"/>
<path d="M143.341 43.8003C141.974 43.8003 140.911 46.0816 141.063 46.2336C142.581 45.6253 143.948 45.4732 145.315 45.6253C145.315 45.6253 144.707 43.8003 143.341 43.8003Z" fill="#EFB135"/>
<path d="M143.492 42.4313C143.492 42.4313 142.126 41.2147 142.733 39.6938C143.341 38.0209 145.77 37.2605 145.77 37.4126C144.707 38.9334 143.948 40.7584 143.492 42.4313Z" fill="#EFB135"/>
<path d="M146.074 40.3022C145.315 41.5189 143.492 42.5835 143.492 42.5835C143.948 40.7584 144.707 39.0855 145.77 37.4126C145.922 37.4126 146.833 38.9334 146.074 40.3022Z" fill="#FCC34F"/>
<path d="M143.644 42.7354C143.644 42.7354 144.404 44.4083 145.618 44.7124C146.681 44.8645 148.048 43.952 148.048 44.1041C146.833 43.1916 145.315 42.7354 143.644 42.7354Z" fill="#FCC34F"/>
<path d="M146.529 41.5186C145.163 41.0624 143.644 42.5832 143.644 42.7353C145.163 42.7353 146.681 43.1916 148.048 43.952C148.048 43.952 147.896 42.127 146.529 41.5186Z" fill="#EFB135"/>
<path d="M154.425 62.354C154.425 62.354 154.577 64.3311 156.096 64.6353C157.614 65.0915 159.588 63.1144 159.588 63.1144C157.766 63.2665 155.944 62.9623 154.425 62.354Z" fill="#EFB135"/>
<path d="M157.462 61.2896C156.096 61.2896 154.425 62.3541 154.425 62.3541C155.944 62.9625 157.766 63.2666 159.588 63.1146C159.588 63.1146 158.829 61.4416 157.462 61.2896Z" fill="#FCC34F"/>
<path d="M154.273 62.0513C154.273 62.0513 153.362 60.3784 153.97 59.3138C154.425 58.2492 155.792 57.4888 155.944 57.4888C155.64 59.0096 155.184 60.6825 154.273 62.0513Z" fill="#FCC34F"/>
<path d="M156.855 60.073C156.551 61.5938 154.425 62.2021 154.425 62.05C155.336 60.5292 155.792 59.0084 155.944 57.3354C155.792 57.3354 157.158 58.7042 156.855 60.073Z" fill="#EFB135"/>
<path d="M157.918 60.2252C157.918 60.2252 158.525 62.0502 160.043 61.8981C161.562 61.746 162.929 58.8564 162.777 58.8564C161.258 59.921 159.588 60.2252 157.918 60.2252Z" fill="#EFB135"/>
<path d="M160.499 57.9437C159.284 58.3999 157.918 60.225 157.918 60.225C159.436 60.225 161.258 59.7687 162.777 58.8562C162.777 58.8562 161.714 57.4874 160.499 57.9437Z" fill="#FCC34F"/>
<path d="M157.766 60.0729C157.766 60.0729 156.551 58.8563 156.703 57.4875C156.855 56.1188 157.918 54.9021 157.918 54.75C158.221 56.4229 158.221 58.2479 157.766 60.0729Z" fill="#FCC34F"/>
<path d="M159.436 57.0313C159.588 58.7042 157.766 60.0729 157.766 60.0729C158.069 58.2479 158.221 56.4229 157.918 54.75C157.918 54.75 159.436 55.3583 159.436 57.0313Z" fill="#EFB135"/>
<path d="M160.499 56.7272C160.499 56.7272 161.562 58.4001 162.777 57.4876C164.143 56.7272 164.599 53.0771 164.447 53.0771C163.384 54.7501 162.017 55.9667 160.499 56.7272Z" fill="#EFB135"/>
<path d="M162.321 53.0771C161.41 54.2938 160.651 56.575 160.651 56.575C162.169 55.8146 163.536 54.75 164.599 52.925C164.599 52.925 163.232 52.0125 162.321 53.0771Z" fill="#FCC34F"/>
<path d="M160.347 56.5749C160.347 56.5749 158.981 55.8144 158.677 54.2936C158.525 52.9248 159.132 50.9478 159.132 50.9478C159.74 52.6207 160.195 54.4457 160.347 56.5749Z" fill="#FCC34F"/>
<path d="M161.106 52.6207C161.562 54.2936 160.347 56.5749 160.347 56.5749C160.195 54.5978 159.74 52.6207 159.132 50.9478C159.132 50.9478 160.651 50.9478 161.106 52.6207Z" fill="#EFB135"/>
<path d="M141.974 58.7041C141.974 58.7041 140.759 59.6166 141.518 61.4416C142.43 63.4187 145.163 64.6354 145.163 64.6354C143.796 62.8104 142.733 60.6812 141.974 58.7041Z" fill="#EFB135"/>
<path d="M145.011 61.7458C144.1 60.377 141.974 58.8562 141.974 58.7041C142.733 60.8333 143.796 62.8104 145.163 64.6354C145.315 64.6354 146.074 63.1145 145.011 61.7458Z" fill="#FCC34F"/>
<path d="M142.126 58.5521C142.126 58.5521 142.581 57.0312 143.948 57.0312C145.163 57.1833 146.681 58.4 146.681 58.4C145.466 58.8563 143.796 58.8563 142.126 58.5521Z" fill="#FCC34F"/>
<path d="M145.466 60.3772C144.1 60.6814 142.126 58.4001 142.126 58.4001C143.796 58.8564 145.315 58.7043 146.681 58.248C146.681 58.248 146.681 60.2251 145.466 60.3772Z" fill="#EFB135"/>
<path d="M146.074 61.7456C146.074 61.7456 145.163 63.2664 146.378 64.6352C147.592 66.156 150.325 66.3081 150.325 66.156C148.655 64.9394 147.289 63.4185 146.074 61.7456Z" fill="#EFB135"/>
<path d="M149.414 63.2667C148.2 62.2021 146.074 61.7458 146.074 61.5938C147.137 63.2667 148.655 64.7875 150.325 66.0042C150.477 66.1563 150.629 64.3313 149.414 63.2667Z" fill="#FCC34F"/>
<path d="M146.226 61.4417C146.226 61.4417 146.226 59.6167 147.289 59.1604C148.352 58.7042 149.87 59.3125 150.022 59.3125C148.959 60.3771 147.744 61.1375 146.226 61.4417Z" fill="#FCC34F"/>
<path d="M149.414 61.8979C148.352 62.6583 146.074 61.4417 146.074 61.4417C147.592 61.1375 148.807 60.3771 149.87 59.3125C149.87 59.3125 150.477 61.1375 149.414 61.8979Z" fill="#EFB135"/>
<path d="M150.325 62.8101C150.325 62.8101 150.022 64.6351 151.388 65.5476C152.755 66.6122 155.336 65.5476 155.336 65.5476C153.514 64.9392 151.844 64.0267 150.325 62.8101Z" fill="#EFB135"/>
<path d="M153.818 63.1141C152.603 62.5058 150.477 62.8099 150.477 62.8099C151.844 64.0266 153.514 64.9391 155.336 65.5474C155.336 65.5474 155.033 63.7224 153.818 63.1141Z" fill="#FCC34F"/>
<path d="M150.325 62.6593C150.325 62.6593 149.87 60.8343 150.629 59.9218C151.388 59.0093 153.059 59.0093 153.059 59.0093C152.451 60.378 151.54 61.5947 150.325 62.6593Z" fill="#FCC34F"/>
<path d="M153.364 61.7455C152.604 62.9622 150.327 62.6581 150.327 62.506C151.541 61.4414 152.453 60.2247 153.06 58.856C153.06 59.008 154.123 60.681 153.364 61.7455Z" fill="#EFB135"/>
<path d="M112.524 96.9792L92.8358 38.1494L83.0463 41.436L102.735 100.266L112.524 96.9792Z" fill="#846C5D"/>
<path d="M63.6719 39.7616L88.2824 113.299L109.877 106.049L85.2663 32.5117L63.6719 39.7616Z" fill="#846C5D"/>
<path d="M73.5426 50.0557L89.9496 99.0806L101.755 95.1173L85.3475 46.0925L73.5426 50.0557Z" fill="#FCC34F"/>
<path d="M165.51 286.526C160.043 285.309 156.399 282.42 153.97 279.226L144.1 293.065L134.989 254.588C132.256 243.79 120.412 235.122 109.024 229.19C83.3623 236.794 84.2733 213.526 84.7289 208.963C79.718 178.851 101.735 153.3 121.02 129.271L99.154 121.667C17.3102 196.492 9.71802 320.897 9.71802 320.897L109.024 335.649C93.5358 317.095 110.998 307.057 102.191 305.993C100.369 305.841 104.924 302.191 105.228 300.366C105.531 298.693 103.709 297.476 104.165 295.955C107.809 284.549 115.098 278.77 115.098 278.77C115.705 326.98 145.922 337.626 145.922 337.626L165.51 286.526Z" fill="#3AC1B0"/>
<path d="M91.1063 241.965C90.0434 241.661 88.9805 241.965 88.6768 242.878C88.3731 243.638 89.1323 244.551 90.1952 244.855C91.2582 245.159 92.3211 244.855 92.6247 243.942C92.7766 243.334 92.1692 242.421 91.1063 241.965ZM86.3992 254.74C86.7028 253.98 85.9436 253.067 84.8807 252.763C83.8178 252.459 82.7549 252.763 82.4512 253.676C82.1475 254.436 82.9067 255.349 83.9696 255.653C85.0326 255.957 86.0955 255.501 86.3992 254.74ZM85.3362 267.971C84.2733 267.971 83.3623 268.58 83.3623 269.492C83.3623 270.405 84.2733 271.013 85.3362 271.013C86.3991 271.013 87.3102 270.405 87.3102 269.492C87.4621 268.732 86.551 267.971 85.3362 267.971ZM83.9696 280.29C83.2104 280.594 82.9067 281.659 83.3623 282.724C83.8178 283.788 84.7289 284.397 85.4881 284.092C86.2473 283.788 86.551 282.724 86.0955 281.659C85.6399 280.594 84.7289 279.986 83.9696 280.29ZM74.5553 290.328C73.6443 289.719 72.4295 289.872 71.974 290.632C71.5185 291.392 71.974 292.457 73.0369 292.913C73.948 293.522 75.1627 293.369 75.6182 292.609C75.9219 292.001 75.6182 290.936 74.5553 290.328Z" fill="#4ADDC7"/>
<path d="M73.4924 304.928L73.1887 303.407C76.3774 302.647 76.6811 295.803 76.3774 293.218V292.914L80.4772 287.591L80.6291 287.439C80.7809 287.439 89.7397 283.332 91.8655 281.811C92.321 281.203 90.9544 277.249 89.8915 274.511C88.0694 269.645 85.9436 263.561 86.0954 258.543C86.3991 250.482 92.0173 245.92 93.8395 244.551L91.5618 239.38L92.321 239.076C92.321 239.076 96.4208 237.555 98.2429 236.186C98.5466 236.034 98.5466 235.882 98.5466 235.73C98.5466 234.97 97.3319 233.753 96.7245 233.297L97.6356 232.08C97.9393 232.232 100.065 233.905 100.065 235.73C100.065 236.338 99.7614 236.947 99.154 237.403C97.6356 238.62 94.9024 239.684 93.6876 240.293L95.9653 245.159L95.3579 245.463C95.3579 245.463 88.0694 249.874 87.7657 258.543C87.6139 263.257 89.7397 269.189 91.41 273.903C93.2321 278.922 94.295 281.964 92.7766 283.028C90.6508 284.397 82.7549 288.047 81.3883 288.655L77.8959 293.218C77.8959 295.195 78.1996 303.712 73.4924 304.928Z" fill="#39AA99"/>
<path d="M155.792 285.918L136.052 323.178C115.553 295.499 116.768 269.188 116.768 269.188C107.657 313.597 145.315 335.801 145.315 335.801L161.714 290.936L155.792 285.918Z" fill="#39AA99"/>
<path d="M17.462 317.399C17.9176 323.482 23.9913 314.813 23.9913 314.813C23.9913 314.813 25.0542 290.024 24.4469 286.982C23.9913 283.94 17.462 317.399 17.462 317.399Z" fill="#39AA99"/>
<path d="M100.976 305.232C100.369 299.757 -2.73317 250.178 103.254 150.867C103.254 150.867 78.807 158.775 79.2625 152.844C80.0217 142.655 85.0326 135.963 85.0326 135.963C67.8742 154.821 34.4686 209.115 44.0347 254.284C54.5119 304.624 85.1844 305.384 85.1844 305.384C85.1844 305.384 61.6486 297.476 58.1562 269.645C57.8525 269.797 68.026 294.13 100.976 305.232Z" fill="#39AA99"/>
<path d="M91.5618 236.186C93.0803 236.643 86.551 231.016 85.6399 227.974C84.8807 225.388 85.3362 223.259 86.0955 221.738C84.577 217.936 84.2733 213.678 84.4252 210.94C80.7809 214.895 69.3926 228.43 69.3926 239.684C69.3926 239.684 76.0738 220.826 82.9067 219.305C82.7549 219.153 79.718 232.08 91.5618 236.186Z" fill="#39AA99"/>
<path d="M112.213 269.188C100.824 285.157 83.666 273.751 83.666 273.751L102.343 295.803C102.343 295.803 107.202 280.899 114.794 274.207L120.564 258.999C120.564 258.999 114.642 265.842 112.213 269.188Z" fill="#39AA99"/>
<path d="M132.256 294.739L142.885 289.72L128.46 293.218L131.497 307.209L132.256 294.739Z" fill="#39AA99"/>
<path d="M97.6355 228.278L98.5466 226.453L103.709 224.171L110.087 226.605L114.187 232.688C114.187 232.688 102.646 232.992 99.6095 231.471C96.4208 229.799 97.6355 228.278 97.6355 228.278Z" fill="#39AA99"/>
<path d="M94.295 229.494L102.95 224.932L106.139 236.947L117.375 233.449L116.768 224.78L103.254 223.107L94.295 229.494Z" fill="#4ADDC7"/>
<path d="M100.672 229.342C100.672 229.342 125.727 258.847 153.97 241.661C153.97 241.661 142.429 257.022 128.915 254.132C115.401 251.242 101.584 238.163 99.4577 231.015L100.672 229.342Z" fill="#DB7631"/>
<path d="M97.6356 227.213C97.6356 227.213 116.312 283.94 166.421 237.859C166.421 237.859 169.913 232.384 169.306 216.415C169.306 215.503 168.395 215.046 167.636 215.503L152.299 224.628C152.299 224.628 145.922 259.911 121.475 250.482C104.165 243.942 97.6356 227.213 97.6356 227.213Z" fill="#B64E00"/>
<path d="M91.7136 227.517C91.7136 227.517 96.2689 224.02 98.8503 225.54C101.432 227.061 103.254 229.951 103.254 229.951L100.217 232.84C100.217 232.84 94.9023 232.536 91.7136 227.517Z" fill="#B64E00"/>
<path d="M89.2841 220.369C89.2841 220.369 89.2841 225.388 94.295 228.278C94.295 228.278 98.2429 230.407 96.1171 230.863C93.9913 231.167 90.4989 228.734 88.9804 224.627C87.462 220.521 89.2841 220.369 89.2841 220.369Z" fill="#DB7631"/>
<path d="M91.4099 228.582L96.1171 219.913L85.9436 207.594L84.4251 208.355C84.4251 208.355 83.0585 224.476 91.4099 228.582Z" fill="#4ADDC7"/>
<path d="M99.154 121.667L120.716 129.119C129.523 118.017 138.026 109.196 143.037 104.177L152.299 102.809L155.792 98.7024H158.373C158.373 98.7024 159.892 97.4857 159.588 96.4211C158.373 93.0753 156.095 94.292 155.184 92.467C153.514 89.1211 151.692 85.319 150.933 83.7982C150.022 81.3648 150.022 78.019 146.681 78.4752C127.397 80.6044 135.293 93.5316 130.586 97.942C117.527 106.002 105.835 115.127 95.3579 125.165C96.7245 124.1 97.9393 122.884 99.154 121.667Z" fill="#EABFA5"/>
<path d="M172.191 247.896H151.236L145.922 254.74C145.922 254.74 146.226 258.999 149.718 259.607C151.236 259.911 152.148 258.847 152.603 257.63C153.21 262.344 158.525 268.124 160.195 269.949L153.818 278.922C156.247 282.115 160.043 285.005 165.358 286.222L170.976 271.469C174.772 262.649 172.191 247.896 172.191 247.896Z" fill="#EABFA5"/>
<path d="M9.26246 314.357C9.26246 314.357 38.1128 285.917 107.809 311.619L104.924 319.376C104.924 319.376 171.28 349.793 188.134 401.957L94.295 440.13L103.102 467.353C103.102 467.353 99.3058 472.676 92.0173 464.768C84.7288 456.86 71.6703 427.507 71.6703 427.507L143.189 386.293C143.189 386.293 105.38 352.378 63.9262 361.351C63.9262 361.351 19.436 428.724 37.3536 517.541C37.3536 517.541 39.1757 560.885 26.7245 558.756C14.4251 556.627 21.7137 517.845 21.7137 517.845C21.7137 517.845 -17.4621 432.07 9.26246 314.357Z" fill="#333333"/>
<path d="M104.013 113.15C104.013 113.15 115.705 99.0065 126.79 124.252L117.072 138.396C117.072 138.396 106.443 120.602 90.8026 125.773L104.013 113.15Z" fill="#4ADDC7"/>
<path d="M151.692 277.097C151.692 277.097 159.892 286.526 169.154 285.461L161.41 306.753C161.41 306.753 148.048 307.057 142.581 287.743L151.692 277.097Z" fill="#4ADDC7"/>
<path opacity="0.2" d="M66.3558 594.648C61.1931 581.721 56.9414 568.337 53.2972 554.954C49.6529 541.418 46.7679 527.883 44.3384 514.043L42.82 503.702L41.6052 493.36C41.1497 489.862 40.846 486.364 40.6941 482.866C40.3905 479.368 40.0868 475.87 40.0868 472.372C39.4794 458.381 40.0868 444.389 41.757 430.549L41.1497 441.043C40.9978 442.716 40.846 444.541 40.846 446.214V451.385V456.556C40.846 458.229 40.846 460.054 40.846 461.726L41.3015 472.22C42.2126 486.06 43.5792 499.9 46.1605 513.587C48.4382 527.275 51.3232 540.962 54.8156 554.346C56.4859 561.037 58.308 567.881 60.4338 574.421C61.8004 581.416 64.0781 588.108 66.3558 594.648Z" fill="#333333"/>
<path opacity="0.2" d="M70.6074 567.577C68.1779 562.254 66.0521 556.779 64.2299 551.304C62.256 545.829 60.7375 540.202 59.2191 534.575C57.7007 528.947 56.4859 523.168 55.423 517.541C54.3601 511.762 53.7527 505.983 53.2972 500.204C53.9046 503.093 54.2082 505.983 54.8156 508.872L55.5748 513.131L56.4859 517.389C57.7007 523.016 59.0673 528.795 60.5857 534.27C61.9523 539.897 63.6226 545.525 65.2928 551C66.0521 553.737 66.9631 556.627 67.8742 559.364C68.7853 562.102 69.6963 564.839 70.6074 567.577Z" fill="#333333"/>
<path opacity="0.3" d="M94.1432 624C122.824 624 146.074 621.617 146.074 618.677C146.074 615.737 122.824 613.354 94.1432 613.354C65.4627 613.354 42.2126 615.737 42.2126 618.677C42.2126 621.617 65.4627 624 94.1432 624Z" fill="#333333"/>
<g opacity="0.3">
<path opacity="0.3" d="M191.779 379.905C194.967 384.924 197.853 390.095 200.738 395.266C203.623 400.437 206.508 405.607 209.241 410.778L210 412.147L208.633 412.755C204.534 414.58 200.586 416.405 196.486 418.23C192.386 420.055 188.286 421.728 184.338 423.401C176.139 426.747 167.939 430.093 159.588 432.983C167.332 428.724 175.38 424.77 183.276 420.968C187.223 419.143 191.323 417.166 195.271 415.341C199.371 413.516 203.319 411.691 207.419 410.018L206.659 411.995C204.078 406.672 201.497 401.349 198.915 396.026C196.486 390.703 194.056 385.38 191.779 379.905Z" fill="#333333"/>
</g>
</g>
<defs>
<clipPath id="clip0">
<rect width="210" height="624" fill="white"/>
</clipPath>
</defs>
</svg>
