<svg width="50" height="50" viewBox="0 0 50 50" fill="none" xmlns="http://www.w3.org/2000/svg">
<path d="M25 0C11.2209 0 0 11.2209 0 25C0 38.7791 11.2209 50 25 50C38.7791 50 50 38.7791 50 25C50 11.2209 38.7791 0 25 0ZM36.6279 20.4651L22.6744 34.4186C22.2093 34.8837 21.6279 35.1163 21.0465 35.1163C20.4651 35.1163 19.8837 34.8837 19.4186 34.4186L12.2093 27.3256C11.2791 26.3953 11.2791 24.9419 12.2093 24.0116C13.1395 23.0814 14.593 23.0814 15.5233 24.0116L20.9884 29.4767L33.314 17.1512C34.2442 16.2209 35.6977 16.2209 36.6279 17.1512C37.5 18.0814 37.5 19.5349 36.6279 20.4651Z" fill="#58B58B"/>
</svg>
