<svg width="26" height="26" viewBox="0 0 26 26" fill="none" xmlns="http://www.w3.org/2000/svg">
<path d="M22.085 8.38005C23.1825 10.5446 23.4723 13.0296 22.9022 15.3886C22.3322 17.7476 20.9397 19.826 18.9748 21.2506C17.01 22.6751 14.6017 23.3524 12.1823 23.1608C9.76302 22.9692 7.49129 21.9212 5.77521 20.2052C4.05913 18.4891 3.01117 16.2174 2.81956 13.798C2.62795 11.3787 3.30525 8.97034 4.7298 7.00553C6.15436 5.04071 8.2328 3.64822 10.5918 3.07817C12.9508 2.50812 15.4358 2.79787 17.6003 3.89537L19.6601 1.83565C16.9363 0.21083 13.7126 -0.362258 10.5958 0.224279C7.47898 0.810815 4.68409 2.51651 2.73731 5.02024C0.790531 7.52397 -0.173828 10.653 0.0257912 13.8182C0.22541 16.9835 1.57524 19.9666 3.82114 22.2059C6.06704 24.4452 9.05408 25.7862 12.2199 25.9766C15.3857 26.1669 18.5119 25.1933 21.0099 23.2392C23.5079 21.2851 25.2054 18.4852 25.7827 15.3666C26.3601 12.2481 25.7775 9.02608 24.1447 6.30716L22.085 8.38005Z" fill="#D85243"/>
<path d="M25.3062 4.13228L22.2265 3.75389L21.8481 0.67417L18.5578 3.96447V6.19858L17.0179 7.73844L15.2971 9.44611L13.8033 10.9399C13.3312 10.7499 12.808 10.7289 12.3222 10.8803C11.8364 11.0317 11.4178 11.3463 11.1372 11.7708C10.8567 12.1953 10.7314 12.7038 10.7825 13.2101C10.8337 13.7163 11.0582 14.1894 11.418 14.5492C11.7778 14.9091 12.2509 15.1335 12.7572 15.1847C13.2635 15.2359 13.7719 15.1106 14.1964 14.83C14.6209 14.5494 14.9355 14.1308 15.0869 13.645C15.2383 13.1592 15.2173 12.636 15.0273 12.1639L16.5343 10.6833L19.7818 7.43574H22.0159L25.3062 4.13228Z" fill="#D85243"/>
<path d="M14.6391 9.09405L17.2713 6.46181C15.6538 5.4029 13.7011 4.98143 11.7909 5.27892C9.88065 5.57642 8.1486 6.57173 6.92973 8.07235C5.71087 9.57298 5.0918 11.4723 5.19225 13.4029C5.29271 15.3336 6.10556 17.1584 7.47358 18.5244C8.84161 19.8905 10.6676 20.7006 12.5984 20.7983C14.5292 20.8959 16.4276 20.274 17.9264 19.053C19.4253 17.8319 20.4181 16.0984 20.7128 14.1878C21.0075 12.2771 20.5831 10.325 19.5219 8.70908L16.8896 11.3413C17.2726 12.2451 17.3295 13.254 17.0505 14.1952C16.7714 15.1363 16.1739 15.9511 15.3601 16.5001C14.5463 17.0491 13.567 17.2981 12.5898 17.2044C11.6127 17.1107 10.6985 16.6802 10.0039 15.9866C9.30927 15.293 8.87741 14.3794 8.78229 13.4024C8.68717 12.4254 8.9347 11.4457 9.4825 10.6311C10.0303 9.81655 10.8443 9.21778 11.785 8.93736C12.7257 8.65695 13.7347 8.71234 14.6391 9.09405Z" fill="#D85243"/>
</svg>
