<svg width="656" height="400" viewBox="0 0 656 400" fill="none" xmlns="http://www.w3.org/2000/svg">
<g clip-path="url(#clip0)">
<path d="M588.181 378.321C578.061 377.432 569.54 368.014 565.811 358.418C562.083 348.823 564.214 337.272 571.138 329.809C575.931 324.656 582.855 321.102 585.873 314.705C589.601 307.064 586.583 297.823 589.601 289.827C592.442 282.541 599.721 278.099 604.87 272.235C608.775 267.792 611.616 262.461 614.989 257.486C618.362 252.51 622.446 247.712 627.949 245.402C633.453 243.092 640.555 243.803 644.46 248.423C647.656 252.332 647.834 258.019 646.946 263.172C646.058 268.148 644.283 273.123 644.283 278.276C644.283 286.095 648.544 293.025 651.917 300.133C655.113 307.241 657.598 315.593 654.047 322.523C650.319 329.809 641.087 333.363 638.602 341.004C637.004 345.802 638.779 351.133 639.134 356.108C639.844 368.192 632.565 380.453 621.381 385.251C610.373 390.049 596.525 387.206 588.181 378.321Z" fill="url(#paint0_linear)"/>
<path d="M598.834 386.85C598.834 386.85 598.834 386.495 598.834 385.784C598.834 385.073 598.834 384.007 599.011 382.408C599.189 379.565 599.721 375.478 600.787 370.502C601.852 365.526 603.627 359.662 605.403 353.265C607.356 346.868 609.486 339.76 611.616 332.297C616.055 317.37 620.138 303.865 623.156 294.091C624.754 289.294 625.819 285.384 626.707 282.541C627.062 281.297 627.417 280.231 627.772 279.342C627.95 278.632 628.127 278.276 628.127 278.276C628.127 278.276 628.127 278.632 627.95 279.342C627.772 280.053 627.417 281.119 627.062 282.541C626.352 285.384 625.109 289.294 623.689 294.091C620.848 303.865 616.943 317.37 612.504 332.297C610.196 339.76 608.066 346.868 606.113 353.265C604.16 359.662 602.385 365.526 601.142 370.502C599.899 375.478 599.366 379.565 599.011 382.408C598.834 383.829 598.834 384.896 598.656 385.606C599.011 386.495 598.834 386.85 598.834 386.85Z" fill="#E1E1E1"/>
<path d="M638.069 316.482C638.069 316.659 636.471 316.659 633.808 317.192C632.565 317.37 630.967 317.903 629.369 318.436C627.771 318.969 625.996 319.68 624.221 320.569C622.445 321.457 620.848 322.523 619.427 323.589C618.007 324.656 616.942 325.722 615.876 326.61C613.924 328.387 613.036 329.631 612.858 329.631C612.858 329.631 613.569 328.21 615.344 326.077C616.232 325.011 617.474 323.945 618.717 322.879C620.137 321.812 621.735 320.746 623.511 319.68C625.286 318.792 627.239 318.081 628.837 317.548C630.612 317.015 632.032 316.659 633.453 316.482C636.471 316.304 638.069 316.482 638.069 316.482Z" fill="#E1E1E1"/>
<path d="M628.659 349.889C628.659 350.067 627.062 350.244 624.576 350.777C623.333 351.133 621.913 351.488 620.315 352.021C618.717 352.554 617.12 353.265 615.344 354.331C613.569 355.22 612.148 356.286 610.728 357.352C609.308 358.418 608.243 359.307 607.355 360.195C605.58 361.972 604.514 363.216 604.337 363.039C604.159 363.039 605.047 361.617 606.822 359.662C607.71 358.774 608.775 357.708 610.196 356.641C611.616 355.575 613.036 354.509 614.811 353.621C616.587 352.732 618.362 352.021 619.96 351.311C621.558 350.777 623.156 350.422 624.399 350.244C626.884 349.711 628.659 349.711 628.659 349.889Z" fill="#E1E1E1"/>
<path d="M609.663 340.826C609.486 340.826 609.308 339.049 608.598 336.028C608.066 333.008 607.178 329.098 605.58 324.833C604.692 322.701 603.805 320.746 602.917 318.969C602.029 317.192 600.964 315.771 600.254 314.527C598.479 312.039 597.236 310.795 597.413 310.617C597.413 310.617 599.011 311.684 600.787 314.171C601.674 315.415 602.739 316.837 603.805 318.614C604.87 320.391 605.758 322.346 606.645 324.478C608.243 328.743 609.131 333.008 609.486 336.028C609.663 338.872 609.841 340.826 609.663 340.826Z" fill="#E1E1E1"/>
<path d="M601.319 370.857C601.141 370.857 601.319 369.08 600.964 366.415C600.786 364.993 600.609 363.572 600.254 361.795C599.898 360.018 599.366 358.241 598.656 356.286C597.946 354.331 597.058 352.554 596.348 350.955C595.46 349.356 594.572 348.112 593.862 346.868C592.264 344.736 591.199 343.492 591.377 343.314C591.377 343.314 592.797 344.38 594.572 346.513C595.46 347.579 596.348 349 597.235 350.422C598.123 352.021 599.011 353.798 599.721 355.753C600.431 357.708 600.964 359.662 601.319 361.439C601.674 363.216 601.851 364.816 601.851 366.237C601.674 369.258 601.496 370.857 601.319 370.857Z" fill="#E1E1E1"/>
<path d="M587.47 385.962H150.019C147.178 385.962 144.87 383.652 144.87 380.808V94.7134C144.87 91.8703 147.178 89.5602 150.019 89.5602H587.47C590.311 89.5602 592.619 91.8703 592.619 94.7134V380.808C592.619 383.652 590.311 385.962 587.47 385.962Z" fill="white"/>
<path d="M582.677 87.6055L155.7 88.6717C149.308 88.6717 145.402 89.9156 145.58 96.8458C145.58 96.8458 145.758 104.309 145.935 106.619C152.504 106.442 594.217 106.619 594.217 106.619V96.6681C594.217 91.6925 589.068 87.6055 582.677 87.6055Z" fill="url(#paint1_linear)"/>
<path d="M167.24 96.6681C167.24 97.912 166.175 98.9782 164.932 98.9782C163.689 98.9782 162.624 97.912 162.624 96.6681C162.624 95.4242 163.689 94.358 164.932 94.358C166.175 94.358 167.24 95.4242 167.24 96.6681Z" fill="white"/>
<path d="M178.78 96.6681C178.78 97.912 177.715 98.9782 176.472 98.9782C175.229 98.9782 174.164 97.912 174.164 96.6681C174.164 95.4242 175.229 94.358 176.472 94.358C177.537 94.358 178.78 95.4242 178.78 96.6681Z" fill="white"/>
<path d="M190.142 96.6681C190.142 97.912 189.077 98.9782 187.834 98.9782C186.592 98.9782 185.526 97.912 185.526 96.6681C185.526 95.4242 186.592 94.358 187.834 94.358C189.077 94.358 190.142 95.4242 190.142 96.6681Z" fill="white"/>
<path d="M593.506 106.619H145.58V124.389H593.506V106.619Z" fill="#DEE1E7"/>
<path d="M305.364 157.974H275.538V184.451H305.364V157.974Z" fill="#DEE1E7"/>
<path d="M338.741 157.974H308.915V184.451H338.741V157.974Z" fill="#DEE1E7"/>
<path d="M305.364 188.538H275.538V215.015H305.364V188.538Z" fill="#DEE1E7"/>
<path d="M338.741 188.538H308.915V215.015H338.741V188.538Z" fill="#DEE1E7"/>
<path d="M305.187 218.569H275.36V245.047H305.187V218.569Z" fill="#DEE1E7"/>
<path d="M338.564 218.569H308.737V245.047H338.564V218.569Z" fill="#DEE1E7"/>
<path d="M418.455 176.099H359.513V183.918H418.455V176.099Z" fill="#EAC389"/>
<path d="M452.542 162.772H359.513V170.591H452.542V162.772Z" fill="#EAC389"/>
<path d="M506.868 199.378H359.513V207.197H506.868V199.378Z" fill="#DEE1E7"/>
<path d="M267.726 157.974H169.726V245.047H267.726V157.974Z" fill="#DEE1E7"/>
<path d="M210.559 252.332H206.298V256.597H210.559V252.332Z" fill="#DEE1E7"/>
<path d="M221.033 252.332H216.772V256.597H221.033V252.332Z" fill="#DEE1E7"/>
<path d="M231.33 252.332H227.069V256.597H231.33V252.332Z" fill="#DEE1E7"/>
<path d="M437.807 242.026H371.408C366.259 242.026 361.998 237.761 361.998 232.608C361.998 227.454 366.259 223.19 371.408 223.19H437.807C442.955 223.19 447.216 227.454 447.216 232.608C447.216 237.939 443.133 242.026 437.807 242.026Z" fill="url(#paint2_linear)"/>
<path d="M217.483 286.45H164.754V333.185H217.483V286.45Z" fill="#DEE1E7"/>
<path d="M361.287 310.617H223.519V314.882H361.287V310.617Z" fill="#DEE1E7"/>
<path d="M255.298 297.29H223.519V301.555H255.298V297.29Z" fill="#EAC389"/>
<path d="M273.584 290.182H223.519V294.447H273.584V290.182Z" fill="#EAC389"/>
<path d="M361.287 319.858H223.519V324.123H361.287V319.858Z" fill="#DEE1E7"/>
<path d="M302.7 328.92H223.519V333.185H302.7V328.92Z" fill="#DEE1E7"/>
<path d="M427.154 286.45H374.426V333.185H427.154V286.45Z" fill="#DEE1E7"/>
<path d="M570.782 310.617H433.013V314.882H570.782V310.617Z" fill="#DEE1E7"/>
<path d="M464.792 297.29H433.013V301.555H464.792V297.29Z" fill="#EAC389"/>
<path d="M483.078 290.182H433.013V294.447H483.078V290.182Z" fill="#EAC389"/>
<path d="M570.782 319.858H433.013V324.123H570.782V319.858Z" fill="#DEE1E7"/>
<path d="M512.194 328.92H433.013V333.185H512.194V328.92Z" fill="#DEE1E7"/>
<path d="M217.483 353.265H164.754V400H217.483V353.265Z" fill="#DEE1E7"/>
<path d="M361.287 377.432H223.519V381.697H361.287V377.432Z" fill="#DEE1E7"/>
<path d="M255.298 364.105H223.519V368.37H255.298V364.105Z" fill="#EAC389"/>
<path d="M273.584 356.997H223.519V361.262H273.584V356.997Z" fill="#EAC389"/>
<path d="M361.287 386.673H223.519V390.937H361.287V386.673Z" fill="#DEE1E7"/>
<path d="M302.7 395.913H223.519V400.178H302.7V395.913Z" fill="#DEE1E7"/>
<path d="M427.154 353.265H374.426V400H427.154V353.265Z" fill="#DEE1E7"/>
<path d="M570.782 377.432H433.013V381.697H570.782V377.432Z" fill="#DEE1E7"/>
<path d="M464.792 364.105H433.013V368.37H464.792V364.105Z" fill="#EAC389"/>
<path d="M483.078 356.997H433.013V361.262H483.078V356.997Z" fill="#EAC389"/>
<path d="M570.782 386.673H433.013V390.937H570.782V386.673Z" fill="#DEE1E7"/>
<path d="M512.194 395.913H433.013V400.178H512.194V395.913Z" fill="#DEE1E7"/>
<path d="M585.517 133.807H580.014V382.408H585.517V133.807Z" fill="#DEE1E7"/>
<path d="M70.1272 383.652C64.091 390.227 53.0837 390.76 44.5619 388.272C36.0401 385.784 29.2937 377.965 27.8734 369.258C26.8081 363.216 28.2284 356.641 25.3879 351.133C22.1922 344.558 14.203 341.537 10.4747 335.318C6.92398 329.454 7.81167 321.99 6.56891 315.415C5.68122 310.262 3.55077 305.464 1.95294 300.489C0.355104 295.513 -0.71012 290.182 0.710178 285.029C2.13048 280.053 6.39137 275.433 11.5399 275.255C15.9784 275.078 19.8842 278.099 22.9023 281.475C25.9205 284.851 28.2284 288.761 31.7792 291.426C37.1053 295.513 44.2068 296.402 50.7757 298.001C57.3446 299.6 64.446 302.443 67.2866 308.663C70.3048 315.06 67.6417 323.412 71.7251 329.276C74.2106 332.83 78.649 334.607 82.3773 337.095C91.0766 342.959 95.3375 354.687 92.852 364.816C90.0114 374.767 80.6019 382.763 70.1272 383.652Z" fill="url(#paint3_linear)"/>
<path d="M81.312 381.519C81.312 381.519 80.9569 381.342 80.4243 380.809C79.8917 380.275 79.004 379.565 77.9388 378.676C75.8084 376.721 72.9678 373.878 69.5946 369.791C66.3989 365.882 62.8481 360.906 58.9423 355.398C55.0365 349.889 50.7756 343.847 46.1596 337.45C37.1052 324.833 29.1161 313.283 23.2573 304.931C20.4167 300.666 18.1087 297.29 16.3334 294.98C15.6232 293.736 14.9131 292.848 14.558 292.315C14.2029 291.604 14.0254 291.426 14.0254 291.248C14.0254 291.248 14.3805 291.604 14.7355 292.137C15.2682 292.848 15.8008 293.558 16.6884 294.802C18.4638 297.112 20.7718 300.489 23.7899 304.576C29.8262 312.928 37.9929 324.3 46.8698 337.095C51.3082 343.492 55.5691 349.534 59.4749 355.042C63.3807 360.551 66.754 365.526 69.9496 369.436C73.1453 373.345 75.9859 376.366 77.9388 378.498C79.004 379.565 79.7142 380.275 80.2468 380.809C81.1345 381.164 81.312 381.342 81.312 381.519Z" fill="#E1E1E1"/>
<path d="M50.065 307.241C50.2425 307.419 49.1773 308.663 48.1121 310.973C47.5795 312.217 46.8693 313.638 46.3367 315.238C45.8041 316.837 45.2715 318.614 44.9164 320.746C44.5613 322.701 44.3838 324.656 44.3838 326.255C44.3838 328.032 44.3838 329.631 44.5613 330.875C44.7389 333.541 45.2715 335.14 45.0939 335.14C44.9164 335.14 44.3838 333.541 43.8512 331.053C43.6736 329.809 43.4961 328.21 43.4961 326.433C43.4961 324.656 43.6736 322.701 44.0287 320.746C44.3838 318.792 44.9164 316.837 45.6265 315.238C46.3367 313.638 47.0468 312.217 47.5795 310.973C48.8222 308.307 50.065 307.064 50.065 307.241Z" fill="#E1E1E1"/>
<path d="M70.4826 335.14C70.6601 335.14 69.7724 336.562 68.7072 338.872C68.1746 339.938 67.642 341.359 67.1093 342.959C66.5767 344.558 66.2217 346.335 65.8666 348.29C65.5115 350.244 65.334 352.021 65.334 353.621C65.334 355.22 65.334 356.819 65.5115 358.063C65.6891 360.551 66.0441 362.15 65.8666 362.15C65.689 362.15 65.1564 360.729 64.8014 358.063C64.6238 356.819 64.4463 355.22 64.4463 353.443C64.4463 351.666 64.6238 349.889 64.8014 347.934C65.1564 345.98 65.689 344.203 66.2217 342.603C66.7543 341.004 67.4644 339.582 67.997 338.516C69.2398 336.384 70.305 335.14 70.4826 335.14Z" fill="#E1E1E1"/>
<path d="M51.6633 344.558C51.6633 344.736 49.888 343.669 47.2249 342.426C44.5619 341.004 40.8336 339.227 36.3951 337.983C34.2647 337.272 32.1342 336.739 30.1813 336.384C28.2284 336.028 26.4531 335.851 25.0328 335.851C22.0146 335.673 20.2393 335.851 20.2393 335.673C20.2393 335.495 22.0146 335.14 25.0328 335.14C26.6306 335.14 28.406 335.318 30.3589 335.495C32.3118 335.851 34.4422 336.206 36.7502 336.917C41.1886 338.339 44.9169 340.293 47.58 341.715C50.243 343.314 51.6633 344.38 51.6633 344.558Z" fill="#E1E1E1"/>
<path d="M70.3044 369.614C70.1269 369.791 68.8841 368.725 66.7536 367.126C65.6884 366.415 64.2681 365.526 62.6703 364.816C61.0725 364.105 59.2971 363.216 57.3442 362.683C55.3913 361.972 53.4384 361.617 51.8405 361.262C50.0652 360.906 48.4673 360.729 47.2246 360.729C44.5615 360.551 42.7861 360.729 42.7861 360.551C42.7861 360.373 44.384 360.018 47.2246 360.018C48.6449 360.018 50.2427 360.018 52.0181 360.373C53.7934 360.729 55.7463 361.084 57.6993 361.795C59.6522 362.506 61.6051 363.216 63.2029 364.105C64.8007 364.993 66.221 365.882 67.2863 366.77C69.2392 368.37 70.3044 369.614 70.3044 369.614Z" fill="#E1E1E1"/>
<path d="M89.834 382.052C76.5187 386.673 60.5403 379.209 50.5982 369.258C40.6562 359.307 36.9279 343.314 41.5438 329.987C44.7395 320.746 51.4859 312.394 51.841 302.621C52.1961 290.893 43.3192 280.764 42.7866 269.036C42.254 258.196 49.0004 248.423 52.3736 238.116C54.8591 230.298 55.5693 221.946 56.9896 213.772C58.4099 205.598 61.0729 197.246 66.7541 191.204C72.4353 185.162 81.8448 182.141 89.3013 185.873C95.6927 189.072 98.8884 196.179 100.486 203.11C102.084 210.04 102.617 217.326 105.457 223.723C109.896 233.496 119.128 240.071 127.117 247.179C135.106 254.287 142.918 263.705 142.207 274.367C141.497 285.562 131.733 295.335 132.976 306.53C133.686 313.461 138.657 319.147 141.852 325.366C149.486 340.115 147.001 359.84 135.639 371.924C124.454 384.54 105.28 388.627 89.834 382.052Z" fill="url(#paint4_linear)"/>
<path d="M107.233 387.383C107.233 387.383 106.878 386.85 106.345 385.784C105.813 384.718 105.102 383.119 104.392 380.986C102.794 376.721 101.019 370.324 99.4213 362.328C97.8235 354.331 96.5807 344.736 95.1604 334.074C93.7401 323.412 92.3198 311.684 90.722 299.422C87.7038 274.9 85.0408 252.688 83.2654 236.517C82.3777 228.521 81.6676 221.946 81.135 217.503C80.9574 215.193 80.7799 213.416 80.6023 212.35C80.6023 211.106 80.4248 210.573 80.6023 210.573C80.6023 210.573 80.7799 211.106 80.9574 212.35C81.1349 213.594 81.49 215.193 81.8451 217.503C82.5552 221.946 83.4429 228.521 84.5082 236.517C86.6386 252.51 89.4792 274.722 92.4973 299.422C93.9176 311.684 95.3379 323.412 96.7582 334.074C98.001 344.736 99.0662 354.331 100.664 362.328C102.084 370.324 103.682 376.544 105.102 380.986C106.523 384.896 107.41 387.383 107.233 387.383Z" fill="#E1E1E1"/>
<path d="M119.305 259.796C119.482 259.973 117.175 261.217 113.801 263.705C112.026 264.949 110.251 266.37 108.12 268.325C106.167 270.102 104.037 272.412 102.084 274.722C100.131 277.21 98.5331 279.698 97.1128 282.008C95.6925 284.318 94.6273 286.628 93.9171 288.583C92.3193 292.492 91.6092 294.98 91.2541 294.802C91.0765 294.802 91.2541 292.137 92.6744 288.05C93.3845 286.095 94.2722 283.607 95.6925 281.119C97.1128 278.632 98.7106 275.966 100.841 273.478C102.972 270.991 105.102 268.681 107.232 266.904C109.363 265.127 111.493 263.527 113.269 262.461C116.819 260.506 119.305 259.618 119.305 259.796Z" fill="#E1E1E1"/>
<path d="M126.761 314.349C126.939 314.527 124.808 315.948 121.613 318.436C118.417 320.924 114.334 324.656 110.428 329.454C106.7 334.251 104.036 339.227 102.439 342.959C100.841 346.69 100.131 349.178 99.7756 349C99.598 349 99.7756 346.335 101.196 342.426C102.439 338.516 104.924 333.363 108.83 328.21C112.736 323.234 117.174 319.502 120.725 317.192C124.276 315.06 126.761 314.171 126.761 314.349Z" fill="#E1E1E1"/>
<path d="M93.3844 313.283C93.2068 313.461 91.609 310.973 88.7684 307.064C86.1054 303.154 82.022 297.823 77.051 292.67C74.5654 290.182 71.9024 287.872 69.5944 285.917C67.1089 283.963 64.8009 282.363 62.848 281.12C58.7646 278.632 56.1016 277.566 56.1016 277.21C56.1016 277.032 59.1197 277.743 63.3806 280.053C65.511 281.12 67.9966 282.719 70.6596 284.496C73.1451 286.451 75.8082 288.761 78.4713 291.426C83.6198 296.757 87.5257 302.266 90.0112 306.353C92.4967 310.44 93.5619 313.283 93.3844 313.283Z" fill="#E1E1E1"/>
<path d="M100.486 362.506C100.131 362.683 99.243 360.195 97.1126 356.464C96.0474 354.509 94.8046 352.377 93.2068 350.067C91.6089 347.757 89.656 345.446 87.348 342.959C85.0401 340.649 82.7321 338.516 80.6016 336.917C78.2936 335.14 76.3407 333.718 74.3878 332.652C70.8371 330.342 68.3516 329.276 68.3516 329.098C68.3516 328.92 71.0146 329.631 74.9204 331.586C76.8733 332.652 79.0038 333.896 81.4893 335.673C83.7973 337.45 86.2828 339.405 88.5908 341.892C90.8988 344.38 92.8517 346.868 94.4495 349.178C96.0474 351.666 97.2901 353.976 98.1778 355.931C100.131 359.84 100.841 362.506 100.486 362.506Z" fill="#E1E1E1"/>
<path d="M446.507 292.492C446.684 289.649 445.441 286.806 443.311 285.029C441.18 283.252 437.985 282.719 435.322 283.607C430.883 285.029 428.398 289.471 426.445 293.558C425.025 296.579 423.604 299.422 422.006 302.443C421.119 304.043 420.764 305.82 420.764 307.774C420.764 311.506 422.184 314.882 423.782 315.948C427.865 318.614 432.836 317.015 437.63 317.37C440.47 317.548 440.47 319.325 443.311 319.502C445.974 319.68 450.945 319.502 454.141 318.081C456.626 317.015 457.691 317.015 459.289 314.705C455.561 314.349 455.206 311.151 454.496 307.597C453.786 303.865 454.318 300.133 453.608 296.402C453.253 294.447 452.365 292.492 450.767 291.426C449.17 290.36 446.507 290.715 445.619 292.492" fill="#2D2355"/>
<path d="M431.416 288.227L431.594 311.684L436.032 313.105L435.144 322.701L445.086 324.123C445.086 324.123 448.282 294.269 448.282 293.914C448.46 293.736 431.416 288.227 431.416 288.227Z" fill="#E8BFAF"/>
<path d="M436.032 297.645C436.032 297.823 435.145 297.468 434.257 297.823C433.369 298.179 432.659 298.712 432.481 298.534C432.481 298.534 433.014 297.823 434.079 297.468C435.144 297.112 436.21 297.645 436.032 297.645Z" fill="#2D2355"/>
<path d="M435.499 301.377C435.499 301.733 435.144 301.91 434.966 301.91C434.611 301.91 434.434 301.555 434.434 301.377C434.434 301.022 434.789 300.844 434.966 300.844C435.144 300.666 435.499 301.022 435.499 301.377Z" fill="#2D2355"/>
<path d="M443.488 301.555C443.488 301.91 443.311 302.088 442.955 302.088C442.6 302.088 442.423 301.91 442.423 301.555C442.423 301.199 442.6 301.022 442.955 301.022C443.311 301.022 443.488 301.199 443.488 301.555Z" fill="#2D2355"/>
<path d="M444.909 298.534C444.909 298.534 444.198 298.179 443.311 298.001C442.423 297.823 441.713 297.823 441.713 297.823C441.713 297.645 442.423 297.468 443.488 297.645C444.198 297.823 444.909 298.356 444.909 298.534Z" fill="#2D2355"/>
<path d="M436.387 304.398C436.387 305.109 435.5 305.82 434.612 305.82C433.724 305.82 432.837 305.287 432.659 304.576C432.659 303.865 433.369 303.154 434.435 303.154C435.677 302.976 436.387 303.51 436.387 304.398Z" fill="#E9AF9E"/>
<path d="M444.731 304.22C444.731 304.931 444.021 305.642 443.133 305.464C442.245 305.464 441.713 304.753 441.713 304.043C441.713 303.332 442.423 302.621 443.311 302.799C444.021 302.799 444.731 303.51 444.731 304.22Z" fill="#E9AF9E"/>
<path d="M441.003 307.064C441.713 307.419 441.891 308.485 441.003 309.018C440.115 309.551 439.228 309.018 439.228 308.307C439.228 307.597 439.228 306.886 439.405 306.708C439.76 306.53 440.293 306.708 441.003 307.064Z" fill="#E9AF9E"/>
<path d="M441.358 307.774C442.069 308.13 442.246 309.196 441.358 309.729C440.471 310.262 439.583 309.729 439.583 309.018C439.583 308.307 439.583 307.597 439.761 307.419C440.116 307.241 440.648 307.419 441.358 307.774Z" fill="#E9AF9E"/>
<path d="M440.648 314.882C440.47 315.415 439.228 315.415 437.985 314.882C436.742 314.349 435.677 313.638 435.854 313.283C436.032 312.75 437.275 312.75 438.517 313.283C439.938 313.638 440.825 314.527 440.648 314.882Z" fill="#E9AF9E"/>
<path d="M447.394 301.022C447.394 301.022 450.945 299.245 450.945 302.088C450.945 304.931 449.879 306.175 446.861 305.642" fill="#E8BFAF"/>
<path d="M448.104 304.22C448.282 304.22 448.459 304.22 448.637 304.043C448.814 304.043 448.992 303.687 448.992 303.332C448.992 302.976 448.814 302.621 448.637 302.443C448.459 302.266 448.282 302.266 448.282 302.266C448.104 302.266 448.282 301.733 448.992 301.733C449.524 301.91 450.057 302.443 450.057 303.154C450.235 304.043 449.347 304.576 448.814 304.576C448.104 304.576 447.927 304.22 448.104 304.22Z" fill="#E9AF9E"/>
<path d="M429.463 294.269C429.996 297.646 433.014 297.29 437.097 296.224C441.003 295.158 447.039 293.914 447.039 293.914V301.91L448.459 299.956L449.525 293.736L432.126 285.74L429.463 292.492" fill="#2D2355"/>
<path d="M438.872 306.886C438.872 306.886 438.695 306.708 438.34 306.353C437.985 305.997 437.629 305.464 437.452 304.576L437.274 304.22L437.629 304.398C437.985 304.576 438.34 304.576 438.517 304.753C438.872 304.931 439.227 305.109 439.227 304.931C439.582 302.266 439.227 300.133 439.405 300.133C439.405 300.133 439.582 300.666 439.76 301.555C439.937 302.443 439.937 303.687 439.76 304.931C439.76 305.109 439.76 305.287 439.582 305.287C439.405 305.287 439.227 305.287 439.227 305.287C439.05 305.287 438.872 305.109 438.695 305.109C438.34 304.931 437.985 304.931 437.629 304.753L437.807 304.576C437.985 305.997 438.872 306.708 438.872 306.886Z" fill="#2D2355"/>
<path d="M441.713 306.53C441.891 306.53 441.536 307.597 440.47 308.13C439.405 308.663 438.518 308.485 438.518 308.307C438.518 308.13 439.405 308.307 440.293 307.774C441.181 307.419 441.713 306.53 441.713 306.53Z" fill="#2D2355"/>
<path d="M433.902 301.022C433.902 301.199 433.547 301.022 433.369 300.844C433.192 300.666 433.014 300.311 433.192 300.311C433.192 300.311 433.547 300.311 433.724 300.489C433.902 300.844 434.079 301.022 433.902 301.022Z" fill="#2D2355"/>
<path d="M434.256 300.844C434.079 300.844 434.079 300.666 433.901 300.489C433.724 300.311 433.724 300.133 433.724 299.956C433.724 299.956 434.079 299.956 434.079 300.133C434.256 300.489 434.256 300.844 434.256 300.844Z" fill="#2D2355"/>
<path d="M444.021 300.489C444.021 300.489 444.021 300.666 443.843 300.844C443.666 301.022 443.488 301.022 443.488 301.022C443.488 301.022 443.488 300.844 443.666 300.666C443.843 300.489 444.021 300.311 444.021 300.489Z" fill="#2D2355"/>
<path d="M444.554 301.022C444.554 301.199 444.376 301.199 444.199 301.377C444.021 301.377 443.666 301.377 443.666 301.377C443.666 301.199 443.844 301.199 444.021 301.022C444.376 301.022 444.554 301.022 444.554 301.022Z" fill="#2D2355"/>
<path d="M446.685 388.805L467.456 391.115C468.699 391.293 469.409 392.714 468.699 393.781C468.344 394.314 467.811 394.491 467.279 394.491L447.927 394.314L446.685 388.805Z" fill="white"/>
<path d="M465.149 390.404C465.326 390.404 465.149 391.293 465.149 392.359C464.971 393.425 464.794 394.314 464.794 394.314C464.616 394.314 464.794 393.425 464.794 392.359C464.794 391.293 464.971 390.404 465.149 390.404Z" fill="#2D2355"/>
<path d="M459.822 390.938C460 390.938 460 391.471 459.822 392.181C459.645 392.892 459.645 393.425 459.467 393.425C459.29 393.425 459.29 392.892 459.467 392.181C459.467 391.648 459.645 390.938 459.822 390.938Z" fill="#2D2355"/>
<path d="M458.757 390.938C458.934 390.938 458.934 391.648 458.757 392.359C458.579 393.07 458.402 393.781 458.402 393.781C458.224 393.781 458.224 393.07 458.402 392.359C458.402 391.471 458.579 390.938 458.757 390.938Z" fill="#2D2355"/>
<path d="M457.336 390.582C457.514 390.582 457.336 391.293 457.336 392.004C457.159 392.714 456.981 393.425 456.981 393.425C456.804 393.425 456.981 392.714 456.981 392.004C457.159 391.293 457.336 390.582 457.336 390.582Z" fill="#2D2355"/>
<path d="M455.916 390.76C456.093 390.76 456.093 391.471 455.916 392.181C455.738 393.07 455.738 393.603 455.561 393.603C455.383 393.603 455.383 392.892 455.561 392.181C455.738 391.471 455.916 390.76 455.916 390.76Z" fill="#2D2355"/>
<path d="M454.141 391.648C454.141 391.648 453.964 391.648 453.609 391.648C453.253 391.648 452.721 391.471 452.011 391.115C451.656 390.937 451.123 390.76 451.123 390.227C451.123 389.694 451.833 389.338 452.366 389.516C453.431 389.694 454.141 390.937 453.964 392.004C453.786 393.07 453.253 393.958 452.721 394.847C452.721 395.024 452.543 395.024 452.366 395.024C452.188 395.024 452.011 394.847 452.011 394.669C451.833 394.314 452.011 394.136 452.011 393.958C452.188 393.603 452.366 393.248 452.543 392.892C452.898 392.359 453.431 391.826 453.786 391.648C453.786 391.47 453.964 391.47 454.141 391.648C454.141 391.648 453.253 392.004 452.543 393.07C452.366 393.425 452.188 393.781 452.188 394.136C452.188 394.314 452.188 394.491 452.188 394.669C452.188 394.847 452.366 394.847 452.543 394.669C453.076 393.958 453.609 393.07 453.609 392.004C453.786 390.937 453.253 390.049 452.366 389.871C452.011 389.694 451.478 389.871 451.478 390.227C451.478 390.582 451.833 390.76 452.011 390.937C453.253 391.293 454.141 391.47 454.141 391.648Z" fill="#2D2355"/>
<path d="M446.685 388.805C446.685 388.805 446.862 388.805 447.04 388.805C447.395 388.805 447.75 388.805 448.282 388.983C449.525 389.16 451.123 389.16 452.721 389.338C454.674 389.516 456.982 389.694 459.467 390.049C461.953 390.404 464.793 390.76 467.456 391.826C467.634 392.004 467.811 392.004 467.989 392.359C468.167 392.537 467.989 392.892 467.989 393.07C467.811 393.425 467.456 393.603 467.101 393.781C466.391 393.958 465.681 394.136 464.971 394.136C463.551 394.314 462.308 394.314 461.065 394.314C458.58 394.314 456.272 394.491 454.319 394.314C452.366 394.314 450.945 394.136 449.88 394.136C449.525 394.136 448.993 394.136 448.637 394.136C448.282 394.136 448.282 394.136 448.282 394.136C448.282 394.136 448.46 394.136 448.637 394.136C448.993 394.136 449.348 394.136 449.88 394.136C451.123 394.136 452.721 394.136 454.319 394.136C456.272 394.136 458.58 394.136 461.065 393.958C462.308 393.958 463.728 393.781 464.971 393.781C465.681 393.781 466.391 393.603 466.924 393.425C467.279 393.248 467.456 393.07 467.634 392.892C467.811 392.714 467.634 392.359 467.456 392.181C464.793 390.937 462.13 390.582 459.645 390.404C457.159 390.049 455.029 389.871 452.898 389.694C451.123 389.516 449.703 389.338 448.46 389.16C448.105 389.16 447.572 388.983 447.217 388.983C446.685 388.805 446.685 388.805 446.685 388.805Z" fill="#2D2355"/>
<path d="M447.217 384.363L384.368 364.993L383.303 370.857C382.238 376.366 385.789 381.697 391.115 382.941L443.133 394.491L447.217 384.363Z" fill="#46348F"/>
<path d="M441.535 371.924L384.368 364.993L387.564 379.742L437.984 385.606H455.383L489.115 373.168C492.133 372.101 493.554 368.725 492.488 365.882L489.648 358.241L441.535 371.924Z" fill="url(#paint5_linear)"/>
<path d="M448.992 385.784L384.368 365.171L383.658 369.08C382.415 375.655 386.676 382.052 393.067 383.474L446.151 394.669L448.992 385.784Z" fill="url(#paint6_linear)"/>
<path d="M435.321 398.578L486.452 379.032C491.956 376.899 494.619 370.68 492.311 365.349L489.47 358.419L432.658 390.76L433.013 391.826L433.191 392.359L435.321 398.578Z" fill="url(#paint7_linear)"/>
<path d="M434.612 396.091H413.84C412.597 396.091 411.709 394.669 412.419 393.603C412.775 393.07 413.13 392.714 413.662 392.714L432.836 390.76L434.612 396.091Z" fill="white"/>
<path d="M416.148 396.446C415.971 396.446 415.971 395.558 415.971 394.491C415.971 393.425 416.148 392.537 416.148 392.537C416.326 392.537 416.326 393.425 416.326 394.491C416.326 395.558 416.148 396.446 416.148 396.446Z" fill="#2D2355"/>
<path d="M421.297 395.38C421.119 395.38 421.119 394.847 421.119 394.136C421.119 393.425 421.297 392.892 421.297 392.892C421.474 392.892 421.474 393.425 421.474 394.136C421.474 394.847 421.474 395.38 421.297 395.38Z" fill="#2D2355"/>
<path d="M422.361 395.38C422.184 395.38 422.184 394.669 422.184 393.958C422.184 393.248 422.361 392.537 422.361 392.537C422.539 392.537 422.539 393.248 422.539 393.958C422.539 394.669 422.539 395.38 422.361 395.38Z" fill="#2D2355"/>
<path d="M423.782 395.38C423.604 395.38 423.604 394.669 423.604 393.958C423.604 393.248 423.782 392.537 423.782 392.537C423.959 392.537 423.96 393.248 423.96 393.958C423.96 394.847 423.782 395.38 423.782 395.38Z" fill="#2D2355"/>
<path d="M425.024 395.202C424.847 395.202 424.847 394.491 424.847 393.781C424.847 392.892 425.024 392.359 425.024 392.359C425.202 392.359 425.202 393.07 425.202 393.781C425.202 394.491 425.202 395.202 425.024 395.202Z" fill="#2D2355"/>
<path d="M426.8 394.136C426.8 394.136 426.977 394.136 427.332 394.136C427.687 394.136 428.22 394.314 428.93 394.491C429.285 394.669 429.818 394.669 429.818 395.38C429.818 395.913 429.108 396.268 428.753 396.268C427.687 396.268 426.977 395.025 426.977 393.958C426.977 392.892 427.51 391.826 427.865 391.115C427.865 390.937 428.043 390.937 428.22 390.937C428.398 390.937 428.575 390.937 428.575 391.115C428.753 391.293 428.753 391.648 428.575 391.826C428.575 392.181 428.398 392.537 428.22 392.892C427.865 393.603 427.51 393.958 427.155 394.136C427.155 394.136 426.977 394.314 426.8 394.136C426.8 394.136 427.687 393.781 428.22 392.537C428.398 392.181 428.398 391.826 428.575 391.471C428.575 391.293 428.575 391.115 428.575 390.937C428.575 390.76 428.398 390.76 428.398 390.937C428.043 391.648 427.51 392.714 427.51 393.603C427.51 394.669 428.22 395.558 428.93 395.558C429.285 395.558 429.64 395.38 429.64 395.025C429.64 394.669 429.285 394.491 428.93 394.491C427.687 394.314 426.8 394.136 426.8 394.136Z" fill="#2D2355"/>
<path d="M434.611 396.091C434.611 396.091 434.434 396.091 434.256 396.091C433.901 396.091 433.546 396.091 433.013 396.091C431.771 396.091 430.173 396.091 428.575 396.091C426.622 396.091 424.314 396.091 421.829 396.091C419.343 396.091 416.502 396.091 413.662 395.202C413.484 395.202 413.307 395.025 413.129 394.847C412.952 394.669 412.952 394.314 413.129 394.136C413.307 393.781 413.662 393.603 414.017 393.425C414.727 393.07 415.437 392.892 415.97 392.714C417.39 392.359 418.633 392.181 419.876 392.004C422.361 391.648 424.669 391.293 426.622 391.115C428.575 390.937 429.995 390.76 431.061 390.76C431.416 390.76 431.948 390.76 432.303 390.76C432.658 390.76 432.658 390.76 432.658 390.76C432.658 390.76 432.481 390.76 432.303 390.76C431.948 390.76 431.593 390.76 431.061 390.937C429.818 391.115 428.22 391.293 426.622 391.471C424.669 391.648 422.539 392.004 420.053 392.359C418.81 392.537 417.568 392.714 416.147 393.07C415.437 393.248 414.905 393.425 414.194 393.603C413.839 393.781 413.662 393.958 413.484 394.136C413.307 394.314 413.484 394.669 413.839 394.669C416.502 395.558 419.343 395.558 421.829 395.558C424.314 395.558 426.622 395.558 428.575 395.558C430.35 395.558 431.771 395.558 433.013 395.558C433.369 395.558 433.901 395.558 434.256 395.558C434.434 396.091 434.611 396.091 434.611 396.091Z" fill="#2D2355"/>
<path d="M448.105 305.109C448.105 305.109 448.282 304.753 448.815 304.931C449.348 305.109 449.703 305.997 449.348 306.708C448.815 307.597 447.75 307.241 447.572 306.708C447.217 306.175 447.395 305.82 447.572 305.82C447.572 305.82 447.572 306.175 447.927 306.53C448.105 306.886 448.992 307.064 449.348 306.53C449.703 305.997 449.348 305.287 448.992 305.109C448.46 304.931 448.105 305.109 448.105 305.109Z" fill="#8074C2"/>
<path d="M457.869 351.488C458.224 352.199 461.242 358.241 461.242 358.241L438.162 364.46L438.695 371.213C438.695 371.213 473.67 368.014 472.427 362.15C470.652 353.443 466.923 346.513 466.923 346.513L457.869 351.488Z" fill="#E8BFAF"/>
<path d="M409.401 336.739C409.401 336.739 417.746 326.788 419.876 325.189C422.007 323.589 427.688 319.325 436.387 320.569C445.086 321.812 461.065 321.279 466.746 335.673C470.474 344.913 471.362 349.711 471.362 349.711C471.362 349.711 463.55 353.265 457.869 352.199L453.608 342.426C453.608 342.426 450.945 342.959 453.253 356.286L456.094 370.502L420.231 373.167L423.072 341.715L418.988 345.446L409.401 336.739Z" fill="#DEE1E7"/>
<path d="M418.811 345.091C418.278 345.624 414.017 350.777 414.017 350.777L435.144 362.15L433.014 368.547C433.014 368.547 399.637 357.53 402.122 352.199C405.851 344.025 410.822 338.161 410.822 338.161L418.811 345.091Z" fill="#E8BFAF"/>
<path opacity="0.26" d="M419.344 331.941C419.344 333.008 418.456 334.074 417.213 334.074C416.148 334.074 415.083 333.185 415.083 331.941C415.083 330.875 415.971 329.809 417.213 329.809C418.456 329.809 419.344 330.697 419.344 331.941Z" fill="white"/>
<path opacity="0.26" d="M421.652 342.426C420.764 343.314 419.521 343.314 418.811 342.426C417.924 341.537 417.924 340.293 418.811 339.582C419.699 338.694 420.942 338.694 421.652 339.582C422.54 340.293 422.54 341.537 421.652 342.426Z" fill="white"/>
<path opacity="0.26" d="M429.108 334.962C428.22 335.851 426.978 335.851 426.267 334.962C425.38 334.074 425.38 332.83 426.267 332.119C427.155 331.231 428.398 331.231 429.108 332.119C429.818 332.83 429.818 334.074 429.108 334.962Z" fill="white"/>
<path opacity="0.26" d="M429.286 325.9C430.462 325.9 431.416 324.945 431.416 323.767C431.416 322.589 430.462 321.635 429.286 321.635C428.109 321.635 427.155 322.589 427.155 323.767C427.155 324.945 428.109 325.9 429.286 325.9Z" fill="white"/>
<path opacity="0.26" d="M436.743 340.115C435.855 341.004 434.612 341.004 433.902 340.115C433.014 339.227 433.014 337.983 433.902 337.272C434.79 336.384 436.033 336.384 436.743 337.272C437.453 338.161 437.453 339.405 436.743 340.115Z" fill="white"/>
<path opacity="0.26" d="M439.228 329.276C440.405 329.276 441.359 328.321 441.359 327.143C441.359 325.966 440.405 325.011 439.228 325.011C438.051 325.011 437.098 325.966 437.098 327.143C437.098 328.321 438.051 329.276 439.228 329.276Z" fill="white"/>
<path opacity="0.26" d="M454.673 340.115C453.786 341.004 452.543 341.004 451.833 340.115C450.945 339.227 450.945 337.983 451.833 337.272C452.72 336.384 453.963 336.384 454.673 337.272C455.561 338.161 455.561 339.405 454.673 340.115Z" fill="white"/>
<path opacity="0.26" d="M427.688 345.446C426.8 346.335 425.558 346.335 424.847 345.446C423.96 344.558 423.96 343.314 424.847 342.603C425.735 341.715 426.978 341.715 427.688 342.603C428.398 343.314 428.398 344.558 427.688 345.446Z" fill="white"/>
<path opacity="0.26" d="M436.387 360.195C435.499 361.084 434.257 361.084 433.547 360.195C432.659 359.307 432.659 358.063 433.547 357.352C434.434 356.464 435.677 356.464 436.387 357.352C437.275 358.241 437.275 359.485 436.387 360.195Z" fill="white"/>
<path opacity="0.26" d="M445.619 358.241C446.795 358.241 447.749 357.286 447.749 356.108C447.749 354.931 446.795 353.976 445.619 353.976C444.442 353.976 443.488 354.931 443.488 356.108C443.488 357.286 444.442 358.241 445.619 358.241Z" fill="white"/>
<path opacity="0.26" d="M426.978 354.331C426.09 355.22 424.848 355.22 424.137 354.331C423.25 353.443 423.25 352.199 424.137 351.488C425.025 350.6 426.268 350.6 426.978 351.488C427.688 352.199 427.688 353.443 426.978 354.331Z" fill="white"/>
<path opacity="0.26" d="M450.945 349.889C450.057 350.777 448.814 350.777 448.104 349.889C447.217 349 447.217 347.757 448.104 347.046C448.992 346.157 450.235 346.157 450.945 347.046C451.833 347.757 451.833 349.178 450.945 349.889Z" fill="white"/>
<path opacity="0.26" d="M444.731 344.558C445.908 344.558 446.861 343.603 446.861 342.426C446.861 341.248 445.908 340.293 444.731 340.293C443.554 340.293 442.601 341.248 442.601 342.426C442.601 343.603 443.554 344.558 444.731 344.558Z" fill="white"/>
<path opacity="0.26" d="M437.807 350.955C436.92 351.844 435.677 351.844 434.967 350.955C434.079 350.067 434.079 348.823 434.967 348.112C435.854 347.223 437.097 347.223 437.807 348.112C438.695 349 438.695 350.244 437.807 350.955Z" fill="white"/>
<path opacity="0.26" d="M448.105 335.495C447.217 336.384 445.975 336.384 445.264 335.495C444.377 334.607 444.377 333.363 445.264 332.652C446.152 331.764 447.395 331.764 448.105 332.652C448.815 333.363 448.815 334.607 448.105 335.495Z" fill="white"/>
<path opacity="0.26" d="M459.644 332.297C458.756 333.185 457.514 333.185 456.803 332.297C455.916 331.408 455.916 330.164 456.803 329.454C457.691 328.565 458.934 328.565 459.644 329.454C460.532 330.164 460.532 331.586 459.644 332.297Z" fill="white"/>
<path opacity="0.26" d="M467.101 339.76C466.213 340.649 464.971 340.649 464.26 339.76C463.373 338.872 463.373 337.628 464.26 336.917C465.148 336.028 466.391 336.028 467.101 336.917C467.989 337.628 467.989 338.872 467.101 339.76Z" fill="white"/>
<path opacity="0.26" d="M461.775 348.467C460.887 349.356 459.644 349.356 458.934 348.467C458.047 347.579 458.047 346.335 458.934 345.624C459.822 344.736 461.065 344.736 461.775 345.624C462.485 346.335 462.485 347.579 461.775 348.467Z" fill="white"/>
<path opacity="0.26" d="M469.586 349.889C468.699 350.777 467.456 350.777 466.746 349.889C465.858 349 465.858 347.757 466.746 347.046C467.634 346.157 468.876 346.157 469.586 347.046C470.297 347.757 470.297 349.178 469.586 349.889Z" fill="white"/>
<path opacity="0.26" d="M452.366 326.966C451.478 327.854 450.235 327.854 449.525 326.966C448.637 326.077 448.637 324.833 449.525 324.123C450.413 323.234 451.656 323.234 452.366 324.123C453.076 324.833 453.076 326.077 452.366 326.966Z" fill="white"/>
<path d="M421.297 370.324L414.018 280.231H466.924L457.692 373.523L421.297 370.324Z" fill="url(#paint8_linear)"/>
<path d="M418.101 374.234L419.166 349.534L459.999 350.244L459.289 375.3L418.101 374.234Z" fill="#E0EDEB"/>
<path d="M440.648 361.439C440.648 362.506 439.76 363.216 438.695 363.216C437.63 363.216 436.742 362.506 436.742 361.439C436.742 360.373 437.63 359.662 438.695 359.662C439.76 359.662 440.648 360.551 440.648 361.439Z" fill="white"/>
<path opacity="0.3" d="M440.648 363.216C439.582 364.105 437.984 364.105 437.097 363.216C436.032 362.328 436.032 360.729 437.097 359.84C438.162 358.952 439.76 358.952 440.648 359.84C441.535 360.729 441.535 362.15 440.648 363.216Z" fill="white"/>
<path d="M281.397 47.9787L288.321 39.8045C288.321 39.8045 292.405 42.6477 292.582 43.0031C292.76 43.3585 285.658 52.2434 285.658 52.2434L281.397 47.9787Z" fill="#E8BFAF"/>
<path d="M296.488 41.2261L292.05 43.8916L287.611 40.1599L290.097 20.4353L291.695 19.1915L296.488 41.2261Z" fill="#EAC389"/>
<path d="M294.89 43.0031C294.712 43.0031 293.825 37.6721 292.582 31.0973C291.339 24.5224 290.629 19.1915 290.629 19.1915C290.806 19.1915 291.694 24.5224 292.937 31.0973C294.002 37.6721 294.89 43.0031 294.89 43.0031Z" fill="#D1944C"/>
<path d="M290.985 33.9405C290.985 34.1182 290.452 34.1182 289.742 33.9405C289.032 33.9405 288.499 33.7628 288.499 33.5851C288.499 33.4074 289.032 33.4074 289.742 33.5851C290.274 33.7628 290.985 33.7628 290.985 33.9405Z" fill="#D1944C"/>
<path d="M290.807 32.3411C290.807 32.5188 290.097 32.3411 289.387 32.3411C288.677 32.1634 287.967 31.9857 287.967 31.808C287.967 31.6303 288.677 31.808 289.387 31.808C290.275 31.9857 290.807 32.3411 290.807 32.3411Z" fill="#D1944C"/>
<path d="M290.63 30.5642C290.63 30.7419 290.097 30.7419 289.564 30.5642C289.032 30.5642 288.499 30.3865 288.499 30.2088C288.499 30.0311 289.032 30.0311 289.564 30.2088C290.097 30.3865 290.63 30.3865 290.63 30.5642Z" fill="#D1944C"/>
<path d="M288.144 35.1844C288.144 35.1844 288.144 35.3621 288.144 35.8951C287.966 36.2505 287.789 36.9613 287.079 37.4944C286.724 37.8498 286.368 38.0275 286.013 38.2052C285.836 38.2052 285.481 38.3829 285.126 38.2052C284.948 38.2052 284.771 37.8498 284.948 37.6721C284.948 37.4944 285.126 37.3167 285.126 37.3167C285.658 36.4282 286.546 35.7174 287.789 35.1844C287.966 35.1844 288.144 35.0067 288.321 35.0067L288.499 35.3621C287.434 35.8951 286.191 35.8951 285.303 35.7174C285.126 35.7174 284.771 35.7174 284.593 35.5398C284.416 35.3621 284.416 35.1844 284.593 35.0067C284.771 34.829 284.771 34.829 284.948 34.829C285.303 34.6513 285.836 34.4736 286.191 34.4736C286.901 34.4736 287.611 34.4736 287.966 34.6513C288.321 34.829 288.499 35.0067 288.499 35.0067C288.499 35.0067 287.611 34.4736 286.191 34.6513C285.658 34.6513 284.061 35.3621 285.481 35.3621C286.368 35.3621 287.611 35.5398 288.499 35.0067L288.676 35.3621C288.499 35.3621 288.321 35.5398 288.144 35.5398C287.079 36.0728 286.191 36.7836 285.658 37.6721C285.481 37.8498 285.481 38.0275 285.481 38.0275C285.658 38.0275 285.836 38.0275 286.013 38.0275C286.368 37.8498 286.724 37.6721 287.079 37.4944C288.144 36.2505 288.144 35.0067 288.144 35.1844Z" fill="#D1944C"/>
<path d="M291.695 36.2505C291.695 36.2505 291.872 36.2505 292.227 36.4282C292.405 36.6059 292.937 36.9613 293.115 37.4944C293.47 38.0275 293.47 38.916 292.937 39.6268C292.405 40.3376 291.339 40.693 290.452 40.1599C289.564 39.8045 289.209 38.7383 289.209 37.8498C289.387 36.9613 289.742 36.4282 290.274 36.0728C290.807 35.7174 291.339 35.8951 291.695 36.0728C292.05 36.2505 292.05 36.4282 292.05 36.4282C292.227 36.4282 292.05 36.4282 291.695 36.2505C291.517 36.0728 290.984 36.0728 290.629 36.4282C290.274 36.7836 289.742 37.3167 289.742 38.0275C289.564 38.7383 290.097 39.4491 290.807 39.8045C291.517 40.1599 292.405 39.9822 292.76 39.4491C293.292 38.916 293.115 38.2052 292.937 37.6721C292.405 36.7836 291.695 36.4282 291.695 36.2505Z" fill="#D1944C"/>
<path d="M254.234 32.5189L254.945 20.6131C254.945 20.6131 260.448 20.4354 260.803 20.6131C261.158 20.7907 260.803 33.4074 260.803 33.4074L254.234 32.5189Z" fill="#E8BFAF"/>
<path d="M250.506 78.8983L279.977 43.1808L291.694 48.6895L260.625 86.0062L249.618 80.8529" fill="#C8A272"/>
<path d="M365.728 39.9822C369.456 36.9613 371.586 32.1635 371.231 27.5433C370.876 22.7454 367.858 18.303 363.597 16.3483C359.336 14.3936 353.833 14.9267 350.104 17.7699C343.535 22.9231 343.18 33.9405 336.256 38.5606C330.398 42.47 321.698 40.5153 316.372 45.1355C312.822 48.1564 311.934 53.3096 309.093 56.8636C306.963 59.5291 303.59 61.3061 302.169 64.327C300.039 68.7694 302.524 74.2781 306.785 76.7659C310.869 79.4314 316.017 79.6091 320.988 79.076C329.155 78.1875 337.144 75.3443 344.778 72.1457C349.749 70.0133 354.72 67.7032 358.093 63.6162C363.42 57.3967 364.307 48.5118 365.017 40.3376" fill="#2D2355"/>
<path d="M316.727 73.0342L322.941 93.2919H239.676L249.44 30.9196H260.625C260.093 48.1564 260.625 75.522 260.625 75.522C271.277 75.6997 284.06 75.8774 294.357 74.4558C294.535 74.2781 314.774 70.9018 316.727 73.0342Z" fill="#EAC389"/>
<path d="M374.426 58.6406L383.126 89.7379L371.941 91.5149L365.372 62.0169L374.426 58.6406Z" fill="#E8BFAF"/>
<path d="M357.738 43.8916C357.738 43.8916 347.619 43.0031 336.256 52.5988C330.575 57.3967 316.372 73.0342 316.372 73.0342L323.651 93.825C323.651 93.825 345.666 92.4034 355.785 84.7623L363.952 73.5673L367.325 69.6579L376.912 63.4385C376.912 63.2608 368.568 43.0031 357.738 43.8916Z" fill="url(#paint9_linear)"/>
<path d="M330.93 63.7939C330.93 63.7939 313.531 86.8947 322.408 94.0027L374.426 90.9818L371.23 85.1177L332.882 84.5846L340.339 72.3234L330.93 63.7939Z" fill="#E8BFAF"/>
<path d="M351.879 18.8361L352.056 40.8707L356.495 42.2923L355.252 50.9996L364.484 52.4212C364.484 52.4212 367.325 24.7002 367.502 24.1671C367.68 23.9894 351.879 18.8361 351.879 18.8361Z" fill="#E8BFAF"/>
<path d="M356.318 27.721C356.318 27.8987 355.608 27.721 354.72 28.0764C353.832 28.4318 353.122 28.7872 353.122 28.7872C353.122 28.7872 353.655 28.0764 354.542 27.721C355.43 27.1879 356.318 27.5433 356.318 27.721Z" fill="#2D2355"/>
<path d="M355.607 31.0973C355.607 31.4527 355.43 31.6304 355.075 31.6304C354.72 31.6304 354.542 31.4527 354.542 31.0973C354.542 30.7419 354.72 30.5642 355.075 30.5642C355.43 30.5642 355.607 30.7419 355.607 31.0973Z" fill="#2D2355"/>
<path d="M363.242 31.275C363.242 31.6304 363.064 31.8081 362.709 31.8081C362.354 31.8081 362.177 31.6304 362.177 31.275C362.177 30.9196 362.354 30.7419 362.709 30.7419C362.887 30.7419 363.242 30.9196 363.242 31.275Z" fill="#2D2355"/>
<path d="M364.485 28.4318C364.485 28.6095 363.775 28.2541 362.887 28.0764C361.999 27.8987 361.289 27.8987 361.289 27.8987C361.289 27.721 361.999 27.5433 362.887 27.721C363.952 27.721 364.485 28.2541 364.485 28.4318Z" fill="#2D2355"/>
<path d="M356.495 33.9405C356.495 34.2959 355.785 34.4736 354.72 34.4736C353.832 34.4736 352.944 34.2959 352.944 33.9405C352.944 33.5851 353.654 33.4074 354.72 33.4074C355.785 33.4074 356.673 33.5851 356.495 33.9405Z" fill="#E9AF9E"/>
<path d="M364.307 33.7628C364.307 34.1182 363.597 34.2959 362.887 34.2959C362.177 34.2959 361.467 33.9405 361.467 33.7628C361.467 33.5851 362.177 33.2297 362.887 33.2297C363.775 33.2297 364.307 33.5851 364.307 33.7628Z" fill="#E9AF9E"/>
<path d="M361.288 37.6722C361.644 37.6722 361.644 38.383 361.111 38.916C360.578 39.4491 360.046 39.4491 359.868 39.0937C359.868 38.7384 360.046 38.5607 360.223 38.2053C360.578 37.8499 360.933 37.4945 361.288 37.6722Z" fill="#E9AF9E"/>
<path d="M360.756 43.8916C360.579 44.247 359.513 44.0693 358.448 43.7139C357.205 43.3585 356.318 42.6477 356.495 42.47C356.673 42.1146 357.738 42.2923 358.803 42.6477C359.868 43.0031 360.756 43.5362 360.756 43.8916Z" fill="#E9AF9E"/>
<path d="M366.792 30.9196C366.792 30.9196 370.166 29.3203 370.166 31.9858C370.166 34.6513 369.1 35.7175 366.26 35.3621" fill="#E8BFAF"/>
<path d="M367.325 33.7628C367.325 33.7628 367.503 33.9405 367.858 33.7628C368.035 33.7628 368.39 33.4074 368.39 33.052C368.39 32.6966 368.035 32.1635 367.858 32.1635C367.68 31.9858 367.503 32.1635 367.325 32.1635C367.325 32.1635 367.325 31.8081 367.858 31.8081C368.213 31.9858 368.568 32.3412 368.746 33.052C368.746 33.7628 368.213 34.2959 367.858 34.1182C367.503 34.1182 367.325 33.7628 367.325 33.7628Z" fill="#E9AF9E"/>
<path d="M350.282 27.0102C363.952 27.3656 366.26 22.9232 366.26 22.9232V31.8081L367.503 30.0311L368.568 24.3447L352.235 16.8814L349.749 23.1009" fill="#2D2355"/>
<path d="M358.803 35.7175C358.803 35.7175 358.448 36.0729 357.56 36.0729C357.383 36.0729 357.383 36.0729 357.205 36.0729C357.028 36.0729 356.85 35.7175 357.028 35.5398C357.205 35.1844 357.383 35.1844 357.56 35.0067C357.915 34.6513 358.448 34.2959 358.981 34.1182L358.803 34.2959V34.1182C358.448 31.8081 358.093 29.8534 358.27 29.8534C358.448 29.8534 358.803 31.6304 359.158 33.9405V34.1182V34.2959H358.981C358.448 34.4736 358.093 34.829 357.738 35.1844C357.56 35.3621 357.383 35.5398 357.383 35.5398C357.383 35.5398 357.383 35.7175 357.56 35.7175C358.448 35.7175 358.803 35.5398 358.803 35.7175Z" fill="#2D2355"/>
<path d="M363.774 30.3865C363.774 30.3865 363.774 30.5642 363.774 30.7419C363.596 30.9196 363.419 30.9196 363.419 30.9196C363.419 30.9196 363.419 30.7419 363.419 30.5642C363.596 30.2088 363.774 30.2088 363.774 30.3865Z" fill="#2D2355"/>
<path d="M364.129 30.9196C364.129 31.0973 364.129 31.0973 363.952 31.275C363.774 31.275 363.597 31.275 363.597 31.275C363.597 31.0973 363.597 31.0973 363.774 30.9196C363.952 30.7419 364.129 30.7419 364.129 30.9196Z" fill="#2D2355"/>
<path d="M353.655 30.7419C353.655 30.9196 353.3 30.9196 353.123 30.7419C352.945 30.5642 352.768 30.5642 352.768 30.3865C352.768 30.2088 353.123 30.2088 353.3 30.3865C353.478 30.5642 353.655 30.7419 353.655 30.7419Z" fill="#2D2355"/>
<path d="M354.01 30.5642C354.01 30.7419 353.655 30.5642 353.477 30.5642C353.122 30.3865 353.122 30.2088 353.122 30.0311C353.122 29.8534 353.477 30.0311 353.655 30.0311C353.832 30.2088 354.01 30.3865 354.01 30.5642Z" fill="#2D2355"/>
<path d="M358.981 37.3168C359.159 37.6722 359.337 38.0276 359.514 38.2053C359.692 38.383 360.224 38.5606 360.579 38.5606C360.934 38.383 361.112 38.0276 361.112 37.6722C361.112 37.3168 360.934 36.9614 360.934 36.606" fill="white"/>
<path d="M416.325 63.7939L371.408 33.4074L323.828 62.55L363.774 89.7379L399.281 90.6264L416.325 63.7939Z" fill="url(#paint10_linear)"/>
<path d="M373.183 63.7939C372.828 64.6824 362.709 90.0933 362.709 90.0933H343.18V93.1142H401.234L416.325 63.9716H373.183V63.7939Z" fill="#3A966C"/>
<path d="M390.76 78.8982C390.76 79.7867 390.05 80.6752 388.984 80.6752C388.097 80.6752 387.209 79.9644 387.209 78.8982C387.209 78.0097 387.919 77.1212 388.984 77.1212C390.05 77.1212 390.76 77.832 390.76 78.8982Z" fill="url(#paint11_linear)"/>
<path opacity="0.28" d="M386.854 78.8982C386.854 77.6543 387.919 76.5882 389.162 76.5882C390.404 76.5882 391.47 77.6543 391.47 78.8982C391.47 80.1421 390.404 81.2083 389.162 81.2083C387.919 81.0306 386.854 80.1421 386.854 78.8982Z" fill="url(#paint12_linear)"/>
<path d="M367.325 34.6512C367.147 34.6512 367.68 34.1181 368.39 34.4735C369.1 35.0066 369.1 36.0728 368.923 37.139C368.745 38.2052 367.502 38.916 366.615 38.5606C365.904 38.2052 365.904 37.4944 366.082 37.6721C366.082 37.6721 366.26 38.2052 366.792 38.3829C367.325 38.5606 368.212 38.2052 368.568 37.139C368.745 36.2505 368.745 35.1843 368.212 34.8289C367.857 34.4735 367.325 34.8289 367.325 34.6512Z" fill="#9F8FF0"/>
<path d="M263.111 16.526L260.981 21.6793L254.589 21.3239L243.582 2.13239L244.292 0L263.111 16.526Z" fill="#EAC389"/>
<path d="M262.756 19.0138C262.756 19.0138 258.317 15.1044 252.814 10.1288C247.488 5.15326 243.049 0.888489 243.227 0.888489C243.227 0.888489 247.665 4.79786 253.169 9.77343C258.673 14.749 262.933 19.0138 262.756 19.0138Z" fill="#D1944C"/>
<path d="M253.346 13.6828C253.346 13.8605 252.991 14.2159 252.281 14.5713C251.571 14.9267 251.038 15.2821 251.038 15.1044C251.038 14.9267 251.393 14.5713 252.103 14.2159C252.813 13.8605 253.346 13.5051 253.346 13.6828Z" fill="#D1944C"/>
<path d="M252.281 12.2612C252.281 12.4389 251.749 12.7943 251.038 13.1497C250.328 13.5051 249.618 13.6828 249.618 13.6828C249.618 13.5051 250.151 13.1497 250.861 12.7943C251.571 12.4389 252.104 12.2612 252.281 12.2612Z" fill="#D1944C"/>
<path d="M250.861 10.8396C250.861 11.0173 250.506 11.3727 249.973 11.7281C249.441 12.0835 248.908 12.2612 248.73 12.2612C248.73 12.0835 249.086 11.7281 249.618 11.3727C250.151 11.0173 250.683 10.8396 250.861 10.8396Z" fill="#D1944C"/>
<path d="M251.749 16.526C251.749 16.526 251.926 16.7037 252.104 17.2368C252.282 17.7699 252.459 18.4807 252.282 19.3692C252.282 19.7246 252.104 20.2577 251.749 20.7908C251.571 20.9685 251.394 21.3239 251.039 21.3239C250.861 21.3239 250.506 21.3239 250.506 20.9685C250.506 20.7908 250.506 20.6131 250.506 20.4354C250.506 19.1915 250.684 17.9476 251.394 16.7037C251.571 16.526 251.571 16.3483 251.749 16.1706L252.104 16.3483C251.571 17.5922 250.329 18.303 249.441 18.8361C249.263 19.0138 249.086 19.1915 248.553 19.1915C248.376 19.1915 248.198 18.8361 248.198 18.6584C248.198 18.4807 248.198 18.303 248.376 18.303C248.553 17.7699 248.908 17.4145 249.263 17.2368C249.796 16.7037 250.506 16.3483 251.039 16.3483C251.571 16.1706 251.749 16.1706 251.749 16.3483C251.749 16.3483 250.684 16.526 249.619 17.5922C249.263 17.9476 248.198 19.7246 249.441 18.6584C250.329 18.1253 251.394 17.4145 251.926 16.3483L252.282 16.526C252.104 16.7037 252.104 16.8814 251.926 17.0591C251.394 18.1253 251.039 19.3692 251.039 20.6131C251.039 20.9685 251.039 21.1462 251.216 20.9685C251.394 20.9685 251.571 20.7908 251.749 20.6131C251.927 20.2577 252.104 19.7246 252.282 19.3692C252.282 17.5922 251.571 16.526 251.749 16.526Z" fill="#D1944C"/>
<path d="M255.655 15.2821C255.655 15.2821 255.832 15.2821 256.187 15.2821C256.543 15.2821 257.075 15.2821 257.785 15.6375C258.318 15.8152 259.028 16.526 259.028 17.5922C259.028 18.4807 258.318 19.5469 257.253 19.7246C256.187 19.9023 255.122 19.3692 254.767 18.4807C254.235 17.7699 254.412 16.8814 254.59 16.1706C254.767 15.4598 255.477 15.2821 255.832 15.1044C256.187 15.1044 256.365 15.2821 256.365 15.2821C256.187 15.1044 256.01 15.1044 255.655 15.2821C255.3 15.2821 254.945 15.4598 254.767 16.1706C254.59 16.7037 254.59 17.4145 254.945 18.1253C255.3 18.8361 256.187 19.1915 257.075 19.0138C257.963 18.8361 258.495 18.1253 258.495 17.4145C258.495 16.7037 257.963 15.9929 257.43 15.8152C256.543 15.1044 255.655 15.2821 255.655 15.2821Z" fill="#D1944C"/>
<path d="M259.559 165.615C259.559 181.608 246.599 194.402 230.798 194.402C214.82 194.402 202.037 181.43 202.037 165.615C202.037 149.622 214.997 136.828 230.798 136.828C246.777 136.828 259.559 149.8 259.559 165.615Z" fill="#58B58B"/>
<path d="M237.012 188.361L254.943 200.977L250.505 179.12L237.012 188.361Z" fill="#58B58B"/>
<path d="M227.545 156.085H225.782L225.644 145.049H227.693L227.545 156.085ZM225.571 159.443C225.571 159.126 225.666 158.862 225.856 158.651C226.053 158.433 226.341 158.324 226.722 158.324C227.102 158.324 227.39 158.433 227.588 158.651C227.785 158.862 227.883 159.126 227.883 159.443C227.883 159.76 227.785 160.024 227.588 160.235C227.39 160.439 227.102 160.541 226.722 160.541C226.341 160.541 226.053 160.439 225.856 160.235C225.666 160.024 225.571 159.76 225.571 159.443Z" fill="white"/>
<path d="M266.129 196.535C266.129 196.535 262.756 194.936 262.756 197.601C262.756 200.267 263.821 201.333 266.662 200.977" fill="#E8BFAF"/>
<path d="M301.104 238.294C301.459 239.005 304.477 245.224 304.477 245.224L322.231 231.542L326.847 235.806C326.847 235.806 304.655 259.973 300.926 255.709C295.423 249.311 291.872 241.493 291.872 241.493L301.104 238.294Z" fill="#E8BFAF"/>
<path d="M333.771 233.319C333.061 233.674 330.753 235.096 329.155 236.34C328.267 237.051 327.025 236.873 326.137 236.34L321.698 232.253C321.166 231.72 321.166 231.009 321.521 230.476C322.409 229.054 324.006 226.389 323.651 225.145C323.119 223.19 322.941 222.835 323.474 222.657C324.894 222.124 327.38 224.434 325.782 229.232" fill="#E8BFAF"/>
<path d="M324.361 229.587C324.361 229.587 332.706 222.657 333.948 222.479C335.191 222.301 330.93 227.988 329.51 228.876C329.51 228.876 336.789 224.434 337.677 225.144C338.564 225.678 331.818 230.653 331.818 230.475C331.818 230.298 339.097 226.388 339.452 227.455C339.629 228.165 334.481 231.364 334.481 231.364C334.481 231.364 339.274 230.653 339.274 231.719C339.274 232.252 331.64 234.207 331.64 234.207L324.361 229.587Z" fill="#E8BFAF"/>
<path d="M265.951 184.629L266.129 208.085L269.857 209.507L269.324 216.97L278.556 218.392C278.556 218.392 281.397 190.671 281.574 190.138C281.752 189.782 265.951 184.629 265.951 184.629Z" fill="#E8BFAF"/>
<path d="M280.865 196.535C280.865 196.535 284.238 194.936 284.238 197.601C284.238 200.267 283.173 201.333 280.332 200.977" fill="#E8BFAF"/>
<path d="M210.737 387.206C210.737 387.206 228.136 385.962 234.35 381.164L240.564 384.185V389.16H211.27L210.737 387.206Z" fill="#EAC389"/>
<path d="M240.741 388.627C240.741 388.627 240.386 388.627 239.498 388.627C238.433 388.627 237.545 388.627 236.302 388.627C233.284 388.627 229.734 388.627 225.65 388.627C221.744 388.627 218.016 388.627 214.998 388.627C213.755 388.627 212.69 388.627 211.802 388.627C211.092 388.627 210.56 388.627 210.56 388.627C210.56 388.627 210.915 388.627 211.802 388.627C212.868 388.627 213.755 388.627 214.998 388.627C218.016 388.627 221.567 388.627 225.65 388.627C229.556 388.627 233.284 388.627 236.302 388.627C237.545 388.627 238.61 388.627 239.498 388.627C240.386 388.45 240.741 388.45 240.741 388.627Z" fill="#2D2355"/>
<path d="M236.835 386.14C236.835 386.317 235.77 386.495 234.35 386.673C232.929 386.85 231.864 387.028 231.864 386.85C231.864 386.673 232.929 386.495 234.35 386.317C235.77 386.14 236.835 385.962 236.835 386.14Z" fill="#2D2355"/>
<path d="M226.893 387.206C226.893 387.206 226.36 386.673 226.005 385.962C225.65 385.251 225.473 384.54 225.473 384.54C225.473 384.54 226.005 385.073 226.36 385.784C226.715 386.495 227.07 387.028 226.893 387.206Z" fill="#2D2355"/>
<path d="M228.491 386.673C228.314 386.673 228.136 386.14 227.781 385.429C227.426 384.718 227.249 384.007 227.426 384.007C227.604 384.007 227.781 384.54 228.136 385.251C228.314 385.962 228.491 386.673 228.491 386.673Z" fill="#2D2355"/>
<path d="M230.444 386.317C230.444 386.317 229.911 385.784 229.556 385.073C229.201 384.363 228.846 383.652 229.024 383.652C229.024 383.652 229.556 384.185 229.911 384.896C230.267 385.606 230.622 386.14 230.444 386.317Z" fill="#2D2355"/>
<path d="M230.799 383.829C230.799 383.829 230.621 383.474 230.266 382.941C229.911 382.408 229.556 381.519 229.201 380.275C229.023 379.742 229.023 379.032 229.023 378.321C229.023 377.965 229.023 377.61 229.023 377.255C229.023 377.077 229.023 376.899 229.201 376.722C229.379 376.544 229.734 376.366 229.911 376.544C230.621 378.143 230.976 379.742 230.976 381.519C230.976 381.875 230.976 382.23 230.976 382.586C230.976 382.941 230.621 383.296 230.089 383.296C229.734 383.296 229.379 382.941 229.201 382.763C229.023 382.586 228.846 382.23 228.491 382.052C227.603 381.164 227.071 380.098 226.538 379.209L226.36 378.854L226.715 379.032C228.491 379.565 229.556 380.809 230.089 381.697C230.621 382.586 230.621 383.296 230.621 383.296C230.621 383.296 230.444 382.763 229.911 381.875C229.379 380.986 228.313 379.92 226.715 379.387L226.893 379.209C227.426 380.098 227.958 380.986 228.846 381.875C229.201 382.23 229.734 382.941 230.089 382.941C230.621 382.941 230.621 382.23 230.621 381.519C230.621 379.742 230.266 377.965 229.556 376.722C229.379 376.544 229.201 376.899 229.201 377.255C229.201 377.61 229.201 377.965 229.201 378.321C229.201 379.032 229.379 379.565 229.379 380.275C229.911 382.586 230.799 383.829 230.799 383.829Z" fill="#2D2355"/>
<path d="M257.607 261.75C257.607 261.75 250.506 305.997 246.777 321.457C244.114 331.764 230.977 381.342 230.977 381.342C230.977 381.342 231.864 382.408 233.462 382.941C236.303 384.007 240.208 385.429 243.582 385.251C243.582 385.251 259.205 337.805 265.596 310.084C270.212 290.005 271.988 271.702 273.941 271.346C280.509 269.925 271.633 384.185 271.633 384.185L284.06 386.14C284.06 386.14 303.057 282.897 285.303 257.308L257.607 261.75Z" fill="url(#paint13_linear)"/>
<path d="M246.6 231.008C246.067 231.542 241.273 236.517 241.273 236.517L228.491 218.036L222.81 220.702C222.81 220.702 236.48 250.555 241.273 247.534C248.375 243.27 254.411 236.873 254.411 236.873L246.6 231.008Z" fill="#E8BFAF"/>
<path d="M216.951 216.082C217.661 216.615 219.259 218.747 220.502 220.347C221.212 221.235 222.277 221.59 223.343 221.235L228.669 218.747C229.201 218.392 229.556 217.859 229.379 217.148C229.024 215.549 228.314 212.528 229.024 211.462C230.089 209.685 230.444 209.507 230.089 209.152C228.846 208.263 225.828 209.685 225.828 214.66" fill="#E8BFAF"/>
<path d="M227.071 215.549C227.071 215.549 221.39 206.308 220.147 205.775C219.082 205.242 221.39 211.995 222.455 213.239C222.455 213.239 216.951 206.841 215.886 207.019C214.821 207.375 219.792 214.127 219.792 213.949C219.792 213.772 214.111 207.73 213.4 208.618C212.868 209.329 216.951 213.949 216.951 213.949C216.951 213.949 212.513 211.817 212.158 212.883C211.98 213.416 218.727 217.503 218.727 217.503L227.071 215.549Z" fill="#E8BFAF"/>
<path d="M241.983 380.098C242.161 380.098 241.806 381.164 241.451 382.23C241.095 383.296 240.74 384.363 240.563 384.185C240.385 384.185 240.74 383.119 241.095 382.052C241.451 380.986 241.806 380.098 241.983 380.098Z" fill="#2D2355"/>
<path d="M246.777 364.46C246.954 364.46 246.422 366.237 245.712 368.37C245.001 370.502 244.469 372.279 244.291 372.279C244.114 372.279 244.646 370.502 245.356 368.37C246.067 366.237 246.777 364.46 246.777 364.46Z" fill="#2D2355"/>
<path d="M251.571 349C251.748 349 251.216 350.777 250.505 352.91C249.795 355.042 249.263 356.819 249.085 356.819C248.908 356.819 249.44 355.042 250.15 352.91C250.861 350.6 251.393 349 251.571 349Z" fill="#2D2355"/>
<path d="M256.186 333.363C256.363 333.363 255.831 335.14 255.298 337.272C254.588 339.405 254.055 341.182 254.055 341.182C253.878 341.182 254.41 339.405 254.943 337.272C255.476 335.14 256.008 333.363 256.186 333.363Z" fill="#2D2355"/>
<path d="M260.447 317.726C260.624 317.726 260.091 319.503 259.559 321.635C259.026 323.767 258.316 325.544 258.316 325.544C258.139 325.544 258.671 323.767 259.204 321.635C259.914 319.503 260.447 317.726 260.447 317.726Z" fill="#2D2355"/>
<path d="M264.531 301.91C264.708 301.91 264.175 303.687 263.643 305.82C263.11 307.952 262.578 309.729 262.4 309.729C262.223 309.729 262.755 307.952 263.288 305.82C263.998 303.687 264.531 301.91 264.531 301.91Z" fill="#2D2355"/>
<path d="M268.081 286.095C268.259 286.095 267.904 287.872 267.371 290.182C266.839 292.315 266.483 294.092 266.306 294.092C266.128 294.092 266.483 292.315 267.016 290.004C267.549 287.872 268.081 286.095 268.081 286.095Z" fill="#2D2355"/>
<path d="M269.679 273.656C269.856 273.656 269.856 274.545 269.679 275.789C269.679 277.032 269.501 277.921 269.324 277.921C269.146 277.921 269.146 276.855 269.324 275.789C269.324 274.722 269.501 273.656 269.679 273.656Z" fill="#2D2355"/>
<path d="M282.817 377.432C282.995 377.432 282.64 379.387 282.284 381.697C281.929 384.007 281.574 385.962 281.397 385.962C281.219 385.962 281.574 384.007 281.929 381.697C282.462 379.209 282.817 377.432 282.817 377.432Z" fill="#2D2355"/>
<path d="M285.125 360.018C285.303 360.018 285.125 361.973 284.77 364.283C284.415 366.593 284.237 368.547 284.06 368.547C283.882 368.547 284.06 366.593 284.415 364.283C284.77 361.973 284.948 360.018 285.125 360.018Z" fill="#2D2355"/>
<path d="M286.901 342.781C287.078 342.781 286.901 344.736 286.723 347.223C286.546 349.711 286.191 351.488 286.191 351.488C286.013 351.488 286.191 349.534 286.368 347.046C286.546 344.558 286.901 342.603 286.901 342.781Z" fill="#2D2355"/>
<path d="M288.321 325.367C288.498 325.367 288.321 327.321 288.143 329.809C287.966 332.297 287.788 334.074 287.611 334.074C287.433 334.074 287.611 332.119 287.788 329.631C287.966 327.321 288.143 325.367 288.321 325.367Z" fill="#2D2355"/>
<path d="M289.209 307.952C289.386 307.952 289.386 309.907 289.209 312.395C289.209 314.882 289.031 316.837 288.854 316.837C288.676 316.837 288.676 314.882 288.854 312.395C288.854 309.729 289.031 307.774 289.209 307.952Z" fill="#2D2355"/>
<path d="M289.031 290.36C289.208 290.36 289.208 292.315 289.386 294.802C289.386 297.29 289.386 299.245 289.386 299.245C289.208 299.245 289.208 297.29 289.031 294.802C288.853 292.315 288.853 290.36 289.031 290.36Z" fill="#2D2355"/>
<path d="M287.256 273.123C287.433 273.123 287.611 275.078 287.966 277.388C288.321 279.698 288.499 281.653 288.321 281.653C288.144 281.653 287.966 279.698 287.611 277.388C287.433 275.078 287.256 273.123 287.256 273.123Z" fill="#2D2355"/>
<path d="M284.237 262.461C284.415 262.461 284.592 262.817 284.77 263.527C284.947 264.06 285.125 264.594 284.947 264.594C284.77 264.594 284.592 264.238 284.415 263.527C284.237 262.994 284.237 262.461 284.237 262.461Z" fill="#2D2355"/>
<path d="M244.647 382.052C244.647 382.052 244.469 382.052 244.114 382.052C243.759 382.052 243.226 382.052 242.516 381.875C241.274 381.697 239.498 381.342 237.723 380.631C235.947 379.92 234.35 379.032 233.284 378.321C232.752 377.965 232.397 377.61 232.042 377.432C231.687 377.255 231.687 377.077 231.687 377.077C231.687 377.077 232.397 377.432 233.462 378.143C234.527 378.854 236.125 379.565 237.9 380.275C239.676 380.986 241.451 381.342 242.694 381.519C243.759 382.052 244.647 382.052 244.647 382.052Z" fill="#2D2355"/>
<path d="M285.481 382.941C285.481 383.119 282.285 382.763 278.557 382.408C274.651 382.052 271.633 381.697 271.633 381.519C271.633 381.342 274.828 381.697 278.557 382.052C282.285 382.408 285.481 382.763 285.481 382.941Z" fill="#2D2355"/>
<path d="M245.356 229.942C245.356 229.942 253.168 220.702 255.121 219.103C257.074 217.681 262.4 213.594 270.567 214.838C278.733 216.082 293.647 215.549 298.973 228.876C302.346 237.406 303.234 242.026 303.234 242.026C303.234 242.026 295.955 245.402 290.628 244.336L286.545 235.273C286.545 235.273 284.06 235.806 286.19 248.245L288.853 261.573L255.476 264.061L258.139 234.562L254.233 238.116L245.356 229.942Z" fill="#EAC389"/>
<path opacity="0.24" d="M288.498 260.151C288.498 260.329 281.042 260.862 271.81 261.573C262.578 262.283 255.121 262.639 255.121 262.639C255.121 262.461 262.578 261.928 271.81 261.217C281.042 260.507 288.498 259.973 288.498 260.151Z" fill="#2D2355"/>
<path d="M270.922 390.404L271.632 384.718L278.378 384.007L292.759 389.516V391.293L270.922 390.404Z" fill="#EAC389"/>
<path d="M292.404 389.871C292.404 389.871 292.049 389.871 291.517 390.049C290.984 390.227 290.096 390.227 289.209 390.404C287.256 390.582 284.415 390.76 281.397 390.76C278.379 390.76 275.538 390.404 273.585 390.227C272.52 390.049 271.81 390.049 271.277 389.871C270.745 389.694 270.39 389.694 270.39 389.694C270.39 389.694 270.745 389.694 271.277 389.694C271.987 389.694 272.875 389.871 273.585 389.871C275.538 390.049 278.379 390.227 281.397 390.227C284.415 390.227 287.256 390.049 289.209 389.871C290.096 389.871 290.806 389.694 291.517 389.694C292.049 389.871 292.404 389.871 292.404 389.871Z" fill="#2D2355"/>
<path d="M284.237 268.325C284.237 268.503 279.266 269.747 273.23 271.346C267.194 272.945 262.223 274.012 262.223 274.012C262.223 273.834 267.194 272.59 273.23 270.991C279.266 269.391 284.237 268.325 284.237 268.325Z" fill="#2D2355"/>
<path d="M276.959 182.497C274.651 178.943 268.97 179.831 266.484 183.207C263.999 186.584 263.999 191.026 264.354 195.113C264.709 199.2 265.419 203.465 263.999 207.375C262.933 210.395 260.626 212.705 259.028 215.371C257.252 218.036 256.01 221.413 257.075 224.434C257.962 226.744 260.093 228.521 260.981 231.008C262.578 235.273 259.383 239.716 260.093 244.158C260.803 249.667 267.549 252.865 272.698 251.088C277.847 249.311 281.22 243.803 281.575 238.294C281.93 233.674 280.687 228.521 283.35 224.967C284.771 223.19 287.079 222.124 288.321 219.991C290.274 216.793 289.031 212.705 287.079 209.507C285.126 206.308 282.64 203.287 282.285 199.556C282.108 197.068 282.818 194.58 283.35 192.092C283.883 189.605 284.415 186.939 283.35 184.629C282.285 182.319 279.444 180.542 277.136 181.608" fill="#2D2355"/>
<path d="M505.626 288.76H467.81C462.307 288.76 457.868 284.318 457.868 278.809V261.04C457.868 255.531 462.307 251.088 467.81 251.088H505.626C511.129 251.088 515.568 255.531 515.568 261.04V278.809C515.39 284.318 511.129 288.76 505.626 288.76Z" fill="#3A966C"/>
<path d="M471.894 284.673L472.426 300.666L482.546 287.694L471.894 284.673Z" fill="#3A966C"/>
<path d="M471.508 255.551C471.508 255.254 471.594 255.007 471.768 254.809C471.947 254.611 472.213 254.512 472.565 254.512C472.918 254.512 473.184 254.611 473.363 254.809C473.549 255.007 473.642 255.254 473.642 255.551C473.642 255.835 473.549 256.073 473.363 256.265C473.184 256.457 472.918 256.553 472.565 256.553C472.213 256.553 471.947 256.457 471.768 256.265C471.594 256.073 471.508 255.835 471.508 255.551ZM476.518 255.551C476.518 255.254 476.604 255.007 476.777 254.809C476.957 254.611 477.223 254.512 477.575 254.512C477.928 254.512 478.194 254.611 478.373 254.809C478.559 255.007 478.651 255.254 478.651 255.551C478.651 255.835 478.559 256.073 478.373 256.265C478.194 256.457 477.928 256.553 477.575 256.553C477.223 256.553 476.957 256.457 476.777 256.265C476.604 256.073 476.518 255.835 476.518 255.551ZM481.527 255.551C481.527 255.254 481.614 255.007 481.787 254.809C481.966 254.611 482.232 254.512 482.585 254.512C482.938 254.512 483.203 254.611 483.383 254.809C483.568 255.007 483.661 255.254 483.661 255.551C483.661 255.835 483.568 256.073 483.383 256.265C483.203 256.457 482.938 256.553 482.585 256.553C482.232 256.553 481.966 256.457 481.787 256.265C481.614 256.073 481.527 255.835 481.527 255.551Z" fill="white"/>
<path d="M557.999 229.409C557.466 229.942 552.673 234.918 552.673 234.918L539.89 216.437L534.209 219.103C534.209 219.103 547.879 248.956 552.673 245.935C559.774 241.67 565.811 235.273 565.811 235.273L557.999 229.409Z" fill="#E8BFAF"/>
<path d="M522.314 385.606C522.314 385.606 539.713 384.363 545.927 379.565L552.141 382.586V387.561H522.847L522.314 385.606Z" fill="#DBE5EE"/>
<path d="M552.318 387.028C552.318 387.028 551.963 387.028 551.075 387.028C550.01 387.028 549.122 387.028 547.88 387.028C544.862 387.028 541.311 387.028 537.227 387.028C533.322 387.028 529.593 387.028 526.575 387.028C525.332 387.028 524.267 387.028 523.379 387.028C522.669 387.028 522.137 387.028 522.137 387.028C522.137 387.028 522.492 387.028 523.379 387.028C524.445 387.028 525.332 387.028 526.575 387.028C529.593 387.028 533.144 387.028 537.227 387.028C541.133 387.028 544.862 387.028 547.88 387.028C549.122 387.028 550.188 387.028 551.075 387.028C551.963 386.85 552.318 387.028 552.318 387.028Z" fill="#2D2355"/>
<path d="M548.235 384.54C548.235 384.718 547.169 384.896 545.749 385.073C544.329 385.251 543.264 385.429 543.264 385.251C543.264 385.073 544.329 384.896 545.749 384.718C547.169 384.54 548.235 384.362 548.235 384.54Z" fill="#2D2355"/>
<path d="M538.47 385.606C538.47 385.606 537.937 385.073 537.582 384.363C537.227 383.652 537.05 382.941 537.05 382.941C537.05 382.941 537.582 383.474 537.937 384.185C538.292 384.896 538.47 385.429 538.47 385.606Z" fill="#2D2355"/>
<path d="M539.891 385.073C539.713 385.073 539.536 384.54 539.181 383.829C538.826 383.119 538.648 382.408 538.826 382.408C539.003 382.408 539.181 382.941 539.536 383.652C539.891 384.362 540.068 385.073 539.891 385.073Z" fill="#2D2355"/>
<path d="M542.021 384.718C542.021 384.718 541.489 384.185 541.134 383.474C540.778 382.763 540.423 382.052 540.601 382.052C540.601 382.052 541.134 382.586 541.489 383.296C541.844 384.007 542.021 384.54 542.021 384.718Z" fill="#2D2355"/>
<path d="M542.376 382.23C542.376 382.23 542.198 381.875 541.843 381.342C541.488 380.809 541.133 379.92 540.778 378.676C540.601 378.143 540.601 377.432 540.601 376.721C540.601 376.366 540.601 376.011 540.601 375.655C540.601 375.478 540.601 375.3 540.778 375.122C540.956 374.944 541.311 374.767 541.488 374.944C542.198 376.544 542.554 378.143 542.554 379.92C542.554 380.275 542.554 380.631 542.554 380.986C542.554 381.342 542.198 381.697 541.666 381.697C541.311 381.697 540.956 381.342 540.778 381.164C540.601 380.986 540.423 380.631 540.068 380.453C539.18 379.565 538.648 378.498 538.115 377.61L537.938 377.255L538.293 377.432C540.068 377.965 541.133 379.209 541.666 380.098C542.198 380.986 542.198 381.697 542.198 381.697C542.198 381.697 542.021 381.164 541.488 380.275C540.956 379.387 539.89 378.321 538.293 377.788L538.47 377.61C539.003 378.498 539.535 379.387 540.423 380.275C540.778 380.631 541.311 381.342 541.666 381.342C542.198 381.342 542.198 380.631 542.198 379.92C542.198 378.143 541.843 376.366 541.133 375.122C540.956 374.944 540.778 375.3 540.778 375.655C540.778 376.011 540.778 376.366 540.778 376.721C540.778 377.432 540.956 377.965 540.956 378.676C541.488 380.986 542.376 382.23 542.376 382.23Z" fill="#2D2355"/>
<path d="M569.007 260.151C569.007 260.151 561.905 304.398 558.177 319.858C555.514 330.164 542.376 379.742 542.376 379.742C542.376 379.742 543.264 380.809 544.861 381.342C547.702 382.408 551.608 383.829 554.981 383.652C554.981 383.652 570.604 336.206 576.996 308.485C581.612 288.405 583.387 270.102 585.34 269.747C591.909 268.325 583.032 382.586 583.032 382.586L595.46 384.54C595.46 384.54 614.456 281.297 596.702 255.709L569.007 260.151Z" fill="#3A966C"/>
<path d="M602.916 242.559C602.916 242.559 612.68 276.144 611.438 279.52L618.184 280.764C618.184 280.764 615.344 245.935 611.615 237.761L602.916 242.559Z" fill="#E8BFAF"/>
<path d="M553.384 378.498C553.561 378.498 553.206 379.565 552.851 380.631C552.496 381.697 552.141 382.763 551.963 382.585C551.786 382.585 552.141 381.519 552.496 380.453C553.028 379.387 553.384 378.498 553.384 378.498Z" fill="#2D2355"/>
<path d="M558.355 362.861C558.532 362.861 558 364.638 557.29 366.77C556.579 368.903 556.047 370.68 555.869 370.68C555.692 370.68 556.224 368.903 556.935 366.77C557.645 364.638 558.177 362.861 558.355 362.861Z" fill="#2D2355"/>
<path d="M562.97 347.401C563.148 347.401 562.615 349.178 561.905 351.311C561.195 353.443 560.662 355.22 560.485 355.22C560.307 355.22 560.84 353.443 561.55 351.311C562.26 349 562.97 347.401 562.97 347.401Z" fill="#2D2355"/>
<path d="M567.587 331.764C567.764 331.764 567.231 333.541 566.699 335.673C565.989 337.805 565.456 339.582 565.456 339.582C565.456 339.582 565.811 337.805 566.344 335.673C566.876 333.541 567.587 331.764 567.587 331.764Z" fill="#2D2355"/>
<path d="M572.025 316.126C572.202 316.126 571.67 317.903 571.137 320.036C570.604 322.168 569.894 323.945 569.894 323.945C569.717 323.945 570.249 322.168 570.782 320.036C571.315 317.903 571.847 316.126 572.025 316.126Z" fill="#2D2355"/>
<path d="M576.109 300.311C576.286 300.311 575.754 302.088 575.221 304.22C574.688 306.353 574.156 308.13 573.978 308.13C573.801 308.13 574.333 306.353 574.866 304.22C575.398 302.088 575.931 300.311 576.109 300.311Z" fill="#2D2355"/>
<path d="M579.659 284.496C579.837 284.496 579.482 286.273 578.949 288.583C578.417 290.715 578.062 292.492 577.884 292.492C577.707 292.492 578.062 290.715 578.594 288.405C579.127 286.273 579.482 284.496 579.659 284.496Z" fill="#2D2355"/>
<path d="M581.079 272.057C581.256 272.057 581.256 272.945 581.079 274.189C581.079 275.433 580.901 276.322 580.724 276.322C580.546 276.322 580.546 275.255 580.724 274.189C580.901 273.123 581.079 272.057 581.079 272.057Z" fill="#2D2355"/>
<path d="M594.394 375.833C594.572 375.833 594.217 377.788 593.862 380.098C593.507 382.408 593.152 384.363 592.974 384.363C592.796 384.363 593.152 382.408 593.507 380.098C593.862 377.61 594.217 375.833 594.394 375.833Z" fill="#2D2355"/>
<path d="M596.524 358.419C596.702 358.419 596.524 360.373 596.169 362.683C595.814 364.993 595.637 366.948 595.459 366.948C595.282 366.948 595.459 364.993 595.814 362.683C596.169 360.373 596.524 358.419 596.524 358.419Z" fill="#2D2355"/>
<path d="M598.478 341.182C598.656 341.182 598.478 343.136 598.3 345.624C598.123 348.112 597.768 349.889 597.768 349.889C597.59 349.889 597.768 347.934 597.945 345.446C598.123 342.959 598.3 341.004 598.478 341.182Z" fill="#2D2355"/>
<path d="M599.898 323.767C600.075 323.767 599.898 325.722 599.72 328.21C599.543 330.697 599.365 332.474 599.188 332.474C599.01 332.474 599.188 330.52 599.365 328.032C599.543 325.722 599.72 323.767 599.898 323.767Z" fill="#2D2355"/>
<path d="M600.608 306.353C600.786 306.353 600.786 308.307 600.608 310.795C600.608 313.283 600.431 315.238 600.253 315.238C600.076 315.238 600.076 313.283 600.253 310.795C600.431 308.13 600.431 306.353 600.608 306.353Z" fill="#2D2355"/>
<path d="M600.431 288.761C600.608 288.761 600.608 290.715 600.786 293.203C600.786 295.691 600.786 297.645 600.786 297.645C600.608 297.645 600.608 295.691 600.431 293.203C600.431 290.715 600.431 288.761 600.431 288.761Z" fill="#2D2355"/>
<path d="M598.832 271.524C599.01 271.524 599.187 273.478 599.542 275.789C599.898 278.099 600.075 280.053 599.898 280.053C599.72 280.053 599.542 278.099 599.187 275.789C598.832 273.478 598.655 271.524 598.832 271.524Z" fill="#2D2355"/>
<path d="M595.815 260.862C595.992 260.862 596.17 261.217 596.347 261.928C596.525 262.461 596.702 262.994 596.525 262.994C596.347 262.994 596.17 262.639 595.992 261.928C595.815 261.395 595.637 260.862 595.815 260.862Z" fill="#2D2355"/>
<path d="M601.319 266.548C601.319 266.548 600.786 266.726 599.898 266.726C599.011 266.726 597.59 266.193 596.525 265.304C595.46 264.238 594.927 262.994 594.75 262.106C594.572 261.217 594.75 260.506 594.75 260.506C594.75 260.506 594.75 261.04 595.105 261.928C595.282 262.817 595.815 264.06 596.88 264.949C597.945 265.837 599.188 266.37 600.076 266.37C600.786 266.548 601.319 266.37 601.319 266.548Z" fill="#2D2355"/>
<path d="M574.687 261.928C574.687 261.928 574.687 262.106 574.865 262.461C574.865 262.817 575.042 263.35 575.042 264.06C575.042 265.304 574.687 267.081 573.445 268.858C572.379 270.458 570.782 271.524 569.539 272.057C569.006 272.235 568.474 272.412 568.119 272.59C567.763 272.59 567.586 272.59 567.586 272.59C567.586 272.59 568.296 272.412 569.539 271.879C570.604 271.346 572.202 270.28 573.267 268.858C574.332 267.259 574.687 265.482 574.865 264.238C574.687 262.817 574.51 261.928 574.687 261.928Z" fill="#2D2355"/>
<path d="M587.47 265.304C587.47 265.304 587.115 265.66 586.405 266.015C586.05 266.193 585.517 266.193 584.985 265.837C584.452 265.482 584.452 264.771 584.452 264.238C584.452 262.106 584.452 260.329 584.63 260.329C584.807 260.329 584.807 262.106 584.807 264.238C584.807 264.771 584.807 265.304 585.162 265.482C585.517 265.66 585.872 265.66 586.228 265.66C586.938 265.482 587.293 265.304 587.47 265.304Z" fill="#2D2355"/>
<path d="M556.046 380.453C556.046 380.453 555.869 380.453 555.514 380.453C555.158 380.453 554.626 380.453 553.916 380.275C552.673 380.098 550.898 379.742 549.122 379.032C547.347 378.321 545.749 377.432 544.684 376.721C544.151 376.366 543.796 376.011 543.441 375.833C543.086 375.655 543.086 375.478 543.086 375.478C543.086 375.478 543.796 375.833 544.861 376.544C545.927 377.255 547.524 377.965 549.3 378.676C551.075 379.387 552.85 379.742 554.093 379.92C555.336 380.453 556.046 380.453 556.046 380.453Z" fill="#2D2355"/>
<path d="M596.88 381.342C596.88 381.519 593.684 381.164 589.956 380.809C586.05 380.453 583.032 380.098 583.032 379.92C583.032 379.742 586.228 380.098 589.956 380.453C593.862 380.809 596.88 381.164 596.88 381.342Z" fill="#2D2355"/>
<path d="M556.934 228.343C556.934 228.343 564.745 219.103 566.698 217.503C568.651 216.082 573.977 211.995 582.144 213.239C590.311 214.482 605.224 213.949 610.55 227.277C613.923 235.806 614.811 240.426 614.811 240.426C614.811 240.426 607.532 243.803 602.206 242.737L598.122 233.674C598.122 233.674 595.637 234.207 597.767 246.646L600.43 259.973L567.053 262.461L569.716 232.963L565.81 236.517L556.934 228.343Z" fill="url(#paint14_linear)"/>
<path opacity="0.24" d="M567.763 234.918C567.763 234.918 567.053 234.562 566.165 234.029C565.1 233.319 563.857 232.43 562.437 231.186C561.017 230.12 559.774 228.876 559.064 227.988C558.176 227.099 557.821 226.566 557.821 226.566C557.821 226.566 558.354 227.099 559.242 227.81C560.129 228.521 561.372 229.765 562.615 230.831C564.035 231.897 565.278 232.963 566.165 233.674C567.231 234.562 567.763 234.918 567.763 234.918Z" fill="#2D2355"/>
<path opacity="0.24" d="M587.115 231.364C587.115 231.364 587.648 231.364 588.713 231.364C589.778 231.364 591.021 231.364 592.796 231.186H592.974V231.364C592.974 232.963 592.974 234.74 592.796 236.517C592.619 237.228 592.441 238.116 591.554 238.472C590.844 238.649 589.956 238.472 589.601 237.939C588.713 236.872 588.18 235.806 587.825 234.918C587.47 234.029 587.47 233.141 587.47 232.608C587.47 232.075 587.47 231.719 587.47 231.719C587.47 231.719 587.293 232.963 588.003 234.74C588.358 235.629 588.713 236.695 589.601 237.583C589.956 237.939 590.666 238.294 591.199 238.116C591.731 237.939 592.086 237.228 592.086 236.517C592.441 234.74 592.264 232.963 592.264 231.364L592.441 231.542C590.844 231.719 589.423 231.719 588.358 231.542C587.825 231.542 587.47 231.364 587.293 231.364H587.115Z" fill="#2D2355"/>
<path opacity="0.24" d="M613.568 236.162C613.568 236.162 613.568 236.339 613.213 236.695C613.036 237.05 612.681 237.406 612.148 237.761C611.26 238.649 609.662 239.36 607.887 239.893C606.112 240.426 604.336 240.426 603.094 240.604C601.851 240.604 601.141 240.604 601.141 240.604C601.141 240.604 601.851 240.426 603.094 240.426C604.336 240.249 605.934 240.249 607.887 239.716C609.662 239.183 611.26 238.472 612.148 237.761C613.036 236.695 613.391 235.984 613.568 236.162Z" fill="#2D2355"/>
<path opacity="0.24" d="M600.075 258.552C600.075 258.729 592.619 259.263 583.387 259.973C574.155 260.684 566.698 261.04 566.698 261.04C566.698 260.862 574.155 260.329 583.387 259.618C592.619 258.907 600.075 258.374 600.075 258.552Z" fill="#2D2355"/>
<path d="M577.705 199.733C577.883 196.713 576.64 192.981 575.042 190.315C573.977 188.716 572.734 187.295 572.202 185.695C571.314 183.563 570.959 180.542 572.379 178.765C573.8 176.988 576.995 176.277 579.303 176.81C580.724 177.166 581.966 178.232 583.032 179.298C584.097 180.364 584.807 181.786 585.517 183.03C585.872 181.964 586.937 181.43 587.825 181.43C588.89 181.43 589.778 182.141 590.488 182.852C591.021 183.741 591.376 184.629 591.731 185.695C592.796 184.807 594.927 186.228 595.459 187.65C595.992 188.894 595.282 191.737 594.394 193.159C593.329 195.113 593.329 199.733 591.731 202.399" fill="#2D2355"/>
<path d="M577.351 183.03L577.528 206.486L581.256 207.908L580.724 215.371L589.956 216.793C589.956 216.793 592.796 189.072 592.974 188.538C593.151 188.183 577.351 183.03 577.351 183.03Z" fill="#E8BFAF"/>
<path d="M581.789 191.915C581.789 192.092 581.078 191.737 580.191 192.092C579.303 192.448 578.593 192.803 578.593 192.803C578.593 192.803 579.125 192.092 580.013 191.737C580.901 191.382 581.789 191.737 581.789 191.915Z" fill="#2D2355"/>
<path d="M581.257 195.291C581.257 195.646 581.079 195.824 580.724 195.824C580.369 195.824 580.191 195.646 580.191 195.291C580.191 194.936 580.369 194.758 580.724 194.758C580.902 194.58 581.257 194.936 581.257 195.291Z" fill="#2D2355"/>
<path d="M588.713 195.469C588.713 195.824 588.535 196.002 588.18 196.002C587.825 196.002 587.647 195.824 587.647 195.469C587.647 195.113 587.825 194.936 588.18 194.936C588.535 194.936 588.713 195.113 588.713 195.469Z" fill="#2D2355"/>
<path d="M589.955 192.625C589.955 192.625 589.245 192.448 588.358 192.27C587.47 192.092 586.76 192.092 586.76 192.092C586.76 191.915 587.47 191.737 588.358 191.915C589.423 191.915 589.955 192.448 589.955 192.625Z" fill="#2D2355"/>
<path d="M587.47 199.911C587.47 199.911 588.003 201.155 586.938 202.221C585.873 203.287 584.63 202.754 584.63 202.754C584.63 202.577 585.695 202.754 586.583 202.044C587.47 200.977 587.293 199.911 587.47 199.911Z" fill="#2D2355"/>
<path d="M588.002 200.622C587.825 200.622 587.647 200.267 587.292 200.267C586.937 200.089 586.582 200.267 586.582 200.267C586.582 200.267 586.937 199.733 587.47 200.089C588.002 200.089 588.002 200.622 588.002 200.622Z" fill="#2D2355"/>
<path d="M582.144 198.134C582.144 198.312 581.434 198.667 580.368 198.667C579.481 198.667 578.593 198.49 578.593 198.312C578.593 198.134 579.303 197.779 580.368 197.779C581.256 197.601 582.144 197.779 582.144 198.134Z" fill="#E9AF9E"/>
<path d="M584.984 200.089C584.984 200.089 584.629 200.622 583.741 200.444C583.386 200.267 583.031 199.733 583.031 199.2C583.031 198.667 583.741 198.134 584.452 198.312C584.629 198.312 584.629 198.312 584.807 198.49L584.629 198.667C584.274 196.535 584.452 194.758 584.452 194.758C584.629 194.758 584.452 196.535 584.984 198.49V198.845L584.629 198.667H584.452C583.919 198.49 583.564 198.845 583.386 199.378C583.386 199.733 583.564 200.267 583.741 200.267C584.452 200.444 584.984 200.089 584.984 200.089Z" fill="#2D2355"/>
<path d="M589.778 197.956C589.778 198.134 589.068 198.312 588.358 198.312C587.648 198.312 586.938 198.134 586.938 197.779C586.938 197.601 587.648 197.423 588.358 197.423C589.245 197.423 589.778 197.779 589.778 197.956Z" fill="#E9AF9E"/>
<path d="M587.648 201.866C587.826 201.866 588.003 202.577 587.47 202.932C586.938 203.465 586.405 203.465 586.405 203.11C586.405 202.932 586.583 202.577 586.938 202.221C587.115 202.044 587.47 201.688 587.648 201.866Z" fill="#E9AF9E"/>
<path d="M585.872 209.507C585.872 209.685 584.807 209.507 583.564 209.151C582.321 208.796 581.434 208.263 581.434 207.908C581.434 207.73 582.499 207.908 583.742 208.263C584.984 208.796 585.872 209.329 585.872 209.507Z" fill="#E9AF9E"/>
<path d="M592.441 194.936C592.441 194.936 595.814 193.336 595.814 196.002C595.814 198.667 594.749 199.733 591.908 199.378" fill="#E8BFAF"/>
<path d="M592.974 197.956C592.974 197.956 593.151 198.134 593.506 197.956C593.862 197.956 594.039 197.601 594.039 197.246C594.039 196.89 593.684 196.357 593.506 196.357C593.329 196.179 593.151 196.357 592.974 196.357C592.974 196.357 593.151 196.002 593.506 196.179C593.862 196.357 594.217 196.713 594.394 197.423C594.394 198.134 593.862 198.49 593.506 198.49C592.974 198.134 592.796 197.956 592.974 197.956Z" fill="#E9AF9E"/>
<path d="M575.575 188.538C575.575 188.361 577.528 189.605 581.256 188.538C584.984 187.472 591.908 189.782 591.908 189.782V195.824L593.151 194.047L594.216 188.361L577.883 180.897L575.397 187.117" fill="#2D2355"/>
<path d="M596.525 321.813C596.525 321.813 595.815 322.701 594.572 323.767C593.507 324.656 592.441 325.366 592.441 325.366C592.441 325.366 593.152 324.478 594.394 323.412C595.637 322.346 596.525 321.635 596.525 321.813Z" fill="#2D2355"/>
<path d="M597.413 326.077C597.413 326.255 596.17 326.966 594.927 328.21C593.507 329.454 592.619 330.697 592.619 330.52C592.619 330.52 593.329 329.098 594.75 327.854C595.992 326.61 597.413 325.9 597.413 326.077Z" fill="#2D2355"/>
<path d="M569.362 304.22C569.362 304.22 568.829 305.109 567.941 306.175C567.054 307.064 566.344 307.952 566.166 307.774C566.166 307.774 566.699 306.886 567.586 305.82C568.652 304.931 569.362 304.22 569.362 304.22Z" fill="#2D2355"/>
<path d="M569.894 309.551C569.894 309.551 568.651 310.795 567.231 312.039C565.633 313.283 564.39 314.349 564.213 314.349C564.213 314.349 565.456 313.105 566.876 311.861C568.474 310.44 569.894 309.374 569.894 309.551Z" fill="#2D2355"/>
<path d="M583.032 388.805L583.742 383.119L590.489 382.408L605.047 387.916V389.693L583.032 388.805Z" fill="#DBE5EE"/>
<path d="M604.691 388.272C604.691 388.272 604.336 388.272 603.804 388.45C603.271 388.627 602.383 388.627 601.496 388.805C599.543 388.983 596.702 389.16 593.684 389.16C590.666 389.16 587.825 388.805 585.872 388.627C584.807 388.45 584.097 388.45 583.564 388.272C583.032 388.094 582.677 388.094 582.677 388.094C582.677 388.094 583.032 388.094 583.564 388.094C584.275 388.094 585.162 388.272 585.872 388.272C587.825 388.45 590.666 388.627 593.684 388.627C596.702 388.627 599.543 388.45 601.496 388.272C602.383 388.272 603.094 388.094 603.804 388.094C604.336 388.272 604.691 388.272 604.691 388.272Z" fill="#2D2355"/>
<path d="M595.814 386.317C595.814 386.495 594.216 386.317 592.086 386.317C589.955 386.317 588.357 386.495 588.357 386.317C588.357 386.139 589.955 385.962 592.086 385.962C594.216 385.784 595.814 386.139 595.814 386.317Z" fill="#2D2355"/>
<path d="M594.927 384.896C594.927 385.073 593.329 385.073 591.554 384.896C589.601 384.896 588.181 384.718 588.181 384.54C588.181 384.362 589.779 384.362 591.554 384.54C593.507 384.718 594.927 384.896 594.927 384.896Z" fill="#2D2355"/>
<path d="M591.909 384.362C591.909 384.362 591.731 384.007 591.731 383.474C591.554 382.941 591.554 382.052 591.909 380.986C592.087 380.453 592.087 379.742 592.797 379.565C593.152 379.387 593.507 379.742 593.684 380.098C593.862 380.453 593.862 380.808 593.862 381.164C593.862 381.875 593.862 382.585 593.862 383.296C593.862 383.652 593.507 384.185 592.974 384.185C592.442 384.185 592.087 383.829 591.909 383.652C590.666 382.763 589.601 381.697 588.713 380.631C588.536 380.275 588.181 380.098 588.181 379.742C588.181 379.387 588.536 379.209 588.713 379.387C588.891 379.387 589.068 379.565 589.246 379.565C589.779 379.92 590.134 380.275 590.489 380.808C591.199 381.697 591.376 382.408 591.554 383.119C591.731 383.652 591.554 384.007 591.554 384.007C591.554 384.007 591.554 382.585 590.311 380.986C589.956 380.631 589.601 380.275 589.068 379.92C588.891 379.742 588.536 379.742 588.536 379.92C588.536 380.098 588.891 380.453 589.068 380.631C589.956 381.697 591.021 382.763 592.264 383.652C592.619 383.829 592.974 384.185 593.152 384.007C593.507 384.007 593.684 383.652 593.684 383.474C593.862 382.763 593.684 382.052 593.862 381.342C593.862 380.808 593.684 379.92 593.152 380.098C592.619 380.275 592.442 380.808 592.442 381.342C591.554 383.119 592.087 384.362 591.909 384.362Z" fill="#2D2355"/>
<path d="M528.351 214.66C529.061 215.193 530.659 217.326 531.901 218.925C532.611 219.813 533.677 220.169 534.742 219.813L540.068 217.326C540.601 216.97 540.956 216.437 540.778 215.726C540.423 214.127 539.713 211.106 540.423 210.04C541.488 208.263 541.843 208.085 541.488 207.73C540.246 206.841 537.227 208.263 537.227 213.239" fill="#E8BFAF"/>
<path d="M538.648 214.127C538.648 214.127 532.967 204.887 531.724 204.354C530.659 203.821 532.967 210.573 534.032 211.817C534.032 211.817 528.528 205.42 527.463 205.597C526.398 205.953 531.369 212.705 531.369 212.528C531.369 212.35 525.688 206.308 524.978 207.197C524.445 207.908 528.528 212.528 528.528 212.528C528.528 212.528 524.09 210.395 523.735 211.462C523.557 211.995 530.304 216.082 530.304 216.082L538.648 214.127Z" fill="#E8BFAF"/>
<path d="M606.467 285.917C606.467 285.917 606.467 287.872 608.597 286.806C610.55 285.74 611.26 285.384 611.26 285.384C611.26 285.384 611.615 289.116 610.728 289.116L609.485 289.294C609.485 289.294 610.728 292.67 612.858 290.36C612.858 290.36 613.391 293.025 615.699 289.827C615.699 289.827 616.764 291.959 618.184 289.649C619.605 287.339 620.137 283.963 617.829 278.276L611.438 278.632C611.438 278.454 611.793 283.963 606.467 285.917Z" fill="#E8BFAF"/>
<path d="M568.119 139.494L560.13 136.473C559.952 136.473 559.775 136.473 559.597 136.65C559.597 136.828 559.597 137.006 559.775 137.183L566.699 139.849L561.905 141.626L555.869 138.783C555.691 138.783 555.514 138.783 555.336 138.96C555.336 139.138 555.336 139.316 555.514 139.494L561.018 141.981L555.691 143.936L544.684 139.671L555.691 135.406L558.355 136.473C558.532 136.473 558.71 136.473 558.887 136.295C558.887 136.117 558.887 135.94 558.71 135.762L555.869 134.696H555.691L543.619 139.316C543.441 139.316 543.441 139.494 543.441 139.671V141.448C543.441 141.626 543.619 141.804 543.619 141.804L547.347 143.225V144.469C547.347 144.647 547.525 144.825 547.702 144.825C547.88 144.825 548.057 144.647 548.057 144.469V143.403L555.691 146.246C555.691 146.246 555.691 146.246 555.869 146.246H556.047L561.728 144.114V149.978C559.952 150.866 557.999 151.399 555.869 151.399C553.028 151.399 550.365 150.511 548.057 148.734V145.891C548.057 145.713 547.88 145.535 547.702 145.535C547.525 145.535 547.347 145.713 547.347 145.891V149.267C547.347 149.445 547.347 149.445 547.525 149.622C549.833 151.577 552.851 152.466 555.869 152.466C557.822 152.466 559.952 151.932 561.728 151.044V152.466C561.195 152.643 560.662 153.176 560.662 153.887C560.662 154.598 561.373 155.309 562.083 155.309C562.793 155.309 563.503 154.598 563.503 153.887C563.503 153.176 563.148 152.643 562.438 152.466V150.511C562.97 150.155 563.681 149.8 564.213 149.267C564.213 149.267 564.391 149.089 564.391 148.912V143.048L568.119 141.626C568.297 141.626 568.297 141.448 568.297 141.271V139.494C568.297 139.671 568.297 139.671 568.119 139.494ZM562.793 153.887C562.793 154.243 562.438 154.598 562.083 154.598C561.728 154.598 561.373 154.243 561.373 153.887C561.373 153.532 561.728 153.176 562.083 153.176C562.438 153.354 562.793 153.532 562.793 153.887ZM544.152 140.382L555.514 144.647V145.713L544.152 141.448V140.382ZM556.224 145.713V144.825L561.728 142.692V143.581L556.224 145.713ZM563.681 149.089C563.326 149.445 562.97 149.622 562.615 149.8V144.114L563.681 143.758V149.089ZM562.438 143.225V142.337L567.586 140.382V141.271L562.438 143.225Z" fill="#7493FC"/>
</g>
<defs>
<linearGradient id="paint0_linear" x1="561.146" y1="322.22" x2="655.894" y2="312.302" gradientUnits="userSpaceOnUse">
<stop stop-color="#B7E9B3"/>
<stop offset="1" stop-color="#91D3AB"/>
</linearGradient>
<linearGradient id="paint1_linear" x1="367.677" y1="37.9555" x2="373.42" y2="196.71" gradientUnits="userSpaceOnUse">
<stop offset="0.1336" stop-color="#CB6573"/>
<stop offset="1" stop-color="#66428D"/>
</linearGradient>
<linearGradient id="paint2_linear" x1="362.026" y1="232.674" x2="447.261" y2="232.674" gradientUnits="userSpaceOnUse">
<stop stop-color="#76B6DE"/>
<stop offset="1" stop-color="#9BEBF1"/>
</linearGradient>
<linearGradient id="paint3_linear" x1="17.2761" y1="372.138" x2="61.2981" y2="301.936" gradientUnits="userSpaceOnUse">
<stop stop-color="#B7E9B3"/>
<stop offset="1" stop-color="#91D3AB"/>
</linearGradient>
<linearGradient id="paint4_linear" x1="38.9256" y1="184.976" x2="117.842" y2="373.036" gradientUnits="userSpaceOnUse">
<stop stop-color="#91D592"/>
<stop offset="1" stop-color="#5FA79C"/>
</linearGradient>
<linearGradient id="paint5_linear" x1="440.032" y1="436.129" x2="438.806" y2="376.121" gradientUnits="userSpaceOnUse">
<stop offset="0.1336" stop-color="#CB6573"/>
<stop offset="1" stop-color="#66428D"/>
</linearGradient>
<linearGradient id="paint6_linear" x1="441.393" y1="423.864" x2="405.862" y2="362.252" gradientUnits="userSpaceOnUse">
<stop offset="0.1336" stop-color="#CB6573"/>
<stop offset="1" stop-color="#66428D"/>
</linearGradient>
<linearGradient id="paint7_linear" x1="436.503" y1="409.946" x2="485.082" y2="358.964" gradientUnits="userSpaceOnUse">
<stop offset="0.1336" stop-color="#CB6573"/>
<stop offset="1" stop-color="#66428D"/>
</linearGradient>
<linearGradient id="paint8_linear" x1="436.68" y1="377.756" x2="438.611" y2="328.555" gradientUnits="userSpaceOnUse">
<stop stop-color="#76B6DE"/>
<stop offset="0.9995" stop-color="#9BEBF1" stop-opacity="0"/>
</linearGradient>
<linearGradient id="paint9_linear" x1="316.52" y1="68.789" x2="376.924" y2="68.789" gradientUnits="userSpaceOnUse">
<stop offset="0.00048585" stop-color="white"/>
<stop offset="0.9925" stop-color="#E5E5E5"/>
</linearGradient>
<linearGradient id="paint10_linear" x1="385.6" y1="111.407" x2="366.409" y2="51.9313" gradientUnits="userSpaceOnUse">
<stop stop-color="#76B6DE"/>
<stop offset="0.9995" stop-color="#9BEBF1" stop-opacity="0"/>
</linearGradient>
<linearGradient id="paint11_linear" x1="387.377" y1="78.819" x2="390.816" y2="78.819" gradientUnits="userSpaceOnUse">
<stop offset="0.00048585" stop-color="white"/>
<stop offset="0.9925" stop-color="#E5E5E5"/>
</linearGradient>
<linearGradient id="paint12_linear" x1="391.346" y1="78.8193" x2="386.847" y2="78.8193" gradientUnits="userSpaceOnUse">
<stop offset="0.00048585" stop-color="white"/>
<stop offset="0.9925" stop-color="#E5E5E5"/>
</linearGradient>
<linearGradient id="paint13_linear" x1="267.714" y1="263.455" x2="260.705" y2="363.081" gradientUnits="userSpaceOnUse">
<stop stop-color="#76B6DE"/>
<stop offset="1" stop-color="#9BEBF1"/>
</linearGradient>
<linearGradient id="paint14_linear" x1="583.785" y1="211.698" x2="588.372" y2="261.201" gradientUnits="userSpaceOnUse">
<stop stop-color="#76B6DE"/>
<stop offset="1" stop-color="#9BEBF1"/>
</linearGradient>
<clipPath id="clip0">
<rect width="656" height="400" fill="white"/>
</clipPath>
</defs>
</svg>
