<svg width="50" height="50" viewBox="0 0 50 50" fill="none" xmlns="http://www.w3.org/2000/svg">
<path d="M25 0C20.0555 0 15.222 1.46622 11.1108 4.21326C6.99953 6.96029 3.79521 10.8648 1.90302 15.4329C0.0108321 20.0011 -0.484251 25.0277 0.480379 29.8773C1.44501 34.7268 3.82603 39.1813 7.32234 42.6777C10.8187 46.174 15.2732 48.555 20.1227 49.5196C24.9723 50.4842 29.9989 49.9892 34.5671 48.097C39.1352 46.2048 43.0397 43.0005 45.7867 38.8892C48.5338 34.778 50 29.9445 50 25C50 18.3696 47.3661 12.0107 42.6777 7.32233C37.9893 2.63392 31.6304 0 25 0V0ZM24.335 37.5C23.8 37.5 23.277 37.3413 22.8322 37.0441C22.3874 36.7469 22.0406 36.3244 21.8359 35.8302C21.6312 35.3359 21.5776 34.792 21.682 34.2673C21.7864 33.7426 22.044 33.2606 22.4223 32.8823C22.8006 32.504 23.2826 32.2463 23.8073 32.142C24.332 32.0376 24.8759 32.0912 25.3702 32.2959C25.8644 32.5006 26.2869 32.8473 26.5841 33.2922C26.8814 33.737 27.04 34.26 27.04 34.795C27.04 35.5124 26.755 36.2004 26.2477 36.7077C25.7404 37.215 25.0524 37.5 24.335 37.5ZM33.055 20.72C32.7432 21.8033 32.1354 22.7782 31.3 23.535C30.6328 24.1659 29.9191 24.7459 29.165 25.27C28.62 25.67 28.085 26.09 27.55 26.51C27.1923 26.8232 26.9204 27.2224 26.76 27.67C26.6233 28.0033 26.49 28.3233 26.36 28.63C26.2266 28.975 25.9918 29.2714 25.6865 29.4803C25.3813 29.6892 25.0199 29.8006 24.65 29.8C24.1614 29.8577 23.6674 29.7522 23.245 29.5C22.8998 29.2848 22.6194 28.9801 22.4337 28.6182C22.2479 28.2564 22.1637 27.8509 22.19 27.445C22.2174 26.4411 22.6186 25.4836 23.315 24.76C24.1244 23.9317 25.0044 23.1755 25.945 22.5C26.6463 21.9895 27.2508 21.358 27.73 20.635C28.385 19.545 28.18 17.76 27.06 16.97C26.6557 16.6866 26.1924 16.4985 25.705 16.42C24.9608 16.2809 24.194 16.3237 23.47 16.545C23.0771 16.6845 22.7172 16.9034 22.4127 17.1882C22.1081 17.4729 21.8655 17.8174 21.7 18.2C21.41 18.755 21.155 19.33 20.825 19.86C20.5732 20.2508 20.203 20.5509 19.7685 20.7164C19.3341 20.8819 18.858 20.9042 18.41 20.78C18.0055 20.7141 17.6296 20.5297 17.33 20.25C17.1307 20.0563 16.975 19.8223 16.8732 19.5636C16.7715 19.305 16.7261 19.0276 16.74 18.75C16.7532 17.7832 17.0563 16.8426 17.61 16.05C18.5422 14.7116 19.8663 13.6949 21.4 13.14C22.4242 12.7402 23.5108 12.5235 24.61 12.5C26.2201 12.4758 27.818 12.7821 29.305 13.4C30.5643 13.906 31.6316 14.7967 32.355 15.945C32.7914 16.651 33.0787 17.4389 33.1991 18.2601C33.3195 19.0813 33.2704 19.9184 33.055 20.72Z" fill="#099E18"/>
</svg>
