<svg width="1273" height="1129" viewBox="0 0 1273 1129" fill="none" xmlns="http://www.w3.org/2000/svg">
<circle cx="1115.5" cy="47.5" r="12" stroke="#FDD5C3" stroke-width="5"/>
<circle cx="14.5" cy="622.5" r="12" stroke="#FDD5C3" stroke-width="5"/>
<circle cx="1258.5" cy="1114.5" r="12" stroke="#FDD5C3" stroke-width="5"/>
<path d="M91 15.1377L101.333 4.0002L111.667 15.1377L122 4.0002L132.333 15.1377L142.667 4.00019L153 15.1377" stroke="#58B58B" stroke-width="5"/>
<path opacity="0.3" d="M122 44.5L132.333 33.3625L142.667 44.5L153 33.3625L163.333 44.5L173.667 33.3625L184 44.5" stroke="#58B58B" stroke-width="5"/>
<path d="M1254.36 420L1265.5 430.333L1254.36 440.667L1265.5 451L1254.36 461.333L1265.5 471.667L1254.36 482" stroke="#58B58B" stroke-width="5"/>
<path opacity="0.3" d="M1225 451L1236.14 461.333L1225 471.667L1236.14 482L1225 492.333L1236.14 502.667L1225 513" stroke="#58B58B" stroke-width="5"/>
</svg>
