<svg width="136" height="132" viewBox="0 0 136 132" fill="none" xmlns="http://www.w3.org/2000/svg">
<path d="M119.529 71.6237C125.099 43.1659 106.459 15.5976 77.8936 10.0481C49.3286 4.49858 21.6565 23.0695 16.0861 51.5273C10.5157 79.9851 29.1565 107.553 57.7214 113.103C86.2864 118.652 113.959 100.082 119.529 71.6237Z" fill="#F0FFB4"/>
<path opacity="0.2" d="M89.3095 19.4279C91.6904 19.4279 109.434 19.4279 112.495 19.4279C114.422 19.4279 114.422 16.83 112.722 16.83C111.645 16.83 109.547 16.8865 108.47 15.9264C107.45 14.9663 107.28 14.6839 105.296 14.6275C103.311 14.571 102.575 10.9565 100.137 10.9565C97.6993 10.9565 98.2662 13.1591 96.6789 13.272C95.035 13.385 93.5611 12.8202 92.8241 14.6275C92.0872 16.4347 91.4069 17.1124 89.2528 17.1124C87.0986 17.1689 86.7018 19.4279 89.3095 19.4279Z" fill="#557FAF"/>
<path opacity="0.2" d="M56.997 5.19575C55.1263 5.19575 41.181 5.19575 38.7434 5.19575C37.2128 5.19575 37.2128 3.16263 38.5733 3.16263C39.4236 3.16263 41.0676 3.21911 41.9179 2.42845C42.7116 1.69427 42.8816 1.46837 44.4122 1.41189C45.9428 1.41189 45.7727 0 47.6434 0C49.5708 0 48.7205 1.46837 52.632 1.46837C55.183 1.46837 55.353 3.44501 57.0537 3.44501C58.7543 3.44501 59.0378 5.19575 56.997 5.19575Z" fill="#557FAF"/>
<path d="M128.48 16.8863C129.387 17.1122 130.181 17.3946 130.918 17.7899C131.655 18.1852 132.279 18.637 132.789 19.1453C133.299 19.6536 133.696 20.1619 133.979 20.7266C134.263 21.2914 134.433 21.7996 134.433 22.3079C134.433 22.4774 134.376 22.6468 134.263 22.7597C134.149 22.8727 133.979 22.9292 133.809 22.9292H129.954C129.671 22.9292 129.444 22.8727 129.274 22.8162C129.104 22.7597 128.934 22.6468 128.764 22.4774C128.707 22.4209 128.594 22.3079 128.48 22.195C128.367 22.082 128.197 21.9126 127.914 21.7432C127.687 21.5737 127.403 21.4608 127.007 21.3478C126.666 21.2349 126.213 21.1784 125.703 21.1784C125.306 21.1784 124.966 21.1784 124.626 21.2349C124.285 21.2914 124.002 21.3478 123.719 21.4608C123.435 21.5737 123.208 21.7432 123.095 21.9126C122.925 22.082 122.868 22.3644 122.868 22.6468C122.868 22.9292 122.982 23.2115 123.152 23.381C123.322 23.5504 123.662 23.7763 124.115 23.9457C124.569 24.1151 125.136 24.2846 125.873 24.454C126.61 24.6234 127.517 24.7929 128.594 25.0188C129.671 25.2447 130.635 25.527 131.428 25.8659C132.222 26.2047 132.902 26.6001 133.469 27.1084C134.036 27.6166 134.433 28.1814 134.659 28.8591C134.943 29.5368 135.056 30.3275 135.056 31.2875C135.056 32.1347 134.886 32.8689 134.603 33.5466C134.263 34.2243 133.866 34.8455 133.299 35.3538C132.732 35.8621 132.052 36.3139 131.201 36.6527C130.408 36.9916 129.501 37.274 128.537 37.4434V39.533C128.537 39.7589 128.48 39.9283 128.31 40.0977C128.14 40.2672 127.97 40.3236 127.743 40.3236H123.889C123.662 40.3236 123.492 40.2672 123.322 40.0977C123.152 39.9283 123.095 39.7589 123.095 39.533V37.3304C122.131 37.1045 121.281 36.8222 120.544 36.4268C119.807 36.0315 119.127 35.5797 118.617 35.0714C118.05 34.5631 117.653 33.9984 117.37 33.4336C117.086 32.8124 116.916 32.2476 116.916 31.6264C116.916 31.457 116.973 31.2875 117.086 31.1746C117.199 31.0616 117.37 31.0052 117.54 31.0052H121.394C121.678 31.0052 121.905 31.0616 122.018 31.1181C122.188 31.1746 122.358 31.2875 122.471 31.4005C122.528 31.457 122.642 31.6264 122.812 31.7958C122.982 31.9653 123.208 32.1347 123.435 32.3606C123.719 32.53 124.059 32.6994 124.456 32.8689C124.852 32.9818 125.363 33.0948 125.929 33.0948C126.95 33.0948 127.857 32.9818 128.537 32.7559C129.217 32.53 129.614 32.1347 129.614 31.5134C129.614 31.2311 129.501 30.9487 129.217 30.7793C128.934 30.6098 128.594 30.3839 128.084 30.2145C127.573 30.0451 126.893 29.8757 126.1 29.7062C125.306 29.5368 124.342 29.3674 123.265 29.1415C121.224 28.6897 119.75 28.012 118.787 26.9954C117.823 25.9788 117.37 24.6234 117.37 22.9292C117.37 22.2515 117.483 21.5737 117.766 20.9525C118.05 20.3313 118.39 19.7101 118.9 19.2018C119.41 18.6935 119.977 18.1852 120.657 17.7899C121.338 17.3946 122.131 17.1122 123.038 16.8863V14.6837C123.038 14.4578 123.095 14.2884 123.265 14.119C123.435 13.9495 123.605 13.8931 123.832 13.8931H127.687C127.914 13.8931 128.084 13.9495 128.254 14.119C128.424 14.2884 128.48 14.4578 128.48 14.6837V16.8863Z" fill="#D99B00"/>
<path d="M80.002 83.673C73.1205 77.4953 64.5968 80.6232 58.5754 84.2986C53.0233 87.7393 48.8006 93.1351 47.1584 99.4692C47.002 100.017 46.9238 100.564 46.8456 101.111C45.9854 106.038 47.7058 110.964 51.0683 114.718C52.2413 116.047 53.1015 117.846 52.3977 120.192C52.3977 120.192 56.9333 118.393 58.1062 114.014C57.9498 118.393 58.9664 127.152 67.9593 132C67.9593 132 64.7532 123.555 71.6347 119.097C79.9238 113.78 77.8906 105.96 77.8906 105.96C77.8906 105.96 78.9072 106.898 80.002 109.948C81.0968 112.998 82.5825 118.863 87.4309 118.237C87.4309 118.237 84.6939 116.673 87.5091 105.178C89.4641 97.5142 85.3195 88.5213 80.002 83.673Z" fill="#FBE95C"/>
<path d="M63.2676 77.5735C69.8363 74.6802 75.3885 79.1375 78.8292 83.3603C81.9572 87.1138 83.5994 91.884 83.2866 96.7323C83.2866 97.1233 83.2084 97.5925 83.1302 97.9835C82.5828 101.737 80.1586 104.943 76.8743 106.82C75.7013 107.524 74.6847 108.619 74.6065 110.495C74.6065 110.495 71.7131 108.149 71.9477 104.709C71.0093 107.915 68.1942 114.014 60.6088 115.422C60.6088 115.422 64.9098 110.026 60.9998 105.178C56.3079 99.3911 59.5923 94.1517 59.5923 94.1517C59.5923 94.1517 58.5757 94.6209 57.1681 96.4977C55.6823 98.4527 53.1799 102.284 49.8174 100.72C49.8174 100.72 52.1634 100.251 52.8671 91.2584C53.1799 85.3153 58.2629 79.7631 63.2676 77.5735Z" fill="#FFF3AE"/>
<path d="M85.0849 77.8862H51.0684V89.8507H85.0849V77.8862Z" fill="#E58D11"/>
<path d="M29.9541 64.3575L53.3356 44.7295V74.8361L29.9541 85.4712V64.3575Z" fill="#E48C10"/>
<path d="M106.278 64.3575L82.8965 44.7295V74.8361L106.278 85.4712V64.3575Z" fill="#E48C10"/>
<path d="M94.8607 41.8365C91.6545 14.3886 72.574 2.42417 68.1166 0C63.5811 2.42417 44.5005 14.3886 41.2944 41.8365C39.965 53.4881 41.4508 67.8768 48.0977 85.4716L68.0384 85.628L87.9792 85.4716C94.7043 67.7986 96.1901 53.4099 94.8607 41.8365Z" fill="#FFBE00"/>
<path d="M68.1153 63.4977C74.9822 63.4977 80.5489 57.9309 80.5489 51.064C80.5489 44.1971 74.9822 38.6304 68.1153 38.6304C61.2484 38.6304 55.6816 44.1971 55.6816 51.064C55.6816 57.9309 61.2484 63.4977 68.1153 63.4977Z" fill="white"/>
<path d="M68.1151 66.3913C59.6696 66.3913 52.7881 59.5098 52.7881 51.0643C52.7881 42.6188 59.6696 35.7373 68.1151 35.7373C76.5606 35.7373 83.4421 42.5406 83.4421 51.0643C83.4421 59.5098 76.5606 66.3913 68.1151 66.3913ZM68.1151 41.6022C62.8758 41.6022 58.653 45.825 58.653 51.0643C58.653 56.3037 62.8758 60.5264 68.1151 60.5264C73.3544 60.5264 77.5772 56.3037 77.5772 51.0643C77.5772 45.825 73.3544 41.6022 68.1151 41.6022Z" fill="#E48C10"/>
<path d="M69.9145 38.6301C69.9145 39.6467 69.1326 40.4287 68.116 40.4287C67.0994 40.4287 66.3174 39.6467 66.3174 38.6301C66.3174 37.6135 67.0994 36.8315 68.116 36.8315C69.1326 36.8315 69.9145 37.6135 69.9145 38.6301Z" fill="#FCCE59"/>
<path d="M69.9145 63.7322C69.9145 64.7488 69.1326 65.5308 68.116 65.5308C67.0994 65.5308 66.3174 64.7488 66.3174 63.7322C66.3174 62.7156 67.0994 61.9336 68.116 61.9336C69.1326 61.9336 69.9145 62.7156 69.9145 63.7322Z" fill="#FCCE59"/>
<path d="M80.6277 52.9409C79.6111 52.9409 78.8291 52.1589 78.8291 51.1423C78.8291 50.1257 79.6111 49.3438 80.6277 49.3438C81.6443 49.3438 82.4263 50.1257 82.4263 51.1423C82.4263 52.1589 81.6443 52.9409 80.6277 52.9409Z" fill="#FCCE59"/>
<path d="M55.5261 52.9414C54.5095 52.9414 53.7275 52.1594 53.7275 51.1428C53.7275 50.1262 54.5095 49.3442 55.5261 49.3442C56.5427 49.3442 57.3247 50.1262 57.3247 51.1428C57.3247 52.1594 56.5427 52.9414 55.5261 52.9414Z" fill="#FCCE59"/>
<path d="M29.955 85.4719L28 60.6046L31.91 59.979L31.9882 84.5335L29.955 85.4719Z" fill="#BC6A08"/>
<path d="M106.277 85.4719L108.154 60.6046L104.244 59.979L104.166 84.5335L106.277 85.4719Z" fill="#BC6A08"/>
<path d="M55.7077 111.292C56.9737 105.931 53.6537 100.558 48.2923 99.2923C42.9308 98.0264 37.5583 101.346 36.2923 106.708C35.0263 112.069 38.3463 117.442 43.7077 118.708C49.0692 119.974 54.4417 116.654 55.7077 111.292Z" fill="#FF3E6C"/>
<path d="M51.8143 107.616C51.8143 105.667 50.3077 104.265 48.7751 104.265C47.4762 104.265 46.3332 105.122 45.9955 106.317C45.6578 105.122 44.5149 104.265 43.216 104.265C41.6834 104.265 40.1768 105.667 40.1768 107.616C40.1768 110.577 44.7227 113.98 45.8397 114.318C45.8657 114.318 45.8916 114.344 45.9176 114.344C45.9436 114.344 45.9955 114.37 46.0215 114.37C46.0475 114.37 46.0735 114.37 46.1254 114.344C46.1514 114.344 46.1774 114.344 46.2034 114.318C47.2684 113.954 51.8143 110.577 51.8143 107.616Z" fill="#FEFEFE"/>
<path d="M35.4971 46.5027C36.8794 37.3916 30.614 28.885 21.5029 27.5027C12.3917 26.1204 3.88514 32.3859 2.50285 41.497C1.12057 50.6081 7.38602 59.1147 16.4971 60.497C25.6083 61.8793 34.1149 55.6138 35.4971 46.5027Z" fill="#3E6DC1"/>
<path d="M13.7388 42.1704H10.871C10.3496 42.1704 9.91504 42.6049 9.91504 43.1264V51.0781C9.91504 51.5996 10.3496 52.0341 10.871 52.0341H13.7388C14.2603 52.0341 14.6948 51.5996 14.6948 51.0781V43.1264C14.6948 42.6049 14.2603 42.1704 13.7388 42.1704Z" fill="#FEFEFE"/>
<path d="M26.6877 43.1266H26.5139C27.3395 43.1266 28.0347 42.4314 28.0347 41.6058C28.0347 40.7802 27.3395 40.085 26.5139 40.085H21.6038C22.2121 39.129 23.0377 37.6082 23.0377 36.3915C23.0377 34.4362 21.9514 33.3499 21.2562 33.2195C20.5609 33.0891 20.0395 33.4802 19.8222 34.0451C19.605 34.6534 19.996 35.7397 19.8222 36.1743C19.605 36.7826 18.5187 37.6082 17.0847 39.4766C15.7812 41.1713 15.955 43.1266 15.955 43.1266V45.8207V48.5147V49.7748C15.955 50.2963 16.3895 50.7308 16.9109 50.7308H25.9925C26.6008 50.7308 27.0788 50.2528 27.0788 49.6445C27.0788 49.0361 26.6008 48.5582 25.9925 48.5582H26.1663C26.905 48.5582 27.5133 47.9498 27.5133 47.2112C27.5133 46.4725 26.905 45.8641 26.1663 45.8641H26.6442C27.3829 45.8641 27.9913 45.2558 27.9913 44.5171C28.0347 43.735 27.4264 43.1266 26.6877 43.1266Z" fill="#FEFEFE"/>
</svg>
