<svg width="118" height="132" viewBox="0 0 118 132" fill="none" xmlns="http://www.w3.org/2000/svg">
<circle opacity="0.5" cx="59" cy="67" r="59" fill="#58B58B"/>
<path d="M89.3781 129.84C89.3781 131.025 75.2818 132 57.9122 132C40.5426 132 26.4463 131.044 26.4463 129.84C26.4463 128.655 40.5426 127.68 57.9122 127.68C75.2818 127.68 89.3781 128.655 89.3781 129.84Z" fill="#D1D3D4"/>
<path d="M41.1106 97.2892C41.0728 97.3848 36.456 106.521 26.7116 105.336C22.776 104.858 19.8811 102.66 18.0647 98.7801C17.024 96.5438 16.6456 94.3266 16.5131 93.2945C17.6862 92.6637 19.0107 91.3449 19.7297 88.5733C21.0731 83.4126 15.8509 84.2345 15.3779 86.0694C15.34 85.4578 14.9616 84.5786 13.7317 84.9608C11.991 85.496 11.6315 87.6368 11.9342 89.6246C11.9342 89.6246 10.307 88.0382 11.5936 85.7445C12.8992 83.4508 13.2587 82.5525 12.4451 81.9409C11.518 81.2528 7.50667 84.9991 10.3259 89.7393C10.3259 89.7393 8.28243 88.3249 8.83115 85.6298C9.37986 82.9348 9.43663 82.0173 8.52841 81.7688C7.12824 81.4057 3.1548 92.0712 13.2019 93.6767C13.3533 94.9383 13.8074 97.4422 14.9994 100.061C17.2889 105.049 21.2056 108.012 26.3143 108.643C27.0333 108.738 27.7334 108.777 28.4335 108.777C32.634 108.777 36.5317 107.228 39.8051 104.247C42.6433 101.647 44.0434 98.8757 44.1002 98.761L41.1106 97.2892ZM13.7317 88.3058C14.2994 86.834 15.0184 87.6559 15.3211 86.4517C15.34 86.5473 15.3589 86.6429 15.3968 86.7575C15.3968 86.7575 15.5482 87.3883 16.8726 87.2354C18.1971 87.0825 17.27 90.6376 16.3239 90.8479C15.3968 91.0581 12.7857 90.7141 13.7317 88.3058Z" fill="#EF7668"/>
<path d="M47.2589 89.1465L45.5749 99.0092L40.4473 96.0083L47.0886 89.1465H47.2589Z" fill="#D17605"/>
<path d="M49.284 87.4072C49.4732 87.6365 49.5678 87.9615 49.5111 88.2673L47.373 100.844C47.3162 101.188 47.0892 101.475 46.7864 101.609C46.654 101.666 46.5026 101.704 46.3512 101.704C46.162 101.704 45.9917 101.666 45.8404 101.571L38.2719 97.1552C37.9881 97.0023 37.7989 96.7156 37.761 96.3907C37.7232 96.0657 37.8178 95.7408 38.0449 95.5114L45.9161 87.3498C46.1053 87.1396 46.3891 87.0249 46.654 87.0249H48.4893C48.7921 87.044 49.0948 87.1778 49.284 87.4072ZM45.5755 99.0093L47.2595 89.1465H47.0892L40.4478 96.0275L45.5755 99.0093Z" fill="#441165"/>
<path d="M71.7441 98.7805C71.8009 98.8952 73.1821 101.667 76.0392 104.266C79.3126 107.248 83.2104 108.796 87.4109 108.796C88.1109 108.796 88.811 108.758 89.53 108.662C94.6387 108.051 98.5554 105.088 100.845 100.08C102.037 97.4808 102.472 94.9769 102.642 93.6963C112.671 92.0907 108.716 81.4252 107.316 81.7884C106.408 82.0177 106.483 82.9543 107.013 85.6494C107.562 88.3444 105.518 89.7588 105.518 89.7588C108.338 85.0186 104.326 81.2723 103.399 81.9604C102.586 82.5529 102.945 83.4513 104.251 85.764C105.556 88.0577 103.91 89.6441 103.91 89.6441C104.213 87.6372 103.872 85.5156 102.113 84.9804C100.883 84.5981 100.485 85.4582 100.466 86.089C99.9934 84.254 94.7712 83.4321 96.1146 88.5929C96.8336 91.3644 98.1581 92.6832 99.3312 93.314C99.1987 94.3461 98.8203 96.5442 97.7797 98.7997C95.9822 102.68 93.0683 104.878 89.1327 105.356C79.3883 106.541 74.7715 97.4043 74.7337 97.3088L71.7441 98.7805ZM99.4826 90.8483C98.5365 90.6381 97.6094 87.0829 98.9338 87.2358C100.258 87.3887 100.41 86.758 100.41 86.758C100.448 86.6624 100.466 86.5477 100.485 86.4521C100.807 87.6563 101.507 86.8344 102.075 88.3062C103.04 90.7145 100.429 91.0586 99.4826 90.8483Z" fill="#EF7668"/>
<path d="M68.5654 89.147L70.2494 99.0097L75.3771 96.0088L68.7357 89.147H68.5654Z" fill="#D17605"/>
<path d="M67.3353 87.0444H69.1707C69.4545 87.0444 69.7194 87.1591 69.9086 87.3694L77.7798 95.5309C78.0069 95.7603 78.1015 96.0852 78.0636 96.4102C78.0258 96.7351 77.8366 97.0218 77.5528 97.1747L69.9843 101.59C69.8329 101.686 69.6437 101.724 69.4545 101.724C69.3031 101.724 69.1518 101.686 69.0193 101.628C68.7166 101.475 68.4895 101.189 68.4328 100.864L66.2947 88.2868C66.2379 87.981 66.3325 87.6752 66.5217 87.4267C66.7299 87.1782 67.0326 87.0444 67.3353 87.0444ZM75.3768 96.0088L68.7355 89.1278H68.5652L70.2492 98.9905L75.3768 96.0088Z" fill="#441165"/>
<path d="M81.2232 113.708C80.315 112.523 76.0577 112.217 72.2357 112.179L68.0352 85.9163C67.9595 85.4003 67.5243 85.0371 67.0134 85.0371H48.7923C48.2815 85.0371 47.8463 85.4194 47.7706 85.9163L43.5701 112.179C39.7669 112.217 35.5097 112.523 34.5825 113.708C32.8418 115.944 54.8282 117.703 54.8282 117.703C54.8282 117.703 55.7932 122.175 56.8527 122.175C57.9123 122.175 56.8527 115.753 56.8527 115.753L50.3439 114.95H65.4619L58.953 115.753C58.953 115.753 57.8934 122.175 58.953 122.175C60.0126 122.175 60.9776 117.703 60.9776 117.703C60.9776 117.703 82.964 115.944 81.2232 113.708ZM49.7006 87.1205H66.143L69.6624 109.101H46.1812L49.7006 87.1205Z" fill="#441165"/>
<path d="M69.6439 109.101H46.1816L48.8117 92.568L49.701 87.1206H66.1245L67.0517 92.7974L69.6439 109.101Z" fill="#FEB200"/>
<path d="M67.0512 92.7974C58.4042 98.4551 49.7194 93.1414 48.8301 92.568L49.7005 87.1206H66.143L67.0512 92.7974Z" fill="#D17605"/>
<path d="M65.5193 88.3633C63.665 90.1026 60.9403 91.1921 57.9129 91.1921C54.8856 91.1921 52.1609 90.1026 50.3066 88.3633C50.3256 88.3251 50.3445 88.2868 50.3634 88.2486C50.4012 88.1721 50.4391 88.1148 50.4769 88.0383C50.5526 87.9046 50.6094 87.7516 50.6661 87.6178C50.704 87.5414 50.7229 87.4649 50.7608 87.3885C50.7797 87.312 50.8175 87.2356 50.8364 87.1591C50.8554 87.0827 50.8932 87.0062 50.9121 86.9297C50.931 86.8533 50.95 86.7768 50.9689 86.7004C51.0067 86.5475 51.0446 86.3946 51.0824 86.2608C51.1013 86.2034 51.1013 86.127 51.1203 86.0696C51.1581 85.8403 51.1959 85.6109 51.1959 85.3815C51.2149 85.2286 51.2149 85.0948 51.2149 84.9419C51.7446 85.1522 52.369 85.3051 53.0502 85.3051C53.9963 85.3051 55.0559 85.0375 56.229 84.3303C57.0237 83.8524 57.5913 83.2025 57.9319 82.438C58.2724 83.2217 58.8401 83.8524 59.6348 84.3303C60.8079 85.0375 61.8864 85.3051 62.8135 85.3051C63.4947 85.3051 64.1191 85.1713 64.6489 84.9419C64.6489 85.0948 64.6489 85.2286 64.6678 85.3815C64.6867 85.6109 64.7056 85.8403 64.7435 86.0696C64.7624 86.127 64.7624 86.2034 64.7813 86.2608C64.8192 86.4137 64.8381 86.5666 64.8949 86.7004C64.9138 86.7768 64.9327 86.8533 64.9516 86.9297C65.0651 87.2929 65.1976 87.6752 65.3679 88.0192C65.4057 88.1339 65.4625 88.2486 65.5193 88.3633Z" fill="#EF7668"/>
<path d="M47.8471 88.9559C46.7118 90.2748 43.3249 93.161 36.4755 91.7466C26.977 89.797 27.7339 82.2279 27.7717 81.903C27.8285 81.5207 27.6014 81.1575 27.2609 81.0046C21.7359 78.6727 22.436 73.2826 23.0982 70.7979C24.1578 71.5815 25.3687 71.8109 26.1634 71.8873C26.3905 73.6458 27.3365 77.8126 31.1018 80.8517C35.1699 84.1202 41.2057 84.9994 49.058 83.4703C49.1337 83.5659 49.2283 83.6614 49.3418 83.757C49.777 85.3434 49.2094 87.3695 47.8471 88.9559Z" fill="#EF7668"/>
<path d="M54.4881 74.8116C54.5259 74.5822 54.6584 74.3911 54.8287 74.2573C54.9233 74.1808 57.0614 72.5562 56.191 68.7525C54.3935 71.2946 52.0283 71.7725 51.9148 71.8107C51.858 71.8298 51.3661 71.9063 50.6282 71.9063C49.3226 71.9063 47.2791 71.6196 45.633 70.0905C43.7976 68.4085 42.9651 65.7134 43.0975 62.0627C39.6917 62.617 34.3938 62.2347 33.0504 57.5518C32.918 57.0931 33.1829 56.6152 33.637 56.4814C34.0911 56.3476 34.5641 56.6152 34.6966 57.074C36.1156 62.0244 43.7409 60.1704 43.8166 60.1513C44.0814 60.0748 44.3653 60.1513 44.5734 60.3424C44.7815 60.5336 44.8951 60.8012 44.8761 61.0687C44.5356 64.7386 45.1789 67.3381 46.7872 68.8098C48.755 70.6257 51.5742 70.1096 51.6121 70.0905C51.6878 70.0714 53.8826 69.5935 55.3017 66.9558C57.7425 62.4067 55.9639 55.2008 53.9583 49.7916C51.877 49.6578 49.9659 47.7655 48.982 46.6187C48.0549 47.8038 46.598 48.9124 44.3274 49.5431C44.2517 49.5622 44.1761 49.5813 44.1004 49.5813C43.7219 49.5813 43.3814 49.3329 43.2868 48.9506C43.1543 48.4919 43.4381 48.014 43.8922 47.8993C49.7767 46.2747 48.9442 40.9992 48.9063 40.789C48.8307 40.3111 49.1334 39.8715 49.6064 39.7951C50.0795 39.7186 50.5146 40.0244 50.5903 40.5023C50.6092 40.5787 50.8931 42.299 50.2497 44.2677C50.1551 44.5353 50.0605 44.822 49.9281 45.1087C50.7417 46.1409 52.6149 48.1096 54.1853 48.1096H54.2232C54.8854 48.0905 55.4531 47.7082 55.9639 46.9054C57.3073 44.822 57.6101 40.617 55.7936 37.1956C55.5288 36.7178 55.1314 36.0679 54.5827 35.5518C54.034 35.0357 53.3528 34.6152 52.5392 34.6152C48.1684 34.6152 46.2006 36.6222 44.4599 38.3998C44.1571 38.7056 43.8733 39.0114 43.5706 39.2981C43.4003 39.451 43.1732 39.5466 42.9462 39.5275C42.9083 39.5275 39.9377 39.4128 36.9293 40.3303C33.0883 41.4771 30.9502 43.6752 30.5528 46.8481C30.5717 47.3641 30.7799 51.3398 34.11 51.3398H34.1289C34.6019 51.3398 34.9804 51.7221 34.9804 52.1999C34.9804 52.6778 34.6019 53.0601 34.1289 53.0601H34.11C32.7288 53.0601 31.5556 52.6013 30.6663 51.703C29.6068 50.6517 29.1716 49.18 28.9824 48.1287C24.9332 50.537 23.9872 54.7038 24.517 57.9914C24.9522 60.6674 26.3712 62.7125 27.8849 62.8654C28.358 62.9037 28.6985 63.3433 28.6418 63.802C28.6039 64.2416 28.2255 64.5857 27.7903 64.5857C27.7714 64.5857 27.7336 64.5857 27.6957 64.5857C25.9928 64.4137 24.498 63.0375 23.5709 60.9349C23.0033 62.0244 22.2275 64.0887 22.6816 66.8411C23.2682 70.4345 26.4848 70.2434 26.8443 70.2051C26.8632 70.2051 26.8821 70.2051 26.901 70.2051C26.92 70.2051 26.9578 70.2051 26.9767 70.2051C30.4393 70.3772 31.7449 68.9628 31.8016 68.9054C32.1044 68.5422 32.6341 68.504 32.9936 68.8098C33.3532 69.1157 33.391 69.67 33.0883 70.0331C33.0126 70.1096 31.5178 71.8298 27.8849 71.9254C28.1498 73.5501 29.058 77.0288 32.18 79.5327C35.9264 82.5144 41.6595 83.2599 49.1902 81.6926C49.5118 81.6161 49.8524 81.769 50.0605 82.0366C50.1173 82.1131 50.2876 82.3233 50.5525 82.5718C50.6282 82.61 50.6849 82.6674 50.7417 82.7438C51.5742 83.4319 53.1636 84.1965 55.3585 82.8585C56.0018 82.4571 56.3991 81.9219 56.5316 81.2338C56.9289 79.2651 55.3206 76.4171 54.6584 75.4997C54.507 75.2703 54.4502 75.0409 54.4881 74.8116ZM43.8544 79.59C42.8894 79.5709 42.038 79.2078 41.3379 78.5388C40.8081 78.6343 40.2972 78.6726 39.8242 78.6726C38.4051 78.6726 37.2698 78.2712 36.4373 77.4493C34.5263 75.5952 35.0371 72.3841 35.075 72.2503C35.1507 71.7725 35.5858 71.4667 36.0589 71.5431C36.5319 71.6196 36.8346 72.0592 36.759 72.537C36.759 72.5753 36.3805 74.9836 37.6293 76.2069C38.197 76.7612 39.0673 77.0097 40.2215 76.9332C39.6917 75.8628 39.5215 74.8307 39.5215 74.7925C39.4458 74.3146 39.7674 73.875 40.2215 73.7985C40.6946 73.7221 41.1297 74.047 41.2054 74.5058C41.2054 74.544 41.792 77.8124 43.8922 77.8698C44.3653 77.8889 44.7437 78.2712 44.7248 78.749C44.7058 79.2269 44.3274 79.59 43.8544 79.59Z" fill="#EF7668"/>
<path d="M88.5845 81.0042C88.225 81.1571 88.0169 81.5203 88.0736 81.9026C88.1115 82.2275 88.8683 89.7966 79.3699 91.7462C72.5015 93.1606 69.1335 90.2553 67.9983 88.9556C66.617 87.3691 66.0494 85.3431 66.5224 83.7375C66.636 83.6419 66.7306 83.5464 66.8062 83.4508C74.6396 84.9799 80.6755 84.1007 84.7435 80.8322C88.5277 77.8122 89.4549 73.6263 89.6819 71.8678C90.4766 71.8105 91.6876 71.562 92.7472 70.7783C93.4094 73.2822 94.0906 78.6915 88.5845 81.0042Z" fill="#EF7668"/>
<path d="M92.2552 60.9154C91.347 63.0179 89.8333 64.3941 88.1304 64.5662C88.0926 64.5662 88.0736 64.5662 88.0547 64.5662C87.6195 64.5662 87.2411 64.2412 87.2033 63.7825C87.1465 63.3047 87.506 62.8841 87.9601 62.8459C89.4738 62.693 90.8929 60.6478 91.3281 57.9719C91.8579 54.6843 90.9118 50.5175 86.8627 48.1092C86.6735 49.1604 86.2383 50.6131 85.1787 51.6835C84.2894 52.5818 83.1163 53.0405 81.735 53.0405H81.7161C81.2431 53.0405 80.8647 52.6583 80.8647 52.1804C80.8647 51.7026 81.2431 51.3203 81.7161 51.3203H81.735C85.0841 51.3203 85.2733 47.3446 85.2922 46.8285C84.9138 43.6557 82.7568 41.4576 78.9158 40.3107C75.8884 39.4124 72.9178 39.508 72.8989 39.508C72.6718 39.5271 72.4447 39.4315 72.2745 39.2786C71.9717 38.9919 71.6879 38.7052 71.3852 38.3802C69.6444 36.6027 67.6766 34.5957 63.3058 34.5957C62.4922 34.5957 61.8111 34.9971 61.2623 35.5323C60.7136 36.0484 60.3163 36.6982 60.0514 37.1761C58.216 40.5974 58.5188 44.8025 59.8811 46.8859C60.392 47.6696 60.9596 48.0709 61.6218 48.0901H61.6597C63.2301 48.0901 65.1033 46.1213 65.9169 45.0892C65.7845 44.8025 65.6899 44.5158 65.5953 44.2482C64.9709 42.2795 65.2547 40.5592 65.2547 40.4828C65.3304 40.0049 65.7845 39.6991 66.2386 39.7755C66.7116 39.852 67.0144 40.3107 66.9387 40.7695C66.9009 40.9988 66.0683 46.2551 71.9528 47.8798C72.4069 48.0136 72.6718 48.4723 72.5583 48.9311C72.4447 49.3133 72.1042 49.5618 71.7447 49.5618C71.669 49.5618 71.5933 49.5427 71.5176 49.5236C69.2471 48.8928 67.7901 47.7842 66.863 46.5992C65.898 47.7269 63.9681 49.6383 61.8867 49.7721C59.8811 55.1813 58.0836 62.4063 60.5433 66.9363C61.9624 69.574 64.1573 70.0518 64.233 70.0709C64.2519 70.0709 67.0711 70.587 69.0579 68.7903C70.6472 67.3186 71.2906 64.7191 70.9689 61.0492C70.95 60.7625 71.0446 60.4949 71.2716 60.3229C71.4798 60.1509 71.7636 60.0744 72.0285 60.1318C72.1042 60.1509 79.7294 62.0049 81.1485 57.0544C81.2809 56.5957 81.754 56.3281 82.2081 56.4619C82.6622 56.5957 82.9271 57.0735 82.7946 57.5323C81.4512 62.1961 76.1533 62.5783 72.7475 62.0431C72.8989 65.6939 72.0474 68.3889 70.2121 70.0709C68.547 71.6 66.5035 71.8868 65.2169 71.8868C64.4789 71.8868 63.987 71.7912 63.9302 71.7912C63.8167 71.7721 61.4516 71.2751 59.654 68.733C58.7837 72.5366 60.9218 74.1613 61.0164 74.2378C61.2056 74.3716 61.338 74.5818 61.357 74.7921C61.3948 75.0214 61.338 75.2508 61.2056 75.4419C60.5433 76.3785 58.935 79.2073 59.3324 81.1761C59.4838 81.8833 59.8622 82.4185 60.5055 82.8007C62.6814 84.1196 64.2708 83.3742 65.1223 82.6861C65.179 82.6287 65.2358 82.5714 65.3115 82.514C65.5764 82.2656 65.7467 82.0553 65.8034 81.9788C65.9926 81.6921 66.3332 81.5583 66.6738 81.6348C74.2233 83.183 79.9375 82.4567 83.6839 79.4749C86.8059 76.9901 87.7141 73.4923 87.979 71.8676C84.3462 71.7721 82.8514 70.0518 82.7757 69.9754C82.473 69.6122 82.5108 69.0579 82.8703 68.7521C83.2298 68.4463 83.7596 68.4845 84.0623 68.8477C84.1191 68.905 85.4247 70.3194 88.8872 70.1474C88.9062 70.1474 88.944 70.1474 88.9629 70.1474C88.9818 70.1474 89.0008 70.1474 89.0197 70.1474C89.3792 70.1856 92.5769 70.3768 93.1823 66.7834C93.5986 64.0692 92.8228 62.0049 92.2552 60.9154ZM79.3888 77.4489C78.5563 78.2708 77.421 78.6722 76.0019 78.6722C75.5289 78.6722 75.018 78.6339 74.4882 78.5384C73.7882 79.2073 72.9367 79.5705 71.9906 79.5896H71.9717C71.5176 79.5896 71.1203 79.2073 71.1203 78.7486C71.1013 78.2708 71.4798 77.8885 71.9528 77.8694C74.0531 77.8312 74.6396 74.5627 74.6396 74.5053C74.7153 74.0275 75.1505 73.7217 75.6235 73.7981C76.0965 73.8746 76.3993 74.3142 76.3236 74.7921C76.3236 74.8303 76.1533 75.8624 75.6235 76.9328C76.7588 77.0093 77.6291 76.7608 78.2157 76.2065C79.4645 74.9832 79.105 72.5749 79.0861 72.5366C79.0104 72.0588 79.3131 71.6192 79.7862 71.5427C80.2592 71.4663 80.6944 71.7721 80.7701 72.2499C80.789 72.3837 81.2999 75.5948 79.3888 77.4489Z" fill="#EF7668"/>
<path d="M43.8734 77.8696C44.3465 77.8887 44.7249 78.271 44.706 78.7489C44.706 79.2267 44.3086 79.5899 43.8545 79.5899H43.8356C42.8895 79.5707 42.0381 79.2076 41.338 78.5386C40.8082 78.6342 40.2973 78.6724 39.8243 78.6724C38.4052 78.6724 37.2699 78.271 36.4374 77.4491C34.5264 75.5951 35.0372 72.3839 35.0751 72.2502C35.1508 71.7723 35.586 71.4665 36.059 71.5429C36.532 71.6194 36.8348 72.059 36.7591 72.5369C36.7591 72.5751 36.3806 74.9834 37.6294 76.2067C38.1971 76.761 39.0675 77.0095 40.2216 76.933C39.6919 75.8627 39.5216 74.8305 39.5216 74.7923C39.4459 74.3144 39.7675 73.8748 40.2216 73.7984C40.6947 73.7219 41.1299 74.0468 41.2055 74.5056C41.2055 74.5629 41.7732 77.8314 43.8734 77.8696Z" fill="#EF564B"/>
<path d="M71.9524 77.8696C71.4793 77.8887 71.1009 78.271 71.1198 78.7489C71.1198 79.2267 71.5172 79.5899 71.9713 79.5899H71.9902C72.9363 79.5707 73.7877 79.2076 74.4878 78.5386C75.0176 78.6342 75.5285 78.6724 76.0015 78.6724C77.4206 78.6724 78.5559 78.271 79.3884 77.4491C81.2994 75.5951 80.7886 72.3839 80.7507 72.2502C80.675 71.7723 80.2398 71.4665 79.7668 71.5429C79.2938 71.6194 78.991 72.059 79.0667 72.5369C79.0667 72.5751 79.4452 74.9834 78.1964 76.2067C77.6287 76.761 76.7583 77.0095 75.6042 76.933C76.1339 75.8627 76.3042 74.8305 76.3042 74.7923C76.3799 74.3144 76.0583 73.8748 75.6042 73.7984C75.1311 73.7219 74.6959 74.0468 74.6202 74.5056C74.6392 74.5629 74.0526 77.8314 71.9524 77.8696Z" fill="#EF564B"/>
<path d="M94.828 67.0894C95.6227 62.2345 93.144 59.0807 93.0305 58.9469C92.9926 58.8895 92.9548 58.8513 92.898 58.8131C92.9359 58.6219 92.9737 58.4308 93.0116 58.2397C93.636 54.3404 92.4061 48.9121 86.9379 46.1597C86.3324 42.509 83.7213 39.9095 79.3883 38.6098C76.7204 37.807 74.1661 37.7497 73.22 37.7497C73.0308 37.5585 72.8227 37.3483 72.6146 37.138C71.6685 36.1823 70.6278 35.1119 69.1709 34.2709C67.714 33.4299 65.8597 32.8374 63.3243 32.8374C61.4511 32.8374 59.7671 34.0798 58.5561 36.3161C58.3291 36.7557 58.102 37.2336 57.9128 37.7497C57.7236 37.2336 57.5155 36.7557 57.2695 36.3161C56.0775 34.0798 54.3746 32.8374 52.5014 32.8374C49.9659 32.8374 48.1117 33.4299 46.6547 34.2709C45.1978 35.1119 44.1571 36.1823 43.2111 37.138C43.0029 37.3483 42.8137 37.5585 42.6056 37.7497C41.6595 37.7497 39.1052 37.807 36.4373 38.6098C32.0854 39.9095 29.4932 42.509 28.8878 46.1597C23.4006 48.893 22.1707 54.3404 22.8141 58.2397C22.8519 58.4308 22.8897 58.6219 22.9276 58.8131C22.8897 58.8513 22.833 58.8895 22.7951 58.9469C22.6816 59.0807 20.2029 62.2153 20.9976 67.0894C21.149 67.9877 21.4139 68.714 21.7545 69.3066C21.4707 70.1476 20.903 72.059 20.9598 74.257C21.0355 77.9842 22.7762 80.7748 26.0496 82.3613C26.0307 83.2405 26.1442 84.9225 26.9199 86.7575C28.7931 91.1154 32.9558 92.7974 36.1346 93.4664C37.5536 93.7531 38.8214 93.8869 39.9945 93.8869C45.2167 93.8869 48.0549 91.383 49.1334 90.1215C49.1712 90.0642 49.228 90.0259 49.2658 89.9686C51.4418 91.8991 54.5259 93.1033 57.9317 93.1033C61.3375 93.1033 64.4028 91.8991 66.5976 89.9686C66.5787 89.9495 66.5787 89.9304 66.5598 89.9113C66.6166 89.9877 66.6733 90.0451 66.7301 90.1024C67.8086 91.3639 70.6468 93.8678 75.869 93.8678C77.0421 93.8678 78.3098 93.7531 79.7289 93.4473C82.9077 92.7974 87.0703 91.0963 88.9435 86.7384C89.7193 84.9226 89.8328 83.2405 89.8139 82.3422C93.0683 80.7557 94.828 77.9842 94.9037 74.2379C94.9415 72.0398 94.3928 70.1285 94.109 69.2874C94.4117 68.714 94.6766 67.9877 94.828 67.0894ZM57.9128 82.4186C58.2534 83.2023 58.821 83.8331 59.6157 84.3109C60.7888 85.0181 61.8673 85.2857 62.7945 85.2857C63.4756 85.2857 64.1 85.1519 64.6298 84.9226C64.6298 85.0755 64.6298 85.2093 64.6487 85.3622C64.6677 85.5915 64.6866 85.8209 64.7244 86.0503C64.7434 86.1076 64.7434 86.1841 64.7623 86.2414C64.8001 86.3943 64.819 86.5472 64.8758 86.681C64.8947 86.7575 64.9136 86.8339 64.9326 86.9104C65.0461 87.2736 65.1785 87.6367 65.3488 87.9999C65.4245 88.1337 65.4813 88.2866 65.557 88.4204C65.538 88.4013 65.538 88.3822 65.5191 88.363C65.5191 88.3439 65.5002 88.3248 65.5002 88.3057C63.6459 90.0451 60.9213 91.1345 57.8939 91.1345C54.8665 91.1345 52.1419 90.0451 50.2876 88.3057C50.2687 88.3439 50.2497 88.363 50.2308 88.4013C50.2687 88.3248 50.3065 88.2675 50.3443 88.191C50.3822 88.1146 50.42 88.0381 50.4579 87.9808C50.5336 87.847 50.5903 87.6941 50.6471 87.5603C50.6849 87.4838 50.7039 87.4073 50.7417 87.3309C50.7606 87.2544 50.7985 87.178 50.8174 87.1015C50.8363 87.0251 50.8552 86.9486 50.8931 86.8722C50.912 86.7957 50.9309 86.7192 50.9498 86.6428C50.9877 86.4899 51.0255 86.337 51.0634 86.2032C51.0823 86.1458 51.0823 86.0694 51.1012 86.012C51.139 85.7827 51.1769 85.5533 51.1769 85.3239C51.1958 85.171 51.1958 85.0372 51.1958 84.8843C51.7256 85.0946 52.35 85.2475 53.0312 85.2475C53.9772 85.2475 55.0368 84.9799 56.2099 84.2727C57.0046 83.8331 57.5722 83.1832 57.9128 82.4186ZM23.5709 60.9156C24.4791 63.0181 25.9928 64.3943 27.6957 64.5663C27.7336 64.5663 27.7525 64.5663 27.7903 64.5663C28.2255 64.5663 28.6039 64.2414 28.6418 63.7827C28.6985 63.3048 28.339 62.8843 27.8849 62.8461C26.3712 62.6932 24.9521 60.648 24.517 57.9721C23.9872 54.6845 24.9332 50.5177 28.9824 48.1093C29.1716 49.1606 29.6068 50.6133 30.6663 51.6836C31.5556 52.582 32.7287 53.0407 34.11 53.0407H34.1289C34.6019 53.0407 34.9804 52.6584 34.9804 52.1806C34.9804 51.7027 34.6019 51.3205 34.1289 51.3205H34.11C30.7609 51.3205 30.5717 47.3448 30.5528 46.8287C30.9312 43.6558 33.0882 41.4577 36.9292 40.3109C39.9566 39.4126 42.9272 39.5081 42.9462 39.5081C43.1732 39.5272 43.4003 39.4317 43.5706 39.2788C43.8733 38.9921 44.1571 38.7053 44.4599 38.3804C46.2006 36.6028 48.1684 34.5959 52.5392 34.5959C53.3528 34.5959 54.034 34.9973 54.5827 35.5324C55.1314 36.0485 55.5287 36.6984 55.7936 37.1762C57.629 40.5976 57.3263 44.8027 55.9639 46.8861C55.4531 47.6697 54.8854 48.0711 54.2232 48.0902H54.1853C52.6149 48.0902 50.7417 46.1215 49.9281 45.0894C50.0605 44.8026 50.1551 44.5159 50.2497 44.2484C50.8741 42.2796 50.5903 40.5594 50.5903 40.4829C50.5146 40.0051 50.0605 39.6993 49.6064 39.7757C49.1334 39.8522 48.8307 40.3109 48.9063 40.7696C48.9442 40.999 49.7767 46.2553 43.8922 47.88C43.4381 48.0138 43.1732 48.4725 43.2868 48.9312C43.4003 49.3135 43.7409 49.562 44.1004 49.562C44.176 49.562 44.2517 49.5429 44.3274 49.5238C46.598 48.893 48.0549 47.7844 48.982 46.5993C49.947 47.7271 51.877 49.6384 53.9583 49.7722C55.9639 55.1815 57.7614 62.4065 55.3017 66.9365C53.8826 69.5742 51.6878 70.052 51.6121 70.0711C51.5931 70.0711 48.7739 70.5872 46.7872 68.7905C45.1978 67.3187 44.5545 64.7192 44.8761 61.0494C44.8951 60.7627 44.8004 60.4951 44.5734 60.3231C44.3653 60.151 44.0814 60.0746 43.8165 60.1319C43.7409 60.151 36.1156 62.0051 34.6965 57.0546C34.5641 56.5959 34.0911 56.3283 33.637 56.4621C33.1829 56.5959 32.918 57.0737 33.0504 57.5325C34.3938 62.1962 39.6917 62.5785 43.0975 62.0433C42.9462 65.6941 43.7976 68.3891 45.633 70.0711C47.298 71.6002 49.3415 71.8869 50.6282 71.8869C51.3661 71.8869 51.858 71.7914 51.9148 71.7914C52.0283 71.7722 54.3935 71.2753 56.191 68.7332C57.0614 72.5368 54.9233 74.1615 54.8287 74.2379C54.6395 74.3717 54.507 74.582 54.4881 74.7922C54.4502 75.0216 54.507 75.251 54.6395 75.4421C55.3017 76.3787 56.91 79.2075 56.5126 81.1762C56.3613 81.8835 55.9829 82.4186 55.3395 82.8009C53.1636 84.1198 51.5742 83.3743 50.7228 82.6862C50.666 82.6289 50.6092 82.5716 50.5336 82.5142C50.2687 82.2657 50.0984 82.0555 50.0416 81.979C49.8524 81.6923 49.5118 81.5585 49.1712 81.635C41.6217 83.1832 35.9075 82.4569 32.1611 79.4751C29.0391 76.9903 28.1309 73.4925 27.866 71.8678C31.4989 71.7722 32.9936 70.052 33.0693 69.9755C33.3721 69.6124 33.3342 69.0581 32.9747 68.7523C32.6152 68.4464 32.0854 68.4847 31.7827 68.8478C31.7259 68.9052 30.4204 70.3196 26.9578 70.1476C26.9389 70.1476 26.901 70.1476 26.8821 70.1476C26.8632 70.1476 26.8443 70.1476 26.8253 70.1476C26.4658 70.1858 23.2682 70.3769 22.6627 66.7835C22.2275 64.0694 23.0033 62.0051 23.5709 60.9156ZM47.8468 88.9556C46.7115 90.2744 43.3246 93.1606 36.4751 91.7462C26.9767 89.7966 27.7336 82.2275 27.7714 81.9026C27.8282 81.5203 27.6011 81.1571 27.2605 81.0042C21.7356 78.6723 22.4356 73.2822 23.0979 70.7974C24.1575 71.5811 25.3684 71.8105 26.1631 71.8869C26.3902 73.6454 27.3362 77.8122 31.1015 80.8513C35.1696 84.1198 41.2054 84.999 49.0577 83.4699C49.1334 83.5655 49.228 83.661 49.3415 83.7566C49.7767 85.3431 49.2091 87.3691 47.8468 88.9556ZM88.584 81.0042C88.2245 81.1571 88.0164 81.5203 88.0731 81.9026C88.111 82.2275 88.8678 89.7966 79.3694 91.7462C72.501 93.1606 69.1331 90.2553 67.9978 88.9556C66.6165 87.3691 66.0489 85.3431 66.5219 83.7375C66.6355 83.6419 66.7301 83.5464 66.8058 83.4508C74.6391 84.9799 80.675 84.1007 84.743 80.8322C88.5272 77.8122 89.4544 73.6263 89.6814 71.8678C90.4761 71.8105 91.6871 71.562 92.7467 70.7783C93.4089 73.2822 94.0901 78.6914 88.584 81.0042ZM93.144 66.8218C92.5575 70.4152 89.3409 70.224 88.9814 70.1858C88.9624 70.1858 88.9435 70.1858 88.9246 70.1858C88.9057 70.1858 88.8678 70.1858 88.8489 70.1858C85.3863 70.3578 84.0808 68.9434 84.024 68.8861C83.7213 68.5229 83.1915 68.4847 82.832 68.7905C82.4725 69.0963 82.4346 69.6506 82.7374 70.0138C82.8131 70.0902 84.3078 71.8105 87.9407 71.906C87.6758 73.5307 86.7676 77.0094 83.6456 79.5133C79.8992 82.4951 74.1661 83.2405 66.6355 81.6732C66.3138 81.5967 65.9732 81.7497 65.7651 82.0173C65.7083 82.0937 65.538 82.304 65.2731 82.5524C65.1975 82.5907 65.1407 82.648 65.0839 82.7245C64.2514 83.4126 62.662 84.1771 60.4672 82.8391C59.8238 82.4378 59.4265 81.9026 59.2941 81.2145C58.8967 79.2457 60.505 76.3978 61.1673 75.4803C61.2997 75.2892 61.3565 75.0598 61.3186 74.8305C61.2808 74.6011 61.1483 74.41 60.978 74.2762C60.8834 74.1997 58.7453 72.575 59.6157 68.7714C61.4132 71.3135 63.7784 71.7914 63.8919 71.8296C63.9487 71.8487 64.4406 71.9252 65.1785 71.9252C66.4841 71.9252 68.5276 71.6384 70.1737 70.1093C72.0091 68.4273 72.8416 65.7323 72.7092 62.0815C76.115 62.6358 81.4129 62.2536 82.7563 57.5707C82.8887 57.1119 82.6239 56.6341 82.1697 56.5003C81.7156 56.3665 81.2426 56.6341 81.1102 57.0928C79.6911 62.0433 72.0658 60.1893 71.9902 60.1702C71.7253 60.0937 71.4414 60.1702 71.2333 60.3613C71.0252 60.5524 70.9116 60.82 70.9306 61.0876C71.2711 64.7575 70.6278 67.357 69.0195 68.8287C67.0517 70.6445 64.2325 70.1285 64.1946 70.1093C64.119 70.0902 61.9241 69.6124 60.505 66.9747C58.0642 62.4256 59.8428 55.2197 61.8484 49.8105C63.9297 49.6767 65.8408 47.7844 66.8247 46.6376C67.7518 47.8226 69.2087 48.9312 71.4793 49.562C71.555 49.5811 71.6307 49.6002 71.7063 49.6002C72.0848 49.6002 72.4253 49.3517 72.52 48.9695C72.6524 48.5107 72.3686 48.0329 71.9145 47.9182C66.03 46.2935 66.8625 41.0181 66.9004 40.8079C66.976 40.33 66.6733 39.8904 66.2003 39.8139C65.7272 39.7375 65.2921 40.0433 65.2164 40.5212C65.1975 40.5976 64.9136 42.3179 65.557 44.2866C65.6516 44.5542 65.7462 44.8409 65.8786 45.1276C65.065 46.1597 63.1918 48.1285 61.6214 48.1285H61.6024C60.9402 48.1093 60.3726 47.7271 59.8617 46.9243C58.5183 44.8409 58.2156 40.6358 60.032 37.2145C60.2969 36.7366 60.6942 36.0868 61.2429 35.5707C61.7917 35.0546 62.4728 34.6341 63.2864 34.6341C67.6572 34.6341 69.625 36.6411 71.3658 38.4186C71.6685 38.7245 71.9523 39.0303 72.2551 39.317C72.4253 39.4699 72.6524 39.5655 72.8795 39.5464C72.9173 39.5464 75.8879 39.4317 78.8964 40.3491C82.7374 41.496 84.8755 43.694 85.2728 46.8669C85.2539 47.383 85.0458 51.3587 81.7156 51.3587H81.6967C81.2237 51.3587 80.8453 51.741 80.8453 52.2188C80.8453 52.6967 81.2237 53.0789 81.6967 53.0789H81.7156C83.0969 53.0789 84.27 52.6202 85.1593 51.7219C86.2189 50.6706 86.6541 49.1988 86.8433 48.1476C90.8924 50.5559 91.8385 54.7227 91.3087 58.0103C90.8735 60.6862 89.4544 62.7314 87.9407 62.8843C87.4677 62.9225 87.1271 63.3622 87.1839 63.8209C87.2217 64.2605 87.6001 64.6046 88.0353 64.6046C88.0542 64.6046 88.0921 64.6046 88.111 64.6046C89.8139 64.4325 91.3087 63.0563 92.2358 60.9538C92.8223 62.0051 93.5981 64.0694 93.144 66.8218Z" fill="#EF564B"/>
<path d="M66.1807 83.1453C66.1807 84.3303 65.632 85.4198 64.7048 86.3182C63.8534 87.1401 62.6802 87.8091 61.299 88.2104C60.2583 88.5163 59.1231 88.6883 57.9121 88.6883C56.7012 88.6883 55.5659 88.5163 54.5252 88.2104C53.144 87.7899 51.9709 87.1401 51.1194 86.3182C50.1923 85.4198 49.6436 84.3303 49.6436 83.1453C49.6436 80.909 51.6114 81.9411 54.4495 82.6483C55.5091 82.9159 56.6822 83.1453 57.9121 83.1453C59.142 83.1453 60.3151 82.9159 61.3747 82.6483C64.2129 81.9411 66.1807 80.909 66.1807 83.1453Z" fill="#441165"/>
<path d="M61.2992 87.7903C60.2585 88.0961 59.1232 88.2681 57.9123 88.2681C56.7013 88.2681 55.5661 88.0961 54.5254 87.7903C54.7524 86.1083 56.1905 84.8276 57.9123 84.8276C59.6341 84.8276 61.0721 86.1083 61.2992 87.7903Z" fill="#EF564B"/>
<path d="M52.7658 74.0658C52.7658 74.0658 52.7847 74.1423 52.7847 74.2761C52.7847 74.3334 52.8036 74.429 52.8226 74.5246C52.8226 74.5819 52.8415 74.6201 52.8415 74.6775C52.8415 74.7348 52.8415 74.8113 52.8415 74.8686C52.8415 75.0024 52.8415 75.1744 52.8226 75.3465C52.8036 75.5185 52.7847 75.6905 52.7469 75.8817C52.709 76.0728 52.6523 76.2639 52.6144 76.4933C52.5577 76.7036 52.4631 76.9138 52.3874 77.1432C52.2928 77.3534 52.1792 77.5828 52.0468 77.8122C51.9144 78.0415 51.763 78.2709 51.5927 78.4811C51.2521 78.9399 50.8169 79.3413 50.325 79.7044C50.1925 79.8 50.0601 79.8764 49.9276 79.972C49.7952 80.0485 49.6438 80.1249 49.5114 80.2014L49.3032 80.3161L49.0762 80.4116C48.9248 80.469 48.7734 80.5263 48.6221 80.5837C48.3004 80.6792 47.9977 80.7748 47.6571 80.813C47.4868 80.8321 47.3354 80.8704 47.1651 80.8704L46.9192 80.8895H46.7867H46.7299H46.6921H46.6732C46.6543 80.8895 46.7299 80.8895 46.6164 80.8895L46.2002 80.8704H46.0866C46.0488 80.8704 46.0109 80.8704 45.9731 80.8513L45.7082 80.813C45.5379 80.7748 45.3487 80.7557 45.1973 80.7175C45.046 80.6792 44.8757 80.6219 44.7243 80.5837C44.5729 80.5263 44.4216 80.469 44.2702 80.4116L44.0431 80.3161L43.835 80.2014C43.7026 80.1249 43.5512 80.0676 43.4187 79.972C43.2863 79.8956 43.1538 79.8 43.0214 79.7044C42.5294 79.3413 42.0753 78.9208 41.7537 78.4811C41.5645 78.2709 41.432 78.0224 41.2996 77.8122C41.1671 77.5828 41.0536 77.3534 40.959 77.1432C40.8833 76.9138 40.7887 76.7036 40.7319 76.4933C40.6752 76.283 40.6184 76.0728 40.5995 75.8817C40.5806 75.6905 40.5427 75.5185 40.5238 75.3465C40.5238 75.1744 40.5238 75.0215 40.5049 74.8877C40.5049 74.8113 40.5049 74.7539 40.5049 74.6966C40.5049 74.6392 40.5238 74.5819 40.5238 74.5246C40.5427 74.429 40.5427 74.3334 40.5616 74.257C40.5806 74.1232 40.5806 74.0467 40.5806 74.0467C40.6184 73.8174 40.8265 73.6453 41.0536 73.6836C41.2239 73.7027 41.3563 73.8365 41.4131 73.9894L41.432 74.0467C41.432 74.0467 41.4509 74.1041 41.4888 74.2379C41.5266 74.3525 41.5455 74.5437 41.6212 74.7539C41.6591 74.8686 41.6969 74.9833 41.7348 75.098C41.7915 75.2127 41.8483 75.3465 41.905 75.4994C41.9618 75.6332 42.0564 75.7861 42.1321 75.9199C42.2078 76.0728 42.3213 76.2066 42.4159 76.3595C42.5294 76.5124 42.643 76.6653 42.7565 76.7991C42.8889 76.9329 43.0025 77.1049 43.1728 77.2387C43.4566 77.5254 43.8161 77.7739 44.1756 78.0033C44.554 78.2327 44.9703 78.3856 45.3865 78.5194C45.5001 78.5385 45.6136 78.5767 45.7082 78.5958C45.765 78.6149 45.8217 78.6149 45.8596 78.6149L46.0109 78.634L46.1623 78.6532C46.1812 78.6532 46.2191 78.6532 46.2569 78.6532H46.3704L46.7867 78.6723C46.6732 78.6723 46.7678 78.6723 46.7299 78.6723H46.7489H46.7678H46.8056H46.8813H47.0516C47.1651 78.6723 47.2787 78.6532 47.3922 78.634C47.5057 78.6149 47.6192 78.6149 47.7328 78.5767C47.8463 78.5576 47.9598 78.5194 48.0544 78.5003C48.4707 78.3665 48.887 78.2135 49.2654 77.9842C49.6249 77.7548 49.9844 77.5254 50.2682 77.2196C50.4196 77.0858 50.552 76.9329 50.6845 76.78C50.8169 76.6271 50.9115 76.4742 51.0251 76.3404C51.1197 76.1875 51.2143 76.0346 51.3089 75.9008C51.3846 75.7479 51.4602 75.6141 51.5359 75.4803C51.5927 75.3465 51.6495 75.2127 51.7062 75.0789C51.7441 74.9642 51.7819 74.8495 51.8197 74.7539C51.8387 74.6966 51.8576 74.6584 51.8765 74.601C51.8954 74.5437 51.8954 74.5055 51.9143 74.4481C51.9333 74.3525 51.9522 74.2761 51.9711 74.1996C52.009 74.0658 52.0279 74.0085 52.0279 74.0085C52.0846 73.7791 52.3117 73.6453 52.5388 73.7027C52.6144 73.7409 52.7469 73.8938 52.7658 74.0658Z" fill="#441165"/>
<path d="M75.301 74.0658C75.301 74.0658 75.3199 74.1423 75.3199 74.2761C75.3199 74.3334 75.3388 74.429 75.3577 74.5246C75.3577 74.5819 75.3766 74.6201 75.3766 74.6775C75.3766 74.7348 75.3766 74.8113 75.3766 74.8686C75.3766 75.0024 75.3766 75.1744 75.3577 75.3465C75.3388 75.5185 75.3199 75.6905 75.282 75.8817C75.2442 76.0728 75.1874 76.2639 75.1496 76.4933C75.0928 76.7036 74.9982 76.9138 74.9225 77.1432C74.8279 77.3534 74.7144 77.5828 74.582 77.8122C74.4495 78.0415 74.2981 78.2709 74.1278 78.4811C73.7873 78.9399 73.3521 79.3413 72.8601 79.7044C72.7277 79.8 72.5952 79.8764 72.4628 79.972C72.3303 80.0485 72.179 80.1249 72.0465 80.2014L71.8384 80.3161L71.6113 80.4116C71.46 80.469 71.3086 80.5263 71.1572 80.5837C70.8356 80.6792 70.5328 80.7748 70.1922 80.813C70.0219 80.8321 69.8706 80.8704 69.7003 80.8704L69.4543 80.8895H69.3219H69.2651H69.2273H69.2083C69.1894 80.8895 69.2651 80.8895 69.1516 80.8895L68.7353 80.8704H68.6218C68.5839 80.8704 68.5461 80.8704 68.5083 80.8513L68.2434 80.813C68.0731 80.7748 67.8839 80.7557 67.7325 80.7175C67.5811 80.6792 67.4108 80.6219 67.2595 80.5837C67.1081 80.5263 66.9567 80.469 66.8054 80.4116L66.5783 80.3161L66.3702 80.2014C66.2377 80.1249 66.0863 80.0676 65.9539 79.972C65.8215 79.8956 65.689 79.8 65.5566 79.7044C65.0646 79.3413 64.6105 78.9208 64.2888 78.4811C64.0996 78.2709 63.9672 78.0224 63.8347 77.8122C63.7023 77.5828 63.5888 77.3534 63.4941 77.1432C63.4185 76.9138 63.3239 76.7036 63.2671 76.4933C63.2103 76.283 63.1536 76.0728 63.1346 75.8817C63.1157 75.6905 63.0779 75.5185 63.059 75.3465C63.059 75.1744 63.059 75.0215 63.04 74.8877C63.04 74.8113 63.04 74.7539 63.04 74.6966C63.04 74.6392 63.059 74.5819 63.059 74.5246C63.0779 74.429 63.0779 74.3334 63.0968 74.257C63.1157 74.1232 63.1157 74.0467 63.1157 74.0467C63.1536 73.8174 63.3617 73.6453 63.5888 73.6836C63.759 73.7027 63.8915 73.8365 63.9483 73.9894L63.9672 74.0467C63.9672 74.0467 63.9861 74.1041 64.0239 74.2379C64.0618 74.3525 64.0807 74.5437 64.1564 74.7539C64.1942 74.8686 64.2321 74.9833 64.2699 75.098C64.3267 75.2127 64.3834 75.3465 64.4402 75.4994C64.497 75.6332 64.5916 75.7861 64.6673 75.9199C64.7429 76.0728 64.8565 76.2066 64.9511 76.3595C65.0646 76.5124 65.1781 76.6653 65.2917 76.7991C65.4241 76.9329 65.5376 77.1049 65.7079 77.2387C65.9917 77.5254 66.3512 77.7739 66.7107 78.0033C67.0892 78.2327 67.5054 78.3856 67.9217 78.5194C68.0352 78.5385 68.1488 78.5767 68.2434 78.5958C68.3001 78.6149 68.3569 78.6149 68.3947 78.6149L68.5461 78.634L68.6975 78.6532C68.7164 78.6532 68.7542 78.6532 68.7921 78.6532H68.9056L69.3219 78.6723C69.2083 78.6723 69.3029 78.6723 69.2651 78.6723H69.284H69.3029H69.3408H69.4165H69.5868C69.7003 78.6723 69.8138 78.6532 69.9273 78.634C70.0409 78.6149 70.1544 78.6149 70.2679 78.5767C70.3815 78.5576 70.495 78.5194 70.5896 78.5003C71.0059 78.3665 71.4221 78.2135 71.8005 77.9842C72.16 77.7548 72.5195 77.5254 72.8034 77.2196C72.9547 77.0858 73.0872 76.9329 73.2196 76.78C73.3521 76.6271 73.4467 76.4742 73.5602 76.3404C73.6548 76.1875 73.7494 76.0346 73.844 75.9008C73.9197 75.7479 73.9954 75.6141 74.0711 75.4803C74.1278 75.3465 74.1846 75.2127 74.2414 75.0789C74.2792 74.9642 74.3171 74.8495 74.3549 74.7539C74.3738 74.6966 74.3927 74.6584 74.4117 74.601C74.4306 74.5437 74.4306 74.5055 74.4495 74.4481C74.4684 74.3525 74.4873 74.2761 74.5063 74.1996C74.5441 74.0658 74.563 74.0085 74.563 74.0085C74.6198 73.7791 74.8469 73.6453 75.0739 73.7027C75.1496 73.7409 75.282 73.8938 75.301 74.0658Z" fill="#441165"/>
<path d="M42.6436 58.9853C42.5679 58.9853 42.5111 58.9853 42.4355 58.9662C41.9246 58.8515 41.6218 58.3545 41.7164 57.8385C41.7354 57.762 43.4383 50.4223 51.423 49.6004C51.9339 49.5431 52.388 49.9254 52.4448 50.4414C52.5015 50.9575 52.1231 51.4162 51.6122 51.4736C44.952 52.1617 43.5518 58.1825 43.5329 58.2399C43.4572 58.6795 43.0788 58.9853 42.6436 58.9853Z" fill="#441165"/>
<path d="M73.1822 58.9853C72.747 58.9853 72.3686 58.6795 72.274 58.2399C72.2172 57.9914 70.817 52.1617 64.1946 51.4736C63.6838 51.4162 63.3053 50.9575 63.3621 50.4414C63.4188 49.9254 63.873 49.5431 64.3838 49.6004C72.3686 50.4223 74.0715 57.762 74.0904 57.8385C74.2039 58.3545 73.8823 58.8515 73.3714 58.9662C73.3146 58.9662 73.239 58.9853 73.1822 58.9853Z" fill="#441165"/>
<path opacity="0.1" d="M107.298 81.8073C106.389 82.0366 106.465 82.9732 107.014 85.6491C107.562 88.3442 105.519 89.7586 105.519 89.7586C108.338 85.0184 104.327 81.2721 103.4 81.9602C102.586 82.5718 102.946 83.4511 104.251 85.7638C105.557 88.0575 103.911 89.6439 103.911 89.6439C104.213 87.637 103.873 85.5154 102.113 84.961C100.883 84.5788 100.486 85.4389 100.467 86.0696C99.994 84.2347 94.7717 83.4128 96.1152 88.5927C96.8342 91.3642 98.1586 92.683 99.3318 93.3138C99.1993 94.3459 98.8209 96.544 97.7802 98.7995C95.9827 102.68 93.0688 104.878 89.1332 105.355C81.4891 106.273 77.0048 100.864 75.4154 98.4363L77.5913 97.1748C77.8752 97.0028 78.0644 96.7352 78.1022 96.4102C78.1401 96.0853 78.0454 95.7604 77.8184 95.531L76.2101 93.8681C77.2886 93.849 78.4428 93.7152 79.7294 93.4667C82.9082 92.8168 87.0708 91.1157 88.944 86.7769C89.7198 84.961 89.8333 83.279 89.8144 82.3807C93.0688 80.7942 94.8285 78.0227 94.9042 74.2764C94.942 72.0783 94.3933 70.167 94.1095 69.326C94.4501 68.7334 94.715 68.0071 94.8664 67.1087C95.661 62.2538 93.1824 59.1001 93.0688 58.9854C93.031 58.9471 92.9742 58.8898 92.9364 58.8516C92.9742 58.6604 93.0121 58.4693 93.0499 58.2782C93.6743 54.3789 92.4444 48.9506 86.9762 46.2173C86.3708 42.5666 83.7596 39.9671 79.4267 38.6674C76.7588 37.8646 74.2044 37.8073 73.2584 37.8073C73.0692 37.6161 72.861 37.4059 72.6529 37.1956C71.7258 36.2399 70.6662 35.1696 69.2093 34.3286C67.7523 33.4875 65.8981 32.895 63.3626 32.895C61.4894 32.895 59.8054 34.1374 58.5945 36.3737C58.3674 36.8134 58.1404 37.2912 57.9512 37.8073V114.951H65.5196L59.0108 115.753C59.0108 115.753 57.9512 122.176 59.0108 122.176C60.0703 122.176 61.0353 117.703 61.0353 117.703C61.0353 117.703 83.0217 115.945 81.281 113.708C80.3727 112.523 76.1155 112.217 72.2934 112.179L70.5527 101.284L72.5583 100.118C73.2584 101.189 74.4126 102.756 76.0776 104.285C79.351 107.267 83.2488 108.815 87.4493 108.815C88.1493 108.815 88.8494 108.777 89.5684 108.681C94.6771 108.07 98.5938 105.107 100.883 100.099C102.075 97.4806 102.51 94.9958 102.681 93.7152C112.671 92.1096 108.698 81.4441 107.298 81.8073ZM99.4831 90.8481C98.5371 90.6379 97.6099 87.0827 98.9344 87.2356C100.278 87.3885 100.41 86.7577 100.41 86.7577C100.448 86.6622 100.467 86.5666 100.486 86.4519C100.808 87.6561 101.508 86.8342 102.075 88.306C103.04 90.7143 100.429 91.0584 99.4831 90.8481Z" fill="#557FAF"/>
<path d="M57.9126 27.2372C58.3724 27.2372 58.7451 26.8607 58.7451 26.3962C58.7451 25.9317 58.3724 25.5552 57.9126 25.5552C57.4528 25.5552 57.0801 25.9317 57.0801 26.3962C57.0801 26.8607 57.4528 27.2372 57.9126 27.2372Z" fill="#EF7668"/>
<path opacity="0.1" d="M71.9144 14.1442C71.9144 21.9618 65.6515 28.2884 57.9128 28.2884C50.174 28.2884 43.9111 21.9618 43.9111 14.1442C43.9111 6.32667 50.174 0 57.9128 0C65.6515 0 71.9144 6.32667 71.9144 14.1442Z" fill="#F0A744"/>
<path opacity="0.1" d="M70.4007 14.1444C70.4007 21.1018 64.819 26.7595 57.9128 26.7595C51.0255 26.7595 45.4248 21.121 45.4248 14.1444C45.4248 7.18699 51.0065 1.5293 57.9128 1.5293C64.8001 1.5293 70.4007 7.18699 70.4007 14.1444Z" fill="#F0A744"/>
<path opacity="0.1" d="M68.3191 14.1444C68.3191 19.955 63.6645 24.657 57.9125 24.657C52.1605 24.657 47.5059 19.955 47.5059 14.1444C47.5059 8.33384 52.1605 3.63184 57.9125 3.63184C63.6645 3.63184 68.3191 8.33384 68.3191 14.1444Z" fill="#F0A744"/>
<path d="M64.5734 14.1446C64.5734 17.8718 61.5839 20.8726 57.9132 20.8726C54.2236 20.8726 51.2529 17.8526 51.2529 14.1446C51.2529 10.4174 54.2425 7.4165 57.9132 7.4165C61.6028 7.4165 64.5734 10.4365 64.5734 14.1446Z" fill="#F3FFAB"/>
<path d="M61.2047 21.1781V25.6698C61.2047 26.0712 60.883 26.4152 60.4668 26.4152H55.358C54.9607 26.4152 54.6201 26.0903 54.6201 25.6698V21.1781C54.6201 20.7767 54.9418 20.4326 55.358 20.4326H60.4857C60.883 20.4326 61.2047 20.7767 61.2047 21.1781Z" fill="#441165"/>
<g opacity="0.4">
<path opacity="0.4" d="M61.2051 22.8409V23.2232C60.1266 23.357 59.0859 23.4143 58.102 23.4143C56.7397 23.4143 55.5098 23.3187 54.6016 23.2041V22.8218C56.1531 22.9938 58.6129 23.1467 61.2051 22.8409Z" fill="white"/>
</g>
<g opacity="0.4">
<path opacity="0.4" d="M61.2051 24.6378V25.0201C60.1266 25.1539 59.0859 25.1921 58.102 25.1921C56.7397 25.1921 55.5098 25.0966 54.6016 24.9819V24.5996C56.1531 24.7907 58.6129 24.9628 61.2051 24.6378Z" fill="white"/>
</g>
<path d="M55.9262 21.1782C55.8694 21.1782 55.8316 21.14 55.8316 21.0826L55.1504 14.1634C55.1504 14.1061 55.1882 14.0679 55.2261 14.0679C55.2828 14.0679 55.3207 14.1061 55.3207 14.1443L56.0019 21.0635C56.0397 21.1209 56.0019 21.1591 55.9262 21.1782C55.9451 21.1782 55.9451 21.1782 55.9262 21.1782Z" fill="#441165"/>
<path d="M59.8993 21.1782C59.8993 21.1782 59.8804 21.1782 59.8993 21.1782C59.8425 21.1782 59.8047 21.1209 59.8047 21.0827L60.4858 14.1635C60.4858 14.1061 60.5426 14.0679 60.5804 14.087C60.6372 14.087 60.6751 14.1443 60.6561 14.1826L59.975 21.1018C59.975 21.14 59.9371 21.1782 59.8993 21.1782Z" fill="#441165"/>
<path d="M60.2404 14.106C60.0134 14.106 59.7485 14.2206 59.5025 14.3927C59.2754 14.2015 58.9916 14.106 58.6889 14.106C58.4618 14.106 58.1969 14.2206 57.951 14.3927C57.7239 14.2015 57.4401 14.106 57.1373 14.106C56.9103 14.106 56.6454 14.2206 56.3994 14.3927C56.1724 14.2015 55.8886 14.106 55.5858 14.106C55.5291 14.106 55.4912 14.1442 55.4912 14.2015C55.4912 14.2589 55.5291 14.2971 55.5858 14.2971C55.8318 14.2971 56.0588 14.3927 56.2481 14.5265C55.9832 14.7749 55.7939 15.119 55.7939 15.5013C55.7939 15.9982 56.0778 16.2276 56.3616 16.2276C56.6454 16.2276 56.9292 16.0365 56.9292 15.5013C56.9292 15.119 56.7778 14.7749 56.5508 14.5265C56.7589 14.3735 56.9671 14.278 57.1373 14.278C57.3833 14.278 57.6104 14.3735 57.7996 14.5073C57.5347 14.7558 57.3455 15.0999 57.3455 15.4822C57.3455 15.9791 57.6293 16.2085 57.9131 16.2085C58.1969 16.2085 58.4808 16.0173 58.4808 15.4822C58.4808 15.0999 58.3294 14.7558 58.1023 14.5073C58.3105 14.3544 58.5186 14.2589 58.6889 14.2589C58.9349 14.2589 59.1619 14.3544 59.3511 14.4882C59.0862 14.7367 58.897 15.0808 58.897 15.463C58.897 15.96 59.1808 16.1894 59.4647 16.1894C59.7485 16.1894 60.0323 15.9982 60.0323 15.463C60.0323 15.0808 59.8809 14.7367 59.6539 14.4882C59.862 14.3353 60.0701 14.2398 60.2404 14.2398C60.2972 14.2398 60.335 14.2015 60.335 14.1442C60.335 14.1633 60.2972 14.106 60.2404 14.106ZM56.74 15.5204C56.74 15.8644 56.6076 16.0556 56.3616 16.0556C56.1345 16.0556 55.9832 15.8453 55.9832 15.5204C55.9832 15.1954 56.1534 14.8896 56.3994 14.6794C56.6076 14.8896 56.74 15.1954 56.74 15.5204ZM58.2915 15.5204C58.2915 15.8644 58.1591 16.0556 57.9131 16.0556C57.6861 16.0556 57.5347 15.8453 57.5347 15.5204C57.5347 15.1954 57.705 14.8896 57.951 14.6794C58.1591 14.8896 58.2915 15.1954 58.2915 15.5204ZM59.8431 15.5204C59.8431 15.8644 59.7106 16.0556 59.4647 16.0556C59.2376 16.0556 59.0862 15.8453 59.0862 15.5204C59.0862 15.1954 59.2565 14.8896 59.5025 14.6794C59.7106 14.8896 59.8431 15.1954 59.8431 15.5204Z" fill="#6B58C0"/>
<g opacity="0.1">
<path opacity="0.1" d="M12.5016 48.6064C12.5016 50.709 11.5745 51.6456 9.49316 51.6456C11.5745 51.6456 12.5016 52.5821 12.5016 54.6847C12.5016 52.5821 13.4288 51.6456 15.5101 51.6456C13.4288 51.6456 12.5016 50.709 12.5016 48.6064Z" fill="white"/>
<path opacity="0.1" d="M6.18158 56.0801C6.18158 59.0045 4.89494 60.3042 2 60.3042C4.89494 60.3042 6.18158 61.604 6.18158 64.5284C6.18158 61.604 7.46822 60.3042 10.3632 60.3042C7.46822 60.3042 6.18158 59.0045 6.18158 56.0801Z" fill="white"/>
<path opacity="0.1" d="M14.7339 57.2841C14.7339 57.6473 14.4501 57.934 14.0906 57.934C13.7311 57.934 13.4473 57.6473 13.4473 57.2841C13.4473 56.921 13.7311 56.6343 14.0906 56.6343C14.4501 56.6534 14.7339 56.9401 14.7339 57.2841Z" fill="white"/>
<path opacity="0.1" d="M5.3118 52.0278C5.3118 52.6012 4.83877 53.0791 4.27113 53.0791C3.7035 53.0791 3.23047 52.6012 3.23047 52.0278C3.23047 51.4544 3.7035 50.9766 4.27113 50.9766C4.83877 50.9766 5.3118 51.4353 5.3118 52.0278Z" fill="white"/>
<path opacity="0.1" d="M12.2363 63.0374C12.2363 63.3815 11.9714 63.6491 11.6309 63.6491C11.2903 63.6491 11.0254 63.3815 11.0254 63.0374C11.0254 62.6934 11.2903 62.4258 11.6309 62.4258C11.9714 62.4258 12.2363 62.6934 12.2363 63.0374Z" fill="white"/>
</g>
<g opacity="0.1">
<path opacity="0.1" d="M105.499 58.9854C105.499 61.0879 106.426 62.0244 108.507 62.0244C106.426 62.0244 105.499 62.961 105.499 65.0635C105.499 62.961 104.572 62.0244 102.49 62.0244C104.59 62.0053 105.499 61.0879 105.499 58.9854Z" fill="white"/>
<path opacity="0.1" d="M111.818 66.459C111.818 69.3834 113.105 70.6831 116 70.6831C113.105 70.6831 111.818 71.9829 111.818 74.9073C111.818 71.9829 110.532 70.6831 107.637 70.6831C110.532 70.6831 111.818 69.3834 111.818 66.459Z" fill="white"/>
<path opacity="0.1" d="M103.266 67.6631C103.266 68.0262 103.549 68.3129 103.909 68.3129C104.268 68.3129 104.552 68.0262 104.552 67.6631C104.552 67.2999 104.268 67.0132 103.909 67.0132C103.549 67.0132 103.266 67.319 103.266 67.6631Z" fill="white"/>
<path opacity="0.1" d="M112.707 62.4062C112.707 62.9796 113.18 63.4575 113.748 63.4575C114.315 63.4575 114.788 62.9796 114.788 62.4062C114.788 61.8328 114.315 61.355 113.748 61.355C113.161 61.355 112.707 61.8137 112.707 62.4062Z" fill="white"/>
<path opacity="0.1" d="M105.764 73.4168C105.764 73.7608 106.029 74.0284 106.369 74.0284C106.71 74.0284 106.975 73.7608 106.975 73.4168C106.975 73.0727 106.71 72.8051 106.369 72.8051C106.047 72.786 105.764 73.0727 105.764 73.4168Z" fill="white"/>
</g>
</svg>
