<svg width="163" height="164" viewBox="0 0 163 164" fill="none" xmlns="http://www.w3.org/2000/svg">
<path opacity="0.3042" d="M121.634 122.317C144.027 99.7993 144.027 63.2905 121.634 40.7726C99.2421 18.2546 62.937 18.2546 40.5448 40.7726C18.1525 63.2905 18.1525 99.7993 40.5448 122.317C62.937 144.835 99.2421 144.835 121.634 122.317Z" fill="#2475EA"/>
<path d="M121.237 80.8673C121.237 81.4823 120.843 82.0973 120.145 82.7123C120.101 82.7123 120.101 82.7562 120.057 82.7562C119.97 82.8001 119.882 82.888 119.839 82.9319C116.999 85.1283 112.806 89.3013 108.481 95.0558C100.881 105.071 92.887 119.787 90.8777 136.435C90.5719 138.763 90.4408 141.135 90.3972 143.551V143.991C90.3535 144.474 86.2037 144.825 81.0492 144.825C76.1132 144.825 72.0944 144.474 71.745 144.035V143.551C71.7013 141.135 71.5702 138.763 71.2645 136.435C69.2551 119.787 61.2176 105.071 53.6607 95.0558C49.3361 89.3453 45.1427 85.1283 42.3034 82.9319C42.216 82.888 42.1286 82.8001 42.0849 82.7562L42.0413 82.7123C41.3424 82.0973 40.9492 81.5262 40.9492 80.8673C40.9492 78.671 45.4048 76.6942 52.656 75.2446C59.8635 73.795 69.8666 72.9165 80.9182 72.9165H81.355C103.371 72.9165 121.237 76.4746 121.237 80.8673Z" fill="#FFBA00"/>
<path opacity="0.4" d="M121.237 80.8682C121.237 81.4832 120.844 82.0982 120.145 82.7132C120.101 82.7132 120.101 82.7571 120.058 82.7571C119.97 82.801 119.883 82.8889 119.839 82.9328C117 85.1292 112.807 89.3022 108.482 95.0567C100.881 105.072 92.8876 119.788 90.8782 136.436C90.5724 138.764 90.4414 141.136 90.3977 143.552V143.992C90.354 144.387 87.2526 144.738 83.1465 144.826V143.552C83.1902 141.18 83.3212 138.808 83.5396 136.48C83.5396 136.26 83.5833 136.041 83.627 135.865C85.6364 117.811 93.6738 101.865 101.231 91.0154C105.555 84.8217 109.749 80.2532 112.588 77.8812C112.675 77.7933 112.763 77.7494 112.807 77.6615L112.85 77.6176C113.331 77.1783 113.636 76.7391 113.811 76.2998C118.485 77.5737 121.237 79.1551 121.237 80.8682Z" fill="#FFBA00"/>
<path opacity="0.7" d="M121.237 80.8673C121.237 81.4823 120.844 82.0973 120.145 82.7123C120.102 82.7123 120.102 82.7562 120.058 82.7562C119.971 82.8001 119.883 82.888 119.839 82.9319C117 85.1282 112.807 89.3013 108.482 95.0558C100.401 96.1979 91.1841 96.8568 81.3994 96.9007H81.0499C71.1341 96.9007 61.8299 96.2418 53.6614 95.0558C49.3369 89.3452 45.1434 85.1282 42.3041 82.9319C42.2167 82.844 42.1293 82.8001 42.0857 82.7562C42.0857 82.7562 42.042 82.7123 41.9983 82.7123C41.2994 82.0973 40.9062 81.5262 40.9062 80.8673C40.9062 78.671 45.3618 76.6942 52.613 75.2446C59.8642 73.795 69.8237 72.9165 80.8752 72.9165H81.312C103.371 72.9165 121.237 76.4746 121.237 80.8673Z" fill="#FF9800"/>
<path d="M121.237 80.8673C121.237 82.8001 117.83 84.5572 112.108 85.9189C104.769 87.676 93.7177 88.8181 81.2683 88.8181H81.0499C68.5569 88.8181 57.3743 87.676 49.9921 85.9189C46.4539 85.0404 43.7456 84.0301 42.2604 82.9319C42.173 82.888 42.0857 82.8001 42.042 82.7562L41.9983 82.7123C41.2994 82.0973 40.9062 81.5262 40.9062 80.8673C40.9062 76.4746 58.9032 72.9165 81.0499 72.9165H81.2683C103.371 72.9165 121.237 76.4746 121.237 80.8673Z" fill="#FF9800"/>
<path opacity="0.3765" d="M112.107 85.9194C108.525 86.798 104.026 87.5008 98.9586 87.984C93.6294 88.5111 87.645 88.8186 81.2675 88.8186H81.0491C74.6278 88.8186 68.5123 88.5111 63.1395 87.984C58.0724 87.5008 53.5731 86.754 49.9912 85.9194C53.4421 83.152 66.0225 81.1313 81.0491 81.1313H81.2238C96.163 81.1313 108.656 83.152 112.107 85.9194Z" fill="#FF9800"/>
<path opacity="0.3765" d="M100.096 87.72C99.7463 87.8078 99.3532 87.8957 98.96 87.9835C93.6308 88.5106 87.6464 88.8181 81.2689 88.8181H81.0505C74.6292 88.8181 68.5137 88.5106 63.1409 87.9835C62.7477 87.8957 62.3983 87.8078 62.0488 87.72C64.1456 86.0068 71.8773 84.7769 81.0505 84.7769H81.1378C90.311 84.7769 97.9554 86.0507 100.096 87.72Z" fill="#FF9800"/>
<path d="M67.4399 43.6692C67.4399 44.5917 66.6974 45.3385 65.78 45.3385C64.8627 45.3385 64.1201 44.5917 64.1201 43.6692C64.1201 42.7468 64.8627 42 65.78 42C66.6974 42 67.4399 42.7468 67.4399 43.6692Z" fill="#3D2F63"/>
<path d="M69.1004 52.7619C69.1004 53.8162 68.2704 54.6508 67.2221 54.6508C66.1737 54.6508 65.3438 53.8162 65.3438 52.7619C65.3438 51.7077 66.1737 50.873 67.2221 50.873C68.2267 50.873 69.1004 51.7077 69.1004 52.7619Z" fill="#3D2F63"/>
<path d="M65.6922 43.6694L59.1836 49.951" stroke="#3D2F63" stroke-miterlimit="10" stroke-linecap="round" stroke-linejoin="round"/>
<path d="M60.1885 50.7417L66.9592 52.6745" stroke="#3D2F63" stroke-miterlimit="10" stroke-linecap="round" stroke-linejoin="round"/>
<path d="M61.3682 50.0831C61.3682 51.2691 60.4072 52.2794 59.1841 52.2794C58.0047 52.2794 57 51.313 57 50.0831C57 48.897 57.961 47.8867 59.1841 47.8867C60.4072 47.8867 61.3682 48.8531 61.3682 50.0831Z" fill="#3D2F63"/>
<path d="M42.3854 44.4624H28.4946C26.5725 44.4624 25 42.881 25 40.9482V32.5142C25 30.5814 26.5725 29 28.4946 29H42.3417C44.2637 29 45.8363 30.5814 45.8363 32.5142V40.9482C45.88 42.881 44.3074 44.4624 42.3854 44.4624Z" fill="#FF2E00"/>
<path d="M34.042 39.0156V34.4472C34.042 34.0519 34.4788 33.8322 34.7846 34.0519L38.2355 36.3361C38.5412 36.5118 38.5412 36.9511 38.2355 37.1707L34.7846 39.4549C34.4788 39.6745 34.042 39.411 34.042 39.0156Z" fill="white"/>
<path d="M77.5211 63.1964V76.067C77.5211 77.253 76.5601 78.2634 75.337 78.2634H61.1841C60.0047 78.2634 59 77.297 59 76.067V63.1964C59 62.0103 59.961 61 61.1841 61H75.337C76.5165 61.0439 77.5211 62.0103 77.5211 63.1964Z" fill="#557FAF"/>
<path d="M72.7602 76.1552H63.7617C63.7617 75.7159 63.7617 75.2327 63.7617 74.7935C63.7617 72.5093 64.8538 70.7961 66.4263 70.0493C66.6884 69.9176 66.7321 69.5222 66.47 69.3465C65.5527 68.7315 64.9848 67.7212 64.9848 66.5791C64.9848 64.6024 66.6884 63.021 68.6978 63.2406C70.2266 63.4163 71.4497 64.6463 71.6245 66.1837C71.7555 67.5016 71.144 68.7315 70.1393 69.3904C69.8772 69.5661 69.8772 69.9615 70.183 70.0933C71.7555 70.84 72.8039 72.5532 72.8039 74.8374C72.7165 75.2327 72.7602 75.7159 72.7602 76.1552Z" fill="white"/>
<path d="M77.5211 63.1964V76.067C77.5211 77.2531 76.5601 78.2634 75.337 78.2634H61.1841C60.0047 78.2634 59 77.297 59 76.067V75.3642H71.7551C72.1046 75.3642 72.454 75.2763 72.7161 75.1446C73.415 74.7931 73.8955 74.0464 73.8955 73.2118V61.0439H75.2934C76.5165 61.0439 77.5211 62.0103 77.5211 63.1964Z" fill="#557FAF"/>
<path d="M72.7602 76.1549H63.7617C63.7617 75.8913 63.7617 75.6717 63.7617 75.4081H71.7992C72.1486 75.4081 72.4981 75.3203 72.7602 75.1885C72.7602 75.496 72.7602 75.8035 72.7602 76.1549Z" fill="#557FAF"/>
<path d="M65.7603 19.6331H59.6885V15.46C59.6885 14.845 60.2127 14.3179 60.8242 14.3179H65.7603C66.3718 14.3179 66.896 14.845 66.896 15.46V18.4909C66.896 19.1059 66.3718 19.6331 65.7603 19.6331Z" fill="#FF9800"/>
<path d="M77.3369 32.8989H62.7908C60.9998 32.8989 59.5146 31.4054 59.5146 29.6044V20.9068C59.5146 19.1058 60.9998 17.6123 62.7908 17.6123H77.3369C79.1278 17.6123 80.613 19.1058 80.613 20.9068V29.6044C80.5693 31.4054 79.1278 32.8989 77.3369 32.8989Z" fill="#FFBA00"/>
<path opacity="0.4584" d="M80.5693 20.9073V29.561C80.5693 31.362 79.0842 32.8555 77.2932 32.8555H62.7471C61.1309 32.8555 59.7767 31.6695 59.5146 30.132H73.755C75.5459 30.132 77.0311 28.6385 77.0311 26.8375V18.1838C77.0311 18.0081 77.0311 17.8324 76.9874 17.6567H77.2495C79.1278 17.6128 80.5693 19.1063 80.5693 20.9073Z" fill="#FFBA00"/>
<path d="M36.7991 72.0381L35.5323 71.5988C35.5323 71.4231 35.576 71.2474 35.576 71.0717C35.576 70.6763 35.5323 70.281 35.445 69.8857L36.6681 69.1828C36.9302 69.0071 37.0175 68.6996 36.8865 68.3921L35.9255 66.679C35.7508 66.4154 35.445 66.3276 35.1392 66.4593L33.9598 67.1622C33.3482 66.5472 32.6057 66.1079 31.732 65.8444V64.3508C31.732 64.0433 31.4699 63.7798 31.1642 63.7798H29.1985C28.8927 63.7798 28.6306 64.0433 28.6306 64.3508V65.8444C28.1501 65.9761 27.6696 66.1958 27.2328 66.5033L26.0097 65.4929C25.7913 65.2733 25.3981 65.3172 25.2234 65.5808L23.9566 67.0743C23.7382 67.3379 23.7819 67.6893 24.044 67.865L25.2671 68.8753C25.0924 69.3146 24.9176 69.7978 24.874 70.281L23.214 70.5885C22.9083 70.6324 22.6899 70.9399 22.7772 71.2474L23.1267 73.1802C23.1704 73.4877 23.4761 73.7073 23.7819 73.6195L25.3545 73.3559C25.5729 73.7952 25.835 74.2344 26.1407 74.5858L25.3108 76.0354C25.136 76.299 25.2671 76.6504 25.5292 76.8261L27.2328 77.7925C27.4949 77.9682 27.8443 77.8365 28.0191 77.5729L28.7616 76.2551C29.2421 76.3869 29.7227 76.4747 30.2468 76.4747H30.2905L30.8147 77.9682C30.9021 78.2757 31.2515 78.4075 31.5573 78.3197L33.3919 77.6607C33.6977 77.5729 33.8288 77.2215 33.7414 76.914L33.2609 75.5962C33.6977 75.2887 34.1345 74.8933 34.484 74.498L35.8381 74.9812C36.1439 75.0691 36.4497 74.9373 36.5807 74.6298L37.2359 72.7848C37.2359 72.4774 37.1049 72.1259 36.7991 72.0381ZM30.1595 73.7073C28.6743 73.7073 27.4949 72.5213 27.4949 71.0278C27.4949 69.5342 28.6743 68.3482 30.1595 68.3482C31.6447 68.3482 32.8241 69.5342 32.8241 71.0278C32.8241 72.5213 31.6447 73.7073 30.1595 73.7073Z" fill="#557FAF"/>
<path d="M30.0721 60.3098L29.2422 60.0023C29.2422 59.8706 29.2422 59.7827 29.2422 59.6509C29.2422 59.3874 29.1985 59.1238 29.1548 58.9042L29.9411 58.4649C30.1158 58.377 30.1595 58.1574 30.0721 57.9817L29.4606 56.8835C29.3732 56.7078 29.1548 56.6639 28.9801 56.7517L28.2375 57.191C27.8443 56.7957 27.3638 56.4882 26.796 56.3564V55.39C26.796 55.1704 26.6212 55.0386 26.4465 55.0386H25.1797C24.9613 55.0386 24.8303 55.2143 24.8303 55.39V56.3564C24.5245 56.4442 24.2187 56.576 23.913 56.7957L23.1267 56.1368C22.952 56.005 22.7336 56.005 22.6025 56.1807L21.7726 57.1471C21.6415 57.3228 21.6415 57.5424 21.8162 57.6742L22.6025 58.3331C22.4715 58.6406 22.3841 58.9042 22.3404 59.2556L21.2921 59.4313C21.1173 59.4752 20.9426 59.6509 20.9863 59.8706L21.2047 61.1005C21.2484 61.2762 21.4231 61.4519 21.6415 61.408L22.6462 61.2323C22.7772 61.5398 22.952 61.8033 23.1704 62.023L22.6462 62.9455C22.5588 63.1212 22.6025 63.3408 22.7772 63.4287L23.8693 64.0436C24.044 64.1315 24.2624 64.0876 24.3498 63.9118L24.8303 63.0333C25.1361 63.1212 25.4418 63.1651 25.7913 63.1651H25.835L26.1844 64.1315C26.2718 64.3072 26.4465 64.439 26.6649 64.3511L27.8443 63.9118C28.0191 63.824 28.1501 63.6483 28.0628 63.4287L27.757 62.5501C28.0628 62.3305 28.3248 62.1108 28.5433 61.8473L29.4169 62.1548C29.5916 62.2426 29.81 62.1108 29.8974 61.9351L30.3342 60.7491C30.3342 60.5734 30.2468 60.3538 30.0721 60.3098ZM25.7913 61.408C24.8303 61.408 24.0877 60.6173 24.0877 59.6948C24.0877 58.7724 24.874 57.9817 25.7913 57.9817C26.7523 57.9817 27.4949 58.7724 27.4949 59.6948C27.4949 60.6173 26.7523 61.408 25.7913 61.408Z" fill="#557FAF"/>
<path d="M94.2848 83.5031C99.6887 83.5031 104.07 79.0977 104.07 73.6634C104.07 68.2291 99.6887 63.8237 94.2848 63.8237C88.8808 63.8237 84.5 68.2291 84.5 73.6634C84.5 79.0977 88.8808 83.5031 94.2848 83.5031Z" fill="#FF3000"/>
<path d="M94.2849 81.5262C98.6032 81.5262 102.104 78.0058 102.104 73.6633C102.104 69.3207 98.6032 65.8003 94.2849 65.8003C89.9665 65.8003 86.4658 69.3207 86.4658 73.6633C86.4658 78.0058 89.9665 81.5262 94.2849 81.5262Z" fill="white"/>
<path d="M98.0233 72.2857L94.5791 73.6268L94.7206 70.1826" stroke="#3D2F63" stroke-miterlimit="10" stroke-linecap="round" stroke-linejoin="round"/>
<path d="M94.46 81.219V79.5498" stroke="#3D2F63" stroke-miterlimit="10" stroke-linecap="round" stroke-linejoin="round"/>
<path d="M94.4609 68.1287V66.4595" stroke="#3D2F63" stroke-miterlimit="10" stroke-linecap="round" stroke-linejoin="round"/>
<path d="M87.1221 73.8398H88.7383" stroke="#3D2F63" stroke-miterlimit="10" stroke-linecap="round" stroke-linejoin="round"/>
<path d="M100.14 73.8394H101.756" stroke="#3D2F63" stroke-miterlimit="10" stroke-linecap="round" stroke-linejoin="round"/>
<path d="M89.2617 68.6118L90.4411 69.7979" stroke="#3D2F63" stroke-miterlimit="10" stroke-linecap="round" stroke-linejoin="round"/>
<path d="M98.4785 77.8804L99.6142 79.0664" stroke="#3D2F63" stroke-miterlimit="10" stroke-linecap="round" stroke-linejoin="round"/>
<path d="M99.6142 68.6123L98.4785 69.7983" stroke="#3D2F63" stroke-miterlimit="10" stroke-linecap="round" stroke-linejoin="round"/>
<path d="M90.4411 77.8809L89.2617 79.0669" stroke="#3D2F63" stroke-miterlimit="10" stroke-linecap="round" stroke-linejoin="round"/>
<path d="M125.256 24.8604H108.526C106.909 24.8604 105.643 26.1782 105.643 27.7595V37.9067C105.643 39.532 106.953 40.8059 108.526 40.8059H119.752V40.8498L121.324 43.2219C121.412 43.3537 121.63 43.3537 121.761 43.2219L123.377 40.8498H125.299C126.916 40.8498 128.182 39.532 128.182 37.9506V27.8035C128.182 26.1782 126.872 24.8604 125.256 24.8604Z" fill="#2475EA"/>
<path d="M113.025 32.6796C113.025 33.4703 112.369 34.1292 111.583 34.1292C110.797 34.1292 110.142 33.4703 110.142 32.6796C110.142 31.8889 110.797 31.23 111.583 31.23C112.369 31.23 113.025 31.8889 113.025 32.6796Z" fill="white"/>
<path d="M118.354 32.6791C118.354 33.4698 117.698 34.1287 116.912 34.1287C116.126 34.1287 115.471 33.4698 115.471 32.6791C115.471 31.8884 116.126 31.2295 116.912 31.2295C117.698 31.2295 118.354 31.8884 118.354 32.6791Z" fill="white"/>
<path d="M123.64 32.6791C123.64 33.4698 122.985 34.1287 122.198 34.1287C121.412 34.1287 120.757 33.4698 120.757 32.6791C120.757 31.8884 121.412 31.2295 122.198 31.2295C123.028 31.2295 123.64 31.8884 123.64 32.6791Z" fill="white"/>
<path d="M107.564 27.0132H109.486" stroke="#0CC4E2" stroke-miterlimit="10" stroke-linecap="round" stroke-linejoin="round"/>
<path d="M110.448 27.0132H113.855" stroke="#0CC4E2" stroke-miterlimit="10" stroke-linecap="round" stroke-linejoin="round"/>
<path d="M15.8324 51.6995C16.6044 51.6995 17.2302 51.0702 17.2302 50.2939C17.2302 49.5175 16.6044 48.8882 15.8324 48.8882C15.0604 48.8882 14.4346 49.5175 14.4346 50.2939C14.4346 51.0702 15.0604 51.6995 15.8324 51.6995Z" stroke="white" stroke-miterlimit="10" stroke-linecap="round" stroke-linejoin="round"/>
<path d="M24.6136 102.919C25.3856 102.919 26.0115 102.29 26.0115 101.514C26.0115 100.737 25.3856 100.108 24.6136 100.108C23.8416 100.108 23.2158 100.737 23.2158 101.514C23.2158 102.29 23.8416 102.919 24.6136 102.919Z" stroke="white" stroke-miterlimit="10" stroke-linecap="round" stroke-linejoin="round"/>
<path d="M96.8181 23.3231C96.8181 24.1138 96.2066 24.7288 95.4203 24.7288C94.634 24.7288 94.0225 24.1138 94.0225 23.3231C94.0225 22.5325 94.634 21.9175 95.4203 21.9175C96.2066 21.9175 96.8181 22.5764 96.8181 23.3231Z" stroke="white" stroke-miterlimit="10" stroke-linecap="round" stroke-linejoin="round"/>
<path opacity="0.4999" d="M90.8771 136.436C90.5713 138.764 90.4403 141.136 90.3966 143.552V143.991C90.3529 144.386 87.2515 144.738 83.1454 144.826C82.4902 144.826 81.7913 144.826 81.0924 144.826C76.1563 144.826 72.1376 144.474 71.7881 144.035L71.7444 143.991C71.7444 143.991 71.7444 143.947 71.7881 143.947V143.596C71.7444 141.18 71.6134 138.808 71.3076 136.479H90.8771V136.436Z" fill="#FF6900"/>
<path d="M33.7852 82.4053V84.8213" stroke="white" stroke-miterlimit="10" stroke-linecap="round" stroke-linejoin="round"/>
<path d="M35.008 83.6353H32.6055" stroke="white" stroke-miterlimit="10" stroke-linecap="round" stroke-linejoin="round"/>
<path d="M140.589 33.0312V35.4472" stroke="white" stroke-miterlimit="10" stroke-linecap="round" stroke-linejoin="round"/>
<path d="M141.768 34.2612H139.365" stroke="white" stroke-miterlimit="10" stroke-linecap="round" stroke-linejoin="round"/>
<path d="M134.123 70.6764L131.982 68.5239L126.522 74.0148C125.911 74.6298 125.911 75.5523 126.522 76.1672C127.134 76.7822 128.051 76.7822 128.663 76.1672L134.123 70.6764Z" fill="#92D6FF"/>
<path d="M140.343 72.2096C144.205 70.6202 146.055 66.1828 144.475 62.2985C142.894 58.4141 138.482 56.5537 134.619 58.1431C130.756 59.7325 128.906 64.1699 130.487 68.0542C132.067 71.9386 136.48 73.799 140.343 72.2096Z" fill="#92D6FF"/>
<path d="M137.486 70.5444C134.56 70.5444 132.157 68.1284 132.157 65.1853C132.157 62.2422 134.56 59.8262 137.486 59.8262C140.413 59.8262 142.816 62.2422 142.816 65.1853C142.772 68.1284 140.413 70.5444 137.486 70.5444Z" fill="#32A8FF"/>
<path d="M140.894 66.7668C140.981 66.5472 140.894 66.2836 140.675 66.1958C140.457 66.1079 140.195 66.1958 140.107 66.4154C139.627 67.4697 138.578 68.1286 137.443 68.1286C137.224 68.1286 137.006 68.3043 137.006 68.5678C137.006 68.7875 137.181 69.0071 137.443 69.0071C138.928 68.9632 140.282 68.1286 140.894 66.7668Z" fill="white"/>
<path d="M141.243 65.405C141.243 65.3171 141.243 65.2732 141.243 65.1854C141.243 64.9657 141.068 64.7461 140.806 64.7461C140.588 64.7461 140.369 64.9218 140.369 65.1854C140.369 65.2293 140.369 65.3171 140.369 65.3611C140.369 65.3611 140.369 65.3611 140.369 65.405C140.369 65.6246 140.544 65.8443 140.762 65.8443C141.024 65.8443 141.199 65.6686 141.243 65.405Z" fill="white"/>
<path d="M55.8887 16.9536V23.0156" stroke="white" stroke-miterlimit="10" stroke-linecap="round" stroke-linejoin="round"/>
<path d="M55.8887 13V15.1524" stroke="white" stroke-miterlimit="10" stroke-linecap="round" stroke-linejoin="round"/>
<path d="M53.9668 15.5034V20.6429" stroke="white" stroke-miterlimit="10" stroke-linecap="round" stroke-linejoin="round"/>
<path d="M100.956 39.0002L81.001 44.3472L84.6444 57.9447L104.6 52.5977L100.956 39.0002Z" fill="white"/>
<path d="M84.6437 57.9445C85.2437 57.0017 85.8438 56.059 86.4438 55.1162L88.3281 52.3363C89.5459 50.5171 90.8301 48.6801 92.1143 46.8431L92.2599 46.5908L92.5121 46.7365C94.5427 47.6853 96.5733 48.6341 98.5377 49.6007L101.559 51.066C102.55 51.5824 103.541 52.0989 104.533 52.6153C103.511 52.2493 102.471 51.8169 101.432 51.3846L98.3128 50.0875C96.2337 49.2228 94.2208 48.3403 92.1902 47.3915L92.6542 47.2671C91.3701 49.1041 90.0681 50.8748 88.6999 52.6633L86.6475 55.3459C86.0297 56.2224 85.3456 57.1166 84.6437 57.9445Z" fill="#AACFE2"/>
<path d="M81.001 44.3472L93.1493 49.9074L100.89 39.018" fill="white"/>
<path d="M81.001 44.3472C82.0228 44.7132 83.0624 45.1456 84.1019 45.5779L87.2207 46.875C89.2998 47.7397 91.3127 48.6222 93.3433 49.571L92.8793 49.6954C94.1634 47.8584 95.4654 46.0877 96.8336 44.2992L98.886 41.6166C99.5701 40.7223 100.254 39.8281 100.956 39.0002C100.356 39.943 99.756 40.8858 99.156 41.8286L97.2718 44.6084C96.0539 46.4276 94.7697 48.2647 93.4855 50.1017L93.3399 50.354L93.0877 50.2083C91.0571 49.2595 89.0265 48.3106 87.0621 47.344L84.0404 45.8788C82.9831 45.3801 81.9257 44.8814 81.001 44.3472Z" fill="#AACFE2"/>
</svg>
