<svg width="63" height="48" viewBox="0 0 63 48" fill="none" xmlns="http://www.w3.org/2000/svg">
<path d="M31.4641 19.7512C32.0766 19.7512 32.6124 19.2153 32.6124 18.6029C32.6124 17.9904 32.0766 17.4545 31.4641 17.4545C30.8517 17.4545 30.3158 17.9904 30.3158 18.6029C30.3158 19.2919 30.8517 19.7512 31.4641 19.7512ZM28.2488 9.26316H42.4115C42.8708 9.26316 43.177 8.88038 43.177 8.49761C43.177 8.11483 42.7943 7.73206 42.4115 7.73206H28.2488C27.7895 7.73206 27.4833 8.11483 27.4833 8.49761C27.4833 8.88038 27.7895 9.26316 28.2488 9.26316ZM23.1962 5.89474C22.89 5.58852 22.3541 5.58852 22.0478 5.89474L18.2966 9.64593L17.1483 8.42105C16.8421 8.11483 16.3062 8.11483 16 8.42105C15.6938 8.72727 15.6938 9.26316 16 9.56938L17.7608 11.3301C17.9139 11.4833 18.1435 11.5598 18.2966 11.5598C18.4498 11.5598 18.6794 11.4833 18.8325 11.3301L23.1196 7.04306C23.5024 6.66029 23.5024 6.20096 23.1962 5.89474ZM61.8565 14.8517H48.7656V0.76555C48.7656 0.30622 48.3828 0 48 0H11.1005C10.6411 0 10.3349 0.382775 10.3349 0.76555V24.1914H0.76555C0.30622 24.1914 0 24.5742 0 24.9569V47.2345C0 47.6938 0.382775 48 0.76555 48H28.0191H61.7799C62.2392 48 62.5455 47.6172 62.5455 47.2345V15.6172C62.622 15.2344 62.3158 14.8517 61.8565 14.8517ZM11.866 1.5311H47.1579V14.8517H20.2871C19.8277 14.8517 19.5215 15.2344 19.5215 15.6172V24.1148H11.9426V1.5311H11.866ZM27.2536 46.4689H1.60765V45.244L7.11962 39.7321L9.95215 42.5646C10.2584 42.8708 10.7943 42.8708 11.1005 42.5646L20.0574 33.6077L27.2536 40.8038V46.4689ZM27.2536 38.5072L20.5933 31.8469C20.2871 31.5407 19.7512 31.5407 19.445 31.8469L10.488 40.8038L7.6555 37.9713C7.34928 37.6651 6.8134 37.6651 6.50718 37.9713L1.5311 42.9474V25.7225H27.2536V38.5072ZM61.0909 46.4689H28.8612V24.9569C28.8612 24.4976 28.4785 24.1914 28.0957 24.1914H21.1292V22.6603H61.1675V46.4689H61.0909ZM61.0909 21.1292H21.0526V16.4593H61.0909V21.1292ZM9.11005 35.5981C11.0239 35.5981 12.6316 33.9904 12.6316 32.0766C12.6316 30.1627 11.0239 28.555 9.11005 28.555C7.19617 28.555 5.58852 30.1627 5.58852 32.0766C5.58852 33.9904 7.11962 35.5981 9.11005 35.5981ZM9.11005 30.1627C10.1818 30.1627 11.0239 31.0048 11.0239 32.0766C11.0239 33.1483 10.1818 33.9904 9.11005 33.9904C8.03828 33.9904 7.19617 33.1483 7.19617 32.0766C7.11962 31.0048 8.03828 30.1627 9.11005 30.1627ZM37.9713 39.8852C38.1244 39.9617 38.201 39.9617 38.3541 39.9617C38.5072 39.9617 38.6603 39.9617 38.7368 39.8852L45.8565 35.6746C46.0861 35.5215 46.2392 35.2919 46.2392 34.9856C46.2392 34.6794 46.0861 34.4498 45.8565 34.2966L38.7368 30.0861C38.5072 29.933 38.201 29.933 37.9713 30.0861C37.7416 30.2392 37.5885 30.4689 37.5885 30.7751V39.2727C37.5885 39.4258 37.7416 39.7321 37.9713 39.8852ZM39.1196 32.0766L43.866 34.9091L39.1196 37.8182V32.0766ZM27.5598 19.7512C28.1722 19.7512 28.7081 19.2153 28.7081 18.6029C28.7081 17.9904 28.1722 17.4545 27.5598 17.4545C26.9474 17.4545 26.4115 17.9904 26.4115 18.6029C26.4115 19.2919 26.8708 19.7512 27.5598 19.7512ZM23.5789 19.7512C24.1914 19.7512 24.7273 19.2153 24.7273 18.6029C24.7273 17.9904 24.1914 17.4545 23.5789 17.4545C22.9665 17.4545 22.4306 17.9904 22.4306 18.6029C22.4306 19.2919 22.9665 19.7512 23.5789 19.7512Z" fill="#58B58B"/>
</svg>
