<svg width="61" height="61" viewBox="0 0 61 61" fill="none" xmlns="http://www.w3.org/2000/svg">
<path d="M0.396324 37.5942L2.02353 38.4851C3.51813 39.3014 4.74064 40.5247 5.55996 42.0208L6.4494 43.648C6.58278 43.8926 6.83962 44.0451 7.11781 44.0451C7.396 44.0451 7.65285 43.8934 7.78623 43.648L8.67567 42.0208C9.49423 40.5247 10.7167 39.3022 12.2121 38.4844L13.8393 37.5942C14.084 37.4608 14.2356 37.2039 14.2356 36.9257C14.2356 36.6476 14.0832 36.3907 13.8385 36.2566L12.2121 35.3679C10.7167 34.5493 9.49346 33.3261 8.67567 31.8307L7.78623 30.2035C7.51871 29.7134 6.71615 29.7134 6.44864 30.2035L5.5592 31.8307C4.7414 33.3261 3.51813 34.5486 2.02277 35.3671L0.395561 36.2566C0.152432 36.3907 0 36.6476 0 36.9257C0 37.2039 0.15167 37.4608 0.396324 37.5942ZM2.75521 36.7047C4.50665 35.7467 5.93951 34.3138 6.89755 32.5616L7.11857 32.1577L7.3396 32.5616C8.29764 34.3138 9.7305 35.7467 11.4827 36.7055L11.8866 36.9257L11.4827 37.1468C9.73126 38.104 8.29916 39.5369 7.3396 41.2899L7.11857 41.6938L6.89755 41.2899C5.93875 39.5369 4.50589 38.104 2.75521 37.1475L2.3505 36.9257L2.75521 36.7047Z" fill="#58B58B"/>
<path d="M60.5783 34.3433L58.9511 33.4531C57.4558 32.6353 56.2325 31.412 55.4147 29.9166L54.5253 28.2894C54.2578 27.7994 53.4552 27.7994 53.1877 28.2894L52.2982 29.9166C51.4804 31.412 50.2572 32.6345 48.7618 33.4531L47.1346 34.3433C46.89 34.4766 46.7383 34.7335 46.7383 35.0117C46.7383 35.2899 46.8907 35.5467 47.1354 35.6809L48.7618 36.5695C50.2572 37.3873 51.4804 38.6106 52.2982 40.106L53.1877 41.7339C53.3211 41.9786 53.5779 42.131 53.8561 42.131C54.1343 42.131 54.3911 41.9793 54.5245 41.7339L55.414 40.106C56.2317 38.6106 57.455 37.3881 58.9504 36.5703L60.5776 35.6809C60.8222 35.5467 60.9747 35.2899 60.9747 35.0117C60.9747 34.7335 60.823 34.4759 60.5783 34.3433ZM58.2195 35.2327C56.468 36.1907 55.0352 37.6228 54.0771 39.375L53.8561 39.779L53.6351 39.375C52.677 37.6228 51.2442 36.1907 49.492 35.2319L49.088 35.0117L49.4927 34.7899C51.2442 33.8319 52.677 32.3998 53.6351 30.6475L53.8561 30.2436L54.0771 30.6475C55.0352 32.3998 56.468 33.8319 58.2195 34.7899L58.6242 35.0117L58.2195 35.2327Z" fill="#58B58B"/>
<path d="M53.5471 10.4482C54.5471 10.4482 55.5005 10.0869 56.2566 9.41621C57.9532 7.91323 58.1178 5.30283 56.6232 3.59559C55.8976 2.76788 54.8946 2.27401 53.7994 2.20465C52.6988 2.13072 51.6486 2.49808 50.8255 3.22747C49.1289 4.73045 48.965 7.34084 50.4589 9.04808C51.1844 9.87655 52.1874 10.3704 53.2834 10.4398C53.3711 10.4459 53.4595 10.4482 53.5471 10.4482ZM51.8361 4.36842C52.3117 3.94695 52.91 3.71982 53.5372 3.71982C53.5921 3.71982 53.6477 3.72211 53.7026 3.72516C54.3901 3.76936 55.0204 4.07956 55.4762 4.60012C56.4197 5.67705 56.3161 7.3256 55.2452 8.27525C54.7285 8.73255 54.0608 8.96196 53.3787 8.91775C52.6905 8.87431 52.0609 8.56335 51.6044 8.04279C50.6616 6.96662 50.7653 5.31731 51.8361 4.36842Z" fill="#58B58B"/>
<path d="M3.48995 4.67012C1.79338 6.1731 1.62876 8.7835 3.12259 10.49C3.84817 11.3184 4.85117 11.8123 5.94715 11.8817C6.03556 11.8878 6.12321 11.8901 6.21162 11.8901C7.21158 11.8901 8.16504 11.5288 8.92186 10.8581C10.6184 9.35588 10.7831 6.74549 9.28923 5.03825C8.56365 4.20978 7.56065 3.7159 6.46466 3.64654C5.36486 3.57033 4.31232 3.93998 3.48995 4.67012ZM7.90972 9.71715C7.39297 10.176 6.73218 10.41 6.04242 10.3604C5.35496 10.317 4.72465 10.006 4.26888 9.48545C3.32532 8.40852 3.42898 6.75997 4.49981 5.81108C4.9754 5.39037 5.5737 5.16324 6.20095 5.16324C6.25583 5.16324 6.31147 5.16477 6.36634 5.16858C7.05381 5.21202 7.68412 5.52298 8.13989 6.04354C9.08497 7.12047 8.98131 8.76902 7.90972 9.71715Z" fill="#58B58B"/>
<path d="M48.7815 18.2962C48.7815 13.2674 46.6795 8.40714 43.0135 4.96218C39.2964 1.46844 34.4339 -0.282244 29.3205 0.0371007C20.0801 0.610245 12.5622 8.31263 12.2055 17.5729C12.0149 22.5109 13.7664 27.2104 17.1366 30.8047C19.6983 33.5378 21.1616 37.2 21.33 41.1777H21.0877C19.4064 41.1777 18.0383 42.5458 18.0383 44.2271C18.0383 45.6082 18.9673 46.7651 20.2295 47.1386V53.6596C20.2295 55.1847 21.4703 56.4255 22.9954 56.4255H23.1478V57.4453C23.1478 59.4048 24.7422 61 26.7033 61H34.2708C36.231 61 37.8262 59.4048 37.8262 57.4453V56.4255H37.9787C39.5037 56.4255 40.7445 55.1847 40.7445 53.6596V47.1386C42.0067 46.7651 42.9358 45.6089 42.9358 44.2271C42.9358 42.5458 41.5677 41.1777 39.8864 41.1777H39.6447C39.8155 37.2176 41.2941 33.5378 43.8831 30.756C47.0415 27.3605 48.7815 22.9362 48.7815 18.2962ZM36.3012 57.4453C36.3012 58.5649 35.3904 59.4757 34.27 59.4757H26.7025C25.5829 59.4757 24.6714 58.5649 24.6714 57.4453V56.4255H36.3004V57.4453H36.3012ZM37.9779 54.9012H22.9946C22.3102 54.9012 21.753 54.3448 21.753 53.6596V47.2765H39.2195V53.6596C39.2195 54.3448 38.6623 54.9012 37.9779 54.9012ZM41.4107 44.2271C41.4107 45.0686 40.7263 45.7522 39.8856 45.7522H21.0869C20.2455 45.7522 19.5618 45.0686 19.5618 44.2271C19.5618 43.3857 20.2455 42.7021 21.0869 42.7021H39.8848C40.7263 42.7021 41.4107 43.3865 41.4107 44.2271ZM26.9045 21.5613H24.1897C22.6928 21.5613 21.4749 20.3433 21.4749 18.8464C21.4749 17.3496 22.6928 16.1309 24.1897 16.1309C25.6866 16.1309 26.9045 17.3496 26.9045 18.8464V21.5613ZM32.5445 41.1777H28.4288V23.0856H32.5445V41.1777ZM38.1197 41.1777H34.0688V23.0856H36.7836C39.1211 23.0856 41.0227 21.184 41.0227 18.8464C41.0227 16.5089 39.1211 14.6066 36.7836 14.6066C34.4461 14.6066 32.5445 16.5081 32.5445 18.8464V21.5613H28.4288V18.8464C28.4288 16.5089 26.5272 14.6066 24.1897 14.6066C21.8521 14.6066 19.9505 16.5089 19.9505 18.8464C19.9505 21.184 21.8521 23.0856 24.1897 23.0856H26.9045V41.1777H22.8536C22.6829 36.8098 21.0755 32.778 18.2479 29.7621C15.1588 26.4665 13.5537 22.1573 13.7275 17.63C14.0552 9.14263 20.9459 2.0835 29.4143 1.55761C34.1023 1.26875 38.5617 2.87005 41.9686 6.07188C45.3785 9.27677 47.2564 13.6173 47.2564 18.2954C47.2564 22.549 45.6612 26.6045 42.7658 29.7164C39.9146 32.7818 38.2919 36.8296 38.1197 41.1777ZM34.0688 21.5613V18.8464C34.0688 17.3488 35.2867 16.1309 36.7836 16.1309C38.2805 16.1309 39.4984 17.3496 39.4984 18.8464C39.4984 20.3433 38.2805 21.5613 36.7836 21.5613H34.0688Z" fill="#58B58B"/>
</svg>
