<svg width="60" height="55" viewBox="0 0 60 55" fill="none" xmlns="http://www.w3.org/2000/svg">
<path d="M55.47 44.03L45.75 39.82C45.52 39.7 45.27 39.42 45.05 39.05H51.58C51.58 39.05 51.96 39.09 52.54 39.09C53.61 39.09 55.18 38.97 56.54 38.38C57.36 38.03 57.97 37.33 58.21 36.47C58.46 35.6 58.3 34.68 57.78 33.95C55.91 31.3 51.56 24.36 51.43 17.33C51.43 17.21 51.03 5.25 39.22 5.15C37.48 5.16 35.87 5.46 34.41 6C34.09 5.19 33.62 4.34 32.92 3.54C30.85 1.19 27.52 0 23 0C18.48 0 15.15 1.19 13.09 3.53C10.72 6.23 10.94 9.51 11 10.06V15.38C10.36 16.11 10 17.04 10 18V22C10 23.22 10.55 24.35 11.5 25.11C12.42 28.74 14.33 31.47 15 32.35V35.66C15 36.63 14.47 37.52 13.62 37.98L4.7 42.84C1.8 44.42 0 47.46 0 50.76V55H44H46H60V51.3C60 48.21 58.28 45.43 55.47 44.03ZM44 53H2V50.76C2 48.19 3.4 45.83 5.66 44.6L14.58 39.73C16.07 38.92 17 37.35 17 35.65V31.63L16.77 31.35C16.75 31.32 14.29 28.33 13.36 24.28L13.27 23.88L12.93 23.66C12.35 23.3 12 22.68 12 22V18C12 17.44 12.24 16.92 12.67 16.53L13 16.23V10L12.99 9.87C12.99 9.84 12.65 7.07 14.59 4.85C16.25 2.96 19.08 2 23 2C26.9 2 29.73 2.95 31.39 4.83C32.21 5.76 32.63 6.8 32.84 7.7C32.86 7.77 32.87 7.84 32.88 7.91C32.89 7.98 32.91 8.05 32.92 8.12C32.93 8.2 32.94 8.27 32.95 8.35C32.96 8.4 32.97 8.46 32.97 8.51C32.98 8.63 33 8.75 33 8.86C33 8.87 33 8.88 33 8.89C33.01 9 33.01 9.1 33.01 9.19C33.01 9.21 33.01 9.22 33.01 9.24C33.01 9.32 33.01 9.4 33.01 9.47C33.01 9.48 33.01 9.49 33.01 9.5C33.01 9.74 32.99 9.88 32.99 9.88L33 16.23L33.33 16.53C33.76 16.92 34 17.44 34 18V22C34 22.87 33.43 23.64 32.58 23.9L32.08 24.05L31.92 24.55C31.25 26.63 30.3 28.55 29.09 30.26C28.79 30.68 28.5 31.05 28.25 31.34L28 31.62V35.74C28 35.99 28.03 36.24 28.06 36.48C28.07 36.53 28.08 36.58 28.09 36.63C28.13 36.83 28.18 37.03 28.25 37.22C28.27 37.26 28.28 37.31 28.3 37.35C28.38 37.56 28.47 37.76 28.58 37.96C28.59 37.98 28.6 38 28.62 38.03C28.77 38.29 28.93 38.53 29.12 38.75L29.35 39.03H29.39C29.73 39.37 30.13 39.66 30.58 39.89L40.13 44.67C42.52 45.87 44.01 48.27 44.01 50.95V53H44ZM58 53H46V50.96C46 47.52 44.09 44.43 41.01 42.89L34.15 39.46C34.32 39.07 34.34 38.63 34.19 38.21C33.95 37.5 33.31 37.05 32.56 37.05H30.34C30.29 36.97 30.26 36.88 30.23 36.79C30.18 36.67 30.12 36.56 30.09 36.44C30.03 36.22 29.99 35.99 29.99 35.75V32.37C30.22 32.09 30.46 31.77 30.71 31.42C31.95 29.67 32.94 27.72 33.66 25.62C35.08 24.97 36 23.58 36 22V18C36 17.04 35.64 16.1 35 15.38V10.06C35.03 9.81 35.08 8.99 34.92 7.92C36.21 7.41 37.65 7.15 39.21 7.14C49.05 7.22 49.41 16.95 49.42 17.36C49.57 24.94 54.17 32.29 56.14 35.09C56.31 35.33 56.36 35.63 56.28 35.92C56.23 36.08 56.1 36.38 55.75 36.54C54.65 37.01 53.26 37.08 52.54 37.08C52.09 37.08 51.79 37.05 51.67 37.05H44.79C44.15 37.05 43.56 37.38 43.22 37.92C42.88 38.46 42.85 39.13 43.13 39.7C43.44 40.33 44 41.17 44.91 41.63L54.63 45.84C56.71 46.88 58 48.97 58 51.3V53Z" fill="#58B58B"/>
</svg>
