<svg width="60" height="58" viewBox="0 0 60 58" fill="none" xmlns="http://www.w3.org/2000/svg">
<path d="M30 26.5C29.11 26.5 28.24 26.7639 27.4999 27.2584C26.7599 27.7529 26.1831 28.4557 25.8425 29.2779C25.502 30.1002 25.4128 31.005 25.5865 31.8779C25.7601 32.7508 26.1887 33.5526 26.818 34.182C27.4474 34.8113 28.2492 35.2399 29.1221 35.4135C29.995 35.5872 30.8998 35.4981 31.7221 35.1575C32.5443 34.8169 33.2471 34.2401 33.7416 33.5001C34.2361 32.76 34.5 31.89 34.5 31C34.4987 29.8069 34.0241 28.6631 33.1805 27.8195C32.3369 26.9759 31.1931 26.5013 30 26.5ZM30 33.5C29.5055 33.5 29.0222 33.3534 28.6111 33.0787C28.2 32.804 27.8795 32.4135 27.6903 31.9567C27.5011 31.4999 27.4516 30.9972 27.548 30.5123C27.6445 30.0273 27.8826 29.5819 28.2322 29.2322C28.5819 28.8826 29.0273 28.6445 29.5123 28.548C29.9972 28.4516 30.4999 28.5011 30.9567 28.6903C31.4135 28.8795 31.804 29.1999 32.0787 29.6111C32.3534 30.0222 32.5 30.5055 32.5 31C32.5 31.663 32.2366 32.2989 31.7678 32.7678C31.2989 33.2366 30.663 33.5 30 33.5Z" fill="#58B58B"/>
<path d="M30 40.5C29.11 40.5 28.24 40.7639 27.4999 41.2584C26.7599 41.7529 26.1831 42.4557 25.8425 43.2779C25.502 44.1002 25.4128 45.005 25.5865 45.8779C25.7601 46.7508 26.1887 47.5526 26.818 48.182C27.4474 48.8113 28.2492 49.2399 29.1221 49.4135C29.995 49.5872 30.8998 49.4981 31.7221 49.1575C32.5443 48.8169 33.2471 48.2401 33.7416 47.5001C34.2361 46.76 34.5 45.89 34.5 45C34.4987 43.8069 34.0241 42.6631 33.1805 41.8195C32.3369 40.9759 31.1931 40.5013 30 40.5ZM30 47.5C29.5055 47.5 29.0222 47.3534 28.6111 47.0787C28.2 46.804 27.8795 46.4135 27.6903 45.9567C27.5011 45.4999 27.4516 44.9972 27.548 44.5123C27.6445 44.0273 27.8826 43.5819 28.2322 43.2322C28.5819 42.8826 29.0273 42.6445 29.5123 42.548C29.9972 42.4516 30.4999 42.5011 30.9567 42.6903C31.4135 42.8795 31.804 43.1999 32.0787 43.6111C32.3534 44.0222 32.5 44.5055 32.5 45C32.5 45.663 32.2366 46.2989 31.7678 46.7678C31.2989 47.2366 30.663 47.5 30 47.5Z" fill="#58B58B"/>
<path d="M14 26.5C13.11 26.5 12.24 26.7639 11.4999 27.2584C10.7599 27.7529 10.1831 28.4557 9.84254 29.2779C9.50195 30.1002 9.41283 31.005 9.58647 31.8779C9.7601 32.7508 10.1887 33.5526 10.818 34.182C11.4474 34.8113 12.2492 35.2399 13.1221 35.4135C13.995 35.5872 14.8998 35.4981 15.7221 35.1575C16.5443 34.8169 17.2471 34.2401 17.7416 33.5001C18.2361 32.76 18.5 31.89 18.5 31C18.4987 29.8069 18.0241 28.6631 17.1805 27.8195C16.3369 26.9759 15.1931 26.5013 14 26.5ZM14 33.5C13.5055 33.5 13.0222 33.3534 12.6111 33.0787C12.2 32.804 11.8795 32.4135 11.6903 31.9567C11.5011 31.4999 11.4516 30.9972 11.548 30.5123C11.6445 30.0273 11.8826 29.5819 12.2322 29.2322C12.5819 28.8826 13.0273 28.6445 13.5123 28.548C13.9972 28.4516 14.4999 28.5011 14.9567 28.6903C15.4135 28.8795 15.804 29.1999 16.0787 29.6111C16.3534 30.0222 16.5 30.5055 16.5 31C16.5 31.663 16.2366 32.2989 15.7678 32.7678C15.2989 33.2366 14.663 33.5 14 33.5Z" fill="#58B58B"/>
<path d="M14 40.5C13.11 40.5 12.24 40.7639 11.4999 41.2584C10.7599 41.7529 10.1831 42.4557 9.84254 43.2779C9.50195 44.1002 9.41283 45.005 9.58647 45.8779C9.7601 46.7508 10.1887 47.5526 10.818 48.182C11.4474 48.8113 12.2492 49.2399 13.1221 49.4135C13.995 49.5872 14.8998 49.4981 15.7221 49.1575C16.5443 48.8169 17.2471 48.2401 17.7416 47.5001C18.2361 46.76 18.5 45.89 18.5 45C18.4987 43.8069 18.0241 42.6631 17.1805 41.8195C16.3369 40.9759 15.1931 40.5013 14 40.5ZM14 47.5C13.5055 47.5 13.0222 47.3534 12.6111 47.0787C12.2 46.804 11.8795 46.4135 11.6903 45.9567C11.5011 45.4999 11.4516 44.9972 11.548 44.5123C11.6445 44.0273 11.8826 43.5819 12.2322 43.2322C12.5819 42.8826 13.0273 42.6445 13.5123 42.548C13.9972 42.4516 14.4999 42.5011 14.9567 42.6903C15.4135 42.8795 15.804 43.1999 16.0787 43.6111C16.3534 44.0222 16.5 44.5055 16.5 45C16.5 45.663 16.2366 46.2989 15.7678 46.7678C15.2989 47.2366 14.663 47.5 14 47.5Z" fill="#58B58B"/>
<path d="M46 26.5C45.11 26.5 44.24 26.7639 43.4999 27.2584C42.7599 27.7529 42.1831 28.4557 41.8425 29.2779C41.5019 30.1002 41.4128 31.005 41.5865 31.8779C41.7601 32.7508 42.1887 33.5526 42.818 34.182C43.4474 34.8113 44.2492 35.2399 45.1221 35.4135C45.995 35.5872 46.8998 35.4981 47.7221 35.1575C48.5443 34.8169 49.2471 34.2401 49.7416 33.5001C50.2361 32.76 50.5 31.89 50.5 31C50.4987 29.8069 50.0241 28.6631 49.1805 27.8195C48.3369 26.9759 47.1931 26.5013 46 26.5ZM46 33.5C45.5055 33.5 45.0222 33.3534 44.6111 33.0787C44.2 32.804 43.8795 32.4135 43.6903 31.9567C43.5011 31.4999 43.4516 30.9972 43.548 30.5123C43.6445 30.0273 43.8826 29.5819 44.2322 29.2322C44.5819 28.8826 45.0273 28.6445 45.5123 28.548C45.9972 28.4516 46.4999 28.5011 46.9567 28.6903C47.4135 28.8795 47.804 29.1999 48.0787 29.6111C48.3534 30.0222 48.5 30.5055 48.5 31C48.5 31.663 48.2366 32.2989 47.7678 32.7678C47.2989 33.2366 46.663 33.5 46 33.5Z" fill="#58B58B"/>
<path d="M55 6H49V5C49 3.67392 48.4732 2.40215 47.5355 1.46447C46.5979 0.526784 45.3261 0 44 0C42.6739 0 41.4021 0.526784 40.4645 1.46447C39.5268 2.40215 39 3.67392 39 5V6H21V5C21 3.67392 20.4732 2.40215 19.5355 1.46447C18.5979 0.526784 17.3261 0 16 0C14.6739 0 13.4021 0.526784 12.4645 1.46447C11.5268 2.40215 11 3.67392 11 5V6H5C3.67441 6.00159 2.40356 6.52888 1.46622 7.46622C0.528882 8.40356 0.00158786 9.67441 0 11V53C0.00158786 54.3256 0.528882 55.5964 1.46622 56.5338C2.40356 57.4711 3.67441 57.9984 5 58H55C56.3256 57.9984 57.5964 57.4711 58.5338 56.5338C59.4711 55.5964 59.9984 54.3256 60 53V11C59.9984 9.67441 59.4711 8.40356 58.5338 7.46622C57.5964 6.52888 56.3256 6.00159 55 6ZM41 5C41 4.20435 41.3161 3.44129 41.8787 2.87868C42.4413 2.31607 43.2043 2 44 2C44.7957 2 45.5587 2.31607 46.1213 2.87868C46.6839 3.44129 47 4.20435 47 5V9C47 9.79565 46.6839 10.5587 46.1213 11.1213C45.5587 11.6839 44.7957 12 44 12C43.2043 12 42.4413 11.6839 41.8787 11.1213C41.3161 10.5587 41 9.79565 41 9V5ZM13 5C13 4.20435 13.3161 3.44129 13.8787 2.87868C14.4413 2.31607 15.2044 2 16 2C16.7956 2 17.5587 2.31607 18.1213 2.87868C18.6839 3.44129 19 4.20435 19 5V9C19 9.79565 18.6839 10.5587 18.1213 11.1213C17.5587 11.6839 16.7956 12 16 12C15.2044 12 14.4413 11.6839 13.8787 11.1213C13.3161 10.5587 13 9.79565 13 9V5ZM55 56H5C4.20435 56 3.44129 55.6839 2.87868 55.1213C2.31607 54.5587 2 53.7957 2 53V21H45C45.2652 21 45.5196 20.8946 45.7071 20.7071C45.8946 20.5196 46 20.2652 46 20C46 19.7348 45.8946 19.4804 45.7071 19.2929C45.5196 19.1054 45.2652 19 45 19H2V11C2 10.2044 2.31607 9.44129 2.87868 8.87868C3.44129 8.31607 4.20435 8 5 8H11V9C11 10.3261 11.5268 11.5979 12.4645 12.5355C13.4021 13.4732 14.6739 14 16 14C17.3261 14 18.5979 13.4732 19.5355 12.5355C20.4732 11.5979 21 10.3261 21 9V8H39V9C39 10.3261 39.5268 11.5979 40.4645 12.5355C41.4021 13.4732 42.6739 14 44 14C45.3261 14 46.5979 13.4732 47.5355 12.5355C48.4732 11.5979 49 10.3261 49 9V8H55C55.7957 8 56.5587 8.31607 57.1213 8.87868C57.6839 9.44129 58 10.2044 58 11V19H51C50.7348 19 50.4804 19.1054 50.2929 19.2929C50.1054 19.4804 50 19.7348 50 20C50 20.2652 50.1054 20.5196 50.2929 20.7071C50.4804 20.8946 50.7348 21 51 21H58V53C58 53.7957 57.6839 54.5587 57.1213 55.1213C56.5587 55.6839 55.7957 56 55 56Z" fill="#58B58B"/>
</svg>
