<svg width="104" height="107" viewBox="0 0 104 107" fill="none" xmlns="http://www.w3.org/2000/svg">
<path d="M1 51.4C1 79.8 24 102.8 52.4 102.8C80.8 102.8 103.8 79.8 103.8 51.4C103.8 23 80.8 0 52.4 0C24 0 1 23 1 51.4Z" fill="#50BCC4"/>
<path d="M83.2 43.9V80.4H24V43.9L53.6 22.7L83.2 43.9Z" fill="#F2F2F2"/>
<path d="M77.2 21H30V75.6H77.2V21Z" fill="white"/>
<path d="M49.3002 24.3999H32.7002V38.4999H49.3002V24.3999Z" fill="#B4D8E0"/>
<path d="M74.8001 24.3999H51.6001V26.5999H74.8001V24.3999Z" fill="#B4D8E0"/>
<path d="M70.1001 28.3H51.6001V30.5H70.1001V28.3Z" fill="#B4D8E0"/>
<path d="M74.8001 32.2H51.6001V34.4H74.8001V32.2Z" fill="#B4D8E0"/>
<path d="M71.6001 36.2H51.6001V38.4H71.6001V36.2Z" fill="#B4D8E0"/>
<path d="M74.7002 40.1001H32.7002V42.3001H74.7002V40.1001Z" fill="#B4D8E0"/>
<path d="M68.0002 44H32.7002V46.2H68.0002V44Z" fill="#B4D8E0"/>
<path d="M70.8002 47.8999H32.7002V50.0999H70.8002V47.8999Z" fill="#B4D8E0"/>
<path d="M74.7002 51.8H32.7002V54H74.7002V51.8Z" fill="#B4D8E0"/>
<path d="M65.4002 55.7H32.7002V57.9H65.4002V55.7Z" fill="#B4D8E0"/>
<path d="M70.1002 59.6001H32.7002V61.8001H70.1002V59.6001Z" fill="#B4D8E0"/>
<path d="M74.7002 63.5H32.7002V65.7H74.7002V63.5Z" fill="#B4D8E0"/>
<path d="M83.2 43.8999V80.2999H24V43.8999L53.6 62.0999L83.2 43.8999Z" fill="#F7B701"/>
<path d="M83.2 80.3001L53.6 57.1001L24 80.3001H83.2Z" fill="#F7A601"/>
<path opacity="0.42" d="M50 59.9L24 80.3L47.4 58.3L50 59.9Z" fill="#A8A191"/>
<path opacity="0.42" d="M83.2002 80.2999L57.2002 59.9L60.0002 58.2L83.2002 80.2999Z" fill="#A8A191"/>
<path opacity="0.42" d="M83.2 43.8999L59.8 58.2999L57.2 59.8999L53.6 57.0999L50 59.8999L47.4 58.2999L24 43.8999L50 59.0999L53.6 56.3999L57.2 59.0999L83.2 43.8999Z" fill="#A8A191"/>
<path d="M37.9001 74.8196C39.2001 76.1196 39.6001 78.0196 39.1001 79.6196L33.1001 73.5196C34.7001 73.0196 36.6001 73.5196 37.9001 74.8196Z" fill="#FC7649"/>
<path d="M27.1999 67.0195L45.6999 85.4195L30.1999 90.3195L22.3999 82.4195L27.1999 67.0195Z" fill="white"/>
<path d="M24.1001 89.5195L24.3001 89.7195L25.0001 90.4195L27.4001 92.8195L27.5001 92.9195L29.9001 95.3195L30.0001 95.4195L32.4001 97.8195L32.5001 97.9195L34.9001 100.32L35.1001 100.52C36.5001 101.92 36.5001 104.02 35.2001 105.32C33.9001 106.62 31.7001 106.52 30.4001 105.12L30.2001 104.92L29.8001 104.72L28.1001 103.02L27.8001 102.72L27.7001 102.62L25.3001 100.22L25.2001 100.12L22.8001 97.7195L22.7001 97.6195L20.3001 95.2195L19.5001 94.4195L19.1001 94.0195C19.8001 93.6195 20.4001 93.2195 21.0001 92.6195L24.1001 89.5195Z" fill="#CC603B"/>
<path d="M40.0001 73.5195C39.7001 73.7195 39.4001 73.7195 39.2001 73.5195C39.0001 73.3195 38.9001 72.9195 39.2001 72.6195L42.4001 69.4195C42.6001 69.2195 43.0001 69.2195 43.3001 69.4195C43.5001 69.6195 43.6001 70.0195 43.3001 70.3195L40.0001 73.5195Z" fill="white"/>
<path d="M36.5 71.4196C36.4 71.5196 36.2 71.5196 36.1 71.5196C35.8 71.4196 35.5 71.1196 35.5 70.8196L35.9 66.5196C35.9 66.2196 36.2 65.9196 36.6 66.0196C36.9 66.1196 37.2 66.4196 37.2 66.7196L36.8 71.0196C36.7 71.2196 36.6 71.4196 36.5 71.4196Z" fill="white"/>
<path d="M46.6999 76.6196C46.7999 76.5196 46.7999 76.3196 46.7999 76.2196C46.6999 75.9196 46.3999 75.6196 46.0999 75.6196L41.7999 76.0196C41.4999 76.0196 41.1999 76.3196 41.2999 76.7196C41.3999 77.0196 41.6999 77.3196 41.9999 77.3196L46.2999 76.9196C46.4999 76.8196 46.5999 76.7196 46.6999 76.6196Z" fill="white"/>
<path d="M22.4 82.4197L30.2 90.3197L26.5 94.0197L24.9 95.5197L23.3 97.1197C23.1 97.3197 23 97.4197 22.8 97.5197C22.6 97.7197 22.4 97.8197 22.1 97.9197C21.6 98.1197 21.1 98.3197 20.6 98.4197C20.5 98.4197 20.4 98.4197 20.3 98.5197C18.7 98.7197 17 98.1197 15.7 96.8197C14.6 95.7197 14.1 94.3197 14 93.0197C14 91.6197 14.4 90.3197 15.5 89.3197L17.1 87.7197L22.4 82.4197Z" fill="#FC7649"/>
<path d="M17.0755 87.7046L16.1558 88.6233L24.0001 96.4765L24.9199 95.5578L17.0755 87.7046Z" fill="white"/>
<path opacity="0.42" d="M74.5 41.5V49.3L76.9 47.9V43.2L74.5 41.5Z" fill="#A8A191"/>
<path d="M41.7 11H0V40.7H41.7V11Z" fill="#FC7649"/>
<path d="M40.2998 12.1001H1.2998V35.8001H40.2998V12.1001Z" fill="#655B79"/>
<path d="M5.2998 38.2C5.2998 39.3 4.3998 40.2 3.2998 40.2C2.1998 40.2 1.2998 39.3 1.2998 38.2C1.2998 37.1 2.1998 36.2 3.2998 36.2C4.3998 36.2 5.2998 37.1 5.2998 38.2Z" fill="#A94F31"/>
<path d="M9.7002 38.2C9.7002 39.3 8.8002 40.2 7.7002 40.2C6.6002 40.2 5.7002 39.3 5.7002 38.2C5.7002 37.1 6.6002 36.2 7.7002 36.2C8.8002 36.2 9.7002 37.1 9.7002 38.2Z" fill="#A94F31"/>
<path d="M2.6001 37.1001V39.4001L4.5001 38.2001L2.6001 37.1001Z" stroke="white" stroke-width="0.25" stroke-miterlimit="10" stroke-linecap="round" stroke-linejoin="round"/>
<path d="M24.6999 23.9C24.6999 26 22.9999 27.8 20.7999 27.8C18.6999 27.8 16.8999 26.1 16.8999 23.9C16.8999 21.8 18.5999 20 20.7999 20C22.8999 20 24.6999 21.8 24.6999 23.9Z" fill="#FC7649"/>
<path d="M19.3999 21.7V26.2L23.0999 23.9L19.3999 21.7Z" fill="white"/>
<path opacity="0.25" d="M24.4999 25.1999C23.9999 26.6999 22.5999 27.6999 20.9999 27.7999L19.3999 26.1999L23.1999 23.8999L24.4999 25.1999Z" fill="#216186"/>
<path d="M7.2001 39.4001C7.1001 39.4001 7.1001 39.3001 7.1001 39.3001V37.2001C7.1001 37.1001 7.2001 37.1001 7.2001 37.1001C7.3001 37.1001 7.3001 37.2001 7.3001 37.2001V39.3001C7.3001 39.4001 7.2001 39.4001 7.2001 39.4001Z" fill="white"/>
<path d="M8.3002 39.4001C8.2002 39.4001 8.2002 39.3001 8.2002 39.3001V37.2001C8.2002 37.1001 8.3002 37.1001 8.3002 37.1001C8.4002 37.1001 8.40019 37.2001 8.40019 37.2001V39.3001C8.40019 39.4001 8.4002 39.4001 8.3002 39.4001Z" fill="white"/>
<path d="M36.8998 36.8H11.7998V37.5H36.8998V36.8Z" fill="#A94F31"/>
<path d="M12.6 37.1999C12.6 37.6999 12.2 37.9999 11.8 37.9999C11.3 37.9999 11 37.5999 11 37.1999C11 36.6999 11.4 36.3999 11.8 36.3999C12.3 36.2999 12.6 36.6999 12.6 37.1999Z" fill="#F2F2F2"/>
<path d="M40.3001 36.8H38.1001V37.4H40.3001V36.8Z" fill="#F2F2F2"/>
<path d="M40.3002 37.5H38.7002V38.1H40.3002V37.5Z" fill="#F2F2F2"/>
<path d="M40.3002 38.3H39.2002V38.9H40.3002V38.3Z" fill="#F2F2F2"/>
<path d="M40.2998 39H39.7998V39.6H40.2998V39Z" fill="#F2F2F2"/>
<g opacity="0.22">
<g opacity="0.22">
<path opacity="0.22" d="M93.4 52.3001V55.3001V55.7001L93.3 68.0001C93.3 68.1001 93.3 68.1001 93.3 68.2001C93.5 69.6001 92.4 71.2001 90.5 72.0001C89.8 72.3001 89.1 72.4001 88.4 72.4001C87 72.4001 85.9 71.8001 85.5 70.8001C84.9 69.3001 86 67.3001 88.1 66.4001C88.8 66.1001 89.5 66.0001 90.2 66.0001C90.7 66.0001 91.2 66.1001 91.6 66.2001L91.7 56.6001L80.6 59.8001V69.9001C80.6 70.0001 80.6 70.0001 80.6 70.0001C80.7 70.7001 80.5 71.4001 80.1 72.1001C79.6 72.8001 78.8 73.5001 77.8 73.9001C77.1 74.2001 76.4 74.3001 75.7 74.3001C74.3 74.3001 73.2 73.7001 72.8 72.7001C72.5 71.9001 72.6 71.0001 73.2 70.1001C73.7 69.4001 74.5 68.7001 75.5 68.3001C76.2 68.0001 76.9 67.9001 77.6 67.9001C78.1 67.9001 78.5 68.0001 78.9 68.1001V56.0001C78.9 55.6001 79.1 55.3001 79.5 55.2001L92.4 51.4001C92.7 51.3001 92.9 51.4001 93.2 51.5001C93.3 51.7001 93.4 52.0001 93.4 52.3001Z" fill="#7A8494"/>
</g>
</g>
<path d="M92.0052 44C97.8052 44 101.605 48 101.605 53.6C101.605 58.5 98.3052 61 95.4052 61C93.9052 61 92.6052 60.2 92.3052 58.9H92.2052C91.4052 60 90.1052 60.7 89.0052 60.7C86.9052 60.7 85.4052 59.1 85.4052 56.6C85.4052 53.3 87.8052 50 90.9052 50C91.8052 50 92.5052 50.4 93.0052 51.4H93.1052L93.5052 50.3H96.0052L94.8052 56.3C94.4052 57.9 94.8052 58.6 96.0052 58.6C97.6052 58.6 99.2052 56.7 99.2052 53.7C99.2052 49.8 97.1052 46.4 91.8052 46.4C87.2052 46.4 82.6052 50.3 82.6052 56.4C82.6052 61.7 86.3052 64.3 90.5052 64.3C91.9052 64.3 93.5052 63.8 94.6052 63.2L95.5052 65.4C93.9052 66.3 92.1052 66.7 90.2052 66.7C84.8052 66.7 80.0052 63.4 80.0052 56.5C79.8052 48.9 85.4052 44 92.0052 44ZM89.9052 58.3C90.5052 58.3 91.0052 58 91.7052 57.1L92.3052 53.4C92.0052 52.9 91.6052 52.6 91.1052 52.6C89.5052 52.6 88.5052 54.8 88.5052 56.4C88.5052 57.7 89.0052 58.3 89.9052 58.3Z" fill="#655B79"/>
</svg>
