<svg width="111" height="111" viewBox="0 0 111 111" fill="none" xmlns="http://www.w3.org/2000/svg">
<path d="M58.7999 106.292C87.1107 104.21 108.374 79.5719 106.292 51.2611C104.21 22.9503 79.572 1.6875 51.2612 3.76924C22.9504 5.85099 1.68759 30.489 3.76933 58.7998C5.85107 87.1106 30.4891 108.373 58.7999 106.292Z" fill="#FC7649"/>
<path d="M92.7326 81.9293C92.7326 83.0293 91.7326 83.9293 90.5326 83.9293H19.1326C17.9326 83.9293 16.9326 83.0293 16.9326 81.9293V39.5293C16.9326 38.4293 17.9326 37.5293 19.1326 37.5293H90.5326C91.7326 37.5293 92.7326 38.4293 92.7326 39.5293V81.9293V81.9293Z" fill="#534B64"/>
<path d="M89.5323 41.3293H20.1323V79.8293H89.5323V41.3293Z" fill="#CCD5D8"/>
<path d="M96.8324 92.0293C96.8324 94.3293 95.1324 96.2293 93.0324 96.2293H16.5324C14.4324 96.2293 12.7324 94.3293 12.7324 92.0293H96.8324Z" fill="#2BAAA5"/>
<path d="M96.8324 92.0292H12.7324L16.8324 83.9292H92.7324L96.8324 92.0292Z" fill="#6FC6C0"/>
<path d="M67.5327 91.2292C56.5327 91.2292 51.0327 91.2292 40.0327 91.2292C40.6327 89.9292 40.9327 89.2292 41.6327 87.9292C51.4327 87.9292 56.3327 87.9292 66.0327 87.9292C66.5327 89.2292 66.8327 89.9292 67.5327 91.2292Z" fill="#2BAAA5"/>
<path d="M71.0295 43H22V78H71.0295V43Z" fill="#6FBABB"/>
<path d="M69.5523 44.3291H23.624V72.2405H69.5523V44.3291Z" fill="#655B79"/>
<path d="M28.3498 75.0465C28.3498 76.3756 27.316 77.4093 25.9869 77.4093C24.6578 77.4093 23.624 76.3756 23.624 75.0465C23.624 73.7173 24.6578 72.6836 25.9869 72.6836C27.316 72.6836 28.3498 73.7173 28.3498 75.0465Z" fill="#0392AA"/>
<path d="M33.5187 75.0465C33.5187 76.3756 32.4849 77.4093 31.1558 77.4093C29.8267 77.4093 28.793 76.3756 28.793 75.0465C28.793 73.7173 29.8267 72.6836 31.1558 72.6836C32.4849 72.6836 33.5187 73.7173 33.5187 75.0465Z" fill="#0392AA"/>
<path d="M25.1011 73.7175V76.5234L27.4639 75.0466L25.1011 73.7175Z" stroke="white" stroke-width="0.25" stroke-miterlimit="10" stroke-linecap="round" stroke-linejoin="round"/>
<path d="M51.0926 58.2109C51.0926 60.7214 49.0251 62.7889 46.5146 62.7889C44.004 62.7889 41.9365 60.7214 41.9365 58.2109C41.9365 55.7003 44.004 53.6328 46.5146 53.6328C49.0251 53.6328 51.0926 55.7003 51.0926 58.2109Z" fill="#FEA621"/>
<path d="M44.8911 55.5527V61.0169L49.3215 58.211L44.8911 55.5527Z" fill="white"/>
<path opacity="0.25" d="M50.798 59.8352C50.2073 61.6073 48.5828 62.7888 46.663 62.9365L44.7432 61.0166L49.1735 58.3584L50.798 59.8352Z" fill="#216186"/>
<path d="M30.4177 76.5234C30.27 76.5234 30.27 76.3758 30.27 76.3758V73.8652C30.27 73.7175 30.4177 73.7175 30.4177 73.7175C30.5654 73.7175 30.5654 73.8652 30.5654 73.8652V76.3758C30.7131 76.5234 30.5654 76.5234 30.4177 76.5234Z" fill="white"/>
<path d="M31.7473 76.5234C31.5996 76.5234 31.5996 76.3758 31.5996 76.3758V73.8652C31.5996 73.7175 31.7473 73.7175 31.7473 73.7175C31.895 73.7175 31.895 73.8652 31.895 73.8652V76.3758C32.0426 76.5234 31.895 76.5234 31.7473 76.5234Z" fill="white"/>
<path d="M65.4182 73.4219H35.8823V74.3079H65.4182V73.4219Z" fill="#0392AA"/>
<path d="M36.9166 73.8648C36.9166 74.4555 36.4736 74.8986 35.8829 74.8986C35.2922 74.8986 34.8491 74.4555 34.8491 73.8648C34.8491 73.2741 35.2922 72.8311 35.8829 72.8311C36.4736 72.8311 36.9166 73.2741 36.9166 73.8648Z" fill="#F2F2F2"/>
<path d="M69.4061 73.4219H66.8955V74.0126H69.4061V73.4219Z" fill="#F2F2F2"/>
<path d="M69.4052 74.3079H67.4854V74.8986H69.4052V74.3079Z" fill="#F2F2F2"/>
<path d="M69.5523 75.1943H68.2231V75.7851H69.5523V75.1943Z" fill="#F2F2F2"/>
<path d="M69.4057 76.0801H68.8149V76.6708H69.4057V76.0801Z" fill="#F2F2F2"/>
<path d="M81.8325 43.8293C81.8325 44.4293 81.3325 44.8293 80.8325 44.8293C80.2325 44.8293 79.8325 44.3293 79.8325 43.8293C79.8325 43.2293 80.3325 42.8293 80.8325 42.8293C81.3325 42.8293 81.8325 43.3293 81.8325 43.8293Z" fill="#6FBABB"/>
<path d="M84.5327 43.8293C84.5327 44.4293 84.0327 44.8293 83.5327 44.8293C82.9327 44.8293 82.5327 44.3293 82.5327 43.8293C82.5327 43.2293 83.0327 42.8293 83.5327 42.8293C84.0327 42.8293 84.5327 43.3293 84.5327 43.8293Z" fill="#6FBABB"/>
<path d="M87.2324 43.8293C87.2324 44.4293 86.7324 44.8293 86.2324 44.8293C85.6324 44.8293 85.2324 44.3293 85.2324 43.8293C85.2324 43.2293 85.7324 42.8293 86.2324 42.8293C86.7324 42.8293 87.2324 43.3293 87.2324 43.8293Z" fill="#6FBABB"/>
<path d="M87.9326 48.5293H58.9326V51.1293H87.9326V48.5293Z" fill="#F2F2F2"/>
<path d="M88 52.009H73V78.4H88V52.009Z" fill="#F2F2F2"/>
<path d="M81.6836 72.5354H76.834V74.0016H81.6836V72.5354Z" fill="white"/>
<path d="M82.5869 69.039C82.8125 68.7007 83.0381 67.5729 83.0381 67.3473L83.1508 64.7533V64.6405C83.1508 64.6405 83.1508 64.6405 83.1508 64.5278C83.1508 64.5278 83.1508 64.5278 83.1508 64.415C83.1508 64.415 83.1508 64.415 83.1508 64.3022C83.1508 64.3022 83.1508 64.1894 83.0381 64.1894L82.9253 64.0766L82.5869 63.7383L81.4591 64.8661L80.6696 65.6556V66.1067L80.2185 66.445L80.1057 66.5578L78.1884 66.8962V67.009V67.4601L78.0756 68.2496L77.7373 72.3097H81.2335L82.5869 69.039Z" fill="#EEC4A7"/>
<path opacity="0.2" d="M81.1198 72.5352H77.6235L77.7363 70.8435C77.9619 71.0691 78.3002 71.2946 78.413 71.4074C79.3153 71.7458 80.3303 71.9713 81.3453 71.9713L81.1198 72.5352Z" fill="#8A8A8A"/>
<path d="M74.8042 62.6104C74.8042 62.4976 74.8042 62.4976 74.8042 62.3849C78.6388 62.2721 82.0222 60.8059 85.7441 60.8059C85.7441 60.9187 85.7441 60.9187 85.7441 61.0315C82.0222 61.0315 78.6388 62.4976 74.8042 62.6104Z" fill="#5E8C74"/>
<path d="M75.4809 67.0087C75.2553 65.2042 75.0298 64.3019 74.8042 62.6102C78.6388 62.4974 82.0222 61.0312 85.7441 61.0312C85.9696 62.8358 86.0824 63.738 86.4207 65.4297C85.4057 65.317 84.9546 65.317 84.0523 65.4297C83.3756 65.5425 83.0373 65.6553 82.4734 65.7681C82.0222 65.8809 81.7967 65.9937 81.4583 66.1064C81.12 66.2192 80.8944 66.2192 80.5561 66.332C79.4283 66.6703 78.8644 66.7831 77.7365 67.0087C76.8343 67.1215 76.3832 67.1215 75.4809 67.0087Z" fill="#DBDBDB"/>
<path d="M83.8265 63.1743C83.8265 63.5126 83.601 63.851 83.3754 63.851C83.0371 63.9637 82.8115 63.7382 82.6987 63.3998C82.6987 63.0615 82.8115 62.7231 83.1499 62.7231C83.4882 62.7231 83.7138 62.9487 83.8265 63.1743Z" fill="#5E8C74"/>
<path d="M78.5258 64.5275C78.5258 64.8659 78.413 65.2042 78.0746 65.2042C77.7363 65.317 77.5107 64.9787 77.3979 64.7531C77.3979 64.4148 77.6235 64.0764 77.8491 64.0764C78.1874 64.0764 78.5258 64.1892 78.5258 64.5275Z" fill="#5E8C74"/>
<path d="M85.4058 61.257C81.9095 61.1442 78.8644 63.0615 75.3682 62.9487C75.5937 64.4149 75.7065 65.2044 75.9321 66.6705C75.9321 66.6705 75.9321 66.6705 76.0449 66.7833C79.5411 66.8961 82.5862 64.9788 86.0824 65.0916C85.7441 63.5126 85.6313 62.7232 85.4058 61.257ZM85.4058 63.9638C85.0674 63.9638 84.8418 64.3021 84.9546 64.6404C82.1351 64.866 79.5411 66.1066 76.8343 66.3322C76.8343 65.9938 76.496 65.7683 76.1576 65.7683C76.0449 65.0916 76.0449 64.7532 75.9321 64.0765C76.2704 64.0765 76.496 63.7382 76.3832 63.3998C79.2028 63.1743 81.7967 61.9337 84.5035 61.7081C84.5035 62.0465 84.8419 62.272 85.1802 62.272C85.293 62.9487 85.293 63.2871 85.4058 63.9638Z" fill="#5E8C74"/>
<path d="M80.7818 65.2042C81.4585 64.9786 81.9096 64.3019 81.7968 63.6252C81.684 62.9485 81.1201 62.4974 80.4434 62.723C79.7667 62.9485 79.3156 63.6252 79.4284 64.3019C79.4284 65.0914 80.1051 65.4297 80.7818 65.2042ZM80.1051 63.5125C80.1051 63.3997 80.2179 63.3997 80.3307 63.3997C80.3307 63.3997 80.3307 63.3997 80.4434 63.3997C80.4434 63.2869 80.4434 63.2869 80.4434 63.2869C80.5562 63.2869 80.5562 63.2869 80.669 63.1741C80.669 63.2869 80.669 63.2869 80.669 63.2869C80.7818 63.2869 80.7818 63.2869 80.7818 63.2869C80.8946 63.2869 80.8946 63.2869 80.8946 63.3997C80.8946 63.3997 81.0073 63.5125 81.0073 63.6252C80.8946 63.6252 80.8946 63.738 80.7818 63.738C80.7818 63.6252 80.669 63.6252 80.669 63.6252H80.5562C80.4434 63.6252 80.4434 63.738 80.4434 63.738V63.8508C80.4434 63.9636 80.4434 63.9636 80.5562 63.9636C80.669 63.9636 80.669 64.0764 80.7818 64.0764C80.8946 64.0764 81.0073 64.1891 81.0073 64.1891C81.0073 64.1891 81.1201 64.3019 81.1201 64.4147C81.1201 64.5275 81.1201 64.6403 81.0073 64.7531L80.8946 64.8658C80.8946 64.9786 80.8946 64.9786 80.8946 64.9786C80.7818 64.9786 80.7818 64.9786 80.669 65.0914V64.9786C80.5562 64.9786 80.5562 64.9786 80.5562 64.9786C80.4434 64.9786 80.4434 64.9786 80.4434 64.8658L80.3307 64.7531C80.4434 64.7531 80.4434 64.6403 80.5562 64.6403C80.5562 64.6403 80.5562 64.7531 80.669 64.7531H80.7818C80.7818 64.7531 80.8946 64.7531 80.8946 64.6403V64.5275C80.8946 64.4147 80.8946 64.4147 80.7818 64.4147H80.669C80.5562 64.4147 80.5562 64.4147 80.5562 64.4147C80.4434 64.4147 80.4434 64.3019 80.3307 64.3019C80.3307 64.3019 80.3307 64.1891 80.2179 64.1891C79.9923 63.738 79.9923 63.6252 80.1051 63.5125Z" fill="#5E8C74"/>
<path d="M74.5786 62.9489C74.5786 62.8361 74.5786 62.8361 74.4658 62.7233C78.1876 61.9338 81.2327 60.0165 84.9545 59.2271C84.9545 59.3398 84.9545 59.3398 85.0673 59.4526C81.4583 60.2421 78.3004 62.2722 74.5786 62.9489Z" fill="#5E8C74"/>
<path d="M76.0453 67.2343C75.4814 65.5426 75.2558 64.6404 74.6919 62.9486C78.4137 62.1592 81.4588 60.2419 85.1806 59.4524C85.7445 61.1441 85.9701 62.0464 86.534 63.7381C85.519 63.7381 85.0678 63.8509 84.1656 64.1892C83.4889 64.4148 83.2633 64.5276 82.5866 64.7531C82.1355 64.9787 82.0227 64.9787 81.5716 65.2043C81.2332 65.3171 81.1205 65.4298 80.7821 65.6554C79.7671 66.1065 79.2032 66.4449 78.1881 66.7832C77.3987 67.1216 76.9475 67.1216 76.0453 67.2343Z" fill="white"/>
<path d="M83.6008 62.0467C83.7136 62.385 83.488 62.7233 83.2624 62.8361C82.9241 62.9489 82.5857 62.8361 82.5857 62.4978C82.473 62.1594 82.5858 61.8211 82.9241 61.7083C83.1497 61.5955 83.488 61.7083 83.6008 62.0467Z" fill="#5E8C74"/>
<path d="M78.6393 64.3023C78.752 64.6406 78.5265 64.979 78.3009 65.0917C77.9626 65.2045 77.6242 64.979 77.5114 64.7534C77.3987 64.4151 77.6242 64.0767 77.8498 63.9639C78.1881 63.8511 78.5265 63.9639 78.6393 64.3023Z" fill="#5E8C74"/>
<path d="M84.8423 59.7908C81.3461 60.2419 78.6393 62.7231 75.2559 63.1742C75.2559 63.1742 75.2559 63.1742 75.2559 63.287C75.707 64.7532 75.9326 65.4299 76.3837 66.7833C76.3837 66.7833 76.3837 66.7833 76.4965 66.7833C79.9927 66.2193 82.6995 63.8509 86.0829 63.3998C86.0829 63.3998 86.0829 63.3998 86.0829 63.287C85.519 62.0464 85.2935 61.2569 84.8423 59.7908C84.8423 59.7908 84.8423 59.9036 84.8423 59.7908ZM85.2935 62.4975C84.9551 62.4975 84.8423 62.8359 84.9551 63.1742C82.2483 63.8509 79.8799 65.5427 77.1732 66.2193C77.0604 65.881 76.722 65.6554 76.3837 65.7682C76.1581 65.0915 76.0453 64.866 75.8198 64.1893C76.1581 64.1893 76.2709 63.8509 76.1581 63.5126C78.8649 62.7231 81.2333 61.1442 83.9401 60.4675C84.0529 60.8058 84.3912 61.0314 84.7295 60.9186C84.9551 61.5953 85.0679 61.8208 85.2935 62.4975Z" fill="#5E8C74"/>
<path d="M80.8946 64.5277C81.5713 64.1894 81.9097 63.3999 81.6841 62.836C81.4585 62.1593 80.7819 61.9337 80.1052 62.1593C79.4285 62.4976 79.0901 63.2871 79.3157 63.851C79.5412 64.6405 80.2179 64.8661 80.8946 64.5277ZM79.9924 63.0615C79.9924 62.9488 80.1052 62.9488 80.1052 62.836C80.1052 62.836 80.1052 62.836 80.2179 62.836V62.7232C80.3307 62.7232 80.3307 62.6104 80.4435 62.6104C80.4435 62.7232 80.4435 62.7232 80.4435 62.7232C80.5563 62.7232 80.5563 62.7232 80.5563 62.7232C80.6691 62.7232 80.6691 62.7232 80.7819 62.836L80.8946 62.9488C80.7819 62.9488 80.7819 63.0615 80.6691 63.0615C80.6691 62.9488 80.5563 62.9488 80.5563 62.9488H80.4435C80.3307 62.9488 80.3307 63.0615 80.3307 63.0615V63.1743C80.3307 63.2871 80.4435 63.2871 80.4435 63.2871C80.5563 63.2871 80.5563 63.2871 80.7819 63.3999C80.8946 63.3999 81.0074 63.3999 81.0074 63.5127C81.1202 63.5127 81.1202 63.6255 81.1202 63.6255C81.1202 63.7382 81.1202 63.851 81.0074 63.9638L80.8946 64.0766V64.1894C80.7819 64.1894 80.7819 64.1894 80.6691 64.3021V64.1894H80.5563C80.4435 64.1894 80.4435 64.1894 80.4435 64.1894L80.3307 64.0766C80.4435 63.9638 80.4435 63.9638 80.5563 63.9638L80.6691 64.0766H80.7819L80.8946 63.9638V63.851C80.8946 63.7382 80.7819 63.7382 80.7819 63.7382H80.6691C80.5563 63.7382 80.5563 63.7382 80.5563 63.7382C80.4435 63.7382 80.4435 63.7382 80.3307 63.6255C80.3307 63.6255 80.3307 63.6255 80.2179 63.6255L80.1052 63.5127C79.9924 63.1743 79.9924 63.0615 79.9924 63.0615Z" fill="#5E8C74"/>
<path d="M77.9619 67.0088V66.896V66.3321V66.2193L78.0747 64.8659V63.8509C78.0747 63.5125 78.0747 63.6253 78.0747 63.287C78.0747 62.8358 78.1875 62.2719 78.5258 61.9336C78.8642 61.708 79.3153 61.708 79.5409 62.0464C79.6536 62.2719 79.7664 62.723 79.7664 63.287C79.7664 63.5125 79.7664 63.6253 79.7664 63.7381C79.7664 63.8509 79.7664 63.8509 79.7664 63.9636V66.2193V66.4448V66.6704L77.9619 67.0088Z" fill="#EEC4A7"/>
<path d="M78.7519 63.0614C78.6392 63.0614 78.6392 62.9486 78.6392 62.8358C78.6392 62.4975 78.6392 62.0464 78.9775 61.9336C79.0903 61.9336 79.0903 61.9336 79.0903 61.9336C79.4286 61.9336 79.6542 62.1592 79.6542 62.6103C79.6542 62.7231 79.6542 62.8358 79.6542 62.9486C79.6542 62.9486 79.6542 63.0614 79.5414 63.0614C79.4286 62.9486 79.4286 62.7231 79.2031 62.7231C79.0903 62.6103 78.7519 62.8358 78.7519 63.0614Z" fill="#F8EACB"/>
<path opacity="0.43" d="M79.8794 66.6706L79.9922 66.5578C80.105 66.5578 80.3305 66.445 80.4433 66.445C80.7816 66.3322 81.0072 66.3322 81.3456 66.2194C81.7967 66.1067 82.0223 65.9939 82.3606 65.8811C82.5862 65.7683 82.8117 65.7683 82.9245 65.7683V66.445C82.3606 66.3322 81.2328 66.3322 79.8794 66.6706Z" fill="#8A8A8A"/>
<path d="M82.0224 73.8887H76.3833V76.7082H82.0224V73.8887Z" fill="#11787F"/>
<g opacity="0.67">
<path opacity="0.67" d="M79.8799 66.5579V66.4451V66.2196V65.8812V65.7684V65.3173V65.2045V64.6406V63.9639C79.8799 63.8512 79.8799 63.8512 79.8799 63.7384C79.8799 63.5128 79.8799 63.4 79.8799 63.2872V63.1745C79.8799 63.0617 79.8799 62.9489 79.8799 62.8361C79.8799 62.7233 79.8799 62.6106 79.8799 62.4978C79.8799 62.385 79.8799 62.385 79.8799 62.385V62.2722C79.8799 62.1594 79.8799 62.1594 79.7671 62.1594C79.8799 62.1594 79.9927 62.2722 79.9927 62.2722L80.1054 62.385C80.2182 62.4978 80.2182 62.6106 80.331 62.7233C80.331 62.8361 80.331 62.8361 80.4438 62.9489V63.0617C80.4438 63.1745 80.4438 63.2872 80.4438 63.2872V63.4C80.4438 63.5128 80.4438 63.5128 80.4438 63.6256V63.7384V63.8512V63.9639C80.4438 64.0767 80.4438 64.0767 80.4438 64.1895C80.4438 64.3023 80.4438 64.4151 80.4438 64.5278C80.4438 64.6406 80.4438 64.6406 80.4438 64.7534C80.4438 64.8662 80.4438 64.979 80.4438 65.0918C80.4438 65.2045 80.4438 65.2045 80.4438 65.3173C80.4438 65.4301 80.4438 65.5429 80.4438 65.6557C80.4438 65.7684 80.4438 65.8812 80.4438 65.994V66.1068C80.4438 66.2196 80.4438 66.3324 80.4438 66.4451C80.331 66.4451 80.2182 66.4451 80.2182 66.5579C79.9927 66.4451 79.8799 66.5579 79.8799 66.5579Z" fill="#878787"/>
</g>
<path d="M74.8041 57.7608H74.2402V53.7007H75.1425L75.7064 56.633L76.2703 53.7007H77.1726V57.7608H76.6087V55.1668L75.8192 57.7608H75.3681L74.8041 55.1668V57.7608V57.7608Z" fill="#534B64"/>
<path d="M78.5263 53.5879C78.7518 53.5879 78.9774 53.7007 79.203 53.9262C79.4285 54.1518 79.5413 54.3774 79.5413 54.6029V56.8586C79.5413 57.0841 79.4285 57.3097 79.203 57.5353C78.9774 57.648 78.7518 57.7608 78.5263 57.7608C78.3007 57.7608 78.0751 57.648 77.8496 57.4225C77.624 57.1969 77.5112 56.9713 77.5112 56.7458V54.4901C77.5112 54.2646 77.624 54.039 77.8496 53.8135C78.0751 53.7007 78.3007 53.5879 78.5263 53.5879ZM78.8646 54.6029C78.8646 54.4901 78.8646 54.3774 78.7518 54.3774C78.639 54.2646 78.6391 54.2646 78.5263 54.2646C78.4135 54.2646 78.3007 54.2646 78.3007 54.3774C78.1879 54.4901 78.1879 54.4901 78.1879 54.6029V56.8586C78.1879 56.9714 78.1879 57.0841 78.3007 57.0841C78.4135 57.1969 78.4135 57.1969 78.5263 57.1969C78.6391 57.1969 78.7518 57.1969 78.7518 57.0841C78.8646 56.9714 78.8646 56.9714 78.8646 56.8586V54.6029Z" fill="#534B64"/>
<path d="M80.6689 53.7007L81.4583 56.4074V53.7007H82.0223V57.7608H81.3456L80.4433 55.1668V57.7608H79.8794V53.7007H80.6689Z" fill="#534B64"/>
<path d="M82.6987 57.7608V53.7007H84.5032V54.2646H83.3754V55.3924H84.1649V55.9563H83.3754V57.0841H84.5032V57.7608H82.6987Z" fill="#534B64"/>
<path d="M85.7441 56.0691L84.9546 53.7007H85.6313L86.0824 55.1668L86.5335 53.7007H87.2102L86.4208 56.0691V57.7608H85.8568V56.0691H85.7441Z" fill="#534B64"/>
<path d="M103.233 10.5293H47.0327V50.8293H103.233V10.5293Z" fill="white"/>
<path d="M103.233 10.4292H47.0327V14.7292H103.233V10.4292Z" fill="#11787F"/>
<path d="M95.4325 12.6291C95.4325 13.3291 94.8325 13.9291 94.1325 13.9291C93.4325 13.9291 92.8325 13.3291 92.8325 12.6291C92.8325 11.9291 93.4325 11.3291 94.1325 11.3291C94.8325 11.3291 95.4325 11.9291 95.4325 12.6291Z" fill="#F2F2F2"/>
<path d="M98.7328 12.6291C98.7328 13.3291 98.1328 13.9291 97.4328 13.9291C96.7328 13.9291 96.1328 13.3291 96.1328 12.6291C96.1328 11.9291 96.7328 11.3291 97.4328 11.3291C98.1328 11.3291 98.7328 11.9291 98.7328 12.6291Z" fill="#F2F2F2"/>
<path d="M102.033 12.6291C102.033 13.3291 101.433 13.9291 100.733 13.9291C100.033 13.9291 99.4326 13.3291 99.4326 12.6291C99.4326 11.9291 100.033 11.3291 100.733 11.3291C101.533 11.3291 102.033 11.9291 102.033 12.6291Z" fill="#F2F2F2"/>
<path d="M65.4328 11.8291H48.1328V13.4291H65.4328V11.8291Z" fill="#F2F2F2"/>
<path d="M71.5327 18.0293H49.5327V35.8293H71.5327V18.0293Z" fill="#D7D7DE"/>
<path d="M66.4325 27.6292C66.4325 31.2292 63.5325 34.1292 59.9325 34.1292C57.5325 34.1292 55.4325 32.8291 54.3325 30.9291L59.9325 27.6292H66.4325Z" fill="#F2F2F2"/>
<path d="M67.7329 26.9291H61.2329L64.2329 21.1292C66.2329 22.2292 67.7329 24.3291 67.7329 26.9291Z" fill="#FEA621"/>
<path d="M63.3325 21.1293L60.3325 26.9293V20.4293C61.4325 20.3293 62.4325 20.6293 63.3325 21.1293Z" fill="#67C6DD"/>
<path d="M59.9328 21.1292V27.6292L57.6328 21.5292C58.3328 21.2291 59.1328 21.1292 59.9328 21.1292Z" fill="#FFE610"/>
<path d="M59.9326 27.6293L54.3326 30.9293C53.7326 29.9293 53.4326 28.8293 53.4326 27.6293C53.4326 24.8293 55.1326 22.5293 57.6326 21.5293L59.9326 27.6293Z" fill="#FF8000"/>
<path d="M100.833 18.0293H75.4326V20.4293H100.833V18.0293Z" fill="#DADAE0"/>
<path d="M100.833 21.5293H75.4326V22.7293H100.833V21.5293Z" fill="#DADAE0"/>
<path d="M100.833 23.7292H75.4326V24.9292H100.833V23.7292Z" fill="#DADAE0"/>
<path d="M100.833 26.0293H75.4326V27.2293H100.833V26.0293Z" fill="#DADAE0"/>
<path d="M100.833 28.2292H75.4326V29.4292H100.833V28.2292Z" fill="#DADAE0"/>
<path d="M100.833 30.4292H75.4326V31.6292H100.833V30.4292Z" fill="#DADAE0"/>
<path d="M100.833 32.7292H75.4326V33.9292H100.833V32.7292Z" fill="#DADAE0"/>
<path d="M100.833 34.9292H75.4326V36.1292H100.833V34.9292Z" fill="#DADAE0"/>
<path d="M59.9327 41.1292H49.5327V48.5292H59.9327V41.1292Z" fill="#11787F"/>
<path d="M59.6326 41.4292H49.9326V47.3292H59.6326V41.4292Z" fill="#C4C4CA"/>
<path d="M53.9326 43.1292V45.5292L55.8326 44.3292L53.9326 43.1292Z" fill="white"/>
<path d="M72.8326 41.1292H62.4326V48.5292H72.8326V41.1292Z" fill="#11787F"/>
<path d="M72.6325 41.4292H62.8325V47.3292H72.6325V41.4292Z" fill="#C4C4CA"/>
<path d="M66.8325 43.1292V45.5292L68.8325 44.3292L66.8325 43.1292Z" fill="white"/>
<path d="M85.8326 41.1292H75.4326V48.5292H85.8326V41.1292Z" fill="#11787F"/>
<path d="M85.4324 41.4292H75.7324V47.3292H85.4324V41.4292Z" fill="#C4C4CA"/>
<path d="M79.7324 43.1292V45.5292L81.7324 44.3292L79.7324 43.1292Z" fill="white"/>
<path d="M98.7325 41.1292H88.3325V48.5292H98.7325V41.1292Z" fill="#11787F"/>
<path d="M98.4323 41.4292H88.6323V47.3292H98.4323V41.4292Z" fill="#C4C4CA"/>
<path d="M92.6323 43.1292V45.5292L94.6323 44.3292L92.6323 43.1292Z" fill="white"/>
<path d="M54.3327 38.8291H49.5327V39.8291H54.3327V38.8291Z" fill="#BBBBC0"/>
<path d="M59.6326 38.8291H57.9326V39.8291H59.6326V38.8291Z" fill="#BBBBC0"/>
<path d="M57.3327 38.8291H55.0327V39.8291H57.3327V38.8291Z" fill="#BBBBC0"/>
<path d="M94.6325 39.3291H88.3325V40.3291H94.6325V39.3291Z" fill="#BBBBC0"/>
<path d="M97.4328 39.3291H95.6328V40.3291H97.4328V39.3291Z" fill="#BBBBC0"/>
<path d="M67.2326 38.8291H62.4326V39.8291H67.2326V38.8291Z" fill="#BBBBC0"/>
<path d="M79.0326 38.8291H75.4326V39.8291H79.0326V38.8291Z" fill="#BBBBC0"/>
<path d="M84.7329 38.8291H79.7329V39.8291H84.7329V38.8291Z" fill="#BBBBC0"/>
<path d="M70.9327 38.8291H68.5327V39.8291H70.9327V38.8291Z" fill="#BBBBC0"/>
<path opacity="0.25" d="M103.233 32.5292V50.7292H83.9329L62.7329 29.5292C62.8329 29.6292 63.0329 29.7292 63.1329 29.8292C63.4329 30.0292 63.8329 30.1292 64.2329 30.2292C64.4329 30.2292 64.6329 30.2292 64.7329 30.2292H65.5329C65.7329 30.2292 65.9329 30.2292 66.0329 30.2292C67.1329 30.0292 68.1329 29.2292 68.6329 27.9292C69.3329 26.2292 69.0329 24.2292 67.9329 23.0292L72.0329 27.1292C72.4329 27.8292 72.9329 28.4292 73.6329 28.8292C74.0329 29.1292 74.5329 29.2292 74.9329 29.3292C75.1329 29.3292 75.3329 29.4292 75.6329 29.4292H76.6329C76.8329 29.4292 77.0329 29.4292 77.3329 29.3292C78.7329 29.0292 79.9329 28.0292 80.5329 26.4292C81.4329 24.4292 81.0329 22.0292 79.8329 20.4292L84.2329 24.8292C84.0329 25.1292 83.9329 25.3292 83.8329 25.6292C82.4329 29.0292 83.5329 33.2292 86.4329 35.0292C87.0329 35.3292 87.5329 35.6292 88.1329 35.7292C88.4329 35.7292 88.7329 35.8292 89.0329 35.8292H90.4329C90.7329 35.8292 91.0329 35.8292 91.3329 35.7292C93.1329 35.3292 94.7329 34.0292 95.6329 32.0292C96.7329 29.2292 96.2329 26.0292 94.5329 24.0292L103.233 32.5292Z" fill="#216186"/>
<path d="M95.533 31.9293C94.633 34.0293 93.033 35.3293 91.233 35.6293C90.933 35.7293 90.633 35.7293 90.333 35.7293H88.933C89.133 35.7293 89.333 35.7293 89.533 35.7293C89.633 35.7293 89.733 35.7293 89.833 35.6293C91.633 35.2293 93.233 33.9293 94.033 31.9293C95.433 28.4293 94.333 24.2293 91.433 22.5293C90.833 22.1293 90.133 21.9293 89.433 21.8293C89.233 21.8293 89.033 21.8293 88.833 21.8293H90.133C91.033 21.8293 91.933 22.0293 92.733 22.5293C92.933 22.6293 93.233 22.8293 93.433 23.0293C93.733 23.3293 94.033 23.5293 94.333 23.9293C96.233 25.9293 96.733 29.1293 95.533 31.9293Z" fill="#C2A116"/>
<path d="M90.933 30.2294C90.933 30.6294 90.833 31.0294 90.533 31.3294C90.333 31.5294 90.133 31.7294 89.833 31.8294C89.733 31.8294 89.633 31.8294 89.533 31.9294V32.6294H88.733V31.9294C88.533 31.9294 88.333 31.8294 88.133 31.7294C87.933 31.5294 87.733 31.3294 87.533 31.1294C87.433 30.8294 87.333 30.5294 87.333 30.2294L88.333 30.1294C88.433 30.5294 88.533 30.7294 88.633 30.9294C88.733 31.0294 88.933 31.1294 89.033 31.1294C89.233 31.1294 89.433 31.0294 89.633 30.8294C89.733 30.7294 89.733 30.6294 89.733 30.4294C89.733 30.1294 89.633 29.9294 89.333 29.6294C89.133 29.4294 88.833 29.2294 88.333 28.8294C87.933 28.5294 87.733 28.2294 87.533 28.0294C87.333 27.7294 87.333 27.4294 87.333 27.1294C87.333 26.5294 87.533 26.1294 88.033 25.8294C88.233 25.7294 88.433 25.6294 88.633 25.6294V24.9294H89.433V25.6294C89.633 25.6294 89.833 25.7294 90.033 25.8294C90.233 25.9294 90.433 26.1294 90.533 26.3294C90.633 26.5294 90.733 26.8294 90.733 27.0294L89.733 27.2294C89.733 26.9294 89.633 26.7294 89.433 26.6294C89.333 26.5294 89.233 26.4294 89.033 26.4294C88.833 26.4294 88.733 26.5294 88.533 26.6294C88.633 26.5294 88.633 26.7294 88.633 26.9294C88.633 27.2294 88.733 27.5294 89.033 27.8294C89.133 27.9294 89.333 28.0294 89.533 28.2294C89.833 28.4294 89.933 28.5294 90.033 28.6294C90.333 28.8294 90.533 29.1294 90.633 29.3294C90.733 29.4294 90.733 29.5294 90.833 29.6294C90.933 29.8294 90.933 30.0294 90.933 30.2294Z" fill="#F9F122"/>
<path d="M91.733 22.5293C91.133 22.1293 90.433 21.9293 89.733 21.8293C89.533 21.8293 89.333 21.8293 89.133 21.8293C87.233 21.8293 85.433 22.9293 84.333 24.8293C84.133 25.1293 84.033 25.3293 83.933 25.6293C82.533 29.0293 83.633 33.2293 86.533 35.0293C87.133 35.3293 87.633 35.6293 88.233 35.7293C88.533 35.7293 88.833 35.8293 89.133 35.8293C89.333 35.8293 89.533 35.8293 89.733 35.8293C89.833 35.8293 89.933 35.8293 90.033 35.7293C91.833 35.3293 93.433 34.0293 94.233 32.0293C95.733 28.4293 94.633 24.2293 91.733 22.5293ZM93.433 31.3293C92.633 33.2293 91.133 34.3293 89.433 34.5293C88.633 34.6293 87.733 34.4293 86.933 33.9293C86.333 33.5293 85.833 33.0293 85.433 32.5293C84.233 30.8293 83.933 28.3293 84.833 26.2293C84.933 26.0293 85.033 25.8293 85.133 25.6293C85.233 25.4293 85.333 25.2293 85.433 25.1293C86.333 23.8293 87.733 23.1293 89.133 23.1293C89.233 23.1293 89.333 23.1293 89.433 23.1293C90.033 23.2293 90.633 23.4293 91.233 23.7293C93.633 25.0293 94.633 28.5293 93.433 31.3293Z" fill="#FCF018"/>
<path d="M90.933 30.2294C90.933 30.6294 90.833 31.0294 90.533 31.3294C90.333 31.5294 90.133 31.7294 89.833 31.8294C89.733 31.8294 89.633 31.8294 89.533 31.9294V32.6294H88.733V31.9294C88.533 31.9294 88.333 31.8294 88.133 31.7294C87.933 31.5294 87.733 31.3294 87.533 31.1294C87.433 30.8294 87.333 30.5294 87.333 30.2294L88.333 30.1294C88.433 30.5294 88.533 30.7294 88.633 30.9294C88.733 31.0294 88.933 31.1294 89.033 31.1294C89.233 31.1294 89.433 31.0294 89.633 30.8294C89.733 30.7294 89.733 30.6294 89.733 30.4294C89.733 30.1294 89.633 29.9294 89.333 29.6294C89.133 29.4294 88.833 29.2294 88.333 28.8294C87.933 28.5294 87.733 28.2294 87.533 28.0294C87.333 27.7294 87.333 27.4294 87.333 27.1294C87.333 26.5294 87.533 26.1294 88.033 25.8294C88.233 25.7294 88.433 25.6294 88.633 25.6294V24.9294H89.433V25.6294C89.633 25.6294 89.833 25.7294 90.033 25.8294C90.233 25.9294 90.433 26.1294 90.533 26.3294C90.633 26.5294 90.733 26.8294 90.733 27.0294L89.733 27.2294C89.733 26.9294 89.633 26.7294 89.433 26.6294C89.333 26.5294 89.233 26.4294 89.033 26.4294C88.833 26.4294 88.733 26.5294 88.533 26.6294C88.633 26.5294 88.633 26.7294 88.633 26.9294C88.633 27.2294 88.733 27.5294 89.033 27.8294C89.133 27.9294 89.333 28.0294 89.533 28.2294C89.833 28.4294 89.933 28.5294 90.033 28.6294C90.333 28.8294 90.533 29.1294 90.633 29.3294C90.733 29.4294 90.733 29.5294 90.833 29.6294C90.933 29.8294 90.933 30.0294 90.933 30.2294Z" fill="#F9F122"/>
<path d="M91.233 23.6293C90.633 23.2293 90.033 23.1293 89.433 23.0293C88.133 23.1293 86.933 23.8293 86.033 25.0293C85.833 25.3293 85.533 25.7293 85.433 26.1293C84.533 28.2293 84.833 30.7293 86.033 32.4293C86.433 33.0293 86.933 33.5293 87.533 33.8293C88.133 34.2293 88.733 34.3293 89.333 34.4293C90.933 34.3293 92.533 33.1293 93.333 31.2293C94.633 28.5293 93.633 25.0293 91.233 23.6293ZM90.533 31.3293C90.333 31.5293 90.133 31.7293 89.833 31.8293C89.733 31.8293 89.633 31.8293 89.533 31.9293V32.6293H88.733V31.9293C88.533 31.9293 88.333 31.8293 88.133 31.7293C87.933 31.5293 87.733 31.3293 87.533 31.1293C87.433 30.8293 87.333 30.5293 87.333 30.2293L88.333 30.1293C88.433 30.5293 88.533 30.7293 88.633 30.9293C88.733 31.0293 88.933 31.1293 89.033 31.1293C89.233 31.1293 89.433 31.0293 89.633 30.8293C89.733 30.7293 89.733 30.6293 89.733 30.4293C89.733 30.1293 89.633 29.9293 89.333 29.6293C89.133 29.4293 88.833 29.2293 88.333 28.8293C87.933 28.5293 87.733 28.2293 87.533 28.0293C87.333 27.7293 87.333 27.4293 87.333 27.1293C87.333 26.5293 87.533 26.1293 88.033 25.8293C88.233 25.7293 88.433 25.6293 88.633 25.6293V24.9293H89.433V25.6293C89.633 25.6293 89.833 25.7293 90.033 25.8293C90.233 25.9293 90.433 26.1293 90.533 26.3293C90.633 26.5293 90.733 26.8293 90.733 27.0293L89.733 27.2293C89.733 26.9293 89.633 26.7293 89.433 26.6293C89.333 26.5293 89.233 26.4293 89.033 26.4293C88.833 26.4293 88.733 26.5293 88.533 26.6293C88.633 26.5293 88.633 26.7293 88.633 26.9293C88.633 27.2293 88.733 27.5293 89.033 27.8293C89.133 27.9293 89.333 28.0293 89.533 28.2293C89.833 28.4293 89.933 28.5293 90.033 28.6293C90.333 28.8293 90.533 29.1293 90.633 29.3293C90.733 29.4293 90.733 29.5293 90.833 29.6293C90.933 29.8293 91.033 30.0293 91.033 30.2293C90.933 30.6293 90.833 31.0293 90.533 31.3293Z" fill="#F9F122"/>
<path d="M87.6329 33.9293C88.2329 34.3293 88.8329 34.4293 89.4329 34.5293C88.6329 34.6293 87.7329 34.4293 86.9329 33.9293C86.3329 33.5293 85.8329 33.0293 85.4329 32.5293C84.2329 30.8293 83.9329 28.3293 84.8329 26.2293C85.0329 25.8293 85.2329 25.4293 85.4329 25.1293C86.4329 23.7293 87.9329 22.9293 89.4329 23.1293C88.1329 23.2293 86.9329 23.9293 86.0329 25.1293C85.8329 25.4293 85.5329 25.8293 85.4329 26.2293C84.5329 28.3293 84.8329 30.8293 86.0329 32.5293C86.5329 33.0293 87.0329 33.5293 87.6329 33.9293Z" fill="#C2A116"/>
<path d="M90.933 30.2294C90.933 30.6294 90.833 31.0294 90.533 31.3294C90.333 31.5294 90.133 31.7294 89.833 31.8294C89.733 31.8294 89.633 31.8294 89.533 31.9294V32.6294H88.733V31.9294C88.533 31.9294 88.333 31.8294 88.133 31.7294C87.933 31.5294 87.733 31.3294 87.533 31.1294C87.433 30.8294 87.333 30.5294 87.333 30.2294L88.333 30.1294C88.433 30.5294 88.533 30.7294 88.633 30.9294C88.733 31.0294 88.933 31.1294 89.033 31.1294C89.233 31.1294 89.433 31.0294 89.633 30.8294C89.733 30.7294 89.733 30.6294 89.733 30.4294C89.733 30.1294 89.633 29.9294 89.333 29.6294C89.133 29.4294 88.833 29.2294 88.333 28.8294C87.933 28.5294 87.733 28.2294 87.533 28.0294C87.333 27.7294 87.333 27.4294 87.333 27.1294C87.333 26.5294 87.533 26.1294 88.033 25.8294C88.233 25.7294 88.433 25.6294 88.633 25.6294V24.9294H89.433V25.6294C89.633 25.6294 89.833 25.7294 90.033 25.8294C90.233 25.9294 90.433 26.1294 90.533 26.3294C90.633 26.5294 90.733 26.8294 90.733 27.0294L89.733 27.2294C89.733 26.9294 89.633 26.7294 89.433 26.6294C89.333 26.5294 89.233 26.4294 89.033 26.4294C88.833 26.4294 88.733 26.5294 88.533 26.6294C88.633 26.5294 88.633 26.7294 88.633 26.9294C88.633 27.2294 88.733 27.5294 89.033 27.8294C89.133 27.9294 89.333 28.0294 89.533 28.2294C89.833 28.4294 89.933 28.5294 90.033 28.6294C90.333 28.8294 90.533 29.1294 90.633 29.3294C90.733 29.4294 90.733 29.5294 90.833 29.6294C90.933 29.8294 90.933 30.0294 90.933 30.2294Z" fill="#F9F122"/>
<path d="M93.4331 31.3294C92.6331 33.2294 91.1331 34.3294 89.4331 34.5294C88.8331 34.4294 88.2331 34.2294 87.6331 33.9294C87.0331 33.5294 86.5331 33.0294 86.1331 32.5294C84.9331 30.8294 84.6331 28.3294 85.5331 26.2294C85.7331 25.8294 85.9331 25.4294 86.1331 25.1294C87.0331 23.9294 88.2331 23.2294 89.5331 23.1294C90.1331 23.2294 90.7331 23.3294 91.3331 23.7294C93.6331 25.0294 94.6331 28.5294 93.4331 31.3294Z" fill="#DFCA11"/>
<path d="M90.933 30.2294C90.933 30.6294 90.833 31.0294 90.533 31.3294C90.333 31.5294 90.133 31.7294 89.833 31.8294C89.733 31.8294 89.633 31.8294 89.533 31.9294V32.6294H88.733V31.9294C88.533 31.9294 88.333 31.8294 88.133 31.7294C87.933 31.5294 87.733 31.3294 87.533 31.1294C87.433 30.8294 87.333 30.5294 87.333 30.2294L88.333 30.1294C88.433 30.5294 88.533 30.7294 88.633 30.9294C88.733 31.0294 88.933 31.1294 89.033 31.1294C89.233 31.1294 89.433 31.0294 89.633 30.8294C89.733 30.7294 89.733 30.6294 89.733 30.4294C89.733 30.1294 89.633 29.9294 89.333 29.6294C89.133 29.4294 88.833 29.2294 88.333 28.8294C87.933 28.5294 87.733 28.2294 87.533 28.0294C87.333 27.7294 87.333 27.4294 87.333 27.1294C87.333 26.5294 87.533 26.1294 88.033 25.8294C88.233 25.7294 88.433 25.6294 88.633 25.6294V24.9294H89.433V25.6294C89.633 25.6294 89.833 25.7294 90.033 25.8294C90.233 25.9294 90.433 26.1294 90.533 26.3294C90.633 26.5294 90.733 26.8294 90.733 27.0294L89.733 27.2294C89.733 26.9294 89.633 26.7294 89.433 26.6294C89.333 26.5294 89.233 26.4294 89.033 26.4294C88.833 26.4294 88.733 26.5294 88.533 26.6294C88.633 26.5294 88.633 26.7294 88.633 26.9294C88.633 27.2294 88.733 27.5294 89.033 27.8294C89.133 27.9294 89.333 28.0294 89.533 28.2294C89.833 28.4294 89.933 28.5294 90.033 28.6294C90.333 28.8294 90.533 29.1294 90.633 29.3294C90.733 29.4294 90.733 29.5294 90.833 29.6294C90.933 29.8294 90.933 30.0294 90.933 30.2294Z" fill="#FAF418"/>
<path d="M80.6329 26.3293C79.9329 27.9293 78.7329 28.9293 77.4329 29.2293C77.2329 29.2293 77.0329 29.3293 76.7329 29.3293H75.7329C75.9329 29.3293 76.0329 29.3293 76.2329 29.3293C76.3329 29.3293 76.4329 29.3293 76.5329 29.3293C77.9329 29.0293 79.1329 28.0293 79.7329 26.4293C80.8329 23.8293 79.9329 20.6293 77.7329 19.3293C77.2329 19.0293 76.7329 18.8293 76.2329 18.8293C76.0329 18.8293 75.9329 18.8293 75.7329 18.8293H76.7329C77.4329 18.8293 78.1329 19.0293 78.7329 19.4293C78.8329 19.5293 79.0329 19.6293 79.1329 19.7293C79.4329 19.9293 79.8329 20.2293 80.0329 20.6293C81.1329 21.9293 81.4329 24.3293 80.6329 26.3293Z" fill="#C2A116"/>
<path d="M77.133 25.0292C77.133 25.3292 77.033 25.6292 76.833 25.9292C76.733 26.1292 76.533 26.2292 76.233 26.2292C76.133 26.2292 76.133 26.2292 76.033 26.2292V26.7292H75.433V26.2292C75.233 26.2292 75.133 26.1292 74.933 26.0292C74.733 25.9292 74.633 25.7292 74.533 25.5292C74.433 25.3292 74.333 25.1292 74.333 24.8292L75.133 24.7292C75.133 25.0292 75.233 25.2292 75.433 25.3292C75.533 25.6292 75.633 25.6292 75.733 25.6292C75.933 25.6292 76.033 25.5292 76.133 25.4292C76.233 25.3292 76.233 25.2292 76.233 25.1292C76.233 24.9292 76.133 24.7292 75.933 24.5292C75.733 24.4292 75.533 24.2292 75.233 23.9292C74.933 23.7292 74.733 23.5292 74.633 23.3292C74.533 23.1292 74.433 22.9292 74.433 22.6292C74.433 22.2292 74.633 21.8292 74.933 21.6292C75.033 21.5292 75.233 21.4292 75.433 21.4292V20.9292H76.033V21.4292C76.233 21.4292 76.333 21.5292 76.533 21.5292C76.733 21.6292 76.833 21.7292 76.933 21.9292C77.033 22.1292 77.133 22.2292 77.133 22.5292L76.233 22.6292C76.233 22.4292 76.133 22.2292 76.033 22.1292C75.933 22.0292 75.833 22.0292 75.733 22.0292C75.633 22.0292 75.433 22.1292 75.433 22.2292C75.333 22.3292 75.333 22.4292 75.333 22.6292C75.333 22.8292 75.433 23.0292 75.633 23.3292C75.733 23.4292 75.833 23.5292 76.033 23.6292C76.233 23.7292 76.333 23.8292 76.433 23.9292C76.633 24.1292 76.833 24.3292 76.933 24.4292C76.933 24.5292 77.033 24.6292 77.033 24.6292C77.033 24.7292 77.033 24.9292 77.133 25.0292Z" fill="#F9F122"/>
<path d="M77.6328 19.2292C77.1328 18.9292 76.6328 18.7292 76.1328 18.7292C75.9328 18.7292 75.8328 18.7292 75.6328 18.7292C74.0328 18.7292 72.4328 19.8292 71.6328 21.6292C70.8328 23.4292 71.0328 25.5292 72.0328 27.1292C72.4328 27.8292 72.9328 28.4292 73.6328 28.8292C74.0328 29.1292 74.5328 29.2292 74.9328 29.3292C75.1328 29.3292 75.3328 29.4292 75.6328 29.4292C75.8328 29.4292 75.9328 29.4292 76.1328 29.4292C76.2328 29.4292 76.3328 29.4292 76.4328 29.4292C77.8328 29.1292 79.0328 28.1292 79.6328 26.5292C80.7328 23.7292 79.8328 20.5292 77.6328 19.2292ZM78.9328 25.9292C78.3328 27.3292 77.1328 28.2292 75.9328 28.3292C75.3328 28.4292 74.6328 28.2292 74.0328 27.8292C73.5328 27.5292 73.1328 27.2292 72.8328 26.7292C71.9328 25.4292 71.6328 23.5292 72.3328 21.9292C72.4328 21.6292 72.6328 21.3292 72.8328 21.0292C73.5328 20.0292 74.5328 19.4292 75.6328 19.4292C75.7328 19.4292 75.8328 19.4292 75.8328 19.4292C75.9328 19.4292 76.1328 19.4292 76.2328 19.5292C76.4328 19.5292 76.6328 19.6292 76.8328 19.7292C76.9328 19.8292 77.0328 19.8292 77.1328 19.9292C79.1328 21.1292 79.8328 23.7292 78.9328 25.9292Z" fill="#FCF018"/>
<path d="M77.133 25.0292C77.133 25.3292 77.033 25.6292 76.833 25.9292C76.733 26.1292 76.533 26.2292 76.233 26.2292C76.133 26.2292 76.133 26.2292 76.033 26.2292V26.7292H75.433V26.2292C75.233 26.2292 75.133 26.1292 74.933 26.0292C74.733 25.9292 74.633 25.7292 74.533 25.5292C74.433 25.3292 74.333 25.1292 74.333 24.8292L75.133 24.7292C75.133 25.0292 75.233 25.2292 75.433 25.3292C75.533 25.6292 75.633 25.6292 75.733 25.6292C75.933 25.6292 76.033 25.5292 76.133 25.4292C76.233 25.3292 76.233 25.2292 76.233 25.1292C76.233 24.9292 76.133 24.7292 75.933 24.5292C75.733 24.4292 75.533 24.2292 75.233 23.9292C74.933 23.7292 74.733 23.5292 74.633 23.3292C74.533 23.1292 74.433 22.9292 74.433 22.6292C74.433 22.2292 74.633 21.8292 74.933 21.6292C75.033 21.5292 75.233 21.4292 75.433 21.4292V20.9292H76.033V21.4292C76.233 21.4292 76.333 21.5292 76.533 21.5292C76.733 21.6292 76.833 21.7292 76.933 21.9292C77.033 22.1292 77.133 22.2292 77.133 22.5292L76.233 22.6292C76.233 22.4292 76.133 22.2292 76.033 22.1292C75.933 22.0292 75.833 22.0292 75.733 22.0292C75.633 22.0292 75.433 22.1292 75.433 22.2292C75.333 22.3292 75.333 22.4292 75.333 22.6292C75.333 22.8292 75.433 23.0292 75.633 23.3292C75.733 23.4292 75.833 23.5292 76.033 23.6292C76.233 23.7292 76.333 23.8292 76.433 23.9292C76.633 24.1292 76.833 24.3292 76.933 24.4292C76.933 24.5292 77.033 24.6292 77.033 24.6292C77.033 24.7292 77.033 24.9292 77.133 25.0292Z" fill="#F9F122"/>
<path d="M77.3326 20.0293C76.9326 19.7293 76.4326 19.6293 75.9326 19.5293C74.9326 19.6293 74.0326 20.1293 73.3326 21.0293C73.1326 21.3293 73.0326 21.5293 72.8326 21.9293C72.1326 23.5293 72.4326 25.4293 73.3326 26.7293C73.6326 27.1293 74.0326 27.5293 74.5326 27.8293C75.0326 28.1293 75.4326 28.2293 75.9326 28.3293C77.1326 28.2293 78.3326 27.3293 78.9326 25.9293C79.8326 23.7293 79.1326 21.1293 77.3326 20.0293ZM76.8326 25.9293C76.7326 26.1293 76.5326 26.2293 76.2326 26.2293C76.1326 26.2293 76.1326 26.2293 76.0326 26.2293V26.7293H75.4326V26.2293C75.2326 26.2293 75.1326 26.1293 74.9326 26.0293C74.7326 25.9293 74.6326 25.7293 74.5326 25.5293C74.4326 25.3293 74.3326 25.1293 74.3326 24.8293L75.1326 24.7293C75.1326 25.0293 75.2326 25.2293 75.4326 25.3293C75.5326 25.6293 75.6326 25.6293 75.7326 25.6293C75.9326 25.6293 76.0326 25.5293 76.1326 25.4293C76.2326 25.3293 76.2326 25.2293 76.2326 25.1293C76.2326 24.9293 76.1326 24.7293 75.9326 24.5293C75.7326 24.4293 75.5326 24.2293 75.2326 23.9293C74.9326 23.7293 74.7326 23.5293 74.6326 23.3293C74.5326 23.1293 74.4326 22.9293 74.4326 22.6293C74.4326 22.2293 74.6326 21.8293 74.9326 21.6293C75.0326 21.5293 75.2326 21.4293 75.4326 21.4293V20.9293H76.0326V21.4293C76.2326 21.4293 76.3326 21.5293 76.5326 21.5293C76.7326 21.6293 76.8326 21.7293 76.9326 21.9293C77.0326 22.1293 77.1326 22.2293 77.1326 22.5293L76.2326 22.6293C76.2326 22.4293 76.1326 22.2293 76.0326 22.1293C75.9326 22.0293 75.8326 22.0293 75.7326 22.0293C75.6326 22.0293 75.4326 22.1293 75.4326 22.2293C75.3326 22.3293 75.3326 22.4293 75.3326 22.6293C75.3326 22.8293 75.4326 23.0293 75.6326 23.3293C75.7326 23.4293 75.8326 23.5293 76.0326 23.6293C76.2326 23.7293 76.3326 23.8293 76.4326 23.9293C76.6326 24.1293 76.8326 24.3293 76.9326 24.4293C76.9326 24.5293 77.0326 24.6293 77.0326 24.6293C77.1326 24.8293 77.1326 24.9293 77.1326 25.1293C77.1326 25.4293 77.0326 25.7293 76.8326 25.9293Z" fill="#F9F122"/>
<path d="M74.5327 27.8293C75.0327 28.1293 75.4327 28.2293 75.9327 28.3293C75.3327 28.4293 74.6327 28.2293 74.0327 27.8293C73.5327 27.5293 73.1327 27.1293 72.8327 26.7293C71.9327 25.4293 71.7327 23.5293 72.3327 21.9293C72.4327 21.6293 72.6327 21.3293 72.8327 21.0293C73.6327 19.9293 74.7327 19.4293 75.9327 19.5293C74.9327 19.6293 74.0327 20.1293 73.3327 21.0293C73.1327 21.3293 73.0327 21.5293 72.8327 21.9293C72.1327 23.5293 72.4327 25.4293 73.3327 26.7293C73.7327 27.2293 74.0327 27.6293 74.5327 27.8293Z" fill="#C2A116"/>
<path d="M77.133 25.0292C77.133 25.3292 77.033 25.6292 76.833 25.9292C76.733 26.1292 76.533 26.2292 76.233 26.2292C76.133 26.2292 76.133 26.2292 76.033 26.2292V26.7292H75.433V26.2292C75.233 26.2292 75.133 26.1292 74.933 26.0292C74.733 25.9292 74.633 25.7292 74.533 25.5292C74.433 25.3292 74.333 25.1292 74.333 24.8292L75.133 24.7292C75.133 25.0292 75.233 25.2292 75.433 25.3292C75.533 25.6292 75.633 25.6292 75.733 25.6292C75.933 25.6292 76.033 25.5292 76.133 25.4292C76.233 25.3292 76.233 25.2292 76.233 25.1292C76.233 24.9292 76.133 24.7292 75.933 24.5292C75.733 24.4292 75.533 24.2292 75.233 23.9292C74.933 23.7292 74.733 23.5292 74.633 23.3292C74.533 23.1292 74.433 22.9292 74.433 22.6292C74.433 22.2292 74.633 21.8292 74.933 21.6292C75.033 21.5292 75.233 21.4292 75.433 21.4292V20.9292H76.033V21.4292C76.233 21.4292 76.333 21.5292 76.533 21.5292C76.733 21.6292 76.833 21.7292 76.933 21.9292C77.033 22.1292 77.133 22.2292 77.133 22.5292L76.233 22.6292C76.233 22.4292 76.133 22.2292 76.033 22.1292C75.933 22.0292 75.833 22.0292 75.733 22.0292C75.633 22.0292 75.433 22.1292 75.433 22.2292C75.333 22.3292 75.333 22.4292 75.333 22.6292C75.333 22.8292 75.433 23.0292 75.633 23.3292C75.733 23.4292 75.833 23.5292 76.033 23.6292C76.233 23.7292 76.333 23.8292 76.433 23.9292C76.633 24.1292 76.833 24.3292 76.933 24.4292C76.933 24.5292 77.033 24.6292 77.033 24.6292C77.033 24.7292 77.033 24.9292 77.133 25.0292Z" fill="#F9F122"/>
<path d="M78.9327 25.9293C78.3327 27.3293 77.1327 28.2293 75.9327 28.3293C75.4327 28.3293 75.0327 28.1293 74.5327 27.8293C74.0327 27.5293 73.7327 27.1293 73.3327 26.7293C72.4327 25.4293 72.2327 23.5293 72.8327 21.9293C72.9327 21.6293 73.1327 21.3293 73.3327 21.0293C73.9327 20.1293 74.9327 19.5293 75.9327 19.5293C76.4327 19.5293 76.8327 19.7293 77.3327 20.0293C79.1327 21.1293 79.8327 23.7293 78.9327 25.9293Z" fill="#DFCA11"/>
<path d="M77.133 25.0292C77.133 25.3292 77.033 25.6292 76.833 25.9292C76.733 26.1292 76.533 26.2292 76.233 26.2292C76.133 26.2292 76.133 26.2292 76.033 26.2292V26.7292H75.433V26.2292C75.233 26.2292 75.133 26.1292 74.933 26.0292C74.733 25.9292 74.633 25.7292 74.533 25.5292C74.433 25.3292 74.333 25.1292 74.333 24.8292L75.133 24.7292C75.133 25.0292 75.233 25.2292 75.433 25.3292C75.533 25.6292 75.633 25.6292 75.733 25.6292C75.933 25.6292 76.033 25.5292 76.133 25.4292C76.233 25.3292 76.233 25.2292 76.233 25.1292C76.233 24.9292 76.133 24.7292 75.933 24.5292C75.733 24.4292 75.533 24.2292 75.233 23.9292C74.933 23.7292 74.733 23.5292 74.633 23.3292C74.533 23.1292 74.433 22.9292 74.433 22.6292C74.433 22.2292 74.633 21.8292 74.933 21.6292C75.033 21.5292 75.233 21.4292 75.433 21.4292V20.9292H76.033V21.4292C76.233 21.4292 76.333 21.5292 76.533 21.5292C76.733 21.6292 76.833 21.7292 76.933 21.9292C77.033 22.1292 77.133 22.2292 77.133 22.5292L76.233 22.6292C76.233 22.4292 76.133 22.2292 76.033 22.1292C75.933 22.0292 75.833 22.0292 75.733 22.0292C75.633 22.0292 75.433 22.1292 75.433 22.2292C75.333 22.3292 75.333 22.4292 75.333 22.6292C75.333 22.8292 75.433 23.0292 75.633 23.3292C75.733 23.4292 75.833 23.5292 76.033 23.6292C76.233 23.7292 76.333 23.8292 76.433 23.9292C76.633 24.1292 76.833 24.3292 76.933 24.4292C76.933 24.5292 77.033 24.6292 77.033 24.6292C77.033 24.7292 77.033 24.9292 77.133 25.0292Z" fill="#FAF418"/>
<path d="M68.6329 27.9293C68.1329 29.2293 67.1329 30.0293 66.0329 30.2293C65.8329 30.2293 65.7329 30.2293 65.5329 30.2293H64.7329C64.8329 30.2293 64.9329 30.2293 65.1329 30.2293C65.2329 30.2293 65.2329 30.2293 65.3329 30.2293C66.4329 30.0293 67.4329 29.2293 67.9329 27.9293C68.8329 25.8293 68.1329 23.2293 66.3329 22.2293C65.9329 22.0293 65.5329 21.8293 65.1329 21.8293C65.0329 21.8293 64.9329 21.8293 64.7329 21.8293H65.5329C66.0329 21.8293 66.6329 22.0293 67.1329 22.3293C67.2329 22.4293 67.4329 22.5293 67.5329 22.6293L68.0329 23.1293C69.0329 24.2293 69.3329 26.2293 68.6329 27.9293Z" fill="#C2A116"/>
<path d="M65.8328 26.8293C65.8328 27.1293 65.7328 27.3293 65.6328 27.5293C65.5328 27.6293 65.3328 27.7293 65.1328 27.8293C65.0328 27.8293 65.0328 27.8293 64.9328 27.8293V28.2293H64.4328V27.8293C64.3328 27.8293 64.1328 27.7293 64.0328 27.7293C63.9328 27.6293 63.7328 27.5293 63.7328 27.3293C63.6328 27.1293 63.6328 27.0293 63.6328 26.7293H64.2328C64.2328 26.9293 64.3328 27.1293 64.4328 27.2293C64.5328 27.3293 64.6328 27.3293 64.7328 27.3293C64.8328 27.3293 65.0328 27.2293 65.0328 27.1293C65.0328 27.0293 65.1328 27.0293 65.1328 26.8293C65.1328 26.6293 65.0328 26.5293 64.9328 26.3293C64.8328 26.2293 64.6328 26.0293 64.3328 25.8293C64.1328 25.6293 63.9328 25.4293 63.8328 25.3293C63.7328 25.1293 63.7328 25.0293 63.7328 24.8293C63.7328 24.4293 63.8328 24.2293 64.1328 24.0293C64.2328 23.9293 64.3328 23.9293 64.5328 23.9293V23.5293H65.0328V23.9293C65.1328 23.9293 65.3328 24.0293 65.4328 24.0293C65.5328 24.1293 65.6328 24.2293 65.7328 24.3293C65.8328 24.4293 65.8328 24.6293 65.8328 24.7293L65.2328 24.8293C65.2328 24.6293 65.1328 24.5293 65.0328 24.4293C64.9328 24.3293 64.9328 24.3293 64.7328 24.3293C64.6328 24.3293 64.5328 24.3293 64.4328 24.4293C64.4328 24.5293 64.3328 24.6293 64.3328 24.7293C64.3328 24.9293 64.4328 25.1293 64.6328 25.2293C64.7328 25.3293 64.8328 25.4293 64.9328 25.4293C65.1328 25.5293 65.2328 25.6293 65.2328 25.6293C65.4328 25.7293 65.5328 25.9293 65.6328 26.0293C65.6328 26.1293 65.7328 26.1293 65.7328 26.2293C65.8328 26.6293 65.8328 26.7293 65.8328 26.8293Z" fill="#F9F122"/>
<path d="M66.3328 22.1292C65.9328 21.9292 65.5328 21.7292 65.1328 21.7292C65.0328 21.7292 64.9328 21.7292 64.7328 21.7292C63.4328 21.7292 62.1328 22.6292 61.5328 24.1292C60.7328 26.0292 61.2328 28.4292 62.7328 29.5292C62.8328 29.6292 63.0328 29.7292 63.1328 29.8292C63.4328 30.0292 63.8328 30.1292 64.2328 30.2292C64.4328 30.2292 64.6328 30.2292 64.7328 30.2292C64.8328 30.2292 64.9328 30.2292 65.1328 30.2292C65.2328 30.2292 65.2328 30.2292 65.3328 30.2292C66.4328 30.0292 67.4328 29.2292 67.9328 27.9292C68.8328 25.8292 68.0328 23.2292 66.3328 22.1292ZM67.3328 27.5292C66.8328 28.7292 65.9328 29.4292 64.9328 29.4292C64.4328 29.4292 63.9328 29.3292 63.4328 29.0292C63.0328 28.8292 62.7328 28.5292 62.5328 28.1292C61.8328 27.0292 61.6328 25.5292 62.1328 24.2292C62.2328 23.9292 62.3328 23.7292 62.5328 23.5292C63.1328 22.7292 63.9328 22.3292 64.7328 22.3292C64.8328 22.3292 64.8328 22.3292 64.9328 22.3292C65.3328 22.3292 65.6328 22.4292 66.0328 22.7292C67.5328 23.7292 68.0328 25.8292 67.3328 27.5292Z" fill="#FCF018"/>
<path d="M65.8328 26.8293C65.8328 27.1293 65.7328 27.3293 65.6328 27.5293C65.5328 27.6293 65.3328 27.7293 65.1328 27.8293C65.0328 27.8293 65.0328 27.8293 64.9328 27.8293V28.2293H64.4328V27.8293C64.3328 27.8293 64.1328 27.7293 64.0328 27.7293C63.9328 27.6293 63.7328 27.5293 63.7328 27.3293C63.6328 27.1293 63.6328 27.0293 63.6328 26.7293H64.2328C64.2328 26.9293 64.3328 27.1293 64.4328 27.2293C64.5328 27.3293 64.6328 27.3293 64.7328 27.3293C64.8328 27.3293 65.0328 27.2293 65.0328 27.1293C65.0328 27.0293 65.1328 27.0293 65.1328 26.8293C65.1328 26.6293 65.0328 26.5293 64.9328 26.3293C64.8328 26.2293 64.6328 26.0293 64.3328 25.8293C64.1328 25.6293 63.9328 25.4293 63.8328 25.3293C63.7328 25.1293 63.7328 25.0293 63.7328 24.8293C63.7328 24.4293 63.8328 24.2293 64.1328 24.0293C64.2328 23.9293 64.3328 23.9293 64.5328 23.9293V23.5293H65.0328V23.9293C65.1328 23.9293 65.3328 24.0293 65.4328 24.0293C65.5328 24.1293 65.6328 24.2293 65.7328 24.3293C65.8328 24.4293 65.8328 24.6293 65.8328 24.7293L65.2328 24.8293C65.2328 24.6293 65.1328 24.5293 65.0328 24.4293C64.9328 24.3293 64.9328 24.3293 64.7328 24.3293C64.6328 24.3293 64.5328 24.3293 64.4328 24.4293C64.4328 24.5293 64.3328 24.6293 64.3328 24.7293C64.3328 24.9293 64.4328 25.1293 64.6328 25.2293C64.7328 25.3293 64.8328 25.4293 64.9328 25.4293C65.1328 25.5293 65.2328 25.6293 65.2328 25.6293C65.4328 25.7293 65.5328 25.9293 65.6328 26.0293C65.6328 26.1293 65.7328 26.1293 65.7328 26.2293C65.8328 26.6293 65.8328 26.7293 65.8328 26.8293Z" fill="#F9F122"/>
<path d="M66.0326 22.8292C65.6326 22.6292 65.3326 22.5292 64.9326 22.4292C64.1326 22.5292 63.4326 22.9292 62.8326 23.6292C62.7326 23.8292 62.5326 24.0292 62.4326 24.3292C61.9326 25.6292 62.0326 27.1292 62.8326 28.2292C63.1326 28.6292 63.4326 28.9292 63.7326 29.1292C64.1326 29.3292 64.4326 29.4292 64.8326 29.5292C65.8326 29.4292 66.7326 28.7292 67.2326 27.6292C68.0326 25.8292 67.5326 23.7292 66.0326 22.8292ZM65.6326 27.5292C65.5326 27.6292 65.3326 27.7292 65.1326 27.8292C65.0326 27.8292 65.0326 27.8292 64.9326 27.8292V28.2292H64.4326V27.8292C64.3326 27.8292 64.1326 27.7292 64.0326 27.7292C63.9326 27.6292 63.7326 27.5292 63.7326 27.3292C63.6326 27.1292 63.6326 27.0292 63.6326 26.7292H64.2326C64.2326 26.9292 64.3326 27.1292 64.4326 27.2292C64.5326 27.3292 64.6326 27.3292 64.7326 27.3292C64.8326 27.3292 65.0326 27.2292 65.0326 27.1292C65.0326 27.0292 65.1326 27.0292 65.1326 26.8292C65.1326 26.6292 65.0326 26.5292 64.9326 26.3292C64.8326 26.2292 64.6326 26.0292 64.3326 25.8292C64.1326 25.6292 63.9326 25.4292 63.8326 25.3292C63.7326 25.1292 63.7326 25.0292 63.7326 24.8292C63.7326 24.4292 63.8326 24.2292 64.1326 24.0292C64.2326 23.9292 64.3326 23.9292 64.5326 23.9292V23.5292H65.0326V23.9292C65.1326 23.9292 65.3326 24.0292 65.4326 24.0292C65.5326 24.1292 65.6326 24.2292 65.7326 24.3292C65.8326 24.4292 65.8326 24.6292 65.8326 24.7292L65.2326 24.8292C65.2326 24.6292 65.1326 24.5292 65.0326 24.4292C64.9326 24.3292 64.9326 24.3292 64.7326 24.3292C64.6326 24.3292 64.5326 24.3292 64.4326 24.4292C64.4326 24.5292 64.3326 24.6292 64.3326 24.7292C64.3326 24.9292 64.4326 25.1292 64.6326 25.2292C64.7326 25.3292 64.8326 25.4292 64.9326 25.4292C65.1326 25.5292 65.2326 25.6292 65.2326 25.6292C65.4326 25.7292 65.5326 25.9292 65.6326 26.0292C65.6326 26.1292 65.7326 26.1292 65.7326 26.2292C65.8326 26.3292 65.8326 26.5292 65.8326 26.6292C65.8326 27.1292 65.7326 27.4292 65.6326 27.5292Z" fill="#F9F122"/>
<path d="M63.8327 29.1293C64.2327 29.3293 64.5327 29.4293 64.9327 29.5293C64.4327 29.5293 63.9327 29.4293 63.4327 29.1293C63.0327 28.9293 62.7327 28.6293 62.5327 28.2293C61.8327 27.2293 61.6327 25.6293 62.1327 24.3293C62.2327 24.0293 62.3327 23.8293 62.5327 23.6293C63.1327 22.7293 64.0327 22.3293 65.0327 22.4293C64.2327 22.5293 63.5327 22.9293 62.9327 23.6293C62.8327 23.8293 62.6327 24.0293 62.5327 24.3293C62.0327 25.6293 62.1327 27.1293 62.9327 28.2293C63.1327 28.6293 63.4327 28.9293 63.8327 29.1293Z" fill="#C2A116"/>
<path d="M65.8328 26.8293C65.8328 27.1293 65.7328 27.3293 65.6328 27.5293C65.5328 27.6293 65.3328 27.7293 65.1328 27.8293C65.0328 27.8293 65.0328 27.8293 64.9328 27.8293V28.2293H64.4328V27.8293C64.3328 27.8293 64.1328 27.7293 64.0328 27.7293C63.9328 27.6293 63.7328 27.5293 63.7328 27.3293C63.6328 27.1293 63.6328 27.0293 63.6328 26.7293H64.2328C64.2328 26.9293 64.3328 27.1293 64.4328 27.2293C64.5328 27.3293 64.6328 27.3293 64.7328 27.3293C64.8328 27.3293 65.0328 27.2293 65.0328 27.1293C65.0328 27.0293 65.1328 27.0293 65.1328 26.8293C65.1328 26.6293 65.0328 26.5293 64.9328 26.3293C64.8328 26.2293 64.6328 26.0293 64.3328 25.8293C64.1328 25.6293 63.9328 25.4293 63.8328 25.3293C63.7328 25.1293 63.7328 25.0293 63.7328 24.8293C63.7328 24.4293 63.8328 24.2293 64.1328 24.0293C64.2328 23.9293 64.3328 23.9293 64.5328 23.9293V23.5293H65.0328V23.9293C65.1328 23.9293 65.3328 24.0293 65.4328 24.0293C65.5328 24.1293 65.6328 24.2293 65.7328 24.3293C65.8328 24.4293 65.8328 24.6293 65.8328 24.7293L65.2328 24.8293C65.2328 24.6293 65.1328 24.5293 65.0328 24.4293C64.9328 24.3293 64.9328 24.3293 64.7328 24.3293C64.6328 24.3293 64.5328 24.3293 64.4328 24.4293C64.4328 24.5293 64.3328 24.6293 64.3328 24.7293C64.3328 24.9293 64.4328 25.1293 64.6328 25.2293C64.7328 25.3293 64.8328 25.4293 64.9328 25.4293C65.1328 25.5293 65.2328 25.6293 65.2328 25.6293C65.4328 25.7293 65.5328 25.9293 65.6328 26.0293C65.6328 26.1293 65.7328 26.1293 65.7328 26.2293C65.8328 26.6293 65.8328 26.7293 65.8328 26.8293Z" fill="#F9F122"/>
<path d="M67.3326 27.6292C66.8326 28.8292 65.9326 29.4292 64.9326 29.5292C64.5326 29.5292 64.1326 29.3292 63.8326 29.1292C63.4326 28.9292 63.1326 28.6292 62.9326 28.2292C62.2326 27.2292 62.0326 25.6292 62.5326 24.3292C62.6326 24.0292 62.7326 23.8292 62.9326 23.6292C63.4326 22.9292 64.2326 22.4292 65.0326 22.4292C65.4326 22.4292 65.8326 22.5292 66.1326 22.8292C67.5326 23.7292 68.0326 25.8292 67.3326 27.6292Z" fill="#DFCA11"/>
<path d="M65.8328 26.8293C65.8328 27.1293 65.7328 27.3293 65.6328 27.5293C65.5328 27.6293 65.3328 27.7293 65.1328 27.8293C65.0328 27.8293 65.0328 27.8293 64.9328 27.8293V28.2293H64.4328V27.8293C64.3328 27.8293 64.1328 27.7293 64.0328 27.7293C63.9328 27.6293 63.7328 27.5293 63.7328 27.3293C63.6328 27.1293 63.6328 27.0293 63.6328 26.7293H64.2328C64.2328 26.9293 64.3328 27.1293 64.4328 27.2293C64.5328 27.3293 64.6328 27.3293 64.7328 27.3293C64.8328 27.3293 65.0328 27.2293 65.0328 27.1293C65.0328 27.0293 65.1328 27.0293 65.1328 26.8293C65.1328 26.6293 65.0328 26.5293 64.9328 26.3293C64.8328 26.2293 64.6328 26.0293 64.3328 25.8293C64.1328 25.6293 63.9328 25.4293 63.8328 25.3293C63.7328 25.1293 63.7328 25.0293 63.7328 24.8293C63.7328 24.4293 63.8328 24.2293 64.1328 24.0293C64.2328 23.9293 64.3328 23.9293 64.5328 23.9293V23.5293H65.0328V23.9293C65.1328 23.9293 65.3328 24.0293 65.4328 24.0293C65.5328 24.1293 65.6328 24.2293 65.7328 24.3293C65.8328 24.4293 65.8328 24.6293 65.8328 24.7293L65.2328 24.8293C65.2328 24.6293 65.1328 24.5293 65.0328 24.4293C64.9328 24.3293 64.9328 24.3293 64.7328 24.3293C64.6328 24.3293 64.5328 24.3293 64.4328 24.4293C64.4328 24.5293 64.3328 24.6293 64.3328 24.7293C64.3328 24.9293 64.4328 25.1293 64.6328 25.2293C64.7328 25.3293 64.8328 25.4293 64.9328 25.4293C65.1328 25.5293 65.2328 25.6293 65.2328 25.6293C65.4328 25.7293 65.5328 25.9293 65.6328 26.0293C65.6328 26.1293 65.7328 26.1293 65.7328 26.2293C65.8328 26.6293 65.8328 26.7293 65.8328 26.8293Z" fill="#FAF418"/>
<path d="M60.2326 50.7293L50.9326 59.5293V50.5293L60.2326 50.7293Z" fill="white"/>
<path opacity="0.42" d="M92.7326 50.7292V53.4292H61.9326L52.6326 62.2292L50.9326 59.5293L60.2326 50.7292H92.7326Z" fill="#7A8494"/>
<path opacity="0.42" d="M50.9327 50.7292V53.4292H48.7327L47.0327 50.7292H50.9327Z" fill="#7A8494"/>
</svg>
