<svg width="117" height="109" viewBox="0 0 117 109" fill="none" xmlns="http://www.w3.org/2000/svg">
<path d="M12.6001 57.4C12.6001 85.8 35.6001 108.8 64.0001 108.8C92.4001 108.8 115.4 85.8 115.4 57.4C115.4 29 92.4001 6 64.0001 6C35.6001 6 12.6001 29 12.6001 57.4Z" fill="#01968B"/>
<path d="M91.8 15.4C91.8 13.4 93.1 11.8 94.9 11.2C94.5 9.9 94 8.6 93.3 7.4C91.7 8.3 89.6 8.1 88.2 6.7C88.1 6.6 87.9 6.4 87.8 6.3C87.9 6.4 88 6.5 88.1 6.6C86.8 5.2 86.6 3.2 87.5 1.6C86.3 0.9 85.1 0.4 83.7 0C83.2 1.8 81.5 3.1 79.5 3.1C77.5 3.1 75.9 1.8 75.3 0C74 0.4 72.7 0.9 71.5 1.6C72.4 3.2 72.2 5.3 70.8 6.7C70.9 6.6 71 6.5 71.2 6.4C71.1 6.5 70.9 6.7 70.8 6.8L70.7 6.9C69.3 8.2 67.2 8.5 65.6 7.6C64.9 8.8 64.4 10.1 64 11.4C65.8 11.9 67.1 13.6 67.1 15.6C67.1 17.6 65.8 19.2 64 19.7C64.4 21 64.9 22.3 65.6 23.5C67.2 22.6 69.3 22.8 70.7 24.2C72.1 25.6 72.3 27.7 71.4 29.3C72.6 30 73.9 30.5 75.2 30.9C75.7 29.1 77.3 27.9 79.2 27.8H79.5C81.4 27.9 83 29.2 83.5 30.9C84.8 30.5 86.1 30 87.3 29.3C86.4 27.7 86.6 25.6 88 24.2L88.1 24.1C89.5 22.7 91.6 22.5 93.2 23.4C93.9 22.2 94.4 20.9 94.8 19.6C93.1 19 91.8 17.4 91.8 15.4ZM79.6 21.1C76.5 21.1 73.9 18.6 73.9 15.4C73.9 12.3 76.4 9.7 79.6 9.7C82.7 9.7 85.3 12.2 85.3 15.4C85.2 18.5 82.7 21.1 79.6 21.1Z" fill="#7ECED2"/>
<path d="M79.5999 9.80005C76.4999 9.80005 73.8999 12.3 73.8999 15.5C73.8999 18.6 76.3999 21.2001 79.5999 21.2001C82.6999 21.2001 85.2999 18.7 85.2999 15.5C85.1999 12.3 82.6999 9.80005 79.5999 9.80005ZM79.5999 19.7001C77.1999 19.7001 75.2999 17.8 75.2999 15.4C75.2999 13 77.1999 11.1 79.5999 11.1C81.9999 11.1 83.8999 13 83.8999 15.4C83.8999 17.8 81.9999 19.7001 79.5999 19.7001Z" fill="#F2F2F2"/>
<path d="M88.0999 6.60005C87.9999 6.50005 87.8999 6.40005 87.7999 6.30005C87.8999 6.40005 88.0999 6.60005 88.0999 6.60005C88.1999 6.70005 88.1999 6.70005 88.0999 6.60005ZM79.3999 27.7001C79.4999 27.7001 79.4999 27.7001 79.5999 27.7001C79.6999 27.7001 79.6999 27.7001 79.7999 27.7001H79.3999ZM70.9999 6.70005C70.8999 6.70005 70.8999 6.70005 70.9999 6.70005C71.0999 6.60005 71.1999 6.50005 71.3999 6.40005C71.1999 6.40005 71.0999 6.60005 70.9999 6.70005ZM70.8999 6.70005C70.8999 6.80005 70.7999 6.80005 70.8999 6.70005C70.7999 6.80005 70.8999 6.80005 70.8999 6.70005Z" fill="#BBC2C3"/>
<path d="M88.2998 6.79995C88.1998 6.69995 88.1998 6.69995 88.2998 6.79995C85.9998 4.49995 82.9998 3.19995 79.5998 3.19995C76.1998 3.19995 73.1998 4.59995 70.8998 6.79995C68.6998 8.99995 67.2998 12.1 67.2998 15.5C67.2998 18.9 68.6998 21.8999 70.8998 24.0999C73.0998 26.2999 76.1998 27.7 79.4998 27.7C82.8998 27.7 85.8998 26.3 88.0998 24.2C90.2998 22 91.5998 18.9 91.5998 15.6C91.7998 12 90.4998 8.99995 88.2998 6.79995ZM79.5998 24.4C74.5998 24.4 70.5998 20.4 70.5998 15.4C70.5998 10.4 74.5998 6.39995 79.5998 6.39995C84.5998 6.39995 88.5998 10.4 88.5998 15.4C88.4998 20.4 84.4998 24.4 79.5998 24.4Z" fill="#37B2C5"/>
<path d="M79.5999 9.80005C76.4999 9.80005 73.8999 12.3 73.8999 15.5C73.8999 18.6 76.3999 21.2001 79.5999 21.2001C82.6999 21.2001 85.2999 18.7 85.2999 15.5C85.1999 12.3 82.6999 9.80005 79.5999 9.80005ZM79.5999 19.7001C77.1999 19.7001 75.2999 17.8 75.2999 15.4C75.2999 13 77.1999 11.1 79.5999 11.1C81.9999 11.1 83.8999 13 83.8999 15.4C83.8999 17.8 81.9999 19.7001 79.5999 19.7001Z" fill="#EAF0F1"/>
<path d="M81.2 97.8C81.2 96.6 82 95.7 83 95.4C82.8 94.6 82.5 93.9 82.1 93.2C81.1 93.7 79.9 93.6 79.1 92.8C79 92.7 78.9 92.6 78.9 92.6C79 92.7 79 92.7 79.1 92.8C78.3 92 78.2 90.8 78.7 89.9C78 89.5 77.3 89.2 76.5 89C76.2 90.1 75.2 90.8 74.1 90.8C72.9 90.8 72 90 71.7 89C70.9 89.2 70.2 89.5 69.5 89.9C70 90.8 69.9 92.1 69.1 92.9C69.2 92.8 69.2 92.8 69.3 92.7C69.2 92.8 69.1 92.9 69.1 92.9C68.3 93.7 67.1 93.8 66.1 93.3C65.7 94 65.4 94.7 65.2 95.5C66.3 95.8 67 96.8 67 97.9C66.8 98.9 66 99.9 65 100.2C65.2 101 65.5 101.7 65.9 102.4C66.9 101.9 68.1 102 68.9 102.8C69.7 103.6 69.8 104.8 69.3 105.8C70 106.2 70.7 106.5 71.5 106.7C71.8 105.7 72.7 104.9 73.8 104.9H74C75.1 104.9 76 105.7 76.3 106.7C77.1 106.5 77.8 106.2 78.5 105.8C78 104.9 78.1 103.6 78.9 102.8L79 102.7C79.8 101.9 81 101.8 82 102.3C82.4 101.6 82.7 100.9 82.9 100.1C82 99.9 81.2 98.9 81.2 97.8ZM74 101.1C72.2 101.1 70.7 99.6 70.7 97.8C70.7 96 72.2 94.5 74 94.5C75.8 94.5 77.3 96 77.3 97.8C77.3 99.6 75.8 101.1 74 101.1Z" fill="#E6F5F9"/>
<path d="M74.0002 94.3999C72.2002 94.3999 70.7002 95.8999 70.7002 97.6999C70.7002 99.4999 72.2002 101 74.0002 101C75.8002 101 77.3002 99.4999 77.3002 97.6999C77.3002 95.8999 75.8002 94.3999 74.0002 94.3999ZM74.0002 100.3C72.6002 100.3 71.5002 99.1999 71.5002 97.7999C71.5002 96.3999 72.6002 95.2999 74.0002 95.2999C75.4002 95.2999 76.5002 96.3999 76.5002 97.7999C76.5002 99.0999 75.4002 100.3 74.0002 100.3Z" fill="#F2F2F2"/>
<path d="M78.9999 92.5999C78.8999 92.4999 78.8999 92.4999 78.7999 92.3999C78.8999 92.4999 78.9999 92.5999 78.9999 92.5999ZM73.8999 104.9C73.8999 104.9 73.9999 104.9 73.8999 104.9C73.9999 104.9 74.0999 104.9 74.0999 104.9H73.8999ZM68.8999 92.5999C68.8999 92.5999 68.9999 92.4999 69.0999 92.3999C69.0999 92.4999 68.9999 92.5999 68.8999 92.5999Z" fill="#BBC2C3"/>
<path d="M79.0998 92.7001C79.0998 92.7001 79.0998 92.6001 79.0998 92.7001C77.7998 91.4001 75.9998 90.6001 73.9998 90.6001C71.9998 90.6001 70.1998 91.4001 68.8998 92.7001C67.5998 94.0001 66.7998 95.8001 66.7998 97.8001C66.7998 99.8001 67.5998 101.6 68.8998 102.9C70.1998 104.1 71.9998 104.9 73.9998 104.9C75.9998 104.9 77.7998 104.1 79.0998 102.8C80.3998 101.5 81.1998 99.7001 81.1998 97.7001C81.1998 95.8001 80.3998 94.0001 79.0998 92.7001ZM73.9998 103C71.0998 103 68.6998 100.6 68.6998 97.7001C68.6998 94.8001 71.0998 92.4001 73.9998 92.4001C76.8998 92.4001 79.2998 94.8001 79.2998 97.7001C79.2998 100.7 76.8998 103 73.9998 103Z" fill="#C5E9F2"/>
<path d="M74.0002 94.3999C72.2002 94.3999 70.7002 95.8999 70.7002 97.6999C70.7002 99.4999 72.2002 101 74.0002 101C75.8002 101 77.3002 99.4999 77.3002 97.6999C77.3002 95.8999 75.8002 94.3999 74.0002 94.3999ZM74.0002 100.3C72.6002 100.3 71.5002 99.1999 71.5002 97.7999C71.5002 96.3999 72.6002 95.2999 74.0002 95.2999C75.4002 95.2999 76.5002 96.3999 76.5002 97.7999C76.5002 99.0999 75.4002 100.3 74.0002 100.3Z" fill="#C5E9F2"/>
<path d="M30.7 58.9C30.7 56.7 32.2 54.9 34.2 54.3C33.8 52.8 33.2 51.4 32.5 50.1C30.7 51.1 28.4 50.8 26.8 49.3C26.7 49.2 26.5 49 26.3 48.9C26.4 49 26.6 49.1 26.7 49.3C25.3 47.8 25 45.5 26 43.7C24.7 42.9 23.3 42.4 21.8 42C21.2 44 19.4 45.5 17.2 45.5C15 45.5 13.2 44 12.6 42C11.1 42.4 9.7 43 8.4 43.7C9.4 45.5 9.2 47.8 7.7 49.3C7.8 49.2 8 49 8.1 48.9C8 49 7.8 49.2 7.6 49.3L7.5 49.4C5.9 50.9 3.7 51.1 1.9 50.1C1 51.4 0.4 52.8 0 54.3C2 54.9 3.5 56.7 3.5 58.9C3.5 61.1 2 62.9 0 63.5C0.4 65 1 66.4 1.7 67.7C3.5 66.7 5.8 67 7.4 68.5C8.9 70 9.2 72.4 8.2 74.2C9.5 75 10.9 75.5 12.4 75.9C13 74 14.7 72.5 16.8 72.4H17.2C19.3 72.5 21.1 73.9 21.6 75.9C23.1 75.5 24.5 74.9 25.8 74.2C24.8 72.4 25.1 70.1 26.6 68.6L26.7 68.5C28.2 67 30.5 66.8 32.3 67.7C33.1 66.4 33.6 65 34 63.5C32.1 62.9 30.7 61.1 30.7 58.9ZM17.1 65.2C13.6 65.2 10.8 62.4 10.8 58.9C10.8 55.4 13.6 52.6 17.1 52.6C20.6 52.6 23.4 55.4 23.4 58.9C23.3 62.3 20.5 65.2 17.1 65.2Z" fill="#9CD9D8"/>
<path d="M17.0998 52.6001C13.5998 52.6001 10.7998 55.4001 10.7998 58.9001C10.7998 62.4001 13.5998 65.2001 17.0998 65.2001C20.5998 65.2001 23.3998 62.4001 23.3998 58.9001C23.2998 55.4001 20.4998 52.6001 17.0998 52.6001ZM17.0998 63.7001C14.4998 63.7001 12.2998 61.6001 12.2998 58.9001C12.2998 56.2001 14.3998 54.1001 17.0998 54.1001C19.7998 54.1001 21.8998 56.2001 21.8998 58.9001C21.7998 61.5001 19.6998 63.7001 17.0998 63.7001Z" fill="#F2F2F2"/>
<path d="M26.6 49.1C26.5 49 26.3 48.9 26.2 48.7C26.3 48.9 26.5 49.1 26.6 49.1C26.6 49.2 26.6 49.2 26.6 49.1ZM16.9 72.5C17 72.5 17 72.5 17.1 72.5C17.2 72.5 17.2 72.5 17.3 72.5H16.9ZM7.5 49.2C7.6 49.1 7.7 48.9999 7.9 48.7999C7.8 48.8999 7.6 49.1 7.5 49.2Z" fill="#BBC2C3"/>
<path d="M26.7 49.3C26.7 49.3 26.6 49.2 26.7 49.3C24.2 46.8 20.8 45.3 17.1 45.3C13.3 45.3 9.9 46.8 7.5 49.3C5 51.8 3.5 55.2001 3.5 58.9001C3.5 62.6001 5 66 7.4 68.5C9.9 70.9 13.2 72.5001 17 72.5001C20.7 72.5001 24.1 71.0001 26.6 68.6001C29 66.1001 30.5 62.8 30.5 59C30.7 55.1 29.1 51.8 26.7 49.3ZM17.1 68.8C11.6 68.8 7.1 64.3 7.1 58.8C7.1 53.3 11.6 48.8 17.1 48.8C22.6 48.8 27.1 53.3 27.1 58.8C27 64.4 22.6 68.8 17.1 68.8Z" fill="#79CCD1"/>
<path d="M17.0998 52.6001C13.5998 52.6001 10.7998 55.4001 10.7998 58.9001C10.7998 62.4001 13.5998 65.2001 17.0998 65.2001C20.5998 65.2001 23.3998 62.4001 23.3998 58.9001C23.2998 55.4001 20.4998 52.6001 17.0998 52.6001ZM17.0998 63.7001C14.4998 63.7001 12.2998 61.6001 12.2998 58.9001C12.2998 56.2001 14.3998 54.1001 17.0998 54.1001C19.7998 54.1001 21.8998 56.2001 21.8998 58.9001C21.7998 61.5001 19.6998 63.7001 17.0998 63.7001Z" fill="#EAF0F1"/>
<path d="M101.2 77.0001C101.2 78.1001 100.2 79.0001 98.9999 79.0001H27.5999C26.3999 79.0001 25.3999 78.1001 25.3999 77.0001V34.6001C25.3999 33.5001 26.3999 32.6001 27.5999 32.6001H98.9999C100.2 32.6001 101.2 33.5001 101.2 34.6001V77.0001Z" fill="#534B64"/>
<path d="M98.0001 36.5H28.6001V75H98.0001V36.5Z" fill="#CCD5D8"/>
<path d="M73.7999 52.0999L73.1999 51.7L65.3999 46.2C61.9999 51 64.9999 54.3 64.2999 55.4C63.4999 56.5 59.1999 54.9 55.8999 59.5L60.0999 62.5L64.2999 65.5C67.5999 60.9 64.6999 57.3999 65.4999 56.2999C66.1999 55.0999 70.3999 56.8999 73.7999 52.0999ZM60.7999 61.5L57.6999 59.2999C59.7999 59.3999 60.4999 59.1 61.3999 59C61.8999 59 62.2999 58.8999 62.6999 58.7999C62.6999 58.7999 62.6999 58.7999 62.7999 58.7999C62.7999 59.1999 62.8999 59.7 62.9999 60.2C63.1999 61.1 63.1999 62.1 63.7999 63.7L60.7999 61.5ZM65.2999 49.0999L68.0999 51.0999L70.9999 53.0999C69.5999 54.1999 68.1999 54.3 66.9999 54.4C66.4999 54.4 66.0999 54.4999 65.6999 54.5999C65.6999 54.1999 65.5999 53.6999 65.3999 53.2999C65.0999 52.0999 64.7999 50.7999 65.2999 49.0999Z" fill="#FFFFF4"/>
<path opacity="0.97" d="M70.9997 53.0999C69.5997 54.1999 68.1997 54.2999 66.9997 54.3999C66.4997 54.3999 66.0997 54.4999 65.6997 54.5999C65.6997 54.1999 65.5997 53.6999 65.3997 53.2999C65.0997 52.0999 64.7996 50.7999 65.2996 49.0999L68.0996 51.0999L70.9997 53.0999Z" fill="#FDC072"/>
<path opacity="0.97" d="M63.8997 63.5999L60.7997 61.4L57.6997 59.2C59.7997 59.3 60.4997 59 61.3997 58.9C61.8997 58.9 62.2997 58.8 62.6997 58.7C62.6997 58.7 62.6997 58.7 62.7997 58.7C62.7997 59.1 62.8997 59.5999 62.9997 60.0999C63.2997 60.9999 63.2997 61.9999 63.8997 63.5999Z" fill="#FDC072"/>
<path d="M75.1996 51.3999L74.4996 52.2999C74.3996 52.3999 74.1996 52.3999 73.8996 52.2999L73.6996 52.0999L73.0996 51.6999L69.4996 49.1999L65.2996 46.1999L65.0996 45.9999C64.8996 45.7999 64.7996 45.5999 64.8996 45.4999L65.5996 44.5999C65.6996 44.4999 65.8996 44.4999 66.1996 44.5999L70.5996 47.7999L75.0996 50.9999C75.1996 51.0999 75.2996 51.2999 75.1996 51.3999Z" fill="#FC6237"/>
<path d="M64.6996 66.1999L63.9996 67.0999C63.8996 67.1999 63.6996 67.1999 63.4996 67.0999L58.9996 63.8999L54.5996 60.6999C54.3996 60.5999 54.2996 60.2999 54.3996 60.1999L55.0996 59.2999C55.1996 59.1999 55.3996 59.1999 55.6996 59.2999L55.8996 59.4999L60.0996 62.4999L64.2996 65.4999L64.5996 65.6999C64.6996 65.7999 64.7996 65.9999 64.6996 66.1999Z" fill="#FC6237"/>
<path d="M84.0997 54.5L82.4997 57.5L81.3997 59.6L80.8997 60.5L79.5997 58.3L78.9997 57.6L77.1997 54.7L79.6997 54.6C79.2997 48.5 75.0997 43 68.8997 41.2C61.3997 39 53.5997 42.8 50.5997 49.8L48.6997 49C52.0997 41 60.9997 36.7 69.4997 39.3C76.5997 41.4 81.2997 47.7 81.6997 54.6L84.0997 54.5Z" fill="#11787F"/>
<path d="M45.2998 57.0999L46.9998 54.0999L48.0998 51.9999L48.5998 51.0999L49.8998 53.2999L50.3998 54.0999L52.1998 57.0999L49.6998 56.9999C50.0998 63.0999 54.2998 68.5999 60.4998 70.3999C67.9998 72.5999 75.7998 68.7999 78.7998 61.7999L80.6998 62.5999C77.2998 70.5999 68.3998 74.8999 59.8998 72.2999C52.7998 70.1999 48.0998 63.8999 47.6998 56.9999L45.2998 57.0999Z" fill="#FC7649"/>
<path d="M105.4 87.1001C105.4 89.4001 103.7 91.3001 101.6 91.3001H25.0002C22.9002 91.3001 21.2002 89.4001 21.2002 87.1001H105.4Z" fill="#5A99A8"/>
<path d="M105.4 87.1H21.2002L25.4002 79H101.2L105.4 87.1Z" fill="#79CDE1"/>
<path d="M76 86.4001C65 86.4001 59.5 86.4001 48.5 86.4001C49.1 85.1001 49.4 84.4001 50.1 83.1001C59.9 83.1001 64.8 83.1001 74.5 83.1001C75.1 84.4001 75.4 85.0001 76 86.4001Z" fill="#C2E8F1"/>
<path opacity="0.42" d="M101.2 61.2V77C101.2 78.1 100.2 79 99.0998 79H90.0998L86.5998 75.5L80.7998 69.7H84.8998V68.4H83.5998V61.2H101.2Z" fill="#7A8494"/>
<path opacity="0.42" d="M101.2 57.8999H83.6001V60.2999H101.2V57.8999Z" fill="#7A8494"/>
<path opacity="0.42" d="M82.1001 57.9V67.7999L70.6001 56.2H80.7001V57.9H82.1001Z" fill="#7A8494"/>
</svg>
