<svg width="70" height="71" viewBox="0 0 70 71" fill="none" xmlns="http://www.w3.org/2000/svg">
<path opacity="0.4" d="M35 71C54.33 71 70 55.1061 70 35.5C70 15.8939 54.33 0 35 0C15.67 0 0 15.8939 0 35.5C0 55.1061 15.67 71 35 71Z" fill="#58B58B"/>
<path d="M49.5053 48.6021C40.9176 48.6021 36.0826 44.4299 35.4331 43.7712V10.3939C35.4331 10.3939 40.4847 15.298 49.5053 15.298C58.5259 15.298 60.0414 9.14954 67.763 9.14954V42.5269C60.1857 42.6732 58.5981 48.6021 49.5053 48.6021Z" fill="#3C4646"/>
<path d="M49.4329 21.9588C51.9587 21.9588 53.835 21.5196 55.4948 20.8608V14.1268C53.835 14.7856 51.9587 15.2248 49.5051 15.2248C48.5669 15.2248 47.7009 15.1516 46.835 15.0784V21.7392C47.7009 21.8856 48.5669 21.9588 49.4329 21.9588Z" fill="white"/>
<path d="M40.1238 20.129V13.3218C37.0929 11.931 35.4331 10.3939 35.4331 10.3939V17.4207C36.1548 18.0063 37.7424 19.1774 40.1238 20.129Z" fill="white"/>
<path d="M67.7629 15.8104V9.14954C65.5257 9.14954 63.7938 9.66191 62.2783 10.3939V17.2743C63.8659 16.4691 65.5257 15.9568 67.7629 15.8104Z" fill="white"/>
<path d="M49.4329 35.4269C51.9587 35.4269 53.835 34.9878 55.4948 34.329V27.595C53.835 28.2537 51.9587 28.6929 49.5051 28.6929C48.5669 28.6929 47.7009 28.6197 46.835 28.5465V35.2073C47.7009 35.3537 48.5669 35.4269 49.4329 35.4269Z" fill="white"/>
<path d="M40.1238 33.597V26.7898C37.0929 25.3991 35.4331 23.8619 35.4331 23.8619V30.8887C36.1548 31.5475 37.7424 32.6454 40.1238 33.597Z" fill="white"/>
<path d="M67.7629 29.3516V22.6908C65.5257 22.6908 63.7938 23.2032 62.2783 23.9351V30.7423C63.8659 30.0104 65.5257 29.4248 67.7629 29.3516Z" fill="white"/>
<path d="M49.4329 48.6753C51.9587 48.6753 53.835 48.2362 55.4948 47.5774V40.8434C53.835 41.5021 51.9587 41.9413 49.5051 41.9413C48.5669 41.9413 47.7009 41.8681 46.835 41.7949V48.4558C47.7009 48.6021 48.5669 48.6753 49.4329 48.6753Z" fill="white"/>
<path d="M40.1238 46.6992V39.6723C37.0929 38.2816 35.4331 36.7445 35.4331 36.7445V43.7713C36.1548 44.4301 37.7424 45.7476 40.1238 46.6992Z" fill="white"/>
<path d="M67.7629 42.5269V35.8661C65.5257 35.8661 63.7938 36.3785 62.2783 37.1104V43.9176C63.8659 43.1857 65.5257 42.6001 67.7629 42.5269Z" fill="white"/>
<path d="M55.4951 20.7145L62.3508 17.2743V23.9351L55.4951 27.7413V20.7145Z" fill="white"/>
<path d="M55.4951 33.9629L62.3508 30.5227V37.1835L55.4951 40.9897V33.9629Z" fill="white"/>
<path d="M46.9074 21.7392L40.0518 20.0557V26.7165L46.9074 28.766V21.7392Z" fill="white"/>
<path d="M46.9074 34.9877L40.0518 33.4506V40.1114L46.9074 42.0145V34.9877Z" fill="white"/>
<path opacity="0.5" d="M43.0825 14.4197C38.1031 13.029 35.3608 10.3939 35.3608 10.3939V43.8444C35.866 44.2836 38.3196 46.5527 43.0825 47.797V14.4197Z" fill="#3C4646"/>
<path d="M35.4331 43.8444C35.4331 43.8444 40.8455 44.7227 40.8455 40.6238C40.8455 36.964 35.4331 35.5732 35.4331 35.5732V43.8444Z" fill="#3C4646"/>
<path d="M26.7734 0.585571C31.6806 0.585571 35.2888 1.97629 37.6703 3.22062C39.6187 4.24537 40.8455 6.29485 40.8455 8.49073V38.7938C40.8455 38.7938 35.794 33.8897 26.7734 33.8897C17.7527 33.8897 16.2373 40.0382 8.51562 40.0382V6.73403C16.0929 6.58763 17.6806 0.585571 26.7734 0.585571Z" fill="#3C4646"/>
<path d="M26.8455 27.3021C24.3198 27.3021 22.4435 27.7413 20.7837 28.4001V35.1341C22.4435 34.4753 24.3198 34.0361 26.7734 34.0361C27.7115 34.0361 28.5775 34.1093 29.4435 34.1825V27.5217C28.5775 27.3021 27.7115 27.3021 26.8455 27.3021Z" fill="white"/>
<path d="M36.2271 29.0588V35.8661C41.2064 37.9887 40.9899 40.9166 40.9899 40.9166L40.9178 31.7671C40.124 31.1815 38.5363 30.0836 36.2271 29.0588Z" fill="white"/>
<path d="M8.51562 33.3774V40.0382C10.7527 40.0382 12.4847 39.5258 14.0002 38.7939V31.9135C12.4125 32.7186 10.7527 33.3042 8.51562 33.3774Z" fill="white"/>
<path d="M26.8455 13.7609C24.3198 13.7609 22.4435 14.2 20.7837 14.8588V21.5928C22.4435 20.9341 24.3198 20.4949 26.7734 20.4949C27.7115 20.4949 28.5775 20.5681 29.4435 20.6413V13.9073C28.5775 13.8341 27.7115 13.7609 26.8455 13.7609Z" fill="white"/>
<path d="M36.2271 15.5908V22.398C39.258 23.7888 40.9178 25.3259 40.9178 25.3259V18.2991C40.124 17.7135 38.5363 16.5424 36.2271 15.5908Z" fill="white"/>
<path d="M8.51562 19.9093V26.5701C10.7527 26.5701 12.4847 26.0577 14.0002 25.3258V18.5186C12.4125 19.2505 10.7527 19.8361 8.51562 19.9093Z" fill="white"/>
<path d="M26.8455 0.585571C24.3198 0.585571 22.4435 1.02475 20.7837 1.68351V8.41753C22.4435 7.75877 24.3198 7.31959 26.7734 7.31959C27.7115 7.31959 28.5775 7.39279 29.4435 7.46598V0.731963C28.5775 0.658767 27.7115 0.585571 26.8455 0.585571Z" fill="white"/>
<path d="M36.2271 2.41553V9.22274C39.258 10.6135 40.9178 12.1506 40.9178 12.1506V8.41759C40.9178 6.14852 39.691 4.09903 37.6704 3.07429C37.1652 2.8547 36.7322 2.63511 36.2271 2.41553Z" fill="white"/>
<path d="M8.51562 6.66086V13.3217C10.7527 13.3217 12.4847 12.8093 14.0002 12.0774V5.27014C12.4125 6.0021 10.7527 6.58767 8.51562 6.66086Z" fill="white"/>
<path d="M20.7839 28.4732L13.9282 31.9134V25.2526L20.7839 21.4464V28.4732Z" fill="white"/>
<path d="M20.7839 15.2247L13.9282 18.6649V12.0041L20.7839 8.19788V15.2247Z" fill="white"/>
<path d="M29.3711 27.5217L36.2268 29.132V22.4712L29.3711 20.4949V27.5217Z" fill="white"/>
<path d="M29.3711 14.2732L36.2268 15.7371V9.07631L29.3711 7.17322V14.2732Z" fill="white"/>
<path d="M8.42186 4.02141L5.60742 4.03052L5.79454 63.5388L8.60898 63.5297L8.42186 4.02141Z" fill="#55879B"/>
<path d="M8.6067 6.3632L5.28711 6.37378L5.39484 40.1903L8.71442 40.1797L8.6067 6.3632Z" fill="#3C4646"/>
<path opacity="0.5" d="M10.7527 39.8919L8.58779 40.1115L8.51562 6.36816H10.6084L10.7527 39.8919Z" fill="#3C4646"/>
</svg>
