<svg width="70" height="71" viewBox="0 0 70 71" fill="none" xmlns="http://www.w3.org/2000/svg">
<path d="M34.9951 70.99C54.3223 70.99 69.9901 55.0983 69.9901 35.495C69.9901 15.8916 54.3223 0 34.9951 0C15.6678 0 0 15.8916 0 35.495C0 55.0983 15.6678 70.99 34.9951 70.99Z" fill="#4498C5"/>
<path d="M43.3438 1.02222C43.9662 1.17253 44.5886 1.35292 45.1913 1.5333L43.3438 1.02222Z" fill="#95B84C"/>
<path d="M44.3613 4.05859C44.5095 4.1087 44.6577 4.14878 44.8059 4.19889C44.8553 4.16883 44.8948 4.12874 44.9442 4.09868C44.7269 4.1087 44.5392 4.08866 44.3613 4.05859Z" fill="#A2C24B"/>
<path d="M42.6426 5.80223C43.7195 5.80223 45.33 7.61606 46.1599 7.05487C47.2961 6.28324 47.0194 5.56172 47.3257 5.15085C46.5057 4.80011 45.6659 4.48946 44.8063 4.20886C44.0851 4.73998 43.3638 5.27111 42.6426 5.80223Z" fill="#A2C24B"/>
<path d="M44.3615 4.05869C44.0256 3.94846 43.6798 3.84825 43.334 3.75806C43.6304 3.89835 43.9663 4.00859 44.3615 4.05869Z" fill="#A2C24B"/>
<path opacity="0.07" d="M63.0052 19.1505C61.4145 16.3446 59.4286 13.7992 57.1167 11.5946C57.087 11.5645 57.0574 11.5344 57.0179 11.5044C56.7808 11.2839 56.5535 11.0634 56.3164 10.853C56.2868 10.8229 56.2472 10.7929 56.2176 10.7628C55.9805 10.5524 55.7335 10.3419 55.4964 10.1315C55.4667 10.1114 55.4371 10.0814 55.4074 10.0613C55.1506 9.85089 54.8937 9.64044 54.6368 9.44002C54.617 9.43 54.5973 9.40996 54.5775 9.39993C54.3009 9.18949 54.0341 8.97904 53.7476 8.77862C53.7377 8.7686 53.7278 8.7686 53.7179 8.75858C53.4314 8.54813 53.135 8.34771 52.8386 8.14729C52.2359 7.73642 51.6135 7.34559 50.9812 6.97481C47.5627 4.99062 43.749 3.6077 39.6883 2.98638C39.4512 2.9463 39.2141 2.91624 38.9769 2.88617C38.8485 2.86613 38.7102 2.85611 38.5719 2.83607C38.4138 2.81602 38.2656 2.79598 38.1075 2.78596C37.4554 2.71581 36.8033 2.67573 36.1414 2.64566C36.0031 2.63564 35.8549 2.63564 35.7165 2.63564C35.4201 2.62562 35.1336 2.6156 34.8372 2.6156C34.5803 2.6156 34.3235 2.6156 34.0765 2.62562C33.9776 2.62562 33.8887 2.63564 33.7899 2.63564C33.6318 2.64566 33.4836 2.64566 33.3256 2.65569C33.207 2.66571 33.0786 2.66571 32.96 2.67573C32.8414 2.68575 32.7229 2.68575 32.6043 2.69577C32.4561 2.70579 32.3178 2.71581 32.1696 2.72583C32.1004 2.73585 32.0412 2.73585 31.972 2.74588C31.1322 2.81602 30.3023 2.92626 29.4822 3.06655C29.2649 3.10664 29.0475 3.1367 28.8302 3.18681C28.5535 3.23691 28.2769 3.29704 28.0002 3.35717C27.9904 3.35717 27.9805 3.35717 27.9706 3.36719C27.7038 3.42732 27.4371 3.48744 27.1703 3.55759C27.1604 3.55759 27.1407 3.56761 27.1308 3.56761C26.864 3.62774 26.6072 3.69789 26.3503 3.76804C26.3305 3.76804 26.3206 3.77806 26.3107 3.77806C26.044 3.8482 25.7871 3.92837 25.5302 4.00854C25.5203 4.00854 25.5105 4.01856 25.5006 4.01856C25.2338 4.09873 24.9671 4.18892 24.7003 4.26909C21.7264 5.26119 18.9501 6.67417 16.4307 8.4379C7.90425 14.3905 2.3418 24.3215 2.3418 35.5752C2.3418 43.1412 4.85132 50.1059 9.07998 55.6677C6.32345 50.8375 4.75252 45.2256 4.75252 39.243C4.75252 29.292 9.09974 20.3731 15.9762 14.3304C16.0256 14.2903 16.075 14.2402 16.1343 14.2001C16.2726 14.0798 16.411 13.9596 16.5493 13.8493C16.6283 13.7792 16.7074 13.7191 16.7864 13.6489C16.8951 13.5587 17.0136 13.4585 17.1322 13.3683C17.2211 13.2982 17.31 13.228 17.3891 13.1579C17.4978 13.0677 17.6064 12.9875 17.7151 12.8973C17.804 12.8272 17.893 12.757 17.9918 12.6969C18.1004 12.6167 18.2091 12.5366 18.3178 12.4564C18.4067 12.3862 18.5055 12.3261 18.5944 12.256C18.7031 12.1758 18.8118 12.0956 18.9304 12.0255C19.0292 11.9553 19.1181 11.8952 19.2169 11.8351C19.3256 11.7549 19.4441 11.6848 19.5627 11.6046C19.6615 11.5445 19.7504 11.4743 19.8492 11.4142C19.9678 11.334 20.0863 11.2639 20.2049 11.1937C20.3037 11.1336 20.3926 11.0735 20.4914 11.0133C20.6199 10.9332 20.7384 10.863 20.8669 10.7829C20.9558 10.7327 21.0447 10.6726 21.1336 10.6225C21.2818 10.5423 21.43 10.4522 21.5782 10.372C21.6474 10.3319 21.7165 10.2918 21.7956 10.2517C22.0129 10.1315 22.2303 10.0112 22.4477 9.90099C22.5168 9.87093 22.586 9.83084 22.6453 9.80078C22.8033 9.72061 22.9614 9.64044 23.1195 9.56027C23.2084 9.52019 23.2973 9.47008 23.3863 9.43C23.5246 9.35985 23.6629 9.29972 23.8012 9.23959C23.9 9.18949 23.9988 9.14941 24.0976 9.10932C24.2261 9.04919 24.3644 8.98907 24.4928 8.92894C24.5916 8.88885 24.7003 8.83875 24.7991 8.79866C24.9275 8.74856 25.0659 8.68843 25.1943 8.63832C25.303 8.59824 25.4018 8.55816 25.5105 8.50805C25.6389 8.45794 25.7772 8.40784 25.9057 8.35773C26.0143 8.31765 26.1131 8.27756 26.2218 8.23748C26.3601 8.18737 26.4886 8.13727 26.6269 8.08716C26.7356 8.04708 26.8344 8.01701 26.9431 7.97693C27.0814 7.92682 27.2296 7.88674 27.3679 7.83663C27.4667 7.80657 27.5655 7.76648 27.6742 7.73642C27.8224 7.68631 27.9805 7.64623 28.1386 7.59612C28.2275 7.56606 28.3164 7.54602 28.4152 7.51595C28.6128 7.45583 28.8104 7.40572 29.008 7.35562C29.0574 7.34559 29.1068 7.32555 29.1562 7.31553C29.4032 7.2554 29.6502 7.18525 29.8972 7.13515C29.9762 7.11511 30.0553 7.10509 30.1244 7.08504C30.3023 7.04496 30.4702 7.00487 30.6481 6.96479C30.7469 6.94475 30.8457 6.9247 30.9445 6.90466C31.1026 6.8746 31.2606 6.84454 31.4088 6.81447C31.5175 6.79443 31.6262 6.77439 31.725 6.75434C31.8732 6.72428 32.0214 6.70424 32.1696 6.67418C32.2783 6.65413 32.387 6.64411 32.5055 6.62407C32.6537 6.60403 32.8019 6.58398 32.9501 6.56394C33.0588 6.55392 33.1774 6.53388 33.286 6.52386C33.4342 6.50382 33.5824 6.48377 33.7405 6.47375C33.8492 6.46373 33.9678 6.45371 34.0765 6.43367C34.2345 6.41362 34.3827 6.4036 34.5408 6.39358C34.6495 6.38356 34.7582 6.37354 34.8669 6.36352C35.0249 6.3535 35.183 6.34348 35.351 6.33346C35.4597 6.32343 35.5585 6.32343 35.6671 6.31341C35.845 6.30339 36.0228 6.30339 36.2007 6.29337C36.2896 6.29337 36.3785 6.28335 36.4674 6.28335C36.7342 6.27333 37.0009 6.27333 37.2677 6.27333C37.3369 6.27333 37.406 6.27333 37.4752 6.27333C42.3065 6.30339 46.8908 7.40572 51.0108 9.34983C51.0503 9.36987 51.0899 9.38991 51.1294 9.40996C51.3369 9.51017 51.5443 9.61038 51.7518 9.72061C51.8407 9.7607 51.9297 9.8108 52.0186 9.86091C52.1767 9.94108 52.3446 10.0313 52.5027 10.1215C52.5916 10.1716 52.6805 10.2217 52.7695 10.2718C52.9572 10.382 53.1548 10.4822 53.3425 10.5925C53.4117 10.6325 53.4907 10.6726 53.5599 10.7227C53.7575 10.843 53.965 10.9632 54.1626 11.0835C54.2515 11.1436 54.3503 11.2037 54.4392 11.2539C54.5775 11.344 54.7257 11.4342 54.864 11.5244C54.9628 11.5845 55.0518 11.6547 55.1506 11.7148C55.2988 11.815 55.4568 11.9253 55.605 12.0255C55.6841 12.0756 55.7532 12.1257 55.8323 12.1758C58.5493 14.1199 60.9798 16.4749 63.0052 19.1505Z" fill="white"/>
<path d="M47.2954 2.25483C46.3667 2.13458 45.3985 2.12456 44.3216 2.29492C44.7563 1.98426 45.0329 1.73373 45.191 1.52329C44.5784 1.33288 43.9659 1.16252 43.3434 1.01221C43.294 1.02223 43.2545 1.04227 43.2051 1.05229C42.3554 1.35293 42.2369 1.38299 42.3752 1.92413C42.0492 1.79386 41.733 1.63352 41.4465 1.45314H37.3957C39.9645 4.32921 34.9849 4.13881 33.167 4.14883C32.8311 4.14883 32.7619 3.47742 32.9496 3.29703C33.0386 3.21686 35.0837 3.28701 34.6984 3.29703C36.3484 3.29703 36.1409 3.16676 36.1409 1.45314C34.5008 2.68574 34.5502 1.45314 32.6928 1.45314C30.944 1.45314 30.0844 1.55335 28.553 2.25483C29.0569 2.68574 29.5509 3.11665 30.0548 3.54756C29.4225 3.40727 27.3773 2.58553 26.8141 2.82604C26.5573 2.93627 26.4881 3.64778 26.1621 3.64778C24.8579 3.64778 21.311 4.3693 21.311 2.8561C21.311 2.84608 21.2912 2.84608 21.2418 2.83606C18.0209 4.229 15.0569 6.10296 12.4189 8.36775C14.1084 8.08715 15.877 8.18737 16.2228 8.18737C16.3808 8.18737 17.4479 10.9933 17.4578 11.2138C17.517 12.4363 16.697 12.9174 16.0844 14.0898C14.9779 16.2043 14.4839 18.9802 14.6024 21.3652C14.6024 21.4554 16.0054 22.7281 16.0054 23.2291C16.0054 25.3436 16.2228 25.3737 17.6554 26.927V24.3315C18.505 26.5963 19.5424 27.4681 20.3131 29.6928C21.1825 32.2081 24.6405 30.274 25.8163 31.9375C26.33 32.6691 27.2983 32.3284 27.7626 33.0499L29.0174 34.984C29.7683 36.1464 30.6871 35.7456 32.0308 35.7456C33.3251 35.7456 30.8551 40.2752 30.8551 40.656C30.8551 42.2293 32.9694 45.8068 32.9595 46.4282C32.92 48.2921 35.2122 48.5526 36.4669 49.7051C37.4648 50.627 36.7535 53.2526 36.7238 54.4251C36.6942 55.4071 36.9017 56.289 37.1981 57.1308C37.4747 57.9124 37.8106 58.664 38.1268 59.4356C38.1762 59.5659 38.2355 59.7062 38.2849 59.8465C38.3046 59.9066 38.3244 59.9668 38.354 60.0269C38.3935 60.1371 38.4331 60.2574 38.4726 60.3676C38.4923 60.4277 38.5121 60.4979 38.5319 60.558C38.5714 60.6783 38.601 60.7985 38.6405 60.9188C38.6603 60.9789 38.6702 61.039 38.6899 61.0891C38.7295 61.2695 38.7789 61.4499 38.8085 61.6403C38.9765 62.5923 38.6109 63.6245 38.8184 64.5364C39.0357 65.4784 39.8261 66.0596 39.8163 67.1018C39.7965 68.7052 44.2425 69.0059 45.112 69.0059C45.112 69.0059 41.8614 67.3023 41.8614 67.5027C41.8614 65.9795 42.6321 66.0897 42.6321 65.1577C42.6321 64.0554 41.6441 63.1435 42.2566 61.5802C42.9285 59.8966 42.8494 59.9467 44.6476 59.9467C44.6081 59.1751 44.4994 58.4035 44.3018 57.6519C45.9122 55.1065 49.6667 52.6513 50.6547 51.9699C51.9983 51.0379 51.2475 48.5126 51.8304 47.1697C52.3441 45.9872 53.8953 44.8949 53.9743 43.4418C53.9743 43.3617 53.9743 43.2915 53.9743 43.2214C53.9743 43.2013 53.9743 43.1913 53.9645 43.1713C53.9546 43.1212 53.9546 43.0711 53.9348 43.021C53.9348 43.0109 53.9249 42.9909 53.9249 42.9809C53.9151 42.9308 53.8953 42.8807 53.8755 42.8406C53.8755 42.8306 53.8657 42.8306 53.8657 42.8205C53.8459 42.7704 53.8163 42.7203 53.7866 42.6702C53.4705 42.1992 52.8283 42.0689 52.2651 42.089C51.4648 42.1191 51.3858 40.7662 50.7831 40.7662C49.1035 40.7662 47.3745 40.4756 45.9221 39.3833C45.685 39.2029 45.4084 37.0383 45.0033 36.4972C44.4105 35.7255 42.5333 37.0784 41.8022 36.0362C41.5255 35.6454 40.8734 34.0921 40.4288 34.0921C39.8261 34.0921 36.4768 33.4307 35.7753 34.0821C35.884 33.9819 34.6391 33.6011 34.4613 33.6011C34.5403 33.6011 30.1635 35.8959 30.1635 34.7034C30.1635 33.1601 30.9045 31.1559 29.0964 31.1559C26.1917 31.1559 28.6617 30.3843 28.6617 29.0414C28.6617 27.3078 25.8459 29.5124 24.3639 29.5224C24.4034 29.5224 22.6942 26.6764 23.5142 26.6764C24.107 26.6764 24.1959 25.4639 24.6307 24.9428C25.7767 23.5799 27.7429 23.4396 29.1162 23.6901C29.6794 23.7903 31.7048 26.1754 31.7048 26.6664C31.7048 26.5462 32.5347 26.015 32.6434 25.8346C33.0386 25.2133 32.8212 24.9428 32.92 24.3215C33.2559 22.237 33.3448 21.8162 34.9849 20.5535C36.1903 19.6215 37.8798 18.5493 38.8283 17.3467C39.5495 16.4248 40.2312 15.9438 41.2785 15.4227C41.1698 15.4728 42.2764 16.1041 42.5036 16.1041C43.4521 16.1041 43.6794 15.2924 44.203 14.5608H42.553C44.4105 13.1178 41.0414 12.3662 44.776 12.3662C46.6038 12.3662 46.7817 12.3963 47.8981 11.0735C46.1197 11.0735 46.5446 11.0634 46.5446 9.21955C46.5446 8.90889 46.0407 7.78652 45.5566 8.26754C44.2425 9.58031 44.2919 8.02703 43.709 7.15519C42.968 6.02279 42.1578 7.18525 41.8516 7.86669C41.4662 8.71849 38.3046 10.0413 38.3145 11.1436C38.3145 11.795 37.2771 11.7649 37.2969 11.0434C37.3265 9.96111 33.6314 8.91891 33.5721 8.49802C33.493 7.93684 35.3999 6.43366 37.0597 6.43366C37.8205 6.43366 37.4451 5.54178 37.6822 5.54178C39.263 5.54178 41.1303 5.04072 41.9998 3.74799C41.7824 3.74799 39.7471 3.75801 39.7471 3.73797C39.7471 3.00642 39.4408 2.55547 40.2707 2.55547C42.227 2.55547 42.8 4.09873 44.944 4.09873C44.1734 4.65991 43.4126 5.23112 42.642 5.79231C43.7189 5.79231 45.3293 7.60614 46.1592 7.04495C47.6906 6.00275 46.6532 5.06076 47.9278 4.84029C48.0661 4.98059 48.2439 5.12089 48.5502 5.23112C48.9454 5.37142 50.378 5.63197 50.6151 6.00275C50.9115 6.44368 51.6525 9.06923 51.1091 9.29972C50.2199 9.6705 47.6215 12.5265 49.6074 13.238C51.1388 13.7892 51.534 13.0977 52.9073 12.2259C54.1818 11.4242 54.5276 11.7148 55.9503 12.2259C55.9602 12.2259 57.4324 12.1758 57.9856 12.3762C59.191 12.8071 59.1021 12.0355 59.2305 12.0856C59.7344 12.266 60.7026 12.3963 61.335 12.1157C57.5608 7.75646 52.7591 4.33924 47.2954 2.25483Z" fill="#C4D8A1"/>
<path d="M32.7719 26.967C32.5348 27.2075 32.2977 27.448 32.0605 27.6885C34.2638 27.6885 35.6075 28.41 37.5637 28.41C36.2497 26.3256 35.2222 26.967 32.7719 26.967Z" fill="#C4D8A1"/>
<path d="M40.0438 28.781C38.2752 28.7309 38.1962 29.0015 37.1094 30.224C38.0381 30.224 38.9767 30.224 39.9054 30.224C40.7156 30.224 40.6069 28.791 40.0438 28.781Z" fill="#C4D8A1"/>
<path d="M42.5529 30.6448C42.5529 28.1295 40.0334 30.6448 42.5529 30.6448V30.6448Z" fill="#C4D8A1"/>
</svg>
