<svg width="70" height="67" viewBox="0 0 70 67" fill="none" xmlns="http://www.w3.org/2000/svg">
<path d="M0 17.5352V60.457C0 63.3431 2.45342 65.6914 5.46875 65.6914H64.5312C67.5466 65.6914 70 63.3431 70 60.457V17.5352H0Z" fill="#D8DCE1"/>
<path d="M64.5312 2.87891H5.46875C2.45342 2.87891 0 5.22718 0 8.11328V17.5352H70V8.11328C70 5.22718 67.5464 2.87891 64.5312 2.87891ZM8.75 13.3477C6.93779 13.3477 5.46875 11.9416 5.46875 10.207C5.46875 8.47249 6.93779 7.06641 8.75 7.06641C10.5622 7.06641 12.0312 8.47249 12.0312 10.207C12.0312 11.9416 10.5622 13.3477 8.75 13.3477ZM61.25 13.3477C59.4378 13.3477 57.9688 11.9416 57.9688 10.207C57.9688 8.47249 59.4378 7.06641 61.25 7.06641C63.0622 7.06641 64.5312 8.47249 64.5312 10.207C64.5312 11.9416 63.0622 13.3477 61.25 13.3477Z" fill="#FF4F19"/>
<path d="M35 26.957C32.5872 26.957 30.625 28.8351 30.625 31.1445C30.625 33.4539 32.5872 35.332 35 35.332C37.4128 35.332 39.375 33.4539 39.375 31.1445C39.375 28.8351 37.4128 26.957 35 26.957Z" fill="white"/>
<path d="M24.0625 26.957C21.6497 26.957 19.6875 28.8351 19.6875 31.1445C19.6875 33.4539 21.6497 35.332 24.0625 35.332C26.4753 35.332 28.4375 33.4539 28.4375 31.1445C28.4375 28.8351 26.4753 26.957 24.0625 26.957Z" fill="white"/>
<path d="M13.125 26.957C10.7122 26.957 8.75 28.8351 8.75 31.1445C8.75 33.4539 10.7122 35.332 13.125 35.332C15.5378 35.332 17.5 33.4539 17.5 31.1445C17.5 28.8351 15.5378 26.957 13.125 26.957Z" fill="white"/>
<path d="M45.9375 26.957C43.5247 26.957 41.5625 28.8351 41.5625 31.1445C41.5625 33.4539 43.5247 35.332 45.9375 35.332C48.3503 35.332 50.3125 33.4539 50.3125 31.1445C50.3125 28.8351 48.3503 26.957 45.9375 26.957Z" fill="white"/>
<path d="M56.875 35.332C59.2878 35.332 61.25 33.4539 61.25 31.1445C61.25 28.8351 59.2878 26.957 56.875 26.957C54.4622 26.957 52.5 28.8351 52.5 31.1445C52.5 33.4539 54.4621 35.332 56.875 35.332Z" fill="#F0A744"/>
<path d="M35 37.4258C32.5872 37.4258 30.625 39.3039 30.625 41.6133C30.625 43.9227 32.5872 45.8008 35 45.8008C37.4128 45.8008 39.375 43.9227 39.375 41.6133C39.375 39.3039 37.4128 37.4258 35 37.4258Z" fill="#58B58B"/>
<path d="M24.0625 37.4258C21.6497 37.4258 19.6875 39.3039 19.6875 41.6133C19.6875 43.9227 21.6497 45.8008 24.0625 45.8008C26.4753 45.8008 28.4375 43.9227 28.4375 41.6133C28.4375 39.3039 26.4753 37.4258 24.0625 37.4258Z" fill="#58B58B"/>
<path d="M13.125 37.4258C10.7122 37.4258 8.75 39.3039 8.75 41.6133C8.75 43.9227 10.7122 45.8008 13.125 45.8008C15.5378 45.8008 17.5 43.9227 17.5 41.6133C17.5 39.3039 15.5378 37.4258 13.125 37.4258Z" fill="white"/>
<path d="M45.9375 37.4258C43.5247 37.4258 41.5625 39.3039 41.5625 41.6133C41.5625 43.9227 43.5247 45.8008 45.9375 45.8008C48.3503 45.8008 50.3125 43.9227 50.3125 41.6133C50.3125 39.3039 48.3503 37.4258 45.9375 37.4258Z" fill="white"/>
<path d="M56.875 37.4258C54.4622 37.4258 52.5 39.3039 52.5 41.6133C52.5 43.9227 54.4622 45.8008 56.875 45.8008C59.2878 45.8008 61.25 43.9227 61.25 41.6133C61.25 39.3039 59.2878 37.4258 56.875 37.4258Z" fill="#58B58B"/>
<path d="M35 47.8945C32.5872 47.8945 30.625 49.7726 30.625 52.082C30.625 54.3914 32.5872 56.2695 35 56.2695C37.4128 56.2695 39.375 54.3914 39.375 52.082C39.375 49.7725 37.4128 47.8945 35 47.8945Z" fill="white"/>
<path d="M24.0625 47.8945C21.6497 47.8945 19.6875 49.7726 19.6875 52.082C19.6875 54.3914 21.6497 56.2695 24.0625 56.2695C26.4753 56.2695 28.4375 54.3914 28.4375 52.082C28.4375 49.7725 26.4753 47.8945 24.0625 47.8945Z" fill="#58B58B"/>
<path d="M13.125 47.8945C10.7122 47.8945 8.75 49.7726 8.75 52.082C8.75 54.3914 10.7122 56.2695 13.125 56.2695C15.5378 56.2695 17.5 54.3914 17.5 52.082C17.5 49.7725 15.5378 47.8945 13.125 47.8945Z" fill="#58B58B"/>
<path d="M45.9375 47.8945C43.5247 47.8945 41.5625 49.7726 41.5625 52.082C41.5625 54.3914 43.5247 56.2695 45.9375 56.2695C48.3503 56.2695 50.3125 54.3914 50.3125 52.082C50.3125 49.7725 48.3503 47.8945 45.9375 47.8945Z" fill="white"/>
<path d="M56.875 47.8945C54.4622 47.8945 52.5 49.7726 52.5 52.082C52.5 54.3914 54.4622 56.2695 56.875 56.2695C59.2878 56.2695 61.25 54.3914 61.25 52.082C61.25 49.7725 59.2878 47.8945 56.875 47.8945Z" fill="#F0A744"/>
<path d="M8.75 11.7773C7.84424 11.7773 7.10938 11.0745 7.10938 10.207V2.87891C7.10938 2.01144 7.84424 1.30859 8.75 1.30859C9.65576 1.30859 10.3906 2.01144 10.3906 2.87891V10.207C10.3906 11.0745 9.65576 11.7773 8.75 11.7773Z" fill="#5C546A"/>
<path d="M61.25 11.7773C60.3442 11.7773 59.6094 11.0745 59.6094 10.207V2.87891C59.6094 2.01144 60.3442 1.30859 61.25 1.30859C62.1558 1.30859 62.8906 2.01144 62.8906 2.87891V10.207C62.8906 11.0745 62.1558 11.7773 61.25 11.7773Z" fill="#5C546A"/>
<path d="M13.125 35.332C15.5412 35.332 17.5 33.4572 17.5 31.1445C17.5 28.8318 15.5412 26.957 13.125 26.957C10.7088 26.957 8.75 28.8318 8.75 31.1445C8.75 33.4572 10.7088 35.332 13.125 35.332Z" fill="white"/>
<path d="M35 56.2695C37.4162 56.2695 39.375 54.3947 39.375 52.082C39.375 49.7693 37.4162 47.8945 35 47.8945C32.5838 47.8945 30.625 49.7693 30.625 52.082C30.625 54.3947 32.5838 56.2695 35 56.2695Z" fill="#60C09E"/>
<path d="M45.9375 45.8008C48.3537 45.8008 50.3125 43.926 50.3125 41.6133C50.3125 39.3006 48.3537 37.4258 45.9375 37.4258C43.5213 37.4258 41.5625 39.3006 41.5625 41.6133C41.5625 43.926 43.5213 45.8008 45.9375 45.8008Z" fill="#58B58B"/>
</svg>
