<svg width="70" height="70" viewBox="0 0 70 70" fill="none" xmlns="http://www.w3.org/2000/svg">
<path d="M0 34.9932C0 54.3172 15.6692 69.9864 34.9932 69.9864C54.3172 69.9864 69.9864 54.3172 69.9864 34.9932C70 15.6692 54.3308 0 34.9932 0C15.6692 0 0 15.6692 0 34.9932ZM66.5361 34.9932C66.5361 52.4079 52.4079 66.5361 34.9932 66.5361C17.5784 66.5361 3.45022 52.4079 3.45022 34.9932C3.45022 17.5784 17.5784 3.45022 34.9932 3.45022C52.4216 3.45022 66.5361 17.5784 66.5361 34.9932Z" fill="#616E7D"/>
<path d="M8.37354 34.9932C8.37354 49.6805 20.3198 61.6131 34.9934 61.6131C49.6808 61.6131 61.6134 49.6669 61.6134 34.9932C61.6134 20.3059 49.6671 8.37329 34.9934 8.37329C20.3198 8.37329 8.37354 20.3195 8.37354 34.9932ZM36.5345 19.0103V35.8523L49.5853 49.4078C50.3354 50.1851 50.3081 51.4261 49.5308 52.1761C48.7534 52.9262 47.5124 52.8989 46.7624 52.1216L33.1524 37.9934C32.7978 37.6252 32.6069 37.1479 32.6069 36.6297V19.0103C32.6069 17.933 33.4797 17.0466 34.5707 17.0466C35.6617 17.0466 36.5345 17.9194 36.5345 19.0103Z" fill="#82BFAB"/>
<path d="M3.4502 34.9932C3.4502 52.4079 17.5784 66.5361 34.9932 66.5361C52.4079 66.5361 66.5361 52.4079 66.5361 34.9932C66.5361 17.5784 52.4079 3.4502 34.9932 3.4502C17.5784 3.4502 3.4502 17.5784 3.4502 34.9932ZM61.6267 34.9932C61.6267 49.6805 49.6805 61.6131 35.0068 61.6131C20.3331 61.6131 8.38688 49.6668 8.38688 34.9932C8.37324 20.3195 20.3195 8.37324 34.9932 8.37324C49.6805 8.37324 61.6267 20.3195 61.6267 34.9932Z" fill="#AAD4C8"/>
<path d="M34.5839 17.0465C33.5065 17.0465 32.6201 17.9193 32.6201 19.0103V36.6432C32.6201 37.1478 32.811 37.6388 33.1656 38.007L46.7756 52.1215C47.5256 52.8988 48.7666 52.9261 49.5439 52.1761C50.3213 51.426 50.3485 50.185 49.5985 49.4077L36.5476 35.8523V19.0103C36.534 17.9193 35.6612 17.0465 34.5839 17.0465Z" fill="#616E7D"/>
</svg>
