<svg width="119" height="120" viewBox="0 0 119 120" fill="none" xmlns="http://www.w3.org/2000/svg">
<g clip-path="url(#clip0)">
<path d="M16.359 69.399H16.1558C14.4285 69.399 13.1075 68.0781 13.1075 66.3507C13.1075 64.6234 14.4285 63.3025 16.1558 63.3025H16.2574C18.0864 63.3025 19.7121 61.9816 19.9153 60.1526C20.1185 58.5269 19.1025 57.0027 17.5783 56.3931C2.84505 50.1949 0.508044 20.2203 0.304826 16.7656L0 13.5142H30.381V19.6107H6.60457C7.72227 29.3651 11.3802 47.2483 19.8137 50.703C23.5732 52.2271 25.9102 55.7834 25.9102 59.6446C26.0119 65.0298 21.6427 69.399 16.359 69.399Z" fill="#BF7406"/>
<path d="M102.523 69.399H102.727C104.454 69.399 105.775 68.0781 105.775 66.3507C105.775 64.6234 104.454 63.3025 102.727 63.3025H102.625C100.796 63.3025 99.1704 61.9816 98.9672 60.1526C98.764 58.5269 99.78 57.0027 101.304 56.3931C116.037 50.1949 118.374 20.2203 118.578 16.7656L118.781 13.5142H88.5015V19.6107H112.278C111.16 29.3651 107.502 47.2483 99.0688 50.703C95.3093 52.2271 92.9723 55.7834 92.9723 59.6446C92.8706 65.0298 97.2398 69.399 102.523 69.399Z" fill="#BF7406"/>
<path d="M68.0781 103.235H50.9062L53.9545 68.4844H65.0299L68.0781 103.235Z" fill="#BF7406"/>
<path d="M88.5015 115.326H30.4829C36.8843 105.877 47.4516 100.187 58.9334 100.187H60.1527C71.5329 100.187 82.1002 105.877 88.5015 115.326Z" fill="#F3A000"/>
<path d="M69.1959 104.962H49.5854V111.058H69.1959V104.962Z" fill="#BF7406"/>
<path opacity="0.1" d="M49.5854 104.962H61.3721L59.4415 111.058H49.5854V104.962Z" fill="white"/>
<path opacity="0.1" d="M64.2171 104.962L63.5059 111.058H69.2976V104.962H64.2171Z" fill="white"/>
<path d="M88.5015 115.326H30.4829V120H88.5015V115.326Z" fill="#C97B07"/>
<path d="M59.4415 81.7952C39.831 81.7952 23.98 65.9442 23.98 46.3337V6.19824H95.0045V46.3337C95.0045 65.9442 79.052 81.7952 59.4415 81.7952Z" fill="#F3A000"/>
<path d="M97.0366 0H21.9477C20.2203 0 18.8994 1.42252 18.8994 3.04826C18.8994 4.77561 20.3219 6.09653 21.9477 6.09653H96.935C98.6623 6.09653 99.9833 4.67401 99.9833 3.04826C100.085 1.42252 98.6623 0 97.0366 0Z" fill="#E48B07"/>
<path opacity="0.2" d="M85.1484 16.0541V50.9059C85.1484 53.4461 89.1112 53.4461 89.1112 50.9059V16.0541C89.2128 13.5139 85.1484 13.5139 85.1484 16.0541Z" fill="white"/>
<path opacity="0.2" d="M87.6888 59.1361C87.892 56.5959 83.9293 56.5959 83.7261 59.1361C83.5229 61.0667 82.5068 62.8956 80.881 64.115C79.9665 64.7246 79.5601 65.8423 80.1698 66.8584C80.6778 67.7729 81.9987 68.1793 82.9132 67.5697L83.218 67.3664C83.3196 67.2648 83.4212 67.1632 83.5229 67.0616C85.9615 65.0294 87.384 62.286 87.6888 59.1361Z" fill="white"/>
<path opacity="0.2" d="M54.6655 75.089C42.2692 75.089 32.3115 65.1314 32.3115 52.7351V6.19824H77.0194V52.8367C77.0194 65.1314 67.0617 75.089 54.6655 75.089Z" fill="white"/>
</g>
<defs>
<clipPath id="clip0">
<rect width="118.882" height="120" fill="white"/>
</clipPath>
</defs>
</svg>
