<svg width="119" height="120" viewBox="0 0 119 120" fill="none" xmlns="http://www.w3.org/2000/svg">
<g clip-path="url(#clip0)">
<path d="M16.369 69.362H16.1335C14.4848 69.362 13.0716 67.9489 13.0716 66.3002C13.0716 64.6515 14.4848 63.2384 16.1335 63.2384H16.2512C18.1354 63.2384 19.6663 61.943 19.9019 60.0588C20.0196 58.4101 19.0775 56.9969 17.5466 56.2904C2.70854 50.1667 0.47105 20.1373 0.235525 16.7222L0 13.4248H30.3827V19.5485H6.5947C7.65456 29.205 11.3052 47.1049 19.7841 50.6378C23.5525 52.1687 25.9078 55.7015 25.9078 59.5877C25.9078 65.0048 21.6683 69.362 16.369 69.362Z" fill="#5F686F"/>
<path d="M102.571 69.362H102.807C104.456 69.362 105.869 67.9489 105.869 66.3002C105.869 64.6515 104.456 63.2384 102.807 63.2384H102.689C100.805 63.2384 99.274 61.943 99.0385 60.0588C98.9207 58.4101 99.8628 56.9969 101.394 56.2904C116.114 50.1667 118.469 20.1373 118.705 16.7222L118.94 13.4248H88.5576V19.5485H112.346C111.286 29.205 107.635 47.1049 99.1562 50.6378C95.3878 52.1687 93.0326 55.7015 93.0326 59.5877C92.9148 65.0048 97.1543 69.362 102.571 69.362Z" fill="#5F686F"/>
<path d="M68.0669 103.278H50.8735L53.9354 68.4199H65.005L68.0669 103.278Z" fill="#727B84"/>
<path d="M88.4396 115.29H30.5005C36.8597 105.869 47.4583 100.098 58.8813 100.098H60.0589C71.4818 100.216 82.0805 105.869 88.4396 115.29Z" fill="#D2D3D5"/>
<path d="M69.2445 104.926H49.5781V111.05H69.2445V104.926Z" fill="#5F686F"/>
<path opacity="0.1" d="M49.5781 104.926H61.3544L59.4702 111.05H49.5781V104.926Z" fill="white"/>
<path opacity="0.1" d="M64.2985 104.926L63.4741 111.05H69.2445V104.926H64.2985Z" fill="white"/>
<path d="M88.5574 115.29H30.5005V119.882H88.5574V115.29Z" fill="#808893"/>
<path d="M59.4704 81.7271C39.9219 81.7271 24.0239 65.8291 24.0239 46.2805V6.12354H95.0347V46.2805C94.9169 65.8291 79.019 81.7271 59.4704 81.7271Z" fill="#D2D3D5"/>
<path d="M96.9187 0H22.0218C20.3731 0 18.96 1.41315 18.96 3.06183C18.96 4.7105 20.3731 6.12365 22.0218 6.12365H97.0365C98.6852 6.12365 100.098 4.7105 100.098 3.06183C100.098 1.41315 98.6852 0 96.9187 0Z" fill="#808893"/>
<path opacity="0.2" d="M85.1426 16.1335V50.9912C85.1426 53.582 89.1465 53.582 89.1465 50.9912V16.1335C89.1465 13.5427 85.1426 13.5427 85.1426 16.1335Z" fill="white"/>
<path opacity="0.2" d="M87.733 59.117C87.9685 56.5262 83.9646 56.6439 83.7291 59.117C83.4935 61.0012 82.4337 62.8854 80.9028 64.063C80.0784 64.6518 79.6074 65.8294 80.1962 66.7715C80.6672 67.5959 82.0804 68.0669 82.9047 67.4781L83.1403 67.2426C83.258 67.1248 83.3758 67.007 83.4935 67.007C85.9666 65.0051 87.3797 62.2965 87.733 59.117Z" fill="white"/>
<path opacity="0.2" d="M54.642 75.1324C42.2769 75.1324 32.2671 65.1225 32.2671 52.7575V6.12354H77.0168V52.7575C77.0168 65.1225 67.007 75.1324 54.642 75.1324Z" fill="white"/>
</g>
<defs>
<clipPath id="clip0">
<rect width="118.822" height="120" fill="white"/>
</clipPath>
</defs>
</svg>
