<svg width="40" height="40" viewBox="0 0 40 40" fill="none" xmlns="http://www.w3.org/2000/svg">
<circle cx="20" cy="20" r="20" fill="#C4C4C4"/>
<circle cx="20" cy="20" r="20" fill="#F0A744"/>
<path d="M20.2196 21.9405C20.1179 21.9405 20.0165 21.9153 19.9246 21.865L8.316 15.5085C8.12122 15.4019 8 15.1984 8 14.9771C8 14.7558 8.12098 14.5521 8.31576 14.4454L19.9246 8.07559C20.1084 7.9748 20.3317 7.9748 20.5153 8.07559L32.1241 14.4454C32.3191 14.5523 32.4399 14.7561 32.4399 14.9771C32.4399 15.1981 32.3187 15.4019 32.1236 15.5085L20.5143 21.865C20.4227 21.9153 20.3212 21.9405 20.2196 21.9405ZM9.87599 14.9764L20.2196 20.6402L30.5634 14.9764L20.2198 9.30065L9.87599 14.9764Z" fill="white"/>
<path d="M12.2769 20.6423C11.9394 20.6423 11.6659 20.3705 11.6659 20.0351V17.3285C11.6659 16.9931 11.9394 16.7214 12.2769 16.7214C12.6144 16.7214 12.8879 16.9931 12.8879 17.3285V20.0351C12.8879 20.3705 12.6144 20.6423 12.2769 20.6423Z" fill="white"/>
<path d="M28.1621 20.6423C27.8246 20.6423 27.5511 20.3705 27.5511 20.0351V17.3285C27.5511 16.9931 27.8246 16.7214 28.1621 16.7214C28.4996 16.7214 28.7731 16.9931 28.7731 17.3285V20.0351C28.7731 20.3705 28.4996 20.6423 28.1621 20.6423Z" fill="white"/>
<path d="M20.2198 26.184C15.5032 26.184 11.6659 23.5425 11.6659 20.2956C11.6659 19.9601 11.9394 19.6884 12.2769 19.6884C12.6144 19.6884 12.8879 19.9601 12.8879 20.2956C12.8879 22.8727 16.177 24.9697 20.2198 24.9697C24.2626 24.9697 27.5517 22.8727 27.5517 20.2956C27.5517 19.9601 27.8251 19.6884 28.1627 19.6884C28.5002 19.6884 28.7737 19.9601 28.7737 20.2956C28.7737 23.5425 24.9364 26.184 20.2198 26.184Z" fill="white"/>
<path d="M14.5386 18.5517C14.3199 18.5517 14.1085 18.4346 13.9987 18.2294C13.8404 17.9333 13.9535 17.5656 14.2515 17.4082L19.9009 14.4241C20.1988 14.2667 20.5686 14.3791 20.7272 14.6752C20.8858 14.9713 20.7724 15.339 20.4745 15.4963L14.8248 18.4805C14.7334 18.5289 14.6354 18.5517 14.5386 18.5517Z" fill="white"/>
<path d="M14.4466 28.0556C14.1091 28.0556 13.8356 27.7839 13.8356 27.4485V18.2797C13.8356 17.9443 14.1091 17.6726 14.4466 17.6726C14.7841 17.6726 15.0576 17.9443 15.0576 18.2797V27.4485C15.0576 27.7836 14.7841 28.0556 14.4466 28.0556Z" fill="white"/>
<path d="M15.6984 31H13.1934C12.8559 31 12.5824 30.7282 12.5824 30.3928V28.7534C12.5824 27.7324 13.4182 26.9015 14.4459 26.9015C15.4736 26.9015 16.3094 27.7324 16.3094 28.7534V30.3928C16.3094 30.728 16.0359 31 15.6984 31ZM13.8044 29.7856H15.0874V28.7534C15.0874 28.402 14.7995 28.1159 14.4459 28.1159C14.0923 28.1159 13.8044 28.4017 13.8044 28.7534V29.7856Z" fill="white"/>
</svg>
