<svg width="40" height="40" viewBox="0 0 40 40" fill="none" xmlns="http://www.w3.org/2000/svg">
<circle cx="20" cy="20" r="20" fill="#F0A744"/>
<path d="M27.2791 11C26.755 11 26.2626 11.2202 25.8184 11.6228L25.8174 11.6234C23.7555 12.8475 18.3028 15.7322 12.7238 15.7322C12.7232 15.7322 12.7229 15.7326 12.7222 15.7326C12.7216 15.7326 12.7212 15.7322 12.7206 15.7322H11.1029C9.94341 15.7322 9 16.6522 9 17.7829V20.9377C9 22.0684 9.94341 22.9883 11.1029 22.9883H12.2353V28.8248C12.2353 29.9554 13.1787 30.8754 14.3382 30.8754C15.4978 30.8754 16.4412 29.9554 16.4412 28.8248V23.378C20.5869 24.2074 24.2201 26.1504 25.818 27.0981C25.8187 27.0984 25.8193 27.0987 25.82 27.0991C26.2639 27.5007 26.7556 27.7209 27.2794 27.7209C29.4005 27.7209 31 24.1266 31 19.3606C31 14.5946 29.4001 11 27.2791 11ZM13.2091 16.6721C17.7269 16.549 22.0081 14.7457 24.6291 13.3806C23.9606 14.8757 23.5585 16.9705 23.5585 19.3603C23.5585 21.7494 23.9606 23.8442 24.6287 25.3393C22.0075 23.9748 17.7253 22.1715 13.2091 22.0485V16.6721ZM24.5291 19.3603C24.5291 18.6981 24.5656 18.0712 24.6268 17.4762C25.6139 17.5642 26.3894 18.3753 26.3894 19.3603C26.3894 20.3452 25.6139 21.156 24.6268 21.2443C24.5656 20.6493 24.5291 20.0225 24.5291 19.3603ZM9.97026 20.9377V17.7829C9.97026 17.174 10.4782 16.6787 11.1026 16.6787H12.2385V22.0419H11.1026C10.4782 22.0419 9.97026 21.5466 9.97026 20.9377ZM15.4703 28.8248C15.4703 29.4336 14.9623 29.9289 14.3379 29.9289C13.7135 29.9289 13.2056 29.4336 13.2056 28.8248V22.9962C13.9671 23.0183 14.7249 23.0931 15.4703 23.207V28.8248ZM27.2791 26.7741C26.2826 26.7741 25.2017 24.9838 24.7491 22.1845C26.2137 22.0368 27.36 20.8266 27.36 19.3603C27.36 17.8939 26.2137 16.6837 24.7491 16.5361C25.2017 13.7368 26.2826 11.9464 27.2791 11.9464C28.58 11.9464 30.0291 14.9912 30.0291 19.3603C30.0291 23.7294 28.58 26.7741 27.2791 26.7741Z" fill="white"/>
</svg>
