<svg width="40" height="40" viewBox="0 0 40 40" fill="none" xmlns="http://www.w3.org/2000/svg">
<circle cx="20" cy="20" r="20" fill="#F0A744"/>
<path d="M30.6411 13H23.5972V11.5C23.5972 10.65 22.9431 10 22.0878 10H18.0627C17.2074 10 16.5533 10.65 16.5533 11.5V13H9.50941C8.65408 13 8 13.65 8 14.5V18.5C8 19.15 8.40251 19.7 9.00627 19.9V28.5C9.00627 29.35 9.66035 30 10.5157 30H29.6348C30.4901 30 31.1442 29.35 31.1442 28.5V19.9C31.748 19.7 32.1505 19.15 32.1505 18.5V14.5C32.1505 13.7 31.4964 13 30.6411 13ZM17.5596 11.5C17.5596 11.2 17.7608 11 18.0627 11H22.0878C22.3897 11 22.5909 11.2 22.5909 11.5V13H17.5596V11.5ZM9.00627 14.5C9.00627 14.2 9.20752 14 9.50941 14H30.6411C30.943 14 31.1442 14.2 31.1442 14.5V18.5C31.1442 18.75 30.943 19 30.6914 19C30.6914 19 30.6914 19 30.6411 19H30.5908H27.7229V17.5C27.7229 17.45 27.7229 17.35 27.6726 17.3C27.572 17.1 27.421 17 27.2198 17H24.7041C24.4022 17 24.201 17.2 24.201 17.5V19H15.9495V17.5C15.9495 17.2 15.7483 17 15.4464 17H12.9307C12.6288 17 12.4276 17.2 12.4276 17.5V19H9.55972H9.50941C9.50941 19 9.50941 19 9.45909 19C9.20752 19 9.00627 18.75 9.00627 18.5V14.5ZM25.2072 19.5V18H26.7166V21H25.2072V19.5ZM13.4339 19.5V18H14.9433V19.5V21H13.4339V19.5ZM29.6348 29H10.5157C10.2138 29 10.0125 28.8 10.0125 28.5V20H12.4276V21.5C12.4276 21.8 12.6288 22 12.9307 22H15.4464C15.7483 22 15.9495 21.8 15.9495 21.5V20H24.1506V21.5C24.1506 21.8 24.3519 22 24.6538 22H27.1694C27.4713 22 27.6726 21.8 27.6726 21.5V20H30.0876V28.5C30.1379 28.75 29.9367 29 29.6348 29Z" fill="white"/>
</svg>
