<svg width="40" height="40" viewBox="0 0 40 40" fill="none" xmlns="http://www.w3.org/2000/svg">
<circle cx="20" cy="20" r="20" fill="#F0A744"/>
<path d="M13.2396 22.0024L9.9787 23.7703C9.3797 24.0948 8.87979 24.5738 8.53159 25.1568C8.18338 25.7398 7.99974 26.4054 8 27.0834V30.4635C8 30.6058 8.05688 30.7422 8.15813 30.8429C8.25938 30.9435 8.3967 31 8.53989 31H30.6754C30.8186 31 30.9559 30.9435 31.0572 30.8429C31.1584 30.7422 31.2153 30.6058 31.2153 30.4635V27.1558C31.2172 26.4545 31.0215 25.7667 30.6503 25.1703C30.2791 24.5738 29.7473 24.0926 29.1151 23.781L25.6247 22.0454C25.5447 22.0087 25.4767 21.9501 25.4289 21.8765C25.3811 21.8028 25.3554 21.7172 25.3548 21.6296V20.5726C25.4106 20.5011 25.4682 20.4242 25.5276 20.3419C25.9767 19.7099 26.3398 19.0217 26.6073 18.295C26.8951 18.1222 27.1332 17.8786 27.2987 17.5878C27.4642 17.2969 27.5515 16.9686 27.5521 16.6345V15.1724C27.5521 14.7683 27.4247 14.3742 27.1877 14.0457V13.1846C27.2281 12.6937 27.1704 12.1997 27.018 11.731C26.8656 11.2624 26.6214 10.8283 26.2996 10.4537C25.4547 9.4933 24.1103 9.00238 22.3071 9.00238C21.381 8.97852 20.4605 9.15233 19.6077 9.51208C18.7552 9.15112 17.8344 8.97726 16.9082 9.00238C15.105 9.00238 13.7606 9.49062 12.9103 10.4537C12.2649 11.2085 11.9457 12.1862 12.0222 13.1739V14.0538C11.7857 14.3797 11.6574 14.7707 11.6551 15.1724V16.6264C11.6543 16.8887 11.7073 17.1483 11.8108 17.3895C11.9143 17.6307 12.0661 17.8484 12.257 18.0295C12.5151 18.9344 12.9298 19.7877 13.4826 20.5511V21.5893C13.4837 21.6736 13.4616 21.7566 13.4188 21.8294C13.376 21.9022 13.3141 21.962 13.2396 22.0024ZM22.3071 10.0754C23.7864 10.0754 24.8581 10.4403 25.4925 11.1485C25.945 11.6894 26.1685 12.3838 26.116 13.0854C26.115 13.105 26.115 13.1247 26.116 13.1444V14.2174C26.1156 14.35 26.1647 14.4781 26.2537 14.5769C26.4026 14.7396 26.4837 14.9525 26.4805 15.1724V16.6264C26.4832 16.797 26.4349 16.9646 26.3417 17.1079C26.2485 17.2512 26.1145 17.3637 25.9568 17.4312C25.8889 17.4612 25.8279 17.5048 25.7778 17.5593C25.7276 17.6137 25.6893 17.6779 25.6652 17.7478C25.4267 18.4544 25.0866 19.123 24.6556 19.7329C24.5719 19.851 24.4883 19.961 24.41 20.0548C24.3295 20.1514 24.2856 20.2729 24.2858 20.3982V21.6403C24.2847 21.9262 24.3643 22.2068 24.5155 22.45C24.6668 22.6933 24.8837 22.8895 25.1415 23.0165L28.6346 24.7521C29.0874 24.9745 29.4684 25.3186 29.7342 25.7454C30 26.1722 30.14 26.6646 30.1382 27.1665V29.9269H25.8164V27.1558C25.8183 26.4545 25.6226 25.7667 25.2514 25.1703C24.8802 24.5738 24.3484 24.0926 23.7162 23.781L20.2258 22.0454C20.1457 22.0087 20.0778 21.9501 20.03 21.8765C19.9822 21.8028 19.9565 21.7172 19.9559 21.6296V20.5726C20.0117 20.5011 20.0693 20.4242 20.1286 20.3419C20.5778 19.7099 20.9409 19.0217 21.2084 18.295C21.4962 18.1222 21.7343 17.8786 21.8998 17.5878C22.0653 17.2969 22.1526 16.9686 22.1532 16.6345V15.1724C22.1532 14.7683 22.0258 14.3742 21.7888 14.0457V13.1846C21.8292 12.6937 21.7715 12.1997 21.6191 11.731C21.4667 11.2624 21.2225 10.8283 20.9007 10.4537C20.8386 10.3839 20.7684 10.3222 20.7036 10.2579C21.2282 10.1298 21.767 10.0685 22.3071 10.0754ZM14.4517 20.0522C13.8991 19.322 13.4948 18.4919 13.2612 17.6083C13.2326 17.4927 13.1662 17.3898 13.0723 17.3159C12.9668 17.2353 12.8815 17.1317 12.823 17.0131C12.7645 16.8944 12.7343 16.7639 12.7348 16.6318V15.1724C12.7357 14.9581 12.8165 14.7516 12.9616 14.593C13.0506 14.4942 13.0997 14.3661 13.0993 14.2335V13.1471C13.1005 13.1265 13.1005 13.1059 13.0993 13.0854C13.0456 12.3886 13.2695 11.6988 13.7228 11.1646C14.3599 10.443 15.4316 10.0915 16.9082 10.0915C17.734 10.0605 18.5551 10.227 19.3026 10.5771L19.3755 10.6173C19.6454 10.762 19.8883 10.9516 20.0936 11.178C20.5461 11.719 20.7696 12.4133 20.7171 13.1149C20.7161 13.1345 20.7161 13.1542 20.7171 13.1739V14.2469C20.7167 14.3796 20.7658 14.5076 20.8548 14.6064C20.9968 14.7616 21.0774 14.9627 21.0816 15.1724V16.6264C21.0843 16.797 21.036 16.9646 20.9428 17.1079C20.8495 17.2512 20.7156 17.3637 20.5579 17.4312C20.49 17.4612 20.429 17.5048 20.3789 17.5593C20.3287 17.6137 20.2904 17.6779 20.2663 17.7478C20.0278 18.4544 19.6877 19.123 19.2567 19.7329C19.173 19.851 19.0894 19.961 19.0111 20.0548C18.9306 20.1514 18.8867 20.2729 18.8869 20.3982V21.6403C18.8858 21.9262 18.9654 22.2068 19.1166 22.45C19.2679 22.6933 19.4848 22.8895 19.7426 23.0165L23.2357 24.7521C23.6885 24.9745 24.0695 25.3186 24.3353 25.7454C24.6011 26.1722 24.7411 26.6646 24.7393 27.1665V29.9269H9.07978V27.0834C9.07957 26.5979 9.2111 26.1215 9.46051 25.7041C9.70993 25.2868 10.068 24.944 10.497 24.7119L13.7579 22.9521C14.0014 22.821 14.2049 22.6274 14.3474 22.3915C14.4898 22.1555 14.5659 21.8859 14.5678 21.6108V20.3794C14.5666 20.2606 14.5258 20.1455 14.4517 20.0522Z" fill="white"/>
</svg>
