<svg width="40" height="40" viewBox="0 0 40 40" fill="none" xmlns="http://www.w3.org/2000/svg">
<circle cx="20" cy="20" r="20" fill="#F0A744"/>
<path d="M10.0452 10.5643C12.3675 7.90075 15.6519 6.26769 19.1772 6.02379C24.7528 5.68444 28.4008 9.07796 28.9879 9.65486M9.16968 15.9872C9.76354 14.9963 13.2419 9.39357 19.1432 8.89132C25.2516 8.37212 29.2322 13.6864 29.8736 14.5687M9.38674 19.7472C10.1828 19.1534 10.9081 18.4702 11.5484 17.7111C12.6581 16.3944 12.804 15.675 13.537 14.7282C15.1931 12.5733 17.7348 11.9251 18.1183 11.8335C21.6543 10.9817 24.5049 12.8889 24.7322 13.045C25.7959 13.7902 26.6728 14.7713 27.2945 15.9116C27.9162 17.0519 28.2657 18.3205 28.3158 19.6182C28.3565 22.0514 27.0636 23.0355 27.5794 25.2786C27.9111 26.554 28.6209 27.6992 29.6155 28.5636M9.3019 23.8092C10.7898 22.7682 12.09 21.4818 13.1468 20.0051C14.5517 18.0233 14.6772 16.822 16.2586 15.6818C17.3429 14.874 18.6669 14.4534 20.0186 14.4872C20.9386 14.5391 21.834 14.8028 22.6352 15.2578C23.4364 15.7129 24.1215 16.3469 24.6372 17.1104C26.7378 20.4157 23.4054 23.9755 25.4585 27.9154C26.0616 29.0235 26.9391 29.9583 28.007 30.6302M9 27.6541C12.682 25.2617 14.769 22.7912 16.0008 20.9553C16.9917 19.4757 17.8503 17.762 19.4996 17.5414C20.1349 17.4701 20.7772 17.588 21.3458 17.8801C21.9145 18.1723 22.3842 18.6258 22.6963 19.1839C23.1408 20.0933 22.9677 21.2505 21.9599 23.117C19.8423 27.0433 16.1298 30.1958 12.9738 32.3677M10.079 30.637C12.5299 29.0078 14.7657 27.0764 16.7337 24.8884C17.9381 23.5446 19.0364 22.1093 20.0187 20.5956M29.8735 16.5064C31.1333 19.3915 31.2724 22.6426 30.2637 25.6248M22.3095 26.748C21.8956 27.7329 21.8192 28.8271 22.0923 29.8599C22.2767 30.4931 22.5858 31.0831 23.0013 31.5954C23.4167 32.1076 23.9303 32.5317 24.5119 32.8428M15.6989 33.2738C16.1541 32.812 16.6621 32.4053 17.2124 32.0623C18.0268 31.5567 18.5698 31.2071 19.1569 31.2852C20.0562 31.404 20.8027 32.534 21.1014 34" stroke="white" stroke-miterlimit="10" stroke-linecap="round"/>
</svg>
