<svg width="208" height="41" viewBox="0 0 208 41" fill="none" xmlns="http://www.w3.org/2000/svg">
<circle cx="20" cy="20" r="20" fill="#F0A744"/>
<path d="M20.2196 21.9405C20.1179 21.9405 20.0165 21.9153 19.9246 21.865L8.316 15.5085C8.12122 15.4019 8 15.1984 8 14.9771C8 14.7558 8.12098 14.5521 8.31576 14.4454L19.9246 8.07559C20.1084 7.9748 20.3317 7.9748 20.5153 8.07559L32.1241 14.4454C32.3191 14.5523 32.4399 14.7561 32.4399 14.9771C32.4399 15.1981 32.3187 15.4019 32.1236 15.5085L20.5143 21.865C20.4227 21.9153 20.3212 21.9405 20.2196 21.9405ZM9.87599 14.9764L20.2196 20.6402L30.5634 14.9764L20.2198 9.30065L9.87599 14.9764Z" fill="white"/>
<path d="M12.2769 20.6423C11.9394 20.6423 11.6659 20.3705 11.6659 20.0351V17.3285C11.6659 16.9931 11.9394 16.7214 12.2769 16.7214C12.6144 16.7214 12.8879 16.9931 12.8879 17.3285V20.0351C12.8879 20.3705 12.6144 20.6423 12.2769 20.6423Z" fill="white"/>
<path d="M28.1621 20.6423C27.8246 20.6423 27.5511 20.3705 27.5511 20.0351V17.3285C27.5511 16.9931 27.8246 16.7214 28.1621 16.7214C28.4996 16.7214 28.7731 16.9931 28.7731 17.3285V20.0351C28.7731 20.3705 28.4996 20.6423 28.1621 20.6423Z" fill="white"/>
<path d="M20.2198 26.184C15.5032 26.184 11.6659 23.5425 11.6659 20.2956C11.6659 19.9601 11.9394 19.6884 12.2769 19.6884C12.6144 19.6884 12.8879 19.9601 12.8879 20.2956C12.8879 22.8727 16.177 24.9697 20.2198 24.9697C24.2626 24.9697 27.5517 22.8727 27.5517 20.2956C27.5517 19.9601 27.8251 19.6884 28.1627 19.6884C28.5002 19.6884 28.7737 19.9601 28.7737 20.2956C28.7737 23.5425 24.9364 26.184 20.2198 26.184Z" fill="white"/>
<path d="M14.5386 18.5517C14.3199 18.5517 14.1085 18.4346 13.9987 18.2294C13.8404 17.9333 13.9535 17.5656 14.2515 17.4082L19.9009 14.4241C20.1988 14.2667 20.5686 14.3791 20.7272 14.6752C20.8858 14.9713 20.7724 15.339 20.4745 15.4963L14.8248 18.4805C14.7334 18.5289 14.6354 18.5517 14.5386 18.5517Z" fill="white"/>
<path d="M14.4466 28.0556C14.1091 28.0556 13.8356 27.7839 13.8356 27.4485V18.2797C13.8356 17.9443 14.1091 17.6726 14.4466 17.6726C14.7841 17.6726 15.0576 17.9443 15.0576 18.2797V27.4485C15.0576 27.7836 14.7841 28.0556 14.4466 28.0556Z" fill="white"/>
<path d="M15.6984 31H13.1934C12.8559 31 12.5824 30.7282 12.5824 30.3928V28.7534C12.5824 27.7324 13.4182 26.9015 14.4459 26.9015C15.4736 26.9015 16.3094 27.7324 16.3094 28.7534V30.3928C16.3094 30.728 16.0359 31 15.6984 31ZM13.8044 29.7856H15.0874V28.7534C15.0874 28.402 14.7995 28.1159 14.4459 28.1159C14.0923 28.1159 13.8044 28.4017 13.8044 28.7534V29.7856Z" fill="white"/>
<circle cx="62" cy="20" r="20" fill="#F0A744"/>
<path d="M69.2791 11C68.755 11 68.2626 11.2202 67.8184 11.6228L67.8174 11.6234C65.7555 12.8475 60.3028 15.7322 54.7238 15.7322C54.7232 15.7322 54.7229 15.7326 54.7222 15.7326C54.7216 15.7326 54.7212 15.7322 54.7206 15.7322H53.1029C51.9434 15.7322 51 16.6522 51 17.7829V20.9377C51 22.0684 51.9434 22.9883 53.1029 22.9883H54.2353V28.8248C54.2353 29.9554 55.1787 30.8754 56.3382 30.8754C57.4978 30.8754 58.4412 29.9554 58.4412 28.8248V23.378C62.5869 24.2074 66.2201 26.1504 67.818 27.0981C67.8187 27.0984 67.8193 27.0987 67.82 27.0991C68.2639 27.5007 68.7556 27.7209 69.2794 27.7209C71.4005 27.7209 73 24.1266 73 19.3606C73 14.5946 71.4001 11 69.2791 11ZM55.2091 16.6721C59.7269 16.549 64.0081 14.7457 66.6291 13.3806C65.9606 14.8757 65.5585 16.9705 65.5585 19.3603C65.5585 21.7494 65.9606 23.8442 66.6287 25.3393C64.0075 23.9748 59.7253 22.1715 55.2091 22.0485V16.6721ZM66.5291 19.3603C66.5291 18.6981 66.5656 18.0712 66.6268 17.4762C67.6139 17.5642 68.3894 18.3753 68.3894 19.3603C68.3894 20.3452 67.6139 21.156 66.6268 21.2443C66.5656 20.6493 66.5291 20.0225 66.5291 19.3603ZM51.9703 20.9377V17.7829C51.9703 17.174 52.4782 16.6787 53.1026 16.6787H54.2385V22.0419H53.1026C52.4782 22.0419 51.9703 21.5466 51.9703 20.9377ZM57.4703 28.8248C57.4703 29.4336 56.9623 29.9289 56.3379 29.9289C55.7135 29.9289 55.2056 29.4336 55.2056 28.8248V22.9962C55.9671 23.0183 56.7249 23.0931 57.4703 23.207V28.8248ZM69.2791 26.7741C68.2826 26.7741 67.2017 24.9838 66.7491 22.1845C68.2137 22.0368 69.36 20.8266 69.36 19.3603C69.36 17.8939 68.2137 16.6837 66.7491 16.5361C67.2017 13.7368 68.2826 11.9464 69.2791 11.9464C70.58 11.9464 72.0291 14.9912 72.0291 19.3603C72.0291 23.7294 70.58 26.7741 69.2791 26.7741Z" fill="white"/>
<circle cx="146" cy="21" r="20" fill="#F0A744"/>
<path d="M139.24 23.0024L135.979 24.7703C135.38 25.0948 134.88 25.5738 134.532 26.1568C134.183 26.7398 134 27.4054 134 28.0834V31.4635C134 31.6058 134.057 31.7422 134.158 31.8429C134.259 31.9435 134.397 32 134.54 32H156.675C156.819 32 156.956 31.9435 157.057 31.8429C157.158 31.7422 157.215 31.6058 157.215 31.4635V28.1558C157.217 27.4545 157.021 26.7667 156.65 26.1703C156.279 25.5738 155.747 25.0926 155.115 24.781L151.625 23.0454C151.545 23.0087 151.477 22.9501 151.429 22.8765C151.381 22.8028 151.355 22.7172 151.355 22.6296V21.5726C151.411 21.5011 151.468 21.4242 151.528 21.3419C151.977 20.7099 152.34 20.0217 152.607 19.295C152.895 19.1222 153.133 18.8786 153.299 18.5878C153.464 18.2969 153.551 17.9686 153.552 17.6345V16.1724C153.552 15.7683 153.425 15.3742 153.188 15.0457V14.1846C153.228 13.6937 153.17 13.1997 153.018 12.731C152.866 12.2624 152.621 11.8283 152.3 11.4537C151.455 10.4933 150.11 10.0024 148.307 10.0024C147.381 9.97852 146.46 10.1523 145.608 10.5121C144.755 10.1511 143.834 9.97726 142.908 10.0024C141.105 10.0024 139.761 10.4906 138.91 11.4537C138.265 12.2085 137.946 13.1862 138.022 14.1739V15.0538C137.786 15.3797 137.657 15.7707 137.655 16.1724V17.6264C137.654 17.8887 137.707 18.1483 137.811 18.3895C137.914 18.6307 138.066 18.8484 138.257 19.0295C138.515 19.9344 138.93 20.7877 139.483 21.5511V22.5893C139.484 22.6736 139.462 22.7566 139.419 22.8294C139.376 22.9022 139.314 22.962 139.24 23.0024ZM148.307 11.0754C149.786 11.0754 150.858 11.4403 151.492 12.1485C151.945 12.6894 152.169 13.3838 152.116 14.0854C152.115 14.105 152.115 14.1247 152.116 14.1444V15.2174C152.116 15.35 152.165 15.4781 152.254 15.5769C152.403 15.7396 152.484 15.9525 152.48 16.1724V17.6264C152.483 17.797 152.435 17.9646 152.342 18.1079C152.248 18.2512 152.114 18.3637 151.957 18.4312C151.889 18.4612 151.828 18.5048 151.778 18.5593C151.728 18.6137 151.689 18.6779 151.665 18.7478C151.427 19.4544 151.087 20.123 150.656 20.7329C150.572 20.851 150.488 20.961 150.41 21.0548C150.329 21.1514 150.286 21.2729 150.286 21.3982V22.6403C150.285 22.9262 150.364 23.2068 150.516 23.45C150.667 23.6933 150.884 23.8895 151.142 24.0165L154.635 25.7521C155.087 25.9745 155.468 26.3186 155.734 26.7454C156 27.1722 156.14 27.6646 156.138 28.1665V30.9269H151.816V28.1558C151.818 27.4545 151.623 26.7667 151.251 26.1703C150.88 25.5738 150.348 25.0926 149.716 24.781L146.226 23.0454C146.146 23.0087 146.078 22.9501 146.03 22.8765C145.982 22.8028 145.957 22.7172 145.956 22.6296V21.5726C146.012 21.5011 146.069 21.4242 146.129 21.3419C146.578 20.7099 146.941 20.0217 147.208 19.295C147.496 19.1222 147.734 18.8786 147.9 18.5878C148.065 18.2969 148.153 17.9686 148.153 17.6345V16.1724C148.153 15.7683 148.026 15.3742 147.789 15.0457V14.1846C147.829 13.6937 147.772 13.1997 147.619 12.731C147.467 12.2624 147.223 11.8283 146.901 11.4537C146.839 11.3839 146.768 11.3222 146.704 11.2579C147.228 11.1298 147.767 11.0685 148.307 11.0754ZM140.452 21.0522C139.899 20.322 139.495 19.4919 139.261 18.6083C139.233 18.4927 139.166 18.3898 139.072 18.3159C138.967 18.2353 138.882 18.1317 138.823 18.0131C138.764 17.8944 138.734 17.7639 138.735 17.6318V16.1724C138.736 15.9581 138.816 15.7516 138.962 15.593C139.051 15.4942 139.1 15.3661 139.099 15.2335V14.1471C139.1 14.1265 139.1 14.1059 139.099 14.0854C139.046 13.3886 139.27 12.6988 139.723 12.1646C140.36 11.443 141.432 11.0915 142.908 11.0915C143.734 11.0605 144.555 11.227 145.303 11.5771L145.376 11.6173C145.645 11.762 145.888 11.9516 146.094 12.178C146.546 12.719 146.77 13.4133 146.717 14.1149C146.716 14.1345 146.716 14.1542 146.717 14.1739V15.2469C146.717 15.3796 146.766 15.5076 146.855 15.6064C146.997 15.7616 147.077 15.9627 147.082 16.1724V17.6264C147.084 17.797 147.036 17.9646 146.943 18.1079C146.85 18.2512 146.716 18.3637 146.558 18.4312C146.49 18.4612 146.429 18.5048 146.379 18.5593C146.329 18.6137 146.29 18.6779 146.266 18.7478C146.028 19.4544 145.688 20.123 145.257 20.7329C145.173 20.851 145.089 20.961 145.011 21.0548C144.931 21.1514 144.887 21.2729 144.887 21.3982V22.6403C144.886 22.9262 144.965 23.2068 145.117 23.45C145.268 23.6933 145.485 23.8895 145.743 24.0165L149.236 25.7521C149.689 25.9745 150.069 26.3186 150.335 26.7454C150.601 27.1722 150.741 27.6646 150.739 28.1665V30.9269H135.08V28.0834C135.08 27.5979 135.211 27.1215 135.461 26.7041C135.71 26.2868 136.068 25.944 136.497 25.7119L139.758 23.9521C140.001 23.821 140.205 23.6274 140.347 23.3915C140.49 23.1555 140.566 22.8859 140.568 22.6108V21.3794C140.567 21.2606 140.526 21.1455 140.452 21.0522Z" fill="white"/>
<circle cx="104" cy="20" r="20" fill="#F0A744"/>
<path d="M114.641 13H107.597V11.5C107.597 10.65 106.943 10 106.088 10H102.063C101.207 10 100.553 10.65 100.553 11.5V13H93.5094C92.6541 13 92 13.65 92 14.5V18.5C92 19.15 92.4025 19.7 93.0063 19.9V28.5C93.0063 29.35 93.6603 30 94.5157 30H113.635C114.49 30 115.144 29.35 115.144 28.5V19.9C115.748 19.7 116.15 19.15 116.15 18.5V14.5C116.15 13.7 115.496 13 114.641 13ZM101.56 11.5C101.56 11.2 101.761 11 102.063 11H106.088C106.39 11 106.591 11.2 106.591 11.5V13H101.56V11.5ZM93.0063 14.5C93.0063 14.2 93.2075 14 93.5094 14H114.641C114.943 14 115.144 14.2 115.144 14.5V18.5C115.144 18.75 114.943 19 114.691 19C114.691 19 114.691 19 114.641 19H114.591H111.723V17.5C111.723 17.45 111.723 17.35 111.673 17.3C111.572 17.1 111.421 17 111.22 17H108.704C108.402 17 108.201 17.2 108.201 17.5V19H99.9495V17.5C99.9495 17.2 99.7483 17 99.4464 17H96.9307C96.6288 17 96.4276 17.2 96.4276 17.5V19H93.5597H93.5094C93.5094 19 93.5094 19 93.4591 19C93.2075 19 93.0063 18.75 93.0063 18.5V14.5ZM109.207 19.5V18H110.717V21H109.207V19.5ZM97.4339 19.5V18H98.9433V19.5V21H97.4339V19.5ZM113.635 29H94.5157C94.2138 29 94.0125 28.8 94.0125 28.5V20H96.4276V21.5C96.4276 21.8 96.6288 22 96.9307 22H99.4464C99.7483 22 99.9495 21.8 99.9495 21.5V20H108.151V21.5C108.151 21.8 108.352 22 108.654 22H111.169C111.471 22 111.673 21.8 111.673 21.5V20H114.088V28.5C114.138 28.75 113.937 29 113.635 29Z" fill="white"/>
<circle cx="188" cy="21" r="20" fill="#F0A744"/>
<path d="M178.045 11.5643C180.367 8.90075 183.652 7.26769 187.177 7.02379C192.753 6.68444 196.401 10.078 196.988 10.6549M177.17 16.9872C177.764 15.9963 181.242 10.3936 187.143 9.89132C193.252 9.37212 197.232 14.6864 197.874 15.5687M177.387 20.7472C178.183 20.1534 178.908 19.4702 179.548 18.7111C180.658 17.3944 180.804 16.675 181.537 15.7282C183.193 13.5733 185.735 12.9251 186.118 12.8335C189.654 11.9817 192.505 13.8889 192.732 14.045C193.796 14.7902 194.673 15.7713 195.295 16.9116C195.916 18.0519 196.266 19.3205 196.316 20.6182C196.357 23.0514 195.064 24.0355 195.579 26.2786C195.911 27.554 196.621 28.6992 197.616 29.5636M177.302 24.8092C178.79 23.7682 180.09 22.4818 181.147 21.0051C182.552 19.0233 182.677 17.822 184.259 16.6818C185.343 15.874 186.667 15.4534 188.019 15.4872C188.939 15.5391 189.834 15.8028 190.635 16.2578C191.436 16.7129 192.122 17.3469 192.637 18.1104C194.738 21.4157 191.405 24.9755 193.458 28.9154C194.062 30.0235 194.939 30.9583 196.007 31.6302M177 28.6541C180.682 26.2617 182.769 23.7912 184.001 21.9553C184.992 20.4757 185.85 18.762 187.5 18.5414C188.135 18.4701 188.777 18.588 189.346 18.8801C189.914 19.1723 190.384 19.6258 190.696 20.1839C191.141 21.0933 190.968 22.2505 189.96 24.117C187.842 28.0433 184.13 31.1958 180.974 33.3677M178.079 31.637C180.53 30.0078 182.766 28.0764 184.734 25.8884C185.938 24.5446 187.036 23.1093 188.019 21.5956M197.873 17.5064C199.133 20.3915 199.272 23.6426 198.264 26.6248M190.309 27.748C189.896 28.7329 189.819 29.8271 190.092 30.8599C190.277 31.4931 190.586 32.0831 191.001 32.5954C191.417 33.1076 191.93 33.5317 192.512 33.8428M183.699 34.2738C184.154 33.812 184.662 33.4053 185.212 33.0623C186.027 32.5567 186.57 32.2071 187.157 32.2852C188.056 32.404 188.803 33.534 189.101 35" stroke="white" stroke-miterlimit="10" stroke-linecap="round"/>
</svg>
