<svg width="494" height="371" viewBox="0 0 494 371" fill="none" xmlns="http://www.w3.org/2000/svg">
<path d="M341.169 318.132C400.202 318.132 448.058 310.769 448.058 301.685C448.058 292.601 400.202 285.237 341.169 285.237C282.135 285.237 234.279 292.601 234.279 301.685C234.279 310.769 282.135 318.132 341.169 318.132Z" fill="#739183"/>
<path d="M241.504 307.621C257.003 301.499 295.782 297.109 341.169 297.109C386.555 297.109 425.334 301.437 440.833 307.621C445.464 305.766 448.058 303.787 448.058 301.685C448.058 292.595 400.202 285.237 341.169 285.237C282.136 285.237 234.279 292.595 234.279 301.685C234.279 303.787 236.873 305.766 241.504 307.621Z" fill="#84A696"/>
<path d="M114.485 339.218C155.648 339.218 189.018 334.068 189.018 327.717C189.018 321.365 155.648 316.216 114.485 316.216C73.3223 316.216 39.9531 321.365 39.9531 327.717C39.9531 334.068 73.3223 339.218 114.485 339.218Z" fill="#739183"/>
<path d="M44.9549 331.859C55.7611 327.593 82.8076 324.563 114.485 324.563C146.163 324.563 173.21 327.593 184.016 331.859C187.289 330.561 189.018 329.201 189.018 327.717C189.018 321.41 155.673 316.216 114.485 316.216C73.2981 316.216 39.9531 321.348 39.9531 327.717C39.9531 329.201 41.6821 330.561 44.9549 331.859Z" fill="#84A696"/>
<g opacity="0.8">
<path opacity="0.8" d="M94.0463 199.351C124.535 199.351 149.251 195.558 149.251 190.88C149.251 186.201 124.535 182.408 94.0463 182.408C63.5577 182.408 38.8418 186.201 38.8418 190.88C38.8418 195.558 63.5577 199.351 94.0463 199.351Z" fill="#739183"/>
<path opacity="0.8" d="M42.6094 193.971C50.6369 190.818 70.6439 188.53 94.1089 188.53C117.574 188.53 137.581 190.756 145.608 193.971C148.017 193.044 149.313 191.993 149.313 190.88C149.313 186.18 124.613 182.408 94.1089 182.408C63.6044 182.408 38.9044 186.242 38.9044 190.88C38.8426 191.993 40.2011 193.044 42.6094 193.971Z" fill="#84A696"/>
</g>
<g opacity="0.7">
<path opacity="0.7" d="M234.28 167.259C260.881 167.259 282.445 163.937 282.445 159.839C282.445 155.741 260.881 152.419 234.28 152.419C207.679 152.419 186.115 155.741 186.115 159.839C186.115 163.937 207.679 167.259 234.28 167.259Z" fill="#739183"/>
<path opacity="0.7" d="M189.388 162.498C196.366 159.716 213.841 157.737 234.28 157.737C254.719 157.737 272.195 159.716 279.172 162.498C281.272 161.694 282.445 160.767 282.445 159.839C282.445 155.758 260.894 152.419 234.28 152.419C207.666 152.419 186.115 155.758 186.115 159.839C186.177 160.767 187.288 161.632 189.388 162.498Z" fill="#84A696"/>
</g>
<g opacity="0.8">
<path opacity="0.8" d="M380.073 209.244C421.713 209.244 455.469 204.039 455.469 197.619C455.469 191.199 421.713 185.995 380.073 185.995C338.432 185.995 304.676 191.199 304.676 197.619C304.676 204.039 338.432 209.244 380.073 209.244Z" fill="#739183"/>
<path opacity="0.8" d="M309.8 201.824C320.73 197.496 348.085 194.404 380.072 194.404C412.058 194.404 439.414 197.496 450.343 201.824C453.616 200.525 455.407 199.103 455.407 197.619C455.407 191.189 421.691 185.995 380.01 185.995C338.329 185.995 304.613 191.189 304.613 197.619C304.737 199.103 306.528 200.525 309.8 201.824Z" fill="#84A696"/>
</g>
<g opacity="0.5">
<path opacity="0.5" d="M370.624 126.325C394.633 126.325 414.096 123.336 414.096 119.647C414.096 115.959 394.633 112.969 370.624 112.969C346.615 112.969 327.152 115.959 327.152 119.647C327.152 123.336 346.615 126.325 370.624 126.325Z" fill="#739183"/>
<path opacity="0.5" d="M330.116 122.059C336.414 119.586 352.16 117.792 370.624 117.792C389.087 117.792 404.833 119.586 411.132 122.059C413.046 121.317 414.034 120.513 414.034 119.647C414.034 115.937 394.583 112.969 370.562 112.969C346.541 112.969 327.09 115.937 327.09 119.647C327.213 120.451 328.201 121.317 330.116 122.059Z" fill="#84A696"/>
</g>
<g opacity="0.45">
<path opacity="0.45" d="M143.075 126.387C163.742 126.387 180.495 123.813 180.495 120.637C180.495 117.461 163.742 114.886 143.075 114.886C122.408 114.886 105.654 117.461 105.654 120.637C105.654 123.813 122.408 126.387 143.075 126.387Z" fill="#739183"/>
<path opacity="0.45" d="M108.186 122.739C113.62 120.575 127.205 119.091 143.075 119.091C158.945 119.091 172.53 120.637 177.964 122.739C179.569 122.121 180.495 121.379 180.495 120.637C180.495 117.483 163.761 114.886 143.075 114.886C122.389 114.886 105.654 117.483 105.654 120.637C105.654 121.379 106.581 122.059 108.186 122.739Z" fill="#84A696"/>
</g>
<path d="M129.799 257.536L182.78 261.864V261.617C182.78 261.617 185.621 261.741 185.621 260.318C185.621 258.896 183.521 258.463 183.521 258.463L129.799 257.536Z" fill="#F2F2F2"/>
<path d="M312.148 261.493C340.863 261.493 364.141 259.638 364.141 257.35C364.141 255.062 340.863 253.208 312.148 253.208C283.433 253.208 260.154 255.062 260.154 257.35C260.154 259.638 283.433 261.493 312.148 261.493Z" fill="#F2F2F2"/>
<path d="M183.584 263.163C222.496 263.163 254.04 258.733 254.04 253.27C254.04 247.806 222.496 243.376 183.584 243.376C144.672 243.376 113.127 247.806 113.127 253.27C113.127 258.733 144.672 263.163 183.584 263.163Z" fill="#739183"/>
<path d="M117.882 256.794C128.07 253.084 153.635 250.487 183.584 250.487C213.532 250.487 239.097 253.084 249.286 256.794C252.373 255.681 254.04 254.506 254.04 253.208C254.04 247.766 222.486 243.314 183.584 243.314C144.681 243.314 113.127 247.766 113.127 253.208C113.127 254.506 114.794 255.681 117.882 256.794Z" fill="#84A696"/>
<path d="M258.302 157.18C259.475 156.067 261.019 155.758 261.698 156.5C262.377 157.242 261.945 158.726 260.772 159.839C259.599 160.952 258.055 161.261 257.376 160.519C256.696 159.777 257.129 158.293 258.302 157.18Z" fill="#FFD3BA"/>
<path d="M256.695 161.88C257.375 160.396 258.671 159.592 259.598 159.963C260.524 160.396 260.709 161.942 259.968 163.364C259.289 164.848 257.992 165.652 257.066 165.281C256.201 164.848 256.016 163.364 256.695 161.88Z" fill="#FFD3BA"/>
<path d="M260.956 159.963C262.376 159.221 263.92 159.345 264.414 160.272C264.846 161.2 264.044 162.498 262.623 163.24C261.203 163.982 259.659 163.858 259.165 162.931C258.671 162.003 259.474 160.705 260.956 159.963Z" fill="#FFD3BA"/>
<path d="M272.134 254.568L278.988 200.587L304.861 160.396L301.465 85.2065L327.523 83.6606L343.702 86.7523L367.537 98.4388L353.644 171.835L327.153 215.675L357.596 253.702L351.915 259.144L353.644 253.888L316.285 219.879L322.275 178.018L287.201 208.873L274.295 257.227H267.379L272.134 254.568Z" fill="#424242"/>
<path d="M301.464 85.2065L283.618 125.027L258.115 157.057L260.894 159.901L290.843 131.52L302.884 116.432L301.464 85.2065Z" fill="#424242"/>
<path d="M183.585 263.101C196.243 263.101 208.099 262.606 218.35 261.802L215.386 219.818L188.401 222.662L171.358 227.176L149.375 240.594L159.749 262.483C167.159 262.915 175.187 263.101 183.585 263.101Z" fill="#424242"/>
<path d="M204.209 225.012L233.911 202.01L256.635 161.756L260.154 163.426L241.506 206.833L216.806 244.551L204.209 225.012Z" fill="#424242"/>
<path d="M168.455 209.986L171.357 227.238L188.4 222.724L182.164 206.152L168.455 209.986Z" fill="#FFD3BA"/>
<path d="M171.234 211.594L172.098 216.788C172.098 216.788 170.431 216.169 170.369 217.468C170.308 219.261 172.284 218.272 172.284 218.272C172.531 221.549 172.098 224.455 171.357 227.176C171.357 227.176 162.651 210.852 168.393 209.8C166.85 202.999 182.905 203.122 182.905 203.122C184.942 208.069 183.584 207.822 171.234 211.594Z" fill="#424242"/>
<path d="M171.357 227.237L184.201 241.706L188.4 222.724L171.357 227.237Z" fill="#F2F2F2"/>
<path d="M181.176 226.001L178.953 226.619L178.459 228.35L180.188 229.958L179.879 236.822L184.202 241.706L185.622 235.461L181.793 229.463L182.534 227.114L181.176 226.001Z" fill="#B35730"/>
<path d="M184.201 241.706L190.685 231.38L188.647 228.907L190.932 226.001L188.4 222.724L184.201 241.706Z" fill="#808080"/>
<path d="M184.2 241.707L173.456 235.956L174.011 232.803L170.615 231.38L171.356 227.238L184.2 241.707Z" fill="#808080"/>
<path d="M345.246 70.4901L343.702 86.7523L327.523 83.6606L332.216 67.8313L345.246 70.4901Z" fill="#FFD3BA"/>
<path d="M342.776 72.1596L342.282 77.1063C342.282 77.1063 343.826 76.4261 343.949 77.6009C344.073 79.2704 342.22 78.4666 342.22 78.4666C342.159 81.5583 342.776 84.2171 343.702 86.6904C343.702 86.6904 350.742 70.9229 345.308 70.3046C345.246 61.2151 330.117 69.7481 328.574 62.5754C326.598 68.3259 329.809 71.5413 342.776 72.1596Z" fill="#424242"/>
<path d="M343.702 86.7523L332.71 101.098L327.523 83.6606L343.702 86.7523Z" fill="#F2F2F2"/>
<path d="M334.5 86.2576L336.6 86.6286L337.156 88.2362L335.673 89.8439L336.415 96.2127L332.709 101.098L330.98 95.3471L334.13 89.5347L333.265 87.3706L334.5 86.2576Z" fill="#B35730"/>
<path d="M332.71 101.098L325.918 91.8845L327.709 89.473L325.424 86.876L327.523 83.6606L332.71 101.098Z" fill="#808080"/>
<path d="M332.711 101.098L342.344 95.0379L341.603 92.0699L344.69 90.5859L343.702 86.7522L332.711 101.098Z" fill="#808080"/>
<path d="M182.781 265.76C184.386 265.945 185.621 266.935 185.498 267.924C185.374 268.913 183.954 269.594 182.349 269.346C180.743 269.161 179.508 268.171 179.632 267.182C179.755 266.255 181.175 265.574 182.781 265.76Z" fill="#FFD3BA"/>
<path d="M346.048 100.541L307.022 135.106L260.895 159.901L262.624 163.364L311.221 143.33L364.696 113.402L346.048 100.541Z" fill="#424242"/>
<path d="M346.048 100.541L307.022 135.106L260.895 159.901L261.327 160.829L308.998 137.888L346.048 100.541Z" fill="#4D4D4D"/>
<path d="M304.242 146.236L304.304 148.771L312.084 146.298L364.695 113.402L311.22 143.33L304.242 146.236Z" fill="#F2F2F2"/>
<path d="M149.374 240.656L129.059 259.7L129.182 266.811L182.411 269.532L182.905 265.636L154.932 261.122L158.081 259.082L149.374 240.656Z" fill="#424242"/>
<path d="M182.904 265.636L182.78 266.811L136.715 259.7L154.931 261.122L182.904 265.636Z" fill="#4D4D4D"/>
<path d="M158.08 259.082L136.715 259.7L154.931 261.122L158.08 259.082Z" fill="#F2F2F2"/>
</svg>
