<svg width="199" height="218" viewBox="0 0 199 218" fill="none" xmlns="http://www.w3.org/2000/svg">
<path d="M49.8334 75.322C58.3157 73.2002 66.4445 71.0785 74.9268 68.9568L99.6667 62.2379L124.407 55.519C132.536 53.0437 141.018 50.9219 149.147 48.4465C165.758 43.8494 182.015 38.8987 198.627 33.9479C192.618 35.3624 186.257 36.7769 180.248 38.5451C180.602 33.5943 180.602 28.9972 180.955 24.0465L99.3133 0L18.0249 23.6928C18.7318 43.1422 19.792 62.5915 22.6195 80.98C15.1975 83.1017 7.7755 85.2235 0.353516 87.6989C16.6112 83.809 33.2223 79.5655 49.8334 75.322ZM24.0332 29.7044V28.29L99.3133 6.36524H99.6667L174.947 28.29V29.7044C174.947 33.2407 174.593 36.4233 174.593 39.9596C173.533 40.3132 172.473 40.6668 171.059 40.6668C171.413 37.4842 171.413 33.9479 171.413 30.7653L99.3133 9.90148L27.5675 30.7653C28.2743 45.9712 29.3346 62.2379 31.4552 78.151C30.3949 78.5046 29.3346 78.8582 28.2743 79.2119C25.8003 62.5915 24.74 45.6175 24.0332 29.7044Z" fill="url(#paint0_linear)"/>
<path d="M148.793 105.734C140.311 107.856 132.182 109.978 123.7 112.1L98.9598 118.818L74.2198 125.537C66.091 128.013 57.6087 130.134 49.4799 132.61C32.8688 137.207 16.6111 142.158 0 147.108C12.7234 144.279 25.0934 141.097 37.8168 137.914C49.4799 163.021 68.565 182.117 99.3132 191.665C144.199 177.874 163.637 143.572 172.826 101.137C181.308 98.6618 190.144 96.1864 198.626 93.3574C182.015 97.2473 165.404 101.491 148.793 105.734ZM159.749 125.891C154.095 141.097 146.673 153.12 137.13 163.021C127.234 173.277 114.864 180.703 100.02 185.653H99.6667H99.3132C84.4693 180.703 72.4527 173.277 62.2033 163.021C55.1347 155.595 49.1265 147.108 44.1785 136.5C45.2388 136.146 46.299 135.792 47.3593 135.792C51.9539 145.694 57.9622 153.827 64.6773 160.546C74.2198 170.094 85.883 177.166 99.6667 182.117C113.804 177.52 125.113 170.448 134.656 160.546C143.845 150.998 151.267 139.329 156.569 124.83C159.043 118.465 161.163 111.392 162.577 104.32C163.991 103.966 165.051 103.613 166.465 103.259C164.697 111.039 162.223 118.818 159.749 125.891Z" fill="url(#paint1_linear)"/>
<path d="M106.383 44.555C105.676 43.8477 104.616 43.4941 103.555 43.8477L100.374 44.9086C99.3141 45.2622 98.6073 45.9695 98.2538 47.0303V47.384C97.547 46.6767 96.4867 45.9695 95.073 46.3231L91.5387 47.384C91.5387 47.384 91.1853 47.384 91.1853 47.7376H90.8318L81.2893 50.213C80.9359 50.213 80.5824 50.5666 80.229 50.9202C79.8756 50.9202 79.1687 50.9202 78.8153 50.9202L75.6344 51.6275C74.9276 51.6275 74.5742 52.3347 73.8673 52.6883C73.1604 52.3347 72.4536 52.3347 71.7467 52.6883L67.5056 53.7492C66.4453 54.1028 65.7385 54.8101 65.385 55.8709C64.3247 55.5173 63.6179 55.1637 62.5576 55.1637C61.8508 55.1637 60.7905 55.1637 60.0836 55.5173C57.963 56.2246 56.5493 56.9318 55.1356 58.3463C54.4288 57.6391 53.3685 57.6391 52.6616 57.9927L47.7136 59.4072C46.6534 59.7608 45.9465 60.4681 45.5931 61.5289L45.2396 61.1753C43.8259 60.1144 42.7656 60.1144 42.0588 60.1144L37.1108 61.5289C35.6971 61.8826 34.9902 62.9434 34.9902 64.3579V86.6363C34.9902 87.6971 35.3437 88.4044 36.0505 89.1116C36.7574 89.4653 37.1108 89.8189 37.8177 89.8189C38.1711 89.8189 38.1711 89.8189 38.5245 89.8189L41.7054 89.1116C42.0588 89.1116 42.4122 88.758 42.7657 88.4044C43.1191 88.4044 43.8259 88.4044 44.1794 88.4044L47.3602 87.6971C47.7136 87.6971 48.0671 87.3435 48.4205 86.9899C48.7739 86.9899 49.1274 86.9899 49.8342 86.9899L53.0151 86.2826C54.0753 85.929 54.7822 85.2218 55.1356 84.1609C56.1959 84.5145 56.9028 84.8681 57.963 84.8681C58.6699 84.8681 59.7302 84.8681 60.437 84.5145C62.5576 83.8073 63.9713 83.1 65.385 81.6855C66.0919 82.0391 66.4453 82.3928 67.1522 82.3928C67.5056 82.3928 67.5056 82.3928 67.859 82.3928L71.0399 81.6855C71.7467 81.3319 72.4536 80.9783 72.807 80.271C73.5139 80.6246 74.2207 80.9783 75.281 80.6246L78.8153 79.5638C79.1687 79.5638 79.5221 79.2101 79.8756 78.8565C80.229 78.8565 80.229 78.8565 80.5824 78.8565C80.9359 78.8565 80.9359 78.8565 81.2893 78.8565L90.8318 76.3812C91.8921 76.0275 92.9524 74.9667 92.9524 73.9058C92.9524 74.2594 93.3058 74.2594 93.6593 74.613C94.3661 74.9667 94.7195 75.3203 95.4264 75.3203C95.7798 75.3203 95.7798 75.3203 96.1333 75.3203L99.6675 74.2594C101.081 73.9058 101.788 72.8449 101.788 71.4304V64.3579L106.029 48.7985C107.443 46.3231 107.09 45.2622 106.383 44.555Z" fill="url(#paint2_linear)"/>
<path d="M162.578 52.6893L158.337 42.7879L162.578 32.8864C162.932 31.8255 162.932 30.411 162.225 29.7038C161.518 28.9965 160.104 28.2893 159.044 28.6429L155.51 29.7038C154.803 30.0574 153.742 30.411 153.389 31.4719C152.682 30.7646 151.622 30.7646 150.915 31.1183L147.381 32.1791C146.32 32.5328 145.614 33.24 145.26 33.9473C144.553 33.5936 143.493 33.24 142.433 33.24C141.726 33.24 140.666 33.24 139.959 33.5936C137.131 34.3009 134.657 36.069 133.597 38.5444C133.244 37.8371 132.89 37.1299 132.183 36.7762C131.476 36.4226 130.416 36.069 129.709 36.4226L124.761 37.8371C123.701 38.1907 122.641 39.2516 122.641 40.3125V42.4342C121.227 40.3125 118.753 39.9589 117.693 39.9589C116.986 39.9589 115.926 39.9589 114.865 40.3125L109.564 42.0806C108.15 42.4342 107.443 43.4951 107.443 44.9096V67.1879C107.443 68.2488 107.797 68.9561 108.504 69.6633C109.211 70.0169 109.564 70.3706 110.271 70.3706C110.624 70.3706 110.978 70.3706 110.978 70.3706L116.632 68.9561C118.4 68.6024 119.813 67.8952 120.874 66.8343C121.227 67.1879 121.934 67.1879 122.287 67.1879C122.641 67.1879 122.641 67.1879 122.994 67.1879L126.175 66.4807C127.235 66.1271 128.296 65.0662 128.296 64.0053C128.649 64.3589 128.649 64.7126 129.002 64.7126C129.709 65.0662 130.77 65.4198 131.476 65.0662L135.011 64.0053C135.718 63.6517 136.424 63.2981 136.778 62.5908C137.485 62.9445 138.192 62.9444 138.898 62.9444C139.605 62.9444 140.666 62.9445 141.372 62.5908C143.14 62.2372 144.907 61.1763 145.967 59.7618C146.32 60.1155 147.027 60.4691 147.734 60.4691C148.088 60.4691 148.441 60.4691 148.441 60.4691L151.975 59.4082C152.682 59.0546 153.389 58.701 154.096 57.6401C154.803 57.9937 155.863 58.3473 156.57 57.9937L160.104 56.9328C160.811 56.5792 161.518 56.2256 162.225 55.1647C162.932 54.4575 162.932 53.3966 162.578 52.6893Z" fill="url(#paint3_linear)"/>
<path d="M44.8848 77.4427L42.4108 63.2977L37.1094 64.7122V87.3442L40.6437 86.2833V72.8456L42.7642 85.5761L46.6519 84.8688L48.4191 70.7239V84.1616L52.3068 83.1007V60.4688L47.0054 61.8832L44.8848 77.4427Z" fill="#262626"/>
<path d="M61.4963 57.9961C60.7894 57.9961 60.436 57.9961 59.7292 58.3497C56.1949 59.4106 54.4277 61.886 54.4277 65.4222V77.0918C54.4277 79.9208 55.8414 81.6889 57.962 81.6889C58.6689 81.6889 59.0223 81.6889 59.7292 81.3353C63.2634 80.2744 65.0306 77.7991 65.0306 74.2628V62.5932C65.0306 59.7642 63.6169 57.9961 61.4963 57.9961ZM61.1429 63.3005V75.3237C61.1429 76.7382 60.436 77.4454 59.3757 77.7991C59.0223 77.7991 59.0223 77.7991 58.6689 77.7991C58.3154 77.7991 57.6086 77.7991 57.6086 76.0309V64.0077C57.6086 62.5932 58.3154 61.886 59.3757 61.5323C59.7291 61.5323 59.7292 61.5323 60.0826 61.5323C60.7894 61.886 61.1429 61.886 61.1429 63.3005Z" fill="#262626"/>
<path d="M74.9257 66.8361L71.7449 55.5201L66.7969 56.5809V79.2129L70.3312 78.5057V63.2998L74.5723 77.0912L78.46 76.3839V53.752L74.9257 54.4592V66.8361Z" fill="#262626"/>
<path d="M80.5801 75.6747L90.4761 72.8457V69.3095L84.4678 71.0776V65.066L89.0624 63.6515V60.1152L84.4678 61.5297V55.5181L90.4761 54.1036V50.5674L80.5801 53.0428V75.6747Z" fill="#262626"/>
<path d="M97.5452 57.9947L95.0712 49.1541L90.8301 50.215L95.4246 64.0063V71.786L99.3123 70.7252V63.2991L103.907 46.6787L100.019 47.7396L97.5452 57.9947Z" fill="#262626"/>
<path d="M118.398 53.3966C119.812 52.3357 120.519 50.5676 120.519 48.4459V47.7386C120.519 44.9096 119.458 43.4951 117.338 43.4951C116.631 43.4951 115.924 43.4951 115.217 43.8487L109.562 45.2632V67.8952L115.217 66.4807C118.752 65.4198 120.519 63.2981 120.519 59.7618V57.9937C120.872 55.1647 120.165 53.7502 118.398 53.3966ZM113.45 53.3966V48.0922L114.864 47.7386C115.217 47.7386 115.217 47.7386 115.571 47.7386C115.924 47.7386 116.631 48.0922 116.631 49.5067V50.9212C116.631 52.3357 115.924 53.3966 114.51 53.7502L113.45 53.3966ZM115.924 56.2256C116.631 56.2256 116.984 56.5792 116.984 58.3473V60.1155C116.984 61.53 116.631 62.2372 115.217 62.5908L113.45 62.9445V56.5792L114.864 56.2256C115.217 56.2256 115.571 56.2256 115.924 56.2256Z" fill="#262626"/>
<path d="M125.112 41.0209L121.578 64.7138L125.112 63.6529L125.819 59.4094L129.707 58.3485L130.414 62.2384L134.302 61.1775L130.767 39.6064L125.112 41.0209ZM129 55.1659L126.173 55.8732L127.586 45.6181L129 55.1659Z" fill="#262626"/>
<path d="M142.076 36.4229C141.37 36.4229 141.016 36.4228 140.309 36.7765C136.775 37.8373 135.008 40.3127 135.008 43.849V55.5186C135.008 56.9331 135.361 57.9939 136.068 59.0548C136.775 59.7621 137.482 60.1157 138.896 60.1157C139.602 60.1157 139.956 60.1157 140.663 59.7621C144.197 58.7012 145.964 56.2258 145.964 52.6896V49.507L142.43 50.5678V53.7504C142.43 55.1649 142.076 55.8722 140.663 56.2258C140.309 56.2258 140.309 56.2258 139.956 56.2258C139.602 56.2258 138.896 56.2258 138.896 54.8113V42.7881C138.896 41.3736 139.602 40.6663 140.663 40.3127C141.016 40.3127 141.016 40.3127 141.37 40.3127C141.723 40.3127 142.43 40.3127 142.43 42.0808V44.5562L145.964 43.4953V41.02C145.964 37.1301 143.844 36.4229 142.076 36.4229Z" fill="#262626"/>
<path d="M159.749 31.8262L155.861 32.887L151.62 43.1422V33.9479L147.732 35.0088V57.6407L151.62 56.5799V49.861L152.327 47.7393L155.508 55.519L159.749 54.4581L154.801 43.1422L159.749 31.8262Z" fill="#262626"/>
<path d="M44.885 78.5054L47.359 62.2387L52.307 60.8242V83.1025L49.1261 83.8098V67.8967L46.6521 84.517L43.4713 85.2243L40.9973 70.3721V85.9315L37.8164 86.6388V64.3605L42.411 63.6532L44.885 78.5054Z" fill="#FFCE44"/>
<path d="M54.4277 65.4193C54.4277 61.883 56.1949 59.4076 59.7292 58.3468C63.2634 57.2859 65.0306 59.054 65.0306 62.5903V74.2599C65.0306 77.7961 63.2634 80.2715 59.7292 81.3324C56.1949 82.3932 54.4277 80.6251 54.4277 77.0889V65.4193ZM57.6086 76.3816C57.6086 77.7961 58.3154 78.5034 59.3757 78.1497C60.436 77.7961 61.1429 77.0889 61.1429 75.3207V63.2975C61.1429 61.883 60.436 61.1758 59.3757 61.5294C58.3154 61.883 57.6086 62.5903 57.6086 64.3584V76.3816Z" fill="#FFCE44"/>
<path d="M70.3312 62.2369V78.15L67.1504 79.2108V56.9325L71.3915 55.8716L74.9258 68.2485V54.8108L78.1067 54.1035V76.3819L74.5724 77.4427L70.3312 62.2369Z" fill="#FFCE44"/>
<path d="M84.1163 61.5297L89.0643 60.1152V63.6515L84.1163 65.066V71.4312L90.1246 69.6631V72.8457L80.582 75.3211V53.0428L90.1246 50.5674V53.75L84.1163 55.5181V61.5297Z" fill="#FFCE44"/>
<path d="M95.7782 64.0063L91.5371 50.215L95.0714 49.1541L97.8988 58.7019L100.726 47.7396L103.907 46.6787L98.9591 62.9454V70.3715L95.4248 71.4324V64.0063H95.7782Z" fill="#FFCE44"/>
<path d="M120.165 47.7405V48.4477C120.165 50.5695 119.458 52.3376 118.045 53.3985C119.812 53.7521 120.519 55.1666 120.519 57.2883V59.0565C120.519 62.5927 118.752 64.7144 115.217 65.7753L109.562 67.1898V44.9115L114.864 43.497C118.752 43.1434 120.165 44.2042 120.165 47.7405ZM113.45 47.7405V53.7521L114.864 53.3985C116.278 53.0448 116.984 52.3376 116.984 50.5695V49.155C116.984 47.7405 116.278 47.0332 115.217 47.3868L113.45 47.7405ZM113.45 56.5811V63.2999L115.571 62.9463C116.631 62.5927 117.338 61.8855 117.338 60.1173V58.3492C117.338 56.2275 116.631 55.8738 115.217 56.2275L113.45 56.5811Z" fill="#FFCE44"/>
<path d="M133.948 61.1775L130.414 62.2384L129.707 58.3485L125.466 59.4094L125.112 63.6529L121.932 64.3602L125.466 41.0209L130.414 39.6064L133.948 61.1775ZM126.173 56.2268L129.354 55.1659L127.586 44.5572L126.173 56.2268Z" fill="#FFCE44"/>
<path d="M145.613 49.8606V52.6896C145.613 56.2258 143.845 58.7012 140.311 59.7621C136.777 60.8229 135.01 59.0548 135.01 55.5186V43.849C135.01 40.3127 136.777 37.8373 140.311 36.7765C143.845 35.7156 145.613 37.4837 145.613 41.02V43.1417L142.432 43.849V41.3736C142.432 39.9591 141.725 39.2518 140.665 39.6055C139.604 39.9591 138.897 40.6663 138.897 42.4345V54.4577C138.897 55.8722 139.604 56.5794 140.665 56.2258C141.725 55.8722 142.432 55.1649 142.432 53.7504V50.5678L145.613 49.8606Z" fill="#FFCE44"/>
<path d="M152.327 47.3856L151.267 49.5074V56.5799L147.732 57.6407V35.3624L151.267 34.3015V43.8494L155.861 32.887L159.396 31.8262L154.448 43.1422L159.396 54.1045L155.861 55.1654L152.327 47.3856Z" fill="#FFCE44"/>
<path d="M190.497 62.9455C191.911 62.5919 192.618 61.531 192.618 60.1165V55.1658C192.618 54.1049 192.265 53.3976 191.558 52.6904C190.851 51.9831 189.791 51.9831 189.084 52.3368L174.24 56.2266C173.533 56.2266 173.18 56.5803 172.826 57.2875C172.119 56.9339 171.766 56.9339 171.059 57.2875L156.215 61.1774C155.862 61.1774 155.508 61.531 155.155 61.8846C154.801 61.8846 154.448 61.8846 153.741 61.8846L136.776 66.4817C136.423 66.4817 136.07 66.8354 135.716 67.189C135.363 67.189 135.009 67.189 134.656 67.189L129.708 68.6035C128.294 68.9571 127.587 70.018 127.587 71.4325C126.88 70.3716 125.467 69.6644 124.406 70.018L117.691 71.7861C116.278 72.1397 115.571 73.2006 115.571 74.6151L113.45 76.3832C113.45 75.676 112.743 74.9687 112.036 74.2615C111.33 73.9079 110.269 73.5542 109.562 73.9079L101.434 76.0296C100.373 76.3832 99.3131 77.4441 99.3131 78.505C99.3131 78.505 92.2445 79.5659 89.7705 79.5659C88.7103 79.5659 87.2965 79.9195 85.8828 80.2731L77.754 82.3948C76.3403 82.7485 75.6334 83.8093 75.6334 85.2238L73.5129 86.992C73.5129 86.2847 72.806 85.5775 72.0991 84.8702C71.3923 84.5166 70.332 84.163 69.6252 84.5166L61.4963 86.6383C60.436 86.992 59.3757 88.0528 59.3757 89.1137L57.6086 91.5891C57.6086 90.5282 57.2552 89.821 56.5483 89.1137C55.8415 88.4065 54.7812 88.4065 54.0743 88.7601L48.7729 90.1746C47.3592 90.5282 46.6523 91.5891 46.6523 93.0036C46.2989 92.65 46.2989 92.2963 45.9455 92.2963C45.2386 91.5891 44.1783 91.5891 43.4715 91.9427L38.1701 93.3572C36.7564 93.7108 36.0495 94.7717 36.0495 96.1862V97.6007C34.6358 96.1862 32.8687 95.479 30.3947 95.479C29.3344 95.479 28.2741 95.479 26.8604 95.8326C18.7315 97.2471 15.1973 102.551 15.1973 109.624V127.659C15.1973 130.488 15.9041 132.963 17.3178 134.731C18.3781 136.146 20.1453 137.56 23.6795 137.56C24.7398 137.56 25.8001 137.56 27.2138 137.207C31.8084 136.146 34.9892 133.317 36.4029 129.427C37.8166 131.549 40.2906 132.61 43.1181 132.61C44.1783 132.61 45.2386 132.61 46.6523 132.256C49.8332 131.549 51.9538 129.781 53.7209 128.012L54.0743 128.366C54.7812 128.72 55.488 129.073 56.1949 129.073C56.5483 129.073 56.5483 129.073 56.9018 129.073L61.8497 127.659C62.91 127.305 63.9703 126.244 63.9703 125.183L64.6772 120.586L66.0909 120.233L66.4443 123.062C66.4443 123.769 67.1512 124.83 67.858 125.183C68.5649 125.537 69.6252 125.891 70.332 125.537L75.9869 124.123C76.3403 124.123 76.6937 123.769 77.0471 123.415C77.4006 123.415 77.4006 123.415 77.754 123.415C78.1074 123.415 78.1074 123.415 78.4609 123.415L83.7623 122.001C85.176 121.647 85.8828 120.586 85.8828 119.172V118.465C86.5897 119.879 88.0034 120.586 89.4171 120.233L95.072 118.818C95.4254 118.818 95.4254 118.465 95.7788 118.465C96.1322 118.465 96.1322 118.465 96.4857 118.465L101.434 117.05C102.494 116.696 103.554 115.636 103.554 114.575L104.261 109.978L105.675 109.624L106.028 112.453C106.028 113.16 106.735 114.221 107.442 114.575C108.149 114.928 109.209 115.282 109.916 114.928L115.571 113.514C115.924 113.514 116.278 113.16 116.631 112.807C116.631 112.807 116.984 112.807 117.338 112.807C117.691 112.807 117.691 112.807 118.045 112.807L122.993 111.392C124.406 111.038 125.113 109.978 125.113 108.563V104.673L125.82 107.502C126.174 108.917 127.941 109.978 129.354 109.624L135.009 108.209C136.423 107.856 139.604 105.027 140.311 105.38C141.018 105.734 141.371 106.088 142.078 106.088C142.431 106.088 142.431 106.088 142.785 106.088L148.086 104.673C149.5 104.32 152.681 101.491 153.388 101.844C154.094 102.198 154.448 102.551 155.155 102.551C155.508 102.551 155.508 102.551 155.862 102.551L170.706 98.6616C171.412 98.6616 171.766 98.3079 172.119 97.6007C172.473 97.6007 172.826 97.9543 173.18 97.9543C173.533 97.9543 173.533 97.9543 173.886 97.9543L188.73 94.0645C190.144 93.7108 190.851 92.65 190.851 91.2355V84.8702C190.851 83.8093 190.497 83.1021 189.791 82.3948C189.084 81.6876 188.023 81.6876 187.317 82.0412L181.662 83.4557V79.5659L186.963 78.1514C188.377 77.7977 189.084 76.7369 189.084 75.3224V70.3716C189.084 69.3107 188.73 68.6035 188.023 67.8962C187.317 67.189 186.256 67.189 185.549 67.5426L182.015 68.6035V65.0673L190.497 62.9455Z" fill="url(#paint4_linear)"/>
<path d="M29.3332 98.6631C28.6264 98.6631 27.5661 98.6631 26.5058 99.0167C21.2044 100.431 18.377 104.321 18.377 109.979V128.014C18.377 130.136 18.7304 132.257 19.7907 133.318C20.8509 134.733 22.2647 135.086 24.0318 135.086C24.7387 135.086 25.7989 135.086 26.8592 134.733C31.8072 133.318 34.9881 129.428 34.9881 123.77V112.454L26.8592 114.576V120.234L29.3332 119.527V125.539C29.3332 127.66 28.6264 129.075 26.5058 129.428C26.1524 129.428 25.7989 129.428 25.4455 129.428C24.7387 129.428 23.6784 129.075 23.6784 126.953V108.211C23.6784 106.089 24.3852 104.675 26.5058 104.321C28.2729 103.967 28.9798 104.675 28.9798 106.796V110.686L34.6346 109.272V105.736C34.9881 101.138 32.8675 98.6631 29.3332 98.6631Z" fill="#262626"/>
<path d="M48.7726 120.232C48.7726 122.354 48.0657 123.769 45.9452 124.122C45.5917 124.122 45.2383 124.122 44.8849 124.122C44.178 124.122 43.1177 123.769 43.1177 121.647V94.7714L37.4629 96.1859V122.708C37.4629 127.305 39.23 129.78 43.1177 129.78C43.8246 129.78 44.8849 129.78 45.9452 129.427C51.2466 128.012 54.074 124.122 54.074 118.464V91.9424L48.4192 93.3569V120.232H48.7726Z" fill="#262626"/>
<path d="M61.8482 89.8211L56.1934 126.244L61.4948 124.83L62.5551 118.111L68.9168 116.343L69.977 122.355L75.9853 120.94L70.3305 87.3457L61.8482 89.8211ZM68.2099 112.099L63.2619 113.16L65.7359 96.5399L68.2099 112.099Z" fill="#262626"/>
<path d="M94.7165 112.101V106.796C94.7165 102.906 93.6562 100.785 91.1822 100.431C93.3028 98.6629 94.3631 96.1875 94.3631 92.6513V89.8223C94.3631 85.5788 92.5959 83.457 89.4151 83.457C88.3548 83.457 87.2945 83.457 86.2342 83.8107L77.752 85.5788V120.588L83.4068 119.173V105.028L85.1739 104.674C85.5274 104.674 86.2342 104.321 86.5876 104.321C88.0014 104.321 88.7082 105.382 88.7082 107.857V113.161C88.7082 115.99 89.0616 116.344 89.0616 117.405V117.759L95.0699 115.99V115.637C94.7165 114.93 94.7165 113.515 94.7165 112.101ZM88.7082 91.5904V95.1266C88.7082 97.602 87.6479 99.0165 85.5274 99.3701L83.7602 99.7238V89.4686L86.2342 88.7614C86.5876 88.7614 86.9411 88.7614 87.2945 88.7614C88.0014 88.7614 88.7082 89.115 88.7082 91.5904Z" fill="#262626"/>
<path d="M102.139 79.2127L96.4844 115.636L101.786 114.221L102.846 107.503L109.208 105.735L110.268 111.746L116.276 110.332L110.621 76.7373L102.139 79.2127ZM108.147 101.137L103.553 102.552L106.027 85.9315L108.147 101.137Z" fill="#262626"/>
<path d="M130.413 91.2359L125.112 73.2011L118.043 74.9692V109.978L123.344 108.564V84.8707L129.706 106.795L135.714 105.381V70.3721L130.413 71.7866V91.2359Z" fill="#262626"/>
<path d="M137.482 74.9698L143.137 73.5553V103.26L149.146 101.845V72.1408L154.8 70.3727V65.0684L137.482 69.6655V74.9698Z" fill="#262626"/>
<path d="M156.92 99.724L172.117 95.4805V90.1761L162.575 92.6515V83.1036L169.997 80.9819V75.6775L162.575 77.4456V68.2514L172.117 65.776V60.4717L156.92 64.7152V99.724Z" fill="#262626"/>
<path d="M190.143 60.8239V55.5195L174.945 59.763V94.7718L190.143 90.5284V85.224L180.954 87.6994V78.1515L188.376 76.0297V70.7254L180.954 72.8471V63.2993L190.143 60.8239Z" fill="#262626"/>
<path d="M27.2127 114.927L34.9881 112.806V123.768C34.9881 129.426 32.1607 133.316 26.8593 134.73C21.5579 136.145 18.7305 133.669 18.7305 128.011V109.977C18.7305 104.319 21.5579 100.429 26.8593 99.0142C32.1607 97.5997 34.9881 100.075 34.9881 105.733V109.269L29.6867 110.684V106.794C29.6867 104.319 28.6264 103.611 26.8593 103.965C25.0922 104.319 24.0319 105.733 24.0319 108.208V126.95C24.0319 129.426 25.0922 130.133 26.8593 129.426C28.6264 129.072 29.6867 127.658 29.6867 125.182V118.817L27.2127 119.524V114.927Z" fill="#FFCE44"/>
<path d="M43.4694 95.125V122C43.4694 124.476 44.5297 125.183 46.2968 124.476C48.0639 124.122 49.1242 122.708 49.1242 120.232V93.3569L54.4256 91.9424V118.464C54.4256 124.122 51.5982 128.012 46.2968 129.427C40.9954 130.841 38.168 128.366 38.168 122.708V96.1859L43.4694 95.125Z" fill="#FFCE44"/>
<path d="M75.632 121.29L69.9771 122.705L69.2703 116.693L62.5552 118.461L61.4949 125.18L56.5469 126.241L62.2017 90.1716L70.3306 88.0498L75.632 121.29ZM63.262 113.511L68.5634 112.096L66.0894 95.1223L63.262 113.511Z" fill="#FFCE44"/>
<path d="M89.4152 117.403C89.0618 116.696 89.0618 115.988 89.0618 113.159V107.855C89.0618 104.672 88.0015 103.612 85.5275 104.319L83.7604 104.672V118.817L78.459 120.232V85.5767L86.5878 83.455C92.2427 82.0405 94.7167 83.8086 94.7167 89.113V91.942C94.7167 95.4782 93.6564 98.3072 91.1824 100.075C94.0098 100.429 94.7167 102.904 94.7167 106.441V111.745C94.7167 113.513 94.7167 114.574 95.4235 115.635L89.4152 117.403ZM83.407 89.4666V100.075L85.5275 99.3681C87.6481 98.6608 88.7084 97.6 88.7084 94.771V91.2347C88.7084 88.7594 88.0015 88.0521 85.881 88.4057L83.407 89.4666Z" fill="#FFCE44"/>
<path d="M115.569 110.331L109.915 111.746L108.854 105.734L102.493 107.856L101.432 114.575L96.4844 115.989L102.139 79.9196L110.268 77.7979L115.569 110.331ZM103.2 102.905L108.501 101.491L106.027 84.5167L103.2 102.905Z" fill="#FFCE44"/>
<path d="M122.991 83.4543V108.562L118.043 109.623V74.9673L124.758 73.1992L130.413 92.2949V71.4311L135.361 70.0166V104.672L129.706 106.086L122.991 83.4543Z" fill="#FFCE44"/>
<path d="M137.836 70.018L154.8 65.4209V70.3716L149.146 71.7861V101.491L143.844 102.905V73.2006L137.836 74.9688V70.018Z" fill="#FFCE44"/>
<path d="M162.575 77.7982L169.997 75.6764V80.6272L162.575 82.7489V93.004L172.117 90.5287V95.4794L157.273 99.3693V64.7141L172.117 60.8242V65.775L162.575 68.2503V77.7982Z" fill="#FFCE44"/>
<path d="M180.6 72.846L188.022 70.7243V75.675L180.6 77.7968V88.0519L190.143 85.5765V90.5273L175.299 94.4171V59.7619L190.143 55.8721V60.8228L180.6 63.2982V72.846Z" fill="#FFCE44"/>
<path d="M81.8973 138.128V156.861H77.0769V146.818C77.0769 145.367 77.0411 144.496 76.9695 144.203C76.898 143.91 76.6991 143.69 76.373 143.543C76.0548 143.389 75.3389 143.312 74.2253 143.312H73.748V141.125C76.0787 140.639 77.8485 139.64 79.0576 138.128H81.8973Z" fill="white"/>
<path d="M95.1412 144.469V150.717C95.1412 152.136 95.0617 153.17 94.9026 153.818C94.7435 154.466 94.4134 155.071 93.9123 155.634C93.4111 156.197 92.8066 156.602 92.0987 156.849C91.3907 157.096 90.5993 157.219 89.7243 157.219C88.5709 157.219 87.6124 157.092 86.8488 156.838C86.0852 156.575 85.4767 156.17 85.0233 155.623C84.5699 155.075 84.2478 154.5 84.0569 153.899C83.8659 153.289 83.7705 152.325 83.7705 151.006V144.469C83.7705 142.749 83.9216 141.46 84.2239 140.604C84.5341 139.748 85.1426 139.062 86.0494 138.545C86.9642 138.028 88.0698 137.77 89.3664 137.77C90.4243 137.77 91.3709 137.951 92.2061 138.313C93.0413 138.668 93.6657 139.104 94.0793 139.621C94.4929 140.138 94.7713 140.72 94.9145 141.368C95.0656 142.016 95.1412 143.049 95.1412 144.469ZM90.3209 142.895C90.3209 141.9 90.2692 141.279 90.1658 141.032C90.0703 140.778 89.8396 140.651 89.4737 140.651C89.1158 140.651 88.8772 140.786 88.7579 141.056C88.6465 141.318 88.5908 141.931 88.5908 142.895V152.036C88.5908 153.123 88.6425 153.779 88.7459 154.003C88.8573 154.226 89.0919 154.338 89.4499 154.338C89.8078 154.338 90.0425 154.207 90.1538 153.945C90.2652 153.683 90.3209 153.093 90.3209 152.175V142.895Z" fill="white"/>
<path d="M108.242 144.469V150.717C108.242 152.136 108.162 153.17 108.003 153.818C107.844 154.466 107.514 155.071 107.013 155.634C106.512 156.197 105.907 156.602 105.199 156.849C104.492 157.096 103.7 157.219 102.825 157.219C101.672 157.219 100.713 157.092 99.9496 156.838C99.186 156.575 98.5775 156.17 98.1241 155.623C97.6707 155.075 97.3485 154.5 97.1576 153.899C96.9667 153.289 96.8713 152.325 96.8713 151.006V144.469C96.8713 142.749 97.0224 141.46 97.3247 140.604C97.6349 139.748 98.2434 139.062 99.1502 138.545C100.065 138.028 101.171 137.77 102.467 137.77C103.525 137.77 104.472 137.951 105.307 138.313C106.142 138.668 106.766 139.104 107.18 139.621C107.594 140.138 107.872 140.72 108.015 141.368C108.166 142.016 108.242 143.049 108.242 144.469ZM103.422 142.895C103.422 141.9 103.37 141.279 103.267 141.032C103.171 140.778 102.94 140.651 102.575 140.651C102.217 140.651 101.978 140.786 101.859 141.056C101.747 141.318 101.692 141.931 101.692 142.895V152.036C101.692 153.123 101.743 153.779 101.847 154.003C101.958 154.226 102.193 154.338 102.551 154.338C102.909 154.338 103.143 154.207 103.255 153.945C103.366 153.683 103.422 153.093 103.422 152.175V142.895Z" fill="white"/>
<path d="M122.273 137.77L114.721 157.219H112.883L120.46 137.77H122.273ZM116.654 141.322V144.538C116.654 145.379 116.57 146.012 116.403 146.436C116.244 146.852 115.894 147.219 115.353 147.535C114.82 147.843 114.112 147.998 113.229 147.998C112.211 147.998 111.436 147.851 110.903 147.558C110.37 147.257 110.008 146.899 109.817 146.482C109.634 146.065 109.543 145.468 109.543 144.689V141.322C109.543 140.396 109.638 139.713 109.829 139.274C110.028 138.826 110.406 138.464 110.962 138.186C111.519 137.908 112.207 137.77 113.027 137.77C113.933 137.77 114.669 137.924 115.234 138.232C115.799 138.533 116.176 138.9 116.367 139.332C116.558 139.763 116.654 140.427 116.654 141.322ZM113.599 140.5C113.599 140.006 113.571 139.702 113.516 139.586C113.468 139.47 113.329 139.413 113.098 139.413C112.883 139.413 112.744 139.474 112.68 139.598C112.617 139.721 112.585 140.022 112.585 140.5V145.221C112.585 145.761 112.613 146.085 112.669 146.193C112.724 146.301 112.871 146.355 113.11 146.355C113.317 146.355 113.448 146.293 113.504 146.17C113.567 146.046 113.599 145.757 113.599 145.302V140.5ZM125.614 150.37V153.598C125.614 154.431 125.531 155.06 125.364 155.484C125.205 155.908 124.855 156.278 124.314 156.595C123.781 156.903 123.073 157.057 122.19 157.057C121.18 157.057 120.404 156.907 119.863 156.606C119.33 156.305 118.968 155.947 118.777 155.53C118.595 155.114 118.503 154.52 118.503 153.748V150.37C118.503 149.452 118.599 148.773 118.789 148.333C118.988 147.886 119.366 147.523 119.923 147.246C120.48 146.96 121.168 146.818 121.987 146.818C122.902 146.818 123.642 146.972 124.206 147.28C124.771 147.589 125.145 147.959 125.328 148.391C125.519 148.823 125.614 149.483 125.614 150.37ZM122.56 149.56C122.56 149.066 122.532 148.761 122.476 148.646C122.429 148.522 122.289 148.461 122.059 148.461C121.844 148.461 121.705 148.522 121.641 148.646C121.585 148.769 121.558 149.074 121.558 149.56V154.28C121.558 154.813 121.585 155.133 121.641 155.241C121.697 155.349 121.84 155.403 122.071 155.403C122.285 155.403 122.421 155.345 122.476 155.229C122.532 155.106 122.56 154.813 122.56 154.35V149.56Z" fill="white"/>
<ellipse cx="100.895" cy="215.164" rx="46.5985" ry="2.83643" fill="#C4C4C4" fill-opacity="0.35"/>
<defs>
<linearGradient id="paint0_linear" x1="34.5279" y1="-38.718" x2="123.954" y2="98.325" gradientUnits="userSpaceOnUse">
<stop stop-color="#262626"/>
<stop offset="0.9939" stop-color="#A4195B"/>
</linearGradient>
<linearGradient id="paint1_linear" x1="7.31807" y1="-20.9591" x2="96.7408" y2="116.079" gradientUnits="userSpaceOnUse">
<stop stop-color="#262626"/>
<stop offset="0.9939" stop-color="#A4195B"/>
</linearGradient>
<linearGradient id="paint2_linear" x1="34.9192" y1="66.7063" x2="107.099" y2="66.7063" gradientUnits="userSpaceOnUse">
<stop stop-color="#262626"/>
<stop offset="0.9939" stop-color="#A4195B"/>
</linearGradient>
<linearGradient id="paint3_linear" x1="107.343" y1="49.512" x2="162.936" y2="49.512" gradientUnits="userSpaceOnUse">
<stop stop-color="#262626"/>
<stop offset="0.9939" stop-color="#A4195B"/>
</linearGradient>
<linearGradient id="paint4_linear" x1="38.3938" y1="71.0725" x2="270.328" y2="152.412" gradientUnits="userSpaceOnUse">
<stop stop-color="#262626"/>
<stop offset="0.9939" stop-color="#A4195B"/>
</linearGradient>
</defs>
</svg>
