<svg width="2079" height="720" viewBox="0 0 2079 720" fill="none" xmlns="http://www.w3.org/2000/svg">
<g clip-path="url(#clip0)">
<path d="M1616.76 329L1617.04 485" stroke="#FCF9ED" stroke-width="3" stroke-miterlimit="10"/>
<path d="M1635 329V487" stroke="#FCF9ED" stroke-width="3" stroke-miterlimit="10"/>
<path d="M1592 353.139V537.999" stroke="#FCF9ED" stroke-width="12" stroke-miterlimit="10"/>
<path d="M1661 353.138V537.999" stroke="#FCF9ED" stroke-width="12" stroke-miterlimit="10"/>
<path d="M1581.79 435.852C1594.49 435.243 1604.29 424.593 1603.69 412.063C1603.09 399.534 1592.3 389.87 1579.6 390.479C1566.91 391.088 1557.1 401.738 1557.7 414.268C1558.31 426.797 1569.09 436.461 1581.79 435.852Z" fill="#EDE7D1"/>
<path d="M1530.99 510.243C1531.25 520.411 1523.18 528.863 1513 528.995C1502.81 529.259 1494.47 521.204 1494.21 511.035C1493.94 500.867 1502.01 492.415 1512.2 492.283C1522.26 492.019 1530.72 500.075 1530.99 510.243Z" fill="#EDE7D1"/>
<path d="M1607.98 421.764C1620.11 421.764 1629.94 411.595 1629.94 399.05C1629.94 386.506 1620.11 376.336 1607.98 376.336C1595.85 376.336 1586.02 386.506 1586.02 399.05C1586.02 411.595 1595.85 421.764 1607.98 421.764Z" fill="#EDE7D1"/>
<path d="M1557.84 486.736C1575.38 486.736 1589.59 472.369 1589.59 454.646C1589.59 436.923 1575.38 422.556 1557.84 422.556C1540.31 422.556 1526.09 436.923 1526.09 454.646C1526.09 472.369 1540.31 486.736 1557.84 486.736Z" fill="#EDE7D1"/>
<path d="M1460.21 544.577C1460.21 551.312 1454.79 556.727 1448.04 556.727C1441.29 556.727 1435.87 551.312 1435.87 544.577C1435.87 537.843 1441.29 532.428 1448.04 532.428C1454.79 532.428 1460.21 537.843 1460.21 544.577Z" fill="#EDE7D1"/>
<path d="M1385.33 596.74C1393 596.74 1399.22 590.532 1399.22 582.874C1399.22 575.216 1393 569.008 1385.33 569.008C1377.66 569.008 1371.44 575.216 1371.44 582.874C1371.44 590.532 1377.66 596.74 1385.33 596.74Z" fill="#EDE7D1"/>
<path d="M1463.65 573.499C1484.62 573.499 1501.62 557.712 1501.62 538.239C1501.62 518.766 1484.62 502.98 1463.65 502.98C1442.68 502.98 1425.68 518.766 1425.68 538.239C1425.68 557.712 1442.68 573.499 1463.65 573.499Z" fill="#EDE7D1"/>
<path d="M1566.97 509.451C1578.73 509.451 1588.27 500.582 1588.27 489.642C1588.27 478.702 1578.73 469.833 1566.97 469.833C1555.21 469.833 1545.67 478.702 1545.67 489.642C1545.67 500.582 1555.21 509.451 1566.97 509.451Z" fill="#EDE7D1"/>
<path d="M1308.47 703.706C1327.39 703.706 1342.73 688.393 1342.73 669.504C1342.73 650.614 1327.39 635.301 1308.47 635.301C1289.55 635.301 1274.21 650.614 1274.21 669.504C1274.21 688.393 1289.55 703.706 1308.47 703.706Z" fill="#EDE7D1"/>
<path d="M1711.3 516.317C1723.07 516.317 1732.6 507.449 1732.6 496.509C1732.6 485.569 1723.07 476.7 1711.3 476.7C1699.54 476.7 1690 485.569 1690 496.509C1690 507.449 1699.54 516.317 1711.3 516.317Z" fill="#EDE7D1"/>
<path d="M1436.13 585.648C1427.8 599.778 1409.67 604.4 1395.65 596.081C1381.63 587.761 1376.86 569.669 1385.2 555.539C1393.53 541.409 1411.66 536.787 1425.68 545.106C1439.84 553.426 1444.47 571.518 1436.13 585.648Z" fill="#EDE7D1"/>
<path d="M1685.77 471.418C1691.98 471.418 1697.02 466.688 1697.02 460.853C1697.02 455.019 1691.98 450.289 1685.77 450.289C1679.56 450.289 1674.53 455.019 1674.53 460.853C1674.53 466.688 1679.56 471.418 1685.77 471.418Z" fill="#EDE7D1"/>
<path d="M1373.56 605.588C1370.38 611.003 1363.5 612.719 1358.08 609.55C1352.65 606.381 1350.93 599.514 1354.11 594.099C1357.28 588.685 1364.16 586.968 1369.59 590.138C1374.88 593.307 1376.73 600.174 1373.56 605.588Z" fill="#EDE7D1"/>
<path d="M1341.14 680.861C1337.97 686.276 1331.09 687.993 1325.67 684.823C1320.24 681.654 1318.52 674.787 1321.7 669.372C1324.87 663.958 1331.75 662.241 1337.18 665.411C1342.6 668.58 1344.32 675.447 1341.14 680.861Z" fill="#EDE7D1"/>
<path d="M1460.51 579.972C1466.72 579.953 1471.74 574.913 1471.72 568.714C1471.7 562.514 1466.65 557.504 1460.44 557.522C1454.23 557.54 1449.21 562.58 1449.23 568.78C1449.25 574.979 1454.3 579.99 1460.51 579.972Z" fill="#EDE7D1"/>
<path d="M1304.5 680.069C1310.19 689.973 1306.88 702.651 1296.96 708.329C1287.04 714.008 1274.34 710.706 1268.65 700.802C1262.96 690.898 1266.27 678.22 1276.19 672.542C1286.11 666.731 1298.81 670.165 1304.5 680.069Z" fill="#EDE7D1"/>
<path d="M1679.55 419.784C1685.24 429.028 1681.94 440.781 1672.01 446.063C1662.09 451.345 1649.39 448.176 1643.7 439.064C1638.01 429.82 1641.32 418.067 1651.24 412.785C1661.16 407.502 1673.87 410.54 1679.55 419.784Z" fill="#EDE7D1"/>
<path d="M1235.84 718.497C1231.74 725.496 1222.74 727.741 1215.86 723.647C1208.85 719.554 1206.6 710.574 1210.7 703.575C1214.81 696.576 1223.8 694.331 1230.68 698.424C1237.56 702.518 1239.94 711.498 1235.84 718.497Z" fill="#EDE7D1"/>
<path d="M1340.75 634.641C1342.34 640.716 1338.63 646.79 1332.68 648.375C1326.59 649.96 1320.51 646.262 1318.92 640.319C1317.33 634.245 1321.04 628.17 1326.99 626.585C1332.94 625.001 1339.29 628.566 1340.75 634.641Z" fill="#EDE7D1"/>
<path d="M1256.34 704.895C1257.93 710.97 1254.23 717.045 1248.27 718.629C1242.32 720.214 1236.1 716.516 1234.52 710.574C1232.93 704.631 1236.63 698.424 1242.59 696.84C1248.67 695.255 1254.76 698.821 1256.34 704.895Z" fill="#EDE7D1"/>
<path d="M1273.28 693.67C1274.87 699.745 1271.16 705.82 1265.21 707.404C1259.12 708.989 1253.04 705.291 1251.45 699.349C1249.86 693.274 1253.57 687.2 1259.52 685.615C1265.47 684.03 1271.69 687.596 1273.28 693.67Z" fill="#EDE7D1"/>
<path d="M1325.53 682.314C1327.12 688.388 1323.42 694.463 1317.46 696.048C1311.38 697.632 1305.29 693.935 1303.71 687.992C1302.12 681.917 1305.82 675.843 1311.78 674.258C1317.86 672.673 1324.08 676.371 1325.53 682.314Z" fill="#EDE7D1"/>
<path d="M1714.21 468.777C1715.8 474.455 1712.1 480.134 1706.14 481.586C1700.06 483.039 1693.97 479.606 1692.39 474.059C1690.8 468.381 1694.5 462.702 1700.46 461.25C1706.54 459.797 1712.63 463.098 1714.21 468.777Z" fill="#EDE7D1"/>
<path d="M1665.4 398.126C1669.76 402.22 1669.76 408.823 1665.4 412.917C1661.03 417.011 1653.89 417.011 1649.39 412.917C1645.02 408.823 1645.02 402.22 1649.39 398.126C1653.89 394.033 1661.03 394.033 1665.4 398.126Z" fill="#EDE7D1"/>
<path d="M1624.12 383.335C1627.96 383.864 1630.6 387.165 1630.08 390.731C1629.55 394.296 1625.97 396.805 1622.14 396.277C1618.3 395.749 1615.66 392.447 1616.18 388.882C1616.71 385.316 1620.29 382.807 1624.12 383.335Z" fill="#EDE7D1"/>
<path d="M1641.72 387.694C1646.08 391.788 1646.08 398.39 1641.72 402.484C1637.35 406.578 1630.21 406.578 1625.71 402.484C1621.34 398.39 1621.34 391.788 1625.71 387.694C1630.21 383.6 1637.35 383.6 1641.72 387.694Z" fill="#EDE7D1"/>
<path d="M1608.25 406.974C1614.46 406.974 1619.49 402.244 1619.49 396.41C1619.49 390.575 1614.46 385.845 1608.25 385.845C1602.04 385.845 1597 390.575 1597 396.41C1597 402.244 1602.04 406.974 1608.25 406.974Z" fill="#EDE7D1"/>
<path d="M1684.71 439.196C1689.08 443.29 1689.08 449.893 1684.71 453.987C1680.35 458.08 1673.2 458.08 1668.71 453.987C1664.34 449.893 1664.34 443.29 1668.71 439.196C1673.2 435.103 1680.35 435.103 1684.71 439.196Z" fill="#EDE7D1"/>
<path d="M1442.35 491.49C1442.35 492.679 1441.42 493.471 1440.1 493.471C1438.78 493.471 1437.85 492.547 1437.85 491.49C1437.85 490.302 1438.78 489.509 1440.1 489.509C1441.42 489.509 1442.35 490.434 1442.35 491.49Z" fill="#EDE7D1"/>
<path d="M1508.5 432.858C1508.5 434.31 1507.17 435.631 1505.59 435.631C1504 435.631 1502.68 434.442 1502.68 432.858C1502.68 431.405 1504 430.084 1505.59 430.084C1507.17 430.084 1508.5 431.405 1508.5 432.858Z" fill="#EDE7D1"/>
<path d="M1498.71 409.879C1498.71 411.332 1497.38 412.652 1495.8 412.652C1494.21 412.652 1492.89 411.464 1492.89 409.879C1492.89 408.427 1494.21 407.106 1495.8 407.106C1497.38 407.106 1498.71 408.294 1498.71 409.879Z" fill="#EDE7D1"/>
<path d="M1350.93 626.982C1350.93 628.567 1349.61 629.888 1348.02 629.888C1346.44 629.888 1345.11 628.567 1345.11 626.982C1345.11 625.398 1346.44 624.077 1348.02 624.077C1349.61 624.077 1350.93 625.398 1350.93 626.982Z" fill="#EDE7D1"/>
<path d="M1683.79 405.257C1683.79 408.69 1686.57 411.464 1690.14 411.464C1693.58 411.464 1696.49 408.69 1696.49 405.257C1696.49 401.823 1693.71 399.05 1690.14 399.05C1686.57 399.05 1683.79 401.823 1683.79 405.257Z" fill="#EDE7D1"/>
<path d="M1678.89 391.128C1678.89 391.92 1679.55 392.448 1680.35 392.448C1681.14 392.448 1681.8 391.788 1681.8 391.128C1681.8 390.335 1681.14 389.807 1680.35 389.807C1679.55 389.807 1678.89 390.467 1678.89 391.128Z" fill="#EDE7D1"/>
<path d="M1697.15 427.971C1697.15 426.123 1695.56 424.67 1693.58 424.67C1691.59 424.67 1690 426.123 1690 427.971C1690 429.82 1691.59 431.273 1693.58 431.273C1695.56 431.273 1697.15 429.82 1697.15 427.971Z" fill="#EDE7D1"/>
<path d="M1698.21 445.667C1699.6 445.667 1700.72 444.602 1700.72 443.29C1700.72 441.977 1699.6 440.913 1698.21 440.913C1696.82 440.913 1695.69 441.977 1695.69 443.29C1695.69 444.602 1696.82 445.667 1698.21 445.667Z" fill="#EDE7D1"/>
<path d="M1502.41 466.4C1502.41 465.344 1503.34 464.551 1504.4 464.551C1505.45 464.551 1506.38 465.344 1506.38 466.4C1506.38 467.457 1505.45 468.249 1504.4 468.249C1503.34 468.249 1502.41 467.457 1502.41 466.4Z" fill="#EDE7D1"/>
<path d="M1343.53 576.404C1344.62 576.404 1345.51 575.517 1345.51 574.423C1345.51 573.329 1344.62 572.442 1343.53 572.442C1342.43 572.442 1341.54 573.329 1341.54 574.423C1341.54 575.517 1342.43 576.404 1343.53 576.404Z" fill="#EDE7D1"/>
<path d="M1329.24 647.715C1329.24 650.224 1327.25 652.205 1324.74 652.205C1322.23 652.205 1320.24 650.224 1320.24 647.715C1320.24 645.206 1322.23 643.225 1324.74 643.225C1327.25 643.093 1329.24 645.206 1329.24 647.715Z" fill="#EDE7D1"/>
<path d="M1622.14 443.686C1635.58 443.686 1646.48 433.517 1646.48 420.972C1646.48 408.428 1635.58 398.258 1622.14 398.258C1608.69 398.258 1597.79 408.428 1597.79 420.972C1597.79 433.517 1608.69 443.686 1622.14 443.686Z" fill="#FCF9ED"/>
<path d="M1578.67 456.356C1591.37 455.749 1601.18 445.098 1600.58 432.568C1599.98 420.037 1589.2 410.371 1576.5 410.978C1563.8 411.585 1553.99 422.235 1554.59 434.766C1555.19 447.297 1565.97 456.963 1578.67 456.356Z" fill="#FCF9ED"/>
<path d="M1448.04 564.65C1454.76 564.65 1460.21 559.211 1460.21 552.501C1460.21 545.791 1454.76 540.352 1448.04 540.352C1441.32 540.352 1435.87 545.791 1435.87 552.501C1435.87 559.211 1441.32 564.65 1448.04 564.65Z" fill="#FCF9ED"/>
<path d="M1424.22 588.553C1424.22 595.288 1418.8 600.702 1412.05 600.702C1405.31 600.702 1399.88 595.288 1399.88 588.553C1399.88 581.818 1405.31 576.404 1412.05 576.404C1418.67 576.404 1424.22 581.818 1424.22 588.553Z" fill="#FCF9ED"/>
<path d="M1600.84 501.131C1616.99 501.131 1630.08 488.951 1630.08 473.927C1630.08 458.903 1616.99 446.723 1600.84 446.723C1584.69 446.723 1571.6 458.903 1571.6 473.927C1571.6 488.951 1584.69 501.131 1600.84 501.131Z" fill="#FCF9ED"/>
<path d="M1483.63 579.837C1499.77 579.837 1512.86 567.657 1512.86 552.633C1512.86 537.609 1499.77 525.429 1483.63 525.429C1467.48 525.429 1454.39 537.609 1454.39 552.633C1454.39 567.657 1467.48 579.837 1483.63 579.837Z" fill="#FCF9ED"/>
<path d="M1571.6 516.317C1583.37 516.317 1592.9 507.449 1592.9 496.509C1592.9 485.569 1583.37 476.7 1571.6 476.7C1559.84 476.7 1550.3 485.569 1550.3 496.509C1550.3 507.449 1559.84 516.317 1571.6 516.317Z" fill="#FCF9ED"/>
<path d="M1375.96 631.34C1387.73 631.326 1397.25 621.737 1397.24 609.922C1397.23 598.106 1387.68 588.539 1375.92 588.553C1364.15 588.567 1354.63 598.156 1354.64 609.971C1354.65 621.786 1364.2 631.353 1375.96 631.34Z" fill="#FCF9ED"/>
<path d="M1745.83 516.317C1757.6 516.317 1767.13 507.449 1767.13 496.509C1767.13 485.569 1757.6 476.7 1745.83 476.7C1734.07 476.7 1724.53 485.569 1724.53 496.509C1724.53 507.449 1734.07 516.317 1745.83 516.317Z" fill="#FCF9ED"/>
<path d="M1555.59 493.736C1549.77 502.98 1537.07 506.017 1527.15 500.603C1517.23 495.188 1514.05 483.303 1519.74 474.191C1525.56 464.947 1538.26 461.91 1548.19 467.324C1558.11 472.739 1561.41 484.492 1555.59 493.736Z" fill="#FCF9ED"/>
<path d="M1440.76 571.781C1434.94 581.686 1422.24 584.987 1412.32 579.177C1402.4 573.366 1399.22 560.689 1404.91 550.784C1410.73 540.88 1423.43 537.579 1433.35 543.389C1443.28 549.2 1446.58 562.009 1440.76 571.781Z" fill="#FCF9ED"/>
<path d="M1533.9 504.3C1530.72 509.318 1523.84 510.903 1518.42 507.998C1513 505.092 1511.28 498.622 1514.45 493.603C1517.63 488.585 1524.51 487.001 1529.93 489.906C1535.35 492.811 1537.07 499.282 1533.9 504.3Z" fill="#FCF9ED"/>
<path d="M1215.99 727.609C1212.82 733.024 1205.94 734.74 1200.52 731.571C1195.09 728.402 1193.37 721.535 1196.55 716.12C1199.72 710.706 1206.6 708.989 1212.02 712.159C1217.32 715.328 1219.04 722.195 1215.99 727.609Z" fill="#FCF9ED"/>
<path d="M1720.3 471.418C1726.51 471.418 1731.54 466.688 1731.54 460.853C1731.54 455.019 1726.51 450.289 1720.3 450.289C1714.09 450.289 1709.05 455.019 1709.05 460.853C1709.05 466.688 1714.09 471.418 1720.3 471.418Z" fill="#FCF9ED"/>
<path d="M1407.95 605.588C1404.78 611.003 1397.9 612.719 1392.47 609.55C1387.05 606.381 1385.33 599.514 1388.51 594.099C1391.68 588.685 1398.56 586.968 1403.98 590.138C1409.41 593.307 1411.13 600.174 1407.95 605.588Z" fill="#FCF9ED"/>
<path d="M1366.54 630.415C1356.62 647.186 1335.06 652.733 1318.26 642.961C1301.46 633.056 1295.9 611.531 1305.69 594.76C1315.61 577.988 1337.18 572.442 1353.98 582.214C1370.78 592.118 1376.33 613.644 1366.54 630.415Z" fill="#FCF9ED"/>
<path d="M1613.54 402.484C1615.39 408.031 1611.95 413.841 1606 415.558C1600.04 417.275 1593.69 414.105 1591.97 408.559C1590.12 403.012 1593.56 397.202 1599.52 395.485C1605.34 393.768 1611.69 396.938 1613.54 402.484Z" fill="#FCF9ED"/>
<path d="M1604.14 456.099C1616.49 456.099 1626.5 446.226 1626.5 434.046C1626.5 421.866 1616.49 411.992 1604.14 411.992C1591.8 411.992 1581.79 421.866 1581.79 434.046C1581.79 446.226 1591.8 456.099 1604.14 456.099Z" fill="#FCF9ED"/>
<path d="M1230.81 728.401C1242.21 728.401 1251.45 719.119 1251.45 707.668C1251.45 696.218 1242.21 686.935 1230.81 686.935C1219.41 686.935 1210.17 696.218 1210.17 707.668C1210.17 719.119 1219.41 728.401 1230.81 728.401Z" fill="#FCF9ED"/>
<path d="M1339.03 680.069C1344.72 689.973 1341.41 702.651 1331.49 708.329C1321.57 714.008 1308.86 710.706 1303.18 700.802C1297.49 690.898 1300.8 678.22 1310.72 672.542C1320.64 666.731 1333.21 670.165 1339.03 680.069Z" fill="#FCF9ED"/>
<path d="M1522.26 521.996C1518.15 528.467 1509.16 530.712 1502.28 526.882C1495.27 523.053 1493.02 514.733 1497.12 508.262C1501.22 501.792 1510.22 499.547 1517.1 503.376C1523.98 507.206 1526.36 515.525 1522.26 521.996Z" fill="#FCF9ED"/>
<path d="M1270.24 718.497C1266.13 725.496 1257.14 727.741 1250.26 723.647C1243.38 719.554 1241 710.574 1245.1 703.575C1249.2 696.576 1258.2 694.331 1265.08 698.424C1271.95 702.518 1274.34 711.498 1270.24 718.497Z" fill="#FCF9ED"/>
<path d="M1190.99 725.232C1192.58 731.307 1188.87 737.381 1182.92 738.966C1176.84 740.551 1170.75 736.853 1169.16 730.91C1167.58 724.836 1171.28 718.761 1177.23 717.176C1183.19 715.592 1189.4 719.157 1190.99 725.232Z" fill="#FCF9ED"/>
<path d="M1290.74 704.895C1292.33 710.97 1288.62 717.045 1282.67 718.629C1276.59 720.214 1270.5 716.516 1268.91 710.574C1267.33 704.499 1271.03 698.424 1276.98 696.84C1283.07 695.255 1289.29 698.821 1290.74 704.895Z" fill="#FCF9ED"/>
<path d="M1307.67 693.67C1309.26 699.745 1305.56 705.82 1299.6 707.404C1293.52 708.989 1287.43 705.291 1285.85 699.349C1284.26 693.274 1287.96 687.2 1293.92 685.615C1300 684.03 1306.09 687.596 1307.67 693.67Z" fill="#FCF9ED"/>
<path d="M1360.06 682.314C1361.65 688.388 1357.95 694.463 1351.99 696.048C1345.91 697.632 1339.82 693.935 1338.24 687.992C1336.65 681.917 1340.35 675.843 1346.31 674.258C1352.26 672.673 1358.48 676.371 1360.06 682.314Z" fill="#FCF9ED"/>
<path d="M1748.74 468.777C1750.33 474.455 1746.63 480.134 1740.67 481.586C1734.59 483.039 1728.5 479.606 1726.92 474.059C1725.33 468.381 1729.03 462.702 1734.99 461.25C1740.94 459.797 1747.16 463.098 1748.74 468.777Z" fill="#FCF9ED"/>
<path d="M1631.8 501.659C1635.63 502.187 1638.28 505.489 1637.75 509.054C1637.22 512.62 1633.65 515.129 1629.81 514.601C1625.98 514.073 1623.33 510.771 1623.86 507.206C1624.39 503.508 1627.96 501.131 1631.8 501.659Z" fill="#FCF9ED"/>
<path d="M1642.64 406.974C1648.85 406.974 1653.89 402.244 1653.89 396.41C1653.89 390.575 1648.85 385.845 1642.64 385.845C1636.43 385.845 1631.4 390.575 1631.4 396.41C1631.4 402.244 1636.43 406.974 1642.64 406.974Z" fill="#FCF9ED"/>
<path d="M1719.24 439.196C1723.61 443.29 1723.61 449.893 1719.24 453.987C1714.88 458.08 1707.73 458.08 1703.23 453.987C1698.87 449.893 1698.87 443.29 1703.23 439.196C1707.6 435.103 1714.74 435.103 1719.24 439.196Z" fill="#FCF9ED"/>
<path d="M1522.26 418.463C1522.26 419.652 1521.33 420.444 1520.01 420.444C1518.82 420.444 1517.76 419.52 1517.76 418.463C1517.76 417.275 1518.68 416.482 1520.01 416.482C1521.2 416.35 1522.26 417.275 1522.26 418.463Z" fill="#FCF9ED"/>
<path d="M1575.04 446.592C1575.04 448.044 1573.72 449.365 1572.13 449.365C1570.54 449.365 1569.22 448.176 1569.22 446.592C1569.22 445.139 1570.54 443.818 1572.13 443.818C1573.72 443.818 1575.04 445.139 1575.04 446.592Z" fill="#FCF9ED"/>
<path d="M1368.53 561.745C1368.53 563.33 1367.21 564.65 1365.62 564.65C1364.03 564.65 1362.71 563.33 1362.71 561.745C1362.71 560.16 1364.03 558.84 1365.62 558.84C1367.21 558.84 1368.53 560.16 1368.53 561.745Z" fill="#FCF9ED"/>
<path d="M1713.29 391.128C1713.29 391.92 1713.95 392.448 1714.74 392.448C1715.54 392.448 1716.2 391.788 1716.2 391.128C1716.2 390.335 1715.54 389.807 1714.74 389.807C1713.95 389.807 1713.29 390.467 1713.29 391.128Z" fill="#FCF9ED"/>
<path d="M1727.97 429.556C1727.97 428.632 1727.18 427.839 1726.25 427.839C1725.33 427.839 1724.53 428.632 1724.53 429.556C1724.53 430.48 1725.33 431.273 1726.25 431.273C1727.18 431.273 1727.97 430.48 1727.97 429.556Z" fill="#FCF9ED"/>
<path d="M1743.05 468.249C1743.05 465.872 1740.94 463.891 1738.29 463.891C1735.65 463.891 1733.53 465.872 1733.53 468.249C1733.53 470.626 1735.65 472.607 1738.29 472.607C1740.94 472.607 1743.05 470.626 1743.05 468.249Z" fill="#FCF9ED"/>
<path d="M1548.19 476.7C1548.19 475.643 1549.11 474.851 1550.17 474.851C1551.23 474.851 1552.15 475.643 1552.15 476.7C1552.15 477.756 1551.23 478.549 1550.17 478.549C1549.11 478.549 1548.19 477.756 1548.19 476.7Z" fill="#FCF9ED"/>
<path d="M1512.6 445.138C1512.6 447.515 1510.61 449.364 1508.1 449.364C1505.59 449.364 1503.6 447.515 1503.6 445.138C1503.6 442.761 1505.59 440.913 1508.1 440.913C1510.61 440.913 1512.6 442.761 1512.6 445.138Z" fill="#FCF9ED"/>
<path d="M1346.83 582.478C1346.83 584.987 1344.85 586.968 1342.34 586.968C1339.82 586.968 1337.84 584.987 1337.84 582.478C1337.84 579.969 1339.82 577.988 1342.34 577.988C1344.85 577.988 1346.83 579.969 1346.83 582.478Z" fill="#FCF9ED"/>
<path d="M1502.54 525.43C1502.54 527.807 1500.56 529.656 1498.05 529.656C1495.53 529.656 1493.55 527.807 1493.55 525.43C1493.55 523.053 1495.53 521.204 1498.05 521.204C1500.43 521.204 1502.54 523.053 1502.54 525.43Z" fill="#FCF9ED"/>
<path d="M1197.08 719.29C1197.08 721.799 1195.09 723.779 1192.58 723.779C1190.06 723.779 1188.08 721.799 1188.08 719.29C1188.08 716.78 1190.06 714.8 1192.58 714.8C1194.96 714.8 1197.08 716.78 1197.08 719.29Z" fill="#FCF9ED"/>
<path d="M1406.5 589.477L1545.27 467.852L1614.46 462.966L1633.25 390.863L1657.72 410.011L1688.95 435.366L1745.83 482.907V720.214H1414.04H1016.23L1191.26 677.691L1254.89 656.958L1316.67 623.68L1406.5 589.477Z" fill="#FCF9ED"/>
<path d="M1596.08 427.839C1596.08 431.272 1598.99 434.046 1602.69 434.046C1606.4 434.046 1609.31 431.272 1609.31 427.839C1609.31 424.406 1606.4 421.632 1602.69 421.632C1598.99 421.632 1596.08 424.406 1596.08 427.839Z" fill="#EDE7D1"/>
<path d="M1247.35 669.108C1247.35 672.805 1250.26 675.711 1253.96 675.711C1257.67 675.711 1260.58 672.805 1260.58 669.108C1260.58 665.41 1257.67 662.505 1253.96 662.505C1250.26 662.505 1247.35 665.41 1247.35 669.108Z" fill="#EDE7D1"/>
<path d="M1324.74 620.379C1323.15 626.982 1316.67 630.944 1310.05 629.491C1303.44 627.906 1299.47 621.436 1300.93 614.833C1302.51 608.23 1309 604.268 1315.61 605.721C1322.23 607.305 1326.19 613.908 1324.74 620.379Z" fill="#EDE7D1"/>
<path d="M1246.42 662.505C1244.7 669.9 1237.16 674.522 1229.75 672.806C1222.35 671.089 1217.72 663.562 1219.44 656.166C1221.16 648.771 1228.7 644.149 1236.1 645.866C1243.65 647.583 1248.27 654.978 1246.42 662.505Z" fill="#EDE7D1"/>
<path d="M1138.34 699.349C1157.26 699.349 1172.6 684.036 1172.6 665.146C1172.6 646.257 1157.26 630.943 1138.34 630.943C1119.42 630.943 1104.07 646.257 1104.07 665.146C1104.07 684.036 1119.42 699.349 1138.34 699.349Z" fill="#EDE7D1"/>
<path d="M1281.88 673.598C1270.63 685.351 1251.85 685.747 1240.07 674.522C1228.3 663.165 1227.9 644.545 1239.15 632.66C1250.39 620.907 1269.18 620.511 1280.95 631.735C1292.73 643.092 1293.12 661.844 1281.88 673.598Z" fill="#EDE7D1"/>
<path d="M1216.26 678.748C1211.89 683.238 1204.75 683.37 1200.25 679.144C1195.75 674.786 1195.62 667.655 1199.86 663.165C1204.22 658.675 1211.37 658.543 1215.86 662.769C1220.49 666.995 1220.63 674.126 1216.26 678.748Z" fill="#EDE7D1"/>
<path d="M1170.49 677.956C1167.05 683.238 1160.17 684.691 1154.88 681.257C1149.58 677.824 1148.13 670.825 1151.57 665.674C1155.01 660.392 1161.89 658.939 1167.18 662.373C1172.34 665.674 1173.79 672.673 1170.49 677.956Z" fill="#EDE7D1"/>
<path d="M1319.32 594.759C1319.71 600.966 1314.95 606.38 1308.73 606.776C1302.52 607.172 1297.09 602.418 1296.69 596.212C1296.3 590.005 1301.06 584.591 1307.28 584.194C1313.5 583.798 1318.92 588.552 1319.32 594.759Z" fill="#EDE7D1"/>
<path d="M1133.84 675.446C1139.13 685.614 1135.16 698.028 1124.98 703.31C1114.79 708.592 1102.36 704.631 1097.06 694.462C1091.77 684.294 1095.74 671.88 1105.93 666.598C1116.11 661.448 1128.55 665.409 1133.84 675.446Z" fill="#EDE7D1"/>
<path d="M1331.36 572.706C1329.24 574.819 1325.93 574.951 1323.68 572.838C1321.57 570.725 1321.43 567.424 1323.55 565.179C1325.67 563.066 1328.97 562.934 1331.22 565.047C1333.47 567.159 1333.47 570.593 1331.36 572.706Z" fill="#EDE7D1"/>
<path d="M1063.46 710.97C1059.09 717.705 1049.97 719.686 1043.22 715.328C1036.47 710.97 1034.49 701.858 1038.85 695.123C1043.22 688.388 1052.35 686.407 1059.09 690.765C1065.97 695.123 1067.96 704.103 1063.46 710.97Z" fill="#EDE7D1"/>
<path d="M1176.31 632.132C1176.44 638.338 1171.54 643.488 1165.33 643.62C1159.11 643.753 1153.95 638.866 1153.82 632.528C1153.69 626.321 1158.58 621.171 1164.8 621.039C1171.02 620.907 1176.18 625.925 1176.31 632.132Z" fill="#EDE7D1"/>
<path d="M1496.72 476.964C1496.86 483.171 1491.96 488.321 1485.74 488.453C1479.52 488.585 1474.37 483.699 1474.23 477.361C1474.1 471.154 1479 466.004 1485.21 465.872C1491.43 465.872 1496.59 470.758 1496.72 476.964Z" fill="#EDE7D1"/>
<path d="M1699.13 435.631C1699.4 448.044 1689.61 458.213 1677.17 458.477C1664.74 458.741 1654.55 448.969 1654.28 436.555C1654.02 424.142 1663.81 413.973 1676.25 413.709C1688.55 413.313 1698.87 423.217 1699.13 435.631Z" fill="#FCF9ED"/>
<path d="M1706.94 449.365C1707.2 461.778 1697.41 471.947 1684.98 472.211C1672.54 472.475 1662.36 462.703 1662.09 450.289C1661.83 437.876 1671.62 427.707 1684.05 427.443C1696.49 427.179 1706.67 436.951 1706.94 449.365Z" fill="#FCF9ED"/>
<path d="M1084.63 698.292C1085.95 704.367 1081.98 710.309 1075.9 711.63C1069.81 712.951 1063.86 708.989 1062.53 702.914C1061.21 696.84 1065.18 690.897 1071.26 689.577C1077.35 688.256 1083.3 692.086 1084.63 698.292Z" fill="#EDE7D1"/>
<path d="M1101.96 687.728C1103.28 693.802 1099.31 699.745 1093.23 701.066C1087.14 702.386 1081.19 698.424 1079.86 692.35C1078.54 686.275 1082.51 680.333 1088.59 679.012C1094.68 677.691 1100.63 681.653 1101.96 687.728Z" fill="#EDE7D1"/>
<path d="M1154.74 678.748C1156.07 684.823 1152.1 690.766 1146.01 692.086C1139.93 693.407 1133.97 689.445 1132.65 683.37C1131.33 677.296 1135.3 671.353 1141.38 670.032C1147.47 668.712 1153.55 672.674 1154.74 678.748Z" fill="#EDE7D1"/>
<path d="M1187.95 626.981C1187.55 628.566 1185.96 629.49 1184.38 629.094C1182.79 628.698 1181.86 627.113 1182.26 625.529C1182.66 623.944 1184.24 623.02 1185.83 623.416C1187.29 623.812 1188.34 625.397 1187.95 626.981Z" fill="#EDE7D1"/>
<path d="M1192.31 640.98C1192.58 639.923 1193.64 639.263 1194.69 639.527C1195.75 639.791 1196.41 640.848 1196.15 641.904C1195.89 642.961 1194.83 643.621 1193.77 643.357C1192.71 643.093 1192.05 642.036 1192.31 640.98Z" fill="#EDE7D1"/>
<path d="M1162.15 642.168C1161.62 644.545 1159.11 646.13 1156.73 645.602C1154.35 645.074 1152.76 642.565 1153.29 640.188C1153.82 637.811 1156.33 636.226 1158.71 636.754C1161.22 637.282 1162.68 639.791 1162.15 642.168Z" fill="#EDE7D1"/>
<path d="M1322.89 628.17C1321.3 634.773 1314.82 638.735 1308.2 637.282C1301.59 635.697 1297.62 629.227 1299.08 622.624C1300.66 616.021 1307.15 612.059 1313.76 613.512C1320.38 614.964 1324.48 621.567 1322.89 628.17Z" fill="#FCF9ED"/>
<path d="M1269.44 673.73C1267.85 680.333 1261.37 684.295 1254.76 682.842C1248.14 681.257 1244.17 674.787 1245.63 668.184C1247.22 661.581 1253.7 657.619 1260.31 659.072C1266.93 660.657 1271.03 667.259 1269.44 673.73Z" fill="#FCF9ED"/>
<path d="M1238.49 688.388C1235.84 699.877 1224.33 707.008 1212.82 704.235C1201.31 701.462 1194.3 689.973 1196.94 678.616C1199.59 667.127 1211.1 659.996 1222.61 662.769C1234.12 665.41 1241.13 676.899 1238.49 688.388Z" fill="#FCF9ED"/>
<path d="M1292.82 646.88C1292.86 635.429 1283.58 626.122 1272.11 626.09C1260.64 626.059 1251.32 635.316 1251.28 646.766C1251.25 658.217 1260.53 667.525 1272 667.556C1283.47 667.588 1292.79 658.331 1292.82 646.88Z" fill="#FCF9ED"/>
<path d="M1043.22 719.157C1039.78 724.44 1032.9 725.892 1027.61 722.459C1022.32 719.025 1020.86 712.026 1024.3 706.876C1027.74 701.594 1034.62 700.141 1039.91 703.575C1045.2 706.876 1046.66 713.875 1043.22 719.157Z" fill="#FCF9ED"/>
<path d="M1317.33 687.199C1304.23 700.933 1282.41 701.33 1268.78 688.256C1255.02 675.182 1254.62 653.393 1267.72 639.659C1280.82 625.925 1302.65 625.529 1316.27 638.602C1330.03 651.808 1330.43 673.465 1317.33 687.199Z" fill="#FCF9ED"/>
<path d="M1431.9 602.947C1418.8 616.681 1396.97 617.078 1383.35 604.004C1369.59 590.93 1369.19 569.141 1382.29 555.407C1395.38 541.673 1417.21 541.277 1430.84 554.35C1444.6 567.424 1444.99 589.213 1431.9 602.947Z" fill="#FCF9ED"/>
<path d="M1510.35 565.574C1497.25 578.384 1475.42 578.78 1461.8 566.499C1448.04 554.217 1447.64 534.013 1460.74 521.203C1473.84 508.393 1495.66 507.997 1509.29 520.279C1523.05 532.56 1523.58 552.897 1510.35 565.574Z" fill="#FCF9ED"/>
<path d="M1249.86 686.54C1245.5 691.03 1238.35 691.162 1233.85 686.936C1229.36 682.578 1229.22 675.447 1233.46 670.957C1237.82 666.467 1244.97 666.335 1249.46 670.561C1253.96 674.919 1254.1 682.05 1249.86 686.54Z" fill="#FCF9ED"/>
<path d="M1203.3 681.522C1195.23 689.973 1181.73 690.369 1173.13 682.182C1164.67 673.994 1164.4 660.524 1172.47 652.073C1180.54 643.621 1194.03 643.225 1202.63 651.412C1211.1 659.6 1211.5 673.07 1203.3 681.522Z" fill="#FCF9ED"/>
<path d="M1077.35 690.369C1082.64 700.537 1078.67 712.951 1068.49 718.233C1058.3 723.515 1045.87 719.554 1040.57 709.385C1035.28 699.217 1039.25 686.803 1049.44 681.521C1059.62 676.239 1072.06 680.201 1077.35 690.369Z" fill="#FCF9ED"/>
<path d="M1168.24 677.031C1173.53 687.199 1169.56 699.613 1159.37 704.895C1149.19 710.177 1136.75 706.216 1131.46 696.047C1126.17 685.879 1130.14 673.465 1140.32 668.183C1150.51 662.901 1162.95 666.862 1168.24 677.031Z" fill="#FCF9ED"/>
<path d="M1097.86 712.422C1093.49 719.157 1084.36 721.138 1077.61 716.78C1070.87 712.422 1068.88 703.31 1073.25 696.575C1077.61 689.841 1086.74 687.86 1093.49 692.218C1100.37 696.575 1102.35 705.687 1097.86 712.422Z" fill="#FCF9ED"/>
<path d="M1018.35 715.592C1019.67 721.667 1015.7 727.609 1009.62 728.93C1003.53 730.25 997.578 726.289 996.255 720.214C994.932 714.139 998.901 708.197 1004.99 706.876C1011.07 705.688 1017.02 709.517 1018.35 715.592Z" fill="#FCF9ED"/>
<path d="M1119.02 699.745C1120.35 705.82 1116.38 711.763 1110.29 713.083C1104.21 714.404 1098.25 710.442 1096.93 704.367C1095.61 698.293 1099.58 692.35 1105.66 691.03C1111.75 689.709 1117.7 693.671 1119.02 699.745Z" fill="#FCF9ED"/>
<path d="M1136.35 689.181C1137.68 695.255 1133.71 701.198 1127.62 702.518C1121.54 703.839 1115.58 699.877 1114.26 693.803C1112.94 687.728 1116.91 681.785 1122.99 680.465C1129.08 679.276 1135.16 683.106 1136.35 689.181Z" fill="#FCF9ED"/>
<path d="M1184.11 682.974C1184.24 689.181 1179.35 694.331 1173.13 694.463C1166.91 694.595 1161.75 689.709 1161.62 683.37C1161.49 677.163 1166.38 672.013 1172.6 671.881C1178.82 671.749 1183.98 676.767 1184.11 682.974Z" fill="#FCF9ED"/>
<path d="M1221.42 634.905C1221.02 636.49 1219.44 637.414 1217.85 637.018C1216.26 636.622 1215.33 635.037 1215.73 633.452C1216.13 631.868 1217.72 630.943 1219.3 631.34C1220.89 631.736 1221.82 633.32 1221.42 634.905Z" fill="#FCF9ED"/>
<path d="M1264.15 615.361C1264.41 614.305 1265.47 613.644 1266.53 613.908C1267.59 614.172 1268.25 615.229 1267.99 616.285C1267.72 617.342 1266.66 618.002 1265.6 617.738C1264.55 617.474 1263.89 616.417 1264.15 615.361Z" fill="#FCF9ED"/>
<path d="M1195.62 650.092C1195.09 652.469 1192.58 654.053 1190.2 653.525C1187.82 652.997 1186.23 650.488 1186.76 648.111C1187.29 645.734 1189.8 644.149 1192.18 644.677C1194.7 645.206 1196.15 647.583 1195.62 650.092Z" fill="#FCF9ED"/>
<path d="M1024.7 710.046C1024.56 712.555 1022.45 714.536 1019.93 714.404C1017.42 714.272 1015.44 712.159 1015.57 709.65C1015.7 707.14 1017.82 705.16 1020.33 705.292C1022.84 705.424 1024.83 707.537 1024.7 710.046Z" fill="#FCF9ED"/>
<path d="M1077.22 662.109C1077.09 665.807 1079.87 668.844 1083.57 668.976C1087.27 669.108 1090.32 666.335 1090.45 662.637C1090.58 658.94 1087.8 655.902 1084.1 655.77C1080.53 655.638 1077.35 658.411 1077.22 662.109Z" fill="#EDE7D1"/>
<path d="M1534.43 504.829C1534.43 507.998 1537.21 510.507 1540.51 510.507C1543.82 510.507 1546.6 507.998 1546.6 504.829C1546.6 501.659 1543.82 499.15 1540.51 499.15C1537.21 499.15 1534.43 501.659 1534.43 504.829Z" fill="#EDE7D1"/>
<path d="M1607.85 438.536C1607.85 439.328 1608.51 439.856 1609.3 439.856C1610.1 439.856 1610.76 439.196 1610.76 438.536C1610.76 437.876 1610.1 437.215 1609.3 437.215C1608.51 437.215 1607.85 437.744 1607.85 438.536Z" fill="#EDE7D1"/>
<path d="M1592.37 415.029C1592.37 416.614 1593.69 417.935 1595.41 417.935C1597.13 417.935 1598.46 416.614 1598.46 415.029C1598.46 413.445 1597.13 412.124 1595.41 412.124C1593.69 412.256 1592.37 413.445 1592.37 415.029Z" fill="#EDE7D1"/>
<path d="M1669.9 387.429C1669.9 388.222 1670.56 388.75 1671.35 388.75C1672.15 388.75 1672.81 388.09 1672.81 387.429C1672.81 386.637 1672.15 386.109 1671.35 386.109C1670.56 386.109 1669.9 386.637 1669.9 387.429Z" fill="#EDE7D1"/>
<path d="M1597 466.664C1597.27 479.738 1586.82 490.698 1573.72 490.963C1560.62 491.227 1549.77 480.794 1549.51 467.72C1549.24 454.647 1559.7 443.686 1572.79 443.422C1585.89 443.158 1596.74 453.59 1597 466.664Z" fill="#FCF9ED"/>
<path d="M1396.71 598.589C1396.97 611.663 1386.52 622.624 1373.43 622.888C1360.33 623.152 1349.48 612.719 1349.22 599.646C1348.95 586.572 1359.4 575.611 1372.5 575.347C1385.6 575.083 1396.44 585.516 1396.71 598.589Z" fill="#FCF9ED"/>
<path d="M1599.9 349.848H1582.46V190.37C1582.46 185.602 1586.4 164.028 1591.18 164.028C1595.96 164.028 1599.9 185.483 1599.9 190.37V349.848Z" fill="#F4EDE1"/>
<path d="M1599.9 192.038H1582.46V195.018H1599.9V192.038Z" fill="#5C527C"/>
<path d="M1599.9 288.345H1582.46V291.325H1599.9V288.345Z" fill="#5C527C"/>
<path d="M1599.9 294.305H1582.46V297.284H1599.9V294.305Z" fill="#5C527C"/>
<path d="M1599.9 354.615H1582.46L1587.24 347.345H1595.24L1599.9 354.615Z" fill="#E3B454"/>
<path d="M1604.19 357.715H1578.16L1580.55 354.616H1601.81L1604.19 357.715Z" fill="#F7DA5C"/>
<path d="M1599.9 339.955H1582.46V349.848H1599.9V339.955Z" fill="#5C527C"/>
<path d="M1601.81 354.616H1599.9L1596.79 349.848H1599.9V339.955V297.165V294.185V291.206V288.226V194.899V191.919V190.37C1599.9 185.602 1595.96 164.028 1591.18 164.028V357.715H1604.19L1601.81 354.616Z" fill="#5C527C"/>
<path d="M1669.15 349.848H1651.72V190.37C1651.72 185.602 1655.66 164.028 1660.44 164.028C1665.21 164.028 1669.15 185.483 1669.15 190.37V349.848Z" fill="#F4EDE1"/>
<path d="M1669.15 192.038H1651.72V195.018H1669.15V192.038Z" fill="#5C527C"/>
<path d="M1669.15 288.345H1651.72V291.325H1669.15V288.345Z" fill="#5C527C"/>
<path d="M1669.15 294.305H1651.72V297.284H1669.15V294.305Z" fill="#5C527C"/>
<path d="M1669.15 354.615H1651.72L1656.38 347.345H1664.38L1669.15 354.615Z" fill="#E3B454"/>
<path d="M1673.45 357.715H1647.42L1649.81 354.616H1671.06L1673.45 357.715Z" fill="#F7DA5C"/>
<path d="M1669.15 339.955H1651.72V349.848H1669.15V339.955Z" fill="#5C527C"/>
<path d="M1671.06 354.616H1669.15L1666.05 349.848H1669.15V339.955V297.165V294.185V291.206V288.226V194.899V191.919V190.37C1669.15 185.602 1665.21 164.028 1660.44 164.028V357.715H1673.45L1671.06 354.616Z" fill="#5C527C"/>
<path d="M1625.81 121C1611.48 121 1599.9 157.949 1599.9 167.723V319.454C1599.9 329.108 1611.48 336.975 1625.81 336.975C1640.14 336.975 1651.72 329.108 1651.72 319.454V167.723C1651.72 157.949 1640.14 121 1625.81 121Z" fill="#8289B2"/>
<path d="M1625.81 121C1617.09 121 1609.33 134.945 1604.67 147.937H1647.06C1642.28 134.945 1634.52 121 1625.81 121Z" fill="#E38F41"/>
<path d="M1651.6 174.636H1599.9V176.543H1651.6V174.636Z" fill="#E3B454"/>
<path d="M1625.81 121V336.975C1640.14 336.975 1651.72 329.108 1651.72 319.454V167.723C1651.72 157.949 1640.14 121 1625.81 121Z" fill="#5C527C"/>
<path d="M1625.81 235.305L1622.11 237.093L1625.81 239V235.305Z" fill="#EAB051"/>
<path d="M1588.08 301.575L1596.19 292.755C1601.69 286.796 1604.08 274.757 1604.08 264.388C1604.08 254.852 1608.14 247.82 1613.99 244.721L1621.63 240.907V237.212L1609.69 243.291C1603.84 246.27 1599.9 254.733 1599.9 264.268C1599.9 274.638 1596.55 284.293 1591.06 290.252L1582.94 299.072C1573.99 308.727 1567.18 321.838 1563 336.856H1568.97C1572.91 323.03 1579.36 310.991 1588.08 301.575Z" fill="#EAB051"/>
<path d="M1629.87 236.973L1629.51 237.092L1629.87 237.45V236.973Z" fill="#FFFDEC"/>
<path d="M1613.99 244.84C1608.14 247.82 1604.08 254.971 1604.08 264.507C1604.08 274.876 1601.69 286.915 1596.19 292.874L1588.08 301.694C1579.36 311.11 1572.91 323.149 1569.09 337.094H1621.75V241.145L1613.99 244.84Z" fill="#E38F41"/>
<path d="M1629.51 237.093L1625.81 235.305V239L1629.51 237.093Z" fill="#E9AB4D"/>
<path d="M1637.63 244.84C1643.48 247.82 1647.54 254.971 1647.54 264.507C1647.54 274.876 1649.93 286.915 1655.42 292.874L1663.54 301.694C1672.26 311.111 1678.7 323.149 1682.52 337.094H1688.5C1684.32 322.076 1677.51 308.965 1668.55 299.311L1660.43 290.49C1654.94 284.531 1651.6 274.876 1651.6 264.507C1651.6 254.971 1647.66 246.628 1641.81 243.529L1629.87 237.45V241.145L1637.63 244.84Z" fill="#E9AB4D"/>
<path d="M1625.81 239L1629.99 241.026L1629.87 237.45L1629.51 237.093L1625.81 239Z" fill="#E9AB4D"/>
<path d="M1621.63 236.973V237.45L1622.11 237.092L1621.63 236.973Z" fill="#E38F41"/>
<path d="M1625.81 239L1622.11 237.093L1621.63 237.45V241.026L1625.81 239Z" fill="#E38F41"/>
<path d="M1621.63 241.026V336.975H1625.81V239L1621.63 241.026Z" fill="#E38F41"/>
<path d="M1655.42 292.755C1649.93 286.795 1647.54 274.757 1647.54 264.387C1647.54 254.852 1643.48 247.82 1637.63 244.721L1629.99 240.907V336.856H1682.64C1678.7 322.91 1672.38 310.872 1663.66 301.456L1655.42 292.755Z" fill="#E38F41"/>
<path d="M1625.81 239V336.975H1629.99V241.026L1625.81 239Z" fill="#E38F41"/>
<path d="M1619.96 339.24H1613.51V346.63H1619.96V339.24Z" fill="#E3B454"/>
<path d="M1621.63 349.848H1611.84L1612.79 346.511H1620.67L1621.63 349.848Z" fill="#F7DA5C"/>
<path d="M1637.99 339.24H1631.54V346.63H1637.99V339.24Z" fill="#E6A94C"/>
<path d="M1639.66 349.848H1629.99L1630.82 346.511H1638.82L1639.66 349.848Z" fill="#F7DA5C"/>
<path d="M1639.66 339.24H1611.84V203.123C1611.84 195.495 1618.04 181.668 1625.69 181.668C1633.33 181.668 1639.54 195.375 1639.54 203.123V339.24H1639.66Z" fill="#FCF6ED"/>
<path d="M1635.72 214.327C1629.15 214.327 1622.58 214.327 1616.02 214.327C1616.02 213.016 1616.02 211.705 1616.02 210.394C1622.22 207.414 1629.51 207.414 1635.72 210.394C1635.72 211.705 1635.72 213.016 1635.72 214.327Z" fill="#5C527C"/>
<path d="M1639.66 318.143H1611.84V339.24H1639.66V318.143Z" fill="#EABD57"/>
<path d="M1639.66 234.709H1611.84V235.782H1639.66V234.709Z" fill="#EABD57"/>
<path d="M1639.66 271.419H1611.84V272.492H1639.66V271.419Z" fill="#EABD57"/>
<path d="M1625.81 181.668C1621.63 181.668 1617.93 185.721 1615.42 190.608H1636.19C1633.69 185.721 1629.99 181.668 1625.81 181.668Z" fill="#5C527C"/>
<path d="M1619.12 207.175H1618.04V217.903H1619.12V207.175Z" fill="#FCF6ED"/>
<path d="M1632.73 207.175H1631.66V217.903H1632.73V207.175Z" fill="#FCF6ED"/>
<path d="M1627.84 359.74L1627 362.363C1626.64 363.555 1624.97 363.555 1624.49 362.363L1623.66 359.74C1623.66 359.621 1623.54 359.502 1623.54 359.383V324.817L1625.69 318.143L1627.84 324.817V359.383C1627.96 359.502 1627.96 359.621 1627.84 359.74Z" fill="#FCF6ED"/>
<path d="M1625.81 181.668V363.197C1626.28 363.197 1626.88 362.959 1627.12 362.244L1627.96 359.621C1627.96 359.502 1628.08 359.383 1628.08 359.264V339.12H1639.78V203.123C1639.78 195.495 1633.57 181.668 1625.81 181.668Z" fill="#5C527C"/>
<path d="M1199 207L1210 217.333L1199 227.667L1210 238L1199 248.333L1210 258.667L1199 269" stroke="#58B58B" stroke-width="5"/>
<path opacity="0.3" d="M1170 238L1181 248.333L1170 258.667L1181 269L1170 279.333L1181 289.667L1170 300" stroke="#58B58B" stroke-width="5"/>
<path d="M438.5 402C438.5 396.753 442.753 392.5 448 392.5C453.247 392.5 457.5 396.753 457.5 402C457.5 407.247 453.247 411.5 448 411.5C442.753 411.5 438.5 407.247 438.5 402Z" stroke="#BAD2ED" stroke-width="3"/>
<path d="M1541 25C1541 12.8497 1550.85 3 1563 3C1575.15 3 1585 12.8497 1585 25C1585 37.1503 1575.15 47 1563 47C1550.85 47 1541 37.1503 1541 25Z" stroke="#BAD2ED" stroke-width="6"/>
</g>
<path d="M1650.06 344L1649.86 493.537" stroke="#FCF9ED" stroke-width="3" stroke-miterlimit="10"/>
<path d="M1637.07 344L1637.07 495.454" stroke="#FCF9ED" stroke-width="3" stroke-miterlimit="10"/>
<path d="M1667.69 367.139V544.341" stroke="#FCF9ED" stroke-width="12" stroke-miterlimit="10"/>
<path d="M1618.56 367.138V544.34" stroke="#FCF9ED" stroke-width="12" stroke-miterlimit="10"/>
<path d="M1674.95 446.425C1665.91 445.842 1658.93 435.632 1659.36 423.622C1659.79 411.611 1667.47 402.348 1676.51 402.932C1685.55 403.515 1692.53 413.725 1692.1 425.735C1691.67 437.745 1683.99 447.009 1674.95 446.425Z" fill="#EDE7D1"/>
<path d="M1711.12 517.734C1710.93 527.481 1716.68 535.583 1723.93 535.709C1731.18 535.962 1737.12 528.241 1737.31 518.494C1737.49 508.746 1731.75 500.645 1724.5 500.518C1717.34 500.265 1711.31 507.987 1711.12 517.734Z" fill="#EDE7D1"/>
<path d="M1656.31 432.921C1647.67 432.921 1640.67 423.173 1640.67 411.148C1640.67 399.124 1647.67 389.375 1656.31 389.375C1664.94 389.375 1671.94 399.124 1671.94 411.148C1671.94 423.173 1664.94 432.921 1656.31 432.921Z" fill="#EDE7D1"/>
<path d="M1692 495.201C1679.52 495.201 1669.4 481.429 1669.4 464.441C1669.4 447.452 1679.52 433.68 1692 433.68C1704.49 433.68 1714.61 447.452 1714.61 464.441C1714.61 481.429 1704.49 495.201 1692 495.201Z" fill="#EDE7D1"/>
<path d="M1761.51 550.646C1761.51 557.102 1765.37 562.292 1770.18 562.292C1774.98 562.292 1778.84 557.102 1778.84 550.646C1778.84 544.19 1774.98 539 1770.18 539C1765.37 539 1761.51 544.19 1761.51 550.646Z" fill="#EDE7D1"/>
<path d="M1814.82 600.648C1809.36 600.648 1804.93 594.697 1804.93 587.356C1804.93 580.015 1809.36 574.064 1814.82 574.064C1820.28 574.064 1824.71 580.015 1824.71 587.356C1824.71 594.697 1820.28 600.648 1814.82 600.648Z" fill="#EDE7D1"/>
<path d="M1759.06 578.369C1744.13 578.369 1732.03 563.237 1732.03 544.57C1732.03 525.904 1744.13 510.772 1759.06 510.772C1773.99 510.772 1786.09 525.904 1786.09 544.57C1786.09 563.237 1773.99 578.369 1759.06 578.369Z" fill="#EDE7D1"/>
<path d="M1685.5 516.975C1677.13 516.975 1670.34 508.474 1670.34 497.987C1670.34 487.5 1677.13 478.999 1685.5 478.999C1693.88 478.999 1700.67 487.5 1700.67 497.987C1700.67 508.474 1693.88 516.975 1685.5 516.975Z" fill="#EDE7D1"/>
<path d="M1869.54 703.182C1856.07 703.182 1845.15 688.504 1845.15 670.397C1845.15 652.29 1856.07 637.611 1869.54 637.611C1883.01 637.611 1893.94 652.29 1893.94 670.397C1893.94 688.504 1883.01 703.182 1869.54 703.182Z" fill="#EDE7D1"/>
<path d="M1582.75 523.557C1574.37 523.557 1567.58 515.056 1567.58 504.569C1567.58 494.082 1574.37 485.581 1582.75 485.581C1591.12 485.581 1597.91 494.082 1597.91 504.569C1597.91 515.056 1591.12 523.557 1582.75 523.557Z" fill="#EDE7D1"/>
<path d="M1778.65 590.015C1784.59 603.56 1797.49 607.991 1807.47 600.016C1817.46 592.041 1820.85 574.698 1814.92 561.154C1808.98 547.609 1796.08 543.178 1786.09 551.153C1776.02 559.128 1772.72 576.471 1778.65 590.015Z" fill="#EDE7D1"/>
<path d="M1600.93 480.517C1596.5 480.517 1592.92 475.984 1592.92 470.391C1592.92 464.798 1596.5 460.264 1600.93 460.264C1605.35 460.264 1608.93 464.798 1608.93 470.391C1608.93 475.984 1605.35 480.517 1600.93 480.517Z" fill="#EDE7D1"/>
<path d="M1823.2 609.129C1825.46 614.319 1830.36 615.965 1834.22 612.927C1838.09 609.889 1839.31 603.306 1837.05 598.116C1834.79 592.926 1829.89 591.281 1826.03 594.319C1822.26 597.357 1820.94 603.939 1823.2 609.129Z" fill="#EDE7D1"/>
<path d="M1846.28 681.284C1848.54 686.474 1853.44 688.12 1857.3 685.082C1861.16 682.044 1862.38 675.461 1860.12 670.271C1857.86 665.081 1852.97 663.435 1849.1 666.473C1845.24 669.512 1844.02 676.094 1846.28 681.284Z" fill="#EDE7D1"/>
<path d="M1761.3 584.574C1756.88 584.557 1753.3 579.725 1753.31 573.783C1753.33 567.84 1756.92 563.037 1761.34 563.054C1765.77 563.072 1769.34 567.903 1769.33 573.846C1769.31 579.788 1765.72 584.591 1761.3 584.574Z" fill="#EDE7D1"/>
<path d="M1872.37 680.524C1868.32 690.018 1870.67 702.17 1877.74 707.613C1884.8 713.057 1893.84 709.892 1897.89 700.398C1901.94 690.904 1899.59 678.752 1892.52 673.308C1885.46 667.739 1876.42 671.03 1872.37 680.524Z" fill="#EDE7D1"/>
<path d="M1605.35 431.023C1601.3 439.884 1603.66 451.15 1610.72 456.213C1617.78 461.277 1626.83 458.239 1630.88 449.504C1634.93 440.643 1632.57 429.377 1625.51 424.314C1618.44 419.25 1609.4 422.162 1605.35 431.023Z" fill="#EDE7D1"/>
<path d="M1846.56 636.978C1845.43 642.801 1848.07 648.624 1852.31 650.143C1856.64 651.662 1860.97 648.118 1862.1 642.421C1863.23 636.598 1860.6 630.775 1856.36 629.256C1852.12 627.737 1847.6 631.155 1846.56 636.978Z" fill="#EDE7D1"/>
<path d="M1906.65 704.322C1905.52 710.145 1908.16 715.968 1912.4 717.487C1916.64 719.006 1921.06 715.461 1922.19 709.765C1923.32 704.069 1920.69 698.119 1916.45 696.6C1912.12 695.081 1907.78 698.499 1906.65 704.322Z" fill="#EDE7D1"/>
<path d="M1894.6 693.563C1893.47 699.386 1896.1 705.209 1900.34 706.728C1904.67 708.247 1909.01 704.702 1910.14 699.006C1911.27 693.183 1908.63 687.36 1904.39 685.841C1900.15 684.322 1895.73 687.74 1894.6 693.563Z" fill="#EDE7D1"/>
<path d="M1857.39 682.676C1856.26 688.499 1858.9 694.322 1863.14 695.841C1867.47 697.36 1871.8 693.816 1872.93 688.119C1874.06 682.296 1871.43 676.473 1867.19 674.954C1862.86 673.435 1858.43 676.98 1857.39 682.676Z" fill="#EDE7D1"/>
<path d="M1580.68 477.986C1579.55 483.429 1582.18 488.872 1586.42 490.265C1590.75 491.657 1595.09 488.366 1596.22 483.049C1597.35 477.606 1594.71 472.163 1590.47 470.771C1586.14 469.378 1581.81 472.543 1580.68 477.986Z" fill="#EDE7D1"/>
<path d="M1615.43 410.262C1612.32 414.187 1612.32 420.516 1615.43 424.44C1618.54 428.364 1623.62 428.364 1626.83 424.44C1629.94 420.516 1629.94 414.187 1626.83 410.262C1623.62 406.338 1618.54 406.338 1615.43 410.262Z" fill="#EDE7D1"/>
<path d="M1644.82 396.084C1642.09 396.591 1640.2 399.755 1640.58 403.173C1640.95 406.591 1643.5 408.996 1646.23 408.49C1648.96 407.984 1650.84 404.819 1650.47 401.401C1650.09 397.983 1647.55 395.578 1644.82 396.084Z" fill="#EDE7D1"/>
<path d="M1632.29 400.262C1629.18 404.186 1629.18 410.515 1632.29 414.44C1635.4 418.364 1640.48 418.364 1643.69 414.44C1646.79 410.515 1646.79 404.186 1643.69 400.262C1640.48 396.338 1635.4 396.338 1632.29 400.262Z" fill="#EDE7D1"/>
<path d="M1656.12 418.744C1651.7 418.744 1648.11 414.21 1648.11 408.617C1648.11 403.024 1651.7 398.49 1656.12 398.49C1660.54 398.49 1664.12 403.024 1664.12 408.617C1664.12 414.21 1660.54 418.744 1656.12 418.744Z" fill="#EDE7D1"/>
<path d="M1601.68 449.631C1598.57 453.555 1598.57 459.885 1601.68 463.809C1604.79 467.733 1609.87 467.733 1613.08 463.809C1616.18 459.885 1616.18 453.555 1613.08 449.631C1609.87 445.707 1604.79 445.707 1601.68 449.631Z" fill="#EDE7D1"/>
<path d="M1774.23 499.758C1774.23 500.897 1774.89 501.657 1775.83 501.657C1776.77 501.657 1777.43 500.771 1777.43 499.758C1777.43 498.619 1776.77 497.859 1775.83 497.859C1774.89 497.859 1774.23 498.745 1774.23 499.758Z" fill="#EDE7D1"/>
<path d="M1727.13 443.555C1727.13 444.947 1728.08 446.213 1729.21 446.213C1730.34 446.213 1731.28 445.074 1731.28 443.555C1731.28 442.162 1730.34 440.896 1729.21 440.896C1728.08 440.896 1727.13 442.162 1727.13 443.555Z" fill="#EDE7D1"/>
<path d="M1734.1 421.528C1734.1 422.921 1735.05 424.187 1736.18 424.187C1737.31 424.187 1738.25 423.047 1738.25 421.528C1738.25 420.136 1737.31 418.87 1736.18 418.87C1735.05 418.87 1734.1 420.009 1734.1 421.528Z" fill="#EDE7D1"/>
<path d="M1839.31 629.637C1839.31 631.156 1840.25 632.422 1841.38 632.422C1842.51 632.422 1843.46 631.156 1843.46 629.637C1843.46 628.118 1842.51 626.852 1841.38 626.852C1840.25 626.852 1839.31 628.118 1839.31 629.637Z" fill="#EDE7D1"/>
<path d="M1602.34 417.097C1602.34 420.389 1600.36 423.047 1597.82 423.047C1595.37 423.047 1593.3 420.389 1593.3 417.097C1593.3 413.806 1595.27 411.148 1597.82 411.148C1600.36 411.148 1602.34 413.806 1602.34 417.097Z" fill="#EDE7D1"/>
<path d="M1605.82 403.554C1605.82 404.313 1605.35 404.82 1604.79 404.82C1604.22 404.82 1603.75 404.187 1603.75 403.554C1603.75 402.794 1604.22 402.288 1604.79 402.288C1605.35 402.288 1605.82 402.921 1605.82 403.554Z" fill="#EDE7D1"/>
<path d="M1592.83 438.871C1592.83 437.099 1593.96 435.707 1595.37 435.707C1596.78 435.707 1597.91 437.099 1597.91 438.871C1597.91 440.643 1596.78 442.036 1595.37 442.036C1593.96 442.036 1592.83 440.643 1592.83 438.871Z" fill="#EDE7D1"/>
<path d="M1592.07 455.833C1591.08 455.833 1590.28 454.813 1590.28 453.554C1590.28 452.296 1591.08 451.276 1592.07 451.276C1593.06 451.276 1593.86 452.296 1593.86 453.554C1593.86 454.813 1593.06 455.833 1592.07 455.833Z" fill="#EDE7D1"/>
<path d="M1731.47 475.708C1731.47 474.695 1730.81 473.936 1730.05 473.936C1729.3 473.936 1728.64 474.695 1728.64 475.708C1728.64 476.72 1729.3 477.48 1730.05 477.48C1730.81 477.48 1731.47 476.72 1731.47 475.708Z" fill="#EDE7D1"/>
<path d="M1844.58 581.154C1843.8 581.154 1843.17 580.303 1843.17 579.255C1843.17 578.206 1843.8 577.356 1844.58 577.356C1845.36 577.356 1846 578.206 1846 579.255C1846 580.303 1845.36 581.154 1844.58 581.154Z" fill="#EDE7D1"/>
<path d="M1854.76 649.511C1854.76 651.916 1856.17 653.815 1857.96 653.815C1859.75 653.815 1861.16 651.916 1861.16 649.511C1861.16 647.106 1859.75 645.207 1857.96 645.207C1856.17 645.08 1854.76 647.106 1854.76 649.511Z" fill="#EDE7D1"/>
<path d="M1646.23 453.935C1636.66 453.935 1628.9 444.187 1628.9 432.162C1628.9 420.137 1636.66 410.389 1646.23 410.389C1655.8 410.389 1663.56 420.137 1663.56 432.162C1663.56 444.187 1655.8 453.935 1646.23 453.935Z" fill="#FCF9ED"/>
<path d="M1677.17 466.079C1668.13 465.498 1661.15 455.289 1661.58 443.277C1662.01 431.265 1669.68 422 1678.72 422.582C1687.76 423.164 1694.75 433.373 1694.32 445.384C1693.89 457.396 1686.21 466.661 1677.17 466.079Z" fill="#FCF9ED"/>
<path d="M1570.88 492.543C1561.83 492.543 1554.49 482.795 1554.49 470.77C1554.49 458.746 1561.83 448.998 1570.88 448.998C1579.93 448.998 1587.27 458.746 1587.27 470.77C1587.27 482.795 1579.93 492.543 1570.88 492.543Z" fill="#FCF9ED"/>
<path d="M1770.18 569.887C1765.39 569.887 1761.51 564.673 1761.51 558.241C1761.51 551.809 1765.39 546.595 1770.18 546.595C1774.96 546.595 1778.84 551.809 1778.84 558.241C1778.84 564.673 1774.96 569.887 1770.18 569.887Z" fill="#FCF9ED"/>
<path d="M1787.13 592.8C1787.13 599.256 1790.99 604.446 1795.8 604.446C1800.6 604.446 1804.46 599.256 1804.46 592.8C1804.46 586.344 1800.6 581.154 1795.8 581.154C1791.09 581.154 1787.13 586.344 1787.13 592.8Z" fill="#FCF9ED"/>
<path d="M1661.39 508.999C1649.9 508.999 1640.58 497.324 1640.58 482.922C1640.58 468.521 1649.9 456.846 1661.39 456.846C1672.89 456.846 1682.21 468.521 1682.21 482.922C1682.21 497.324 1672.89 508.999 1661.39 508.999Z" fill="#FCF9ED"/>
<path d="M1744.84 584.445C1733.35 584.445 1724.03 572.77 1724.03 558.368C1724.03 543.966 1733.35 532.291 1744.84 532.291C1756.34 532.291 1765.66 543.966 1765.66 558.368C1765.66 572.77 1756.34 584.445 1744.84 584.445Z" fill="#FCF9ED"/>
<path d="M1682.21 523.557C1673.83 523.557 1667.04 515.056 1667.04 504.569C1667.04 494.082 1673.83 485.581 1682.21 485.581C1690.58 485.581 1697.37 494.082 1697.37 504.569C1697.37 515.056 1690.58 523.557 1682.21 523.557Z" fill="#FCF9ED"/>
<path d="M1821.49 633.814C1813.12 633.8 1806.33 624.609 1806.34 613.283C1806.35 601.957 1813.15 592.786 1821.53 592.8C1829.9 592.813 1836.68 602.005 1836.67 613.33C1836.66 624.656 1829.86 633.827 1821.49 633.814Z" fill="#FCF9ED"/>
<path d="M1558.16 523.557C1549.79 523.557 1543 515.056 1543 504.569C1543 494.082 1549.79 485.581 1558.16 485.581C1566.54 485.581 1573.33 494.082 1573.33 504.569C1573.33 515.056 1566.54 523.557 1558.16 523.557Z" fill="#FCF9ED"/>
<path d="M1693.6 501.911C1697.75 510.772 1706.79 513.683 1713.85 508.493C1720.92 503.303 1723.18 491.911 1719.13 483.176C1714.98 474.315 1705.94 471.404 1698.88 476.594C1691.81 481.784 1689.46 493.05 1693.6 501.911Z" fill="#FCF9ED"/>
<path d="M1775.36 576.723C1779.5 586.217 1788.54 589.382 1795.61 583.812C1802.67 578.242 1804.93 566.09 1800.88 556.596C1796.74 547.102 1787.7 543.937 1780.63 549.507C1773.57 555.077 1771.21 567.356 1775.36 576.723Z" fill="#FCF9ED"/>
<path d="M1709.05 512.037C1711.31 516.848 1716.21 518.367 1720.07 515.582C1723.93 512.797 1725.16 506.594 1722.89 501.784C1720.63 496.974 1715.74 495.455 1711.88 498.239C1708.01 501.024 1706.79 507.227 1709.05 512.037Z" fill="#FCF9ED"/>
<path d="M1576.34 480.517C1571.92 480.517 1568.34 475.984 1568.34 470.391C1568.34 464.798 1571.92 460.264 1576.34 460.264C1580.77 460.264 1584.35 464.798 1584.35 470.391C1584.35 475.984 1580.77 480.517 1576.34 480.517Z" fill="#FCF9ED"/>
<path d="M1798.72 609.129C1800.98 614.319 1805.87 615.965 1809.74 612.927C1813.6 609.889 1814.82 603.306 1812.56 598.116C1810.3 592.926 1805.4 591.281 1801.54 594.319C1797.68 597.357 1796.46 603.939 1798.72 609.129Z" fill="#FCF9ED"/>
<path d="M1828.2 632.927C1835.26 649.004 1850.61 654.321 1862.57 644.953C1874.53 635.459 1878.49 614.826 1871.52 598.749C1864.46 582.673 1849.1 577.356 1837.14 586.724C1825.18 596.217 1821.23 616.851 1828.2 632.927Z" fill="#FCF9ED"/>
<path d="M1652.35 414.44C1651.03 419.757 1653.48 425.326 1657.72 426.972C1661.96 428.618 1666.48 425.58 1667.7 420.263C1669.02 414.946 1666.57 409.376 1662.33 407.731C1658.19 406.085 1653.67 409.123 1652.35 414.44Z" fill="#FCF9ED"/>
<path d="M1659.04 465.834C1650.25 465.834 1643.12 456.369 1643.12 444.694C1643.12 433.018 1650.25 423.554 1659.04 423.554C1667.83 423.554 1674.96 433.018 1674.96 444.694C1674.96 456.369 1667.83 465.834 1659.04 465.834Z" fill="#FCF9ED"/>
<path d="M1847.79 680.524C1843.74 690.018 1846.09 702.17 1853.16 707.613C1860.22 713.057 1869.26 709.892 1873.31 700.398C1877.36 690.904 1875.01 678.752 1867.94 673.308C1860.88 667.739 1851.93 671.03 1847.79 680.524Z" fill="#FCF9ED"/>
<path d="M1717.34 529C1720.26 535.203 1726.66 537.355 1731.56 533.684C1736.55 530.013 1738.15 522.038 1735.23 515.835C1732.31 509.633 1725.91 507.481 1721.01 511.152C1716.11 514.823 1714.42 522.798 1717.34 529Z" fill="#FCF9ED"/>
<path d="M1882.16 704.322C1881.03 710.145 1883.67 715.968 1887.91 717.487C1892.24 719.006 1896.57 715.461 1897.7 709.765C1898.83 703.942 1896.2 698.119 1891.96 696.6C1887.63 695.081 1883.2 698.499 1882.16 704.322Z" fill="#FCF9ED"/>
<path d="M1870.11 693.563C1868.98 699.386 1871.61 705.209 1875.85 706.728C1880.19 708.247 1884.52 704.702 1885.65 699.006C1886.78 693.183 1884.14 687.36 1879.9 685.841C1875.57 684.322 1871.24 687.74 1870.11 693.563Z" fill="#FCF9ED"/>
<path d="M1832.81 682.676C1831.68 688.499 1834.32 694.322 1838.56 695.841C1842.89 697.36 1847.22 693.816 1848.35 688.119C1849.48 682.296 1846.84 676.473 1842.61 674.954C1838.37 673.435 1833.94 676.98 1832.81 682.676Z" fill="#FCF9ED"/>
<path d="M1556.09 477.986C1554.96 483.429 1557.6 488.872 1561.84 490.265C1566.17 491.657 1570.5 488.366 1571.63 483.049C1572.76 477.606 1570.13 472.163 1565.89 470.771C1561.65 469.378 1557.22 472.543 1556.09 477.986Z" fill="#FCF9ED"/>
<path d="M1639.35 509.506C1636.62 510.012 1634.74 513.177 1635.11 516.595C1635.49 520.012 1638.03 522.418 1640.76 521.911C1643.5 521.405 1645.38 518.24 1645 514.822C1644.63 511.278 1642.08 508.999 1639.35 509.506Z" fill="#FCF9ED"/>
<path d="M1631.63 418.744C1627.21 418.744 1623.62 414.21 1623.62 408.617C1623.62 403.024 1627.21 398.49 1631.63 398.49C1636.05 398.49 1639.63 403.024 1639.63 408.617C1639.63 414.21 1636.05 418.744 1631.63 418.744Z" fill="#FCF9ED"/>
<path d="M1577.1 449.631C1573.99 453.555 1573.99 459.885 1577.1 463.809C1580.2 467.733 1585.29 467.733 1588.49 463.809C1591.6 459.885 1591.6 453.555 1588.49 449.631C1585.39 445.707 1580.3 445.707 1577.1 449.631Z" fill="#FCF9ED"/>
<path d="M1717.34 429.757C1717.34 430.896 1718 431.655 1718.94 431.655C1719.79 431.655 1720.54 430.769 1720.54 429.757C1720.54 428.617 1719.88 427.858 1718.94 427.858C1718.09 427.731 1717.34 428.617 1717.34 429.757Z" fill="#FCF9ED"/>
<path d="M1679.76 456.72C1679.76 458.112 1680.7 459.378 1681.83 459.378C1682.96 459.378 1683.9 458.239 1683.9 456.72C1683.9 455.327 1682.96 454.062 1681.83 454.062C1680.7 454.062 1679.76 455.327 1679.76 456.72Z" fill="#FCF9ED"/>
<path d="M1826.78 567.103C1826.78 568.622 1827.72 569.888 1828.85 569.888C1829.98 569.888 1830.93 568.622 1830.93 567.103C1830.93 565.584 1829.98 564.318 1828.85 564.318C1827.72 564.318 1826.78 565.584 1826.78 567.103Z" fill="#FCF9ED"/>
<path d="M1581.33 403.554C1581.33 404.313 1580.86 404.82 1580.3 404.82C1579.73 404.82 1579.26 404.187 1579.26 403.554C1579.26 402.794 1579.73 402.288 1580.3 402.288C1580.86 402.288 1581.33 402.921 1581.33 403.554Z" fill="#FCF9ED"/>
<path d="M1570.88 440.39C1570.88 439.504 1571.44 438.745 1572.1 438.745C1572.76 438.745 1573.33 439.504 1573.33 440.39C1573.33 441.276 1572.76 442.036 1572.1 442.036C1571.44 442.036 1570.88 441.276 1570.88 440.39Z" fill="#FCF9ED"/>
<path d="M1560.14 477.48C1560.14 475.202 1561.65 473.303 1563.53 473.303C1565.42 473.303 1566.92 475.202 1566.92 477.48C1566.92 479.759 1565.42 481.657 1563.53 481.657C1561.65 481.657 1560.14 479.759 1560.14 477.48Z" fill="#FCF9ED"/>
<path d="M1698.88 485.581C1698.88 484.568 1698.22 483.809 1697.46 483.809C1696.71 483.809 1696.05 484.568 1696.05 485.581C1696.05 486.593 1696.71 487.353 1697.46 487.353C1698.22 487.353 1698.88 486.593 1698.88 485.581Z" fill="#FCF9ED"/>
<path d="M1724.21 455.327C1724.21 457.605 1725.63 459.377 1727.42 459.377C1729.21 459.377 1730.62 457.605 1730.62 455.327C1730.62 453.048 1729.21 451.276 1727.42 451.276C1725.63 451.276 1724.21 453.048 1724.21 455.327Z" fill="#FCF9ED"/>
<path d="M1842.23 586.977C1842.23 589.382 1843.64 591.281 1845.43 591.281C1847.22 591.281 1848.63 589.382 1848.63 586.977C1848.63 584.572 1847.22 582.673 1845.43 582.673C1843.64 582.673 1842.23 584.572 1842.23 586.977Z" fill="#FCF9ED"/>
<path d="M1731.37 532.292C1731.37 534.571 1732.79 536.343 1734.58 536.343C1736.36 536.343 1737.78 534.571 1737.78 532.292C1737.78 530.013 1736.36 528.241 1734.58 528.241C1732.88 528.241 1731.37 530.013 1731.37 532.292Z" fill="#FCF9ED"/>
<path d="M1799.75 593.685L1700.95 477.1L1651.69 472.416L1638.32 403.3L1620.89 421.655L1598.67 445.959L1558.17 491.53V719.006H1794.38H2077.6L1952.99 678.245L1907.69 658.371L1863.7 626.471L1799.75 593.685Z" fill="#FCF9ED"/>
<path d="M1664.78 438.744C1664.78 442.035 1662.71 444.693 1660.07 444.693C1657.44 444.693 1655.36 442.035 1655.36 438.744C1655.36 435.453 1657.44 432.794 1660.07 432.794C1662.71 432.794 1664.78 435.453 1664.78 438.744Z" fill="#EDE7D1"/>
<path d="M1913.06 670.017C1913.06 673.562 1910.98 676.347 1908.35 676.347C1905.71 676.347 1903.64 673.562 1903.64 670.017C1903.64 666.473 1905.71 663.688 1908.35 663.688C1910.98 663.688 1913.06 666.473 1913.06 670.017Z" fill="#EDE7D1"/>
<path d="M1857.96 623.307C1859.09 629.636 1863.7 633.434 1868.41 632.042C1873.12 630.523 1875.95 624.32 1874.91 617.991C1873.78 611.661 1869.17 607.864 1864.46 609.256C1859.75 610.775 1856.92 617.104 1857.96 623.307Z" fill="#EDE7D1"/>
<path d="M1913.71 663.688C1914.94 670.777 1920.31 675.207 1925.58 673.562C1930.86 671.916 1934.15 664.701 1932.93 657.612C1931.7 650.523 1926.34 646.093 1921.06 647.738C1915.69 649.384 1912.4 656.473 1913.71 663.688Z" fill="#EDE7D1"/>
<path d="M1990.67 699.006C1977.19 699.006 1966.27 684.327 1966.27 666.22C1966.27 648.113 1977.19 633.434 1990.67 633.434C2004.14 633.434 2015.06 648.113 2015.06 666.22C2015.06 684.327 2004.14 699.006 1990.67 699.006Z" fill="#EDE7D1"/>
<path d="M1888.47 674.321C1896.48 685.587 1909.85 685.967 1918.24 675.207C1926.62 664.321 1926.9 646.472 1918.9 635.079C1910.89 623.813 1897.52 623.433 1889.13 634.193C1880.75 645.08 1880.47 663.055 1888.47 674.321Z" fill="#EDE7D1"/>
<path d="M1935.19 679.258C1938.3 683.562 1943.38 683.689 1946.59 679.638C1949.79 675.46 1949.88 668.625 1946.87 664.321C1943.76 660.017 1938.67 659.89 1935.47 663.941C1932.18 667.992 1932.08 674.828 1935.19 679.258Z" fill="#EDE7D1"/>
<path d="M1967.78 678.499C1970.23 683.562 1975.12 684.955 1978.89 681.663C1982.66 678.372 1983.69 671.663 1981.25 666.726C1978.8 661.663 1973.9 660.27 1970.13 663.561C1966.46 666.726 1965.42 673.435 1967.78 678.499Z" fill="#EDE7D1"/>
<path d="M1861.82 598.749C1861.54 604.698 1864.93 609.888 1869.35 610.268C1873.78 610.648 1877.64 606.091 1877.92 600.141C1878.21 594.191 1874.82 589.001 1870.39 588.622C1865.96 588.242 1862.1 592.799 1861.82 598.749Z" fill="#EDE7D1"/>
<path d="M1993.87 676.093C1990.1 685.84 1992.93 697.739 2000.18 702.802C2007.43 707.866 2016.28 704.068 2020.05 694.321C2023.82 684.574 2020.99 672.675 2013.74 667.611C2006.49 662.675 1997.64 666.472 1993.87 676.093Z" fill="#EDE7D1"/>
<path d="M1853.25 577.609C1854.76 579.635 1857.11 579.761 1858.71 577.736C1860.22 575.71 1860.31 572.546 1858.81 570.394C1857.3 568.368 1854.94 568.242 1853.34 570.267C1851.74 572.293 1851.74 575.584 1853.25 577.609Z" fill="#EDE7D1"/>
<path d="M2043.97 710.145C2047.08 716.601 2053.58 718.499 2058.38 714.322C2063.19 710.145 2064.6 701.41 2061.49 694.954C2058.38 688.499 2051.89 686.6 2047.08 690.777C2042.18 694.954 2040.77 703.562 2043.97 710.145Z" fill="#EDE7D1"/>
<path d="M1963.63 634.573C1963.54 640.522 1967.02 645.459 1971.45 645.586C1975.88 645.712 1979.55 641.029 1979.64 634.952C1979.74 629.003 1976.25 624.066 1971.83 623.939C1967.4 623.813 1963.73 628.623 1963.63 634.573Z" fill="#EDE7D1"/>
<path d="M1735.52 485.834C1735.42 491.784 1738.91 496.721 1743.34 496.847C1747.76 496.974 1751.44 492.29 1751.53 486.214C1751.62 480.265 1748.14 475.328 1743.71 475.201C1739.29 475.201 1735.61 479.885 1735.52 485.834Z" fill="#EDE7D1"/>
<path d="M1591.41 446.213C1591.22 458.112 1598.19 467.86 1607.05 468.113C1615.9 468.366 1623.15 458.998 1623.34 447.099C1623.53 435.2 1616.56 425.453 1607.71 425.2C1598.95 424.82 1591.6 434.314 1591.41 446.213Z" fill="#FCF9ED"/>
<path d="M1585.85 459.378C1585.67 471.277 1592.64 481.024 1601.49 481.278C1610.34 481.531 1617.6 472.163 1617.78 460.264C1617.97 448.365 1611 438.618 1602.15 438.365C1593.3 438.112 1586.04 447.479 1585.85 459.378Z" fill="#FCF9ED"/>
<path d="M2028.9 697.993C2027.96 703.816 2030.79 709.512 2035.12 710.778C2039.45 712.044 2043.69 708.246 2044.63 702.423C2045.58 696.6 2042.75 690.904 2038.42 689.638C2034.08 688.372 2029.85 692.043 2028.9 697.993Z" fill="#EDE7D1"/>
<path d="M2016.57 687.866C2015.62 693.689 2018.45 699.385 2022.78 700.651C2027.12 701.917 2031.35 698.119 2032.3 692.296C2033.24 686.473 2030.41 680.777 2026.08 679.511C2021.75 678.245 2017.51 682.043 2016.57 687.866Z" fill="#EDE7D1"/>
<path d="M1978.99 679.259C1978.05 685.081 1980.87 690.778 1985.2 692.044C1989.54 693.31 1993.78 689.512 1994.72 683.689C1995.66 677.866 1992.83 672.17 1988.5 670.904C1984.17 669.638 1979.84 673.436 1978.99 679.259Z" fill="#EDE7D1"/>
<path d="M1955.35 629.636C1955.63 631.155 1956.76 632.041 1957.89 631.661C1959.02 631.282 1959.68 629.763 1959.4 628.243C1959.11 626.724 1957.98 625.838 1956.85 626.218C1955.82 626.598 1955.06 628.117 1955.35 629.636Z" fill="#EDE7D1"/>
<path d="M1952.24 643.054C1952.05 642.042 1951.3 641.409 1950.54 641.662C1949.79 641.915 1949.32 642.928 1949.51 643.94C1949.69 644.953 1950.45 645.586 1951.2 645.333C1951.96 645.08 1952.43 644.067 1952.24 643.054Z" fill="#EDE7D1"/>
<path d="M1973.71 644.194C1974.09 646.472 1975.88 647.991 1977.57 647.485C1979.27 646.979 1980.4 644.574 1980.02 642.295C1979.65 640.016 1977.86 638.497 1976.16 639.004C1974.37 639.51 1973.34 641.915 1973.71 644.194Z" fill="#EDE7D1"/>
<path d="M1859.28 630.776C1860.41 637.105 1865.02 640.902 1869.73 639.51C1874.44 637.991 1877.27 631.788 1876.23 625.459C1875.1 619.13 1870.48 615.332 1865.78 616.724C1861.07 618.117 1858.15 624.446 1859.28 630.776Z" fill="#FCF9ED"/>
<path d="M1897.33 674.448C1898.46 680.777 1903.07 684.575 1907.78 683.182C1912.49 681.663 1915.32 675.461 1914.28 669.131C1913.15 662.802 1908.54 659.004 1903.83 660.397C1899.12 661.916 1896.2 668.245 1897.33 674.448Z" fill="#FCF9ED"/>
<path d="M1919.37 688.499C1921.25 699.512 1929.44 706.347 1937.64 703.689C1945.83 701.031 1950.82 690.018 1948.94 679.131C1947.06 668.118 1938.86 661.283 1930.67 663.941C1922.47 666.473 1917.48 677.486 1919.37 688.499Z" fill="#FCF9ED"/>
<path d="M1880.68 648.71C1880.66 637.734 1887.26 628.812 1895.43 628.782C1903.59 628.752 1910.23 637.625 1910.25 648.602C1910.28 659.578 1903.67 668.5 1895.51 668.53C1887.34 668.56 1880.7 659.686 1880.68 648.71Z" fill="#FCF9ED"/>
<path d="M1863.23 687.359C1872.56 700.524 1888.1 700.904 1897.8 688.372C1907.59 675.84 1907.88 654.953 1898.55 641.788C1889.23 628.623 1873.69 628.244 1863.99 640.776C1854.19 653.434 1853.91 674.195 1863.23 687.359Z" fill="#FCF9ED"/>
<path d="M1781.67 606.598C1790.99 619.763 1806.53 620.142 1816.24 607.61C1826.03 595.078 1826.31 574.192 1816.99 561.027C1807.66 547.862 1792.12 547.482 1782.42 560.014C1772.63 572.546 1772.34 593.433 1781.67 606.598Z" fill="#FCF9ED"/>
<path d="M1725.82 570.773C1735.14 583.052 1750.68 583.432 1760.38 571.659C1770.18 559.887 1770.46 540.519 1761.14 528.24C1751.81 515.961 1736.27 515.581 1726.57 527.354C1716.77 539.126 1716.4 558.621 1725.82 570.773Z" fill="#FCF9ED"/>
<path d="M1564.95 504.949C1574.27 517.228 1589.81 517.607 1599.51 505.835C1609.31 494.062 1609.59 474.695 1600.27 462.416C1590.94 450.137 1575.4 449.757 1565.7 461.53C1555.9 473.302 1555.62 492.67 1564.95 504.949Z" fill="#FCF9ED"/>
<path d="M1911.27 686.727C1914.38 691.031 1919.46 691.157 1922.66 687.107C1925.87 682.929 1925.96 676.094 1922.95 671.79C1919.84 667.486 1914.75 667.359 1911.55 671.41C1908.35 675.587 1908.25 682.423 1911.27 686.727Z" fill="#FCF9ED"/>
<path d="M1944.42 681.917C1950.16 690.018 1959.77 690.398 1965.89 682.55C1971.92 674.701 1972.11 661.789 1966.36 653.688C1960.62 645.586 1951.01 645.207 1944.89 653.055C1938.86 660.903 1938.58 673.815 1944.42 681.917Z" fill="#FCF9ED"/>
<path d="M2034.08 690.398C2030.32 700.145 2033.14 712.044 2040.4 717.108C2047.65 722.171 2056.5 718.373 2060.27 708.626C2064.04 698.879 2061.21 686.98 2053.96 681.917C2046.71 676.853 2037.85 680.651 2034.08 690.398Z" fill="#FCF9ED"/>
<path d="M1969.38 677.612C1965.61 687.359 1968.44 699.259 1975.69 704.322C1982.94 709.385 1991.8 705.588 1995.56 695.841C1999.33 686.094 1996.51 674.194 1989.25 669.131C1982 664.067 1973.15 667.865 1969.38 677.612Z" fill="#FCF9ED"/>
<path d="M2019.49 711.537C2022.59 717.993 2029.09 719.892 2033.9 715.715C2038.7 711.537 2040.11 702.803 2037 696.347C2033.9 689.891 2027.4 687.992 2022.59 692.17C2017.7 696.347 2016.28 705.082 2019.49 711.537Z" fill="#FCF9ED"/>
<path d="M2004.42 699.385C2003.48 705.208 2006.3 710.905 2010.63 712.171C2014.97 713.436 2019.2 709.639 2020.15 703.816C2021.09 697.993 2018.26 692.297 2013.93 691.031C2009.6 689.765 2005.36 693.562 2004.42 699.385Z" fill="#FCF9ED"/>
<path d="M1992.08 689.258C1991.14 695.081 1993.96 700.777 1998.29 702.043C2002.63 703.309 2006.87 699.511 2007.81 693.689C2008.75 687.866 2005.92 682.169 2001.59 680.903C1997.26 679.764 1992.93 683.435 1992.08 689.258Z" fill="#FCF9ED"/>
<path d="M1958.08 683.309C1957.98 689.258 1961.47 694.195 1965.89 694.322C1970.32 694.448 1973.99 689.764 1974.09 683.688C1974.18 677.739 1970.7 672.802 1966.27 672.675C1961.84 672.549 1958.17 677.359 1958.08 683.309Z" fill="#FCF9ED"/>
<path d="M1931.52 637.232C1931.8 638.751 1932.93 639.637 1934.06 639.257C1935.19 638.877 1935.85 637.358 1935.57 635.839C1935.28 634.32 1934.15 633.434 1933.02 633.814C1931.89 634.194 1931.23 635.713 1931.52 637.232Z" fill="#FCF9ED"/>
<path d="M1901.1 618.497C1900.91 617.484 1900.15 616.851 1899.4 617.105C1898.65 617.358 1898.18 618.371 1898.36 619.383C1898.55 620.396 1899.31 621.029 1900.06 620.776C1900.81 620.522 1901.28 619.51 1901.1 618.497Z" fill="#FCF9ED"/>
<path d="M1949.88 651.789C1950.26 654.068 1952.05 655.587 1953.74 655.08C1955.44 654.574 1956.57 652.169 1956.19 649.89C1955.82 647.612 1954.03 646.093 1952.33 646.599C1950.54 647.105 1949.51 649.384 1949.88 651.789Z" fill="#FCF9ED"/>
<path d="M2071.57 709.259C2071.67 711.664 2073.17 713.563 2074.96 713.436C2076.75 713.31 2078.16 711.284 2078.07 708.879C2077.98 706.474 2076.47 704.575 2074.68 704.702C2072.89 704.828 2071.48 706.854 2071.57 709.259Z" fill="#FCF9ED"/>
<path d="M2034.18 663.309C2034.27 666.853 2032.29 669.764 2029.66 669.891C2027.02 670.018 2024.85 667.359 2024.76 663.815C2024.67 660.27 2026.64 657.359 2029.28 657.232C2031.82 657.106 2034.08 659.764 2034.18 663.309Z" fill="#EDE7D1"/>
<path d="M1708.67 512.544C1708.67 515.582 1706.69 517.988 1704.34 517.988C1701.98 517.988 1700.01 515.582 1700.01 512.544C1700.01 509.506 1701.98 507.101 1704.34 507.101C1706.69 507.101 1708.67 509.506 1708.67 512.544Z" fill="#EDE7D1"/>
<path d="M1656.4 448.998C1656.4 449.757 1655.93 450.264 1655.36 450.264C1654.8 450.264 1654.33 449.631 1654.33 448.998C1654.33 448.365 1654.8 447.732 1655.36 447.732C1655.93 447.732 1656.4 448.238 1656.4 448.998Z" fill="#EDE7D1"/>
<path d="M1667.42 426.465C1667.42 427.984 1666.48 429.25 1665.26 429.25C1664.03 429.25 1663.09 427.984 1663.09 426.465C1663.09 424.946 1664.03 423.68 1665.26 423.68C1666.48 423.807 1667.42 424.946 1667.42 426.465Z" fill="#EDE7D1"/>
<path d="M1612.23 400.009C1612.23 400.768 1611.76 401.274 1611.19 401.274C1610.63 401.274 1610.16 400.641 1610.16 400.009C1610.16 399.249 1610.63 398.743 1611.19 398.743C1611.76 398.743 1612.23 399.249 1612.23 400.009Z" fill="#EDE7D1"/>
<path d="M1664.12 475.961C1663.93 488.493 1671.38 498.999 1680.7 499.252C1690.02 499.506 1697.75 489.505 1697.94 476.973C1698.12 464.441 1690.68 453.935 1681.36 453.681C1672.03 453.428 1664.31 463.429 1664.12 475.961Z" fill="#FCF9ED"/>
<path d="M1806.72 602.42C1806.53 614.952 1813.97 625.459 1823.3 625.712C1832.62 625.965 1840.35 615.965 1840.53 603.433C1840.72 590.901 1833.28 580.394 1823.96 580.141C1814.63 579.888 1806.91 589.888 1806.72 602.42Z" fill="#FCF9ED"/>
<defs>
<clipPath id="clip0">
<rect width="1307.7" height="718.703" fill="white" transform="translate(437)"/>
</clipPath>
</defs>
</svg>
