<svg xmlns="http://www.w3.org/2000/svg" width="1307.7032965823746" height="718.7032965823744" fill="none" style=""><rect id="backgroundrect" width="100%" height="100%" x="0" y="0" fill="none" stroke="none"/>



























































































































































































<g class="currentLayer" style=""><title>Layer 1</title><path d="M1179.76 329L1180.04 485" stroke="#FCF9ED" stroke-width="3" stroke-miterlimit="10" id="svg_1"/><path d="M1198 329L1198 487" stroke="#FCF9ED" stroke-width="3" stroke-miterlimit="10" id="svg_2"/><path d="M1155 353.139V537.999" stroke="#FCF9ED" stroke-width="12" stroke-miterlimit="10" id="svg_3"/><path d="M1224 353.138V537.999" stroke="#FCF9ED" stroke-width="12" stroke-miterlimit="10" id="svg_4"/><path d="M1144.79 435.852C1157.49 435.243 1167.29 424.593 1166.69 412.063C1166.09 399.534 1155.3 389.87 1142.6 390.479C1129.91 391.088 1120.1 401.738 1120.7 414.268C1121.31 426.797 1132.09 436.461 1144.79 435.852Z" fill="#EDE7D1" id="svg_5"/><path d="M1093.99 510.243C1094.25 520.411 1086.18 528.863 1076 528.995C1065.81 529.259 1057.47 521.204 1057.21 511.035C1056.94 500.867 1065.01 492.415 1075.2 492.283C1085.26 492.019 1093.72 500.075 1093.99 510.243Z" fill="#EDE7D1" id="svg_6"/><path d="M1170.98 421.764C1183.11 421.764 1192.94 411.595 1192.94 399.05C1192.94 386.506 1183.11 376.336 1170.98 376.336C1158.85 376.336 1149.02 386.506 1149.02 399.05C1149.02 411.595 1158.85 421.764 1170.98 421.764Z" fill="#EDE7D1" id="svg_7"/><path d="M1120.84 486.736C1138.38 486.736 1152.59 472.369 1152.59 454.646C1152.59 436.923 1138.38 422.556 1120.84 422.556C1103.31 422.556 1089.09 436.923 1089.09 454.646C1089.09 472.369 1103.31 486.736 1120.84 486.736Z" fill="#EDE7D1" id="svg_8"/><path d="M1023.21 544.577C1023.21 551.312 1017.79 556.727 1011.04 556.727C1004.29 556.727 998.867 551.312 998.867 544.577C998.867 537.843 1004.29 532.428 1011.04 532.428C1017.79 532.428 1023.21 537.843 1023.21 544.577Z" fill="#EDE7D1" id="svg_9"/><path d="M948.332 596.74C956.004 596.74 962.223 590.532 962.223 582.874C962.223 575.216 956.004 569.008 948.332 569.008C940.661 569.008 934.441 575.216 934.441 582.874C934.441 590.532 940.661 596.74 948.332 596.74Z" fill="#EDE7D1" id="svg_10"/><path d="M1026.65 573.499C1047.62 573.499 1064.62 557.712 1064.62 538.239C1064.62 518.766 1047.62 502.98 1026.65 502.98C1005.68 502.98 988.682 518.766 988.682 538.239C988.682 557.712 1005.68 573.499 1026.65 573.499Z" fill="#EDE7D1" id="svg_11"/><path d="M1129.97 509.451C1141.73 509.451 1151.27 500.582 1151.27 489.642C1151.27 478.702 1141.73 469.833 1129.97 469.833C1118.21 469.833 1108.67 478.702 1108.67 489.642C1108.67 500.582 1118.21 509.451 1129.97 509.451Z" fill="#EDE7D1" id="svg_12"/><path d="M871.469 703.706C890.393 703.706 905.733 688.393 905.733 669.504C905.733 650.614 890.393 635.301 871.469 635.301C852.546 635.301 837.205 650.614 837.205 669.504C837.205 688.393 852.546 703.706 871.469 703.706Z" fill="#EDE7D1" id="svg_13"/><path d="M1274.3 516.317C1286.07 516.317 1295.6 507.449 1295.6 496.509C1295.6 485.569 1286.07 476.7 1274.3 476.7C1262.54 476.7 1253 485.569 1253 496.509C1253 507.449 1262.54 516.317 1274.3 516.317Z" fill="#EDE7D1" id="svg_14"/><path d="M999.132 585.648C990.798 599.778 972.673 604.4 958.65 596.081C944.627 587.761 939.864 569.669 948.199 555.539C956.533 541.409 974.658 536.787 988.681 545.106C1002.84 553.426 1007.47 571.518 999.132 585.648Z" fill="#EDE7D1" id="svg_15"/><path d="M1248.77 471.418C1254.98 471.418 1260.02 466.688 1260.02 460.853C1260.02 455.019 1254.98 450.289 1248.77 450.289C1242.56 450.289 1237.53 455.019 1237.53 460.853C1237.53 466.688 1242.56 471.418 1248.77 471.418Z" fill="#EDE7D1" id="svg_16"/><path d="M936.556 605.588C933.381 611.003 926.502 612.719 921.078 609.55C915.654 606.381 913.934 599.514 917.109 594.099C920.284 588.685 927.164 586.968 932.588 590.138C937.879 593.307 939.732 600.174 936.556 605.588Z" fill="#EDE7D1" id="svg_17"/><path d="M904.144 680.861C900.969 686.276 894.09 687.993 888.666 684.823C883.242 681.654 881.522 674.787 884.697 669.372C887.872 663.958 894.752 662.241 900.176 665.411C905.6 668.58 907.319 675.447 904.144 680.861Z" fill="#EDE7D1" id="svg_18"/><path d="M1023.51 579.972C1029.72 579.953 1034.74 574.913 1034.72 568.714C1034.7 562.514 1029.65 557.504 1023.44 557.522C1017.23 557.54 1012.21 562.58 1012.23 568.78C1012.25 574.979 1017.3 579.99 1023.51 579.972Z" fill="#EDE7D1" id="svg_19"/><path d="M867.499 680.069C873.188 689.973 869.88 702.651 859.958 708.329C850.036 714.008 837.336 710.706 831.647 700.802C825.959 690.898 829.266 678.22 839.188 672.542C849.11 666.731 861.811 670.165 867.499 680.069Z" fill="#EDE7D1" id="svg_20"/><path d="M1242.55 419.784C1248.24 429.028 1244.94 440.781 1235.01 446.063C1225.09 451.345 1212.39 448.176 1206.7 439.064C1201.01 429.82 1204.32 418.067 1214.24 412.785C1224.16 407.502 1236.87 410.54 1242.55 419.784Z" fill="#EDE7D1" id="svg_21"/><path d="M798.84 718.497C794.738 725.496 785.742 727.741 778.863 723.647C771.851 719.554 769.602 710.574 773.704 703.575C777.805 696.576 786.801 694.331 793.68 698.424C800.559 702.518 802.941 711.498 798.84 718.497Z" fill="#EDE7D1" id="svg_22"/><path d="M903.747 634.641C905.335 640.716 901.631 646.79 895.678 648.375C889.592 649.96 883.506 646.262 881.919 640.319C880.331 634.245 884.036 628.17 889.989 626.585C895.942 625.001 902.292 628.566 903.747 634.641Z" fill="#EDE7D1" id="svg_23"/><path d="M819.345 704.895C820.933 710.97 817.229 717.045 811.275 718.629C805.322 720.214 799.104 716.516 797.517 710.574C795.929 704.631 799.633 698.424 805.587 696.84C811.672 695.255 817.758 698.821 819.345 704.895Z" fill="#EDE7D1" id="svg_24"/><path d="M836.279 693.67C837.866 699.745 834.162 705.82 828.209 707.404C822.123 708.989 816.038 705.291 814.45 699.349C812.863 693.274 816.567 687.2 822.52 685.615C828.473 684.03 834.691 687.596 836.279 693.67Z" fill="#EDE7D1" id="svg_25"/><path d="M888.535 682.314C890.122 688.388 886.418 694.463 880.465 696.048C874.379 697.632 868.294 693.935 866.706 687.992C865.119 681.917 868.823 675.843 874.776 674.258C880.862 672.673 887.079 676.371 888.535 682.314Z" fill="#EDE7D1" id="svg_26"/><path d="M1277.21 468.777C1278.8 474.455 1275.1 480.134 1269.14 481.586C1263.06 483.039 1256.97 479.606 1255.39 474.059C1253.8 468.381 1257.5 462.702 1263.46 461.25C1269.54 459.797 1275.63 463.098 1277.21 468.777Z" fill="#EDE7D1" id="svg_27"/><path d="M1228.4 398.126C1232.76 402.22 1232.76 408.823 1228.4 412.917C1224.03 417.011 1216.89 417.011 1212.39 412.917C1208.02 408.823 1208.02 402.22 1212.39 398.126C1216.89 394.033 1224.03 394.033 1228.4 398.126Z" fill="#EDE7D1" id="svg_28"/><path d="M1187.12 383.335C1190.96 383.864 1193.6 387.165 1193.08 390.731C1192.55 394.296 1188.97 396.805 1185.14 396.277C1181.3 395.749 1178.66 392.447 1179.18 388.882C1179.71 385.316 1183.29 382.807 1187.12 383.335Z" fill="#EDE7D1" id="svg_29"/><path d="M1204.72 387.694C1209.08 391.788 1209.08 398.39 1204.72 402.484C1200.35 406.578 1193.21 406.578 1188.71 402.484C1184.34 398.39 1184.34 391.788 1188.71 387.694C1193.21 383.6 1200.35 383.6 1204.72 387.694Z" fill="#EDE7D1" id="svg_30"/><path d="M1171.25 406.974C1177.46 406.974 1182.49 402.244 1182.49 396.41C1182.49 390.575 1177.46 385.845 1171.25 385.845C1165.04 385.845 1160 390.575 1160 396.41C1160 402.244 1165.04 406.974 1171.25 406.974Z" fill="#EDE7D1" id="svg_31"/><path d="M1247.71 439.196C1252.08 443.29 1252.08 449.893 1247.71 453.987C1243.35 458.08 1236.2 458.08 1231.71 453.987C1227.34 449.893 1227.34 443.29 1231.71 439.196C1236.2 435.103 1243.35 435.103 1247.71 439.196Z" fill="#EDE7D1" id="svg_32"/><path d="M1005.35 491.49C1005.35 492.679 1004.42 493.471 1003.1 493.471C1001.78 493.471 1000.85 492.547 1000.85 491.49C1000.85 490.302 1001.78 489.509 1003.1 489.509C1004.42 489.509 1005.35 490.434 1005.35 491.49Z" fill="#EDE7D1" id="svg_33"/><path d="M1071.5 432.858C1071.5 434.31 1070.17 435.631 1068.59 435.631C1067 435.631 1065.68 434.442 1065.68 432.858C1065.68 431.405 1067 430.084 1068.59 430.084C1070.17 430.084 1071.5 431.405 1071.5 432.858Z" fill="#EDE7D1" id="svg_34"/><path d="M1061.71 409.879C1061.71 411.332 1060.38 412.652 1058.8 412.652C1057.21 412.652 1055.89 411.464 1055.89 409.879C1055.89 408.427 1057.21 407.106 1058.8 407.106C1060.38 407.106 1061.71 408.294 1061.71 409.879Z" fill="#EDE7D1" id="svg_35"/><path d="M913.934 626.982C913.934 628.567 912.611 629.888 911.024 629.888C909.436 629.888 908.113 628.567 908.113 626.982C908.113 625.398 909.436 624.077 911.024 624.077C912.611 624.077 913.934 625.398 913.934 626.982Z" fill="#EDE7D1" id="svg_36"/><path d="M1246.79 405.257C1246.79 408.69 1249.57 411.464 1253.14 411.464C1256.58 411.464 1259.49 408.69 1259.49 405.257C1259.49 401.823 1256.71 399.05 1253.14 399.05C1249.57 399.05 1246.79 401.823 1246.79 405.257Z" fill="#EDE7D1" id="svg_37"/><path d="M1241.89 391.128C1241.89 391.92 1242.55 392.448 1243.35 392.448C1244.14 392.448 1244.8 391.788 1244.8 391.128C1244.8 390.335 1244.14 389.807 1243.35 389.807C1242.55 389.807 1241.89 390.467 1241.89 391.128Z" fill="#EDE7D1" id="svg_38"/><path d="M1260.15 427.971C1260.15 426.123 1258.56 424.67 1256.58 424.67C1254.59 424.67 1253 426.123 1253 427.971C1253 429.82 1254.59 431.273 1256.58 431.273C1258.56 431.273 1260.15 429.82 1260.15 427.971Z" fill="#EDE7D1" id="svg_39"/><path d="M1261.21 445.667C1262.6 445.667 1263.72 444.602 1263.72 443.29C1263.72 441.977 1262.6 440.913 1261.21 440.913C1259.82 440.913 1258.69 441.977 1258.69 443.29C1258.69 444.602 1259.82 445.667 1261.21 445.667Z" fill="#EDE7D1" id="svg_40"/><path d="M1065.41 466.4C1065.41 465.344 1066.34 464.551 1067.4 464.551C1068.45 464.551 1069.38 465.344 1069.38 466.4C1069.38 467.457 1068.45 468.249 1067.4 468.249C1066.34 468.249 1065.41 467.457 1065.41 466.4Z" fill="#EDE7D1" id="svg_41"/><path d="M906.527 576.404C907.623 576.404 908.512 575.517 908.512 574.423C908.512 573.329 907.623 572.442 906.527 572.442C905.431 572.442 904.543 573.329 904.543 574.423C904.543 575.517 905.431 576.404 906.527 576.404Z" fill="#EDE7D1" id="svg_42"/><path d="M892.238 647.715C892.238 650.224 890.254 652.205 887.74 652.205C885.227 652.205 883.242 650.224 883.242 647.715C883.242 645.206 885.227 643.225 887.74 643.225C890.254 643.093 892.238 645.206 892.238 647.715Z" fill="#EDE7D1" id="svg_43"/><path d="M1185.14 443.686C1198.58 443.686 1209.48 433.517 1209.48 420.972C1209.48 408.428 1198.58 398.258 1185.14 398.258C1171.69 398.258 1160.79 408.428 1160.79 420.972C1160.79 433.517 1171.69 443.686 1185.14 443.686Z" fill="#FCF9ED" id="svg_44"/><path d="M1141.67 456.356C1154.37 455.749 1164.18 445.098 1163.58 432.568C1162.98 420.037 1152.2 410.371 1139.5 410.978C1126.8 411.585 1116.99 422.235 1117.59 434.766C1118.19 447.297 1128.97 456.963 1141.67 456.356Z" fill="#FCF9ED" id="svg_45"/><path d="M1290.97 483.963C1303.69 483.963 1313.99 473.794 1313.99 461.249C1313.99 448.705 1303.69 438.536 1290.97 438.536C1278.26 438.536 1267.95 448.705 1267.95 461.249C1267.95 473.794 1278.26 483.963 1290.97 483.963Z" fill="#FCF9ED" id="svg_46"/><path d="M1011.04 564.65C1017.76 564.65 1023.21 559.211 1023.21 552.501C1023.21 545.791 1017.76 540.352 1011.04 540.352C1004.32 540.352 998.867 545.791 998.867 552.501C998.867 559.211 1004.32 564.65 1011.04 564.65Z" fill="#FCF9ED" id="svg_47"/><path d="M987.225 588.553C987.225 595.288 981.801 600.702 975.054 600.702C968.307 600.702 962.883 595.288 962.883 588.553C962.883 581.818 968.307 576.404 975.054 576.404C981.669 576.404 987.225 581.818 987.225 588.553Z" fill="#FCF9ED" id="svg_48"/><path d="M1163.84 501.131C1179.99 501.131 1193.08 488.951 1193.08 473.927C1193.08 458.903 1179.99 446.723 1163.84 446.723C1147.69 446.723 1134.6 458.903 1134.6 473.927C1134.6 488.951 1147.69 501.131 1163.84 501.131Z" fill="#FCF9ED" id="svg_49"/><path d="M1046.63 579.837C1062.77 579.837 1075.86 567.657 1075.86 552.633C1075.86 537.609 1062.77 525.429 1046.63 525.429C1030.48 525.429 1017.39 537.609 1017.39 552.633C1017.39 567.657 1030.48 579.837 1046.63 579.837Z" fill="#FCF9ED" id="svg_50"/><path d="M1134.6 516.317C1146.37 516.317 1155.9 507.449 1155.9 496.509C1155.9 485.569 1146.37 476.7 1134.6 476.7C1122.84 476.7 1113.3 485.569 1113.3 496.509C1113.3 507.449 1122.84 516.317 1134.6 516.317Z" fill="#FCF9ED" id="svg_51"/><path d="M938.964 631.34C950.728 631.326 960.253 621.737 960.239 609.922C960.225 598.106 950.678 588.539 938.915 588.553C927.151 588.567 917.626 598.156 917.64 609.971C917.654 621.786 927.201 631.353 938.964 631.34Z" fill="#FCF9ED" id="svg_52"/><path d="M1308.83 516.317C1320.6 516.317 1330.13 507.449 1330.13 496.509C1330.13 485.569 1320.6 476.7 1308.83 476.7C1297.07 476.7 1287.53 485.569 1287.53 496.509C1287.53 507.449 1297.07 516.317 1308.83 516.317Z" fill="#FCF9ED" id="svg_53"/><path d="M1118.59 493.736C1112.77 502.98 1100.07 506.017 1090.15 500.603C1080.23 495.188 1077.05 483.303 1082.74 474.191C1088.56 464.947 1101.26 461.91 1111.19 467.324C1121.11 472.739 1124.41 484.492 1118.59 493.736Z" fill="#FCF9ED" id="svg_54"/><path d="M1003.76 571.781C997.941 581.686 985.241 584.987 975.319 579.177C965.397 573.366 962.222 560.689 967.91 550.784C973.731 540.88 986.431 537.579 996.353 543.389C1006.28 549.2 1009.58 562.009 1003.76 571.781Z" fill="#FCF9ED" id="svg_55"/><path d="M1096.9 504.3C1093.72 509.318 1086.84 510.903 1081.42 507.998C1076 505.092 1074.28 498.622 1077.45 493.603C1080.63 488.585 1087.51 487.001 1092.93 489.906C1098.35 492.811 1100.07 499.282 1096.9 504.3Z" fill="#FCF9ED" id="svg_56"/><path d="M778.994 727.609C775.819 733.024 768.94 734.74 763.516 731.571C758.092 728.402 756.372 721.535 759.547 716.12C762.722 710.706 769.601 708.989 775.025 712.159C780.317 715.328 782.037 722.195 778.994 727.609Z" fill="#FCF9ED" id="svg_57"/><path d="M1283.3 471.418C1289.51 471.418 1294.54 466.688 1294.54 460.853C1294.54 455.019 1289.51 450.289 1283.3 450.289C1277.09 450.289 1272.05 455.019 1272.05 460.853C1272.05 466.688 1277.09 471.418 1283.3 471.418Z" fill="#FCF9ED" id="svg_58"/><path d="M970.953 605.588C967.778 611.003 960.899 612.719 955.475 609.55C950.051 606.381 948.331 599.514 951.506 594.099C954.681 588.685 961.56 586.968 966.984 590.138C972.408 593.307 974.128 600.174 970.953 605.588Z" fill="#FCF9ED" id="svg_59"/><path d="M929.545 630.415C919.623 647.186 898.059 652.733 881.258 642.961C864.456 633.056 858.9 611.531 868.69 594.76C878.612 577.988 900.176 572.442 916.977 582.214C933.778 592.118 939.335 613.644 929.545 630.415Z" fill="#FCF9ED" id="svg_60"/><path d="M1176.54 402.484C1178.39 408.031 1174.95 413.841 1169 415.558C1163.04 417.275 1156.69 414.105 1154.97 408.559C1153.12 403.012 1156.56 397.202 1162.52 395.485C1168.34 393.768 1174.69 396.938 1176.54 402.484Z" fill="#FCF9ED" id="svg_61"/><path d="M1167.14 456.099C1179.49 456.099 1189.5 446.226 1189.5 434.046C1189.5 421.866 1179.49 411.992 1167.14 411.992C1154.8 411.992 1144.79 421.866 1144.79 434.046C1144.79 446.226 1154.8 456.099 1167.14 456.099Z" fill="#FCF9ED" id="svg_62"/><path d="M793.812 728.401C805.21 728.401 814.45 719.119 814.45 707.668C814.45 696.218 805.21 686.935 793.812 686.935C782.414 686.935 773.174 696.218 773.174 707.668C773.174 719.119 782.414 728.401 793.812 728.401Z" fill="#FCF9ED" id="svg_63"/><path d="M902.028 680.069C907.717 689.973 904.41 702.651 894.488 708.329C884.566 714.008 871.865 710.706 866.177 700.802C860.488 690.898 863.796 678.22 873.718 672.542C883.64 666.731 896.208 670.165 902.028 680.069Z" fill="#FCF9ED" id="svg_64"/><path d="M1085.26 521.996C1081.15 528.467 1072.16 530.712 1065.28 526.882C1058.27 523.053 1056.02 514.733 1060.12 508.262C1064.22 501.792 1073.22 499.547 1080.1 503.376C1086.98 507.206 1089.36 515.525 1085.26 521.996Z" fill="#FCF9ED" id="svg_65"/><path d="M833.236 718.497C829.134 725.496 820.138 727.741 813.259 723.647C806.38 719.554 803.999 710.574 808.1 703.575C812.201 696.576 821.197 694.331 828.076 698.424C834.955 702.518 837.337 711.498 833.236 718.497Z" fill="#FCF9ED" id="svg_66"/><path d="M753.992 725.232C755.579 731.307 751.875 737.381 745.922 738.966C739.836 740.551 733.751 736.853 732.163 730.91C730.576 724.836 734.28 718.761 740.233 717.176C746.186 715.592 752.404 719.157 753.992 725.232Z" fill="#FCF9ED" id="svg_67"/><path d="M853.742 704.895C855.329 710.97 851.625 717.045 845.672 718.629C839.586 720.214 833.501 716.516 831.913 710.574C830.326 704.499 834.03 698.424 839.983 696.84C846.069 695.255 852.286 698.821 853.742 704.895Z" fill="#FCF9ED" id="svg_68"/><path d="M870.675 693.67C872.263 699.745 868.558 705.82 862.605 707.404C856.52 708.989 850.434 705.291 848.847 699.349C847.259 693.274 850.963 687.2 856.917 685.615C863.002 684.03 869.088 687.596 870.675 693.67Z" fill="#FCF9ED" id="svg_69"/><path d="M923.064 682.314C924.651 688.388 920.947 694.463 914.994 696.048C908.908 697.632 902.823 693.935 901.235 687.992C899.648 681.917 903.352 675.843 909.305 674.258C915.259 672.673 921.476 676.371 923.064 682.314Z" fill="#FCF9ED" id="svg_70"/><path d="M1311.74 468.777C1313.33 474.455 1309.63 480.134 1303.67 481.586C1297.59 483.039 1291.5 479.606 1289.92 474.059C1288.33 468.381 1292.03 462.702 1297.99 461.25C1303.94 459.797 1310.16 463.098 1311.74 468.777Z" fill="#FCF9ED" id="svg_71"/><path d="M1194.8 501.659C1198.63 502.187 1201.28 505.489 1200.75 509.054C1200.22 512.62 1196.65 515.129 1192.81 514.601C1188.98 514.073 1186.33 510.771 1186.86 507.206C1187.39 503.508 1190.96 501.131 1194.8 501.659Z" fill="#FCF9ED" id="svg_72"/><path d="M1205.64 406.974C1211.85 406.974 1216.89 402.244 1216.89 396.41C1216.89 390.575 1211.85 385.845 1205.64 385.845C1199.43 385.845 1194.4 390.575 1194.4 396.41C1194.4 402.244 1199.43 406.974 1205.64 406.974Z" fill="#FCF9ED" id="svg_73"/><path d="M1282.24 439.196C1286.61 443.29 1286.61 449.893 1282.24 453.987C1277.88 458.08 1270.73 458.08 1266.23 453.987C1261.87 449.893 1261.87 443.29 1266.23 439.196C1270.6 435.103 1277.74 435.103 1282.24 439.196Z" fill="#FCF9ED" id="svg_74"/><path d="M1085.26 418.463C1085.26 419.652 1084.33 420.444 1083.01 420.444C1081.82 420.444 1080.76 419.52 1080.76 418.463C1080.76 417.275 1081.68 416.482 1083.01 416.482C1084.2 416.35 1085.26 417.275 1085.26 418.463Z" fill="#FCF9ED" id="svg_75"/><path d="M1138.04 446.592C1138.04 448.044 1136.72 449.365 1135.13 449.365C1133.54 449.365 1132.22 448.176 1132.22 446.592C1132.22 445.139 1133.54 443.818 1135.13 443.818C1136.72 443.818 1138.04 445.139 1138.04 446.592Z" fill="#FCF9ED" id="svg_76"/><path d="M931.53 561.745C931.53 563.33 930.207 564.65 928.619 564.65C927.032 564.65 925.709 563.33 925.709 561.745C925.709 560.16 927.032 558.84 928.619 558.84C930.207 558.84 931.53 560.16 931.53 561.745Z" fill="#FCF9ED" id="svg_77"/><path d="M1276.29 391.128C1276.29 391.92 1276.95 392.448 1277.74 392.448C1278.54 392.448 1279.2 391.788 1279.2 391.128C1279.2 390.335 1278.54 389.807 1277.74 389.807C1276.95 389.807 1276.29 390.467 1276.29 391.128Z" fill="#FCF9ED" id="svg_78"/><path d="M1290.97 429.556C1290.97 428.632 1290.18 427.839 1289.25 427.839C1288.33 427.839 1287.53 428.632 1287.53 429.556C1287.53 430.48 1288.33 431.273 1289.25 431.273C1290.18 431.273 1290.97 430.48 1290.97 429.556Z" fill="#FCF9ED" id="svg_79"/><path d="M1306.05 468.249C1306.05 465.872 1303.94 463.891 1301.29 463.891C1298.65 463.891 1296.53 465.872 1296.53 468.249C1296.53 470.626 1298.65 472.607 1301.29 472.607C1303.94 472.607 1306.05 470.626 1306.05 468.249Z" fill="#FCF9ED" id="svg_80"/><path d="M1111.19 476.7C1111.19 475.643 1112.11 474.851 1113.17 474.851C1114.23 474.851 1115.15 475.643 1115.15 476.7C1115.15 477.756 1114.23 478.549 1113.17 478.549C1112.11 478.549 1111.19 477.756 1111.19 476.7Z" fill="#FCF9ED" id="svg_81"/><path d="M1075.6 445.138C1075.6 447.515 1073.61 449.364 1071.1 449.364C1068.59 449.364 1066.6 447.515 1066.6 445.138C1066.6 442.761 1068.59 440.913 1071.1 440.913C1073.61 440.913 1075.6 442.761 1075.6 445.138Z" fill="#FCF9ED" id="svg_82"/><path d="M909.834 582.478C909.834 584.987 907.85 586.968 905.336 586.968C902.822 586.968 900.838 584.987 900.838 582.478C900.838 579.969 902.822 577.988 905.336 577.988C907.85 577.988 909.834 579.969 909.834 582.478Z" fill="#FCF9ED" id="svg_83"/><path d="M1065.54 525.43C1065.54 527.807 1063.56 529.656 1061.05 529.656C1058.53 529.656 1056.55 527.807 1056.55 525.43C1056.55 523.053 1058.53 521.204 1061.05 521.204C1063.43 521.204 1065.54 523.053 1065.54 525.43Z" fill="#FCF9ED" id="svg_84"/><path d="M760.076 719.29C760.076 721.799 758.092 723.779 755.578 723.779C753.064 723.779 751.08 721.799 751.08 719.29C751.08 716.78 753.064 714.8 755.578 714.8C757.959 714.8 760.076 716.78 760.076 719.29Z" fill="#FCF9ED" id="svg_85"/><path d="M969.498 589.477L1108.27 467.852L1177.46 462.966L1196.25 390.863L1220.72 410.011L1251.95 435.366L1308.83 482.907V720.214H977.039H579.23L754.255 677.691L817.889 656.958L879.67 623.68L969.498 589.477Z" fill="#FCF9ED" id="svg_86"/><path d="M1159.08 427.839C1159.08 431.272 1161.99 434.046 1165.69 434.046C1169.4 434.046 1172.31 431.272 1172.31 427.839C1172.31 424.406 1169.4 421.632 1165.69 421.632C1161.99 421.632 1159.08 424.406 1159.08 427.839Z" fill="#EDE7D1" id="svg_87"/><path d="M810.35 669.108C810.35 672.805 813.26 675.711 816.964 675.711C820.669 675.711 823.579 672.805 823.579 669.108C823.579 665.41 820.669 662.505 816.964 662.505C813.26 662.505 810.35 665.41 810.35 669.108Z" fill="#EDE7D1" id="svg_88"/><path d="M887.74 620.379C886.152 626.982 879.67 630.944 873.055 629.491C866.44 627.906 862.472 621.436 863.927 614.833C865.514 608.23 871.997 604.268 878.612 605.721C885.226 607.305 889.195 613.908 887.74 620.379Z" fill="#EDE7D1" id="svg_89"/><path d="M809.423 662.505C807.703 669.9 800.162 674.522 792.754 672.806C785.345 671.089 780.715 663.562 782.435 656.166C784.155 648.771 791.695 644.149 799.104 645.866C806.645 647.583 811.275 654.978 809.423 662.505Z" fill="#EDE7D1" id="svg_90"/><path d="M701.338 699.349C720.262 699.349 735.603 684.036 735.603 665.146C735.603 646.257 720.262 630.943 701.338 630.943C682.415 630.943 667.074 646.257 667.074 665.146C667.074 684.036 682.415 699.349 701.338 699.349Z" fill="#EDE7D1" id="svg_91"/><path d="M844.878 673.598C833.633 685.351 814.847 685.747 803.073 674.522C791.299 663.165 790.902 644.545 802.147 632.66C813.392 620.907 832.178 620.511 843.952 631.735C855.726 643.092 856.123 661.844 844.878 673.598Z" fill="#EDE7D1" id="svg_92"/><path d="M779.261 678.748C774.895 683.238 767.751 683.37 763.253 679.144C758.755 674.786 758.623 667.655 762.856 663.165C767.222 658.675 774.366 658.543 778.864 662.769C783.494 666.995 783.626 674.126 779.261 678.748Z" fill="#EDE7D1" id="svg_93"/><path d="M733.487 677.956C730.047 683.238 723.168 684.691 717.876 681.257C712.584 677.824 711.129 670.825 714.569 665.674C718.008 660.392 724.888 658.939 730.179 662.373C735.339 665.674 736.794 672.673 733.487 677.956Z" fill="#EDE7D1" id="svg_94"/><path d="M882.317 594.759C882.714 600.966 877.952 606.38 871.734 606.776C865.516 607.172 860.092 602.418 859.695 596.212C859.298 590.005 864.061 584.591 870.279 584.194C876.496 583.798 881.92 588.552 882.317 594.759Z" fill="#EDE7D1" id="svg_95"/><path d="M696.841 675.446C702.133 685.614 698.164 698.028 687.977 703.31C677.791 708.592 665.355 704.631 660.063 694.462C654.771 684.294 658.74 671.88 668.927 666.598C679.114 661.448 691.549 665.409 696.841 675.446Z" fill="#EDE7D1" id="svg_96"/><path d="M894.356 572.706C892.239 574.819 888.932 574.951 886.683 572.838C884.566 570.725 884.434 567.424 886.55 565.179C888.667 563.066 891.974 562.934 894.223 565.047C896.472 567.159 896.472 570.593 894.356 572.706Z" fill="#EDE7D1" id="svg_97"/><path d="M626.46 710.97C622.094 717.705 612.966 719.686 606.219 715.328C599.472 710.97 597.488 701.858 601.853 695.123C606.219 688.388 615.347 686.407 622.094 690.765C628.974 695.123 630.958 704.103 626.46 710.97Z" fill="#EDE7D1" id="svg_98"/><path d="M739.307 632.132C739.439 638.338 734.544 643.488 728.327 643.62C722.109 643.753 716.949 638.866 716.817 632.528C716.685 626.321 721.58 621.171 727.797 621.039C734.015 620.907 739.175 625.925 739.307 632.132Z" fill="#EDE7D1" id="svg_99"/><path d="M1059.72 476.964C1059.86 483.171 1054.96 488.321 1048.74 488.453C1042.52 488.585 1037.37 483.699 1037.23 477.361C1037.1 471.154 1042 466.004 1048.21 465.872C1054.43 465.872 1059.59 470.758 1059.72 476.964Z" fill="#EDE7D1" id="svg_100"/><path d="M1262.13 435.631C1262.4 448.044 1252.61 458.213 1240.17 458.477C1227.74 458.741 1217.55 448.969 1217.28 436.555C1217.02 424.142 1226.81 413.973 1239.25 413.709C1251.55 413.313 1261.87 423.217 1262.13 435.631Z" fill="#FCF9ED" id="svg_101"/><path d="M1269.94 449.365C1270.2 461.778 1260.41 471.947 1247.98 472.211C1235.54 472.475 1225.36 462.703 1225.09 450.289C1224.83 437.876 1234.62 427.707 1247.05 427.443C1259.49 427.179 1269.67 436.951 1269.94 449.365Z" fill="#FCF9ED" id="svg_102"/><path d="M647.627 698.292C648.95 704.367 644.981 710.309 638.896 711.63C632.81 712.951 626.857 708.989 625.534 702.914C624.211 696.84 628.18 690.897 634.265 689.577C640.351 688.256 646.304 692.086 647.627 698.292Z" fill="#EDE7D1" id="svg_103"/><path d="M664.957 687.728C666.28 693.802 662.311 699.745 656.226 701.066C650.14 702.386 644.187 698.424 642.864 692.35C641.541 686.275 645.51 680.333 651.595 679.012C657.681 677.691 663.634 681.653 664.957 687.728Z" fill="#EDE7D1" id="svg_104"/><path d="M717.742 678.748C719.065 684.823 715.096 690.766 709.011 692.086C702.925 693.407 696.972 689.445 695.649 683.37C694.326 677.296 698.295 671.353 704.381 670.032C710.466 668.712 716.552 672.674 717.742 678.748Z" fill="#EDE7D1" id="svg_105"/><path d="M750.948 626.981C750.551 628.566 748.964 629.49 747.376 629.094C745.789 628.698 744.863 627.113 745.26 625.529C745.657 623.944 747.244 623.02 748.832 623.416C750.287 623.812 751.345 625.397 750.948 626.981Z" fill="#EDE7D1" id="svg_106"/><path d="M755.314 640.98C755.579 639.923 756.637 639.263 757.695 639.527C758.754 639.791 759.415 640.848 759.151 641.904C758.886 642.961 757.828 643.621 756.769 643.357C755.711 643.093 755.05 642.036 755.314 640.98Z" fill="#EDE7D1" id="svg_107"/><path d="M725.151 642.168C724.622 644.545 722.108 646.13 719.727 645.602C717.346 645.074 715.758 642.565 716.288 640.188C716.817 637.811 719.33 636.226 721.712 636.754C724.225 637.282 725.68 639.791 725.151 642.168Z" fill="#EDE7D1" id="svg_108"/><path d="M885.888 628.17C884.301 634.773 877.818 638.735 871.204 637.282C864.589 635.697 860.62 629.227 862.075 622.624C863.663 616.021 870.145 612.059 876.76 613.512C883.375 614.964 887.476 621.567 885.888 628.17Z" fill="#FCF9ED" id="svg_109"/><path d="M832.441 673.73C830.853 680.333 824.371 684.295 817.756 682.842C811.142 681.257 807.173 674.787 808.628 668.184C810.216 661.581 816.698 657.619 823.313 659.072C829.927 660.657 834.028 667.259 832.441 673.73Z" fill="#FCF9ED" id="svg_110"/><path d="M801.485 688.388C798.839 699.877 787.329 707.008 775.82 704.235C764.31 701.462 757.299 689.973 759.944 678.616C762.59 667.127 774.1 659.996 785.61 662.769C797.119 665.41 804.131 676.899 801.485 688.388Z" fill="#FCF9ED" id="svg_111"/><path d="M855.824 646.88C855.855 635.429 846.581 626.122 835.11 626.09C823.639 626.059 814.315 635.316 814.283 646.766C814.252 658.217 823.526 667.525 834.997 667.556C846.468 667.588 855.792 658.331 855.824 646.88Z" fill="#FCF9ED" id="svg_112"/><path d="M606.219 719.157C602.779 724.44 595.9 725.892 590.608 722.459C585.317 719.025 583.861 712.026 587.301 706.876C590.741 701.594 597.62 700.141 602.912 703.575C608.203 706.876 609.659 713.875 606.219 719.157Z" fill="#FCF9ED" id="svg_113"/><path d="M880.331 687.199C867.234 700.933 845.406 701.33 831.779 688.256C818.021 675.182 817.624 653.393 830.721 639.659C843.818 625.925 865.647 625.529 879.273 638.602C893.031 651.808 893.428 673.465 880.331 687.199Z" fill="#FCF9ED" id="svg_114"/><path d="M994.898 602.947C981.801 616.681 959.972 617.078 946.346 604.004C932.587 590.93 932.19 569.141 945.287 555.407C958.384 541.673 980.213 541.277 993.839 554.35C1007.6 567.424 1007.99 589.213 994.898 602.947Z" fill="#FCF9ED" id="svg_115"/><path d="M1073.35 565.574C1060.25 578.384 1038.42 578.78 1024.8 566.499C1011.04 554.217 1010.64 534.013 1023.74 521.203C1036.84 508.393 1058.66 507.997 1072.29 520.279C1086.05 532.56 1086.58 552.897 1073.35 565.574Z" fill="#FCF9ED" id="svg_116"/><path d="M1299.31 496.905C1286.21 509.714 1264.38 510.111 1250.76 497.829C1237 485.548 1236.6 465.343 1249.7 452.534C1262.79 439.724 1284.62 439.328 1298.25 451.609C1312.01 463.891 1312.4 484.095 1299.31 496.905Z" fill="#FCF9ED" id="svg_117"/><path d="M812.862 686.54C808.497 691.03 801.353 691.162 796.855 686.936C792.357 682.578 792.224 675.447 796.458 670.957C800.823 666.467 807.967 666.335 812.465 670.561C816.963 674.919 817.096 682.05 812.862 686.54Z" fill="#FCF9ED" id="svg_118"/><path d="M766.296 681.522C758.226 689.973 744.732 690.369 736.133 682.182C727.666 673.994 727.401 660.524 735.471 652.073C743.541 643.621 757.035 643.225 765.634 651.412C774.101 659.6 774.498 673.07 766.296 681.522Z" fill="#FCF9ED" id="svg_119"/><path d="M640.351 690.369C645.642 700.537 641.674 712.951 631.487 718.233C621.3 723.515 608.865 719.554 603.573 709.385C598.281 699.217 602.25 686.803 612.437 681.521C622.623 676.239 635.059 680.201 640.351 690.369Z" fill="#FCF9ED" id="svg_120"/><path d="M731.237 677.031C736.529 687.199 732.56 699.613 722.374 704.895C712.187 710.177 699.751 706.216 694.46 696.047C689.168 685.879 693.137 673.465 703.323 668.183C713.51 662.901 725.946 666.862 731.237 677.031Z" fill="#FCF9ED" id="svg_121"/><path d="M660.856 712.422C656.491 719.157 647.362 721.138 640.615 716.78C633.869 712.422 631.884 703.31 636.25 696.575C640.615 689.841 649.744 687.86 656.491 692.218C663.37 696.575 665.354 705.687 660.856 712.422Z" fill="#FCF9ED" id="svg_122"/><path d="M581.348 715.592C582.671 721.667 578.702 727.609 572.616 728.93C566.531 730.25 560.578 726.289 559.255 720.214C557.932 714.139 561.901 708.197 567.986 706.876C574.072 705.688 580.025 709.517 581.348 715.592Z" fill="#FCF9ED" id="svg_123"/><path d="M682.024 699.745C683.346 705.82 679.378 711.763 673.292 713.083C667.207 714.404 661.253 710.442 659.93 704.367C658.607 698.293 662.576 692.35 668.662 691.03C674.747 689.709 680.701 693.671 682.024 699.745Z" fill="#FCF9ED" id="svg_124"/><path d="M699.354 689.181C700.677 695.255 696.708 701.198 690.622 702.518C684.537 703.839 678.583 699.877 677.26 693.803C675.938 687.728 679.906 681.785 685.992 680.465C692.077 679.276 698.163 683.106 699.354 689.181Z" fill="#FCF9ED" id="svg_125"/><path d="M747.112 682.974C747.244 689.181 742.349 694.331 736.131 694.463C729.914 694.595 724.754 689.709 724.622 683.37C724.489 677.163 729.384 672.013 735.602 671.881C741.82 671.749 746.979 676.767 747.112 682.974Z" fill="#FCF9ED" id="svg_126"/><path d="M784.419 634.905C784.022 636.49 782.435 637.414 780.847 637.018C779.26 636.622 778.333 635.037 778.73 633.452C779.127 631.868 780.715 630.943 782.302 631.34C783.89 631.736 784.816 633.32 784.419 634.905Z" fill="#FCF9ED" id="svg_127"/><path d="M827.15 615.361C827.415 614.305 828.473 613.644 829.531 613.908C830.59 614.172 831.251 615.229 830.987 616.285C830.722 617.342 829.664 618.002 828.605 617.738C827.547 617.474 826.886 616.417 827.15 615.361Z" fill="#FCF9ED" id="svg_128"/><path d="M758.622 650.092C758.093 652.469 755.579 654.053 753.198 653.525C750.817 652.997 749.229 650.488 749.758 648.111C750.287 645.734 752.801 644.149 755.182 644.677C757.696 645.206 759.151 647.583 758.622 650.092Z" fill="#FCF9ED" id="svg_129"/><path d="M587.697 710.046C587.565 712.555 585.448 714.536 582.934 714.404C580.421 714.272 578.436 712.159 578.569 709.65C578.701 707.14 580.818 705.16 583.331 705.292C585.845 705.424 587.829 707.537 587.697 710.046Z" fill="#FCF9ED" id="svg_130"/><path d="M640.219 662.109C640.087 665.807 642.865 668.844 646.569 668.976C650.274 669.108 653.316 666.335 653.449 662.637C653.581 658.94 650.803 655.902 647.099 655.77C643.527 655.638 640.352 658.411 640.219 662.109Z" fill="#EDE7D1" id="svg_131"/><path d="M1097.43 504.829C1097.43 507.998 1100.21 510.507 1103.51 510.507C1106.82 510.507 1109.6 507.998 1109.6 504.829C1109.6 501.659 1106.82 499.15 1103.51 499.15C1100.21 499.15 1097.43 501.659 1097.43 504.829Z" fill="#EDE7D1" id="svg_132"/><path d="M1170.85 438.536C1170.85 439.328 1171.51 439.856 1172.3 439.856C1173.1 439.856 1173.76 439.196 1173.76 438.536C1173.76 437.876 1173.1 437.215 1172.3 437.215C1171.51 437.215 1170.85 437.744 1170.85 438.536Z" fill="#EDE7D1" id="svg_133"/><path d="M1155.37 415.029C1155.37 416.614 1156.69 417.935 1158.41 417.935C1160.13 417.935 1161.46 416.614 1161.46 415.029C1161.46 413.445 1160.13 412.124 1158.41 412.124C1156.69 412.256 1155.37 413.445 1155.37 415.029Z" fill="#EDE7D1" id="svg_134"/><path d="M1232.9 387.429C1232.9 388.222 1233.56 388.75 1234.35 388.75C1235.15 388.75 1235.81 388.09 1235.81 387.429C1235.81 386.637 1235.15 386.109 1234.35 386.109C1233.56 386.109 1232.9 386.637 1232.9 387.429Z" fill="#EDE7D1" id="svg_135"/><path d="M1160 466.664C1160.27 479.738 1149.82 490.698 1136.72 490.963C1123.62 491.227 1112.77 480.794 1112.51 467.72C1112.24 454.647 1122.7 443.686 1135.79 443.422C1148.89 443.158 1159.74 453.59 1160 466.664Z" fill="#FCF9ED" id="svg_136"/><path d="M959.709 598.589C959.974 611.663 949.523 622.624 936.426 622.888C923.329 623.152 912.48 612.719 912.216 599.646C911.951 586.572 922.403 575.611 935.5 575.347C948.597 575.083 959.445 585.516 959.709 598.589Z" fill="#FCF9ED" id="svg_137"/><path d="M1162.9 349.848H1145.46V190.37C1145.46 185.602 1149.4 164.028 1154.18 164.028C1158.96 164.028 1162.9 185.483 1162.9 190.37V349.848Z" fill="#F4EDE1" id="svg_138"/><path d="M1162.9 192.038H1145.46V195.018H1162.9V192.038Z" fill="#5C527C" id="svg_139"/><path d="M1162.9 288.345H1145.46V291.325H1162.9V288.345Z" fill="#5C527C" id="svg_140"/><path d="M1162.9 294.305H1145.46V297.284H1162.9V294.305Z" fill="#5C527C" id="svg_141"/><path d="M1162.9 354.615H1145.46L1150.24 347.345H1158.24L1162.9 354.615Z" fill="#E3B454" id="svg_142"/><path d="M1167.19 357.715H1141.16L1143.55 354.616H1164.81L1167.19 357.715Z" fill="#F7DA5C" id="svg_143"/><path d="M1162.9 339.955H1145.46V349.848H1162.9V339.955Z" fill="#5C527C" id="svg_144"/><path d="M1164.81 354.616H1162.9L1159.79 349.848H1162.9V339.955V297.165V294.185V291.206V288.226V194.899V191.919V190.37C1162.9 185.602 1158.96 164.028 1154.18 164.028V357.715H1167.19L1164.81 354.616Z" fill="#5C527C" id="svg_145"/><path d="M1232.15 349.848H1214.72V190.37C1214.72 185.602 1218.66 164.028 1223.44 164.028C1228.21 164.028 1232.15 185.483 1232.15 190.37V349.848V349.848Z" fill="#F4EDE1" id="svg_146"/><path d="M1232.15 192.038H1214.72V195.018H1232.15V192.038Z" fill="#5C527C" id="svg_147"/><path d="M1232.15 288.345H1214.72V291.325H1232.15V288.345Z" fill="#5C527C" id="svg_148"/><path d="M1232.15 294.305H1214.72V297.284H1232.15V294.305Z" fill="#5C527C" id="svg_149"/><path d="M1232.15 354.615H1214.72L1219.38 347.345H1227.38L1232.15 354.615Z" fill="#E3B454" id="svg_150"/><path d="M1236.45 357.715H1210.42L1212.81 354.616H1234.06L1236.45 357.715Z" fill="#F7DA5C" id="svg_151"/><path d="M1232.15 339.955H1214.72V349.848H1232.15V339.955Z" fill="#5C527C" id="svg_152"/><path d="M1234.06 354.616H1232.15L1229.05 349.848H1232.15V339.955V297.165V294.185V291.206V288.226V194.899V191.919V190.37C1232.15 185.602 1228.21 164.028 1223.44 164.028V357.715H1236.45L1234.06 354.616Z" fill="#5C527C" id="svg_153"/><path d="M1188.81 121C1174.48 121 1162.9 157.949 1162.9 167.723V319.454C1162.9 329.108 1174.48 336.975 1188.81 336.975C1203.14 336.975 1214.72 329.108 1214.72 319.454V167.723C1214.72 157.949 1203.14 121 1188.81 121Z" fill="#8289B2" id="svg_154"/><path d="M1188.81 121C1180.09 121 1172.33 134.945 1167.67 147.937H1210.06C1205.28 134.945 1197.52 121 1188.81 121Z" fill="#E38F41" id="svg_155"/><path d="M1214.6 174.636H1162.9V176.543H1214.6V174.636Z" fill="#E3B454" id="svg_156"/><path d="M1188.81 121V336.975C1203.14 336.975 1214.72 329.108 1214.72 319.454V167.723C1214.72 157.949 1203.14 121 1188.81 121Z" fill="#5C527C" id="svg_157"/><path d="M1188.81 235.305L1185.11 237.093L1188.81 239V235.305Z" fill="#EAB051" id="svg_158"/><path d="M1151.08 301.575L1159.19 292.755C1164.69 286.796 1167.08 274.757 1167.08 264.388C1167.08 254.852 1171.14 247.82 1176.99 244.721L1184.63 240.907V237.212L1172.69 243.291C1166.84 246.27 1162.9 254.733 1162.9 264.268C1162.9 274.638 1159.55 284.293 1154.06 290.252L1145.94 299.072C1136.99 308.727 1130.18 321.838 1126 336.856H1131.97C1135.91 323.03 1142.36 310.991 1151.08 301.575Z" fill="#EAB051" id="svg_159"/><path d="M1192.87 236.973L1192.51 237.092L1192.87 237.45V236.973Z" fill="#FFFDEC" id="svg_160"/><path d="M1176.99 244.84C1171.14 247.82 1167.08 254.971 1167.08 264.507C1167.08 274.876 1164.69 286.915 1159.19 292.874L1151.08 301.694C1142.36 311.11 1135.91 323.149 1132.09 337.094H1184.75V241.145L1176.99 244.84Z" fill="#E38F41" id="svg_161"/><path d="M1192.51 237.093L1188.81 235.305V239L1192.51 237.093Z" fill="#E9AB4D" id="svg_162"/><path d="M1200.63 244.84C1206.48 247.82 1210.54 254.971 1210.54 264.507C1210.54 274.876 1212.93 286.915 1218.42 292.874L1226.54 301.694C1235.26 311.111 1241.7 323.149 1245.52 337.094H1251.5C1247.32 322.076 1240.51 308.965 1231.55 299.311L1223.43 290.49C1217.94 284.531 1214.6 274.876 1214.6 264.507C1214.6 254.971 1210.66 246.628 1204.81 243.529L1192.87 237.45V241.145L1200.63 244.84Z" fill="#E9AB4D" id="svg_163"/><path d="M1188.81 239L1192.99 241.026L1192.87 237.45L1192.51 237.093L1188.81 239Z" fill="#E9AB4D" id="svg_164"/><path d="M1184.63 236.973V237.45L1185.11 237.092L1184.63 236.973Z" fill="#E38F41" id="svg_165"/><path d="M1188.81 239L1185.11 237.093L1184.63 237.45V241.026L1188.81 239Z" fill="#E38F41" id="svg_166"/><path d="M1184.63 241.026V336.975H1188.81V239L1184.63 241.026Z" fill="#E38F41" id="svg_167"/><path d="M1218.42 292.755C1212.93 286.795 1210.54 274.757 1210.54 264.387C1210.54 254.852 1206.48 247.82 1200.63 244.721L1192.99 240.907V336.856H1245.64C1241.7 322.91 1235.38 310.872 1226.66 301.456L1218.42 292.755Z" fill="#E38F41" id="svg_168"/><path d="M1188.81 239V336.975H1192.99V241.026L1188.81 239Z" fill="#E38F41" id="svg_169"/><path d="M1182.96 339.24H1176.51V346.63H1182.96V339.24Z" fill="#E3B454" id="svg_170"/><path d="M1184.63 349.848H1174.84L1175.79 346.511H1183.67L1184.63 349.848Z" fill="#F7DA5C" id="svg_171"/><path d="M1200.99 339.24H1194.54V346.63H1200.99V339.24Z" fill="#E6A94C" id="svg_172"/><path d="M1202.66 349.848H1192.99L1193.82 346.511H1201.82L1202.66 349.848Z" fill="#F7DA5C" id="svg_173"/><path d="M1202.66 339.24H1174.84V203.123C1174.84 195.495 1181.04 181.668 1188.69 181.668C1196.33 181.668 1202.54 195.375 1202.54 203.123V339.24H1202.66Z" fill="#FCF6ED" id="svg_174"/><path d="M1198.72 214.327C1192.15 214.327 1185.58 214.327 1179.02 214.327C1179.02 213.016 1179.02 211.705 1179.02 210.394C1185.22 207.414 1192.51 207.414 1198.72 210.394C1198.72 211.705 1198.72 213.016 1198.72 214.327Z" fill="#5C527C" id="svg_175"/><path d="M1202.66 318.143H1174.84V339.24H1202.66V318.143Z" fill="#EABD57" id="svg_176"/><path d="M1202.66 234.709H1174.84V235.782H1202.66V234.709Z" fill="#EABD57" id="svg_177"/><path d="M1202.66 271.419H1174.84V272.492H1202.66V271.419Z" fill="#EABD57" id="svg_178"/><path d="M1188.81 181.668C1184.63 181.668 1180.93 185.721 1178.42 190.608H1199.19C1196.69 185.721 1192.99 181.668 1188.81 181.668Z" fill="#5C527C" id="svg_179"/><path d="M1182.12 207.175H1181.04V217.903H1182.12V207.175Z" fill="#FCF6ED" id="svg_180"/><path d="M1195.73 207.175H1194.66V217.903H1195.73V207.175Z" fill="#FCF6ED" id="svg_181"/><path d="M1190.84 359.74L1190 362.363C1189.64 363.555 1187.97 363.555 1187.49 362.363L1186.66 359.74C1186.66 359.621 1186.54 359.502 1186.54 359.383V324.817L1188.69 318.143L1190.84 324.817V359.383C1190.96 359.502 1190.96 359.621 1190.84 359.74Z" fill="#FCF6ED" id="svg_182"/><path d="M1188.81 181.668V363.197C1189.28 363.197 1189.88 362.959 1190.12 362.244L1190.96 359.621C1190.96 359.502 1191.08 359.383 1191.08 359.264V339.12H1202.78V203.123C1202.78 195.495 1196.57 181.668 1188.81 181.668Z" fill="#5C527C" id="svg_183"/><path d="M762 207L773 217.333L762 227.667L773 238L762 248.333L773 258.667L762 269" stroke="#58B58B" stroke-width="5" id="svg_184"/><path opacity="0.3" d="M733 238L744 248.333L733 258.667L744 269L733 279.333L744 289.667L733 300" stroke="#58B58B" stroke-width="5" id="svg_185"/><path d="M1.5 402C1.5 396.753 5.75329 392.5 11 392.5C16.2467 392.5 20.5 396.753 20.5 402C20.5 407.247 16.2467 411.5 11 411.5C5.7533 411.5 1.5 407.247 1.5 402Z" stroke="#BAD2ED" stroke-width="3" id="svg_186"/><path d="M1104 25C1104 12.8497 1113.85 3 1126 3C1138.15 3 1148 12.8497 1148 25C1148 37.1503 1138.15 47 1126 47C1113.85 47 1104 37.1503 1104 25Z" stroke="#BAD2ED" stroke-width="6" id="svg_187"/></g></svg>