<svg width="464" height="337" viewBox="0 0 464 337" fill="none" xmlns="http://www.w3.org/2000/svg">
<path d="M416.257 192.286H408.011C402.899 192.286 400.425 186.189 403.888 182.564L409.66 176.798C410.155 176.303 410.155 175.644 409.66 175.15L399.765 165.264C399.27 164.769 398.611 164.769 398.116 165.264L392.344 171.031C388.716 174.656 382.613 172.019 382.613 166.911V158.673C382.613 158.014 382.119 157.52 381.459 157.52H367.441C366.781 157.52 366.286 158.014 366.286 158.673V166.911C366.286 172.019 360.184 174.491 356.556 171.031L350.784 165.264C350.289 164.769 349.629 164.769 349.135 165.264L339.24 175.15C338.745 175.644 338.745 176.303 339.24 176.798L345.012 182.564C348.64 186.189 346.001 192.286 340.889 192.286H332.643C331.983 192.286 331.488 192.78 331.488 193.439V207.445C331.488 208.104 331.983 208.598 332.643 208.598H340.889C346.001 208.598 348.475 214.695 345.012 218.319L339.24 224.086C338.745 224.581 338.745 225.24 339.24 225.734L349.135 235.62C349.629 236.115 350.289 236.115 350.784 235.62L356.556 229.853C360.184 226.228 366.286 228.865 366.286 233.973V242.211C366.286 242.87 366.781 243.364 367.441 243.364H381.459C382.119 243.364 382.613 242.87 382.613 242.211V233.973C382.613 228.865 388.716 226.393 392.344 229.853L398.116 235.62C398.611 236.115 399.27 236.115 399.765 235.62L409.66 225.734C410.155 225.24 410.155 224.581 409.66 224.086L403.888 218.319C400.26 214.695 402.899 208.598 408.011 208.598H416.257C416.917 208.598 417.412 208.104 417.412 207.445V193.439C417.412 192.78 416.917 192.286 416.257 192.286ZM374.532 216.177C365.957 216.177 358.865 209.257 358.865 200.524C358.865 191.956 365.792 184.871 374.532 184.871C383.108 184.871 390.2 191.792 390.2 200.524C390.2 209.092 383.108 216.177 374.532 216.177Z" fill="#FFE4A1"/>
<path d="M374.532 221.78C386.282 221.78 395.807 212.264 395.807 200.525C395.807 188.786 386.282 179.27 374.532 179.27C362.783 179.27 353.258 188.786 353.258 200.525C353.258 212.264 362.783 221.78 374.532 221.78Z" stroke="white" stroke-width="0.6071" stroke-miterlimit="10"/>
<path d="M374.532 226.227C388.741 226.227 400.26 214.719 400.26 200.523C400.26 186.327 388.741 174.819 374.532 174.819C360.323 174.819 348.805 186.327 348.805 200.523C348.805 214.719 360.323 226.227 374.532 226.227Z" stroke="white" stroke-width="0.6071" stroke-miterlimit="10"/>
<path d="M460.291 190.638C460.291 190.638 450.396 180.917 440.336 159.991C430.441 180.917 420.381 190.638 420.381 190.638H431.595V236.279H449.242V190.638H460.291Z" fill="url(#paint0_linear)"/>
<path d="M365.957 125.39L383.109 130.003" stroke="white" stroke-width="2" stroke-miterlimit="10" stroke-linecap="round" stroke-linejoin="round"/>
<path d="M367.607 113.032H385.419" stroke="white" stroke-width="2" stroke-miterlimit="10" stroke-linecap="round" stroke-linejoin="round"/>
<path d="M365.957 100.674L383.109 96.0605" stroke="white" stroke-width="2" stroke-miterlimit="10" stroke-linecap="round" stroke-linejoin="round"/>
<path d="M361.176 88.9757L376.513 80.0781" stroke="white" stroke-width="2" stroke-miterlimit="10" stroke-linecap="round" stroke-linejoin="round"/>
<path d="M353.424 79.0899L366.123 66.5674" stroke="white" stroke-width="2" stroke-miterlimit="10" stroke-linecap="round" stroke-linejoin="round"/>
<path d="M250.513 115.998C282.574 115.998 308.565 90.0307 308.565 57.9988C308.565 25.967 282.574 0 250.513 0C218.452 0 192.461 25.967 192.461 57.9988C192.461 90.0307 218.452 115.998 250.513 115.998Z" fill="url(#paint1_linear)"/>
<path d="M184.545 153.236C206.769 153.236 224.786 135.236 224.786 113.032C224.786 90.828 206.769 72.8281 184.545 72.8281C162.321 72.8281 144.305 90.828 144.305 113.032C144.305 135.236 162.321 153.236 184.545 153.236Z" fill="url(#paint2_linear)"/>
<path opacity="0.2" d="M144.304 160.485H19.2949V256.875H144.304V160.485Z" fill="black"/>
<path d="M146.779 157.189H21.7695V253.58H146.779V157.189Z" fill="white"/>
<path d="M146.779 157.189H21.7695V171.854H146.779V157.189Z" fill="#83B9F7"/>
<path d="M21.7695 168.394H146.779" stroke="#27439C" stroke-width="0.6215" stroke-miterlimit="10"/>
<path d="M34.3023 162.792C34.3023 163.616 33.6426 164.44 32.6531 164.44C31.8285 164.44 31.0039 163.781 31.0039 162.792C31.0039 161.968 31.6636 161.145 32.6531 161.145C33.4777 161.145 34.3023 161.968 34.3023 162.792Z" stroke="#27439C" stroke-width="0.6215" stroke-miterlimit="10"/>
<path d="M43.2086 162.792C43.2086 163.616 42.5489 164.44 41.5594 164.44C40.7348 164.44 39.9102 163.781 39.9102 162.792C39.9102 161.968 40.5698 161.145 41.5594 161.145C42.384 161.145 43.2086 161.968 43.2086 162.792Z" stroke="#27439C" stroke-width="0.6215" stroke-miterlimit="10"/>
<path d="M51.9488 162.792C51.9488 163.616 51.2891 164.44 50.2996 164.44C49.475 164.44 48.6504 163.781 48.6504 162.792C48.6504 161.968 49.3101 161.145 50.2996 161.145C51.2891 161.145 51.9488 161.968 51.9488 162.792Z" stroke="#27439C" stroke-width="0.6215" stroke-miterlimit="10"/>
<path d="M39.9102 230.512H120.721" stroke="#BABABA" stroke-width="0.5059" stroke-miterlimit="10"/>
<path d="M39.9102 220.955H120.721" stroke="#BABABA" stroke-width="0.5059" stroke-miterlimit="10"/>
<path d="M39.9102 211.398H120.721" stroke="#BABABA" stroke-width="0.5059" stroke-miterlimit="10"/>
<path d="M39.9102 201.842H120.721" stroke="#BABABA" stroke-width="0.5059" stroke-miterlimit="10"/>
<path d="M39.9102 192.285H120.721" stroke="#BABABA" stroke-width="0.5059" stroke-miterlimit="10"/>
<path d="M39.9102 182.893H120.721" stroke="#BABABA" stroke-width="0.5059" stroke-miterlimit="10"/>
<path d="M39.9102 239.904C39.9102 239.904 51.2896 215.353 59.3707 214.035C67.6167 212.717 67.4518 217.99 74.0486 217.99C81.3051 217.99 84.6035 199.7 91.3652 199.7C97.962 199.7 98.1269 204.149 104.229 204.149C111.32 204.149 120.556 186.519 120.556 186.519V239.739H39.9102V239.904Z" fill="url(#paint3_linear)"/>
<path d="M39.9102 177.292V239.904H128.637" stroke="#0030C2" stroke-width="1.0283" stroke-miterlimit="10"/>
<path d="M32.6543 325.091H436.213C436.213 325.091 437.038 311.25 425.824 298.892C414.444 286.535 394.654 297.245 381.955 276.978C367.112 253.251 350.455 251.274 320.275 247.814C290.094 244.354 269.644 215.189 226.6 215.189C183.556 215.189 151.727 264.291 124.515 270.058C97.3029 275.989 35.7878 276.484 32.6543 325.091Z" fill="url(#paint4_linear)"/>
<path d="M350.785 325.091H111.651C111.651 325.091 111.156 314.71 117.918 305.648C124.679 296.421 136.389 304.494 143.975 289.336C152.881 271.705 162.611 270.222 180.587 267.586C198.399 264.95 210.603 243.2 236 243.2C261.398 243.2 280.364 279.779 296.361 284.063C312.523 288.512 348.971 288.841 350.785 325.091Z" fill="#5A9E70"/>
<path d="M0 324.926H463.26" stroke="#343947" stroke-width="0.5039" stroke-miterlimit="10"/>
<path d="M158.159 314.382C158.159 314.382 160.962 321.467 161.292 325.257C161.292 325.257 134.245 334.813 132.431 331.188C131.607 329.541 150.078 314.382 150.078 314.382H158.159Z" fill="#343947"/>
<path d="M215.715 313.393C215.715 313.393 215.055 322.785 217.034 327.563C219.013 332.507 225.445 336.626 225.445 336.626C225.445 336.626 228.909 330.2 226.765 324.433C224.621 318.666 223.136 313.229 223.136 313.229H215.715V313.393Z" fill="#343947"/>
<path d="M150.738 132.311L149.748 126.544L124.516 136.924L143.317 245.837L151.727 242.377L138.039 163.617L154.861 156.532L153.871 150.765L143.976 154.884L142.822 148.458L149.254 145.822L148.264 140.055L141.832 142.691L140.843 136.43L150.738 132.311Z" fill="#D18100"/>
<path d="M135.07 186.19L144.306 235.951" stroke="#FFCA44" stroke-width="0.5142" stroke-miterlimit="10"/>
<path opacity="0.3" d="M151.726 242.376L146.283 211.07C143.315 212.388 140.511 214.036 138.367 216.343L143.48 245.837L151.726 242.376Z" fill="url(#paint5_linear)"/>
<path d="M176.135 252.923C173.661 238.423 159.808 228.537 145.13 231.009C130.617 233.48 120.722 247.321 123.196 261.985C125.669 276.485 139.523 286.371 154.201 283.9C168.878 281.428 178.774 267.588 176.135 252.923ZM152.386 272.86C149.583 273.354 146.944 271.377 146.449 268.576C145.955 265.775 147.934 263.139 150.737 262.644C153.541 262.15 156.18 264.127 156.674 266.928C157.169 269.73 155.19 272.366 152.386 272.86Z" fill="#D18100"/>
<path opacity="0.3" d="M134.904 145.657L141.831 142.691L140.842 136.43L133.75 139.231L134.904 145.657Z" fill="url(#paint6_linear)"/>
<path opacity="0.3" d="M137.049 157.851L143.976 154.885L142.821 148.459L135.895 151.425L137.049 157.851Z" fill="url(#paint7_linear)"/>
<path d="M171.683 253.746C173.827 265.774 165.581 277.308 153.542 279.45C141.502 281.592 129.958 273.354 127.814 261.325C125.67 249.297 133.916 237.763 145.955 235.621C158.159 233.479 169.539 241.718 171.683 253.746Z" stroke="#FFCA44" stroke-width="0.5142" stroke-miterlimit="10"/>
<path d="M145.294 185.696C145.294 185.696 138.202 184.049 136.388 186.52C134.574 188.827 132.595 193.935 133.255 194.264C133.914 194.594 137.708 189.815 137.708 189.815C137.708 189.815 139.027 191.463 142.655 191.957L143.15 195.253L147.273 190.969L145.294 185.696Z" fill="#FF9C87"/>
<path d="M168.053 131.158L163.435 163.783L143.975 184.543L146.613 192.947L177.453 170.209L173.825 136.266L168.053 131.158Z" fill="#1A4B59"/>
<path opacity="0.3" d="M177.454 170.209L173.825 136.266L168.053 131.158L163.435 163.783L161.127 166.254L159.312 183.555L177.454 170.209Z" fill="url(#paint8_linear)"/>
<path d="M161.787 181.743C161.787 181.743 166.735 184.214 175.311 184.544L174.651 155.874L161.787 181.743Z" fill="#343947"/>
<path d="M202.851 177.294C202.851 177.294 208.129 210.742 208.129 249.792C208.129 249.792 217.859 273.849 224.951 314.712H214.561C214.561 314.712 188.009 256.878 185.535 203.657L170.032 252.429C170.032 252.429 170.032 274.178 160.632 315.865H145.789C145.789 315.865 150.572 307.297 151.231 292.962C151.726 278.627 152.716 235.622 174.32 179.436L202.851 177.294Z" fill="#1A4B59"/>
<path d="M199.389 179.271L205.821 250.945L223.137 313.393" stroke="#2E849E" stroke-width="0.5039" stroke-miterlimit="10"/>
<path opacity="0.3" d="M202.852 177.294L174.32 179.436C173.496 181.743 172.506 184.049 171.682 186.356L204.336 188.993C203.511 181.578 202.852 177.294 202.852 177.294Z" fill="url(#paint9_linear)"/>
<path d="M207.634 62.6143L206.644 54.2111C206.48 52.8929 205.325 51.9043 204.006 51.9043L197.574 52.2338C196.914 52.2338 196.419 52.8929 196.584 53.552L197.079 55.0349C197.244 55.5292 197.079 56.0235 196.584 56.3531C195.595 57.1769 195.43 58.4951 196.255 59.4837L198.563 62.12C199.388 63.1086 200.542 63.6029 201.862 63.7677L202.686 67.3926L207.634 62.6143Z" fill="#FF9C87"/>
<path d="M188.999 122.92L180.094 125.391L181.083 112.539H188.999V122.92Z" fill="#FF9C87"/>
<path opacity="0.3" d="M180.588 118.471L188.999 122.755V112.539H181.083L180.588 118.471Z" fill="url(#paint10_linear)"/>
<path d="M190.978 117.812L184.876 119.459L184.051 123.084L181.907 124.238L180.093 121.766L178.609 125.061L172.837 130.499L173.826 157.356L169.868 178.611C169.538 180.753 171.188 182.731 173.496 182.401L205.986 178.776L196.42 149.118L190.978 117.812Z" fill="white"/>
<path opacity="0.2" d="M181.412 130.499L184.875 129.346L189.328 164.112L184.545 174.328L180.752 164.771L181.412 130.499Z" fill="black"/>
<path d="M184.052 122.92L185.866 125.391L184.876 129.346L181.413 130.499L180.094 126.71L181.908 124.073L184.052 122.92Z" fill="#3358CC"/>
<path d="M181.413 130.499L184.876 129.346L187.02 163.782L182.403 173.998L178.609 164.606L181.413 130.499Z" fill="#3358CC"/>
<path d="M193.946 113.034L188.998 117.812L187.844 131.818L204.666 182.732L218.024 175.317L203.511 148.954L206.645 123.415L193.946 113.034Z" fill="#1A4B59"/>
<path d="M193.945 113.034L203.676 92.273L202.026 64.9213L208.293 60.9668L213.241 77.6085C216.374 88.1537 215.88 99.3581 212.087 109.739C209.943 115.505 207.799 120.943 206.644 123.25C204.005 128.687 199.718 126.051 196.914 121.767C194.77 118.471 193.945 113.034 193.945 113.034Z" fill="#1A4B59"/>
<path opacity="0.3" d="M213.241 77.7726L208.294 61.1309L202.027 65.0853L203.676 92.4371L201.037 97.8744L206.479 123.578C207.634 121.272 209.778 115.67 211.922 110.067C216.045 99.6869 216.375 88.3178 213.241 77.7726Z" fill="url(#paint11_linear)"/>
<path d="M178.61 124.897L175.806 158.181L161.623 182.237L172.178 157.028L168.055 131.159L178.61 124.897Z" fill="#1A4B59"/>
<path d="M185.04 101.995C185.04 101.995 185.535 103.972 190.153 104.961V108.421C190.153 108.421 192.791 103.807 193.616 101.83C194.276 99.8528 194.606 94.745 189.493 94.4155C189.493 94.4155 189.988 91.2848 187.019 90.1315C184.051 88.9781 178.114 90.6258 174.155 90.6258C170.362 90.6258 164.59 91.4496 164.095 96.7222C163.601 101.995 167.888 105.29 174.98 105.62C178.773 105.785 185.04 101.995 185.04 101.995Z" fill="#343947"/>
<path d="M174.65 103.147C174.65 103.147 180.423 102.817 185.205 98.5332C185.205 98.5332 186.854 103.476 190.318 104.794C190.318 104.794 191.307 115.834 184.546 117.482C182.402 117.976 178.773 116.823 177.619 113.033C176.465 109.243 174.65 103.147 174.65 103.147Z" fill="#FF9C87"/>
<path d="M197.41 137.255L218.025 175.317" stroke="#2E849E" stroke-width="0.5039" stroke-miterlimit="10"/>
<path d="M161.787 181.743L172.177 157.028L169.538 140.057" stroke="#2E849E" stroke-width="0.5039" stroke-miterlimit="10"/>
<path d="M184.381 189.486L185.7 200.526" stroke="#2E849E" stroke-width="0.5039" stroke-miterlimit="10"/>
<path opacity="0.3" d="M151.231 292.797V292.962C150.737 307.297 145.789 315.865 145.789 315.865H160.632C170.032 274.178 170.032 252.429 170.032 252.429L151.231 292.797Z" fill="url(#paint12_linear)"/>
<path opacity="0.3" d="M214.562 314.712H224.952C217.86 273.685 208.13 249.793 208.13 249.793L200.379 276.98C207.47 299.059 214.562 314.712 214.562 314.712Z" fill="url(#paint13_linear)"/>
<path d="M318.295 153.236C340.519 153.236 358.536 135.236 358.536 113.032C358.536 90.828 340.519 72.8281 318.295 72.8281C296.071 72.8281 278.055 90.828 278.055 113.032C278.055 135.236 296.071 153.236 318.295 153.236Z" fill="url(#paint14_linear)"/>
<path d="M367.44 146.315L373.213 144.173C370.904 142.69 369.254 140.383 368.265 137.912L349.299 86.9981C349.959 86.1743 350.124 84.6913 349.629 83.2084C348.969 81.396 347.485 80.2426 346.166 80.7369C345.011 81.2312 344.517 83.0436 345.341 84.8561C345.836 86.339 346.99 87.3276 347.98 87.4924L366.946 138.406C368.1 140.878 368.1 143.679 367.44 146.315Z" fill="#73002A"/>
<path d="M347.981 87.3281C347.981 87.3281 349.795 103.311 357.546 112.867C357.546 112.867 352.764 110.89 351.114 114.021C349.465 117.151 351.114 119.293 349.465 121.6C347.816 123.907 340.724 123.907 340.56 127.038C337.261 122.424 338.745 118.305 340.56 115.504C342.374 112.538 341.714 111.549 340.395 107.265C338.745 100.839 340.724 89.6349 347.981 87.3281Z" fill="url(#paint15_linear)"/>
<path d="M359.195 133.298L360.68 130.003C360.68 130.003 360.35 124.73 363.153 123.412C365.792 122.094 369.42 128.52 369.091 130.332C368.761 132.31 365.957 133.793 363.648 133.463L362.329 136.429L359.195 133.298Z" fill="#FF9C87"/>
<path d="M307.905 99.1916C315.821 96.2257 321.923 102.157 322.912 107.101C323.902 112.044 325.221 113.856 327.365 114.68C329.509 115.669 330.334 117.316 330.664 121.435C330.993 125.555 335.281 125.555 335.446 129.344C335.611 133.299 332.807 139.725 320.109 139.231C307.41 138.571 301.967 130.663 301.473 127.038C300.978 123.413 304.276 121.271 302.462 117.151C300.648 112.867 298.999 102.487 307.905 99.1916Z" fill="#343947"/>
<path d="M304.607 128.85C299.989 130.003 293.227 139.724 290.589 143.679C288.115 147.469 281.518 156.037 281.848 161.803C282.178 167.57 300.319 170.536 300.319 170.536L302.463 167.076L290.754 159.002L301.803 144.338L304.607 128.85Z" fill="#277085"/>
<path d="M343.362 232.654L359.689 306.965L364.637 316.192L371.563 324.925C371.563 324.925 358.04 324.925 353.752 316.192L355.401 324.925H352.597C352.597 324.925 345.176 314.544 351.608 306.635C351.608 306.635 347.65 291.147 341.383 278.625C333.137 262.148 331.982 243.858 331.982 232.489H343.362V232.654Z" fill="#FF9C87"/>
<path d="M351.773 306.8C345.506 314.544 352.762 325.089 352.762 325.089H355.566L353.917 316.356C358.205 325.254 371.728 325.089 371.728 325.089L364.801 316.356C354.411 315.697 351.773 306.8 351.773 306.8Z" fill="#343947"/>
<path d="M290.752 232.654L274.425 306.965L269.477 316.192L262.551 324.925C262.551 324.925 276.074 324.925 280.362 316.192L278.713 324.925H281.517C281.517 324.925 288.938 314.544 282.506 306.635C282.506 306.635 286.464 291.147 292.731 278.625C300.977 262.148 302.132 243.858 302.132 232.489H290.752V232.654Z" fill="#FF9C87"/>
<path d="M282.342 306.8C288.609 314.544 281.353 325.089 281.353 325.089H278.549L280.198 316.356C275.91 325.254 262.387 325.089 262.387 325.089L269.313 316.356C279.703 315.697 282.342 306.8 282.342 306.8Z" fill="#343947"/>
<g opacity="0.3">
<path opacity="0.3" d="M343.363 232.654H332.148C332.148 237.103 332.313 242.54 332.973 248.472C337.591 248.637 342.373 248.307 346.496 247.319L343.363 232.654Z" fill="url(#paint16_linear)"/>
<path opacity="0.3" d="M287.125 248.967C290.423 249.791 295.206 250.614 300.813 250.285C301.638 243.694 301.803 237.598 301.803 232.819H290.588L287.125 248.967Z" fill="url(#paint17_linear)"/>
</g>
<path d="M300.319 171.524C300.319 171.524 294.217 184.376 292.898 195.746C291.578 207.115 288.61 234.796 286.631 238.915C286.631 238.915 295.042 242.375 305.432 240.892C315.822 239.409 324.398 239.409 330.335 239.574C336.272 239.739 342.704 239.245 347.486 237.103C347.486 237.103 343.363 221.614 340.23 207.609C337.096 193.604 330.829 178.774 324.892 171.524H300.319Z" fill="#1A4B59"/>
<path d="M325.221 179.269C325.221 179.269 330.828 191.461 334.291 202.995C337.425 213.705 340.393 233.642 343.032 238.586" stroke="#2E849E" stroke-width="0.5039" stroke-miterlimit="10"/>
<path opacity="0.3" d="M325.056 171.524H300.318C300.318 171.524 296.855 178.774 294.711 187.013C303.782 191.132 308.729 185.365 308.729 185.365C318.624 191.462 328.355 188.331 333.302 186.024C330.664 180.092 327.695 174.985 325.056 171.524Z" fill="url(#paint18_linear)"/>
<path d="M308.07 105.782C308.07 105.782 310.544 113.526 319.284 115.339L320.274 127.037C320.274 127.037 316.316 129.344 312.853 128.026L312.523 123.083C312.523 123.083 308.894 123.248 307.245 120.117C305.596 116.987 304.771 112.867 304.771 112.867C304.771 112.867 307.245 108.913 308.07 105.782Z" fill="#FF9C87"/>
<path d="M304.607 128.849C304.607 128.849 312.523 125.883 328.19 127.037L330.664 143.349L325.716 159.002C324.727 162.133 325.057 165.593 326.706 168.559L331.818 178.115C331.818 178.115 320.769 186.024 309.719 179.104C309.719 179.104 304.442 185.036 295.371 178.61L301.803 165.099L301.308 152.411C301.308 151.588 301.143 150.764 300.649 150.105L299.329 147.633C298.01 145.326 298.01 142.36 299.164 140.054L304.607 128.849Z" fill="#1A4B59"/>
<path d="M311.532 152.083C311.532 152.083 310.872 164.605 309.883 175.48" stroke="#2E849E" stroke-width="0.5039" stroke-miterlimit="10"/>
<path d="M328.189 127.036C331.817 126.871 348.144 145.82 348.144 145.82C348.144 145.82 359.194 130.496 359.524 130.826C359.854 131.155 363.482 134.78 363.482 134.78C363.482 134.78 356.225 156.695 349.959 157.354C343.692 158.013 330.663 143.513 330.663 143.513C330.663 143.513 324.561 127.201 328.189 127.036Z" fill="#277085"/>
<path d="M298.834 168.56L298.999 165.923C299.164 164.77 299.824 163.617 300.978 163.122C301.967 162.628 303.287 162.299 304.771 162.134C305.596 162.134 306.09 162.958 305.761 163.781L303.947 168.56C303.617 169.384 302.792 170.043 301.803 170.043H300.153C299.494 170.043 298.834 169.384 298.834 168.56Z" fill="#FF9C87"/>
<path d="M311.532 127.202C314.006 126.378 320.273 126.708 320.273 126.708L311.532 148.952C311.532 148.952 302.956 132.145 311.532 127.202Z" fill="white"/>
<path d="M311.533 148.952C311.533 148.952 313.512 132.64 320.109 126.708L323.407 131.486C324.232 132.475 324.067 133.958 323.078 134.782C320.274 137.253 314.667 142.855 311.533 148.952Z" fill="#277085"/>
<path d="M311.533 148.952C311.533 148.952 308.565 133.134 312.688 127.038L312.523 125.72C312.523 125.72 305.596 130.168 305.102 134.123C304.772 137.913 311.533 148.952 311.533 148.952Z" fill="#277085"/>
<path opacity="0.3" d="M311.037 122.753C311.862 122.917 312.356 122.917 312.356 122.917L312.521 125.389C313.346 125.718 316.479 126.377 319.448 119.457L319.118 115.338C319.118 115.338 315.82 122.423 311.037 122.753Z" fill="url(#paint19_linear)"/>
<path d="M287.619 157.19L290.753 159.003" stroke="#2E849E" stroke-width="0.5039" stroke-miterlimit="10"/>
<path d="M135.07 125.39L117.918 130.003" stroke="white" stroke-width="2" stroke-miterlimit="10" stroke-linecap="round" stroke-linejoin="round"/>
<path d="M133.586 113.032H115.609" stroke="white" stroke-width="2" stroke-miterlimit="10" stroke-linecap="round" stroke-linejoin="round"/>
<path d="M135.07 100.673L117.918 96.0596" stroke="white" stroke-width="2" stroke-miterlimit="10" stroke-linecap="round" stroke-linejoin="round"/>
<path d="M140.018 88.9747L124.516 80.0771" stroke="white" stroke-width="2" stroke-miterlimit="10" stroke-linecap="round" stroke-linejoin="round"/>
<path d="M147.603 79.0889L134.904 66.5664" stroke="white" stroke-width="2" stroke-miterlimit="10" stroke-linecap="round" stroke-linejoin="round"/>
<path d="M111.981 133.628C111.981 133.628 100.601 122.589 89.2219 98.5322C77.8424 122.424 66.4629 133.628 66.4629 133.628H79.1617V185.695H99.282V133.628H111.981Z" fill="url(#paint20_linear)"/>
<path d="M411.805 153.4C418.454 153.4 423.844 148.015 423.844 141.372C423.844 134.729 418.454 129.344 411.805 129.344C405.156 129.344 399.766 134.729 399.766 141.372C399.766 148.015 405.156 153.4 411.805 153.4Z" fill="white"/>
<path d="M46.3419 143.184C52.9909 143.184 58.3811 137.799 58.3811 131.156C58.3811 124.513 52.9909 119.128 46.3419 119.128C39.6929 119.128 34.3027 124.513 34.3027 131.156C34.3027 137.799 39.6929 143.184 46.3419 143.184Z" fill="white"/>
<path d="M170.198 41.0271C166.9 42.51 165.58 43.6634 164.096 47.1236C162.612 43.8282 161.457 42.51 157.994 41.0271C161.293 39.5442 162.612 38.3908 164.096 34.9307C165.58 38.3908 166.9 39.5442 170.198 41.0271Z" fill="white"/>
<path d="M65.144 107.1C67.7854 107.1 69.9267 104.96 69.9267 102.321C69.9267 99.6823 67.7854 97.543 65.144 97.543C62.5026 97.543 60.3613 99.6823 60.3613 102.321C60.3613 104.96 62.5026 107.1 65.144 107.1Z" fill="white"/>
<path d="M413.62 105.782C410.322 107.265 409.002 108.418 407.518 111.878C406.034 108.583 404.879 107.265 401.416 105.782C404.714 104.299 406.034 103.146 407.518 99.6855C409.167 103.146 410.322 104.299 413.62 105.782Z" fill="white"/>
<path d="M244.578 65.0835C237.322 65.0835 231.55 62.9415 227.591 58.4927C220.17 50.2542 221.654 37.4022 221.654 36.7431L221.819 34.9307L237.487 37.7317L236.827 41.0271L224.623 38.8851C224.458 42.5101 224.788 50.5838 229.735 56.0212C233.199 59.8109 238.476 61.6233 245.238 61.4585L245.403 64.9187C245.238 65.0835 244.908 65.0835 244.578 65.0835Z" fill="#FFA600"/>
<path d="M255.957 65.0835C263.214 65.0835 268.986 62.9415 272.944 58.4927C280.366 50.2542 278.881 37.4022 278.881 36.7431L278.716 34.9307L263.049 37.7317L263.709 41.0271L275.913 38.8851C276.078 42.5101 275.748 50.5838 270.8 56.0212C267.337 59.8109 262.059 61.6233 255.298 61.4585L255.133 64.9187C255.298 65.0835 255.628 65.0835 255.957 65.0835Z" fill="#FFA600"/>
<path d="M253.155 57.998H248.537V74.3102H253.155V57.998Z" fill="#D18100"/>
<g opacity="0.3">
<path opacity="0.3" d="M263.544 41.0272L267.996 40.2033C268.161 38.8852 268.326 37.7318 268.491 36.7432L263.049 37.7318L263.544 41.0272Z" fill="url(#paint21_linear)"/>
<path opacity="0.3" d="M264.038 60.4697C261.4 61.4583 258.431 61.7879 254.968 61.7879L254.803 65.248C255.133 65.248 255.462 65.248 255.957 65.248C257.606 65.248 259.091 65.0833 260.575 64.9185C261.894 63.6003 263.049 62.2822 264.038 60.4697Z" fill="url(#paint22_linear)"/>
<path opacity="0.3" d="M236.496 60.4697C237.486 62.2822 238.64 63.7651 239.959 64.7537C241.444 64.9185 242.928 65.0833 244.577 65.0833C244.907 65.0833 245.237 65.0833 245.732 65.0833L245.567 61.6231C242.103 61.7879 239.135 61.2936 236.496 60.4697Z" fill="url(#paint23_linear)"/>
<path opacity="0.3" d="M237.651 37.7318L232.209 36.7432C232.374 37.8966 232.539 39.0499 232.704 40.2033L237.157 41.0272L237.651 37.7318Z" fill="url(#paint24_linear)"/>
</g>
<path d="M250.68 11.3692L252.494 16.9714C252.824 17.96 253.648 18.6191 254.638 18.6191H260.41C260.74 18.6191 260.905 19.1134 260.575 19.2782L255.792 22.5735C254.968 23.2326 254.638 24.2212 254.968 25.2099L256.782 30.6472C256.947 30.9768 256.452 31.3063 256.122 31.1416L251.504 27.6814C250.68 27.0223 249.69 27.0223 248.866 27.6814L244.248 31.1416C243.918 31.3063 243.588 31.1416 243.588 30.6472L245.402 25.2099C245.732 24.2212 245.402 23.2326 244.578 22.5735L239.795 19.2782C239.465 19.1134 239.63 18.6191 239.96 18.6191H245.732C246.722 18.6191 247.546 17.96 247.876 16.9714L249.69 11.3692C250.02 11.0397 250.515 11.0397 250.68 11.3692Z" fill="#FFA600"/>
<path d="M250.185 33.9424H232.539C236.002 38.5559 233.694 49.2659 237.487 57.9987C241.445 66.7315 250.021 65.7429 250.021 65.7429C250.021 65.7429 258.761 66.7315 262.554 57.9987C266.513 49.2659 264.039 38.5559 267.502 33.9424H250.185Z" fill="url(#paint25_linear)"/>
<path d="M227.098 77.6064H274.595C271.956 73.8167 262.391 71.0156 250.846 71.0156C239.302 71.0156 229.736 73.8167 227.098 77.6064Z" fill="url(#paint26_linear)"/>
<path opacity="0.2" d="M249.856 11.3689L248.042 16.971C247.712 17.9596 246.888 18.6187 245.898 18.6187H240.126C239.796 18.6187 239.631 19.113 239.961 19.2778L244.744 22.5732C245.568 23.0675 245.898 24.2209 245.568 25.2095L243.754 30.6469C243.589 30.9764 244.084 31.306 244.414 31.1412L249.032 27.681C249.361 27.3515 249.856 27.1867 250.351 27.1867V11.2041C250.021 11.2041 249.856 11.2041 249.856 11.3689Z" fill="url(#paint27_linear)"/>
<path d="M210.109 315.864C210.109 315.864 209.944 318.665 209.779 322.125C209.614 324.597 207.965 326.739 205.656 327.563C199.554 329.705 188.669 333.494 188.175 333C187.515 332.341 200.544 319.159 200.544 319.159L201.533 315.699H210.109V315.864Z" fill="#343947"/>
<path d="M291.084 315.864C291.084 315.864 291.249 318.665 291.414 322.125C291.579 324.597 293.228 326.739 295.537 327.563C301.639 329.705 312.524 333.494 313.018 333C313.678 332.341 300.649 319.159 300.649 319.159L299.66 315.699H291.084V315.864Z" fill="#343947"/>
<path d="M231.714 82.5502L233.198 80.4082C233.198 80.4082 234.848 79.9139 234.683 78.2662C234.353 76.6185 226.272 75.4651 226.272 75.4651C226.272 75.4651 229.24 71.6754 228.746 71.5107C228.251 71.3459 221.489 75.4651 222.149 77.1128C222.479 77.7719 227.921 79.5844 227.921 79.5844L225.282 81.8911L231.714 82.5502Z" fill="#FF9C87"/>
<path d="M269.48 82.5502L267.996 80.4082C267.996 80.4082 266.347 79.9139 266.512 78.2662C266.841 76.6185 274.922 75.4651 274.922 75.4651C274.922 75.4651 271.954 71.6754 272.449 71.5107C272.943 71.3459 279.705 75.4651 279.045 77.1128C278.716 77.7719 273.273 79.5844 273.273 79.5844L275.912 81.8911L269.48 82.5502Z" fill="#FF9C87"/>
<path d="M215.881 181.576L240.124 189.485L238.805 159.826L215.881 181.576Z" fill="#343947"/>
<path d="M285.312 181.576L261.068 189.485L262.223 159.826L285.312 181.576Z" fill="#343947"/>
<path d="M268.161 180.588V174.162H250.515H232.868V180.588L199.225 318.171H211.099C211.099 318.171 227.756 281.097 226.931 261.49L250.515 204.15L274.098 261.49C273.274 281.262 289.931 318.171 289.931 318.171H301.805L268.161 180.588Z" fill="#1A4B59"/>
<path d="M250.514 200.525V179.27" stroke="#2E849E" stroke-width="0.5039" stroke-miterlimit="10"/>
<path d="M238.476 180.917C238.476 180.917 238.641 192.945 229.57 194.593" stroke="#2E849E" stroke-width="0.5039" stroke-miterlimit="10"/>
<path d="M263.049 180.917C263.049 180.917 262.884 192.945 271.955 194.593" stroke="#2E849E" stroke-width="0.5039" stroke-miterlimit="10"/>
<path opacity="0.3" d="M269.81 187.673L268.161 180.588V173.997H250.514H233.033V180.588L231.219 187.673H269.81Z" fill="url(#paint28_linear)"/>
<path d="M255.791 129.343H245.236L245.731 116.491H255.296L255.791 129.343Z" fill="#FF9C87"/>
<path opacity="0.3" d="M255.298 116.491H245.567L245.402 120.775C247.052 123.906 249.525 124.73 251.669 124.73C252.989 124.73 254.143 124.4 255.462 123.741L255.298 116.491Z" fill="url(#paint29_linear)"/>
<path d="M257.276 124.731L256.616 123.413L251.834 125.555H250.514H249.195L244.412 123.413L243.753 124.731L231.219 126.708V177.787C231.219 179.435 232.538 180.918 234.352 180.918H266.677C268.326 180.918 269.81 179.599 269.81 177.787V126.708L257.276 124.731Z" fill="white"/>
<path opacity="0.2" d="M258.596 160.157L252.494 131.981L254.143 129.345L251.834 125.72H250.515H249.195L247.216 129.345L249.195 131.981L246.062 160.157C245.732 162.463 246.392 164.605 247.876 166.583L251.834 171.855C252.329 172.679 253.483 172.679 253.978 171.855L257.441 166.583C258.761 164.605 259.09 162.299 258.596 160.157Z" fill="black"/>
<path d="M256.781 160.157L252.164 131.981L253.978 129.345L251.834 125.72H250.514H249.195L247.051 129.345L248.865 131.981L244.247 160.157C243.918 162.463 244.412 164.605 245.732 166.583L249.36 171.855C249.855 172.679 251.009 172.679 251.504 171.855L255.132 166.583C256.616 164.605 257.111 162.299 256.781 160.157Z" fill="#3358CC"/>
<path d="M243.753 124.73C243.753 124.73 240.95 162.792 226.107 188.661C226.107 188.661 219.345 185.86 215.717 181.411L228.086 168.23L227.591 139.065L233.693 122.918L243.753 124.73Z" fill="#1A4B59"/>
<path d="M233.858 122.919C233.858 122.919 235.837 135.606 227.756 139.066L208.295 112.868C204.502 107.925 205.162 100.84 209.779 96.5557L226.106 81.0674H233.198L217.86 103.476L233.858 122.919Z" fill="#1A4B59"/>
<path d="M257.441 124.73C257.441 124.73 260.245 162.792 275.088 188.661C275.088 188.661 281.85 185.86 285.478 181.411L273.109 168.23L273.604 139.065L267.502 122.918L257.441 124.73Z" fill="#1A4B59"/>
<path d="M267.337 122.919C267.337 122.919 265.358 135.606 273.439 139.066L292.9 112.868C296.693 107.925 296.033 100.84 291.415 96.5557L275.088 81.0674H267.997L283.334 103.476L267.337 122.919Z" fill="#1A4B59"/>
<path d="M264.368 99.3554C263.873 96.0601 260.74 95.8953 260.74 95.8953C260.74 95.8953 260.575 92.1056 257.112 90.6227C253.648 89.1398 250.35 91.7761 250.35 91.7761C250.35 91.7761 247.052 88.975 243.588 90.6227C240.125 92.2704 239.96 95.8953 239.96 95.8953C239.96 95.8953 236.827 96.2248 236.332 99.3554C235.837 102.486 239.135 105.452 239.135 105.452L243.918 114.514L250.515 112.867L257.112 114.514L261.894 105.452C261.565 105.452 264.863 102.651 264.368 99.3554Z" fill="#343947"/>
<path d="M257.112 100.18C257.112 100.18 253.814 100.839 250.515 100.839C247.217 100.839 243.918 100.18 243.918 100.18C243.259 102.322 241.939 103.64 241.939 103.64C242.104 118.14 246.557 120.611 250.515 120.611C254.473 120.611 258.926 118.14 259.091 103.64C259.091 103.64 257.772 102.322 257.112 100.18Z" fill="#FF9C87"/>
<path d="M243.588 124.729L233.858 127.036L237.321 145.655H232.703L236.002 160.814" stroke="#2E849E" stroke-width="0.5039" stroke-miterlimit="10"/>
<path d="M257.441 124.729L267.172 127.036L263.873 145.655H268.491L265.028 160.814" stroke="#2E849E" stroke-width="0.5039" stroke-miterlimit="10"/>
<path d="M435.553 255.227H430.935C427.967 255.227 426.647 251.767 428.626 249.625L431.925 246.33C432.255 246 432.255 245.671 431.925 245.341L426.318 239.739C425.988 239.41 425.658 239.41 425.328 239.739L422.03 243.034C420.051 245.012 416.422 243.694 416.422 240.728V236.114C416.422 235.785 416.093 235.455 415.763 235.455H407.847C407.517 235.455 407.187 235.785 407.187 236.114V240.728C407.187 243.694 403.724 245.012 401.58 243.034L398.281 239.739C397.951 239.41 397.622 239.41 397.292 239.739L391.684 245.341C391.355 245.671 391.355 246 391.684 246.33L394.983 249.625C396.962 251.602 395.642 255.227 392.674 255.227H388.056C387.726 255.227 387.396 255.557 387.396 255.886V263.795C387.396 264.125 387.726 264.454 388.056 264.454H392.674C395.642 264.454 396.962 267.915 394.983 270.057L391.684 273.352C391.355 273.682 391.355 274.011 391.684 274.341L397.292 279.943C397.622 280.272 397.951 280.272 398.281 279.943L401.58 276.647C403.559 274.67 407.187 275.988 407.187 278.954V283.568C407.187 283.897 407.517 284.227 407.847 284.227H415.763C416.093 284.227 416.422 283.897 416.422 283.568V278.789C416.422 275.824 419.886 274.505 422.03 276.483L425.328 279.778C425.658 280.108 425.988 280.108 426.318 279.778L431.925 274.176C432.255 273.846 432.255 273.517 431.925 273.187L428.626 269.892C426.647 267.915 427.967 264.29 430.935 264.29H435.553C435.883 264.29 436.213 263.96 436.213 263.631V255.722C436.213 255.557 435.883 255.227 435.553 255.227ZM411.805 267.256C407.682 267.256 404.383 263.96 404.383 259.841C404.383 255.722 407.682 252.426 411.805 252.426C415.928 252.426 419.226 255.722 419.226 259.841C419.226 263.96 415.928 267.256 411.805 267.256Z" fill="#FFE4A1"/>
<path d="M411.804 270.221C417.542 270.221 422.194 265.573 422.194 259.84C422.194 254.107 417.542 249.46 411.804 249.46C406.066 249.46 401.414 254.107 401.414 259.84C401.414 265.573 406.066 270.221 411.804 270.221Z" stroke="white" stroke-width="0.6071" stroke-miterlimit="10"/>
<path d="M411.804 273.188C419.182 273.188 425.162 267.212 425.162 259.841C425.162 252.47 419.182 246.495 411.804 246.495C404.426 246.495 398.445 252.47 398.445 259.841C398.445 267.212 404.426 273.188 411.804 273.188Z" stroke="white" stroke-width="0.6071" stroke-miterlimit="10"/>
<defs>
<linearGradient id="paint0_linear" x1="440.347" y1="145.15" x2="440.347" y2="230.539" gradientUnits="userSpaceOnUse">
<stop stop-color="#FF005D" stop-opacity="0.7"/>
<stop offset="1" stop-color="#FF005D" stop-opacity="0"/>
</linearGradient>
<linearGradient id="paint1_linear" x1="250.548" y1="24.8924" x2="250.548" y2="148.888" gradientUnits="userSpaceOnUse">
<stop stop-color="white"/>
<stop offset="1" stop-color="white" stop-opacity="0"/>
</linearGradient>
<linearGradient id="paint2_linear" x1="144.612" y1="113.03" x2="251.372" y2="113.03" gradientUnits="userSpaceOnUse">
<stop stop-color="white"/>
<stop offset="1" stop-color="white" stop-opacity="0"/>
</linearGradient>
<linearGradient id="paint3_linear" x1="139.252" y1="213.347" x2="41.1589" y2="213.347" gradientUnits="userSpaceOnUse">
<stop offset="0.188" stop-color="#FF8CB6"/>
<stop offset="0.3133" stop-color="#FF91AD"/>
<stop offset="0.5202" stop-color="#FF9F94"/>
<stop offset="0.7815" stop-color="#FFB56B"/>
<stop offset="1" stop-color="#FFCA44"/>
</linearGradient>
<linearGradient id="paint4_linear" x1="234.433" y1="333.012" x2="234.433" y2="160.796" gradientUnits="userSpaceOnUse">
<stop stop-color="#5EC778"/>
<stop offset="1" stop-color="#FFCA44"/>
</linearGradient>
<linearGradient id="paint5_linear" x1="139.577" y1="198.861" x2="144.516" y2="226.874" gradientUnits="userSpaceOnUse">
<stop stop-color="white"/>
<stop offset="0.1227" stop-color="#DADADA"/>
<stop offset="0.4483" stop-color="#7E7E7E"/>
<stop offset="0.7128" stop-color="#3A3A3A"/>
<stop offset="0.9029" stop-color="#101010"/>
<stop offset="1"/>
</linearGradient>
<linearGradient id="paint6_linear" x1="147.966" y1="136.97" x2="132.508" y2="143.158" gradientUnits="userSpaceOnUse">
<stop stop-color="white"/>
<stop offset="0.1227" stop-color="#DADADA"/>
<stop offset="0.4483" stop-color="#7E7E7E"/>
<stop offset="0.7128" stop-color="#3A3A3A"/>
<stop offset="0.9029" stop-color="#101010"/>
<stop offset="1"/>
</linearGradient>
<linearGradient id="paint7_linear" x1="152.442" y1="148.151" x2="136.985" y2="154.34" gradientUnits="userSpaceOnUse">
<stop stop-color="white"/>
<stop offset="0.1227" stop-color="#DADADA"/>
<stop offset="0.4483" stop-color="#7E7E7E"/>
<stop offset="0.7128" stop-color="#3A3A3A"/>
<stop offset="0.9029" stop-color="#101010"/>
<stop offset="1"/>
</linearGradient>
<linearGradient id="paint8_linear" x1="159.236" y1="157.363" x2="177.44" y2="157.363" gradientUnits="userSpaceOnUse">
<stop stop-color="white"/>
<stop offset="0.1227" stop-color="#DADADA"/>
<stop offset="0.4483" stop-color="#7E7E7E"/>
<stop offset="0.7128" stop-color="#3A3A3A"/>
<stop offset="0.9029" stop-color="#101010"/>
<stop offset="1"/>
</linearGradient>
<linearGradient id="paint9_linear" x1="190.476" y1="195.743" x2="186.154" y2="176.484" gradientUnits="userSpaceOnUse">
<stop stop-color="white"/>
<stop offset="0.1227" stop-color="#DADADA"/>
<stop offset="0.4483" stop-color="#7E7E7E"/>
<stop offset="0.7128" stop-color="#3A3A3A"/>
<stop offset="0.9029" stop-color="#101010"/>
<stop offset="1"/>
</linearGradient>
<linearGradient id="paint10_linear" x1="180.602" y1="117.602" x2="189.029" y2="117.602" gradientUnits="userSpaceOnUse">
<stop stop-color="white"/>
<stop offset="0.1227" stop-color="#DADADA"/>
<stop offset="0.4483" stop-color="#7E7E7E"/>
<stop offset="0.7128" stop-color="#3A3A3A"/>
<stop offset="0.9029" stop-color="#101010"/>
<stop offset="1"/>
</linearGradient>
<linearGradient id="paint11_linear" x1="208.495" y1="81.8626" x2="203.007" y2="126.764" gradientUnits="userSpaceOnUse">
<stop stop-color="white"/>
<stop offset="0.1227" stop-color="#DADADA"/>
<stop offset="0.4483" stop-color="#7E7E7E"/>
<stop offset="0.7128" stop-color="#3A3A3A"/>
<stop offset="0.9029" stop-color="#101010"/>
<stop offset="1"/>
</linearGradient>
<linearGradient id="paint12_linear" x1="167.919" y1="328.334" x2="151.612" y2="255.664" gradientUnits="userSpaceOnUse">
<stop stop-color="white"/>
<stop offset="0.1227" stop-color="#DADADA"/>
<stop offset="0.4483" stop-color="#7E7E7E"/>
<stop offset="0.7128" stop-color="#3A3A3A"/>
<stop offset="0.9029" stop-color="#101010"/>
<stop offset="1"/>
</linearGradient>
<linearGradient id="paint13_linear" x1="207.829" y1="306.643" x2="221.001" y2="269.562" gradientUnits="userSpaceOnUse">
<stop stop-color="white"/>
<stop offset="0.1227" stop-color="#DADADA"/>
<stop offset="0.4483" stop-color="#7E7E7E"/>
<stop offset="0.7128" stop-color="#3A3A3A"/>
<stop offset="0.9029" stop-color="#101010"/>
<stop offset="1"/>
</linearGradient>
<linearGradient id="paint14_linear" x1="331.384" y1="113.03" x2="261.934" y2="113.03" gradientUnits="userSpaceOnUse">
<stop stop-color="white"/>
<stop offset="1" stop-color="white" stop-opacity="0"/>
</linearGradient>
<linearGradient id="paint15_linear" x1="338.694" y1="107.209" x2="357.588" y2="107.209" gradientUnits="userSpaceOnUse">
<stop offset="0.188" stop-color="#FF8CB6"/>
<stop offset="0.3133" stop-color="#FF91AD"/>
<stop offset="0.5202" stop-color="#FF9F94"/>
<stop offset="0.7815" stop-color="#FFB56B"/>
<stop offset="1" stop-color="#FFCA44"/>
</linearGradient>
<linearGradient id="paint16_linear" x1="339.435" y1="259.071" x2="339.435" y2="233.12" gradientUnits="userSpaceOnUse">
<stop stop-color="white"/>
<stop offset="0.1227" stop-color="#DADADA"/>
<stop offset="0.4483" stop-color="#7E7E7E"/>
<stop offset="0.7128" stop-color="#3A3A3A"/>
<stop offset="0.9029" stop-color="#101010"/>
<stop offset="1"/>
</linearGradient>
<linearGradient id="paint17_linear" x1="294.516" y1="259.071" x2="294.516" y2="233.12" gradientUnits="userSpaceOnUse">
<stop stop-color="white"/>
<stop offset="0.1227" stop-color="#DADADA"/>
<stop offset="0.4483" stop-color="#7E7E7E"/>
<stop offset="0.7128" stop-color="#3A3A3A"/>
<stop offset="0.9029" stop-color="#101010"/>
<stop offset="1"/>
</linearGradient>
<linearGradient id="paint18_linear" x1="313.895" y1="201.47" x2="313.895" y2="174.934" gradientUnits="userSpaceOnUse">
<stop stop-color="white"/>
<stop offset="0.1227" stop-color="#DADADA"/>
<stop offset="0.4483" stop-color="#7E7E7E"/>
<stop offset="0.7128" stop-color="#3A3A3A"/>
<stop offset="0.9029" stop-color="#101010"/>
<stop offset="1"/>
</linearGradient>
<linearGradient id="paint19_linear" x1="313.149" y1="129.134" x2="316.716" y2="115.745" gradientUnits="userSpaceOnUse">
<stop stop-color="white"/>
<stop offset="0.1227" stop-color="#DADADA"/>
<stop offset="0.4483" stop-color="#7E7E7E"/>
<stop offset="0.7128" stop-color="#3A3A3A"/>
<stop offset="0.9029" stop-color="#101010"/>
<stop offset="1"/>
</linearGradient>
<linearGradient id="paint20_linear" x1="89.2177" y1="89.637" x2="89.2177" y2="159.04" gradientUnits="userSpaceOnUse">
<stop stop-color="#FF005D" stop-opacity="0.7"/>
<stop offset="1" stop-color="#FF005D" stop-opacity="0"/>
</linearGradient>
<linearGradient id="paint21_linear" x1="265.664" y1="19.2627" x2="265.664" y2="70.2698" gradientUnits="userSpaceOnUse">
<stop stop-color="white"/>
<stop offset="0.1227" stop-color="#DADADA"/>
<stop offset="0.4483" stop-color="#7E7E7E"/>
<stop offset="0.7128" stop-color="#3A3A3A"/>
<stop offset="0.9029" stop-color="#101010"/>
<stop offset="1"/>
</linearGradient>
<linearGradient id="paint22_linear" x1="259.445" y1="19.2623" x2="259.445" y2="70.27" gradientUnits="userSpaceOnUse">
<stop stop-color="white"/>
<stop offset="0.1227" stop-color="#DADADA"/>
<stop offset="0.4483" stop-color="#7E7E7E"/>
<stop offset="0.7128" stop-color="#3A3A3A"/>
<stop offset="0.9029" stop-color="#101010"/>
<stop offset="1"/>
</linearGradient>
<linearGradient id="paint23_linear" x1="241.035" y1="19.2622" x2="241.035" y2="70.2701" gradientUnits="userSpaceOnUse">
<stop stop-color="white"/>
<stop offset="0.1227" stop-color="#DADADA"/>
<stop offset="0.4483" stop-color="#7E7E7E"/>
<stop offset="0.7128" stop-color="#3A3A3A"/>
<stop offset="0.9029" stop-color="#101010"/>
<stop offset="1"/>
</linearGradient>
<linearGradient id="paint24_linear" x1="234.817" y1="19.2623" x2="234.817" y2="70.2707" gradientUnits="userSpaceOnUse">
<stop stop-color="white"/>
<stop offset="0.1227" stop-color="#DADADA"/>
<stop offset="0.4483" stop-color="#7E7E7E"/>
<stop offset="0.7128" stop-color="#3A3A3A"/>
<stop offset="0.9029" stop-color="#101010"/>
<stop offset="1"/>
</linearGradient>
<linearGradient id="paint25_linear" x1="232.646" y1="49.8245" x2="267.835" y2="49.8245" gradientUnits="userSpaceOnUse">
<stop offset="0.3113" stop-color="#D18100"/>
<stop offset="0.4359" stop-color="#D9900F"/>
<stop offset="0.8085" stop-color="#F0BA37"/>
<stop offset="1" stop-color="#F9CA47"/>
</linearGradient>
<linearGradient id="paint26_linear" x1="227.104" y1="74.3076" x2="274.545" y2="74.3076" gradientUnits="userSpaceOnUse">
<stop offset="0.3113" stop-color="#D18100"/>
<stop offset="0.4359" stop-color="#D9900F"/>
<stop offset="0.8085" stop-color="#F0BA37"/>
<stop offset="1" stop-color="#F9CA47"/>
</linearGradient>
<linearGradient id="paint27_linear" x1="248.235" y1="21.1352" x2="251.778" y2="21.1352" gradientUnits="userSpaceOnUse">
<stop stop-color="white"/>
<stop offset="0.1227" stop-color="#DADADA"/>
<stop offset="0.4483" stop-color="#7E7E7E"/>
<stop offset="0.7128" stop-color="#3A3A3A"/>
<stop offset="0.9029" stop-color="#101010"/>
<stop offset="1"/>
</linearGradient>
<linearGradient id="paint28_linear" x1="250.55" y1="198.999" x2="250.55" y2="176.739" gradientUnits="userSpaceOnUse">
<stop stop-color="white"/>
<stop offset="0.1227" stop-color="#DADADA"/>
<stop offset="0.4483" stop-color="#7E7E7E"/>
<stop offset="0.7128" stop-color="#3A3A3A"/>
<stop offset="0.9029" stop-color="#101010"/>
<stop offset="1"/>
</linearGradient>
<linearGradient id="paint29_linear" x1="250.55" y1="128.285" x2="250.55" y2="119.881" gradientUnits="userSpaceOnUse">
<stop stop-color="white"/>
<stop offset="0.1227" stop-color="#DADADA"/>
<stop offset="0.4483" stop-color="#7E7E7E"/>
<stop offset="0.7128" stop-color="#3A3A3A"/>
<stop offset="0.9029" stop-color="#101010"/>
<stop offset="1"/>
</linearGradient>
</defs>
</svg>
