<svg width="732" height="434" viewBox="0 0 732 434" fill="none" xmlns="http://www.w3.org/2000/svg">
<g clip-path="url(#clip0)">
<path opacity="0.51" d="M426.755 344.186H426.548V279.12H369.806V344.186H368.563C366.907 344.186 365.457 345.429 365.457 346.88V348.538H429.861V346.88C429.861 345.429 428.618 344.186 426.755 344.186Z" fill="#6D5C50"/>
<path d="M418.886 279.535H370.221V344.601H418.886V279.535Z" fill="#6E6E7F"/>
<path d="M380.368 289.689H418.886V279.535H370.221V344.808H380.368V289.689Z" fill="#565672"/>
<path d="M419.714 342.736V278.913H369.392V342.529C367.321 342.736 365.664 344.601 365.664 346.88H422.82C422.82 344.808 421.577 343.15 419.714 342.736ZM393.414 312.482V327.816H382.231V312.482H393.414ZM382.231 311.239V296.32H393.414V311.239H382.231ZM407.496 311.239H394.656V296.32H407.496V311.239ZM407.496 312.482V327.816H394.656V312.482H407.496ZM407.496 329.267V342.322H394.656V329.267H407.496ZM408.945 342.322V329.267H418.057V342.322H408.945ZM418.057 327.816H408.945V312.482H418.057V327.816ZM418.057 311.239H408.945V296.32H418.057V311.239ZM407.496 294.869H394.656V280.571H407.496V294.869ZM393.414 294.869H382.231V280.571H393.414V294.869ZM393.414 329.267V342.322H382.231V329.267H393.414ZM371.048 312.482H380.781V327.816H371.048V312.482ZM380.781 311.239H371.048V296.32H380.781V311.239ZM371.048 329.267H380.781V342.322H371.048V329.267ZM418.057 294.869H408.945V280.571H418.057V294.869ZM380.781 280.571V294.869H371.048V280.571H380.781Z" fill="#E5E5DA"/>
<path opacity="0.18" d="M392.585 296.734H382.645V310.41H392.585V296.734Z" fill="#BDDBDB"/>
<path opacity="0.18" d="M406.46 312.897H395.484V326.78H406.46V312.897Z" fill="#BDDBDB"/>
<path opacity="0.18" d="M406.874 281.4H395.484V294.247H406.874V281.4Z" fill="#BDDBDB"/>
<path opacity="0.18" d="M406.874 296.734H395.484V309.374H406.874V296.734Z" fill="#BDDBDB"/>
<path opacity="0.18" d="M392.171 313.311H382.645V327.195H392.171V313.311Z" fill="#BDDBDB"/>
<path opacity="0.18" d="M392.172 330.51H383.061V341.285H392.172V330.51Z" fill="#BDDBDB"/>
<path d="M412.258 6.21655H375.396V148.989H412.258V6.21655Z" fill="#E53310"/>
<path d="M412.258 6.21655V148.989H397.141C399.004 126.609 405.01 52.633 402.732 34.398C401.075 21.1361 386.372 16.7846 375.396 15.5413V6.21655H412.258Z" fill="#C41F08"/>
<path d="M254.457 104.023V170.539H424.061V104.023L333.564 12.8474C333.15 13.2618 255.078 103.401 254.457 104.023Z" fill="#F26641"/>
<path d="M248.037 116.663L241.824 111.068L333.356 9.53198L431.93 106.924L426.131 112.726L333.771 21.5505L248.037 116.663Z" fill="#44140B"/>
<path d="M220.257 394.667H449.502V218.947L220.257 218.947L220.257 394.667Z" fill="#F26641"/>
<path d="M213.983 394.791L453.996 394.791V335.734H213.983V394.791Z" fill="#B27E60"/>
<path d="M205.986 219.96L461.117 219.96V207.527L205.986 207.527V219.96Z" fill="#EFCFCB"/>
<path d="M214.076 207.631H456.989L424.269 170.332H248.66L214.076 207.631Z" fill="#683310"/>
<path d="M414.536 174.269H244.932L248.659 170.332H424.269L456.988 207.631H443.735L414.536 174.269Z" fill="#893D13"/>
<path opacity="0.53" d="M378.502 176.548V207.631H379.537C378.916 193.126 378.502 176.548 378.502 176.548Z" fill="#FFFEFD"/>
<path d="M281.202 157.857H323.24V87.1963H281.202V157.857Z" fill="#541C0A"/>
<path d="M317.204 93.0403H284.898V147.331H317.204V93.0403Z" fill="#F4C225"/>
<path opacity="0.39" d="M310.577 116.87H284.07V92.2113H318.447V148.16H310.577V116.87Z" fill="#53627C"/>
<path d="M284.07 148.16H299.188H300.43H318.447V92.2113H284.07V148.16ZM285.934 94.0763H299.188V107.545H285.934V94.0763ZM299.188 128.681H285.934V108.581H299.188V128.681ZM316.583 94.0763V107.545H300.43V94.0763H316.583ZM316.583 128.681H300.43V108.581H316.583V128.681ZM300.43 146.502V129.925H316.583V146.502H300.43ZM285.934 146.502V129.925H299.188V146.502H285.934Z" fill="#E5E5DA"/>
<path d="M273.919 157.785H328.59V151.568H273.919V157.785Z" fill="#563926"/>
<path d="M276.789 88.8988H326.904V84.9617H276.789V88.8988Z" fill="#563926"/>
<path d="M280.308 85.0261H325.039V83.5756H280.308V85.0261Z" fill="#8E5536"/>
<path d="M237.453 326.659H288.811V240.457H237.453V326.659Z" fill="#541C0A"/>
<path d="M281.378 247.624H241.824V313.726H281.378V247.624Z" fill="#F4C225"/>
<path opacity="0.39" d="M273.302 276.427H240.789V246.588H282.828V314.969H273.302V276.427Z" fill="#53627C"/>
<path d="M240.789 314.969H259.22H260.876H282.828V246.588H240.789V314.969ZM243.274 248.66H259.427V265.03H243.274V248.66ZM259.427 291.139H243.274V266.48H259.427V291.139ZM280.55 248.66V265.03H260.876V248.66H280.55ZM280.55 291.139H260.876V266.48H280.55V291.139ZM260.876 312.69V292.59H280.55V312.69H260.876ZM243.274 312.69V292.59H259.427V312.69H243.274Z" fill="#E5E5DA"/>
<path d="M228.304 326.705H295.193V319.038H228.304V326.705Z" fill="#563926"/>
<path d="M232.109 242.387H293.199V237.621H232.109V242.387Z" fill="#563926"/>
<path d="M236.11 237.755H290.781V236.098H236.11V237.755Z" fill="#8E5536"/>
<path d="M314.838 326.659H366.195V240.457H314.838V326.659Z" fill="#541C0A"/>
<path d="M358.829 247.624H319.275V313.726H358.829V247.624Z" fill="#F4C225"/>
<path opacity="0.39" d="M350.753 276.427H318.24V246.588H360.279V314.969H350.753V276.427Z" fill="#53627C"/>
<path d="M318.24 314.969H336.671H338.328H360.279V246.588H318.24V314.969ZM320.725 248.66H336.878V265.03H320.725V248.66ZM336.878 291.139H320.725V266.48H336.878V291.139ZM358.001 248.66V265.03H338.328V248.66H358.001ZM358.001 291.139H338.328V266.48H358.001V291.139ZM338.328 312.69V292.59H358.001V312.69H338.328ZM320.725 312.69V292.59H336.878V312.69H320.725Z" fill="#E5E5DA"/>
<path d="M305.896 326.705H372.785V319.038H305.896V326.705Z" fill="#563926"/>
<path d="M309.702 242.387H370.793V237.621H309.702V242.387Z" fill="#563926"/>
<path d="M313.495 237.755H368.166V236.098H313.495V237.755Z" fill="#8E5536"/>
<path d="M350.653 157.857H392.691V87.1963H350.653V157.857Z" fill="#541C0A"/>
<path d="M386.579 93.0403H354.273V147.331H386.579V93.0403Z" fill="#F4C225"/>
<path opacity="0.39" d="M380.157 116.87H353.65V92.2113H388.027V148.16H380.157V116.87Z" fill="#53627C"/>
<path d="M353.65 148.16H368.768H370.01H388.027V92.2113H353.65V148.16ZM355.514 94.0763H368.768V107.545H355.514V94.0763ZM368.768 128.681H355.514V108.581H368.768V128.681ZM386.163 94.0763V107.545H370.01V94.0763H386.163ZM386.163 128.681H370.01V108.581H386.163V128.681ZM370.01 146.502V129.925H386.163V146.502H370.01ZM355.514 146.502V129.925H368.768V146.502H355.514Z" fill="#E5E5DA"/>
<path d="M343.372 157.785H398.043V151.568H343.372V157.785Z" fill="#563926"/>
<path d="M346.449 88.8988H396.564V84.9617H346.449V88.8988Z" fill="#563926"/>
<path d="M349.762 85.0261H394.492V83.5756H349.762V85.0261Z" fill="#8E5536"/>
<path d="M335.428 72.1113C344.578 72.1113 351.995 64.1328 351.995 54.2907C351.995 44.4487 344.578 36.4701 335.428 36.4701C326.279 36.4701 318.861 44.4487 318.861 54.2907C318.861 64.1328 326.279 72.1113 335.428 72.1113Z" fill="#6D5C50"/>
<path d="M335.428 72.1113C344.578 72.1113 351.995 64.1328 351.995 54.2907C351.995 44.4487 344.578 36.4701 335.428 36.4701C326.279 36.4701 318.861 44.4487 318.861 54.2907C318.861 64.1328 326.279 72.1113 335.428 72.1113Z" fill="#6D5C50"/>
<path d="M338.742 41.6505C329.63 41.6505 322.175 49.7319 322.175 59.4711C322.175 62.1649 322.796 64.6515 323.624 66.7237C320.725 63.4082 318.861 59.0567 318.861 54.2907C318.861 44.5515 326.316 36.4701 335.428 36.4701C342.055 36.4701 347.853 40.8216 350.546 46.8309C347.646 43.7227 343.298 41.6505 338.742 41.6505Z" fill="#3D2F26"/>
<path d="M335.429 35.2268C325.696 35.2268 317.619 43.7227 317.619 54.2907C317.619 64.8588 325.488 73.3547 335.429 73.3547C345.369 73.3547 353.238 64.8588 353.238 54.2907C353.238 43.7227 345.369 35.2268 335.429 35.2268ZM335.429 70.8681C326.938 70.8681 319.897 63.4083 319.897 54.2907C319.897 45.1732 326.938 37.7134 335.429 37.7134C343.919 37.7134 350.96 45.1732 350.96 54.2907C350.96 63.4083 343.919 70.8681 335.429 70.8681Z" fill="#E5E5DA"/>
<path d="M331.287 258.606L342.056 267.724V258.606H331.287Z" fill="#332D29"/>
<path d="M387.201 227.316L378.296 248.867H374.154C378.917 240.785 386.787 227.938 387.201 227.316Z" fill="#E08658"/>
<path opacity="0.51" d="M359.865 148.781L359.451 149.196L359.658 148.989L359.865 148.781Z" fill="#6D5C50"/>
<path d="M703.42 172.197L676.498 190.018L675.67 172.197H703.42Z" fill="#332D29"/>
<path d="M676.499 172.197H342.055V396.405H676.499V172.197Z" fill="#F26641"/>
<path opacity="0.51" d="M676.499 172.197H342.055L365.248 190.018H676.499V172.197Z" fill="#6D5C50"/>
<path d="M381.193 90.7609L324.865 165.98L697.207 164.944L653.097 90.7609H381.193Z" fill="#683310"/>
<path d="M387.407 96.3557H616.237L678.156 157.692H342.055L387.407 96.3557Z" fill="#893D13"/>
<path d="M703.42 164.944H322.381V171.99H703.42V164.944Z" fill="#F2BFBB"/>
<path opacity="0.39" d="M620.586 201.622H592.422V247.002H620.586V201.622Z" fill="#53627C"/>
<path d="M623.693 196.441H589.316V251.975H623.693V196.441Z" fill="#EDDDD3"/>
<path d="M619.757 202.243H593.25V246.173H619.757V202.243Z" fill="#87A1C6"/>
<path opacity="0.39" d="M598.842 221.514H620.379V201.622H592.422V247.002H598.842V221.514Z" fill="#53627C"/>
<path d="M620.379 201.622H592.215V247.002H606.918H607.953H620.379V201.622ZM618.929 213.847H608.161V203.072H618.929V213.847ZM608.161 214.884H618.929V231.254H608.161V214.884ZM607.125 203.072V213.847H594.079V203.072H607.125ZM593.872 214.884H606.918V231.254H593.872V214.884ZM593.872 245.552V232.083H606.918V245.344H593.872V245.552ZM608.161 245.552V232.083H618.929V245.344H608.161V245.552Z" fill="#E5E5DA"/>
<path d="M574.82 196.441H540.443V251.975H574.82V196.441Z" fill="#EDDDD3"/>
<path d="M570.884 202.243H544.377V246.173H570.884V202.243Z" fill="#87A1C6"/>
<path opacity="0.39" d="M549.969 221.514H571.713V201.622H543.549V247.002H549.969V221.514Z" fill="#53627C"/>
<path d="M571.713 201.622H543.549V247.002H558.252H559.287H571.713V201.622ZM570.056 213.847H559.287V203.072H570.056V213.847ZM559.287 214.884H570.056V231.254H559.287V214.884ZM558.252 203.072V213.847H545.206V203.072H558.252ZM545.206 214.884H558.252V231.254H545.206V214.884ZM545.206 245.552V232.083H558.252V245.344H545.206V245.552ZM559.287 245.552V232.083H570.056V245.344H559.287V245.552Z" fill="#E5E5DA"/>
<path d="M669.873 196.441H635.496V251.975H669.873V196.441Z" fill="#EDDDD3"/>
<path d="M665.937 202.243H639.43V246.173H665.937V202.243Z" fill="#87A1C6"/>
<path opacity="0.39" d="M645.23 221.514H666.767V201.622H638.811V247.002H645.23V221.514Z" fill="#53627C"/>
<path d="M666.767 201.622H638.811V247.002H653.514H654.549H666.974V201.622H666.767ZM665.111 213.847H654.342V203.072H665.111V213.847ZM654.342 214.884H665.111V231.254H654.342V214.884ZM653.307 203.072V213.847H640.26V203.072H653.307ZM640.26 214.884H653.307V231.254H640.26V214.884ZM640.26 245.552V232.083H653.307V245.344H640.26V245.552ZM654.342 245.552V232.083H665.111V245.344H654.342V245.552Z" fill="#E5E5DA"/>
<path opacity="0.43" d="M519.528 166.602L541.065 188.567L543.136 214.883L583.932 258.606L564.051 280.157L570.264 341.907L577.719 345.637L589.316 396.405H526.569L518.078 174.269L519.528 166.602Z" fill="#3A1407"/>
<path d="M551.005 257.777H342.055V396.405H551.005V257.777Z" fill="#F99F62"/>
<path d="M731.998 291.139H551.004V269.381H686.231L731.998 291.139Z" fill="#893D13"/>
<path d="M731.998 291.139H551.004V296.32H731.998V291.139Z" fill="#EFCFCB"/>
<path d="M730.135 376.72H555.561V396.198H730.135V376.72Z" fill="#C69473"/>
<path opacity="0.43" d="M589.109 396.405H555.561V376.72H581.861L589.109 396.405Z" fill="#3A1407"/>
<path d="M551.004 267.724L564.05 258.606H551.004V267.724Z" fill="#332D29"/>
<path d="M563.843 248.867H331.285V258.606H563.843V248.867Z" fill="#EFCFCB"/>
<path opacity="0.53" d="M365.041 217.163L335.221 248.867H556.803L525.119 219.235L365.041 217.163Z" fill="#E08658"/>
<path d="M556.803 248.867H335.221L365.041 217.163H525.119L556.803 248.867Z" fill="#683310"/>
<path d="M373.946 222.136H530.089L525.119 217.163H365.041L335.221 248.867H347.232L373.946 222.136Z" fill="#893D13"/>
<path d="M519.735 166.809V217.163H365.041V166.809L447.669 95.1124L475.004 122.258L519.735 166.809Z" fill="#F99F62"/>
<path opacity="0.51" d="M475.004 122.258L446.426 136.141L420.954 164.944L412.464 184.837L365.248 190.018V166.809L447.668 95.1124L475.004 122.258Z" fill="#6D5C50"/>
<path d="M446.012 141.943C437.728 141.943 430.895 135.727 430.895 127.853C430.895 120.186 437.728 113.762 446.012 113.762C454.295 113.762 461.129 119.978 461.129 127.853C461.129 135.727 454.295 141.943 446.012 141.943Z" fill="#6D5C50"/>
<path d="M446.012 141.943C437.728 141.943 430.895 135.727 430.895 127.853C430.895 120.186 437.728 113.762 446.012 113.762C454.295 113.762 461.129 119.978 461.129 127.853C461.129 135.727 454.295 141.943 446.012 141.943Z" fill="#6D5C50"/>
<path d="M442.905 117.906C451.189 117.906 458.023 124.123 458.023 131.997C458.023 134.069 457.608 135.934 456.573 137.799C459.265 135.312 460.922 131.79 460.922 128.06C460.922 120.393 454.088 113.969 445.804 113.969C439.592 113.969 434.415 117.284 431.93 122.258C434.829 119.564 438.764 117.906 442.905 117.906Z" fill="#3D2F26"/>
<path d="M446.012 112.933C437.107 112.933 429.859 119.564 429.859 127.853C429.859 136.141 437.107 142.772 446.012 142.772C454.917 142.772 462.165 136.141 462.165 127.853C462.165 119.564 454.917 112.933 446.012 112.933ZM446.012 140.907C438.143 140.907 431.93 135.105 431.93 127.853C431.93 120.6 438.35 114.798 446.012 114.798C453.881 114.798 460.094 120.6 460.094 127.853C460.094 135.105 453.674 140.907 446.012 140.907Z" fill="#E5E5DA"/>
<path d="M423.025 159.142H388.648V214.676H423.025V159.142Z" fill="#EDDDD3"/>
<path d="M419.089 164.944H392.582V208.874H419.089V164.944Z" fill="#87A1C6"/>
<path opacity="0.39" d="M398.174 184.008H419.918V164.115H391.754V209.496H398.174V184.008Z" fill="#53627C"/>
<path d="M419.918 164.115H391.754V209.496H406.457H407.493H419.918V164.115ZM418.261 176.341H407.493V165.566H418.261V176.341ZM407.493 177.377H418.261V193.747H407.493V177.377ZM406.457 165.566V176.341H393.411V165.566H406.457ZM393.411 177.377H406.457V193.747H393.411V177.377ZM393.411 208.045V194.784H406.457V208.045H393.411ZM407.493 208.045V194.784H418.261V208.045H407.493Z" fill="#E5E5DA"/>
<path d="M496.54 159.142H462.164V214.676H496.54V159.142Z" fill="#EDDDD3"/>
<path d="M492.605 164.944H466.098V208.874H492.605V164.944Z" fill="#87A1C6"/>
<path opacity="0.39" d="M471.689 184.008H493.433V164.115H465.27V209.496H471.689V184.008Z" fill="#53627C"/>
<path d="M493.433 164.115H465.27V209.496H479.973H481.008H493.433V164.115ZM491.777 176.341H481.008V165.566H491.777V176.341ZM481.008 177.377H491.777V193.747H481.008V177.377ZM479.973 165.566V176.341H466.926V165.566H479.973ZM466.926 177.377H479.973V193.747H466.926V177.377ZM466.926 208.045V194.784H479.973V208.045H466.926ZM481.008 208.045V194.784H491.777V208.045H481.008Z" fill="#E5E5DA"/>
<path d="M556.803 349.781H337.912V396.405H556.803V349.781Z" fill="#E0A380"/>
<path opacity="0.51" d="M645.85 366.152H645.643V301.086H588.902V366.152H587.659C586.002 366.152 584.553 367.395 584.553 368.845V370.503H648.957V368.845C648.957 367.395 647.507 366.152 645.85 366.152Z" fill="#6D5C50"/>
<path d="M637.982 301.5H589.316V366.566H637.982V301.5Z" fill="#6E6E7F"/>
<path d="M599.464 311.654H637.982V301.5H589.316V366.566H599.464V311.654Z" fill="#565672"/>
<path d="M638.809 364.494V300.671H588.28V364.287C586.209 364.494 584.553 366.359 584.553 368.638H641.709C641.916 366.566 640.466 365.116 638.809 364.494ZM612.509 334.24V349.574H601.327V334.24H612.509ZM601.12 332.997V318.077H612.302V332.997H601.12ZM626.591 332.997H613.752V318.077H626.591V332.997ZM626.591 334.24V349.574H613.752V334.24H626.591ZM626.591 351.025V364.079H613.752V351.025H626.591ZM628.041 364.287V351.232H637.153V364.287H628.041ZM637.153 349.782H628.041V334.448H637.153V349.782ZM637.153 332.997H628.041V318.077H637.153V332.997ZM626.591 316.627H613.752V302.329H626.591V316.627ZM612.509 316.627H601.327V302.329H612.509V316.627ZM612.509 351.025V364.079H601.327V351.025H612.509ZM590.144 334.24H599.877V349.574H590.144V334.24ZM599.877 332.997H590.144V318.077H599.877V332.997ZM590.144 351.025H599.877V364.079H590.144V351.025ZM637.153 316.627H628.041V302.329H637.153V316.627ZM599.877 302.329V316.627H590.144V302.329H599.877Z" fill="#BAB99D"/>
<path opacity="0.18" d="M611.68 318.492H601.74V332.168H611.68V318.492Z" fill="#BDDBDB"/>
<path opacity="0.18" d="M625.556 334.655H614.58V348.538H625.556V334.655Z" fill="#BDDBDB"/>
<path opacity="0.18" d="M625.97 303.158H614.58V316.005H625.97V303.158Z" fill="#BDDBDB"/>
<path opacity="0.18" d="M625.97 318.492H614.58V331.132H625.97V318.492Z" fill="#BDDBDB"/>
<path opacity="0.18" d="M611.266 335.069H601.74V348.953H611.266V335.069Z" fill="#BDDBDB"/>
<path opacity="0.18" d="M611.266 352.268H602.154V363.043H611.266V352.268Z" fill="#BDDBDB"/>
<path opacity="0.51" d="M426.753 344.186H426.546V279.12H369.804V344.186H368.561C366.905 344.186 365.455 345.429 365.455 346.88V348.538H429.859V346.88C429.859 345.429 428.616 344.186 426.753 344.186Z" fill="#6D5C50"/>
<path d="M418.884 279.535H370.219V344.601H418.884V279.535Z" fill="#6E6E7F"/>
<path d="M380.366 289.689H418.884V279.535H370.219V344.808H380.366V289.689Z" fill="#565672"/>
<path d="M419.712 342.736V278.913H369.39V342.529C367.319 342.736 365.662 344.601 365.662 346.88H422.818C422.818 344.808 421.575 343.15 419.712 342.736ZM393.412 312.482V327.816H382.229V312.482H393.412ZM382.229 311.239V296.32H393.412V311.239H382.229ZM407.494 311.239H394.654V296.32H407.494V311.239ZM407.494 312.482V327.816H394.654V312.482H407.494ZM407.494 329.267V342.322H394.654V329.267H407.494ZM408.943 342.322V329.267H418.055V342.322H408.943ZM418.055 327.816H408.943V312.482H418.055V327.816ZM418.055 311.239H408.943V296.32H418.055V311.239ZM407.494 294.869H394.654V280.571H407.494V294.869ZM393.412 294.869H382.229V280.571H393.412V294.869ZM393.412 329.267V342.322H382.229V329.267H393.412ZM371.046 312.482H380.779V327.816H371.046V312.482ZM380.779 311.239H371.046V296.32H380.779V311.239ZM371.046 329.267H380.779V342.322H371.046V329.267ZM418.055 294.869H408.943V280.571H418.055V294.869ZM380.779 280.571V294.869H371.046V280.571H380.779Z" fill="#E5E5DA"/>
<path opacity="0.18" d="M392.585 296.734H382.645V310.41H392.585V296.734Z" fill="#BDDBDB"/>
<path opacity="0.18" d="M406.458 312.897H395.482V326.78H406.458V312.897Z" fill="#BDDBDB"/>
<path opacity="0.18" d="M406.872 281.4H395.482V294.247H406.872V281.4Z" fill="#BDDBDB"/>
<path opacity="0.18" d="M406.872 296.734H395.482V309.374H406.872V296.734Z" fill="#BDDBDB"/>
<path opacity="0.18" d="M392.171 313.311H382.645V327.195H392.171V313.311Z" fill="#BDDBDB"/>
<path opacity="0.18" d="M392.17 330.51H383.059V341.285H392.17V330.51Z" fill="#BDDBDB"/>
<path d="M514.766 262.336H462.994V366.359H514.766V262.336Z" fill="#E5E5DA"/>
<path d="M480.388 265.651H467.963V278.292H480.388V265.651Z" fill="#6C607F"/>
<path d="M495.091 265.651H482.666V278.292H495.091V265.651Z" fill="#6C607F"/>
<path d="M510.417 265.651H497.992V278.292H510.417V265.651Z" fill="#6C607F"/>
<path d="M510.21 284.715H470.449V367.395H510.21V284.715Z" fill="#3F2A21"/>
<path d="M489.086 288.031H474.176V315.798H489.086V288.031Z" fill="#54362B"/>
<path d="M507.518 288.031H492.607V315.798H507.518V288.031Z" fill="#54362B"/>
<path d="M507.517 318.492H474.176V322.636H507.517V318.492Z" fill="#54362B"/>
<path d="M488.672 324.294H473.762V363.458H488.672V324.294Z" fill="#54362B"/>
<path d="M507.104 324.294H492.193V363.458H507.104V324.294Z" fill="#54362B"/>
<path d="M527.605 363.25H455.125V371.125H527.605V363.25Z" fill="#938783"/>
<path d="M534.439 371.332H448.084V379.206H534.439V371.332Z" fill="#938783"/>
<path d="M541.687 378.999H440.629V386.873H541.687V378.999Z" fill="#938783"/>
<path d="M550.176 386.459H430.688V394.333H550.176V386.459Z" fill="#938783"/>
<path d="M553.904 394.126H423.439V402H553.904V394.126Z" fill="#938783"/>
<path d="M721.646 354.962H556.805V357.656H721.646V354.962Z" fill="#E5E5DA"/>
<path d="M717.504 296.32H709.842V376.72H717.504V296.32Z" fill="#E5E5DA"/>
<path d="M591.593 296.32H585.381V376.72H591.593V296.32Z" fill="#E5E5DA"/>
<path d="M573.163 356.412H568.4V376.72H573.163V356.412Z" fill="#E5E5DA"/>
<path d="M591.595 356.412H586.832V376.72H591.595V356.412Z" fill="#E5E5DA"/>
<path d="M608.783 356.412H604.02V376.72H608.783V356.412Z" fill="#E5E5DA"/>
<path d="M627.835 356.412H623.072V376.72H627.835V356.412Z" fill="#E5E5DA"/>
<path d="M645.23 356.412H640.467V376.72H645.23V356.412Z" fill="#E5E5DA"/>
<path d="M665.939 356.412H661.176V376.72H665.939V356.412Z" fill="#E5E5DA"/>
<path d="M685.199 356.412H680.436V376.72H685.199V356.412Z" fill="#E5E5DA"/>
<path d="M699.9 356.412H695.137V376.72H699.9V356.412Z" fill="#E5E5DA"/>
<path d="M527.604 177.585L447.669 96.9773L357.793 177.17L355.93 175.098L447.669 93.2474L529.468 175.512L527.604 177.585Z" fill="#EFCFCB"/>
<path d="M416.399 0H369.805V10.9825H416.399V0Z" fill="#E53310"/>
</g>
<g clip-path="url(#clip1)">
<path d="M144.709 434C64.7878 434 -0.000854492 431.718 -0.000854492 428.902C-0.000854492 426.087 64.7878 423.805 144.709 423.805C224.629 423.805 289.418 426.087 289.418 428.902C289.418 431.718 224.629 434 144.709 434Z" fill="#D1CFCB"/>
<path d="M213.336 364.163C213.336 364.163 194.188 350.181 168.608 343.263C143.028 336.345 144.782 349.089 144.782 349.089L204.931 376.106L213.336 364.163Z" fill="#C5D6E2"/>
<path d="M288.323 390.379C288.323 390.379 290.442 376.033 266.543 371.736H257.7V380.548L279.114 394.676L288.323 390.379Z" fill="#C5D6E2"/>
<path d="M267.566 371.955C270.27 374.067 272.39 377.344 268.955 381.64C267.055 383.971 265.301 384.772 263.766 384.553L260.55 382.441C258.942 380.257 258.357 377.053 259.454 375.378C260.331 373.994 260.989 372.829 261.354 371.809H266.543C266.909 371.809 267.201 371.882 267.566 371.955Z" fill="#BC4926"/>
<path d="M220.938 419.144C212.021 418.343 109.555 418.125 92.3069 418.125L92.38 413.318L220.938 415.503C220.938 416.887 220.938 418.125 220.938 419.144Z" fill="#9D9E9B"/>
<path d="M63.2189 382.441C88.5065 381.203 92.4531 410.041 92.4531 410.041L92.3069 418.052C90.6991 418.052 89.822 418.052 89.822 418.052C90.1875 412.663 90.0413 385.864 62.9996 385.573C38.6621 385.282 42.1702 414.484 42.1702 414.484C42.1702 414.484 41.4394 414.411 40.1969 414.338C37.639 402.832 41.5125 383.534 63.2189 382.441Z" fill="#9D9E9B"/>
<path d="M275.825 419.071H286.203C286.203 419.071 293 415.94 293 413.974C293 412.007 290.588 410.77 290.588 410.77C290.588 410.77 292.635 395.695 290.077 391.981C287.519 388.267 284.961 391.326 278.821 387.976C272.755 384.626 261.281 376.761 262.377 374.431C263.473 372.101 266.543 371.736 266.543 371.736C266.543 371.736 220.645 363.289 216.333 363.653C211.948 364.017 207.344 366.93 205.151 365.547C202.959 364.09 164.223 343.408 164.223 343.408H168.608C168.608 343.408 159.18 336.782 122.491 337.073C85.8025 337.364 68.9928 345.302 47.5056 357.682C47.5056 357.682 40.7087 360.376 36.3966 360.303C32.0846 360.23 19.2946 361.541 18.4176 366.639C17.5406 371.736 14.2517 387.029 14.2517 387.029C14.2517 387.029 8.2587 385.937 7.96634 388.049C7.67401 390.088 8.62411 402.832 9.06262 405.017C9.50113 407.201 11.7668 417.542 13.8132 418.197C15.9327 418.853 42.0242 418.197 42.0242 418.197C42.3166 416.668 43.6321 415.649 45.24 415.649L86.9718 416.304L91.5762 418.634C91.5762 418.634 193.165 418.562 202.593 419.29C212.021 420.091 222.692 419.872 222.692 419.872C222.692 419.872 224.592 416.959 227.808 416.304C231.17 415.576 270.928 409.167 275.825 419.071Z" fill="#2D84E2"/>
<path d="M271.001 411.789C271.221 413.537 272.463 415.212 274.729 415.212C279.772 415.284 287.299 415.649 290.588 410.697L291.977 411.789C292.488 412.372 293 413.1 293 413.974C293 415.94 286.203 419.071 286.203 419.071H275.825C270.928 409.167 231.17 415.576 227.881 416.231C224.665 416.887 222.765 419.8 222.765 419.8C222.765 419.8 212.094 420.018 202.666 419.217C193.238 418.416 91.6493 418.562 91.6493 418.562L87.0449 416.231L45.313 415.576C43.7782 415.576 42.4627 416.595 42.0973 418.125C42.0973 418.125 16.0057 418.78 13.8863 418.125C12.79 417.76 11.6937 414.92 10.8167 411.862L222.619 412.663L225.542 411.862H271.001V411.789Z" fill="#1970BF"/>
<path d="M248.491 383.388C284.157 383.388 275.825 419.071 275.825 419.071C270.928 409.167 231.17 415.576 227.881 416.231C224.665 416.887 222.765 419.8 222.765 419.8C222.765 419.8 218.599 383.388 248.491 383.388Z" fill="#0D4C7C"/>
<path d="M65.193 384.553C94.9388 384.626 91.65 418.489 91.65 418.489L87.0456 416.158L45.3137 415.503C43.7789 415.503 42.4634 416.523 42.098 418.052C42.098 418.052 35.301 384.481 65.193 384.553Z" fill="#0D4C7C"/>
<path d="M261.209 406.473C255.581 406.473 249.954 406.182 244.326 406.473C237.383 406.837 230.44 407.929 223.57 409.24C223.35 409.313 223.131 409.313 222.839 409.386C224.008 398.608 229.124 383.388 248.419 383.388C272.756 383.388 276.557 399.992 276.557 410.551C271.952 407.929 266.471 406.473 261.209 406.473Z" fill="#073551"/>
<path d="M41.4395 409.532C41.5857 399.628 45.0938 384.481 65.1923 384.553C86.1678 384.553 90.6991 401.521 91.5762 411.425C76.4475 403.342 57.4452 403.123 41.4395 409.532Z" fill="#073551"/>
<path d="M91.7231 384.553C91.7231 385.427 123.588 386.083 162.908 386.083C202.228 386.083 234.094 385.354 234.094 384.553C234.094 383.679 202.228 383.024 162.908 383.024C123.588 383.024 91.7231 383.679 91.7231 384.553Z" fill="#1970BF"/>
<path d="M197.477 368.896L71.1847 364.017C71.1847 364.017 69.6499 353.094 78.0547 349.962C85.2902 347.268 112.04 339.84 145.44 343.336C155.525 344.355 163.711 347.778 172.408 353.021L197.477 368.896Z" fill="#C5D6E2"/>
<path d="M135.428 342.68L137.693 366.639L126.731 366.202V342.535C129.508 342.462 132.431 342.535 135.428 342.68Z" fill="#0D4C7C"/>
<path d="M70.9666 351.2L71.0397 351.128C100.639 335.544 148.218 338.966 161.227 344.646C172.702 349.671 190.754 358.992 203.836 368.751C216.626 378.291 210.414 411.279 210.122 412.663L210.048 412.954L93.4039 412.08H93.0385V411.716C95.3041 385.5 69.3588 382.223 69.1395 382.223H68.9202L68.8471 382.004C64.5351 358.483 70.7474 351.492 70.9666 351.2ZM209.61 412.299C210.195 409.167 215.384 378.145 203.471 369.261C190.388 359.502 172.409 350.181 160.935 345.229C155.6 342.899 144.491 341.005 131.189 340.568C133.455 364.745 135.282 407.784 135.501 411.716L209.61 412.299ZM69.578 381.64C72.2091 382.004 95.8157 386.301 93.8424 411.498L134.916 411.789C134.77 407.638 132.87 364.673 130.604 340.568C129.143 340.495 127.681 340.495 126.146 340.495C108.167 340.495 87.1916 343.336 71.4051 351.637C70.9666 352.22 65.4121 359.502 69.578 381.64Z" fill="#073754"/>
<path d="M146.463 375.669H156.695C157.353 375.669 157.938 375.086 157.938 374.431C157.938 373.775 157.353 373.193 156.695 373.193H146.463C145.805 373.193 145.221 373.775 145.221 374.431C145.221 375.159 145.805 375.669 146.463 375.669Z" fill="#C5D6E2"/>
<path d="M77.4709 375.669H87.7029C88.3606 375.669 88.9453 375.086 88.9453 374.431C88.9453 373.775 88.3606 373.193 87.7029 373.193H77.4709C76.8131 373.193 76.2284 373.775 76.2284 374.431C76.2284 375.159 76.74 375.669 77.4709 375.669Z" fill="#C5D6E2"/>
<path d="M65.5582 430.869C53.3279 430.869 43.4133 420.99 43.4133 408.803C43.4133 396.617 53.3279 386.738 65.5582 386.738C77.7885 386.738 87.7031 396.617 87.7031 408.803C87.7031 420.99 77.7885 430.869 65.5582 430.869Z" fill="black"/>
<path d="M83.5371 408.294C83.5371 418.197 75.4977 426.208 65.5581 426.208C55.6184 426.208 47.579 418.197 47.579 408.294C47.579 398.39 55.6184 390.379 65.5581 390.379C75.4977 390.379 83.5371 398.39 83.5371 408.294Z" fill="#C3BFBE"/>
<path d="M68.9199 408.294C68.9199 410.187 67.3851 411.643 65.558 411.643C63.6578 411.643 62.1961 410.114 62.1961 408.294C62.1961 406.4 63.7308 404.944 65.558 404.944C67.3851 404.944 68.9199 406.4 68.9199 408.294Z" fill="#F0F4F7"/>
<path d="M58.1014 412.444L53.9355 416.595C50.3544 411.643 50.3544 404.871 53.9355 399.919L58.1014 404.07C60.4402 406.4 60.4402 410.187 58.1014 412.444Z" fill="black"/>
<path d="M61.3902 400.866L57.2243 396.715C62.1942 393.146 68.9911 393.146 73.9609 396.715L69.7951 400.866C67.3832 403.196 63.6559 403.196 61.3902 400.866Z" fill="black"/>
<path d="M73.0115 404.143L77.1774 399.992C80.7586 404.944 80.7586 411.643 77.1774 416.668L73.0115 412.517C70.6728 410.187 70.6728 406.4 73.0115 404.143Z" fill="black"/>
<path d="M69.7228 415.722L73.8887 419.872C68.9189 423.441 62.195 423.441 57.1521 419.872L61.3179 415.722C63.6567 413.391 67.384 413.391 69.7228 415.722Z" fill="black"/>
<path d="M250.025 430.359C237.795 430.359 227.88 420.48 227.88 408.293C227.88 396.107 237.795 386.228 250.025 386.228C262.255 386.228 272.17 396.107 272.17 408.293C272.17 420.48 262.255 430.359 250.025 430.359Z" fill="black"/>
<path d="M268.004 408.294C268.004 418.197 259.964 426.208 250.025 426.208C240.085 426.208 232.046 418.197 232.046 408.294C232.046 398.39 240.085 390.379 250.025 390.379C259.964 390.379 268.004 398.39 268.004 408.294Z" fill="#C3BFBE"/>
<path d="M253.461 408.294C253.461 410.187 251.926 411.643 250.099 411.643C248.199 411.643 246.737 410.114 246.737 408.294C246.737 406.4 248.272 404.944 250.099 404.944C251.926 404.944 253.461 406.4 253.461 408.294Z" fill="#F0F4F7"/>
<path d="M242.645 412.444L238.479 416.595C234.897 411.643 234.897 404.871 238.479 399.919L242.645 404.07C244.91 406.4 244.91 410.187 242.645 412.444Z" fill="black"/>
<path d="M245.859 400.866L241.693 396.715C246.663 393.146 253.46 393.146 258.43 396.715L254.264 400.866C251.925 403.196 248.198 403.196 245.859 400.866Z" fill="black"/>
<path d="M257.48 404.143L261.646 399.992C265.227 404.944 265.227 411.643 261.646 416.668L257.48 412.517C255.215 410.187 255.215 406.4 257.48 404.143Z" fill="black"/>
<path d="M254.264 415.722L258.43 419.872C253.46 423.441 246.663 423.441 241.693 419.872L245.859 415.722C248.198 413.391 251.925 413.391 254.264 415.722Z" fill="black"/>
<path d="M50.5015 358.847C48.7474 358.92 45.7509 359.065 42.7544 359.211C45.3855 358.483 47.578 357.609 47.578 357.609C55.9829 352.803 63.7299 348.652 72.1348 345.302C71.8424 345.52 54.7404 358.774 50.5015 358.847Z" fill="#C5D6E2"/>
<path d="M19.3686 364.745C19.3686 364.745 27.3349 368.314 31.2084 370.353C35.082 372.319 32.2316 380.33 30.5507 381.932C29.3082 383.17 20.4649 382.15 16.3721 381.568C15.1296 381.422 14.1795 380.33 14.1795 379.092V370.207C14.1795 369.479 14.4719 368.751 15.0565 368.314L19.3686 364.745Z" fill="#AE222F"/>
<path d="M24.1923 366.93C26.6041 368.023 29.3813 369.333 31.2084 370.28C35.082 372.246 32.2316 380.257 30.5507 381.859C29.8929 382.514 27.1888 382.514 24.1192 382.296V366.93H24.1923Z" fill="#BC4926"/>
<path d="M209.755 365.328C218.16 368.095 237.966 373.703 262.523 375.523C262.596 375.742 262.743 375.96 262.889 376.179C237.089 374.358 216.552 368.241 208.659 365.619C209.025 365.474 209.39 365.401 209.755 365.328Z" fill="#0D4C7C"/>
<path d="M13.9255 418.485C12.8506 418.409 11.7757 417.797 10.9157 417.155C10.8441 416.191 10.9157 415.198 11.2024 414.754C11.3457 414.448 11.4174 413.149 11.3457 411.895C12.8506 411.895 14.4271 411.956 14.4271 411.956C14.4271 411.956 17.5802 408.745 18.5118 407.674C18.7984 407.353 20.0883 407.093 21.9515 406.91C23.8147 409.127 23.3847 415.993 22.8831 418.562C18.2968 418.546 14.6421 418.531 13.9255 418.485Z" fill="#DDDDDD"/>
</g>
<defs>
<clipPath id="clip0">
<rect width="526" height="402" fill="white" transform="translate(206)"/>
</clipPath>
<clipPath id="clip1">
<rect width="293" height="97" fill="white" transform="matrix(-1 0 0 1 293 337)"/>
</clipPath>
</defs>
</svg>
