<svg width="370" height="407" viewBox="0 0 370 407" fill="none" xmlns="http://www.w3.org/2000/svg">
<g clip-path="url(#clip0)" filter="url(#filter0_d)">
<path d="M117.621 172.177C129.131 169.299 140.161 166.421 151.671 163.542L185.241 154.428L218.811 145.314C229.841 141.956 241.351 139.077 252.381 135.72C274.921 129.483 296.981 122.768 319.521 116.052C311.369 117.97 302.736 119.889 294.583 122.288C295.063 115.572 295.063 109.336 295.543 102.62L184.761 70L74.4592 102.14C75.4183 128.524 76.857 154.908 80.6936 179.852C70.6226 182.731 60.5515 185.609 50.4805 188.967C72.5409 183.69 95.0808 177.934 117.621 172.177ZM82.6119 110.295V108.376L184.761 78.6347H185.241L287.39 108.376V110.295C287.39 115.092 286.91 119.41 286.91 124.207C285.472 124.686 284.033 125.166 282.115 125.166C282.594 120.849 282.594 116.052 282.594 111.734L184.761 83.4317L87.4076 111.734C88.3668 132.362 89.8055 154.428 92.683 176.015C91.2442 176.494 89.8055 176.974 88.3668 177.454C85.0098 154.908 83.5711 131.882 82.6119 110.295Z" fill="url(#paint0_linear)"/>
<path d="M251.901 213.433C240.391 216.311 229.361 219.19 217.851 222.068L184.281 231.182L150.71 240.297C139.68 243.655 128.171 246.533 117.14 249.891C94.6004 256.127 72.54 262.843 50 269.559C67.2647 265.721 84.0497 261.404 101.314 257.086C117.14 291.145 143.037 317.049 184.76 330.002C245.666 311.293 272.043 264.762 284.512 207.197C296.021 203.839 308.011 200.481 319.52 196.644C296.98 201.92 274.44 207.677 251.901 213.433ZM266.767 240.776C259.094 261.404 249.023 277.714 236.075 291.145C222.647 305.057 205.861 315.131 185.719 321.847H185.24H184.76C164.618 315.131 148.313 305.057 134.405 291.145C124.813 281.072 116.661 269.559 109.947 255.168C111.385 254.688 112.824 254.208 114.263 254.208C120.497 267.64 128.65 278.673 137.762 287.787C150.71 300.74 166.536 310.334 185.24 317.049C204.423 310.813 219.769 301.219 232.718 287.787C245.186 274.835 255.258 259.005 262.451 239.337C265.808 230.703 268.686 221.109 270.604 211.514C272.522 211.035 273.961 210.555 275.879 210.075C273.481 220.629 270.124 231.182 266.767 240.776Z" fill="url(#paint1_linear)"/>
<path d="M194.35 130.441C193.391 129.482 191.953 129.002 190.514 129.482L186.198 130.921C184.759 131.4 183.8 132.36 183.32 133.799V134.279C182.361 133.319 180.922 132.36 179.004 132.84L174.208 134.279C174.208 134.279 173.729 134.279 173.729 134.758H173.249L160.301 138.116C159.821 138.116 159.342 138.596 158.862 139.076C158.382 139.076 157.423 139.076 156.944 139.076L152.628 140.035C151.668 140.035 151.189 140.995 150.23 141.474C149.271 140.995 148.311 140.995 147.352 141.474L141.597 142.913C140.159 143.393 139.199 144.352 138.72 145.792C137.281 145.312 136.322 144.832 134.883 144.832C133.924 144.832 132.485 144.832 131.526 145.312C128.649 146.271 126.731 147.231 124.812 149.15C123.853 148.19 122.414 148.19 121.455 148.67L114.741 150.589C113.302 151.068 112.343 152.028 111.864 153.467L111.384 152.987C109.466 151.548 108.027 151.548 107.068 151.548L100.354 153.467C98.4357 153.947 97.4766 155.386 97.4766 157.305V187.526C97.4766 188.965 97.9561 189.924 98.9153 190.884C99.8744 191.364 100.354 191.843 101.313 191.843C101.793 191.843 101.793 191.843 102.272 191.843L106.588 190.884C107.068 190.884 107.548 190.404 108.027 189.924C108.507 189.924 109.466 189.924 109.945 189.924L114.262 188.965C114.741 188.965 115.221 188.485 115.7 188.006C116.18 188.006 116.66 188.006 117.619 188.006L121.935 187.046C123.374 186.567 124.333 185.607 124.812 184.168C126.251 184.648 127.21 185.127 128.649 185.127C129.608 185.127 131.047 185.127 132.006 184.648C134.883 183.688 136.802 182.729 138.72 180.81C139.679 181.29 140.159 181.769 141.118 181.769C141.597 181.769 141.597 181.769 142.077 181.769L146.393 180.81C147.352 180.33 148.311 179.851 148.791 178.891C149.75 179.371 150.709 179.851 152.148 179.371L156.944 177.932C157.423 177.932 157.903 177.452 158.382 176.972C158.862 176.972 158.862 176.972 159.342 176.972C159.821 176.972 159.821 176.972 160.301 176.972L173.249 173.614C174.688 173.135 176.127 171.696 176.127 170.257C176.127 170.736 176.606 170.736 177.086 171.216C178.045 171.696 178.525 172.175 179.484 172.175C179.963 172.175 179.963 172.175 180.443 172.175L185.239 170.736C187.157 170.257 188.116 168.817 188.116 166.899V157.305L193.871 136.198C195.789 132.84 195.31 131.4 194.35 130.441Z" fill="url(#paint2_linear)"/>
<path d="M270.603 141.476L264.848 128.044L270.603 114.612C271.082 113.173 271.082 111.254 270.123 110.295C269.164 109.335 267.246 108.376 265.807 108.856L261.011 110.295C260.052 110.774 258.613 111.254 258.134 112.693C257.175 111.734 255.736 111.734 254.777 112.214L249.981 113.653C248.542 114.132 247.583 115.092 247.103 116.051C246.144 115.571 244.706 115.092 243.267 115.092C242.308 115.092 240.869 115.092 239.91 115.571C236.073 116.531 232.716 118.929 231.278 122.287C230.798 121.328 230.318 120.369 229.359 119.889C228.4 119.409 226.961 118.929 226.002 119.409L219.288 121.328C217.849 121.808 216.411 123.247 216.411 124.686V127.564C214.492 124.686 211.135 124.206 209.697 124.206C208.738 124.206 207.299 124.206 205.86 124.686L198.667 127.084C196.748 127.564 195.789 129.003 195.789 130.922V161.143C195.789 162.583 196.269 163.542 197.228 164.501C198.187 164.981 198.667 165.461 199.626 165.461C200.105 165.461 200.585 165.461 200.585 165.461L208.258 163.542C210.656 163.062 212.574 162.103 214.013 160.664C214.492 161.143 215.452 161.143 215.931 161.143C216.411 161.143 216.411 161.143 216.89 161.143L221.206 160.184C222.645 159.704 224.084 158.265 224.084 156.826C224.563 157.306 224.563 157.785 225.043 157.785C226.002 158.265 227.441 158.745 228.4 158.265L233.196 156.826C234.155 156.346 235.114 155.867 235.594 154.907C236.553 155.387 237.512 155.387 238.471 155.387C239.43 155.387 240.869 155.387 241.828 154.907C244.226 154.428 246.624 152.988 248.063 151.07C248.542 151.549 249.501 152.029 250.46 152.029C250.94 152.029 251.42 152.029 251.42 152.029L256.215 150.59C257.174 150.11 258.134 149.631 259.093 148.191C260.052 148.671 261.491 149.151 262.45 148.671L267.246 147.232C268.205 146.752 269.164 146.273 270.123 144.833C271.082 143.874 271.082 142.435 270.603 141.476Z" fill="url(#paint3_linear)"/>
<path d="M110.906 175.054L107.549 155.866L100.355 157.785V188.486L105.151 187.047V168.818L108.029 186.087L113.304 185.128L115.702 165.94V184.169L120.977 182.729V152.028L113.784 153.947L110.906 175.054Z" fill="#262626"/>
<path d="M133.445 148.674C132.486 148.674 132.006 148.674 131.047 149.154C126.251 150.593 123.854 153.951 123.854 158.748V174.578C123.854 178.416 125.772 180.814 128.649 180.814C129.608 180.814 130.088 180.814 131.047 180.334C135.843 178.895 138.241 175.537 138.241 170.74V154.91C138.241 151.072 136.322 148.674 133.445 148.674ZM132.965 155.869V172.179C132.965 174.098 132.006 175.058 130.568 175.537C130.088 175.537 130.088 175.537 129.608 175.537C129.129 175.537 128.17 175.537 128.17 173.139V156.829C128.17 154.91 129.129 153.951 130.568 153.471C131.047 153.471 131.047 153.471 131.527 153.471C132.486 153.951 132.965 153.951 132.965 155.869Z" fill="#262626"/>
<path d="M151.669 160.666L147.353 145.315L140.639 146.754V177.455L145.434 176.496V155.869L151.189 174.577L156.465 173.618V142.917L151.669 143.876V160.666Z" fill="#262626"/>
<path d="M159.344 172.656L172.772 168.819V164.022L164.619 166.42V158.265L170.854 156.346V151.549L164.619 153.468V145.313L172.772 143.394V138.597L159.344 141.955V172.656Z" fill="#262626"/>
<path d="M182.362 148.673L179.005 136.68L173.25 138.119L179.484 156.828V167.381L184.76 165.942V155.868L190.994 133.322L185.719 134.761L182.362 148.673Z" fill="#262626"/>
<path d="M210.657 142.435C212.576 140.996 213.535 138.598 213.535 135.719V134.76C213.535 130.922 212.096 129.003 209.219 129.003C208.259 129.003 207.3 129.003 206.341 129.483L198.668 131.402V162.103L206.341 160.184C211.137 158.745 213.535 155.867 213.535 151.07V148.671C214.014 144.834 213.055 142.915 210.657 142.435ZM203.943 142.435V135.24L205.862 134.76C206.341 134.76 206.341 134.76 206.821 134.76C207.3 134.76 208.259 135.24 208.259 137.158V139.077C208.259 140.996 207.3 142.435 205.382 142.915L203.943 142.435ZM207.3 146.273C208.259 146.273 208.739 146.752 208.739 149.151V151.55C208.739 153.468 208.259 154.428 206.341 154.907L203.943 155.387V146.752L205.862 146.273C206.341 146.273 206.821 146.273 207.3 146.273Z" fill="#262626"/>
<path d="M219.768 125.647L214.973 157.787L219.768 156.348L220.728 150.591L226.003 149.152L226.962 154.429L232.237 152.99L227.442 123.728L219.768 125.647ZM225.044 144.835L221.207 145.794L223.125 131.883L225.044 144.835Z" fill="#262626"/>
<path d="M242.789 119.409C241.83 119.409 241.35 119.409 240.391 119.889C235.595 121.328 233.197 124.686 233.197 129.483V145.313C233.197 147.232 233.677 148.671 234.636 150.11C235.595 151.07 236.554 151.549 238.473 151.549C239.432 151.549 239.911 151.549 240.87 151.07C245.666 149.631 248.064 146.273 248.064 141.476V137.158L243.268 138.597V142.915C243.268 144.834 242.789 145.793 240.87 146.273C240.391 146.273 240.391 146.273 239.911 146.273C239.432 146.273 238.473 146.273 238.473 144.354V128.044C238.473 126.125 239.432 125.166 240.87 124.686C241.35 124.686 241.35 124.686 241.83 124.686C242.309 124.686 243.268 124.686 243.268 127.084V130.442L248.064 129.003V125.645C248.064 120.369 245.187 119.409 242.789 119.409Z" fill="#262626"/>
<path d="M266.768 113.174L261.493 114.613L255.738 128.524V116.052L250.463 117.491V148.192L255.738 146.753V137.639L256.697 134.761L261.014 145.314L266.768 143.875L260.054 128.524L266.768 113.174Z" fill="#262626"/>
<path d="M110.906 176.495L114.263 154.429L120.977 152.51V182.732L116.661 183.691V162.104L113.304 184.65L108.988 185.61L105.631 165.462V186.569L101.314 187.529V157.307L107.549 156.348L110.906 176.495Z" fill="#FFCE44"/>
<path d="M123.854 158.744C123.854 153.947 126.251 150.589 131.047 149.15C135.843 147.711 138.241 150.11 138.241 154.907V170.737C138.241 175.534 135.843 178.892 131.047 180.331C126.251 181.77 123.854 179.372 123.854 174.574V158.744ZM128.17 173.615C128.17 175.534 129.129 176.493 130.568 176.014C132.006 175.534 132.965 174.574 132.965 172.176V155.866C132.965 153.947 132.006 152.988 130.568 153.467C129.129 153.947 128.17 154.907 128.17 157.305V173.615Z" fill="#FFCE44"/>
<path d="M145.435 154.428V176.014L141.119 177.454V147.232L146.874 145.793L151.67 162.583V144.354L155.986 143.395V173.616L151.19 175.055L145.435 154.428Z" fill="#FFCE44"/>
<path d="M164.139 153.468L170.854 151.549V156.346L164.139 158.265V166.9L172.292 164.501V168.819L159.344 172.176V141.955L172.292 138.597V142.915L164.139 145.313V153.468Z" fill="#FFCE44"/>
<path d="M179.964 156.828L174.209 138.119L179.005 136.68L182.841 149.632L186.678 134.761L190.994 133.322L184.28 155.389V165.462L179.484 166.902V156.828H179.964Z" fill="#FFCE44"/>
<path d="M213.055 134.762V135.722C213.055 138.6 212.096 140.998 210.178 142.438C212.576 142.917 213.535 144.836 213.535 147.714V150.113C213.535 154.91 211.137 157.788 206.341 159.227L198.668 161.146V130.925L205.862 129.006C211.137 128.526 213.055 129.965 213.055 134.762ZM203.943 134.762V142.917L205.862 142.438C207.78 141.958 208.739 140.998 208.739 138.6V136.681C208.739 134.762 207.78 133.803 206.341 134.283L203.943 134.762ZM203.943 146.755V155.869L206.821 155.39C208.259 154.91 209.219 153.95 209.219 151.552V149.153C209.219 146.275 208.259 145.795 206.341 146.275L203.943 146.755Z" fill="#FFCE44"/>
<path d="M231.759 152.99L226.963 154.429L226.004 149.152L220.249 150.591L219.769 156.348L215.453 157.307L220.249 125.647L226.963 123.728L231.759 152.99ZM221.208 146.274L225.524 144.835L223.126 130.444L221.208 146.274Z" fill="#FFCE44"/>
<path d="M247.584 137.638V141.476C247.584 146.273 245.187 149.631 240.391 151.07C235.595 152.509 233.197 150.111 233.197 145.314V129.483C233.197 124.686 235.595 121.328 240.391 119.889C245.187 118.45 247.584 120.849 247.584 125.646V128.524L243.268 129.483V126.126C243.268 124.207 242.309 123.247 240.87 123.727C239.432 124.207 238.473 125.166 238.473 127.565V143.875C238.473 145.793 239.432 146.753 240.87 146.273C242.309 145.793 243.268 144.834 243.268 142.915V138.598L247.584 137.638Z" fill="#FFCE44"/>
<path d="M256.697 134.281L255.259 137.159V146.753L250.463 148.192V117.971L255.259 116.532V129.484L261.493 114.613L266.289 113.174L259.575 128.524L266.289 143.395L261.493 144.834L256.697 134.281Z" fill="#FFCE44"/>
<path d="M308.49 155.388C310.408 154.908 311.367 153.469 311.367 151.55V144.834C311.367 143.395 310.888 142.436 309.928 141.476C308.969 140.517 307.531 140.517 306.571 140.997L286.429 146.273C285.47 146.273 284.991 146.753 284.511 147.713C283.552 147.233 283.072 147.233 282.113 147.713L261.971 152.989C261.491 152.989 261.012 153.469 260.532 153.949C260.053 153.949 259.573 153.949 258.614 153.949L235.594 160.185C235.115 160.185 234.635 160.665 234.156 161.144C233.676 161.144 233.197 161.144 232.717 161.144L226.003 163.063C224.085 163.543 223.126 164.982 223.126 166.901C222.166 165.462 220.248 164.502 218.809 164.982L209.697 167.38C207.779 167.86 206.82 169.299 206.82 171.218L203.943 173.617C203.943 172.657 202.983 171.698 202.024 170.738C201.065 170.259 199.626 169.779 198.667 170.259L187.637 173.137C186.198 173.617 184.76 175.056 184.76 176.495C184.76 176.495 175.168 177.934 171.811 177.934C170.372 177.934 168.454 178.414 166.536 178.893L155.506 181.772C153.587 182.251 152.628 183.69 152.628 185.609L149.751 188.008C149.751 187.048 148.792 186.089 147.832 185.13C146.873 184.65 145.435 184.17 144.475 184.65L133.445 187.528C132.007 188.008 130.568 189.447 130.568 190.886L128.17 194.244C128.17 192.805 127.69 191.845 126.731 190.886C125.772 189.927 124.333 189.927 123.374 190.406L116.181 192.325C114.262 192.805 113.303 194.244 113.303 196.163C112.824 195.683 112.824 195.203 112.344 195.203C111.385 194.244 109.946 194.244 108.987 194.724L101.793 196.642C99.8751 197.122 98.9159 198.561 98.9159 200.48V202.399C96.9976 200.48 94.5998 199.521 91.2428 199.521C89.804 199.521 88.3653 199.521 86.447 200C75.4168 201.919 70.6211 209.115 70.6211 218.709V243.174C70.6211 247.011 71.5802 250.369 73.4985 252.768C74.9373 254.687 77.3351 256.606 82.1309 256.606C83.5696 256.606 85.0083 256.606 86.9266 256.126C93.1611 254.687 97.4772 250.849 99.3955 245.572C101.314 248.451 104.671 249.89 108.507 249.89C109.946 249.89 111.385 249.89 113.303 249.41C117.619 248.451 120.497 246.052 122.895 243.654L123.374 244.133C124.333 244.613 125.292 245.093 126.252 245.093C126.731 245.093 126.731 245.093 127.211 245.093L133.925 243.174C135.364 242.694 136.802 241.255 136.802 239.816L137.761 233.58L139.68 233.1L140.159 236.938C140.159 237.897 141.118 239.336 142.078 239.816C143.037 240.296 144.475 240.775 145.435 240.296L153.108 238.377C153.587 238.377 154.067 237.897 154.546 237.417C155.026 237.417 155.026 237.417 155.506 237.417C155.985 237.417 155.985 237.417 156.465 237.417L163.658 235.499C165.577 235.019 166.536 233.58 166.536 231.661V230.702C167.495 232.62 169.413 233.58 171.332 233.1L179.005 231.181C179.484 231.181 179.484 230.702 179.964 230.702C180.443 230.702 180.443 230.702 180.923 230.702L187.637 228.783C189.076 228.303 190.515 226.864 190.515 225.425L191.474 219.189L193.392 218.709L193.872 222.547C193.872 223.506 194.831 224.945 195.79 225.425C196.749 225.904 198.188 226.384 199.147 225.904L206.82 223.986C207.3 223.986 207.779 223.506 208.259 223.026C208.259 223.026 208.738 223.026 209.218 223.026C209.697 223.026 209.697 223.026 210.177 223.026L216.891 221.107C218.809 220.628 219.769 219.189 219.769 217.27V211.993L220.728 215.831C221.207 217.75 223.605 219.189 225.523 218.709L233.197 216.79C235.115 216.31 239.431 212.473 240.39 212.952C241.349 213.432 241.829 213.912 242.788 213.912C243.268 213.912 243.268 213.912 243.747 213.912L250.941 211.993C252.859 211.513 257.175 207.676 258.134 208.155C259.094 208.635 259.573 209.115 260.532 209.115C261.012 209.115 261.012 209.115 261.491 209.115L281.634 203.838C282.593 203.838 283.072 203.358 283.552 202.399C284.031 202.399 284.511 202.879 284.991 202.879C285.47 202.879 285.47 202.879 285.95 202.879L306.092 197.602C308.01 197.122 308.969 195.683 308.969 193.764V185.13C308.969 183.69 308.49 182.731 307.531 181.772C306.571 180.812 305.133 180.812 304.174 181.292L296.5 183.211V177.934L303.694 176.015C305.612 175.535 306.571 174.096 306.571 172.178V165.462C306.571 164.023 306.092 163.063 305.133 162.104C304.174 161.144 302.735 161.144 301.776 161.624L296.98 163.063V158.266L308.49 155.388Z" fill="url(#paint4_linear)"/>
<path d="M89.8043 203.839C88.8451 203.839 87.4064 203.839 85.9677 204.319C78.7741 206.238 74.9375 211.515 74.9375 219.19V243.655C74.9375 246.533 75.4171 249.411 76.8558 250.85C78.2945 252.769 80.2128 253.249 82.6107 253.249C83.5698 253.249 85.0085 253.249 86.4473 252.769C93.1613 250.85 97.4775 245.574 97.4775 237.898V222.548L86.4473 225.426V233.101L89.8043 232.142V240.297C89.8043 243.175 88.8451 245.094 85.9677 245.574C85.4881 245.574 85.0085 245.574 84.529 245.574C83.5698 245.574 82.1311 245.094 82.1311 242.216V216.791C82.1311 213.913 83.0903 211.994 85.9677 211.515C88.3656 211.035 89.3247 211.994 89.3247 214.873V220.149L96.9979 218.231V213.433C97.4775 207.197 94.6 203.839 89.8043 203.839Z" fill="#262626"/>
<path d="M116.18 233.1C116.18 235.978 115.221 237.897 112.344 238.376C111.864 238.376 111.385 238.376 110.905 238.376C109.946 238.376 108.507 237.897 108.507 235.018V198.561L100.834 200.48V236.457C100.834 242.694 103.232 246.052 108.507 246.052C109.466 246.052 110.905 246.052 112.344 245.572C119.537 243.653 123.374 238.376 123.374 230.701V194.723L115.701 196.642V233.1H116.18Z" fill="#262626"/>
<path d="M133.925 191.846L126.252 241.255L133.446 239.337L134.884 230.222L143.517 227.824L144.955 235.979L153.108 234.06L145.435 188.488L133.925 191.846ZM142.557 222.067L135.843 223.506L139.2 200.96L142.557 222.067Z" fill="#262626"/>
<path d="M178.525 222.069V214.873C178.525 209.597 177.087 206.718 173.73 206.239C176.607 203.84 178.046 200.482 178.046 195.685V191.848C178.046 186.091 175.648 183.213 171.332 183.213C169.893 183.213 168.454 183.213 167.016 183.693L155.506 186.091V233.582L163.179 231.663V212.475L165.577 211.995C166.056 211.995 167.016 211.515 167.495 211.515C169.413 211.515 170.373 212.955 170.373 216.313V223.508C170.373 227.346 170.852 227.825 170.852 229.265V229.744L179.005 227.346V226.866C178.525 225.907 178.525 223.988 178.525 222.069ZM170.373 194.246V199.043C170.373 202.401 168.934 204.32 166.056 204.8L163.659 205.279V191.368L167.016 190.408C167.495 190.408 167.975 190.408 168.454 190.408C169.413 190.408 170.373 190.888 170.373 194.246Z" fill="#262626"/>
<path d="M188.597 177.455L180.924 226.864L188.117 224.945L189.556 215.831L198.188 213.432L199.627 221.587L207.78 219.669L200.107 174.097L188.597 177.455ZM196.75 207.196L190.515 209.115L193.872 186.569L196.75 207.196Z" fill="#262626"/>
<path d="M226.963 193.765L219.769 169.301L210.178 171.699V219.19L217.371 217.271V185.131L226.004 214.872L234.156 212.954V165.463L226.963 167.382V193.765Z" fill="#262626"/>
<path d="M236.553 171.699L244.226 169.78V210.075L252.379 208.156V167.861L260.052 165.463V158.267L236.553 164.503V171.699Z" fill="#262626"/>
<path d="M262.93 205.279L283.551 199.523V192.327L270.603 195.685V182.733L280.674 179.855V172.659L270.603 175.058V162.585L283.551 159.227V152.032L262.93 157.788V205.279Z" fill="#262626"/>
<path d="M308.01 152.51V145.314L287.389 151.071V198.562L308.01 192.805V185.61L295.541 188.968V176.016L305.612 173.137V165.942L295.541 168.82V155.868L308.01 152.51Z" fill="#262626"/>
<path d="M86.9277 225.905L97.4784 223.026V237.897C97.4784 245.572 93.6418 250.849 86.4482 252.768C79.2546 254.687 75.418 251.329 75.418 243.654V219.189C75.418 211.513 79.2546 206.237 86.4482 204.318C93.6418 202.399 97.4784 205.757 97.4784 213.432V218.229L90.2848 220.148V214.871C90.2848 211.513 88.846 210.554 86.4482 211.034C84.0503 211.513 82.6116 213.432 82.6116 216.79V242.214C82.6116 245.572 84.0503 246.532 86.4482 245.572C88.846 245.093 90.2848 243.174 90.2848 239.816V231.181L86.9277 232.141V225.905Z" fill="#FFCE44"/>
<path d="M108.989 199.041V235.499C108.989 238.856 110.427 239.816 112.825 238.856C115.223 238.377 116.662 236.458 116.662 233.1V196.642L123.855 194.724V230.701C123.855 238.377 120.019 243.653 112.825 245.572C105.632 247.491 101.795 244.133 101.795 236.458V200.48L108.989 199.041Z" fill="#FFCE44"/>
<path d="M152.629 234.537L144.956 236.455L143.997 228.3L134.885 230.699L133.446 239.813L126.732 241.252L134.406 192.323L145.436 189.444L152.629 234.537ZM135.844 223.983L143.038 222.064L139.681 199.038L135.844 223.983Z" fill="#FFCE44"/>
<path d="M171.332 229.263C170.852 228.303 170.852 227.344 170.852 223.506V216.311C170.852 211.993 169.413 210.554 166.056 211.514L163.658 211.993V231.182L156.465 233.1V186.089L167.495 183.211C175.168 181.292 178.525 183.691 178.525 190.886V194.724C178.525 199.521 177.086 203.359 173.729 205.757C177.566 206.237 178.525 209.595 178.525 214.392V221.587C178.525 223.986 178.525 225.425 179.484 226.864L171.332 229.263ZM163.179 191.366V205.757L166.056 204.798C168.934 203.838 170.372 202.399 170.372 198.562V193.765C170.372 190.407 169.413 189.447 166.536 189.927L163.179 191.366Z" fill="#FFCE44"/>
<path d="M206.821 219.668L199.148 221.587L197.709 213.432L189.077 216.311L187.638 225.425L180.924 227.344L188.597 178.414L199.627 175.536L206.821 219.668ZM190.036 209.595L197.229 207.676L193.872 184.65L190.036 209.595Z" fill="#FFCE44"/>
<path d="M216.892 183.21V217.269L210.178 218.708V171.697L219.29 169.298L226.963 195.202V166.9L233.677 164.981V211.992L226.004 213.911L216.892 183.21Z" fill="#FFCE44"/>
<path d="M237.033 164.982L260.053 158.746V165.461L252.38 167.38V207.675L245.186 209.594V169.299L237.033 171.698V164.982Z" fill="#FFCE44"/>
<path d="M270.604 175.536L280.675 172.658V179.374L270.604 182.252V196.163L283.552 192.805V199.521L263.41 204.798V157.787L283.552 152.51V159.226L270.604 162.584V175.536Z" fill="#FFCE44"/>
<path d="M295.063 168.819L305.134 165.941V172.656L295.063 175.535V189.446L308.011 186.088V192.804L287.869 198.081V151.07L308.011 145.793V152.509L295.063 155.867V168.819Z" fill="#FFCE44"/>
<path d="M160.961 257.066V283.215H154.433V269.196C154.433 267.171 154.385 265.955 154.288 265.545C154.191 265.136 153.922 264.829 153.48 264.625C153.049 264.409 152.08 264.302 150.572 264.302H149.926V261.249C153.082 260.571 155.478 259.176 157.115 257.066H160.961Z" fill="white"/>
<path d="M178.894 265.917V274.639C178.894 276.62 178.786 278.063 178.571 278.967C178.356 279.872 177.909 280.717 177.23 281.503C176.551 282.289 175.733 282.855 174.774 283.199C173.816 283.544 172.744 283.716 171.559 283.716C169.997 283.716 168.699 283.538 167.665 283.183C166.631 282.817 165.807 282.252 165.194 281.487C164.58 280.723 164.143 279.92 163.885 279.081C163.626 278.23 163.497 276.884 163.497 275.043V265.917C163.497 263.516 163.702 261.717 164.111 260.522C164.531 259.327 165.355 258.369 166.583 257.647C167.822 256.926 169.319 256.565 171.074 256.565C172.507 256.565 173.789 256.818 174.92 257.324C176.051 257.819 176.896 258.428 177.456 259.149C178.016 259.871 178.393 260.684 178.587 261.588C178.792 262.493 178.894 263.936 178.894 265.917ZM172.367 263.72C172.367 262.331 172.297 261.464 172.157 261.12C172.028 260.764 171.715 260.587 171.22 260.587C170.735 260.587 170.412 260.775 170.25 261.152C170.1 261.518 170.024 262.374 170.024 263.72V276.48C170.024 277.998 170.094 278.914 170.234 279.226C170.385 279.538 170.703 279.694 171.188 279.694C171.672 279.694 171.99 279.511 172.141 279.145C172.292 278.779 172.367 277.955 172.367 276.674V263.72Z" fill="white"/>
<path d="M196.634 265.917V274.639C196.634 276.62 196.526 278.063 196.311 278.967C196.095 279.872 195.648 280.717 194.97 281.503C194.291 282.289 193.473 282.855 192.514 283.199C191.555 283.544 190.484 283.716 189.299 283.716C187.737 283.716 186.439 283.538 185.405 283.183C184.371 282.817 183.547 282.252 182.933 281.487C182.319 280.723 181.883 279.92 181.625 279.081C181.366 278.23 181.237 276.884 181.237 275.043V265.917C181.237 263.516 181.441 261.717 181.851 260.522C182.271 259.327 183.095 258.369 184.323 257.647C185.561 256.926 187.058 256.565 188.814 256.565C190.247 256.565 191.528 256.818 192.659 257.324C193.79 257.819 194.636 258.428 195.196 259.149C195.756 259.871 196.133 260.684 196.327 261.588C196.532 262.493 196.634 263.936 196.634 265.917ZM190.107 263.72C190.107 262.331 190.037 261.464 189.897 261.12C189.767 260.764 189.455 260.587 188.96 260.587C188.475 260.587 188.152 260.775 187.99 261.152C187.839 261.518 187.764 262.374 187.764 263.72V276.48C187.764 277.998 187.834 278.914 187.974 279.226C188.125 279.538 188.443 279.694 188.927 279.694C189.412 279.694 189.73 279.511 189.88 279.145C190.031 278.779 190.107 277.955 190.107 276.674V263.72Z" fill="white"/>
<path d="M215.634 256.565L205.407 283.716H202.919L213.178 256.565H215.634ZM208.024 261.524V266.014C208.024 267.187 207.911 268.07 207.685 268.663C207.469 269.244 206.995 269.756 206.263 270.197C205.541 270.628 204.583 270.843 203.387 270.843C202.009 270.843 200.958 270.639 200.237 270.229C199.515 269.809 199.025 269.309 198.766 268.727C198.519 268.146 198.395 267.311 198.395 266.224V261.524C198.395 260.231 198.524 259.278 198.783 258.665C199.052 258.04 199.564 257.534 200.317 257.146C201.071 256.759 202.003 256.565 203.113 256.565C204.34 256.565 205.337 256.78 206.101 257.211C206.866 257.631 207.378 258.142 207.636 258.745C207.895 259.348 208.024 260.274 208.024 261.524ZM203.888 260.377C203.888 259.688 203.85 259.262 203.775 259.101C203.71 258.939 203.522 258.858 203.209 258.858C202.919 258.858 202.73 258.945 202.644 259.117C202.558 259.289 202.515 259.709 202.515 260.377V266.967C202.515 267.72 202.552 268.173 202.628 268.323C202.703 268.474 202.903 268.55 203.226 268.55C203.506 268.55 203.683 268.463 203.759 268.291C203.845 268.119 203.888 267.715 203.888 267.08V260.377ZM220.158 274.154V278.661C220.158 279.824 220.044 280.701 219.818 281.293C219.603 281.886 219.129 282.402 218.396 282.844C217.675 283.275 216.716 283.49 215.521 283.49C214.153 283.49 213.103 283.28 212.37 282.86C211.648 282.44 211.158 281.939 210.9 281.358C210.652 280.776 210.528 279.947 210.528 278.871V274.154C210.528 272.873 210.658 271.925 210.916 271.312C211.185 270.687 211.697 270.181 212.451 269.793C213.205 269.395 214.137 269.196 215.246 269.196C216.485 269.196 217.486 269.411 218.251 269.842C219.016 270.272 219.522 270.789 219.77 271.392C220.028 271.995 220.158 272.916 220.158 274.154ZM216.021 273.024C216.021 272.334 215.984 271.909 215.908 271.748C215.844 271.575 215.655 271.489 215.343 271.489C215.052 271.489 214.864 271.575 214.777 271.748C214.702 271.92 214.664 272.345 214.664 273.024V279.614C214.664 280.357 214.702 280.803 214.777 280.954C214.853 281.105 215.047 281.18 215.359 281.18C215.65 281.18 215.833 281.1 215.908 280.938C215.984 280.766 216.021 280.357 216.021 279.71V273.024Z" fill="white"/>
</g>
<ellipse cx="185.5" cy="401" rx="95.5" ry="6" fill="#C4C4C4" fill-opacity="0.35"/>
<defs>
<filter id="filter0_d" x="0" y="0" width="370" height="360" filterUnits="userSpaceOnUse" color-interpolation-filters="sRGB">
<feFlood flood-opacity="0" result="BackgroundImageFix"/>
<feColorMatrix in="SourceAlpha" type="matrix" values="0 0 0 0 0 0 0 0 0 0 0 0 0 0 0 0 0 0 127 0"/>
<feOffset dy="-20"/>
<feGaussianBlur stdDeviation="25"/>
<feColorMatrix type="matrix" values="0 0 0 0 0 0 0 0 0 0 0 0 0 0 0 0 0 0 0.05 0"/>
<feBlend mode="normal" in2="BackgroundImageFix" result="effect1_dropShadow"/>
<feBlend mode="normal" in="SourceGraphic" in2="effect1_dropShadow" result="shape"/>
</filter>
<linearGradient id="paint0_linear" x1="96.8524" y1="17.4776" x2="218.148" y2="203.413" gradientUnits="userSpaceOnUse">
<stop stop-color="#262626"/>
<stop offset="0.9939" stop-color="#A4195B"/>
</linearGradient>
<linearGradient id="paint1_linear" x1="59.93" y1="41.5689" x2="181.221" y2="227.498" gradientUnits="userSpaceOnUse">
<stop stop-color="#262626"/>
<stop offset="0.9939" stop-color="#A4195B"/>
</linearGradient>
<linearGradient id="paint2_linear" x1="97.3802" y1="160.49" x2="195.322" y2="160.49" gradientUnits="userSpaceOnUse">
<stop stop-color="#262626"/>
<stop offset="0.9939" stop-color="#A4195B"/>
</linearGradient>
<linearGradient id="paint3_linear" x1="195.652" y1="137.165" x2="271.089" y2="137.165" gradientUnits="userSpaceOnUse">
<stop stop-color="#262626"/>
<stop offset="0.9939" stop-color="#A4195B"/>
</linearGradient>
<linearGradient id="paint4_linear" x1="102.097" y1="166.412" x2="416.794" y2="276.808" gradientUnits="userSpaceOnUse">
<stop stop-color="#262626"/>
<stop offset="0.9939" stop-color="#A4195B"/>
</linearGradient>
<clipPath id="clip0">
<rect width="270" height="260" fill="white" transform="translate(50 70)"/>
</clipPath>
</defs>
</svg>
