<svg width="367" height="396" viewBox="0 0 367 396" fill="none" xmlns="http://www.w3.org/2000/svg">
<g clip-path="url(#clip0)">
<path opacity="0.2" d="M366.938 182.433C366.258 172.383 357.787 166.711 357.787 166.711L355.685 157.833C355.562 157.401 355.129 157.093 354.634 157.216L352.161 157.833L334.17 86.3149L268.51 38.5335L219.915 40.5681C219.915 40.5681 206.746 -3.51409 194.752 4.62416C178.801 -13.6869 162.973 29.9021 147.455 17.9413C150.917 26.9427 156.605 30.8885 166.374 28.1758L181.706 62.3934L157.903 94.5149L155.801 159.066L110.792 133.295L111.967 131.569C112.214 131.199 112.152 130.644 111.719 130.397L104.424 125.342C104.424 125.342 103.311 114.429 96.9428 110.606C95.459 109.743 92.3059 109.682 90.7602 111.346C81.3008 106.044 69.863 125.465 77.6531 132.863C84.9485 139.83 95.0262 138.412 95.0262 138.412L102.569 143.591C102.94 143.838 103.496 143.776 103.744 143.344L105.042 141.495L164.89 183.296L182.263 138.535L212.001 192.421L217.937 297.17L233.517 389.033H126.187C12.7974 389.033 3.70898 390.575 3.70898 392.548C3.70898 394.459 14.714 396.062 126.187 396.062H325.39C328.482 396.062 330.769 393.164 330.027 390.143L304.431 289.401L313.52 172.938L284.029 84.8353L323.536 100.064L342.825 160.052L340.6 160.546C340.167 160.669 339.858 161.101 339.981 161.594L342.022 170.225C342.022 170.225 335.53 179.042 337.694 186.132C338.188 187.796 340.476 189.954 342.764 189.708C346.164 199.881 367.741 193.16 366.938 182.433ZM323.659 389.033H238.092L239.514 293.84L263.75 226.392L281.556 297.478L323.659 389.033Z" fill="#F0A744"/>
<path d="M21.9492 200.805L23.5567 220.658L43.5266 217.143L38.024 197.723L21.9492 200.805Z" fill="#FDDBBB"/>
<path d="M24.9772 202.901L25.4718 208.944C25.4718 208.944 23.617 208.08 23.4315 209.56C23.246 211.595 25.5336 210.67 25.5336 210.67C25.5336 214.431 24.7299 217.698 23.617 220.719C23.617 220.719 15.2705 201.298 21.8859 200.62C22.1332 189.461 40.5574 200.25 42.5358 191.496C44.8852 198.462 40.9283 202.347 24.9772 202.901Z" fill="#424242"/>
<path d="M0 234.961L23.5558 220.658L43.5256 217.143L67.205 220.473L68.2561 280.462L18.486 291.374L0 234.961Z" fill="#424242"/>
<path d="M23.5547 220.658L36.8473 238.414L43.5245 217.143L23.5547 220.658Z" fill="white"/>
<path d="M34.9324 220.226L32.2738 220.719L31.5938 222.569L33.3867 224.603L32.3357 232.372L36.849 238.414L39.0129 231.385L35.2415 224.234L36.3544 221.582L34.9324 220.226Z" fill="#B35730"/>
<path d="M67.2051 220.473L84.0218 244.949L95.2741 223.37L99.5401 225.158L86.5567 256.602L67.6379 245.936L67.2051 220.473Z" fill="#424242"/>
<path d="M18.4863 291.374L30.3569 343.101L20.2175 389.958L26.4619 392.609L23.0615 388.787L40.8674 346.862L47.05 307.096L60.7136 341.067L61.4555 391.499L68.1327 393.164L63.7431 389.835L71.224 342.67L68.2564 280.461L18.4863 291.374Z" fill="#424242"/>
<path d="M36.8477 238.414L45.256 227.255L43.1539 224.295L46.0598 221.213L43.5249 217.143L36.8477 238.414Z" fill="#808080"/>
<path d="M36.8495 238.414L25.1025 230.83L26.0917 227.255L22.3203 225.343L23.5568 220.658L36.8495 238.414Z" fill="#808080"/>
<path d="M93.9766 223.001L95.5841 219.24C95.5841 219.24 93.2965 214.739 94.8422 211.718C95.2131 210.978 96.3878 210.238 97.4389 210.485C99.7883 206.107 109 210.793 107.888 215.602C106.775 220.103 102.509 222.014 102.509 222.014L100.901 225.898C100.839 226.083 100.592 226.207 100.407 226.083L94.2858 223.494C93.9766 223.432 93.9148 223.185 93.9766 223.001Z" fill="#B35730"/>
<path d="M101.334 222.261L96.2028 220.103C96.0791 220.041 95.8937 220.103 95.8937 220.226L94.8426 222.754C94.7808 222.877 94.8426 223.062 94.9663 223.062L100.098 225.22C100.221 225.282 100.407 225.22 100.407 225.097L101.458 222.569C101.52 222.446 101.458 222.322 101.334 222.261Z" fill="white"/>
<path d="M97.3773 210.485C97.3773 210.485 101.149 212.026 100.159 214.554C99.4175 216.28 96.5117 215.479 96.5117 215.479C96.5117 215.479 99.8503 216.835 100.654 215.294C102.323 211.841 97.3773 210.485 97.3773 210.485Z" fill="#E6E6E6"/>
<path d="M52.8611 230.522C51.8719 230.152 50.6354 230.892 50.2026 231.57C48.4715 234.53 50.5117 239.154 50.5117 239.154L48.7188 242.791C48.5951 242.976 48.7188 243.223 48.9043 243.346L49.7698 243.778L37.4664 264.123L8.22266 256.725L41.176 277.071L53.9122 245.812L54.8396 246.306C55.0251 246.429 55.2724 246.306 55.396 246.121L57.2508 242.36C57.2508 242.36 61.6405 240.695 63.0006 236.256C64.4226 231.509 55.4578 226.268 52.8611 230.522Z" fill="#E6E6E6"/>
<path d="M12.4268 236.318L37.8374 262.335L49.1516 240.818L53.3557 242.545L40.3723 273.988L8.22266 256.725L12.4268 236.318Z" fill="#424242"/>
<path d="M12.4277 236.318L37.8383 262.335L49.1525 240.818L50.4508 241.312L38.2092 266.59L12.4277 236.318Z" fill="#4D4D4D"/>
<path d="M47.7911 240.387L49.3986 236.626C49.3986 236.626 47.111 232.125 48.6566 229.104C49.0276 228.364 50.2023 227.625 51.2533 227.871C53.6027 223.494 62.8148 228.179 61.702 232.988C60.5891 237.489 56.3231 239.4 56.3231 239.4L54.7156 243.285C54.6538 243.469 54.4065 243.593 54.221 243.469L48.1002 240.88C47.7911 240.818 47.7292 240.572 47.7911 240.387Z" fill="#B35730"/>
<path d="M55.1488 239.647L50.0172 237.489C49.8936 237.427 49.7081 237.489 49.7081 237.612L48.6571 240.14C48.5952 240.263 48.6571 240.448 48.7807 240.448L53.9123 242.606C54.0359 242.668 54.2214 242.606 54.2214 242.483L55.2725 239.955C55.3343 239.832 55.2725 239.709 55.1488 239.647Z" fill="white"/>
<path d="M24.2367 188.844C24.2985 188.351 24.1131 187.796 23.9276 187.303C23.7421 186.625 23.4948 185.947 23.2475 185.269C23.0002 184.529 22.6911 183.789 22.3819 183.049C22.0728 182.309 21.8255 181.508 21.2691 180.953C21.1454 180.83 20.8981 180.83 20.7744 181.014C20.5271 181.693 20.589 182.556 20.7744 183.296C20.9599 184.22 21.2691 185.145 21.64 186.008C22.011 186.933 22.5674 189.091 23.8658 189.153C24.0512 189.153 24.2367 189.029 24.2367 188.844Z" fill="#F2F2F2"/>
<path d="M17.6843 191.927C17.6843 191.372 17.1897 190.879 16.8805 190.386C16.3859 189.646 15.7059 189.029 15.0876 188.413C14.4693 187.735 13.7274 187.18 12.9237 186.625C12.2436 186.132 11.5017 185.638 10.6979 185.638C10.4506 185.638 10.327 185.823 10.3888 186.008C10.6361 186.81 11.2544 187.426 11.8726 187.981C12.5527 188.598 13.2328 189.214 13.9747 189.831C14.6548 190.447 15.2731 191.064 15.9532 191.619C16.3859 191.989 16.9424 192.42 17.4988 192.235C17.6225 192.174 17.6843 192.05 17.6843 191.927Z" fill="#F2F2F2"/>
<path d="M13.541 199.079C13.6028 199.079 13.6028 199.079 13.541 199.079C13.7264 199.202 13.8501 199.079 13.8501 198.956C13.7883 197.846 11.8717 197.414 11.0061 197.168C9.83139 196.736 8.22391 196.058 7.04922 196.428C6.80191 196.489 6.61643 196.798 6.80191 197.044C7.7293 198.092 9.08948 198.586 10.3878 198.956C11.1297 199.141 13.2318 199.942 13.7883 199.079C13.7264 199.017 13.6028 198.956 13.541 198.894C13.541 198.894 13.541 198.956 13.4791 198.956C13.541 199.017 13.541 199.017 13.541 199.079Z" fill="#F2F2F2"/>
</g>
<defs>
<clipPath id="clip0">
<rect width="367" height="396" fill="white"/>
</clipPath>
</defs>
</svg>
