<svg width="15" height="18" viewBox="0 0 15 18" fill="none" xmlns="http://www.w3.org/2000/svg">
<path d="M1.14943 6.16092H1.33333V15.7011C1.33333 16.9655 2.36782 18 3.63218 18H10.6207C11.8851 18 12.9195 16.9655 12.9195 15.7011V6.16092H13.1034C13.7471 6.16092 14.2529 5.65517 14.2529 5.01149V3.12644C14.2529 2.48276 13.7471 1.97701 13.1034 1.97701H10.2529V1.26437C10.2529 0.574713 9.67816 0 8.98851 0H5.26437C4.57471 0 4 0.574713 4 1.26437V1.97701H1.14943C0.505747 1.97701 0 2.48276 0 3.12644V5.01149C0 5.63218 0.528736 6.16092 1.14943 6.16092ZM12 15.7011C12 16.4598 11.3793 17.0805 10.6207 17.0805H3.63218C2.87356 17.0805 2.25287 16.4598 2.25287 15.7011V6.16092H12V15.7011ZM4.91954 1.26437C4.91954 1.08046 5.08046 0.91954 5.26437 0.91954H8.96552C9.14943 0.91954 9.31035 1.08046 9.31035 1.26437V1.97701H4.91954V1.26437ZM0.91954 3.12644C0.91954 2.98851 1.01149 2.89655 1.14943 2.89655H13.1034C13.2414 2.89655 13.3333 2.98851 13.3333 3.12644V5.01149C13.3333 5.14943 13.2414 5.24138 13.1034 5.24138H1.14943C1.01149 5.24138 0.91954 5.14943 0.91954 5.01149V3.12644Z" fill="#828282"/>
<path d="M9.9547 8.13672H9.03516V14.8494H9.9547V8.13672Z" fill="#828282"/>
<path d="M7.58556 8.13672H6.66602V14.8494H7.58556V8.13672Z" fill="#828282"/>
<path d="M5.21837 8.13672H4.29883V14.8494H5.21837V8.13672Z" fill="#828282"/>
</svg>
