<svg width="100" height="100" viewBox="0 0 100 100" fill="none" xmlns="http://www.w3.org/2000/svg">
<path d="M50 0C22.4419 0 0 22.4419 0 50C0 77.5581 22.4419 100 50 100C77.5581 100 100 77.5581 100 50C100 22.4419 77.5581 0 50 0ZM73.2558 40.9302L45.3488 68.8372C44.4186 69.7674 43.2558 70.2326 42.093 70.2326C40.9302 70.2326 39.7674 69.7674 38.8372 68.8372L24.4186 54.6512C22.5581 52.7907 22.5581 49.8837 24.4186 48.0233C26.2791 46.1628 29.186 46.1628 31.0465 48.0233L41.9767 58.9535L66.6279 34.3023C68.4884 32.4419 71.3953 32.4419 73.2558 34.3023C75 36.1628 75 39.0698 73.2558 40.9302Z" fill="#58B58B"/>
</svg>
