<svg width="33" height="33" viewBox="0 0 33 33" fill="none" xmlns="http://www.w3.org/2000/svg">
<path d="M16.5 0C7.40581 0 0 7.40581 0 16.5C0 25.5942 7.40581 33 16.5 33C25.5942 33 33 25.5942 33 16.5C33 7.40581 25.5942 0 16.5 0ZM24.1744 13.507L14.9651 22.7163C14.6581 23.0233 14.2744 23.1767 13.8907 23.1767C13.507 23.1767 13.1233 23.0233 12.8163 22.7163L8.05814 18.0349C7.44419 17.4209 7.44419 16.4616 8.05814 15.8477C8.67209 15.2337 9.6314 15.2337 10.2453 15.8477L13.8523 19.4547L21.9872 11.3198C22.6012 10.7058 23.5605 10.7058 24.1744 11.3198C24.75 11.9337 24.75 12.893 24.1744 13.507Z" fill="#58B58B"/>
</svg>
