<svg width="76" height="75" viewBox="0 0 76 75" fill="none" xmlns="http://www.w3.org/2000/svg">
<path d="M38 75C58.9868 75 76 58.2107 76 37.5C76 16.7893 58.9868 0 38 0C17.0132 0 0 16.7893 0 37.5C0 58.2107 17.0132 75 38 75Z" fill="#007FFF"/>
<path d="M40.3602 44.751L34.3188 38.3789L22.518 44.751L35.5063 31.1572L41.6961 37.5293L53.3484 31.1572L40.3602 44.751ZM38 15.5273C24.8781 15.5273 14.25 25.2393 14.25 37.2217C14.25 44.0479 17.7086 50.1416 23.0969 54.126V62.4023L31.1867 58.0225C33.3391 58.6084 35.625 58.9307 38 58.9307C51.1219 58.9307 61.75 49.2188 61.75 37.2363C61.75 25.2539 51.1219 15.5273 38 15.5273Z" fill="white"/>
</svg>
