<svg width="28" height="28" viewBox="0 0 28 28" fill="none" xmlns="http://www.w3.org/2000/svg">
<circle cx="13.8394" cy="13.8394" r="13.8394" fill="#4F76BB"/>
<path fill-rule="evenodd" clip-rule="evenodd" d="M16.6175 9.44546C17.0824 9.42924 17.5473 9.44005 18.0122 9.44005C18.0663 9.44005 18.1257 9.44005 18.2014 9.44005V7.02356C17.9527 6.99653 17.6933 6.96409 17.4338 6.95328C16.958 6.93166 16.4823 6.91003 16.0012 6.92084C15.2714 6.93706 14.5848 7.11546 13.9847 7.54254C13.2928 8.03989 12.9143 8.73727 12.7738 9.55898C12.7143 9.89956 12.6981 10.251 12.6873 10.5969C12.6765 11.1375 12.6873 11.6781 12.6873 12.2242V12.4296H10.3789V15.1272H12.6765V21.9063H15.4822V15.1326H17.7743C17.8933 14.2352 18.0068 13.3486 18.1257 12.4242C17.9419 12.4242 17.7743 12.4242 17.6122 12.4242C16.958 12.4296 15.466 12.4242 15.466 12.4242C15.466 12.4242 15.4714 11.0889 15.4876 10.505C15.5092 9.71035 15.9849 9.46708 16.6175 9.44546Z" fill="white"/>
</svg>
