<svg width="27" height="28" viewBox="0 0 27 28" fill="none" xmlns="http://www.w3.org/2000/svg">
<path fill-rule="evenodd" clip-rule="evenodd" d="M5.81963 13.9989C5.81963 13.0895 5.96518 12.2176 6.22527 11.3999L1.67534 7.79688C0.788563 9.66391 0.289062 11.7678 0.289062 13.9989C0.289062 16.2282 0.788141 18.3306 1.67345 20.1965L6.22084 16.5865C5.96328 15.7725 5.81963 14.9038 5.81963 13.9989Z" fill="#FBBC05"/>
<path fill-rule="evenodd" clip-rule="evenodd" d="M13.8067 5.72731C15.7117 5.72731 17.4323 6.42731 18.7842 7.57269L22.717 3.5C20.3205 1.33634 17.248 0 13.8067 0C8.46412 0 3.87243 3.16837 1.67383 7.798L6.22354 11.401C7.2719 8.10097 10.2603 5.72731 13.8067 5.72731Z" fill="#EA4335"/>
<path fill-rule="evenodd" clip-rule="evenodd" d="M13.8067 22.2714C10.2605 22.2714 7.27211 19.8977 6.22375 16.5977L1.67383 20.2C3.87243 24.8303 8.46412 27.9987 13.8067 27.9987C17.1041 27.9987 20.2524 26.7844 22.6151 24.5094L18.2963 21.047C17.0778 21.8431 15.5432 22.2714 13.8067 22.2714Z" fill="#34A853"/>
<path fill-rule="evenodd" clip-rule="evenodd" d="M26.7112 13.9985C26.7112 13.1712 26.5882 12.2802 26.4038 11.4531H13.8066V16.8622H21.0578C20.6952 18.7064 19.7085 20.1242 18.2962 21.0468L22.615 24.5092C25.0969 22.1205 26.7112 18.5618 26.7112 13.9985Z" fill="#4285F4"/>
</svg>
