<svg width="28" height="28" viewBox="0 0 28 28" fill="none" xmlns="http://www.w3.org/2000/svg">
<circle cx="13.8394" cy="13.8394" r="13.8394" fill="#678AAF"/>
<path d="M13.2763 19.9546H14.3497C14.3497 19.9546 14.6766 19.9137 14.8401 19.7269C14.9927 19.5517 14.9872 19.219 14.9872 19.219C14.9872 19.219 14.9654 17.6719 15.6356 17.4443C16.2949 17.2166 17.1449 18.9388 18.044 19.5984C18.7251 20.1005 19.2427 19.9896 19.2427 19.9896L21.6457 19.9546C21.6457 19.9546 22.9044 19.8728 22.305 18.8103C22.2559 18.7228 21.9563 18.028 20.5178 16.5978C19.0139 15.1033 19.2155 15.3426 21.03 12.7506C22.1361 11.1744 22.5774 10.2111 22.4412 9.79661C22.3104 9.40547 21.4986 9.51056 21.4986 9.51056L18.7905 9.52807C18.7905 9.52807 18.5889 9.49888 18.4418 9.59229C18.2946 9.68569 18.202 9.9017 18.202 9.9017C18.202 9.9017 17.7716 11.1218 17.1994 12.161C15.9952 14.356 15.5157 14.4669 15.3141 14.3327C14.8564 14.0116 14.9709 13.06 14.9709 12.377C14.9709 10.252 15.2706 9.37045 14.3824 9.13693C14.0882 9.06104 13.8702 9.0085 13.1183 9.00266C12.1538 8.99098 11.3365 9.0085 10.8733 9.24785C10.5682 9.41131 10.3285 9.76742 10.4701 9.79078C10.6499 9.81413 11.0532 9.90753 11.2711 10.2228C11.549 10.6256 11.5381 11.5363 11.5381 11.5363C11.5381 11.5363 11.6961 14.0349 11.1676 14.3502C10.8025 14.5662 10.3012 14.1283 9.2278 12.1376C8.67747 11.1218 8.26336 9.9951 8.26336 9.9951C8.26336 9.9951 8.18163 9.78494 8.03996 9.67402C7.8656 9.53975 7.62585 9.49304 7.62585 9.49304L5.054 9.51056C5.054 9.51056 4.66714 9.52223 4.52547 9.70321C4.40015 9.86083 4.51457 10.1936 4.51457 10.1936C4.51457 10.1936 6.52519 15.2375 8.80825 17.7829C10.9006 20.1063 13.2763 19.9546 13.2763 19.9546Z" fill="white"/>
</svg>
