<svg width="66" height="5" viewBox="0 0 66 5" fill="none" xmlns="http://www.w3.org/2000/svg">
<path d="M0 2.5C0 1.11929 1.11929 0 2.5 0H38.5C39.8807 0 41 1.11929 41 2.5C41 3.88071 39.8769 5 38.4961 5C24.827 5 16.173 5 2.50385 5C1.12314 5 0 3.88071 0 2.5Z" fill="#60C09E"/>
<path d="M0 2.5C0 1.11929 1.11929 0 2.5 0H11.5C12.8807 0 14 1.11929 14 2.5C14 3.88071 12.8799 5 11.4992 5C8.25427 5 5.74573 5 2.50078 5C1.12007 5 0 3.88071 0 2.5Z" fill="#60C09E"/>
<path d="M52 2.5C52 1.11929 53.1193 0 54.5 0H63.5C64.8807 0 66 1.11929 66 2.5C66 3.88071 64.8799 5 63.4992 5C60.2543 5 57.7457 5 54.5008 5C53.1201 5 52 3.88071 52 2.5Z" fill="#60C09E"/>
</svg>
