<svg width="85" height="5" viewBox="0 0 85 5" fill="none" xmlns="http://www.w3.org/2000/svg">
<path d="M0 2.5C0 1.11929 1.11929 0 2.5 0H38.5C39.8807 0 41 1.11929 41 2.5C41 3.88071 39.8769 5 38.4961 5C24.827 5 16.173 5 2.50385 5C1.12314 5 0 3.88071 0 2.5Z" fill="#60C09E"/>
<path d="M50 2.5C50 1.11929 51.1193 0 52.5 0H61.5C62.8807 0 64 1.11929 64 2.5C64 3.88071 62.8799 5 61.4992 5C58.2543 5 55.7457 5 52.5008 5C51.1201 5 50 3.88071 50 2.5Z" fill="#60C09E"/>
<path d="M71 2.5C71 1.11929 72.1193 0 73.5 0H82.5C83.8807 0 85 1.11929 85 2.5C85 3.88071 83.8799 5 82.4992 5C79.2543 5 76.7457 5 73.5008 5C72.1201 5 71 3.88071 71 2.5Z" fill="#60C09E"/>
</svg>
