<svg width="76" height="76" viewBox="0 0 76 76" fill="none" xmlns="http://www.w3.org/2000/svg">
<path d="M37.9153 75.2727C58.7755 75.2727 75.6861 58.4224 75.6861 37.6364C75.6861 16.8504 58.7755 0 37.9153 0C17.0551 0 0.144531 16.8504 0.144531 37.6364C0.144531 58.4224 17.0551 75.2727 37.9153 75.2727Z" fill="#139BD0"/>
<path fill-rule="evenodd" clip-rule="evenodd" d="M37.4755 47.632C36.021 49.0437 34.5789 50.4321 33.1504 51.8313C32.651 52.3215 32.0894 52.5924 31.3726 52.5548C30.8833 52.5289 30.6097 52.3148 30.4594 51.8523C29.3649 48.4675 28.2544 45.0911 27.1658 41.703C27.0601 41.3743 26.9039 41.2145 26.5699 41.1117C23.9914 40.3272 21.4179 39.5243 18.8487 38.7105C18.4534 38.585 18.0547 38.4211 17.713 38.1894C17.1851 37.8331 17.1079 37.2518 17.5813 36.8337C18.0186 36.4481 18.5406 36.1119 19.0829 35.8978C22.2346 34.6533 25.4032 33.4489 28.5667 32.2337C36.5951 29.145 44.6235 26.0588 52.6527 22.9701C54.1795 22.3821 55.3529 23.2101 55.1942 24.8553C55.0927 25.9074 54.819 26.9428 54.5983 27.9816C52.855 36.1838 51.1099 44.3869 49.3574 52.5874C48.9411 54.5345 47.5687 55.043 45.9605 53.8612C43.2671 51.8832 40.5761 49.8985 37.8843 47.9172C37.7559 47.8243 37.6224 47.7348 37.4755 47.632ZM31.4297 50.1226C31.4599 50.1143 31.4901 50.1059 31.5204 50.0984C31.5371 50.0215 31.5615 49.9462 31.5682 49.8701C31.7411 48.0108 31.9241 46.1524 32.0743 44.2899C32.1079 43.875 32.2506 43.5806 32.5637 43.3013C35.0465 41.0891 37.5142 38.8627 39.9869 36.6413C42.724 34.1816 45.462 31.7243 48.189 29.2545C48.3577 29.1023 48.4282 28.8431 48.5441 28.6323C48.2872 28.6047 48.0119 28.5018 47.7786 28.562C47.4605 28.644 47.1591 28.828 46.8754 29.0061C40.8346 32.7974 34.7989 36.5953 28.7539 40.379C28.4122 40.5931 28.3485 40.7746 28.4786 41.1485C28.9242 42.4239 29.3297 43.7111 29.7502 44.9957C30.31 46.7053 30.8699 48.414 31.4297 50.1226Z" fill="white"/>
</svg>
