<svg width="76" height="75" viewBox="0 0 76 75" fill="none" xmlns="http://www.w3.org/2000/svg">
<path fill-rule="evenodd" clip-rule="evenodd" d="M42.2825 25.9779C43.7532 26.2861 44.8805 26.8356 45.8436 27.7224C47.083 28.8732 47.7622 30.266 48.0609 32.267C48.2627 33.5715 48.1801 34.0845 47.7097 34.5099C47.2695 34.9057 46.4556 34.9202 45.9628 34.5465C45.6046 34.2824 45.4925 34.0039 45.4104 33.2489C45.3136 32.2443 45.1342 31.541 44.8279 30.8887C44.1711 29.5034 43.0138 28.785 41.0579 28.5505C40.1396 28.4403 39.8634 28.3381 39.5648 27.9934C39.0195 27.3556 39.229 26.322 39.9826 25.9408C40.2665 25.8015 40.3857 25.787 41.0131 25.8235C41.402 25.8456 41.9768 25.9118 42.2825 25.9779ZM40.6926 20.4433C45.2245 21.0956 48.7331 23.1627 51.033 26.5199C52.3248 28.4112 53.131 30.6322 53.4072 33.0144C53.504 33.8867 53.504 35.4773 53.3995 35.7414C53.3022 35.9904 52.9888 36.3275 52.7202 36.4668C52.4293 36.6136 51.8096 36.5985 51.4661 36.4227C50.8913 36.1366 50.7196 35.6822 50.7196 34.4507C50.7196 32.5525 50.2191 30.5509 49.3533 28.9968C48.3678 27.2227 46.9342 25.7568 45.1873 24.7377C43.6865 23.858 41.4693 23.2057 39.4462 23.0443C38.7144 22.9857 38.3113 22.8389 38.0351 22.5238C37.6096 22.0473 37.5647 21.402 37.923 20.8669C38.3107 20.275 38.908 20.1793 40.6926 20.4433ZM23.1103 15.9208C23.3718 16.009 23.7749 16.2139 24.0062 16.3607C25.4244 17.2846 29.3738 22.247 30.6657 24.7244C31.4046 26.1392 31.6512 27.1873 31.4199 27.9644C31.1809 28.8001 30.7855 29.24 29.0156 30.6397C28.3062 31.2038 27.6416 31.783 27.5372 31.9373C27.2687 32.3186 27.0521 33.0661 27.0521 33.5942C27.0597 34.8181 27.8659 37.0396 28.9259 38.7475C29.7468 40.0741 31.2175 41.7745 32.6734 43.0797C34.3831 44.6193 35.891 45.6674 37.5937 46.4955C39.7814 47.5656 41.1175 47.8366 42.0955 47.3898C42.3416 47.2795 42.603 47.1333 42.685 47.0671C42.7594 47.001 43.3348 46.3121 43.9616 45.5496C45.1708 44.054 45.447 43.812 46.2762 43.5335C47.3291 43.1818 48.4038 43.277 49.4867 43.8196C50.3082 44.2374 52.1 45.3296 53.2567 46.1212C54.7799 47.1693 58.0347 49.779 58.4756 50.2996C59.2516 51.238 59.3862 52.4398 58.8639 53.767C58.3115 55.1668 56.1615 57.791 54.6607 58.9128C53.3022 59.9243 52.339 60.3126 51.0695 60.3712C50.0244 60.4223 49.5912 60.3346 48.255 59.792C37.7736 55.5481 29.4045 49.2149 22.7598 40.5134C19.2884 35.9689 16.645 31.2554 14.8385 26.3662C13.7857 23.515 13.7337 22.276 14.5995 20.817C14.9731 20.2013 16.563 18.6768 17.7203 17.8266C19.6466 16.4193 20.5348 15.8987 21.2442 15.7519C21.7293 15.6492 22.5733 15.7299 23.1103 15.9208ZM40.1774 15.1292C42.7458 15.4443 44.8208 16.0525 47.0983 17.1453C49.338 18.223 50.7715 19.242 52.6677 21.0962C54.4447 22.8482 55.4303 24.1748 56.4755 26.2344C57.9314 29.1076 58.76 32.524 58.9017 36.284C58.9542 37.5665 58.9164 37.8526 58.6178 38.2194C58.0506 38.9303 56.8036 38.8131 56.3781 38.014C56.2435 37.7499 56.2064 37.523 56.1615 36.4964C56.0866 34.9202 55.975 33.9017 55.7508 32.6848C54.8696 27.9127 52.5402 24.1011 48.8222 21.3666C45.7238 19.0795 42.521 17.9653 38.3255 17.7233C36.9067 17.6426 36.6606 17.5916 36.3395 17.3496C35.7423 16.8876 35.7122 15.803 36.287 15.2969C36.6382 14.9818 36.8843 14.9377 38.1012 14.9743C38.7368 14.9969 39.6699 15.0706 40.1774 15.1292ZM37.9153 0C58.7754 0 75.6861 16.6288 75.6861 37.1411C75.6861 57.6535 58.7754 74.2823 37.9153 74.2823C17.0552 74.2823 0.144531 57.6535 0.144531 37.1411C0.144531 16.6288 17.0552 0 37.9153 0Z" fill="#7F4DA0"/>
</svg>
