<svg width="967" height="903" viewBox="0 0 967 903" fill="none" xmlns="http://www.w3.org/2000/svg">
<g style="mix-blend-mode:luminosity" clip-path="url(#clip0)">
<path d="M472.162 902.245C711.015 902.245 904.643 895.643 904.643 887.498C904.643 879.352 711.015 872.75 472.162 872.75C233.31 872.75 39.6814 879.352 39.6814 887.498C39.6814 895.643 233.31 902.245 472.162 902.245Z" fill="#B59C63"/>
<path d="M275.172 829.932L249.426 789.256L230.531 802.815L258.166 842.063L275.172 829.932Z" fill="#E1838E"/>
<path d="M275.172 829.932C274.227 830.645 254.15 844.918 254.15 844.918C254.15 844.918 228.641 861.331 238.089 883.453L287.927 848.01L275.172 829.932Z" fill="#1C1C1A"/>
<path d="M183.054 525.456L141.011 690.063C139.121 697.437 140.539 705.525 145.026 711.709L229.113 830.407L271.865 789.255L210.217 703.146L214.233 525.694L183.054 525.456Z" fill="#4D52D8"/>
<path d="M211.634 860.855L213.76 812.805H190.849V860.855H211.634Z" fill="#E1838E"/>
<path d="M211.634 860.855C210.453 860.855 185.889 860.855 185.889 860.855C185.889 860.855 155.891 859.427 150.695 882.977H211.634V860.855Z" fill="#1C1C1A"/>
<path d="M193.447 525.456L182.582 830.407H229.113L250.371 654.382C250.371 654.382 285.093 559.234 249.426 526.17L193.447 525.456Z" fill="#4D52D8"/>
<path d="M184.708 767.848L192.03 562.089" stroke="#1C1C1A" stroke-width="0.9125" stroke-miterlimit="10"/>
<path d="M239.27 744.298L228.877 830.407" stroke="#1C1C1A" stroke-width="0.9125" stroke-miterlimit="10"/>
<path d="M192.03 522.126C192.03 522.126 181.637 528.311 98.2588 472.887L106.998 459.328L172.425 491.441L241.632 515.941L192.03 522.126Z" fill="#E1838E"/>
<path d="M92.3538 471.46C84.3231 467.416 81.0163 457.425 85.0317 449.338C89.047 441.25 98.9674 437.92 106.998 441.964C115.029 446.007 118.336 455.998 114.32 464.086C110.069 472.411 100.385 475.503 92.3538 471.46Z" fill="#E1838E"/>
<path d="M71.5684 380.831L69.915 368.7C68.4978 358.233 69.4426 348.718 72.9856 340.393C76.5286 332.067 83.3784 322.79 94.2435 312.324C104.636 302.571 111.25 294.96 114.084 289.251C117.155 283.542 118.1 277.595 117.155 271.172C116.21 264.036 112.903 259.041 107.234 255.949C101.566 252.856 94.0073 252.143 84.5593 253.332C68.2616 255.473 50.3105 263.323 30.9421 276.881L8.50317 243.342C30.9421 226.453 55.743 216.224 82.906 212.418C105.345 209.326 123.768 212.418 138.413 221.457C153.057 230.496 161.56 244.055 163.922 262.133C165.576 274.265 164.159 284.969 159.907 294.484C155.655 303.999 146.68 315.179 132.744 328.262C123.296 337.538 117.627 344.199 115.265 348.718C113.139 353.238 112.431 358.709 113.139 365.132L114.557 374.884L71.5684 380.831ZM73.6942 437.682C72.5132 428.405 73.9304 421.269 78.182 415.798C82.4336 410.327 89.2833 407.235 98.4951 405.808C107.471 404.618 114.793 406.045 120.462 410.327C126.13 414.371 129.437 421.031 130.618 430.07C131.799 438.634 130.146 445.77 125.894 451.479C121.643 457.188 115.029 460.518 106.053 461.707C96.8417 462.897 89.5195 461.469 83.8508 457.188C78.4182 453.144 74.8752 446.484 73.6942 437.682Z" fill="#4D52D7"/>
<path d="M251.08 528.311C251.08 526.884 247.537 423.41 247.537 423.41L228.641 415.798H205.257C205.257 415.798 179.512 417.939 177.622 442.677L182.818 525.932L251.08 528.311Z" fill="#E28F36"/>
<path d="M182.818 427.691C182.818 427.691 157.781 458.615 186.361 479.785C214.941 500.956 210.69 467.416 210.69 467.416L182.818 427.691Z" fill="#E28F36"/>
<path d="M265.961 449.1C265.961 449.1 277.771 501.431 266.197 601.337L250.372 599.434L249.427 525.932L239.979 452.668L265.961 449.1Z" fill="#E1838E"/>
<path d="M267.614 607.284C267.614 616.323 260.292 623.697 251.316 623.697C242.341 623.697 235.019 616.323 235.019 607.284C235.019 598.245 242.341 590.871 251.316 590.871C260.292 590.871 267.614 598.245 267.614 607.284Z" fill="#E1838E"/>
<path d="M228.641 415.56C228.641 415.56 269.976 409.376 271.393 455.761L239.034 469.557L228.641 415.56Z" fill="#E28F36"/>
<path d="M239.742 457.663L248.482 528.311" stroke="#1C1C1A" stroke-width="0.9125" stroke-miterlimit="10"/>
<path d="M237.853 357.519C234.782 375.598 221.319 395.341 203.368 392.249C185.416 389.156 173.37 372.029 176.441 353.951C179.511 335.873 192.975 325.882 210.926 328.975C228.877 332.305 240.923 339.441 237.853 357.519Z" fill="#040901"/>
<path d="M214.233 372.98L228.641 415.559L207.147 428.167L193.211 380.83L214.233 372.98Z" fill="#E1838E"/>
<path d="M197.462 331.116C197.462 331.116 179.748 327.072 175.732 340.869C172.425 352.048 189.195 357.757 189.195 357.757L197.462 331.116Z" fill="#040901"/>
<path d="M196.518 336.825C180.929 334.209 178.567 345.864 178.567 345.864L171.244 372.744C170.063 381.545 170.772 389.395 177.386 394.39C181.401 397.482 186.597 398.434 191.558 397.958L197.935 397.244C203.131 396.531 206.438 392.011 207.383 387.016L209.509 360.136C209.745 359.899 212.107 339.442 196.518 336.825Z" fill="#E1838E"/>
<path d="M175.732 361.562L167.229 368.936C166.048 370.126 166.048 371.553 166.993 372.98L172.189 376.786L175.732 361.562Z" fill="#E1838E"/>
<path d="M197.935 397.005C197.935 397.005 204.312 394.627 207.619 387.729C207.619 387.729 206.674 396.53 200.061 403.904L197.935 397.005Z" fill="#040901"/>
<path d="M181.873 336.112C181.873 336.112 195.573 340.155 199.824 363.942L218.012 364.418C218.012 364.418 218.012 336.587 212.815 335.636C207.855 334.684 185.652 329.451 181.873 336.112Z" fill="#040901"/>
<path d="M198.88 355.141L201.005 372.981L207.855 359.898L198.88 355.141Z" fill="#040901"/>
<path d="M206.438 377.262C206.438 377.262 211.398 391.059 220.138 393.913L225.098 374.884L206.438 377.262Z" fill="#040901"/>
<path d="M200.769 368.937C199.352 373.695 201.714 378.69 206.438 380.117C211.162 381.545 216.122 379.166 217.539 374.408C218.957 369.651 216.595 364.656 211.871 363.228C207.147 361.801 202.186 364.418 200.769 368.937Z" fill="#E1838E"/>
<path d="M182.818 336.349C182.818 336.349 181.873 352.048 201.006 360.612C215.65 367.272 212.579 345.626 212.579 345.626L182.818 336.349Z" fill="#040901"/>
<path d="M274.936 335.873C271.393 351.097 256.276 360.85 240.923 357.282C225.806 353.714 216.122 338.49 219.665 323.028C223.208 307.804 238.325 298.052 253.678 301.62C269.031 305.188 278.479 320.649 274.936 335.873Z" fill="#040901"/>
<path d="M228.641 415.56C228.641 415.56 216.595 440.537 203.604 433.877C190.377 426.978 209.745 411.517 209.745 411.517L228.641 415.56Z" fill="#E1838E"/>
<path d="M443.583 859.191L446.181 811.142H469.328L464.368 859.191H443.583Z" fill="#E1838E"/>
<path d="M443.582 859.191C444.763 859.191 469.328 859.191 469.328 859.191C469.328 859.191 499.325 857.764 504.522 881.076H442.165L443.582 859.191Z" fill="#1C1C1A"/>
<path d="M493.184 537.827L477.595 837.307H430.591L439.803 537.827H493.184Z" fill="#2D2D84"/>
<path d="M363.511 859.429L371.306 811.142H394.453L384.297 859.429H363.511Z" fill="#E1838E"/>
<path d="M363.511 859.429C364.692 859.429 389.256 859.429 389.256 859.429C389.256 859.429 419.254 858.002 424.45 881.313H360.912L363.511 859.429Z" fill="#1C1C1A"/>
<path d="M396.579 539.732C396.579 539.732 351.228 836.595 353.827 837.071C356.425 837.547 404.373 837.071 404.373 837.071L465.313 538.305L396.579 539.732Z" fill="#2D2D84"/>
<path d="M435.315 687.686L456.337 587.066" stroke="#1C1C1A" stroke-width="0.9125" stroke-miterlimit="10"/>
<path d="M481.138 416.513C478.776 406.284 469.8 398.672 459.408 398.197C453.03 397.959 445.944 397.721 439.803 397.959C439.803 397.959 414.766 399.148 392.8 421.032L396.579 539.492L493.184 537.589L481.138 416.513Z" fill="#FDFBF6"/>
<path d="M500.27 579.453C491.058 584.211 479.721 580.643 474.761 571.366C470.037 562.089 473.58 550.671 482.791 545.676C492.003 540.918 503.341 544.486 508.301 553.763C513.025 563.278 509.482 574.696 500.27 579.453Z" fill="#E1838E"/>
<path d="M489.405 548.531L462.715 536.875L455.865 554.953L483.028 568.274L489.405 548.531Z" fill="#E1838E"/>
<path d="M434.134 422.221L409.333 500.719L478.067 540.681L464.84 566.134L377.21 524.03C368.943 519.987 364.928 510.71 367.526 501.908C367.526 501.908 374.14 446.484 392.327 421.27C398.232 413.42 434.134 422.221 434.134 422.221Z" fill="#FDFBF6"/>
<path d="M420.671 464.801L409.333 500.719L478.067 540.682" stroke="#1C1C1A" stroke-width="0.9125" stroke-miterlimit="10"/>
<path d="M585.066 328.025C592.624 335.399 592.624 347.292 585.302 354.904C577.98 362.516 566.17 362.516 558.612 355.142C551.053 347.768 551.053 335.875 558.375 328.263C565.697 320.889 577.507 320.889 585.066 328.025Z" fill="#E1838E"/>
<path d="M559.32 348.006L556.486 377.264L575.618 378.215L579.869 348.006H559.32Z" fill="#E1838E"/>
<path d="M464.368 399.149L544.676 428.407L553.415 360.138L580.578 365.133L570.421 460.757C566.642 469.083 557.194 473.127 548.455 470.51L478.304 445.771L464.368 399.149Z" fill="#FDFBF6"/>
<path d="M526.016 269.508L522.945 257.139C520.347 246.435 520.347 236.682 522.709 227.643C525.307 218.604 531.448 208.137 541.133 196.244C550.581 185.064 556.486 176.263 558.848 170.316C561.21 164.131 561.682 157.947 560.029 151.524C558.139 144.388 554.36 139.63 547.982 137.014C541.841 134.635 534.047 134.635 524.599 137.014C508.065 141.058 490.586 151.286 472.399 167.461L445.472 135.587C466.494 115.605 490.822 102.047 518.221 95.1485C540.896 89.4396 560.265 90.3911 576.326 98.003C592.388 105.615 602.781 118.46 607.268 136.776C610.339 148.907 610.103 160.087 606.796 170.316C603.489 180.544 595.458 193.151 582.94 208.137C574.437 218.604 569.24 226.216 567.351 231.211C565.461 235.968 565.461 241.677 567.115 248.338L569.477 258.328L526.016 269.508ZM534.755 327.549C532.393 318.272 533.102 310.66 536.881 304.713C540.66 298.766 547.274 294.485 556.722 292.106C565.934 289.727 573.492 290.441 579.633 294.009C585.774 297.577 590.026 304 592.388 313.039C594.514 321.84 593.805 329.214 590.026 335.636C586.247 342.059 579.869 346.341 570.894 348.481C561.682 350.86 553.887 350.147 547.746 346.578C541.133 342.773 536.881 336.588 534.755 327.549Z" fill="#4D52D7"/>
<path d="M431.064 356.331L423.978 398.91C422.561 407.473 428.702 415.561 437.205 416.75C445.944 417.94 453.739 411.755 454.92 403.192L459.644 369.176L431.064 356.331Z" fill="#E1838E"/>
<path d="M467.911 328.5L475.942 357.521C480.666 369.414 472.399 386.541 459.644 385.352C448.306 383.924 439.803 374.172 440.039 362.516L440.512 329.928C441.456 328.025 461.061 317.083 467.911 328.5Z" fill="#E1838E"/>
<path d="M470.745 344.438L479.248 352.525C480.429 353.714 480.429 355.38 479.484 356.569L476.178 359.185L470.745 344.438Z" fill="#E1838E"/>
<path d="M433.662 355.855C433.662 355.855 441.929 371.793 427.993 376.312L415.002 362.992C409.57 356.807 406.735 346.578 408.152 338.491C409.333 331.83 412.64 327.549 420.435 321.126C439.094 305.902 453.739 312.325 456.809 321.84L444.763 345.389L433.662 355.855Z" fill="#040901"/>
<path d="M448.07 325.884C448.07 325.884 455.865 341.345 442.401 347.768L448.07 325.884Z" fill="#040901"/>
<path d="M444.763 340.632L447.834 352.05L439.567 354.191L439.803 342.773L444.763 340.632Z" fill="#040901"/>
<path d="M457.518 385.114C457.518 385.114 446.889 381.784 443.346 374.647C443.346 374.647 445.708 385.827 456.573 391.774L457.518 385.114Z" fill="#040901"/>
<path d="M440.984 351.811C444.055 357.282 440.748 363.943 434.607 364.894C431.064 365.37 427.757 363.705 425.867 360.612C422.797 355.141 426.104 348.481 432.245 347.53C435.788 347.054 439.331 348.719 440.984 351.811Z" fill="#E1838E"/>
<path d="M505.467 319.937C504.994 318.986 504.049 318.272 502.868 318.51L469.092 328.025C465.076 318.986 454.448 304.952 433.662 309.233C407.68 314.466 404.609 333.972 406.263 346.103C406.499 347.53 406.735 348.72 406.971 349.909L504.049 322.792C505.23 322.554 505.939 321.127 505.467 319.937Z" fill="#5945F3"/>
<path d="M676.475 377.977C676.475 377.977 610.339 379.404 640.573 428.167C651.674 446.008 649.076 456.712 644.116 462.659C642.698 464.562 644.352 467.178 646.478 466.465C662.303 460.994 684.742 447.197 663.484 415.56C663.484 415.56 647.895 394.628 679.073 381.545L676.475 377.977Z" fill="#040901"/>
<path d="M674.585 368.937C674.113 369.412 662.539 373.932 668.444 383.922C674.349 393.913 687.34 387.49 687.34 387.49L674.585 368.937Z" fill="#E28F36"/>
<path d="M672.459 375.36C680.963 392.011 701.276 398.434 717.81 389.871C734.344 381.307 738.831 361.802 730.328 345.389C721.825 328.738 703.402 321.126 687.104 329.689C670.806 338.253 663.956 358.709 672.459 375.36Z" fill="#040901"/>
<path d="M697.024 369.889L725.368 383.447L729.147 404.142C729.147 404.142 732.218 409.613 726.077 415.084C720.172 420.555 708.125 423.41 705.055 416.511L697.024 369.889Z" fill="#E1838E"/>
<path d="M712.141 370.602L702.457 362.99C702.457 362.99 702.693 400.098 727.494 396.054L725.368 383.685L712.141 370.602Z" fill="#040901"/>
<path d="M729.147 388.443C740.249 382.734 745.681 371.316 740.012 360.136L725.604 331.829C723.242 327.072 717.101 325.169 712.377 327.548L689.702 339.203C684.978 341.582 683.088 347.767 685.45 352.524L698.205 377.738C704.11 389.156 719.936 393.438 729.147 388.443Z" fill="#E1838E"/>
<path d="M732.926 350.621L742.374 353.238C743.319 353.713 743.791 354.903 743.555 356.092L740.012 362.277L732.926 350.621Z" fill="#E1838E"/>
<path d="M713.558 327.31C713.558 327.31 723.951 350.145 697.024 366.083C697.024 366.083 680.018 367.748 679.309 357.281C678.601 346.815 682.616 335.873 690.883 333.256C698.677 330.402 713.558 327.31 713.558 327.31Z" fill="#040901"/>
<path d="M714.03 328.975C714.03 328.975 721.589 329.451 729.383 339.441C729.383 339.441 734.816 329.213 721.116 323.266C707.417 317.319 703.401 335.635 703.401 335.635L714.03 328.975Z" fill="#040901"/>
<path d="M686.395 374.646C688.521 378.928 693.954 380.593 698.205 378.452C702.457 376.312 704.11 370.84 701.984 366.559C699.859 362.277 694.426 360.612 690.174 362.753C685.923 364.894 684.269 370.127 686.395 374.646Z" fill="#E1838E"/>
<path d="M720.645 859.191L723.479 811.141H746.39L741.43 859.191H720.645Z" fill="#E1838E"/>
<path d="M720.644 859.191C721.825 859.191 746.39 859.191 746.39 859.191C746.39 859.191 776.387 857.764 781.584 881.075H719.227L720.644 859.191Z" fill="#1C1C1A"/>
<path d="M751.822 523.792L764.813 701.958L759.617 836.355H710.488L713.322 684.593L699.623 526.409L751.822 523.792Z" fill="#E28F36"/>
<path d="M647.422 859.191L660.177 811.141H683.325L668.208 859.191H647.422Z" fill="#E1838E"/>
<path d="M647.422 859.191C648.603 859.191 673.168 859.191 673.168 859.191C673.168 859.191 703.165 857.764 708.362 881.075H642.226L647.422 859.191Z" fill="#1C1C1A"/>
<path d="M690.411 526.409C690.411 526.409 666.555 547.58 669.153 611.091L670.806 696.011L627.582 835.166L681.435 838.734L724.896 699.579L743.083 517.846L690.411 526.409Z" fill="#E28F36"/>
<path d="M712.377 739.066L724.66 694.822L735.997 582.309" stroke="#1C1C1A" stroke-width="0.9125" stroke-miterlimit="10"/>
<path d="M849.845 309.232C848.9 308.756 845.83 296.149 860.474 298.766C875.119 301.382 878.189 294.722 884.094 299.004C889.999 303.285 889.291 317.082 859.529 313.752L849.845 309.232Z" fill="#E1838E"/>
<path d="M848.901 305.188L842.996 319.223L855.042 325.407L861.419 307.091L848.901 305.188Z" fill="#E1838E"/>
<path d="M729.856 408.424L806.621 383.685L836.854 314.465L864.962 322.552L836.618 396.768C835.201 400.336 832.839 403.191 829.768 405.569C818.195 414.371 785.599 436.017 737.887 443.629C727.73 445.294 718.282 437.92 717.574 427.454C716.629 418.89 721.825 411.041 729.856 408.424Z" fill="#2D2D84"/>
<path d="M688.285 526.409C688.285 524.981 675.058 441.964 675.058 441.964L713.795 411.041H737.178C737.178 411.041 762.924 413.182 764.814 437.92L752.059 523.554L688.285 526.409Z" fill="#2D2D84"/>
<path d="M759.617 423.41C759.617 423.41 784.654 454.333 756.074 475.504C727.494 496.674 731.746 463.135 731.746 463.135L759.617 423.41Z" fill="#2D2D84"/>
<path d="M789.851 299.955C788.906 299.717 783.001 288.061 797.882 287.348C812.763 286.634 814.18 279.26 820.794 282.115C827.643 284.969 830.005 298.528 800.244 302.096L789.851 299.955Z" fill="#E1838E"/>
<path d="M788.197 296.15L785.599 311.136L798.826 314.466L800.716 295.198L788.197 296.15Z" fill="#E1838E"/>
<path d="M684.27 421.507L756.074 384.637L778.986 305.426L808.038 308.756L787.489 392.487C786.544 396.055 784.654 399.385 782.056 402.239C771.9 412.706 743.083 439.347 697.497 454.571C687.813 457.901 677.42 451.954 674.822 441.964C673.168 433.876 676.947 425.313 684.27 421.507Z" fill="#2D2D84"/>
<path d="M788.434 390.108L783.237 405.094C782.529 406.997 781.348 408.425 779.694 409.376L722.062 443.392" stroke="#1C1C1A" stroke-width="0.9125" stroke-miterlimit="10"/>
<path d="M793.158 243.58L804.968 239.774C815.124 236.443 824.572 235.73 833.548 237.871C842.523 239.774 852.916 245.245 865.198 254.046C876.772 262.609 885.512 267.843 891.653 269.983C897.794 271.886 903.935 271.886 910.076 269.983C916.926 267.843 921.414 263.561 923.303 257.138C925.193 250.954 924.721 243.104 921.886 234.065C916.69 218.127 905.825 201.476 889.054 184.588L918.107 156.043C938.893 175.548 953.537 198.622 962.04 225.026C969.126 246.91 969.362 265.94 962.985 282.353C956.607 298.766 944.798 309.708 927.319 315.179C915.745 318.985 904.88 319.461 894.723 316.844C884.567 314.227 871.812 307.329 856.459 295.673C845.594 287.824 838.035 283.304 833.075 281.877C828.351 280.45 822.683 280.688 816.305 282.828L806.857 285.921L793.158 243.58ZM737.415 255.949C746.39 253.094 753.712 253.332 759.854 256.663C765.995 259.993 770.482 266.177 773.317 275.454C776.151 284.256 775.915 291.868 772.844 298.29C769.774 304.713 763.869 309.232 755.13 312.087C746.863 314.703 739.54 314.465 733.163 311.135C726.786 307.805 722.298 301.858 719.463 293.057C716.629 284.018 716.865 276.406 719.936 269.983C723.006 263.323 728.675 258.566 737.415 255.949Z" fill="#4D52D7"/>
<path d="M281.786 196.482L278.243 182.923C275.172 171.267 274.936 160.325 277.77 150.335C280.369 140.344 287.218 128.688 297.847 115.605C308.24 102.998 314.617 93.4833 317.216 86.5851C319.814 79.6868 320.05 72.7885 318.16 65.8903C316.035 58.0405 311.547 52.8074 304.697 50.1908C297.847 47.5742 289.108 47.5742 278.715 50.4286C260.528 55.1861 241.396 66.6039 221.319 84.92L191.085 50.1908C213.997 27.8309 240.687 12.6071 270.921 4.5195C295.721 -2.14089 317.216 -1.42728 335.167 6.89821C353.118 14.9858 364.692 29.2581 369.888 49.2393C373.431 62.5601 373.431 74.9294 369.888 86.3472C366.345 97.765 357.842 111.799 343.906 128.45C334.458 140.106 329.026 148.669 327.136 154.14C325.246 159.374 325.246 165.796 327.136 173.17L329.97 184.112L281.786 196.482ZM292.415 260.707C289.817 250.478 290.525 241.915 294.541 235.255C298.556 228.594 305.878 223.837 316.271 220.982C326.427 218.366 334.694 218.841 341.78 222.885C348.63 226.691 353.354 233.827 355.952 243.818C358.551 253.333 357.606 261.658 353.59 268.794C349.575 275.931 342.489 280.688 332.569 283.305C322.412 285.921 313.909 285.445 306.823 281.402C299.737 277.358 294.777 270.46 292.415 260.707Z" fill="#F5EBD2"/>
<path d="M717.101 137.014L718.754 129.403C720.171 122.742 723.006 117.271 727.021 112.989C731.037 108.708 737.414 104.664 746.153 100.858C754.657 97.29 760.325 94.1977 763.396 91.3432C766.467 88.4888 768.356 85.1586 769.301 81.1147C770.246 76.5952 769.537 72.7893 766.703 69.6969C763.868 66.6046 759.617 64.2259 753.712 63.0365C743.319 60.6578 730.8 61.3714 715.92 65.1774L709.779 39.7252C727.021 34.492 744.5 34.0163 761.743 37.8222C775.915 41.1524 786.544 47.0992 793.393 55.9004C800.243 64.7016 802.369 74.9301 799.771 86.3479C798.117 93.9598 794.811 100.144 790.087 104.902C785.363 109.659 777.332 114.417 766.23 119.174C758.436 122.504 753.476 125.359 751.114 127.5C748.752 129.64 747.098 132.733 746.153 137.014L744.736 143.199L717.101 137.014ZM705.763 171.982C707.18 166.035 709.543 161.991 713.322 159.85C717.101 157.471 722.061 156.996 727.966 158.423C733.635 159.85 737.886 162.229 740.248 166.035C742.61 169.841 743.319 174.598 741.902 180.307C740.721 185.778 738.123 189.822 734.107 192.201C730.328 194.579 725.368 195.293 719.699 193.866C713.794 192.438 709.779 190.06 707.18 186.254C705.055 182.21 704.582 177.69 705.763 171.982Z" fill="#F5F3EC"/>
<path d="M842.287 588.018L846.538 579.692C850.081 572.318 854.805 566.847 860.474 563.041C866.143 559.235 874.646 556.143 885.984 554.24C896.613 552.575 904.171 550.434 908.422 548.055C912.674 545.676 915.981 542.346 918.107 538.065C920.469 533.069 920.469 528.55 918.107 524.03C915.745 519.748 911.257 515.943 904.88 512.612C893.542 506.903 878.898 504.287 860.71 504.525V473.363C882.204 472.174 902.281 476.456 921.177 485.733C936.766 493.345 947.159 503.335 952.828 515.467C958.26 527.598 958.024 539.968 951.883 552.337C947.868 560.662 942.435 567.085 935.585 571.129C928.736 575.41 918.343 578.503 903.935 580.881C894.014 582.784 887.401 584.45 884.094 586.352C880.787 588.255 877.953 591.348 875.827 595.867L872.52 602.766L842.287 588.018ZM819.612 625.363C822.682 618.941 826.698 614.897 831.894 613.47C836.854 611.805 842.523 612.756 849.137 615.849C855.514 618.941 859.529 622.985 861.183 628.218C863.072 633.213 862.364 638.922 859.293 645.107C856.459 651.054 852.207 655.097 847.011 656.763C841.814 658.428 836.146 657.714 830.004 654.859C823.627 651.767 819.612 647.486 817.722 642.49C816.069 637.019 816.541 631.548 819.612 625.363Z" fill="#FEF7E7"/>
<path d="M13.4633 609.426L15.5891 601.814C17.2425 595.392 20.313 589.921 24.3284 585.877C28.3438 581.833 34.7212 578.027 43.6968 574.697C52.1999 571.605 57.8687 568.75 60.9393 566.134C64.0099 563.517 66.1357 560.187 67.0805 556.381C68.2615 551.861 67.5529 548.056 64.9547 544.963C62.3565 541.871 58.1049 539.492 52.4361 537.827C42.2796 534.973 29.9972 535.21 15.1167 538.303L10.1565 513.088C27.399 508.807 44.6416 508.807 61.4117 513.326C75.3475 517.132 85.5041 523.555 91.8814 532.356C98.2588 541.395 99.9122 551.386 96.8416 562.566C94.952 569.94 91.409 576.124 86.6851 580.644C81.9611 585.163 73.6941 589.445 62.5927 593.727C54.7981 596.819 49.838 599.436 47.2398 601.339C44.8778 603.48 42.9882 606.334 42.0434 610.616L40.39 616.8L13.4633 609.426ZM0.944705 643.442C2.3619 637.733 5.19629 633.927 8.97548 631.786C12.7547 629.645 17.7149 629.407 23.3836 631.073C29.0524 632.5 32.8316 635.354 35.1936 639.16C37.5556 642.966 37.7918 647.724 36.3746 653.195C34.9574 658.666 32.3592 662.472 28.3438 664.612C24.3284 666.753 19.6044 667.229 14.1719 665.802C8.50308 664.375 4.48769 661.52 2.3619 657.714C-0.236291 653.67 -0.70869 648.913 0.944705 643.442Z" fill="#F4E8CA"/>
<path d="M585.774 567.561L584.83 562.328C584.121 557.808 584.357 553.765 585.538 550.196C586.719 546.628 589.554 542.347 594.041 537.827C598.293 533.546 600.891 529.977 602.072 527.599C603.253 525.22 603.489 522.603 603.017 519.749C602.544 516.657 600.891 514.516 598.529 513.564C595.931 512.375 592.86 512.137 588.845 512.851C581.995 514.04 574.437 517.846 566.406 524.031L556.013 510.234C565.225 502.622 575.618 497.627 587.192 495.486C596.639 493.821 604.67 494.772 611.048 498.341C617.425 501.909 621.44 507.618 622.858 515.229C623.802 520.225 623.33 524.982 621.677 529.026C620.023 533.07 616.48 538.065 610.811 544.012C607.032 548.056 604.67 551.148 603.725 553.051C602.781 554.954 602.781 557.333 603.253 560.187L603.962 564.469L585.774 567.561ZM587.9 591.824C587.191 588.018 587.664 584.688 589.317 582.309C590.971 579.93 593.805 578.265 597.82 577.552C601.6 576.838 604.906 577.314 607.268 578.979C609.63 580.644 611.284 583.261 611.992 587.067C612.701 590.635 612.229 593.727 610.339 596.344C608.686 598.96 605.851 600.387 602.072 601.101C598.293 601.815 594.986 601.339 592.624 599.674C590.262 598.246 588.609 595.63 587.9 591.824Z" fill="#E9E3D6"/>
</g>
<defs>
<clipPath id="clip0">
<rect width="967" height="902.246" fill="white"/>
</clipPath>
</defs>
</svg>
