<svg width="334" height="387" viewBox="0 0 334 387" fill="none" xmlns="http://www.w3.org/2000/svg">
<path opacity="0.4" d="M312.44 338.892L333.278 336.097L313.655 187.542L322.95 45.3678L294.701 43.5451L289.72 6.05713L101.152 30.9073L54.9818 27.9301L54.3743 37.1047L23.5133 41.1755L25.2143 54.1778L9.17627 56.0005L37.3643 298.244L33.3548 360.157L44.6543 360.886L47.6918 386.769L188.814 370.304L301.262 377.655L302.66 357.058L314.384 355.661L312.44 338.892Z" fill="#324C5B"/>
<path d="M280.51 -0.00014724L14.3042 35.1533L57.8821 365.246L324.088 330.092L280.51 -0.00014724Z" fill="#647286"/>
<path d="M45.7936 21.8468L24.135 354.104L292.086 371.575L313.745 39.3183L45.7936 21.8468Z" fill="#C7CAD1"/>
<path d="M266.716 18.9393L0 49.9839L38.4844 380.709L305.2 349.664L266.716 18.9393Z" fill="white"/>
<path d="M70.5914 68.2785L26.2393 73.4409L31.4009 117.799L75.753 112.637L70.5914 68.2785Z" stroke="#333333" stroke-width="8" stroke-miterlimit="10"/>
<path d="M37.2427 90.2069L46.5374 102.662L65.6129 82.2476" stroke="#00D398" stroke-width="12" stroke-miterlimit="10"/>
<path d="M245.237 54.1863L89.3103 72.3354L89.8581 77.0429L245.784 58.8937L245.237 54.1863Z" fill="#999999"/>
<path d="M246.882 68.1585L90.9558 86.3076L91.5036 91.015L247.43 72.8659L246.882 68.1585Z" fill="#999999"/>
<path d="M174.231 90.2151L92.5266 99.7251L93.0744 104.432L174.779 94.9225L174.231 90.2151Z" fill="#999999"/>
<path d="M77.27 125.511L32.918 130.674L38.0797 175.032L82.4317 169.87L77.27 125.511Z" stroke="#333333" stroke-width="8" stroke-miterlimit="10"/>
<path d="M43.925 147.441L53.2198 159.897L72.2953 139.482" stroke="#00D398" stroke-width="12" stroke-miterlimit="10"/>
<path d="M251.922 111.48L95.9961 129.629L96.5439 134.337L252.47 116.188L251.922 111.48Z" fill="#999999"/>
<path d="M253.561 125.392L97.6345 143.542L98.1823 148.249L254.109 130.1L253.561 125.392Z" fill="#999999"/>
<path d="M180.91 147.448L99.2056 156.958L99.7533 161.665L181.458 152.155L180.91 147.448Z" fill="#999999"/>
<path d="M83.9756 182.794L39.6235 187.96L44.7897 232.319L89.1418 227.152L83.9756 182.794Z" stroke="#333333" stroke-width="8" stroke-miterlimit="10"/>
<path d="M50.6079 204.676L59.9027 217.132L78.9174 196.717" stroke="#00D398" stroke-width="12" stroke-miterlimit="10"/>
<path d="M258.602 168.713L102.675 186.862L103.223 191.57L259.149 173.421L258.602 168.713Z" fill="#999999"/>
<path d="M260.179 182.633L104.253 200.782L104.801 205.489L260.727 187.34L260.179 182.633Z" fill="#999999"/>
<path d="M187.528 204.689L105.823 214.199L106.371 218.907L188.076 209.397L187.528 204.689Z" fill="#999999"/>
<path d="M90.5787 240.043L46.2266 245.206L51.3882 289.564L95.7403 284.401L90.5787 240.043Z" stroke="#333333" stroke-width="8" stroke-miterlimit="10"/>
<path d="M57.2295 261.91L66.585 274.366L85.5997 253.951" stroke="#00D398" stroke-width="12" stroke-miterlimit="10"/>
<path d="M265.221 225.952L109.294 244.102L109.842 248.809L265.768 230.66L265.221 225.952Z" fill="#999999"/>
<path d="M266.886 239.835L110.96 258L111.508 262.707L267.434 244.542L266.886 239.835Z" fill="#999999"/>
<path d="M194.208 261.921L112.503 271.431L113.051 276.139L194.756 266.628L194.208 261.921Z" fill="#999999"/>
<path d="M97.2827 297.266L52.9307 302.433L58.0968 346.791L102.449 341.624L97.2827 297.266Z" stroke="#333333" stroke-width="8" stroke-miterlimit="10"/>
<path d="M63.9119 319.145L73.2066 331.6L92.2821 311.186" stroke="#00D398" stroke-width="12" stroke-miterlimit="10"/>
<path d="M271.931 283.156L116.004 301.321L116.553 306.028L272.479 287.863L271.931 283.156Z" fill="#999999"/>
<path d="M273.539 297.097L117.612 315.247L118.16 319.954L274.086 301.805L273.539 297.097Z" fill="#999999"/>
<path d="M200.918 319.133L119.214 328.651L119.762 333.359L201.466 323.84L200.918 319.133Z" fill="#999999"/>
</svg>
